<svg width="60" height="60" viewBox="0 0 60 60" fill="none" xmlns="http://www.w3.org/2000/svg"><circle cx="30" cy="30" r="29" stroke="#EAE7F2" stroke-width="2"/><mask id="a" fill="#fff"><path d="M30 0a30 30 0 1 1-17.634 5.73l1.173 1.613A28.005 28.005 0 1 0 30 1.995V0z"/></mask><path d="M30 0a30 30 0 1 1-17.634 5.73l1.173 1.613A28.005 28.005 0 1 0 30 1.995V0z" stroke="#966CEE" stroke-width="4" mask="url(#a)"/><path d="M20.002 34.76h3.2v-8.48l-3.2 2.28v-2.92l3.38-2.4h2.82v11.52h2.6v2.48h-8.8v-2.48zM35.6 37.48a6.27 6.27 0 0 1-2.14-.36 4.232 4.232 0 0 1-1.7-1.22c-.48-.573-.86-1.32-1.14-2.24-.28-.933-.42-2.073-.42-3.42v-.4c0-1.253.14-2.313.42-3.18.28-.867.66-1.567 1.14-2.1a4.135 4.135 0 0 1 1.7-1.18A5.974 5.974 0 0 1 35.6 23c.76 0 1.466.127 2.12.38.666.24 1.24.633 1.72 1.18.48.533.86 1.233 1.14 2.1.28.867.42 1.927.42 3.18v.4c0 1.347-.14 2.487-.42 3.42-.28.92-.66 1.667-1.14 2.24-.48.56-1.054.967-1.72 1.22-.654.24-1.36.36-2.12.36zm0-2.52c.333 0 .646-.067.94-.2.293-.133.546-.373.76-.72.226-.36.4-.847.52-1.46s.18-1.393.18-2.34v-.4c0-.853-.06-1.553-.18-2.1-.12-.56-.294-1-.52-1.32-.214-.333-.467-.567-.76-.7a2.245 2.245 0 0 0-.94-.2c-.347 0-.667.067-.96.2-.28.133-.534.367-.76.7-.214.32-.38.76-.5 1.32-.12.547-.18 1.247-.18 2.1v.4c0 .947.06 1.727.18 2.34.12.613.286 1.1.5 1.46.226.347.48.587.76.72.293.133.613.2.96.2z" fill="#392B4B"/></svg>