<svg width="60" height="60" viewBox="0 0 60 60" fill="none" xmlns="http://www.w3.org/2000/svg"><circle cx="30" cy="30" r="29" stroke="#EAE7F2" stroke-width="2"/><mask id="a" fill="#fff"><path d="M60 30c0 16.569-13.431 30-30 30C13.431 60 0 46.569 0 30 0 13.431 13.431 0 30 0c16.569 0 30 13.431 30 30zM1.944 30c0 15.495 12.561 28.056 28.056 28.056 15.495 0 28.056-12.561 28.056-28.056C58.056 14.505 45.495 1.944 30 1.944 14.505 1.944 1.944 14.505 1.944 30z"/></mask><path d="M60 30c0 16.569-13.431 30-30 30C13.431 60 0 46.569 0 30 0 13.431 13.431 0 30 0c16.569 0 30 13.431 30 30zM1.944 30c0 15.495 12.561 28.056 28.056 28.056 15.495 0 28.056-12.561 28.056-28.056C58.056 14.505 45.495 1.944 30 1.944 14.505 1.944 1.944 14.505 1.944 30z" stroke="#966CEE" stroke-width="4" mask="url(#a)"/><path d="M21.002 34.27h3.2v-8.48l-3.2 2.28v-2.92l3.38-2.4h2.82v11.52h2.6v2.48h-8.8v-2.48zM31.1 34.27h3.2v-8.48l-3.2 2.28v-2.92l3.38-2.4h2.82v11.52h2.6v2.48h-8.8v-2.48z" fill="#392B4B"/></svg>