<svg width="60" height="60" viewBox="0 0 60 60" fill="none" xmlns="http://www.w3.org/2000/svg"><circle cx="30" cy="30" r="29" stroke="#EAE7F2" stroke-width="2"/><mask id="a" fill="#fff"><path d="M30 0a30 30 0 0 1 28.532 20.73l-1.898.616A28.005 28.005 0 0 0 30 1.995V0z"/></mask><path d="M30 0a30 30 0 0 1 28.532 20.73l-1.898.616A28.005 28.005 0 0 0 30 1.995V0z" stroke="#966CEE" stroke-width="4" mask="url(#a)"/><path d="M24.998 35.06l4.9-4.22c.454-.4.84-.747 1.16-1.04.32-.307.58-.587.78-.84.2-.253.34-.5.42-.74.094-.24.14-.5.14-.78 0-.573-.16-1.033-.48-1.38-.32-.36-.793-.54-1.42-.54-.72 0-1.286.2-1.7.6-.4.387-.6 1.06-.6 2.02h-3c0-1.587.447-2.84 1.34-3.76.907-.92 2.227-1.38 3.96-1.38.814 0 1.52.113 2.12.34.614.213 1.127.52 1.54.92.414.387.72.853.92 1.4.214.547.32 1.14.32 1.78 0 .48-.086.94-.26 1.38-.173.427-.413.84-.72 1.24-.293.4-.64.793-1.04 1.18-.4.373-.826.747-1.28 1.12l-2.88 2.4h6.38v2.48h-10.6v-2.18z" fill="#392B4B"/></svg>