<svg width="60" height="60" viewBox="0 0 60 60" fill="none" xmlns="http://www.w3.org/2000/svg"><circle cx="30" cy="30" r="29" stroke="#EAE7F2" stroke-width="2"/><mask id="a" fill="#fff"><path d="M30 0a30 30 0 0 1 28.532 39.27l-1.898-.616A28.005 28.005 0 0 0 30 1.995V0z"/></mask><path d="M30 0a30 30 0 0 1 28.532 39.27l-1.898-.616A28.005 28.005 0 0 0 30 1.995V0z" stroke="#966CEE" stroke-width="4" mask="url(#a)"/><path d="M30.2 37.48c-1.707 0-3-.4-3.88-1.2-.88-.813-1.32-1.927-1.32-3.34h3c0 .68.173 1.187.52 1.52.36.333.92.5 1.68.5.733 0 1.28-.16 1.64-.48.373-.333.56-.8.56-1.4 0-1.253-.733-1.88-2.2-1.88h-1.3v-2.32h1.3c.64 0 1.133-.133 1.48-.4s.52-.68.52-1.24c0-.507-.167-.92-.5-1.24-.333-.32-.833-.48-1.5-.48-.68 0-1.187.16-1.52.48-.32.307-.48.753-.48 1.34h-3c0-1.373.413-2.44 1.24-3.2.84-.76 2.093-1.14 3.76-1.14.84 0 1.573.1 2.2.3.627.187 1.147.453 1.56.8.413.333.72.733.92 1.2.213.467.32.973.32 1.52 0 .773-.22 1.433-.66 1.98-.427.533-1 .913-1.72 1.14.827.227 1.46.62 1.9 1.18.453.56.68 1.3.68 2.22 0 .6-.12 1.153-.36 1.66A3.81 3.81 0 0 1 34 36.32c-.44.36-.987.647-1.64.86-.64.2-1.36.3-2.16.3z" fill="#392B4B"/></svg>