<svg width="60" height="60" viewBox="0 0 60 60" fill="none" xmlns="http://www.w3.org/2000/svg"><circle cx="30" cy="30" r="29" stroke="#EAE7F2" stroke-width="2"/><mask id="a" fill="#fff"><path d="M30 0a30 30 0 0 1 17.634 54.27l-1.173-1.614A28.005 28.005 0 0 0 30 1.995V0z"/></mask><path d="M30 0a30 30 0 0 1 17.634 54.27l-1.173-1.614A28.005 28.005 0 0 0 30 1.995V0z" stroke="#966CEE" stroke-width="4" mask="url(#a)"/><path d="M30.6 34.04H24v-2.08L30.6 23h3v8.56h1.6v2.48h-1.6V37h-3v-2.96zm0-2.48v-5.22l-3.8 5.22h3.8z" fill="#392B4B"/></svg>