<svg width="60" height="60" viewBox="0 0 60 60" fill="none" xmlns="http://www.w3.org/2000/svg"><circle cx="30" cy="30" r="29" stroke="#EAE7F2" stroke-width="2"/><mask id="a" fill="#fff"><path d="M30 0a30 30 0 1 1 0 60v-1.995a28.004 28.004 0 0 0 0-56.01V0z"/></mask><path d="M30 0a30 30 0 1 1 0 60v-1.995a28.004 28.004 0 0 0 0-56.01V0z" stroke="#966CEE" stroke-width="4" mask="url(#a)"/><path d="M30 37.24c-.893 0-1.653-.113-2.28-.34-.613-.227-1.12-.527-1.52-.9-.4-.387-.7-.827-.9-1.32a4.882 4.882 0 0 1-.3-1.58h3c.04.48.22.873.54 1.18.333.293.82.44 1.46.44 1.467 0 2.2-.827 2.2-2.48 0-.44-.06-.813-.18-1.12a1.979 1.979 0 0 0-.48-.74c-.2-.187-.433-.32-.7-.4a2.525 2.525 0 0 0-.84-.14c-.467 0-.853.087-1.16.26a2.07 2.07 0 0 0-.74.7h-2.8V23h9.12v2.48H28.3v2.56c.28-.253.62-.433 1.02-.54.413-.12.873-.18 1.38-.18.68 0 1.293.107 1.84.32.56.2 1.033.507 1.42.92.4.413.707.927.92 1.54.213.613.32 1.32.32 2.12 0 .76-.127 1.453-.38 2.08a4.412 4.412 0 0 1-1.04 1.58c-.453.44-1 .78-1.64 1.02-.64.227-1.353.34-2.14.34z" fill="#392B4B"/></svg>