<svg width="60" height="60" viewBox="0 0 60 60" fill="none" xmlns="http://www.w3.org/2000/svg"><circle cx="30" cy="30" r="29" stroke="#EAE7F2" stroke-width="2"/><mask id="a" fill="#fff"><path d="M30 0a30 30 0 1 1-17.633 54.27l1.172-1.614A28.004 28.004 0 1 0 30 1.995V0z"/></mask><path d="M30 0a30 30 0 1 1-17.633 54.27l1.172-1.614A28.004 28.004 0 1 0 30 1.995V0z" stroke="#966CEE" stroke-width="4" mask="url(#a)"/><path d="M30.5 37.48c-.88 0-1.66-.127-2.34-.38a4.191 4.191 0 0 1-1.72-1.18c-.467-.547-.827-1.24-1.08-2.08-.24-.84-.36-1.84-.36-3v-.4c0-1.333.14-2.467.42-3.4.28-.947.673-1.72 1.18-2.32a4.401 4.401 0 0 1 1.8-1.3 6.188 6.188 0 0 1 2.3-.42c1.293 0 2.34.273 3.14.82.8.547 1.287 1.453 1.46 2.72h-2.8c-.267-.68-.9-1.02-1.9-1.02-.387 0-.747.06-1.08.18-.32.107-.607.313-.86.62-.24.293-.433.7-.58 1.22-.147.52-.24 1.187-.28 2 .173-.267.387-.487.64-.66.253-.187.527-.333.82-.44.307-.12.62-.207.94-.26.333-.053.667-.08 1-.08 1.413 0 2.5.387 3.26 1.16.76.76 1.14 1.84 1.14 3.24v.22c0 .707-.127 1.353-.38 1.94a4.527 4.527 0 0 1-1.06 1.52c-.44.413-.973.733-1.6.96a6.015 6.015 0 0 1-2.06.34zm-.2-2.52c.72 0 1.28-.2 1.68-.6.413-.413.62-.94.62-1.58v-.2c0-.64-.207-1.16-.62-1.56-.4-.4-.96-.6-1.68-.6s-1.287.2-1.7.6c-.4.4-.6.92-.6 1.56v.2c0 .64.2 1.167.6 1.58.413.4.98.6 1.7.6z" fill="#392B4B"/></svg>