<svg width="60" height="60" viewBox="0 0 60 60" fill="none" xmlns="http://www.w3.org/2000/svg"><circle cx="30" cy="30" r="29" stroke="#EAE7F2" stroke-width="2"/><mask id="a" fill="#fff"><path d="M30 0A30 30 0 1 1 1.468 39.27l1.898-.616A28.005 28.005 0 1 0 30 1.995V0z"/></mask><path d="M30 0A30 30 0 1 1 1.468 39.27l1.898-.616A28.005 28.005 0 1 0 30 1.995V0z" stroke="#966CEE" stroke-width="4" mask="url(#a)"/><path d="M30.4 37.23c-.84 0-1.6-.093-2.28-.28-.667-.2-1.234-.473-1.7-.82a3.897 3.897 0 0 1-1.06-1.28 3.875 3.875 0 0 1-.36-1.68c0-.787.24-1.487.72-2.1.48-.627 1.193-1.067 2.14-1.32a3.723 3.723 0 0 1-1.76-1.18c-.467-.56-.7-1.227-.7-2 0-.56.106-1.073.32-1.54a3.39 3.39 0 0 1 .98-1.2c.426-.347.946-.613 1.56-.8.626-.187 1.34-.28 2.14-.28s1.506.093 2.12.28c.626.187 1.153.453 1.58.8.44.333.766.733.98 1.2.226.467.34.98.34 1.54 0 .773-.234 1.433-.7 1.98-.467.533-1.06.933-1.78 1.2 1.906.587 2.86 1.727 2.86 3.42 0 .613-.127 1.173-.38 1.68-.24.493-.594.92-1.06 1.28-.454.347-1.014.62-1.68.82-.667.187-1.427.28-2.28.28zm0-2.52c.826 0 1.433-.16 1.82-.48.386-.32.58-.753.58-1.3 0-.6-.227-1.073-.68-1.42-.44-.36-1.014-.593-1.72-.7-.707.107-1.287.34-1.74.7-.44.347-.66.82-.66 1.42 0 .547.2.98.6 1.3.4.32 1 .48 1.8.48zm0-5.94c.6-.107 1.086-.313 1.46-.62.373-.32.56-.76.56-1.32 0-.52-.18-.907-.54-1.16-.347-.267-.84-.4-1.48-.4-.627 0-1.12.133-1.48.4-.347.253-.52.64-.52 1.16 0 .56.18 1 .54 1.32.373.307.86.513 1.46.62z" fill="#392B4B"/></svg>