<svg width="60" height="60" viewBox="0 0 60 60" fill="none" xmlns="http://www.w3.org/2000/svg"><circle cx="30" cy="30" r="29" stroke="#EAE7F2" stroke-width="2"/><mask id="a" fill="#fff"><path d="M30 0A30 30 0 1 1 1.468 20.73l1.898.616A28.005 28.005 0 1 0 30 1.995V0z"/></mask><path d="M30 0A30 30 0 1 1 1.468 20.73l1.898.616A28.005 28.005 0 1 0 30 1.995V0z" stroke="#966CEE" stroke-width="4" mask="url(#a)"/><path d="M30.002 37.48c-1.334 0-2.407-.287-3.22-.86-.814-.573-1.307-1.467-1.48-2.68h2.8c.133.347.346.607.64.78.306.16.76.24 1.36.24.36 0 .693-.053 1-.16.32-.12.6-.327.84-.62.24-.307.433-.72.58-1.24.146-.52.24-1.187.28-2a2.592 2.592 0 0 1-.64.68c-.254.173-.534.32-.84.44a5.1 5.1 0 0 1-.94.24c-.32.053-.647.08-.98.08-1.414 0-2.5-.38-3.26-1.14-.76-.773-1.14-1.86-1.14-3.26v-.22c0-.707.126-1.353.38-1.94a4.45 4.45 0 0 1 1.04-1.5 4.628 4.628 0 0 1 1.62-.98 6.015 6.015 0 0 1 2.06-.34c1.773 0 3.133.52 4.08 1.56.946 1.04 1.42 2.733 1.42 5.08v.38c0 1.347-.14 2.493-.42 3.44-.28.933-.674 1.7-1.18 2.3a4.422 4.422 0 0 1-1.78 1.32c-.68.267-1.42.4-2.22.4zm.3-7.42c.72 0 1.28-.2 1.68-.6.413-.4.62-.92.62-1.56v-.2c0-.627-.214-1.147-.64-1.56-.414-.413-.967-.62-1.66-.62-.72 0-1.287.207-1.7.62-.4.4-.6.92-.6 1.56v.2c0 .64.2 1.16.6 1.56.413.4.98.6 1.7.6z" fill="#392B4B"/></svg>