<svg width="313" height="284" viewBox="0 0 313 284" fill="none" xmlns="http://www.w3.org/2000/svg"><g clip-path="url(#a)"><path d="M291.426 200.363c-2.292-4.014-6.017-6.517-10.003-8.602-5.028-2.659-10.394-4.432-15.865-5.918-6.825-1.824-13.754-3.102-20.736-3.91-1.433-.156-1.797-.756-2.032-1.929-.703-3.545-1.823-6.934-3.829-10.01-2.214-3.362-5.106-5.5-9.378-5.109-2.345.209-4.455 1.095-6.383 2.398-.911.6-1.172.391-1.276-.599a33.956 33.956 0 0 0-.625-3.963c-1.615-7.116-3.699-14.076-7.529-20.358-2.891-4.745-6.408-8.837-11.644-11.105-5.471-2.372-11.176-1.981-16.725-.834-6.695 1.407-11.957 5.265-15.995 10.792-4.246 5.865-6.616 12.512-8.179 19.498 3.673.652 7.346 1.095 10.967 2.06 4.845 1.277 9.482 3.023 13.676 5.813 7.086 4.744 10.499 11.548 11.384 19.915 1.172 10.949 1.589 21.975 2.319 32.95 10.133 0 20.293.026 30.427.052.677 0 1.38.13 2.058.182 1.563-1.146 2.969-2.502 4.61-3.571 9.118-5.917 18.913-4.77 27.067 1.825.443.339.781.808 1.328 1.017 2.579-.287 5.184-.496 7.737-.887 4.715-.704 9.352-1.72 13.677-3.884 6.33-3.128 8.466-9.671 4.949-15.823zm-32.354 5.292c-.678.652-1.355.287-1.928-.287-1.459-1.46-2.918-2.946-4.376-4.405-.209-.235-.417-.443-.704-.522-.391.079-.599.365-.833.626-1.355 1.355-2.684 2.711-4.038 4.04-.625.626-1.303 1.408-2.162.496-.808-.834-.105-1.46.521-2.06 1.354-1.329 2.657-2.737 4.063-4.04.756-.678.652-1.147 0-1.773-1.302-1.277-2.552-2.58-3.803-3.884-.469-.495-.886-1.043-.312-1.694.599-.678 1.224-.443 1.823.052 1.329 1.069 2.397 2.372 3.543 3.597 1.146 1.199 1.172 1.199 2.344.052 1.199-1.199 2.397-2.398 3.595-3.571.547-.547 1.199-.834 1.798-.182.599.625.365 1.251-.209 1.824-1.328 1.304-2.631 2.659-3.959 3.937-.573.547-.599.99 0 1.512 1.589 1.329 2.917 2.919 4.402 4.379.547.573.964 1.225.235 1.903z" fill="#FDE058"/><path d="M282.024 256.017c-1.797-9.827-4.975-19.133-10.602-27.475-1.85-2.737-4.09-5.161-6.357-7.534-.547-.182-.911-.651-1.328-1.016-8.154-6.595-17.949-7.768-27.067-1.825-1.641 1.069-3.047 2.398-4.611 3.571-2.995 3.207-5.705 6.595-7.867 10.427-2.11 3.78-3.907 7.716-5.236 11.861-.339 1.043-.625.965-1.381.365-4.428-3.649-9.508-5.578-15.317-5.422-.651.026-1.303.13-1.928.209l.391 12.981c.312 11.261.599 22.523.912 33.784 0 .287.078.6.104.886 1.693.026 3.386.078 5.08.078 12.374 0 24.748 0 37.095.027.86 0 1.511-.027 1.563-1.174.053-1.199.313-2.398.495-3.597 1.355-8.524 2.736-17.048 4.09-25.572 1.199-7.508 2.397-14.989 3.569-22.497.13-.782.365-1.433 1.277-1.251.885.183.911.912.781 1.668-1.042 6.543-2.058 13.112-3.1 19.655a15132.468 15132.468 0 0 1-5.028 31.621c-.13.86 0 1.173.938 1.173 11.072-.026 22.143-.026 33.215 0 .781 0 1.12-.209 1.224-1.069a99.811 99.811 0 0 0-.912-29.874zm-67.392 7.664c-1.042 1.851-2.162 3.65-3.257 5.448a5.847 5.847 0 0 0-.078.079l-.078.078c-.026.026-.052.026-.078.052-.026.026-.052.026-.078.026-.026 0-.052.026-.078.026-.026 0-.052.026-.078.026-.079.026-.157.026-.235.026h-.13c-.078 0-.156 0-.235-.026-.026 0-.052 0-.078-.026h-.026c-.026 0-.052 0-.078-.026-.026 0-.026-.026-.052-.026-.052-.026-.13-.052-.182-.104-.026-.026-.079-.053-.105-.079-.026-.026-.052-.026-.078-.052a.404.404 0 0 1-.156-.208.2.2 0 0 1-.052-.105c-.026-.052-.026-.078-.052-.13 0-.026 0-.052-.026-.078v-.052a.696.696 0 0 1 .104-.496c1.016-1.85 2.11-3.675 3.23-5.474.339-.547.938-.625 1.485-.286.547.364.651.964.391 1.407zm26.675-1.564c-.573.13-.99-.104-1.25-.652a842.916 842.916 0 0 1-2.266-4.952 664.769 664.769 0 0 0-2.84-6.257c-.313-.677-.365-1.303.365-1.668.781-.365 1.328.052 1.667.756 1.667 3.649 3.308 7.325 4.95 10.974.104.235.156.496.208.652-.026.678-.313 1.043-.834 1.147zm29.333 5.657l-6.799 11.105c-.938 1.512-1.876 3.023-2.787 4.535-.261.417-.547.782-1.095.809-.937 0-1.302-.939-.703-1.956 1.25-2.085 2.553-4.144 3.803-6.204 1.798-2.919 3.569-5.865 5.341-8.784.13-.209.286-.444.417-.652.39-.6.885-1.069 1.615-.652.807.469.625 1.147.208 1.799z" fill="#02DAA0"/><path d="M221.667 285.916c-.313-11.261-.599-22.522-.912-33.783l-.391-12.982-.547-11.183c-.104-2.164-.156-4.327-.234-6.491-.73-10.974-1.146-22.001-2.319-32.95-.885-8.393-4.298-15.171-11.384-19.915-4.194-2.816-8.831-4.536-13.676-5.813-3.621-.965-7.294-1.408-10.967-2.06-3.986-.339-7.946-.73-11.957-.73-1.042 0-1.668-.338-2.241-1.173a63.5 63.5 0 0 0-3.673-4.718c-.312-.365-.599-.599-.625-1.095-.208-5.865-.443-11.73-.677-17.569-.026-.444-.052-.835.312-1.199 3.335-3.155 4.793-7.273 5.888-11.548.234-.887.599-1.226 1.511-1.408 4.089-.782 7.919-2.216 11.123-5.031 4.507-3.936 5.549-9.619 2.787-14.989-2.292-4.458-6.955-6.308-12.738-4.9-1.146.286-1.563-.053-2.058-.965-2.892-5.396-6.304-10.48-10.863-14.65-2.032-1.851-4.22-3.493-6.851-4.406-3.413-1.173-6.174.86-6.174 4.432 0 .313.208.651-.131.99l-1.25-.938c-5.549-3.963-11.514-7.117-18.131-8.863-3.387-.886-6.513.052-8.128 2.32-1.719 2.398-1.667 5.995.157 8.837.833 1.303 1.901 2.372 3.126 3.284.521.391.729.6.208 1.251-1.745 2.164-1.381 4.667.808 6.413a10.996 10.996 0 0 0 4.402 2.138c1.25.287 1.12.756.703 1.668a24.318 24.318 0 0 0-1.823 6.491 841.687 841.687 0 0 0-1.146 8.654c-.678 5.527-1.381 11.027-1.173 16.606.261 6.751 3.543 11.13 9.639 12.773 1.798.495 3.647.808 5.523.86.469 0 .964-.052.964.678.052 3.832.104 7.638.182 11.469 0 .287.052.704-.417.6-.912-.156-1.302.495-1.771 1.069-1.016 1.251-2.058 2.476-3.048 3.728-.417.521-.86.729-1.537.755-4.95.131-9.873.418-14.797.965-6.512.73-12.973 1.773-19.147 4.119-8.336 3.128-13.885 8.784-16.02 17.595-.782 3.233-1.147 6.491-1.46 9.776-.807 8.915-.99 17.856-.911 26.797 0 .365.13.782-.183 1.173-.39-.417-.364-.964-.469-1.433a8757.275 8757.275 0 0 1-4.95-25.416c-.91-4.771-1.953-9.541-2.578-14.338-.99-7.611-.47-15.249.078-22.887.234-3.232.677-6.491.104-9.749-.208-1.278-.599-2.503-2.11-2.816-1.641-.339-2.97.235-3.881 1.721-.86 1.381-1.381 2.893-1.824 4.431-.677 2.372-1.276 4.771-2.032 7.143-.495 1.616-1.433 2.946-2.97 3.806-.885.495-1.432.443-1.875-.626-1.277-2.893-2.37-5.865-3.517-8.811-1.72-4.405-3.36-8.837-5.705-12.955-.808-1.434-1.72-2.816-3.1-3.806-1.25-.887-2.657-.808-3.83.156-1.041.834-1.354 1.981-1.38 3.233-.052 1.981.469 3.858 1.042 5.734.156.496 1.49 4.903 1.49 4.903s-1.594-3.677-1.672-3.808c-1.407-2.189-2.684-4.509-4.637-6.256-2.319-2.033-5.55-1.069-6.357 1.903-.208.782-.52.991-1.276 1.043-2.527.26-3.7 1.329-4.038 3.753-.104.782-.521.73-1.042.73-2.579.052-3.855 1.617-3.387 4.197.34 1.877 1.069 3.65 1.798 5.422 3.256 8.029 7.034 15.849 10.108 23.957 2.917 7.663 5.757 15.327 7.71 23.304 1.746 5.266 2.866 10.688 4.168 16.084.678 2.867 1.329 5.735 2.006 8.602 1.746 6.674 3.335 13.373 5.289 19.994 2.266 7.534 4.689 14.989 8.414 21.949 2.5 4.666 5.549 8.837 10.498 11.183 1.198.574 2.501.991 3.751 1.46 3.335.678 6.695.886 10.082.313 6.669-1.147 12.478-4.067 17.714-8.264.287-.234.469-.651 1.172-.443v10.87c0 .756.052 1.591 1.068 1.617 1.042 0 1.069-.809 1.042-1.591-.208-16.448-.39-32.897-.599-49.346 0-.286-.13-.73.183-.834 1.276-.417 1.016-1.46 1.016-2.398 0-7.482 0-14.937.026-22.418 0-.443-.261-.991.469-1.304 3.386-1.355 4.194-2.554 4.194-6.152 0-12.252.026-24.503-.026-36.755 0-1.173.364-1.512 1.432-1.669 6.852-.99 13.703-1.485 20.606-1.746.704-.026 1.094.235 1.511.756 3.621 4.77 7.268 9.515 10.915 14.285 1.016 1.329 1.824 1.225 2.527-.339.651-1.408 1.251-2.867 1.902-4.275.234-.495.26-1.147.886-1.46.234.574.13 1.095.13 1.59v30.5c0 .729.338 1.199 1.068 1.173.755 0 1.042-.522 1.042-1.226v-1.042-31.803c0-.391-.209-.86.234-1.277 1.563 2.45 3.074 4.848 4.611 7.273 1.12 1.772 1.824 1.746 2.814-.026 2.709-4.849 5.47-9.671 8.127-14.546.547-.991 1.173-1.277 2.267-1.199 4.038.234 8.049.495 12.061.938 1.094.131 1.407.417 1.407 1.564-.052 13.347-.026 26.668-.026 40.014 0 2.033.625 3.936 2.475 4.666 2.057.808 2.162 2.19 2.162 3.884 0 .652.052 1.304.078 1.955.338 6.465.651 12.93.964 19.395.026.495 0 1.173.521 1.199 1.432.104 1.12 1.121 1.172 1.955.026.521-.026 1.043 0 1.564.391 7.012.834 14.051 1.224 21.063.469 8.68.886 17.335 1.329 26.015v.005c.026.703.054 1.456.938 1.638.477.086.419-1.687.625-1.955.165-.216.625 1.112.729.834-.443-3.78-.443-7.586-.729-11.392-.104-1.329-.13-2.685-.182-4.014-.521-9.88-1.042-19.734-1.616-29.613-.078-1.304.287-1.356 1.407-1.121 6.148 1.225 12.348 1.799 18.574.626 1.303-.444 2.631-.835 3.908-1.382 1.042-.443 1.276-.13 1.302.886.078 3.989.235 7.977.365 11.991l.938 33.185c0 .312-.026.599-.026.912.174.572-.289-.912.372-.915-.132-1.046.819 1.96.852 1.958.677-.052.886-.548 1.042-1.095-.026-.313-.078-.626-.078-.913zM82.584 197.912c.339-4.901.677-9.776 2.084-14.546 2.162-7.377 7.138-12.017 14.145-14.702.105-.052.26-.026.47-.026v35.817c0 1.642.468 3.076 1.693 4.223.364.365.547.73.547 1.251-.026 8.55 0 17.1 0 25.703-2.032-.886-4.429-1.382-6.852-1.721-3.699-.547-7.424-.756-11.15-.703-.963.026-1.224-.235-1.25-1.2-.469-11.365-.495-22.731.313-34.096zm18.626 75.153c-5.913 5.161-12.582 8.602-20.502 9.254-.208.026-.442.026-.65.052H78.623c-.234 0-.469-.026-.703-.026-.182 0-.339-.026-.495-.052-.156-.026-.339-.026-.495-.052l-.469-.078c-.104 0-.182-.026-.286-.052-.157-.027-.287-.053-.443-.079-.078-.026-.157-.026-.235-.052-.078-.026-.182-.052-.286-.078-.078-.026-.157-.026-.235-.052-.156-.052-.338-.078-.495-.13-.156-.053-.338-.105-.495-.157-.104-.026-.208-.078-.338-.104a18.19 18.19 0 0 1-1.147-.261c-.182-.052-.364-.104-.546-.182-.13-.052-.261-.105-.391-.131-.13-.026-.26-.104-.391-.156-.078-.026-.156-.052-.235-.104h-.026c-.104-.052-.234-.105-.338-.157-.13-.078-.287-.13-.417-.208-.13-.078-.26-.131-.39-.209a2.252 2.252 0 0 1-.418-.26c-.13-.079-.26-.157-.364-.235-.105-.078-.209-.13-.313-.209l-.234-.156a7.607 7.607 0 0 1-.547-.417 11.6 11.6 0 0 1-.573-.469 20.871 20.871 0 0 1-1.381-1.278c-3.074-3.102-5.054-6.908-6.8-10.844-4.167-9.384-6.877-19.238-9.404-29.144-.573-2.267-1.38-4.483-1.537-6.829-.99-2.19-1.276-4.562-1.823-6.856-2.787-11.6-5.6-23.174-9.613-34.435-3.725-10.48-8.205-20.62-12.634-30.813-.938-2.137-1.928-4.275-2.292-6.621-.235-1.381.494-1.981 1.797-1.668.573.13.703.599.912 1.017a5030.29 5030.29 0 0 1 8.779 16.396l.234.469c.365.704.886 1.147 1.667.704.73-.417.6-1.069.235-1.694a108.75 108.75 0 0 1-1.277-2.424c-2.448-4.562-4.871-9.098-7.32-13.634-.677-1.251-.677-2.581-.573-3.91.078-.886.834-1.251 1.667-1.382.886-.13 1.642-.104 2.163.913 3.021 5.709 6.095 11.391 9.143 17.1.052.104.13.235.183.339.338.73.833 1.356 1.693.86.781-.443.573-1.147.208-1.824-1.328-2.477-2.657-4.979-3.985-7.456l-5.55-10.323c-.39-.703-.624-1.433-.364-2.241.47-1.408 1.824-1.825 2.944-.861 1.016.861 1.771 1.903 2.449 3.024a2921.153 2921.153 0 0 1 9.326 15.198c.13.208.26.443.416.677.365.574.834.913 1.511.574.678-.365.652-.965.417-1.564-.886-2.216-1.797-4.432-2.683-6.621-1.303-3.207-2.631-6.413-3.595-9.75-.287-.99-.521-2.033-.547-3.076l-.002-.055c-.026-.951-.055-2.011 1.044-2.369 1.042-.339 1.563.6 2.058 1.277 1.641 2.216 2.71 4.719 3.83 7.221 2.474 5.579 4.272 11.47 6.903 16.996.364.756-.105.887-.521 1.147-3.882 2.398-6.226 5.839-7.008 10.323-.338 1.981-.26 3.988.156 5.97.157.755.47 1.381 1.355 1.225.938-.157.886-.887.755-1.643-.963-5.083.287-9.462 4.273-12.903 1.328-1.147 2.891-1.955 4.48-2.607 3.1-1.251 4.533-3.728 5.419-6.725.807-2.842 1.354-5.761 2.553-8.472.417-.939.677-2.425 2.032-2.138 1.302.261.86 1.747.885 2.685.105 4.301-.39 8.576-.625 12.878-.39 7.22-.573 14.441.782 21.558 3.282 17.126 6.434 34.279 10.081 51.327a256.537 256.537 0 0 0 2.996 12.512c.104.365.234.756.339 1.121.208.704.625 1.199 1.406.939.782-.261.808-.861.626-1.59-.73-2.764-1.46-5.527-2.136-8.316-.34-1.434-.6-2.894-.912-4.327-.156-.704.052-.991.86-.991 4.819.13 9.638.287 14.353 1.304.078.026.156.026.26.052 3.7.912 3.882 1.121 3.934 4.9.131 9.672.235 19.369.391 29.04.026.99-.26 1.694-1.042 2.398zm47.855-105.261c-1.303 2.815-2.501 5.682-3.804 8.706-2.839-3.701-5.575-7.22-8.258-10.792-.729-.938-2.058-1.824-1.928-2.919.131-.991 1.329-1.851 2.058-2.764.105-.13.235-.26.313-.417.547-.912 1.042-1.042 1.98-.286 2.996 2.372 6.07 4.614 9.144 6.882.651.443.833.808.495 1.59zm2.422-3.441c-.651.625-1.042.599-1.719.078-2.553-1.955-5.106-3.91-7.711-5.787-.703-.521-.99-1.043-.99-1.929-.052-4.614-.156-9.202-.234-13.816-.026-1.538-.235-1.694-1.746-1.747-2.97-.078-5.887-.364-8.596-1.746-3.179-1.616-5.054-4.145-5.549-7.69-.625-4.562-.13-9.098.365-13.633.521-4.614 1.12-9.228 1.771-13.816.313-2.242.99-4.406 1.98-6.44 2.501-5.134 6.825-7.246 12.322-7.376h1.458c4.247.287 8.675.99 12.791 3.05 3.439 1.72 6.096 4.118 6.825 8.133.209 1.069 1.094 1.225 1.954.443 3.23-3.05 7.06-4.301 11.436-3.91 2.241.208 4.038 1.251 5.315 3.128 3.021 4.353 2.37 9.801-1.642 13.294-3.178 2.764-7.007 4.119-11.097 4.745-1.303.208-1.85.704-2.084 1.981a27.86 27.86 0 0 1-2.892 8.055c-.599 1.069-1.198 2.19-2.188 2.893-1.25.913-1.485 2.034-1.407 3.467.313 6.257.495 12.487.782 18.743.026.756-.182 1.277-.73 1.799-2.787 2.659-5.626 5.344-8.414 8.081zm12.374 1.277c-1.876 3.363-3.777 6.726-5.809 10.349a1160.12 1160.12 0 0 0-5.523-8.655c-.338-.521-.208-.834.209-1.225 3.152-2.998 6.278-5.995 9.404-9.019.495-.469.781-.417 1.068.13.026.026.052.078.078.104.964 1.33 2.553 2.581 2.735 4.015.183 1.434-1.354 2.867-2.162 4.301zm53.065 71.973c-4.533 2.033-9.274 2.424-14.146 2.059-3.022-.208-6.017-.782-9.013-1.303-.756-.13-.964-.495-.99-1.225v-.008c-.443-8.886-.886-17.773-1.381-26.66-.052-.755.131-1.251.73-1.772 1.354-1.147 1.745-2.711 1.719-4.458-.026-7.69 0-15.38 0-23.07v-14.337c0-1.434 0-1.434 1.433-.964 2.761.912 5.418 2.059 7.945 3.545 7.164 4.249 10.993 10.557 11.879 18.821 1.094 10.375 1.719 20.776 2.188 31.177.235 5.474.469 10.922.756 16.396.026.991-.287 1.434-1.12 1.799z" fill="#fff"/><path d="M104.544 286.307c.027.782 0 1.591-1.042 1.591l90.682.026c-.884-.182-.912-.935-.938-1.638v-.005c-.443-8.68-.86-17.335-1.329-26.015-.39-7.012-.833-14.051-1.224-21.063-.026-.521.026-1.043 0-1.564-.052-.834.26-1.851-1.172-1.955-.521-.026-.495-.704-.521-1.199a5034.15 5034.15 0 0 0-.964-19.395c-.026-.651-.078-1.303-.078-1.955 0-1.694-.105-3.076-2.162-3.884-1.85-.73-2.475-2.633-2.475-4.666 0-13.346-.026-26.667.026-40.014 0-1.147-.313-1.433-1.407-1.564-4.012-.443-8.023-.704-12.061-.938-1.094-.078-1.72.208-2.267 1.199-2.657 4.875-5.418 9.697-8.127 14.546-.99 1.772-1.694 1.798-2.814.026-1.537-2.425-3.048-4.823-4.611-7.273-.443.417-.234.886-.234 1.277v32.845c0 .704-.287 1.226-1.042 1.226-.73.026-1.068-.444-1.068-1.173v-30.5c0-.495.104-1.016-.13-1.59-.626.313-.652.965-.886 1.46-.651 1.408-1.251 2.867-1.902 4.275-.703 1.564-1.511 1.668-2.527.339-3.647-4.77-7.294-9.515-10.915-14.285-.417-.521-.807-.782-1.511-.756-6.903.261-13.754.756-20.606 1.746-1.068.157-1.432.496-1.432 1.669.052 12.252.026 24.503.026 36.755 0 3.598-.808 4.797-4.194 6.152-.73.313-.469.861-.469 1.304-.026 7.481-.026 14.936-.026 22.418 0 .938.26 1.981-1.016 2.398-.313.104-.183.548-.183.834.209 16.449.391 32.898.599 49.346zM194.809 275.411c.286 3.806.286 7.612.729 11.392-.104.278-.564-1.05-.729-.834l25.042-.003c-.661.003-.198 1.487-.372.915 0-.313.026-.6.026-.912l-.938-33.185c-.13-4.014-.287-8.002-.365-11.991-.026-1.016-.26-1.329-1.302-.886-1.277.547-2.605.938-3.908 1.382-6.226 1.173-12.426.599-18.574-.626-1.12-.235-1.485-.183-1.407 1.121.574 9.879 1.095 19.733 1.616 29.613.052 1.329.078 2.685.182 4.014zM216.926 237.613c-4.533 2.033-9.274 2.424-14.146 2.059-3.022-.208-6.017-.782-9.013-1.303-.756-.13-.964-.495-.99-1.225v-.008c-.443-8.886-.886-17.773-1.381-26.66-.052-.755.131-1.251.73-1.772 1.354-1.147 1.745-2.711 1.719-4.458-.026-7.69 0-15.38 0-23.07v-14.337c0-1.434 0-1.434 1.433-.964 2.761.912 5.418 2.059 7.945 3.545 7.164 4.249 10.993 10.557 11.879 18.821 1.094 10.375 1.719 20.776 2.188 31.177.235 5.474.469 10.922.756 16.396.026.991-.287 1.434-1.12 1.799zM82.584 197.912c.339-4.901.677-9.776 2.084-14.546 2.162-7.377 7.138-12.017 14.145-14.702.105-.052.26-.026.47-.026v35.817c0 1.642.468 3.076 1.693 4.223.364.365.547.73.547 1.251-.026 8.55 0 17.1 0 25.703-2.032-.886-4.429-1.382-6.852-1.721-3.699-.547-7.424-.756-11.15-.703-.963.026-1.224-.235-1.25-1.2-.469-11.365-.495-22.731.313-34.096z" fill="#fff"/><path d="M101.21 273.065c-5.913 5.161-12.582 8.602-20.502 9.254-.208.026-.442.026-.65.052H78.623c-.234 0-.469-.026-.703-.026-.182 0-.339-.026-.495-.052-.156-.026-.339-.026-.495-.052l-.469-.078c-.104 0-.182-.026-.286-.052-.157-.027-.287-.053-.443-.079-.078-.026-.157-.026-.235-.052-.078-.026-.182-.052-.286-.078-.078-.026-.157-.026-.235-.052-.156-.052-.338-.078-.495-.13-.156-.053-.338-.105-.495-.157-.104-.026-.208-.078-.338-.104a18.19 18.19 0 0 1-1.147-.261c-.182-.052-.364-.104-.546-.182-.13-.052-.261-.105-.391-.131-.13-.026-.26-.104-.391-.156-.078-.026-.156-.052-.235-.104h-.026c-.104-.052-.234-.105-.338-.157-.13-.078-.287-.13-.417-.208-.13-.078-.26-.131-.39-.209a2.252 2.252 0 0 1-.418-.26c-.13-.079-.26-.157-.364-.235-.105-.078-.209-.13-.313-.209l-.234-.156a7.607 7.607 0 0 1-.547-.417 11.6 11.6 0 0 1-.573-.469 20.871 20.871 0 0 1-1.381-1.278c-3.074-3.102-5.054-6.908-6.8-10.844-4.167-9.384-6.877-19.238-9.404-29.144-.573-2.267-1.38-4.483-1.537-6.829-.99-2.19-1.276-4.562-1.823-6.856-2.787-11.6-5.6-23.174-9.613-34.435-3.725-10.48-8.205-20.62-12.634-30.813-.938-2.137-1.928-4.275-2.292-6.621-.235-1.381.494-1.981 1.797-1.668.573.13.703.599.912 1.017a5030.29 5030.29 0 0 1 8.779 16.396l.234.469c.365.704.886 1.147 1.667.704.73-.417.6-1.069.235-1.694a108.75 108.75 0 0 1-1.277-2.424c-2.448-4.562-4.871-9.098-7.32-13.634-.677-1.251-.677-2.581-.573-3.91.078-.886.834-1.251 1.667-1.382.886-.13 1.642-.104 2.163.913 3.021 5.709 6.095 11.391 9.143 17.1.052.104.13.235.183.339.338.73.833 1.356 1.693.86.781-.443.573-1.147.208-1.824-1.328-2.477-2.657-4.979-3.985-7.456l-5.55-10.323c-.39-.703-.624-1.433-.364-2.241.47-1.408 1.824-1.825 2.944-.861 1.016.861 1.771 1.903 2.449 3.024a2921.153 2921.153 0 0 1 9.326 15.198c.13.208.26.443.416.677.365.574.834.913 1.511.574.678-.365.652-.965.417-1.564-.886-2.216-1.797-4.432-2.683-6.621-1.303-3.207-2.631-6.413-3.595-9.75-.287-.99-.521-2.033-.547-3.076l-.002-.055c-.026-.951-.055-2.011 1.044-2.369 1.042-.339 1.563.6 2.058 1.277 1.641 2.216 2.71 4.719 3.83 7.221 2.474 5.579 4.272 11.47 6.903 16.996.364.756-.105.887-.521 1.147-3.882 2.398-6.226 5.839-7.008 10.323-.338 1.981-.26 3.988.156 5.97.157.755.47 1.381 1.355 1.225.938-.157.886-.887.755-1.643-.963-5.083.287-9.462 4.273-12.903 1.328-1.147 2.891-1.955 4.48-2.607 3.1-1.251 4.533-3.728 5.419-6.725.807-2.842 1.354-5.761 2.553-8.472.417-.939.677-2.425 2.032-2.138 1.302.261.86 1.747.885 2.685.105 4.301-.39 8.576-.625 12.878-.39 7.22-.573 14.441.782 21.558 3.282 17.126 6.434 34.279 10.081 51.327a256.537 256.537 0 0 0 2.996 12.512c.104.365.234.756.339 1.121.208.704.625 1.199 1.406.939.782-.261.808-.861.626-1.59-.73-2.764-1.46-5.527-2.136-8.316-.34-1.434-.6-2.894-.912-4.327-.156-.704.052-.991.86-.991 4.819.13 9.638.287 14.353 1.304.078.026.156.026.26.052 3.7.912 3.882 1.121 3.934 4.9.131 9.672.235 19.369.391 29.04.026.99-.26 1.694-1.042 2.398zM149.065 167.804c-1.303 2.815-2.501 5.682-3.804 8.706-2.839-3.701-5.575-7.22-8.258-10.792-.729-.938-2.058-1.824-1.928-2.919.131-.991 1.329-1.851 2.058-2.764.105-.13.235-.26.313-.417.547-.912 1.042-1.042 1.98-.286 2.996 2.372 6.07 4.614 9.144 6.882.651.443.833.808.495 1.59zM163.861 165.64c-1.876 3.363-3.777 6.726-5.809 10.349a1160.12 1160.12 0 0 0-5.523-8.655c-.338-.521-.208-.834.209-1.225 3.152-2.998 6.278-5.995 9.404-9.019.495-.469.781-.417 1.068.13.026.026.052.078.078.104.964 1.33 2.553 2.581 2.735 4.015.183 1.434-1.354 2.867-2.162 4.301zM151.487 164.363c-.651.625-1.042.599-1.719.078-2.553-1.955-5.106-3.91-7.711-5.787-.703-.521-.99-1.043-.99-1.929-.052-4.614-.156-9.202-.234-13.816-.026-1.538-.235-1.694-1.746-1.747-2.97-.078-5.887-.364-8.596-1.746-3.179-1.616-5.054-4.145-5.549-7.69-.625-4.562-.13-9.098.365-13.633.521-4.614 1.12-9.228 1.771-13.816.313-2.242.99-4.406 1.98-6.44 2.501-5.134 6.825-7.246 12.322-7.376h1.458c4.247.287 8.675.99 12.791 3.05 3.439 1.72 6.096 4.118 6.825 8.133.209 1.069 1.094 1.225 1.954.443 3.23-3.05 7.06-4.301 11.436-3.91 2.241.208 4.038 1.251 5.315 3.128 3.021 4.353 2.37 9.801-1.642 13.294-3.178 2.764-7.007 4.119-11.097 4.745-1.303.208-1.85.704-2.084 1.981a27.86 27.86 0 0 1-2.892 8.055c-.599 1.069-1.198 2.19-2.188 2.893-1.25.913-1.485 2.034-1.407 3.467.313 6.257.495 12.487.782 18.743.026.756-.182 1.277-.73 1.799-2.787 2.659-5.626 5.344-8.414 8.081z" fill="#fff"/><path d="M221.667 285.916c-.313-11.261-.599-22.522-.912-33.783l-.391-12.982-.547-11.183c-.104-2.164-.156-4.327-.234-6.491-.73-10.974-1.146-22.001-2.319-32.95-.885-8.393-4.298-15.171-11.384-19.915-4.194-2.816-8.831-4.536-13.676-5.813-3.621-.965-7.294-1.408-10.967-2.06-3.986-.339-7.946-.73-11.957-.73-1.042 0-1.668-.338-2.241-1.173a63.5 63.5 0 0 0-3.673-4.718c-.312-.365-.599-.599-.625-1.095-.208-5.865-.443-11.73-.677-17.569-.026-.444-.052-.835.312-1.199 3.335-3.155 4.793-7.273 5.888-11.548.234-.887.599-1.226 1.511-1.408 4.089-.782 7.919-2.216 11.123-5.031 4.507-3.936 5.549-9.619 2.787-14.989-2.292-4.458-6.955-6.308-12.738-4.9-1.146.286-1.563-.053-2.058-.965-2.892-5.396-6.304-10.48-10.863-14.65-2.032-1.851-4.22-3.493-6.851-4.406-3.413-1.173-6.174.86-6.174 4.432 0 .313.208.651-.131.99l-1.25-.938c-5.549-3.963-11.514-7.117-18.131-8.863-3.387-.886-6.513.052-8.128 2.32-1.719 2.398-1.667 5.995.157 8.837.833 1.303 1.901 2.372 3.126 3.284.521.391.729.6.208 1.251-1.745 2.164-1.381 4.667.808 6.413a10.996 10.996 0 0 0 4.402 2.138c1.25.287 1.12.756.703 1.668a24.318 24.318 0 0 0-1.823 6.491 841.687 841.687 0 0 0-1.146 8.654c-.678 5.527-1.381 11.027-1.173 16.606.261 6.751 3.543 11.13 9.639 12.773 1.798.495 3.647.808 5.523.86.469 0 .964-.052.964.678.052 3.832.104 7.638.182 11.47 0 .286.052.703-.417.599-.912-.156-1.302.495-1.771 1.069-1.016 1.251-2.058 2.476-3.048 3.728-.417.521-.86.729-1.537.755-4.95.131-9.873.418-14.797.965-6.512.73-12.973 1.773-19.147 4.119-8.336 3.128-13.885 8.785-16.02 17.595-.782 3.233-1.147 6.491-1.46 9.776-.807 8.915-.99 17.856-.911 26.797 0 .365.13.782-.183 1.173-.39-.417-.364-.964-.469-1.433a8757.275 8757.275 0 0 1-4.95-25.416c-.91-4.771-1.953-9.541-2.578-14.338-.99-7.611-.47-15.249.078-22.887.234-3.232.677-6.491.104-9.749-.208-1.278-.599-2.503-2.11-2.816-1.641-.339-2.97.235-3.881 1.721-.86 1.381-1.381 2.893-1.824 4.431-.677 2.373-1.276 4.771-2.032 7.143-.495 1.616-1.433 2.946-2.97 3.806-.885.495-1.432.443-1.875-.626-1.277-2.893-2.37-5.865-3.517-8.811-1.72-4.405-3.36-8.837-5.705-12.955-.808-1.434-1.72-2.816-3.1-3.806-1.25-.887-2.657-.808-3.83.156-1.041.834-1.354 1.981-1.38 3.233-.052 1.981.469 3.858 1.042 5.734.156.496 1.49 4.903 1.49 4.903s-1.594-3.677-1.672-3.808c-1.407-2.189-2.684-4.509-4.637-6.256-2.319-2.033-5.55-1.069-6.357 1.903-.208.782-.52.991-1.276 1.043-2.527.26-3.7 1.329-4.038 3.753-.104.782-.521.73-1.042.73-2.579.052-3.855 1.617-3.387 4.197.34 1.877 1.069 3.65 1.798 5.422 3.256 8.029 7.034 15.849 10.108 23.957 2.917 7.663 5.757 15.327 7.71 23.304 1.746 5.266 2.866 10.688 4.168 16.084.678 2.867 1.329 5.735 2.006 8.602 1.746 6.674 3.335 13.373 5.289 19.994 2.266 7.534 4.689 14.989 8.414 21.949 2.5 4.666 5.549 8.837 10.498 11.183 1.198.574 2.501.991 3.751 1.46 3.335.678 6.695.886 10.082.313 6.669-1.147 12.478-4.067 17.714-8.264.287-.234.469-.651 1.172-.443v10.87c0 .756.052 1.591 1.068 1.617 1.042 0 1.069-.808 1.042-1.591-.208-16.448-.39-32.897-.599-49.346 0-.286-.13-.73.183-.834 1.276-.417 1.016-1.46 1.016-2.398 0-7.482 0-14.937.026-22.418 0-.443-.261-.991.469-1.304 3.386-1.355 4.194-2.554 4.194-6.152 0-12.252.026-24.503-.026-36.755 0-1.173.364-1.512 1.432-1.668 6.852-.991 13.703-1.486 20.606-1.747.704-.026 1.094.235 1.511.756 3.621 4.77 7.268 9.515 10.915 14.285 1.016 1.329 1.824 1.225 2.527-.339.651-1.407 1.251-2.867 1.902-4.275.234-.495.26-1.147.886-1.46.234.574.13 1.095.13 1.59v30.5c0 .73.338 1.199 1.068 1.173.755 0 1.042-.522 1.042-1.226v-1.042-31.803c0-.391-.209-.86.234-1.277 1.563 2.45 3.074 4.848 4.611 7.273 1.12 1.772 1.824 1.746 2.814-.026 2.709-4.849 5.47-9.671 8.127-14.546.547-.991 1.173-1.277 2.267-1.199 4.038.234 8.049.495 12.061.938 1.094.131 1.407.417 1.407 1.564-.052 13.347-.026 26.668-.026 40.014 0 2.033.625 3.936 2.475 4.666 2.057.808 2.162 2.19 2.162 3.884 0 .652.052 1.304.078 1.955.338 6.465.651 12.93.964 19.395.026.495 0 1.173.521 1.199 1.432.104 1.12 1.121 1.172 1.955.026.521-.026 1.043 0 1.564.391 7.012.834 14.051 1.224 21.063.469 8.68.886 17.335 1.329 26.015.026.704.052 1.46.938 1.643.859.156 1.12-.496 1.354-1.121-.443-3.78-.443-7.586-.729-11.392-.104-1.329-.13-2.685-.182-4.014-.521-9.88-1.042-19.734-1.616-29.613-.078-1.304.287-1.356 1.407-1.121 6.148 1.225 12.348 1.799 18.574.626 1.303-.444 2.631-.835 3.908-1.382 1.042-.443 1.276-.13 1.302.886.078 3.989.235 7.977.365 11.991l.938 33.185c0 .312-.026.599-.026.912.182.6.495 1.095 1.224 1.043.677-.052.886-.548 1.042-1.095-.026-.313-.078-.626-.078-.913zM82.584 197.912c.339-4.901.677-9.776 2.084-14.546 2.162-7.377 7.138-12.017 14.145-14.702.105-.052.26-.026.47-.026v35.817c0 1.642.468 3.076 1.693 4.223.364.365.547.73.547 1.251-.026 8.55 0 17.1 0 25.703-2.032-.886-4.429-1.382-6.852-1.721-3.699-.547-7.424-.756-11.15-.703-.963.026-1.224-.235-1.25-1.2-.469-11.365-.495-22.731.313-34.096zm18.626 75.153c-5.913 5.161-12.582 8.602-20.502 9.254-.208.026-.442.026-.65.052H78.623c-.234 0-.469-.026-.703-.026-.182 0-.339-.026-.495-.052-.156-.026-.339-.026-.495-.052l-.469-.078c-.104 0-.182-.026-.286-.052-.157-.026-.287-.053-.443-.079-.078-.026-.157-.026-.235-.052-.078-.026-.182-.052-.286-.078-.078-.026-.157-.026-.235-.052-.156-.052-.338-.078-.495-.13-.156-.053-.338-.105-.495-.157-.104-.026-.208-.078-.338-.104a18.19 18.19 0 0 1-1.147-.261c-.182-.052-.364-.104-.546-.182-.13-.052-.261-.105-.391-.131-.13-.026-.26-.104-.391-.156-.078-.026-.156-.052-.235-.104h-.026c-.104-.052-.234-.105-.338-.157-.13-.078-.287-.13-.417-.208-.13-.078-.26-.131-.39-.209a2.252 2.252 0 0 1-.418-.26c-.13-.079-.26-.157-.364-.235-.105-.078-.209-.13-.313-.209l-.234-.156a7.607 7.607 0 0 1-.547-.417 11.6 11.6 0 0 1-.573-.469 20.871 20.871 0 0 1-1.381-1.278c-3.074-3.102-5.054-6.908-6.8-10.844-4.167-9.384-6.877-19.238-9.404-29.143-.573-2.268-1.38-4.484-1.537-6.83-.99-2.19-1.276-4.562-1.823-6.856-2.787-11.6-5.6-23.174-9.613-34.435-3.725-10.48-8.205-20.62-12.634-30.813-.938-2.137-1.928-4.275-2.292-6.621-.235-1.381.494-1.981 1.797-1.668.573.13.703.6.912 1.017a5030.29 5030.29 0 0 1 8.779 16.396l.234.469c.365.704.886 1.147 1.667.704.73-.417.6-1.069.235-1.694a108.75 108.75 0 0 1-1.277-2.424c-2.448-4.562-4.871-9.098-7.32-13.634-.677-1.251-.677-2.581-.573-3.91.078-.886.834-1.251 1.667-1.382.886-.13 1.642-.104 2.163.913 3.021 5.709 6.095 11.391 9.143 17.1.052.104.13.235.183.339.338.73.833 1.356 1.693.86.781-.443.573-1.147.208-1.824-1.328-2.477-2.657-4.979-3.985-7.456l-5.55-10.323c-.39-.703-.624-1.433-.364-2.241.47-1.408 1.824-1.825 2.944-.861 1.016.861 1.771 1.903 2.449 3.024a2921.153 2921.153 0 0 1 9.326 15.198c.13.208.26.443.416.677.365.574.834.913 1.511.574.678-.365.652-.965.417-1.564-.886-2.216-1.797-4.432-2.683-6.621-1.303-3.207-2.631-6.413-3.595-9.75-.287-.99-.521-2.033-.547-3.076-.026-.964-.078-2.059 1.042-2.424 1.042-.339 1.563.6 2.058 1.277 1.641 2.216 2.71 4.719 3.83 7.221 2.474 5.579 4.272 11.47 6.903 16.996.364.756-.105.887-.521 1.147-3.882 2.398-6.226 5.839-7.008 10.323-.338 1.981-.26 3.988.156 5.97.157.755.47 1.381 1.355 1.225.938-.157.886-.887.755-1.643-.963-5.083.287-9.462 4.273-12.903 1.328-1.147 2.891-1.955 4.48-2.607 3.1-1.251 4.533-3.728 5.419-6.725.807-2.842 1.354-5.761 2.553-8.472.417-.939.677-2.425 2.032-2.138 1.302.261.86 1.747.885 2.685.105 4.301-.39 8.576-.625 12.878-.39 7.22-.573 14.441.782 21.558 3.282 17.126 6.434 34.279 10.081 51.327a256.537 256.537 0 0 0 2.996 12.512c.104.365.234.756.339 1.121.208.704.625 1.199 1.406.939.782-.261.808-.861.626-1.59-.73-2.764-1.46-5.527-2.136-8.316-.34-1.434-.6-2.894-.912-4.327-.156-.704.052-.991.86-.991 4.819.131 9.638.287 14.353 1.304.078.026.156.026.26.052 3.7.912 3.882 1.121 3.934 4.9.131 9.672.235 19.369.391 29.04.026.99-.26 1.694-1.042 2.398zm47.855-105.261c-1.303 2.815-2.501 5.682-3.804 8.706-2.839-3.701-5.575-7.22-8.258-10.792-.729-.938-2.058-1.824-1.928-2.919.131-.991 1.329-1.851 2.058-2.764.105-.13.235-.26.313-.417.547-.912 1.042-1.042 1.98-.286 2.996 2.372 6.07 4.614 9.144 6.882.651.443.833.808.495 1.59zm2.422-3.441c-.651.625-1.042.599-1.719.078-2.553-1.955-5.106-3.91-7.711-5.787-.703-.521-.99-1.043-.99-1.929-.052-4.614-.156-9.202-.234-13.816-.026-1.538-.235-1.694-1.746-1.747-2.97-.078-5.887-.364-8.596-1.746-3.179-1.616-5.054-4.145-5.549-7.69-.625-4.562-.13-9.098.365-13.633.521-4.614 1.12-9.228 1.771-13.816.313-2.242.99-4.406 1.98-6.44 2.501-5.134 6.825-7.246 12.322-7.376h1.458c4.247.287 8.675.99 12.791 3.05 3.439 1.72 6.096 4.118 6.825 8.133.209 1.069 1.094 1.225 1.954.443 3.23-3.05 7.06-4.301 11.436-3.91 2.241.208 4.038 1.251 5.315 3.128 3.021 4.353 2.37 9.801-1.642 13.294-3.178 2.764-7.007 4.119-11.097 4.745-1.303.208-1.85.704-2.084 1.981a27.86 27.86 0 0 1-2.892 8.055c-.599 1.069-1.198 2.19-2.188 2.893-1.25.913-1.485 2.034-1.407 3.467.313 6.257.495 12.487.782 18.743.026.756-.182 1.277-.73 1.799-2.787 2.659-5.626 5.344-8.414 8.081zm12.374 1.277c-1.876 3.363-3.777 6.726-5.809 10.349a1160.12 1160.12 0 0 0-5.523-8.655c-.338-.521-.208-.834.209-1.225 3.152-2.998 6.278-5.995 9.404-9.019.495-.469.781-.417 1.068.13.026.026.052.078.078.104.964 1.33 2.553 2.581 2.735 4.015.183 1.434-1.354 2.867-2.162 4.301zm53.065 71.973c-4.533 2.033-9.274 2.424-14.146 2.059-3.022-.208-6.017-.782-9.013-1.303-.756-.13-.964-.495-.99-1.225-.443-8.889-.886-17.778-1.381-26.667-.052-.756.131-1.252.73-1.773 1.354-1.147 1.745-2.711 1.719-4.458-.026-7.69 0-15.38 0-23.07v-14.337c0-1.434 0-1.434 1.433-.964 2.761.912 5.418 2.059 7.945 3.545 7.164 4.249 10.993 10.557 11.879 18.821 1.094 10.375 1.719 20.776 2.188 31.177.235 5.474.469 10.922.756 16.396.026.991-.287 1.434-1.12 1.799z" fill="#281E34"/><path d="M73.413 283.83c-1.25-.495-2.526-.886-3.75-1.46-4.95-2.346-8.024-6.517-10.5-11.183-3.724-6.96-6.147-14.415-8.413-21.949-1.98-6.595-3.543-13.321-5.289-19.994-4.09-.808-8.18-.808-12.217.339-4.69 1.329-8.675 3.832-12.192 7.142-3.204 2.998-5.653 6.543-7.92 10.245-1.823 3.597-3.464 7.273-4.584 11.183-2.579 8.889-3.152 17.909-2.058 27.085.156 1.199.469 1.694 1.797 1.668 10.499-.052 20.997-.026 31.495-.026 1.668 0 1.746 0 1.563-1.721-.99-9.28-1.98-18.56-2.995-27.84a157.135 157.135 0 0 1-.47-4.927c-.051-.625.183-1.121.886-1.225.704-.078 1.016.339 1.12.991.079.469.157.938.209 1.407.495 4.536.964 9.072 1.459 13.582.651 6.047 1.328 12.069 1.901 18.117.105 1.225.443 1.59 1.694 1.59 8.466-.052 16.932-.026 25.399-.026 2.918.052 2.918.052 2.865-2.998zm-50.094-2.477c-.626.522-1.225.287-1.694-.26-1.459-1.773-2.891-3.545-4.35-5.318-.39-.469-.573-.991-.235-1.564.183-.313.47-.495.964-.495.391.026.756.312 1.068.703 1.407 1.747 2.84 3.494 4.247 5.214.468.573.599 1.173 0 1.72z" fill="#02DAA0"/><path d="M45.462 229.245c-4.09-.808-8.18-.808-12.218.339-4.689 1.329-8.674 3.832-12.191 7.142-3.204 2.998-5.653 6.543-7.92 10.245-7.502 0-15.004.104-22.507-.052-4.82-.104-9.69-.339-14.328-2.007-2.891-1.043-5.418-2.555-6.408-5.735-1.172-3.78.156-7.768 3.308-10.167 2.84-2.163 6.148-3.18 9.56-3.806a50.038 50.038 0 0 1 8.129-.886c1.094-.026 1.64.339 2.136 1.225 2.084 3.78 6.226 5.709 10.446 4.901 7.112-1.382 10.472-9.436 6.356-15.432-.677-.991-.86-1.616.052-2.659 3.257-3.675 7.242-6.126 11.88-7.56 5.522-1.694 11.07-1.746 16.646-.365.286.079.599.079.911.105 1.746 5.265 2.866 10.688 4.168 16.084.678 2.893 1.329 5.76 1.98 8.628z" fill="#FDE058"/><path d="M9.565 220.59c0 3.467-2.188 6.491-5.47 7.56-3.204 1.042-6.877-.105-8.805-2.763-.235-.313-.547-.652-.339-1.043.183-.365.625-.209.938-.209 2.319.131 4.663.261 6.982.47 1.042.104 1.432-.235 1.589-1.304.364-2.502 1.354-4.822 2.553-7.038.442-.782.807-.6 1.198.026.833 1.355 1.354 2.737 1.354 4.301z" fill="#FDE058"/><path d="M161.797 39c-2.553-.051-5.08 2.139-4.767 4.823-.339 2.764 2.266 4.77 4.689 4.745 3.048-.026 4.689-2.242 4.715-4.797 0-2.58-2.032-4.718-4.637-4.77zm-.026 7.326c-1.511.026-2.605-.99-2.631-2.424-.026-1.408 1.198-2.738 2.553-2.764 1.302-.026 2.657 1.33 2.657 2.685-.026 1.434-1.094 2.477-2.579 2.503z" fill="#FAA0E0"/><path d="M81.908 152.137c-.209 1.643-.47 3.259-.704 4.875-.208 1.382-.416 2.737-.625 4.093-.104.677-.26 1.355-1.172 1.173-.755-.157-1.042-.704-.912-1.46.47-2.998.938-5.97 1.355-8.967.104-.73.39-1.174 1.146-1.043.73.13 1.016.625.912 1.329zM21.6 174.815c0 .574-.26.86-.626 1.017-.494.208-.99.156-1.276-.313-1.615-2.659-3.204-5.344-4.793-8.029-.313-.521-.104-1.017.417-1.329.599-.365 1.12-.183 1.432.365a760.133 760.133 0 0 1 4.663 7.794c.104.182.13.391.183.495z" fill="#281E34"/><path d="M73.543 109.967c-.052.417-.339.678-.703.808-.47.157-.99.131-1.303-.313a206.38 206.38 0 0 1-3.83-5.526c-.312-.469-.025-.938.418-1.225.573-.365 1.12-.183 1.484.313.99 1.355 1.954 2.737 2.892 4.118.39.6.99 1.043 1.042 1.825zM81.49 112.182c-.677.495-1.302.313-1.771-.365-1.172-1.642-2.292-3.337-3.465-4.979-.26-.365-.286-.678-.078-1.069.234-.443.651-.547.964-.625.703.026 1.016.469 1.302.886 1.069 1.512 2.085 3.076 3.153 4.562.39.573.52 1.121-.105 1.59z" fill="#FAA0E0"/><path d="M259.959 284.222c-.938 0-1.303-.939-.704-1.955 1.251-2.086 2.553-4.145 3.804-6.204 1.797-2.92 3.568-5.866 5.34-8.785.13-.235.286-.443.417-.652.39-.6.885-1.069 1.615-.652.781.47.599 1.147.208 1.799l-6.799 11.105c-.938 1.512-1.876 3.024-2.787 4.536-.261.417-.547.782-1.094.808z" fill="#FCFCFC"/><path d="M242.144 260.995c-.026.652-.313 1.017-.834 1.121-.573.13-.99-.104-1.25-.652a913.57 913.57 0 0 1-2.267-4.952c-.938-2.086-1.875-4.171-2.839-6.257-.313-.677-.365-1.303.391-1.668.781-.365 1.328.052 1.667.756 1.667 3.649 3.308 7.325 4.949 10.974.079.287.131.522.183.678z" fill="#FDE058"/><path d="M73.908 279.138c-.026.782-.156 1.564-.234 2.32-.39-.078-.756-.156-1.146-.261-.183-.052-.365-.104-.547-.182-.13-.052-.26-.104-.391-.13-.13-.026-.26-.105-.39-.157a.927.927 0 0 1-.235-.104h-.026c-.105-.052-.235-.104-.34-.156-.13-.079-.286-.131-.416-.209-.13-.078-.26-.13-.39-.209a2.249 2.249 0 0 1-.417-.26 4.437 4.437 0 0 1-.365-.235c-.104-.078-.209-.13-.313-.208l-.234-.157a7.347 7.347 0 0 1-.547-.417c-.209-.156-.391-.313-.573-.469a21.1 21.1 0 0 1-1.381-1.277c-3.074-3.102-5.054-6.908-6.8-10.845-4.167-9.384-6.877-19.238-9.403-29.143-.573-2.268-1.381-4.484-1.537-6.83 3.438.886 6.33 2.815 8.987 5.057 6.93 5.787 11.123 13.321 13.833 21.767 2.266 7.168 3.126 14.572 2.865 22.105z" fill="#02DAA0"/><path d="M18.005 273.718c.39.026.755.313 1.068.704 1.407 1.746 2.84 3.493 4.246 5.239.47.574.625 1.173 0 1.721-.625.521-1.224.287-1.693-.287a758.08 758.08 0 0 1-4.35-5.318c-.391-.469-.574-.99-.235-1.564.156-.313.443-.521.964-.495z" fill="#FDE058"/><path d="M136.116 113.01c-.729 2.555-.625 4.979.886 7.247.417.652.599 1.33-.208 1.799-.782.443-1.277-.104-1.668-.73-1.042-1.668-1.641-3.441-1.563-5.214-.052-3.206 1.095-5.891 2.397-8.498.886-1.772 1.954-3.493 2.944-5.213.39-.704.859-1.486 1.797-.939.964.548.469 1.33.052 2.007-1.823 3.024-3.647 6.074-4.637 9.541zM176.6 104.694c.052.651-.312 1.042-.99 1.121-3.725.391-5.861 2.815-7.554 5.839-.209.391-.339.808-.808.964-.833.287-1.511-.391-1.354-1.329.599-3.18 5.991-7.586 9.638-7.586.365 0 1.016.13 1.068.991zM152.634 123.776c-.078 3.362-2.839 6.073-6.2 6.1-.729 0-1.511-.105-1.537-1.017-.052-.939.626-1.173 1.485-1.199 2.475-.078 4.116-1.695 4.142-4.067 0-.86-.078-1.746 1.12-1.746.782 0 1.016.547.99 1.929zM156.879 99.09c-.026.677-.417 1.016-1.094 1.016-1.302 0-2.709-.782-2.683-1.564.052-.678.469-.99 1.12-1.017 1.329-.026 2.709.782 2.657 1.564zM136.328 97.344c-.079 1.303-1.277.99-2.058 1.225-.73.026-1.225-.26-1.199-1.017.026-1.355 1.173-1.12 2.006-1.25.782-.157 1.303.26 1.251 1.042zM156.122 105.007c-.052.834-.469 1.329-1.277 1.329-.807.026-1.328-.469-1.328-1.251-.026-.782.443-1.304 1.276-1.304.808-.026 1.251.443 1.329 1.226zM134.451 104.614c-.052.861-.547 1.33-1.329 1.304-.807-.026-1.276-.522-1.276-1.33s.495-1.277 1.328-1.251c.834 0 1.199.521 1.277 1.277z" fill="#281E34"/><path d="M11.68 43.72l49.927 33.75 10.976-15.376L11.68 43.72zM81.12 50.136l-69.44-6.417 60.903 18.375 8.537-11.959z" fill="#6C4FAA"/><path d="M11.68 43.72l69.44 6.416-8.537 11.958M11.68 43.72l49.926 33.75 10.976-15.375M11.68 43.72l60.902 18.375" stroke="#FA9BE1" stroke-width="3.122" stroke-linejoin="round"/><path d="M49.396 81.32l-37.714-37.6 43.1 28.866-5.386 8.733z" fill="#FA9BE1"/></g><defs><clipPath id="a"><path fill="#fff" transform="translate(-5 -7)" d="M0 0h318v291H0z"/></clipPath></defs></svg>