<svg width="251" height="251" viewBox="0 0 251 251" fill="none" xmlns="http://www.w3.org/2000/svg"><rect x="89.371" y="104.583" width="154.023" height="135.008" rx="7.636" fill="#FCE057"/><path d="M209.494 254.558v-9.882l-26.681-21.345-43.481-41.504-36.562 14.823s13.649 41.037 24.704 62.256c21.22 40.727 82.02-4.348 82.02-4.348z" fill="#fff"/><path d="M176.419 104.808h11.582-11.582zm-62.191 86.483c-.156 0-.312-.026-.468-.026.156 0 .312 0 .468.026zm-7.842 8.787c.129.387.259.774.389 1.186-.13-.412-.26-.799-.389-1.186zm-17.892-25.486c.026-1.108.052-2.242.052-3.35 0 1.108-.026 2.216-.052 3.35z" fill="#FEFEFE"/><path d="M120.125 245.047a18873.17 18873.17 0 0 0-53.207 0c-.857 0-1.246-.335-1.48-1.082-4.466-13.529-8.959-27.032-13.425-40.561-2.857-8.582-5.661-17.189-8.517-25.796-.078-.206-.156-.412-.208-.618-.234-.722-.623-1.315-1.48-1.031-.831.283-.701 1.005-.52 1.623.883 2.732 1.766 5.463 2.675 8.195 2.882 8.684 5.765 17.343 8.621 26.027 3.532 10.643 7.011 21.261 10.595 31.878.39 1.159.13 1.469-1.013 1.314a.982.982 0 0 0-.39 0c-2.544.515-4.388-.644-5.998-2.422-.415-.464-.727-.902-.935-1.495-4.57-13.942-9.166-27.883-13.736-41.824-2.727-8.324-5.505-16.622-8.232-24.946-.156-.489-.39-.953-.234-1.494v-.026c.13.052.286.052.364.129 1.298 1.804 3.168 1.701 5.09 1.701 16.229-.026 32.484-.026 48.714-.026.571 0 1.117-.026 1.688-.052 2.623.026 5.245.078 7.868.026.987-.026 1.454.335 1.766 1.263.207.644.104 1.495.909 1.855.026 1.778.649 3.376 1.532 4.871.649 3.041 1.688 5.953 2.934 8.813.13 1.16.441 2.242 1.013 3.273.13.567.207 1.134.571 1.598.156 1.005.416 1.958.831 2.886.13.309.286.618.441.902.13.386.26.773.39 1.185.13.387.26.773.389 1.186.26.798.494 1.571.754 2.345a319.055 319.055 0 0 0 1.532 4.715 7575.991 7575.991 0 0 0 11.581 34.274c.338.979.208 1.314-.883 1.314z" fill="#F66667"/><path d="M228.667 155.781c-1.999-8.658-6.829-14.972-15.217-18.399-5.089-2.088-10.439-3.067-15.866-3.634-6.336-.644-12.698-.696-19.034-.593-.649 0-1.142 0-1.246-.85-.935-7.499-1.922-14.972-2.883-22.471-.052-.413-.155-.851.13-1.237.831-1.16 1.273-2.5 1.87-3.788.623-3.041 1.038-6.108.649-9.2-.104-.928.182-1.34 1.013-1.727 4.7-2.216 8.725-5.231 11.503-9.715 2.026-3.273 2.909-6.829 1.688-10.591-1.532-4.716-4.388-8.195-9.712-8.865-3.168-.387-6.076.593-8.777 2.19-.934.567-1.454.567-2.207-.335-5.012-5.927-11.244-10.256-18.463-13.168-4.076-1.65-8.283-2.783-12.776-2.242-1.973.232-3.635 1.082-5.037 2.448-1.091 1.057-1.117 2.397-.831 3.866a13.154 13.154 0 0 0-.909-.31c-3.791-1.21-7.634-2.216-11.685-1.83-4.103.387-6.804 3.273-6.804 7.37 0 3.35 1.948 5.67 4.311 7.732.441.386.753.644.493 1.366-.883 2.37-.207 4.458 1.351 6.339 1.298 1.546 3.012 2.603 4.855 3.35 1.039.412 1.688.902 1.558 2.087.935.516 2.493.284 3.143-.515.415-.515.441-1.134-.026-1.495-.702-.54-.546-1.16-.39-1.83 1.532-7.318 6.206-11.647 13.763-12.678 5.998-.825 11.815.052 17.502 1.933 1.038.335 1.454.927 1.662 1.984 1.376 6.932 2.83 13.864 3.349 20.95.182 2.397.208 4.82-.415 7.165-.727 2.783-2.207 3.917-5.116 3.943-2.648 0-5.245-.567-7.816-1.109-3.194-.67-6.414-1.03-9.66-.824-.831.051-1.376-.206-1.921-.747-1.818-1.753-2.519-3.943-2.623-6.391-.078-2.294.364-4.536.805-6.752.13-.644.493-.825 1.117-.722.415.078.857.13 1.272.18.909.104 1.324.516 1.506 1.521.831 4.252 3.999 6.365 8.102 5.592 3.791-.721 6.7-4.844 6.05-8.555-.13-.645-.467-1.031-1.116-1.005-.675.025-1.013.412-.987 1.082a9.664 9.664 0 0 1-.208 2.293c-.675 2.887-3.298 4.613-6.232 4.124-1.792-.31-3.116-1.83-3.531-3.995-.468-2.525-.676-2.731-3.272-3.195-1.896-.335-1.896-.335-1.299-2.216.13-.413.26-.825.338-1.237.104-.567-.078-1.057-.675-1.237-.623-.206-1.117.051-1.351.67a9.948 9.948 0 0 0-.389 1.237c-.519 2.164-1.948 4.046-1.896 6.365 0 .464-.363.953-.623 1.391-1.22 2.165-3.194 3.196-5.219 2.706-2.052-.49-3.506-2.37-3.662-4.767-.052-.748.156-1.572-.519-2.165-.416-.051-.831-.077-1.247.103-.077.078-.181.155-.259.258-.468 2.835.259 5.257 2.389 7.241.259.232.519.438.571.825.467 3.71.909 7.396 1.376 11.107.701 3.144 1.169 6.313 2.104 9.406 1.402 4.587 3.843 8.246 8.439 10.127 3.038 1.263 6.206 1.031 9.322.387 1.091-.232 1.403.051 1.61 1.082.572 2.912 1.221 5.798 1.87 8.684.208.851 0 1.109-.883 1.134-7.297.335-14.594.773-21.838 1.701-4.545.593-9.037 1.469-13.348 3.118-6.855 2.629-10.958 7.654-13.139 14.457-1.74 5.463-2.649 11.081-3.428 16.75l-.857 6.108c.026 1.778.65 3.376 1.532 4.87 1.065-7.859 1.844-15.771 3.74-23.502 1.09-4.458 2.596-8.736 5.816-12.189 3.376-3.608 7.817-5.283 12.517-6.339 5.92-1.366 11.971-1.83 17.995-2.216 3.454-.232 6.907-.361 10.361-.593.857-.052 1.168.129 1.298 1.057 1.351 10.256 2.779 20.487 4.181 30.743.234 1.649.493 3.298.727 4.973.104.696.104 1.444.987 1.624.935.18 1.116-.593 1.428-1.211a27790.27 27790.27 0 0 1 12.386-26.337c1.948-4.123 3.87-8.246 5.817-12.369.234-.49.39-.98 1.169-.98 9.218-.077 18.436 0 27.473 2.139 5.012 1.186 9.738 3.067 13.555 6.675 3.947 3.736 5.843 8.529 6.855 13.709 1.584 8.014 1.48 16.132 1.299 24.249-.234 11.288-.468 22.575-.857 33.862-.26 7.319-1.117 14.56-3.688 21.492-1.064 2.938-2.492 5.669-4.7 7.911-3.661 3.737-8.127 4.252-12.957 3.118-4.337-1.03-8.206-3.144-11.971-5.437-11.452-6.984-22.124-15.024-32.771-23.116-2.649-2.01-5.219-4.097-7.894-6.081-.883-.644-.779-.928-.026-1.649 6.258-5.902 9.79-13.195 10.828-21.673.13-1.005.312-1.108 1.169-.593 8.413 4.871 16.567 10.128 24.747 15.333 4.83 3.093 9.608 6.263 14.308 9.561.623.438 1.298.902 1.895.077.598-.824 0-1.34-.649-1.804-1.35-.927-2.675-1.881-4.051-2.783-.727-.464-1.013-1.005-1.013-1.881.026-11.802.026-23.605.026-35.433 0-.387.026-.773-.051-1.16-.104-.593-.52-.876-1.117-.825-.519.052-.909.335-.935.902-.026.335 0 .696 0 1.031v34.996c-.727-.052-1.168-.516-1.688-.851-9.504-6.21-19.034-12.344-28.823-18.064-8.284-4.845-16.931-8.968-26.227-11.545-2.389-.67-4.804-1.108-7.219-1.521-2.441-.412-4.882-.541-7.453-.489.234-.825.831-1.263 1.272-1.804 1.688-2.062 3.402-4.123 5.09-6.185 1.143-1.392 1.169-2.474.13-3.376-1.039-.902-2.259-.644-3.428.747-3.064 3.608-6.102 7.242-9.14 10.875-.156.181-.234.464-.675.49v-2.139c.077-4.458.129-8.942.207-13.4 0-.567.078-1.134-.415-1.546-.338-.258-.727-.31-1.091-.129-.623.283-.675.824-.675 1.417l-.156 10.179c-.026 1.727-.078 3.428-.104 5.154-.026 1.572-.883 2.397-2.518 2.448-2.415.078-4.701.567-6.83 1.753-3.324 1.881-5.115 5.334-4.466 9.096.182 1.031-.338 1.701-.779 2.474.13 1.16.441 2.242 1.012 3.273 2.571-6.546 7.115-11.365 13.114-14.921 2.675-1.597 5.635-2.113 8.673-2.267 6.596-.361 12.88 1.108 19.06 3.169 5.479 1.856 10.725 4.278 15.892 6.906.779.413 1.013.851.935 1.701-.857 8.195-4.025 15.282-10.024 21.08-1.402 1.366-1.428 1.34-2.934.129-2.986-2.397-5.92-4.871-8.959-7.216-2.544-1.958-5.401-3.092-8.699-2.139-.052 0-.078 0-.129.026-.702.258-1.636.335-1.584 1.392.077 1.082.96.979 1.765.953-.727 1.959-1.584 2.242-3.22 1.211-.259-.154-.493-.335-.753-.515-2.025-1.495-2.259-3.067-.701-5.051 1.325-1.675 3.012-2.938 4.778-4.123.416-.284.883-.541 1.273-.876.467-.361.571-.876.259-1.392-.311-.515-.831-.721-1.35-.386-3.012 1.932-6.102 3.839-7.686 7.241-.364.799-.701.902-1.429.644-1.661-.618-2.259-1.778-1.739-3.453.545-1.701 1.687-2.989 2.908-4.2 1.298-1.289 2.778-2.32 4.285-3.325.597-.412 1.194-.85.675-1.649-.546-.85-1.247-.515-1.896-.077-3.142 2.164-6.206 4.406-7.79 8.066-.104.232-.208.438-.545.412-2.052-.052-3.376-2.113-2.467-3.943 1.09-2.19 2.986-3.633 4.882-5.076.856-.645 1.765-1.237 2.674-1.804.675-.413 1.091-.954.623-1.701-.415-.696-1.116-.593-1.687-.155-1.351 1.031-2.909 1.495-4.519 2.01-3.038 1.005-5.245 3.273-7.297 5.618-1.168 1.314-2.259 2.706-3.557 3.917-.649.619-1.324 1.211-2.259 1.443.156 1.005.415 1.959.831 2.886.13.31.285.619.441.902 2.467-2.937 4.908-5.875 7.375-8.813.156-.361.389-.644.779-.902.13.438-.078.696-.312.928-1.012 3.118-.285 4.896 2.675 6.262.675.309.857.644.831 1.366-.104 4.381-.156 8.761-.208 13.142l-.156 7.86c-.026.773-.104 1.675 1.013 1.727 1.117.051 1.143-.825 1.143-1.624 0-.335.026-.696.026-1.031.051-3.994.129-7.988.181-11.983.026-1.932 0-3.891 0-6.21 1.351 1.108 2.467 1.649 3.74 1.752.337.026.493.206.623.516.727 1.881 2.285 2.989 3.973 3.891 1.272.696 2.597.799 3.791-.129 1.195-.928 2.233-2.036 1.792-3.865 2.103-.103 3.817.798 5.349 2.01 5.116 4.02 10.153 8.143 15.295 12.163 11.607 9.019 23.292 17.936 35.705 25.873 4.103 2.628 8.283 5.128 12.958 6.726 3.531 1.211 7.141 1.726 10.854.927 3.557-.773 6.154-2.989 8.413-5.669 1.974-2.938 3.428-6.133 4.415-9.509 2.207-7.525 2.83-15.256 3.064-23.012.337-11.159.545-22.291.701-33.45.182-7.962.13-15.745-1.636-23.373zm-54.531-87.205c1.999-1.03 4.103-1.83 6.414-1.778 4.31.026 8.231 3.763 8.958 8.53.572 3.71-.831 6.803-3.064 9.638-2.389 3.015-5.479 5.18-8.933 6.88-1.376.696-1.064-.567-1.168-1.082-1.273-6.34-2.493-12.704-3.713-19.044-.416-2.139-.416-2.164 1.506-3.144zm-43.547 30.151c-.182-1.185-.286-2.37-.442-3.582-.052-.49-.078-.85.623-.773 1.896.206 3.558-.36 5.246-1.7-.078 3.452.701 6.364 3.012 8.864-2.908.799-5.271 2.242-7.297 4.69a340.372 340.372 0 0 1-1.142-7.499zm12.334 24.224c-4.57-.774-7.427-3.608-8.985-7.809-.623-1.675-1.038-3.453-1.532-5.179-.156-.542-.052-.954.312-1.495 2.674-3.994 6.622-5.283 11.192-5.386 4.051-.103 7.972.979 11.919 1.624a28.23 28.23 0 0 0 3.609.412c4.96.18 7.635-2.165 8.258-7.087.519-4.303.052-8.581-.572-12.833-.779-5.438-1.869-10.823-3.038-16.183-.13-.67-.415-1.083-1.038-1.34-8.128-3.093-16.386-4.381-24.825-1.47-5.947 2.062-9.452 6.417-10.802 12.473-.104.412-.182.825-.312 1.34-1.974-.773-3.791-1.65-5.168-3.195-1.48-1.65-1.661-3.325-.519-5.18.493-.799.338-1.314-.389-1.855-1.533-1.134-2.935-2.397-3.922-4.072-2.285-3.943-.077-8.04 4.493-8.298 4.752-.283 9.114 1.289 13.425 2.938.961.36 1.896.825 2.856 1.237.675.309 1.325.309 1.688-.387.338-.644-.052-1.134-.623-1.494-1.039-.619-2.025-1.315-2.804-2.268-.961-1.211-.857-1.984.389-2.912 1.402-1.03 3.012-1.443 4.752-1.417 4.648.051 8.907 1.572 13.01 3.556 5.738 2.783 10.724 6.545 14.879 11.416.519.593.831 1.237.987 2.036 1.48 7.679 3.012 15.333 4.492 22.986.571 2.964.519 5.979.13 8.968-.468 3.737-2.675 6.391-5.401 8.788-5.453 4.741-11.686 8.272-18.307 11.081-2.545 1.133-5.376 1.468-8.154 1.005zm13.477 27.728c-.104-.026-.208-.052-.286-.077-.415-3.041-.831-6.082-1.298-9.406.701.644 1.169 1.133 1.688 1.572.753.644 1.584 1.211 2.571 1.443 1.168.257.986.721.467 1.494-1.065 1.624-2.077 3.299-3.142 4.974zm9.816 5.257l-6.934 14.766c-.026.052-.129.077-.363.232-.727-5.283-1.428-10.463-2.155-15.642-.104-.67.026-1.237.389-1.804 1.532-2.371 3.012-4.793 4.648-7.37 1.584 3.015 3.064 5.875 4.57 8.71.208.438 0 .773-.155 1.108zm1.48-3.17c-1.454-2.783-2.779-5.283-4.155-7.937 3.584-.386 6.7-1.701 9.634-3.788-1.766 3.84-3.558 7.628-5.479 11.725zm7.504-18.09c-1.843 4.741-8.777 8.736-13.814 7.963-3.116-.49-5.09-2.294-5.895-5.257-.805-3.015-1.402-6.082-2.103-9.149-.26-1.133-.468-2.267-.779-3.375-.208-.799 0-1.186.805-1.547 5.375-2.474 10.542-5.334 15.191-9.019 1.22-.954 2.363-1.984 3.765-3.196l.883 6.933a1569.05 1569.05 0 0 0 2.077 15.436c.078.412.026.799-.13 1.211zm-68.657 52.132c-.234-2.551 2.571-5.489 5.713-5.953-2.156 1.856-4.025 3.763-5.713 5.953zm8.257 3.247l.026-.103.078.052-.104.051z" fill="#281E34"/><path d="M52.092 239.094c-1.792-1.108-3.039-2.448-4.389-3.659-6.7-5.902-13.347-11.829-20.047-17.73-.649-.567-1.038-1.211-1.298-2.01-1.662-4.974-3.35-9.921-5.012-14.895-.104-.283-.13-.593-.181-.876 2.363-.876 2.856-1.907 1.947-4.201-.13-.36-.208-.644.026-.953.909-1.34.779-2.654-.104-3.943-.208-.283-.39-.592-.156-.927 1.325-1.959.416-3.582-.857-5.103-.311-.361-.493-.644-.13-1.108 1.195-1.52.91-3.015-.077-4.51-2.078-3.195-4.96-5.669-7.609-8.375-.7-.721-1.402-.928-2.285-.438-.753-.129-1.013-.67-1.246-1.288-.468-1.34-.961-2.706-1.429-4.046.91-1.495.702-2.062-.882-2.216-.494-2.629-1.584-5.077-2.415-7.603-.78-2.448-1.636-4.87-2.467-7.318-.104-.284-.234-.567-.052-1.083 9.556 8.453 19.034 16.828 28.616 25.306-1.714.284-1.974.619-1.506 1.959 4.492 13.606 8.984 27.213 13.503 40.819 2.544 7.705 5.115 15.385 7.686 23.09.13.283.208.567.364 1.108z" fill="#F66667"/><path d="M165.699 91.897c-.545-7.087-1.973-13.993-3.35-20.95-.207-1.057-.623-1.65-1.661-1.985-5.713-1.881-11.53-2.732-17.502-1.933-7.557 1.03-12.231 5.36-13.763 12.679-.13.67-.312 1.288.389 1.83.468.386.468 1.005.026 1.494-.649.799-2.207 1.031-3.142.516-.052.592.026 1.21-.311 1.752.675.618.467 1.417.519 2.165.156 2.396 1.61 4.277 3.661 4.767 2.026.464 3.999-.541 5.22-2.706.26-.438.623-.927.623-1.391-.026-2.345 1.402-4.2 1.896-6.366a11.3 11.3 0 0 1 .389-1.237c.234-.618.727-.85 1.351-.67.597.18.779.67.675 1.238-.078.412-.234.824-.338 1.236-.571 1.882-.571 1.882 1.298 2.217 2.571.463 2.779.67 3.272 3.195.416 2.165 1.74 3.685 3.532 3.994 2.934.49 5.557-1.237 6.232-4.123.182-.747.26-1.52.208-2.293-.026-.67.337-1.083.987-1.083.649-.025 1.012.361 1.116 1.005.675 3.711-2.233 7.834-6.05 8.556-4.103.773-7.271-1.366-8.102-5.592-.208-.98-.597-1.392-1.506-1.52-.416-.052-.857-.104-1.273-.18-.597-.104-.986.076-1.116.72-.416 2.243-.883 4.459-.805 6.752.078 2.449.805 4.639 2.623 6.391.545.541 1.116.799 1.921.748 3.246-.207 6.466.154 9.66.824 2.571.541 5.168 1.134 7.816 1.108 2.909-.025 4.415-1.159 5.116-3.943.597-2.422.571-4.818.389-7.215zm-34.562-1.263c-.883 0-1.402-.49-1.428-1.34-.026-.902.467-1.443 1.402-1.52.935.077 1.454.618 1.428 1.495.026.85-.519 1.34-1.402 1.365zm15.269-9.818c-.754-.026-1.273-.412-1.273-1.16 0-.85.597-1.16 1.402-1.16h.779v.052c.338 0 .702-.026 1.039 0 .649.078.987.516 1.013 1.134.026.644-.39 1.057-.987 1.108-.701.103-1.35.052-1.973.026zm3.245 7.937c-.882.052-1.402-.49-1.506-1.34 0-.98.546-1.52 1.403-1.546.831-.026 1.376.515 1.428 1.34.078.876-.416 1.495-1.325 1.546z" fill="#FDFDFD"/><path d="M23.135 194.77c.91-1.34.78-2.654-.104-3.942-.207-.284-.389-.593-.155-.928 1.324-1.959.415-3.582-.857-5.103-.312-.36-.494-.644-.13-1.108 1.194-1.52.909-3.015-.078-4.509-2.077-3.196-4.96-5.67-7.608-8.376-.701-.721-1.403-.927-2.285-.438-.234.928.233 1.521.856 2.139 2.338 2.216 4.726 4.407 6.648 7.01.623.824 1.662 1.803.701 2.834-.857.902-1.973.129-2.83-.361-4.752-2.68-8.466-6.236-9.167-11.982-.207-1.779 0-3.505 1.143-5 .909-1.494.701-2.061-.883-2.216-1.844 1.572-2.415 3.711-2.441 5.979 0 1.829.13 3.607-.467 5.411-.39 1.186-.26 2.474.052 3.685.467 1.856.779 3.737 1.168 5.618.623 2.938 2 5.669 2.57 8.659.079.438.364.876.624 1.262 2.675 4.021 6.518 6.108 11.296 6.546 2.363-.876 2.856-1.907 1.947-4.2-.155-.361-.233-.645 0-.98zM7.92 178.69c-.286-.954-.494-1.881-.416-3.221 1.792 2.963 3.87 5.179 6.388 6.958a16.576 16.576 0 0 0 4.596 2.267c1.454.464 2.311 1.624 2.805 2.99.311.876-.39 1.443-1.48 1.262-1.792-.257-3.376-1.056-4.856-2.01-3.22-2.01-5.895-4.484-7.037-8.246zm13.399 18.735c-.182.36-.572.36-.91.309-3.842-.644-6.907-2.5-8.88-5.901 2.285 1.649 4.622 3.195 7.4 3.891.728.18 1.585.051 2.104.799.182.283.493.541.286.902zm-.676-3.608a6.698 6.698 0 0 1-1.765-.309c-3.532-1.289-6.414-3.454-8.647-6.469-.078-.128-.13-.283-.338-.773 1.922 1.211 3.48 2.242 5.09 3.196 1.532.927 3.194 1.52 4.985 1.675 1.117.103 1.403.927 1.584 1.726.13.541-.285.98-.909.954zM94.313 170.521c-.052.979-.831 1.056-1.636 1.005a228.85 228.85 0 0 0-4.129-.284c-3.791-.36-7.556-.773-11.348-1.108-6.024-.541-12.048-1.159-18.099-1.494-6.154-.335-12.178.412-17.684 3.479-.649.36-1.272.463-1.661-.284-.39-.722 0-1.211.623-1.598 2.674-1.597 5.583-2.448 8.62-3.066 5.584-1.16 11.193-.722 16.776-.206 6.362.592 12.75 1.133 19.112 1.7 1.194.103 2.415.181 3.61.284 1.453.154 2.907.309 4.388.438.805.077 1.48.258 1.428 1.134zM38.355 171.862c-.078.696-.467 1.134-1.22 1.031-.675-.078-.961-.567-.883-1.186.597-6.417-3.064-10.437-7.868-13.787-2.52-1.752-5.324-2.963-8.336-3.762-4.492-1.211-8.05-3.659-10.283-7.808-.13-.258-.285-.516-.39-.799-.233-.644-.311-1.314.468-1.624.78-.309 1.22.129 1.506.799 1.065 2.5 2.934 4.278 5.168 5.773.26.18.545.232.83.335.702.463 1.48.747 2.286.953 4.414 1.211 8.517 3.015 12.075 5.953 3.22 2.68 5.712 5.824 6.57 10.024.233 1.366.233 2.732.077 4.098z" fill="#281E34"/><path d="M44.279 28.572c.545.541 1.012 1.211.285 1.881-.753.67-1.35.078-1.87-.438-1.324-1.288-2.726-2.525-3.946-3.89-.675-.748-1.065-.568-1.636.025-1.22 1.263-2.493 2.5-3.766 3.737-.57.566-1.194 1.391-2.05.515-.832-.85-.027-1.495.518-2.062 1.273-1.34 2.571-2.654 3.947-3.89.598-.542.494-.851 0-1.315-1.454-1.418-2.882-2.86-4.31-4.278-.39-.386-.675-.799-.39-1.366.052-.077.104-.18.156-.232.078-.077.13-.128.208-.18.026-.026.078-.052.13-.077.13-.052.285-.078.441-.078.104 0 .208 0 .312.026.156.052.285.129.39.206l.077.078a.786.786 0 0 1 .208.206c1.376 1.365 2.779 2.706 4.103 4.097.623.644.987.644 1.636-.051 1.272-1.392 2.674-2.68 4.025-3.995.519-.515 1.168-.902 1.817-.283.702.696.208 1.34-.337 1.881-1.35 1.34-2.675 2.706-4.051 3.994-.545.516-.65.825-.026 1.418 1.454 1.262 2.779 2.68 4.129 4.071z" fill="#fff"/><path d="M222.695 86.177c-.286.541-.598 1.185-1.013 1.804a178.376 178.376 0 0 1-3.116 4.535c-.416.593-.909 1.237-1.792.593-.857-.644-.39-1.237.026-1.881a398.52 398.52 0 0 0 3.609-5.463c.364-.542.831-.877 1.532-.619.416.155.754.387.754 1.03zM70.764 141.504c-.754.386-1.247.051-1.662-.67-.987-1.752-2.052-3.453-3.065-5.18-.207-.361-.441-.747-.389-1.108 0-.541.052-.979.571-1.108.52-.129 1.013-.129 1.35.438 1.17 1.984 2.338 3.969 3.506 5.953.364.67.416 1.288-.311 1.675zM112.645 34.792c-.156 1.082-1.168 1.623-1.74 2.474-.415.644-1.09 1.108-1.584 1.7-.415.516-.883.49-1.376.207-.493-.31-.701-.825-.364-1.34.987-1.495 2.182-2.86 3.454-4.15.312-.309.727-.257 1.065-.025.415.283.545.67.545 1.134zM226.226 90.042c-.624 1.443-1.377 2.835-2.104 4.227-.259.49-.623.824-1.246.566-.571-.231-.831-.67-.675-1.21.493-1.676 1.376-3.196 2.311-4.69.104-.181.441-.207.649-.31.753.206 1.454.541 1.065 1.417z" fill="#FD9AE1"/><path d="M114.231 191.291c-.156 0-.312-.026-.467-.026.155-.361.389-.644.779-.902.155.413-.052.67-.312.928z" fill="#F66667"/><path d="M125.137 85.377c-.077.077-.181.154-.259.257 0-.257-.442-.54-.078-.721.285-.155.26.258.337.464z" fill="#FDFDFD"/><path d="M32.665 172.838c-.077-.025-.129-.051-.206-.076.155-.205.155-.026.206.076z" fill="#F66667"/><path d="M100.598 182.606c1.064-7.86 1.843-15.771 3.739-23.502 1.091-4.458 2.597-8.736 5.817-12.189 3.375-3.633 7.816-5.283 12.516-6.339 5.92-1.366 11.971-1.83 17.995-2.216 3.454-.232 6.908-.361 10.361-.593.857-.052 1.195.154 1.299 1.056 1.35 10.257 2.778 20.487 4.18 30.744.234 1.649.494 3.298.727 4.973.104.696.104 1.443.987 1.624.935.18 1.117-.593 1.428-1.211 4.129-8.788 8.258-17.575 12.387-26.337 1.947-4.123 3.869-8.246 5.816-12.37.234-.489.39-.979 1.169-.979 9.218-.077 18.437 0 27.473 2.139 5.012 1.185 9.738 3.067 13.529 6.674 3.947 3.763 5.843 8.53 6.856 13.71 1.584 8.014 1.48 16.132 1.298 24.249-.234 11.287-.467 22.575-.857 33.862-.26 7.318-1.116 14.56-3.687 21.492-1.065 2.938-2.493 5.669-4.7 7.911-3.662 3.737-8.128 4.252-12.958 3.118-4.337-1.031-8.206-3.144-11.971-5.437-11.426-6.984-22.124-15.024-32.745-23.116-2.648-2.01-5.219-4.097-7.894-6.081-.883-.645-.779-.928-.026-1.65 6.258-5.901 9.79-13.194 10.829-21.672.129-1.005.311-1.108 1.168-.593 8.414 4.845 16.567 10.128 24.747 15.333 4.83 3.093 9.608 6.262 14.308 9.561.623.438 1.298.902 1.896.077.597-.824 0-1.34-.65-1.778-1.35-.928-2.674-1.881-4.05-2.783-.728-.464-1.013-1.005-1.013-1.881.026-11.803.026-23.605.026-35.434 0-.386.026-.773-.052-1.159-.104-.593-.519-.876-1.117-.825-.519.052-.883.335-.935.902-.026.335 0 .696 0 1.031v34.995c-.727-.051-1.168-.515-1.687-.85-9.504-6.211-19.034-12.344-28.824-18.065-8.284-4.845-16.931-8.968-26.227-11.545-2.389-.67-4.804-1.108-7.219-1.52-2.441-.412-4.882-.541-7.453-.49.234-.824.831-1.262 1.273-1.804 1.688-2.087 3.401-4.123 5.089-6.184 1.143-1.392 1.169-2.474.13-3.376-1.039-.902-2.259-.644-3.428.747a1836.327 1836.327 0 0 0-9.14 10.875c-.156.18-.234.464-.675.49v-2.139c.052-4.458.13-8.917.208-13.401 0-.567.077-1.133-.416-1.546-.337-.257-.727-.309-1.091-.129-.597.284-.675.825-.675 1.418l-.155 10.179a341.038 341.038 0 0 1-.104 5.154c-.026 1.572-.883 2.396-2.519 2.448-2.415.077-4.7.541-6.83 1.752-3.349 1.881-5.115 5.335-4.466 9.097.182 1.056-.338 1.701-.779 2.474-1.194-2.938-2.259-5.85-2.908-8.891z" fill="#FDFDFD"/><path d="M104.545 194.694c2.571-6.546 7.115-11.365 13.113-14.921 2.675-1.598 5.635-2.113 8.674-2.294 6.595-.36 12.879 1.108 19.06 3.196 5.505 1.855 10.724 4.278 15.892 6.906.779.412 1.012.851.934 1.701-.857 8.195-4.025 15.281-10.023 21.08-1.402 1.365-1.428 1.34-2.934.128-2.987-2.396-5.921-4.87-8.959-7.215-2.545-1.959-5.401-3.092-8.699-2.139-.052 0-.078 0-.13.026-.701.257-1.636.335-1.584 1.391.078 1.083.961.98 1.766.954-.727 1.958-1.584 2.242-3.22 1.211-.26-.155-.494-.335-.753-.515-2.026-1.495-2.259-3.067-.701-5.051 1.324-1.675 3.012-2.938 4.778-4.123.415-.284.883-.542 1.272-.877.467-.36.571-.876.26-1.391-.312-.49-.831-.722-1.351-.387-3.012 1.933-6.102 3.84-7.686 7.242-.363.798-.701.902-1.428.644-1.662-.619-2.259-1.778-1.714-3.453.545-1.701 1.688-2.99 2.908-4.201 1.299-1.288 2.779-2.319 4.285-3.324.597-.412 1.195-.85.675-1.649-.545-.851-1.246-.516-1.895-.078-3.142 2.165-6.207 4.407-7.791 8.066-.104.232-.207.438-.545.413-2.051-.052-3.376-2.114-2.467-3.943 1.091-2.191 2.986-3.634 4.882-5.077a37.364 37.364 0 0 1 2.675-1.804c.675-.412 1.09-.953.623-1.7-.416-.696-1.117-.593-1.688-.155-1.35 1.005-2.908 1.495-4.518 2.01-3.039 1.005-5.246 3.273-7.297 5.592-1.169 1.314-2.259 2.706-3.558 3.917-.649.618-1.35 1.211-2.259 1.443-.389-.49-.467-1.057-.597-1.623z" fill="#FDFDFD"/><path d="M174.63 93.135c-1.48-7.68-3.012-15.334-4.493-22.987a4.163 4.163 0 0 0-.986-2.036c-4.129-4.87-9.115-8.633-14.88-11.416-4.102-1.984-8.361-3.505-13.009-3.556-1.74-.026-3.35.36-4.752 1.417-1.247.928-1.377 1.727-.39 2.912.779.954 1.74 1.65 2.805 2.268.571.335.961.825.623 1.495-.364.695-.987.695-1.688.386-.935-.438-1.87-.876-2.856-1.237-4.337-1.675-8.673-3.221-13.425-2.938-4.571.284-6.778 4.355-4.493 8.298.961 1.675 2.389 2.938 3.921 4.072.727.541.883 1.056.39 1.855-1.143 1.856-.961 3.53.519 5.18 1.402 1.546 3.194 2.422 5.168 3.195.103-.515.207-.927.311-1.34 1.351-6.081 4.856-10.436 10.803-12.472 8.439-2.912 16.697-1.624 24.824 1.469.624.232.909.67 1.039 1.34 1.169 5.36 2.259 10.746 3.038 16.183.623 4.252 1.091 8.504.572 12.834-.598 4.947-3.272 7.267-8.258 7.086a28.604 28.604 0 0 1-3.61-.412c-3.973-.644-7.868-1.701-11.919-1.624-4.57.104-8.491 1.392-11.191 5.386-.364.541-.468.954-.312 1.495.493 1.727.909 3.505 1.532 5.18 1.558 4.2 4.414 7.061 8.985 7.808 2.778.464 5.609.103 8.153-.979 6.622-2.835 12.828-6.34 18.307-11.081 2.753-2.371 4.934-5.025 5.402-8.788.389-3.015.467-6.004-.13-8.993zm-20.411 16.569c-.051.181-.077.361-.155.542-.156.541-.416 1.056-.701 1.52-.156.232-.312.464-.494.67a6.645 6.645 0 0 1-3.765 2.345c-.779.155-1.532.232-1.766-.747-.234-.928.338-1.289 1.143-1.495 2.856-.799 4.103-2.963 3.298-5.824-.234-.876-.078-1.469.753-1.752.882-.309 1.246.309 1.48 1.031.156.463.259.953.311 1.443 0 .051 0 .103.026.154v.078c.026.206.026.386.026.592 0 .284-.026.593-.052.877-.026.18-.052.386-.104.566z" fill="#281E34"/><path d="M172.396 111.07l.882 6.932c.676 5.154 1.351 10.283 2.078 15.436.052.439 0 .825-.156 1.237-1.87 4.742-8.777 8.736-13.815 7.963-3.116-.489-5.089-2.293-5.894-5.257-.805-3.015-1.402-6.107-2.104-9.148-.259-1.134-.467-2.268-.779-3.376-.207-.799 0-1.185.805-1.546 5.376-2.474 10.543-5.334 15.191-9.019 1.221-.98 2.363-2.011 3.792-3.222zM189.513 75.327c-.753-4.767-4.648-8.504-8.959-8.53-2.311-.051-4.414.748-6.414 1.778-1.921 1.005-1.921 1.005-1.506 3.144 1.246 6.365 2.441 12.705 3.713 19.044.104.516-.181 1.752 1.169 1.082 3.428-1.726 6.518-3.865 8.933-6.88 2.233-2.835 3.635-5.927 3.064-9.638zm-5.843-.85c-3.298 1.391-4.83 4.2-5.894 7.37-.104.335-.156.67-.208 1.005-.104.721-.52 1.082-1.247.98-.675-.078-.908-.568-.908-1.212.493-2.912 1.791-5.412 3.765-7.602 1.012-1.134 2.233-2.01 3.661-2.551.727-.284 1.584-.541 1.948.49.337.927-.364 1.21-1.117 1.52z" fill="#FDFDFD"/><path d="M158.895 170.958c-.727-5.283-1.428-10.463-2.156-15.642-.103-.67.026-1.237.416-1.804 1.532-2.371 3.012-4.793 4.648-7.37 1.584 3.015 3.064 5.875 4.57 8.71.208.412 0 .747-.156 1.082l-6.933 14.766c-.052.078-.156.103-.389.258z" fill="#281E34"/><path d="M135.989 92.697c-.078 3.453.701 6.365 3.012 8.865-2.908.799-5.271 2.242-7.297 4.69a605.497 605.497 0 0 1-1.116-7.55c-.182-1.186-.286-2.371-.442-3.582-.052-.49-.078-.85.623-.748 1.87.232 3.558-.335 5.22-1.675zM167.698 152.767c-1.454-2.783-2.779-5.283-4.155-7.911 3.583-.387 6.7-1.701 9.634-3.789-1.766 3.814-3.558 7.602-5.479 11.7zM156.117 150.601c-.416-3.041-.831-6.081-1.299-9.406.701.645 1.169 1.134 1.688 1.572.753.645 1.584 1.211 2.571 1.443 1.169.258.987.722.467 1.495-1.09 1.624-2.103 3.299-3.168 4.974-.078-.026-.155-.052-.259-.078zM112.23 180.854c-2.13 1.855-3.999 3.762-5.713 5.952-.208-2.551 2.596-5.489 5.713-5.952z" fill="#FDFDFD"/><path d="M114.903 190.002l-.102.051.025-.102.077.051z" fill="#F66667"/><path d="M11.944 170.341c-.234.928.234 1.521.857 2.113 2.337 2.216 4.726 4.407 6.647 7.01.624.824 1.662 1.803.701 2.834-.856.902-1.973.129-2.83-.36-4.778-2.629-8.491-6.185-9.192-11.932-.234-1.778 0-3.505 1.142-4.999.494 1.34.961 2.706 1.428 4.046.234.618.494 1.185 1.247 1.288z" fill="#FDFDFD"/><path d="M147.286 78.574c.338 0 .701-.026 1.013 0 .649.077.987.49 1.013 1.134.026.67-.39 1.056-.987 1.134-.623.077-1.273.026-1.922 0-.753-.026-1.272-.412-1.272-1.16 0-.85.597-1.16 1.402-1.134h.779c-.026 0-.026 0-.026.026zM148.17 87.413c0-1.005.545-1.52 1.402-1.546.831-.026 1.376.515 1.428 1.34.052.902-.467 1.495-1.35 1.546-.883.052-1.402-.49-1.48-1.34zM131.135 87.774c.935.078 1.454.619 1.428 1.495-.025.825-.571 1.34-1.428 1.366-.883 0-1.402-.49-1.428-1.34 0-.928.493-1.443 1.428-1.52z" fill="#281E34"/><path d="M7.504 175.469c1.791 2.963 3.869 5.179 6.388 6.958a15.897 15.897 0 0 0 4.596 2.267c1.454.464 2.31 1.65 2.778 2.99.312.876-.363 1.443-1.48 1.262-1.792-.257-3.376-1.056-4.856-2.01-3.194-2.036-5.868-4.509-7.01-8.272-.287-.902-.52-1.855-.416-3.195zM9.87 186.267c1.92 1.211 3.479 2.242 5.089 3.195 1.532.902 3.194 1.52 4.986 1.675 1.116.103 1.402.928 1.584 1.727.13.567-.26 1.005-.91.979a6.698 6.698 0 0 1-1.765-.309c-3.532-1.289-6.414-3.428-8.647-6.469-.078-.154-.104-.309-.338-.798zM11.527 191.832c2.286 1.649 4.623 3.195 7.401 3.891.727.181 1.584.052 2.103.799.182.284.494.541.312.902s-.571.361-.909.309c-3.869-.644-6.933-2.499-8.907-5.901z" fill="#FDFDFD"/><path fill-rule="evenodd" clip-rule="evenodd" d="M16 106.793c0-3.273 2.675-5.747 6.18-5.747 2.909 0 5.765 2.809 5.583 5.798-.208 3.299-2.103 5.747-5.972 5.798-3.194.052-5.791-2.628-5.791-5.849zm9.497-.451c.022.149.033.299.033.451-.026 1.985-1.766 3.737-3.713 3.711-1.929-.025-3.56-1.723-3.56-3.676 0-.055 0-.109.002-.164.078-1.83 1.844-3.453 3.688-3.402 1.762.047 3.306 1.438 3.55 3.08z" fill="#FCE057"/><path d="M154.374 108.26c-.026 3.119-2.207 5.85-5.245 6.52-.779.181-1.506.232-1.766-.747-.233-.928.338-1.289 1.143-1.521 2.856-.798 4.103-2.963 3.298-5.824-.234-.876-.078-1.468.753-1.752.883-.309 1.246.309 1.454 1.031.234.773.389 1.52.363 2.293z" fill="#fff"/><path d="M175.435 82.62c.494-2.912 1.792-5.412 3.766-7.602 1.012-1.134 2.233-2.01 3.661-2.551.727-.284 1.584-.541 1.948.49.311.927-.39 1.21-1.143 1.52-3.298 1.391-4.83 4.2-5.895 7.37-.103.335-.155.67-.207 1.005-.104.722-.52 1.082-1.247.98-.649-.104-.909-.568-.883-1.212z" fill="#281E34"/></svg>