<svg width="248" height="233" viewBox="0 0 248 233" fill="none" xmlns="http://www.w3.org/2000/svg"><g clip-path="url(#a)"><path fill-rule="evenodd" clip-rule="evenodd" d="M5.386 76.86c2.805 0 5.273-2.31 5.236-4.92-.037-3.428-2.17-5.59-5.46-5.59-2.843 0-5.124 2.31-5.161 5.143-.038 2.684 2.02 5.666 5.385 5.368zm-3.515-5.255c0 1.9 1.459 3.391 3.366 3.391 1.983 0 3.441-1.379 3.441-3.28 0-1.938-1.421-3.466-3.254-3.503-1.982 0-3.553 1.49-3.553 3.392z" fill="#FA9CE1"/><path d="M33.771 171.648c-3.066 5.927-6.133 11.816-9.2 17.743-1.459 2.795-2.88 5.591-4.338 8.349-.337.634-.823 1.193-1.571.82-.823-.41-.45-1.118-.15-1.714 1.907-3.728 3.852-7.418 5.76-11.145 2.281-4.436 4.563-8.872 6.881-13.307l1.235-2.237c.261-.447.71-.596 1.196-.41.45.15.561.522.524.932.037.373-.15.671-.337.969zM41.29 184.619c-.038.783-.599.969-1.347.969-1.084-.037-2.169 0-3.253 0H33.21c-.71 0-1.309-.223-1.309-1.006 0-.82.673-.894 1.347-.894h6.77c.635-.001 1.308.111 1.27.931zM51.724 114.693c.411.522.56 1.044-.038 1.491-.598.485-1.084.112-1.458-.372l-2.244-2.796c-.225-.298-.412-.671-.187-1.081.187-.335.448-.522.785-.559.411 0 .673.224.898.485.785.969 1.496 1.901 2.244 2.832zM56.889 108.393c.336.485.635.932.037 1.417-.599.447-1.122.261-1.534-.261-1.645-2.199-3.253-4.436-4.899-6.635-.224-.298-.3-.634-.15-.969.188-.373.524-.447.935-.447.524-.038.823.335 1.085.708 1.496 2.05 2.992 4.1 4.526 6.187zM18.627 84.164c-.3.298-.598.634-.935.858-.673.484-1.421.149-1.534-.709-.037-.298-.037-.633-.037-.931v-64.56c0-1.677.112-1.826 1.795-1.788h30.706l3.03-4.25c.672-.857 1.458-1.602 2.43-2.161 2.095-1.156 4.077-.038 4.189 2.348.075 1.379-.262 2.684-.449 4.025h17.504c1.608 0 1.757.15 1.757 1.715v46.07c0 1.529-.15 1.678-1.645 1.678h-37.85c-.822 0-1.458.186-2.056.82a7180.562 7180.562 0 0 1-16.905 16.885zM178.996 63.367c0-.634-.074-1.267.524-1.677.411-.41.898-.224 1.346-.224 6.583 0 13.128-.037 19.71.037.973 0 1.496-.373 1.982-1.08 2.132-3.17 4.264-6.337 6.433-9.506.112-.186.299-.335.711-.745-.262 1.938-.449 3.504-.673 5.07-.225 1.64-.524 3.28-.786 4.92-.149.931.038 1.379 1.197 1.379 7.218-.075 14.474-.038 21.692 0 .449 0 .935-.187 1.309.186.486.298.561.745.561 1.304v41.785c0 .521-.037 1.043-.598 1.267-.599.224-.935-.149-1.309-.522-3.703-3.69-7.405-7.343-11.071-11.033-.636-.634-1.234-.895-2.132-.895-12.342.038-24.684.038-37.026.038-1.757 0-1.907-.112-1.907-1.827.037-9.542.037-19.01.037-28.477z" fill="#FCFCFC"/><path d="M62.474 147.756l4.733 86.191 88.977 7.577 3.786-72.931 6.626-20.837h3.786l3.787-1.894-.947-7.578-1.893-10.418-3.786-8.525-3.787-4.735-7.572-4.736-10.412-1.895-33.13-.947h-5.68l-14.198 1.895-11.359 2.841-9.465 4.736-7.573 10.419-2.84 13.26.947 7.577z" fill="#fff"/><path d="M157.13 222.581l-.946 12.313" stroke="#000" stroke-width="1.911"/><path d="M232.184 128.038c3.89-1.081 6.994-3.094 8.752-6.896.299-.634.71-.969 1.384-.634.673.336.598.932.336 1.491-1.87 3.989-5.049 6.449-9.238 7.604-3.366.932-6.507 2.348-9.237 4.51-2.955 2.349-5.274 5.181-5.723 9.095-.074.708-.037 1.454 0 2.199.038.634-.112 1.119-.785 1.23-.748.112-1.047-.372-1.085-1.043a24.94 24.94 0 0 1-.074-1.193c0-3.914 1.57-6.896 4.001-9.468 3.217-3.392 7.144-5.665 11.669-6.895z" fill="#FCFCFC"/><path d="M221.824 147.98c-2.955 9.057-5.947 18.115-8.902 27.21-4.413 13.53-8.901 27.023-13.277 40.591-.448 1.379-.71 2.87-1.496 4.1-.486.448-1.047.82-1.458 1.342-1.646 2.199-3.927 1.677-6.134 1.417-.486-.41-.149-.858-.037-1.268 3.254-9.766 6.395-19.531 9.612-29.297 4.413-13.456 8.863-26.912 13.239-40.368.187-.559.673-1.379-.037-1.64-.898-.336-.935.671-1.16 1.267-3.179 9.617-6.32 19.234-9.499 28.85-2.843 8.611-5.648 17.258-8.527 25.869-1.721 5.181-3.404 10.399-5.124 15.58-.15.41-.112.969-.711 1.118-.411.038-.86.112-1.271.112h-47.05c-1.608 0-1.683-.112-1.159-1.677.673-2.05 1.346-4.1 2.019-6.188.075-.223.3-.484.075-.745-.112-.597.412-.671.748-.857a239.497 239.497 0 0 1 10.846-6.188c7.63-4.137 15.746-7.268 23.525-11.07 2.73-1.342 5.386-2.796 7.817-4.622.673-.485 1.234-1.081 1.533-1.864.598-1.491-.374-3.094-1.982-3.206a10.503 10.503 0 0 0-1.87.038c-.412.074-.973.261-1.16-.224-.149-.447.412-.671.748-.895 1.16-.82 2.095-1.826 3.142-2.795 1.758-1.677 1.945-4.734-.075-6.001-.523-.336-.598-.858-.486-1.454.224-1.155 0-2.236-.711-3.205-.299-.41-.486-.895-.374-1.417.524-2.646-1.271-3.578-3.515-3.355-3.104.299-5.984 1.305-8.901 2.349-5.087 1.826-10.024 4.1-14.923 6.336-.412.187-.86.559-1.347.261 0 0-.037 0-.037-.037-.187-.336-.15-.671-.037-1.006 1.159-3.243 2.057-6.598 3.328-9.804v-.037c0-.037.038-.037.075-.074.449-.522.636-1.119.673-1.79.935-1.938 1.646-3.951 1.945-6.075.561-1.305.636-2.758 1.421-3.989.823-1.23 1.01-2.683 1.496-4.025.299-.82.748-1.118 1.534-1.118 1.01.037 2.019.111 3.029.111 14.698 0 29.434.038 44.132 0 2.431 0 4.9-.223 7.331-.037.673.037 1.271-.298 1.795-.745.374-.336.673-.783 1.234-.82.299.447.075.894-.037 1.342z" fill="#FDE057"/><path d="M215.2 145.855c-.337.447-.785.485-1.234.224-6.321-3.541-13.128-3.653-20.084-2.982-8.714.82-16.997 4.592-25.749 5.337-.71.075-1.458.075-1.496-.82-.074-.894.674-1.006 1.347-1.043 1.496-.112 2.954-.224 4.413-.336.449-.037.823-.037.785-.708-.411-6.523-1.628-16.035-4.396-22.074-3.702-8.014-10.06-12.486-18.662-14.015-4.937-.894-9.911-.857-14.885-.932-.599 0-.786.261-.898.783-.299 1.454-.524 2.908-.972 4.324-1.384 4.473-4.638 6.486-9.238 5.479-5.872-1.304-10.136-4.734-12.679-10.213-.224-.522-.374-.894-1.122-.857-9.649.447-19.186 1.342-28.312 4.696-5.385 1.976-10.173 4.846-13.688 9.505-2.955 3.914-4.189 8.461-5.087 13.195-.748 3.951.187 7.679.86 11.481 3.217 17.705 6.359 35.41 9.949 53.041 1.234 5.963 2.356 11.927 4.114 17.779 2.88 9.766 10.098 14.388 20.308 13.195 5.012-.596 9.649-2.311 14.287-4.174 10.323-4.175 20.009-9.468 29.322-15.506 2.543-1.64 5.198-3.094 7.854-4.622 0-.038 0-.149-.038-.187-7.031-4.733-10.995-11.555-13.426-19.457-.524-1.714-.898-3.466-1.01-5.255-.037-.783-.224-.932-.972-.522-6.62 3.914-13.39 7.604-20.122 11.294-2.58 1.416-5.198 2.833-7.779 4.249-2.207 1.193-4.451 2.386-6.657 3.616-.636.335-1.272.596-1.683-.187-.412-.745.15-1.155.71-1.453 1.01-.56 2.02-1.193 3.105-1.64.86-.373 1.009-.821.822-1.715-1.383-6.448-2.692-12.897-4.039-19.345-1.945-9.393-3.852-18.749-5.797-28.142-.15-.671-.224-1.417.673-1.566.898-.149 1.048.559 1.197 1.23 1.758 8.611 3.553 17.258 5.311 25.869 1.459 7.082 2.917 14.126 4.376 21.171.149.708.262.932 1.01.522 11.145-6.113 22.365-12.077 33.211-18.749 4.563-2.795 8.415-6.523 12.267-10.176 1.459-1.379 3.03-2.534 5.087-2.907.561-.112 1.159-.186 1.72 0 .524.783.411 1.379-.486 1.789-.075.037-.187.075-.262.112-1.421.559-2.88 1.044-4.039 2.125-1.87 1.714-3.665 3.466-5.573 5.106-2.73 2.386-5.535 4.622-8.677 6.486-1.009.596-1.496 1.193-1.309 2.497 1.272 8.387 4.862 15.581 11.108 21.358 2.656 2.46 3.142 2.46 6.321.895 5.61-2.796 11.369-5.256 17.054-7.865 3.441-1.566 6.807-3.28 9.911-5.442.299-.224.636-.447.898-.708.299-.336.823-.634.561-1.156-.262-.484-.86-.335-1.272-.298-1.384.186-2.73.559-4.076 1.006-3.03.97-5.984 2.162-8.939 3.392a4.44 4.44 0 0 1-.636.261c-.673.224-1.271.075-1.608-.559-.299-.633-.037-1.118.486-1.528.449-.336.935-.559 1.421-.783 3.89-1.901 7.742-3.802 11.258-6.374 1.197-.857 2.394-1.752 3.216-2.982.3-.484.524-.969.412-1.528-.187-.932-1.01-1.267-1.721-.633-4.338 3.727-9.537 5.963-14.586 8.498a3.424 3.424 0 0 1-.86.335c-.673.15-1.159-.074-1.459-.67-.299-.597 0-1.044.449-1.454.299-.261.673-.373 1.01-.559 4.002-1.939 7.966-3.877 11.631-6.374 1.048-.746 2.132-1.454 2.955-2.46.486-.559.86-1.23.673-2.013-.149-.559-.449-.82-1.01-.447-5.049 3.168-10.733 5.144-16.007 7.865-1.309.67-2.169.521-2.543-.299-.337-.782.15-1.304 1.496-1.975 4.974-2.423 10.098-4.436 14.923-7.157.486-.261.935-.559 1.309-.932.411-.372.86-.782.561-1.416-.262-.596-.898-.522-1.422-.447-1.795.261-3.59.708-5.348 1.267-6.769 2.162-13.165 5.181-19.597 8.2-.412.187-.823.448-1.272.559-.598.149-1.197.112-1.496-.521-.337-.634-.037-1.156.486-1.529.599-.447 1.197-.857 1.982-.932h.113c3.216-1.416 6.432-2.907 9.686-4.286 4.413-1.864 8.827-3.653 13.539-4.622 1.047-.224 2.169-.373 3.254-.261 1.907.186 2.955 1.528 2.506 3.392-.187.708-.038 1.118.411 1.64.823.932 1.047 2.087.711 3.28-.15.522-.113.82.336 1.156 2.02 1.64 2.207 3.802.561 5.926-1.009 1.268-2.206 2.274-3.515 3.243-.3.224-.674.335-.898.746.86-.075 1.721-.15 2.543-.187 1.085-.037 1.983.261 2.506 1.342.561 1.156.374 2.199-.411 3.131-.935 1.156-2.207 1.938-3.479 2.721-5.236 3.28-10.995 5.591-16.643 8.126-8.34 3.764-16.456 7.865-24.16 12.822-4.376 2.647-8.677 5.442-13.277 7.753-7.405 3.69-14.848 7.306-22.852 9.654-4.974 1.454-10.06 2.013-15.184.671-6.62-1.752-10.584-6.262-12.79-12.45-1.721-4.845-2.619-9.877-3.666-14.872-2.693-12.599-5.012-25.234-7.368-37.908-.71-3.802-1.384-7.641-2.094-11.443a3.414 3.414 0 0 1-.262-.969c0 .746-.075 1.566.037 2.386.561 8.088 1.16 16.177 1.683 24.265.901 14.247 2.235 39.97 3.03 54.219.037.671-.113 1.305-.936 1.342-.822 0-.935-.634-.972-1.304-.187-4.995-1.159-21.456-1.42-26.488-.562-9.952-1.123-19.904-1.759-29.856-.71-11.294-1.944-22.588-2.244-33.882-.15-5.107.15-10.139 1.496-15.096 2.207-8.126 7.368-13.754 14.81-17.445 5.985-2.944 12.418-4.398 19-5.367 4.787-.708 9.574-1.081 14.399-1.193.711 0 1.01-.261 1.122-.969.973-5.554 1.982-11.07 2.618-16.661.038-.373.112-.746-.149-1.119-2.357-3.653-2.88-7.753-2.843-11.927 0-1.342-.374-2.013-1.608-2.572-3.778-1.715-6.994-4.175-9.275-7.716-4.002-6.262-1.16-14.91 5.684-17.072 3.105-.969 5.985-.186 8.79 1.193.673.336 1.309.671 1.907 1.119.673.521.972.298 1.459-.261 5.909-6.859 13.202-11.48 22.103-13.456 2.431-.56 4.974-.783 7.33.372 3.105 1.491 3.329 3.355.786 5.703-.15.112-.262.298-.636.634 1.197-.447 2.132-.783 3.067-1.118a35.59 35.59 0 0 1 8.34-2.125 11.612 11.612 0 0 1 3.59.112c3.666.745 5.536 4.063 4.301 7.604-.748 2.124-2.281 3.578-3.964 4.92-.374.298-.561.447-.187.97 2.356 3.428.598 7.603-3.516 8.572-.037 0-.074 0-.112.037-.785.299-1.982-.149-2.393.522-.374.597 0 1.64 0 2.498-.113 4.249-.898 8.386-1.384 12.598-.599 4.995-1.272 9.99-2.805 14.835-1.459 4.622-4.152 8.052-9.088 9.244-2.357.597-4.713.298-7.069-.186-.748-.149-.972.037-1.085.708a43.042 43.042 0 0 1-.673 3.168c-.187.746.075.858.711.858 3.067 0 6.171-.038 9.238.223 4.45.373 8.789 1.119 12.903 2.982 6.956 3.169 11.22 8.648 13.763 15.655 1.87 5.219 2.618 10.698 2.88 16.215.037.969.73 3.272 1.74 3.197 6.77-.671 13.145-3.421 19.914-3.943 5.76-.41 11.445.037 16.793 2.46.673.298 1.309.671 1.907 1.081.786.336.898.857.524 1.342z" fill="#1A0701"/><path d="M248.001 123.565c-1.496 4.66-3.029 9.282-4.525 13.941-1.085.596-.598 1.453-.411 2.236-.038.037-.038.075-.075.112-.038.075-.112.186-.15.261-.486 1.006-.71 2.125-1.159 3.168-.299.634-.524 1.305-1.234 1.603-.038 0-.038-.037-.075-.037 0 0-.038 0-.038-.038-.935-.521-1.645-.149-2.393.634-2.02 2.125-4.226 4.1-5.947 6.523-.972 1.379-1.533 2.796-.336 4.361.261.373.149.746-.075 1.081-.337.522-.711 1.007-1.01 1.566-.411.745-.524 1.565-.112 2.348.374.708.411 1.379-.038 2.05-.561.857-.561 1.752-.037 2.646.262.448.374.895.187 1.417-.598 1.789-.411 2.236 1.197 3.205.187.112.336.224.336.448-.261 1.789-1.009 3.392-1.57 5.106-1.347 4.1-2.731 8.201-4.114 12.301-.898 2.721-1.833 5.404-2.731 8.125-.224.671-.673 1.119-1.159 1.566a7665.34 7665.34 0 0 1-18.887 16.736c-.86.783-1.571 1.715-2.693 2.162-.374-.522-.075-1.044.075-1.566 4.6-14.052 9.2-28.104 13.801-42.119 2.73-8.312 5.497-16.587 8.115-24.899.487-1.603.524-1.603-.785-2.349 2.468-2.646 5.348-4.845 8.004-7.268 2.094-1.938 4.301-3.839 6.432-5.74 3.553-3.131 7.069-6.3 10.622-9.431l.449-.335a.758.758 0 0 0 .336.186z" fill="#FDE057"/><path d="M66.387 51.401c1.234 2.908-.972 6.001-4.376 6.598-1.271.223-2.543.298-3.852.298-8.303-.037-16.568 0-24.871 0h-1.272c-1.196-.075-1.645-.522-1.72-1.752-.037-.335 0-.708 0-1.044V30.38v-.82c.075-1.491.486-1.939 1.982-1.939 2.805 0 5.573-.41 8.34-.857 1.795-.298 3.067-1.193 3.89-2.796.86-1.64 1.87-3.168 2.618-4.845 0-.037.037-.037.037-.075l.075-.074c.524-.597.748-1.38 1.347-1.901l3.029-4.25c.673-.857 1.459-1.602 2.431-2.161 2.094-1.156 4.077-.038 4.189 2.348.075 1.38-.262 2.684-.449 4.026.187.67-.15 1.267-.224 1.938v.186c-1.122 2.013-1.796 4.212-2.843 6.262-.336.671.038.783.599.895 1.458.223 2.954.186 4.413.41 1.795.26 3.515.708 5.049 1.677 2.992 1.864 3.59 5.33 1.384 8.089-.337.41-.45.708-.038 1.192 1.795 2.2 1.833 3.504.187 5.815-.262.373-.187.596.038.932 1.72 2.348 1.757 3.355.187 5.89-.262.297-.337.67-.15 1.08z" fill="#04D9A0"/><path d="M77.083 64.82c0 1.528-.15 1.677-1.645 1.677h-37.85c-.822 0-1.458.187-2.056.82-5.61 5.629-11.258 11.257-16.905 16.886-.3.298-.598.633-.935.857-.673.484-1.421.149-1.534-.708-.037-.299-.037-.634-.037-.932V18.824c0-1.678.112-1.827 1.795-1.79h30.706c-.15.746-.486 1.417-1.122 1.902a1.12 1.12 0 0 1-.374.149c-.524.186-1.047.112-1.571.112H19.973c-1.496 0-1.608.074-1.608 1.416v60.31c.486-.075.71-.485 1.01-.783 4.862-4.809 9.724-9.617 14.511-14.5 1.085-1.08 2.244-1.603 3.815-1.603 11.482.037 22.964.037 34.445.037h1.048c1.608 0 1.645-.074 1.645-1.64v-41.56c0-1.64-.075-1.715-1.72-1.715H59.094c-.524 0-1.085.075-1.608-.186-.075-.037-.15-.075-.187-.112-.225-.745.261-1.305.448-1.938h17.504c1.608 0 1.757.149 1.757 1.715.075 15.43.075 30.788.075 46.182z" fill="#1B0802"/><path d="M232.404 61.653c-.374-.15-.785-.075-1.159-.075h-22.066c-1.571 0-1.87.373-1.534 1.976.038.037.075.037.112.074a.288.288 0 0 0 .15.075c.524.298 1.085.186 1.646.186h19.597c1.459 0 1.534.112 1.571 1.491v34.926c0 .559-.112 1.155.187 1.714 0 .038.037.038.037.075-.074-.037-.149-.075-.187-.149-2.954-3.02-6.021-5.964-8.976-9.02-1.122-1.156-2.281-1.64-3.889-1.64-11.632.037-23.263.037-34.894.037-1.683 0-1.721-.075-1.758-1.677v-24.08c0-1.602.037-1.677 1.608-1.677h15.521c.486 0 .972.037 1.459-.074a.691.691 0 0 0 .261-.075c.075-.037.15-.037.262-.075.15-.074.262-.149.374-.26.412-.448 1.01-.932.748-1.566a.813.813 0 0 0-.112-.186c-.299-.336-.935-.075-1.346-.075-6.396-.037-12.791 0-19.187 0-.411 0-.86-.074-1.271.075-.599.41-.524 1.08-.524 1.677v28.403c0 1.677.15 1.826 1.908 1.826 12.342 0 24.684 0 37.026-.037.897 0 1.496.26 2.131.894 3.666 3.69 7.368 7.381 11.071 11.034.374.372.71.745 1.309.521.561-.223.598-.745.598-1.267V62.92c-.074-.485-.149-.97-.673-1.267zm-1.384 40.442c.075-.149.113.149 0 0z" fill="#1B0902"/><path d="M217.371 67.206c.149.373-.112.671-.374.932-2.095 2.31-4.152 4.622-6.209 6.933-3.291 3.615-6.507 7.268-9.836 10.884-1.384 1.528-2.768 3.056-4.114 4.585-.262.298-.561.708-.972.447-.412-.261-.15-.708-.038-1.081 1.197-3.317 2.469-6.635 3.703-9.915a424.928 424.928 0 0 0 2.73-7.306c.374-1.043.299-1.118-.823-1.118h-5.236c-.411 0-.935.037-1.122-.41-.187-.41.15-.708.374-1.043 1.272-1.864 2.581-3.69 3.815-5.592.15-.26.337-.484.561-.67.112-.112.262-.224.411-.299.374-.522.748-1.043 1.197-1.677.038-.075.075-.112.112-.186h-22.066c.412-.41.898-.224 1.347-.224 6.582 0 13.127-.037 19.71.037.972 0 1.496-.373 1.982-1.08 2.132-3.17 4.263-6.337 6.433-9.506.112-.186.299-.335.71-.745-.262 1.938-.449 3.504-.673 5.07-.224 1.64-.524 3.28-.785 4.92-.15.931.037 1.379 1.196 1.379 7.219-.075 14.474-.038 21.693 0 .448 0 .935-.187 1.309.186h-22.515c-1.87 0-1.87 0-2.132 1.826.037.075.112.15.112.261.224.597-.037 1.23-.112 1.79-.15.968.224 1.23 1.122 1.23 2.206-.038 4.45 0 6.657 0 .299 0 .636 0 .935.037.337-.075.748-.075.898.335z" fill="#FD99E1"/><path d="M245.719 152.711c-.262.746-.449 1.454-.449 2.237 0 .373-.037.783-.149 1.155-.786 2.759-1.459 5.629-2.581 8.238-1.907 4.361-5.834 6.262-10.472 6.821-2.169-.746-2.618-1.752-1.72-3.877.149-.335.112-.559-.075-.857-.823-1.155-.711-2.311.037-3.466.187-.298.449-.559.187-.932-1.197-1.715-.449-3.168.711-4.51.449-.522.486-.746.075-1.305-.973-1.267-.636-2.572.112-3.802 1.159-1.938 2.805-3.504 4.376-5.106.897-.932 1.832-1.79 2.73-2.684.71-.708 1.309-.746 1.87.186 0 .038.037.038.037.075.449.671-.149 1.081-.523 1.491-1.422 1.491-2.918 2.907-4.339 4.361-.823.82-1.571 1.714-2.169 2.721-.299.447-.636.969-.15 1.491.412.447.973.223 1.422 0 4.824-2.386 8.415-5.815 8.938-11.518.075-.857-.187-1.677-.449-2.497-.074-.261-.224-.485-.261-.746-.038-.149 0-.298.037-.447-.972-1.416-.86-1.864.561-2.162 1.945 1.64 2.356 3.877 2.281 6.188-.037 1.192-.074 2.311.3 3.503.523 1.752.299 3.653-.337 5.442z" fill="#1A0802"/><path d="M213.892 151.072c-1.197 3.652-2.356 7.305-3.553 10.921-2.581 7.902-5.199 15.841-7.779 23.743-2.095 6.374-4.189 12.711-6.284 19.085-1.87 5.74-3.777 11.48-5.647 17.22-.075.187-.075.373-.075.559-.299.485-.486 1.081-1.234 1.081-.636 0-.748-.559-.972-1.006 2.879-8.722 5.722-17.444 8.602-26.129 3.403-10.288 6.769-20.575 10.172-30.9a1762.517 1762.517 0 0 0 4.9-15.134c.224-.67.523-1.304 1.384-1.08.935.298.673 1.006.486 1.64z" fill="#04D99C"/><path d="M223.541 147.904c-1.608 4.921-3.291 9.841-4.899 14.761-1.945 5.926-3.852 11.853-5.797 17.78-2.244 6.821-4.488 13.679-6.732 20.5-1.683 5.144-3.366 10.288-5.012 15.469a4.366 4.366 0 0 0-.149.671c-.262.708-.561 1.416-.823 2.162-.449 1.23-.935 1.416-2.02.634.412-2.647 1.496-5.107 2.319-7.642a1726.016 1726.016 0 0 1 5.947-18.227c1.795-5.442 3.628-10.846 5.423-16.326 1.795-5.404 3.515-10.809 5.273-16.214 1.496-4.547 2.992-9.132 4.488-13.679.112-.373.187-.746.262-1.119.112-.149.262-.298.374-.447 1.496-.149 1.833.261 1.346 1.677z" fill="#04D99D"/><path d="M242.613 122.037c-1.87 3.988-5.049 6.448-9.237 7.603-3.366.932-6.508 2.349-9.238 4.511-2.955 2.348-5.274 5.181-5.722 9.094-.075.709-.038 1.454 0 2.2.037.633-.113 1.118-.786 1.23-.748.112-1.047-.373-1.084-1.044a23.898 23.898 0 0 1-.075-1.193c0-3.914 1.571-6.895 4.002-9.467 3.216-3.43 7.143-5.703 11.668-6.933 3.89-1.081 6.994-3.094 8.752-6.896.299-.634.711-.969 1.384-.634.673.336.636.932.336 1.529z" fill="#190803"/><path d="M34.145 170.715c0 .373-.187.671-.374.97-3.066 5.926-6.133 11.815-9.2 17.742-1.459 2.796-2.88 5.591-4.338 8.349-.337.634-.823 1.193-1.571.82-.823-.41-.45-1.118-.15-1.714 1.907-3.728 3.852-7.418 5.76-11.145 2.281-4.436 4.563-8.871 6.881-13.307l1.235-2.236c.261-.448.71-.597 1.196-.41.487.111.599.484.561.931z" fill="#FBE05C"/><path d="M161.307 153.272c-.262 1.416-.449 2.833-1.421 3.988a4307.602 4307.602 0 0 1-3.217-21.805c-.112-.746-.598-1.789.599-2.05 1.196-.261 1.159.857 1.271 1.64.935 6.038 1.833 12.151 2.768 18.227z" fill="#1A0802"/><path d="M56.926 109.774c-.599.447-1.122.261-1.534-.261-1.645-2.199-3.253-4.436-4.899-6.635-.224-.298-.3-.634-.15-.969.188-.373.524-.447.935-.447.524-.038.823.335 1.085.708 1.496 2.05 2.992 4.137 4.526 6.187.336.485.635.969.037 1.417z" fill="#F36869"/><path d="M41.29 184.619c-.038.783-.599.969-1.347.969-1.084-.037-2.169 0-3.253 0H33.21c-.71 0-1.309-.223-1.309-1.006 0-.82.673-.894 1.347-.894h6.77c.635-.001 1.308.111 1.27.931z" fill="#FBE264"/><path d="M51.686 116.184c-.598.485-1.084.112-1.458-.372l-2.244-2.796c-.225-.298-.412-.671-.187-1.081.187-.335.448-.522.785-.559.411 0 .673.224.898.485l2.244 2.795c.411.559.56 1.081-.038 1.528z" fill="#F16A6A"/><path d="M154.053 176.009c-.523.298-1.084.634-1.608.895-.636.298-1.122.708-.748 1.453.374.746.973.597 1.608.298 3.366-1.677 6.77-3.28 10.248-4.733 4.563-1.939 9.088-3.84 13.95-4.92.786-.187 1.609-.336 2.431-.299.449.038 1.01 0 1.197.522.187.522 0 .969-.336 1.379-.524.597-1.16 1.044-1.833 1.417-3.628 2.124-7.555 3.69-11.332 5.479-1.421.671-2.88 1.379-4.339 2.05-.636.298-1.084.708-.71 1.454.336.671.935.596 1.533.298 5.61-2.833 11.594-4.92 16.905-8.349.449-.261.636-.224.935.149.673.857.598 1.714-.374 2.832-1.197 1.38-2.655 2.386-4.151 3.355-3.516 2.237-7.256 4.026-10.996 5.852-.224.112-.412.187-.636.298-.486.299-.598.709-.374 1.193.224.485.636.634 1.16.485l.336-.112c4.75-2.311 9.537-4.548 13.838-7.716.412-.298.748-.671 1.16-.969.411-.261.635-1.044 1.309-.522.635.485 1.159 1.044.972 1.938-.224 1.007-.898 1.715-1.608 2.386-2.132 2.05-4.638 3.541-7.181 4.957-2.356 1.342-4.787 2.535-7.256 3.691-.673.298-1.383.671-.935 1.528.449.894 1.16.447 1.796.186 4.039-1.714 8.078-3.429 12.379-4.398.486-.112 1.01-.187 1.496-.224.449-.037.86-.037 1.085.485.187.484.037.857-.3 1.155-.486.448-.972.895-1.533 1.268-4.189 2.87-8.789 4.92-13.427 6.97-5.273 2.311-10.509 4.659-15.596 7.343-.748.41-1.271.298-1.907-.112-3.59-2.199-6.283-5.293-8.49-8.834-2.954-4.696-4.862-9.766-5.423-15.32-.075-.633-.112-1.155.599-1.565 4.936-2.796 9.163-6.486 13.277-10.4 1.608-1.528 3.104-3.205 5.423-3.652.299-.075.598-.038.935-.075-1.085 3.243-2.132 6.523-3.217 9.766-.149.373-.374.708-.262 1.118zM155.325 65.566c-.374 4.734-1.009 9.542-1.683 14.35-.561 4.175-1.159 8.387-2.431 12.413-1.271 3.95-3.553 6.896-7.741 7.902-2.431.596-4.862.112-7.293-.447-1.459-.336-1.646-.187-1.983 1.304-.822 3.802-1.608 7.567-2.468 11.369-.935 4.025-3.441 5.554-7.517 4.696-.113-.037-.225-.037-.337-.074-4.376-1.305-7.742-3.877-10.061-7.791-.486-.82-.561-1.602-.374-2.534 1.234-6.188 2.282-12.412 2.992-18.712.038-.447.112-.857-.187-1.23-2.319-2.982-2.655-6.56-2.917-10.101-.075-.932-.112-1.864 0-2.796.112-1.118-.262-1.64-1.309-2.087-3.927-1.64-7.368-3.988-9.799-7.604-3.179-4.734-1.346-11.667 3.665-13.978 2.544-1.155 5.012-.67 7.443.336 1.907.783 3.516 1.975 5.012 3.355.673.633.935 1.304.748 2.273a19.074 19.074 0 0 0-.337 4.622c.037.634.15 1.23.374 1.827.299.708.935 1.006 1.646 1.118.748.112 1.159-.336 1.496-.895 1.01-1.64 1.458-3.503 1.982-5.33a48.813 48.813 0 0 0 1.122-4.622c.15-.708.486-1.08 1.085-1.379 2.281-1.23 4.749-1.715 7.293-1.826 4.375-.224 8.714.111 12.865 1.64 5.274 1.938 7.929 5.889 8.49 11.331.15.932.15 1.864.224 2.87z" fill="#FEFEFE"/><path d="M242.914 139.667c1.533 2.758 1.122 5.517-.187 8.126-1.571 3.168-4.114 5.516-7.293 7.119a5.517 5.517 0 0 1-1.085.447c-.523.149-1.047.373-1.496-.186-.448-.559-.224-1.118.075-1.603 1.234-2.05 2.992-3.653 4.638-5.367.71-.708 1.421-1.417 2.169-2.125.374-.373.636-.783.636-1.304 1.234-1.081 1.346-2.684 1.907-4.101.15-.372.187-.82.636-1.006z" fill="#FEFDFD"/><path d="M32.465 42.865c0-3.989.037-7.977-.037-12.003 0-.894.262-1.118 1.122-1.118 2.842 0 5.647-.41 8.415-1.043 2.206-.485 3.553-1.901 4.6-3.802 1.683-3.02 3.254-6.113 5.124-8.983.823-1.268 1.645-2.535 2.917-3.43.374-.26.785-.559 1.272-.335.523.26.448.783.448 1.23 0 2.758-1.196 5.181-2.206 7.641-.786 1.864-1.72 3.653-2.618 5.442-.71 1.454-.412 2.013 1.197 2.013 2.655 0 5.31.037 7.891.596.972.187 1.87.522 2.73 1.007 1.496.82 2.207 2.199 1.833 3.653-.3 1.23-1.908 2.497-3.329 2.534-3.067.037-6.133-.074-9.2.373-1.085.149-2.02-.485-2.656-1.416-.56-.82-.224-1.752.748-2.2 1.459-.708 3.067-.82 4.675-.894 1.758-.075 3.516-.038 5.236-.038.711 0 1.422-.074 1.422-.969 0-.894-.748-.931-1.422-.931-3.066.074-6.133-.187-9.2.484-2.58.597-3.852 2.05-3.59 4.212.112.97.635 1.752 1.346 2.348.411.336.449.56.075 1.044-1.197 1.491-1.085 3.466.224 4.846.337.372.786.559.187 1.155-1.57 1.566-1.57 3.541 0 5.256.636.708.973 1.155.15 2.013-.935.969-.898 2.31-.3 3.503.45.895.075.932-.673.932-5.086 0-10.21-.037-15.296 0-.823 0-1.047-.26-1.047-1.08.037-4.026 0-8.052 0-12.115 0 .075-.038.075-.038.075z" fill="#FEFEFE"/><path d="M58.006 44.542h3.142c1.383 0 2.58.522 3.59 1.416 1.085.97.86 2.274-.374 2.982-.412.224-.823.41-1.31.448-3.178.186-6.357-.15-9.536.335-1.122.187-2.73-1.304-2.955-2.46-.187-.857.187-1.416.935-1.79.973-.446 1.983-.707 3.03-.745 1.16-.037 2.319 0 3.515 0-.037-.074-.037-.111-.037-.186zM57.41 42.605c-1.16.075-2.431.15-3.703.261-.486.038-.935.075-1.384-.111-.972-.448-1.907-.97-1.907-2.237.037-1.267 1.085-1.565 2.02-1.752 3.253-.745 6.582-.596 9.873-.447.973.037 1.87.485 2.543 1.305.674.782.524 1.752-.336 2.31-.786.522-1.72.709-2.656.746-1.42-.037-2.88-.075-4.45-.075zM58.907 51.44c1.235 0 2.469-.038 3.74 0 .711 0 1.384.223 1.683 1.006.3.745.075 1.454-.411 2.05-.673.82-1.57 1.305-2.618 1.342-2.281.112-4.563.112-6.844.149-1.01 0-1.908-.224-2.656-.97-1.084-1.08-.86-2.385.561-2.944 1.796-.745 3.74-.633 5.61-.67.3 0 .599 0 .935.037 0 0 0-.038 0 0z" fill="#FCFEFE"/><path d="M200.243 63.553a2386.456 2386.456 0 0 0-4.675 6.896c-.112.186-.411.335-.299.596.112.336.449.224.711.224 2.019 0 4.039.037 6.058 0 .935-.037 1.048.26.748 1.044-1.533 4.063-3.066 8.088-4.6 12.151-.785 2.087-1.533 4.212-2.169 6.411l2.581-2.796c2.543-2.832 5.049-5.665 7.592-8.46 3.515-3.914 7.068-7.828 10.584-11.742.187-.186.486-.373.374-.67-.15-.336-.486-.187-.748-.187-2.655 0-5.311-.038-7.929 0-.972 0-1.384-.187-1.084-1.268.224-.745.224-1.528.336-2.31 7.368 0 14.699.037 22.066 0 1.01 0 1.272.186 1.272 1.267-.037 12.226-.037 24.451-.037 36.677v1.044c-.487.149-.636-.261-.861-.485-3.104-3.093-6.245-6.187-9.312-9.318-.674-.671-1.347-.97-2.357-.97-12.155.038-24.31 0-36.427.038-1.01 0-1.309-.186-1.309-1.267.037-8.573.037-17.146 0-25.72 0-.931.149-1.267 1.197-1.23 6.133.075 12.229.075 18.288.075z" fill="#FEFEFE"/><path d="M244.412 148.911c0 2.199-.561 3.951-1.534 5.479-2.057 3.206-5.011 5.368-8.639 6.561a3.654 3.654 0 0 1-1.272.223c-.972.038-1.421-.559-.972-1.416.636-1.156 1.421-2.125 2.805-2.572 3.777-1.23 6.508-3.839 8.752-7.008.224-.298.448-.633.86-1.267z" fill="#FDFCFC"/><path d="M242.241 158.379c-.898 2.236-2.394 3.504-3.965 4.696-1.496 1.119-3.104 2.05-4.974 2.423-.636.112-1.384.336-1.646-.596-.149-.597.674-1.64 1.384-1.752 2.88-.373 5.274-1.752 7.518-3.467.449-.335.785-.931 1.683-1.304z" fill="#FBFBF7"/><path d="M240.634 163.82c-1.085 2.349-3.105 3.653-5.386 4.622-.823.336-1.683.634-2.581.671-.299 0-.673.112-.822-.298-.113-.335.112-.596.299-.82.187-.224.411-.485.748-.522 2.992-.373 5.385-1.975 7.742-3.653z" fill="#F9F7F5"/><path d="M149.004 73.467c-.037 3.131-.86 5.815-3.141 7.94-.524.484-1.085.931-1.721.298-.635-.634-.187-1.193.337-1.64 1.683-1.528 2.431-3.467 2.543-5.666.15-3.802-.897-7.343-1.945-10.921-.224-.746-.822-1.715.337-2.05 1.159-.373 1.197.783 1.459 1.49 1.122 3.467 2.019 6.97 2.131 10.55z" fill="#1B0802"/><path d="M116.278 64.634c-.037.448-.187.97-.897 1.044-.674.037-.973-.41-1.048-1.006-.224-1.79-1.047-3.318-2.057-4.734-.935-1.305-2.057-2.348-3.59-2.833-.636-.186-1.085-.56-.823-1.267.262-.709.823-.746 1.459-.522 2.767.932 4.413 3.056 5.759 5.48a9.833 9.833 0 0 1 1.197 3.838z" fill="#1A0A04"/><path d="M125.889 81.147c0-.746.112-1.454.336-2.162.225-.634.636-1.007 1.309-.783.673.224.898.708.673 1.38-.448 1.416-.411 2.757.561 3.95.636.783 1.422 1.305 2.431 1.491.674.15 1.197.522 1.01 1.267-.187.82-.823.932-1.533.783-2.693-.484-4.787-3.093-4.787-5.926z" fill="#1B0A03"/><path d="M133.483 59.08h.711c.673 0 1.159.224 1.197.97.037.707-.412 1.043-1.085 1.08-.486.037-1.01.075-1.496.037-.636-.037-1.159-.26-1.197-.969 0-.782.449-1.08 1.197-1.08.187 0 .411 0 .673-.038z" fill="#1F0E09"/><path d="M151.696 59.713c1.159.037 2.356.932 2.281 1.603-.075.596-.449 1.006-1.047 1.006-.86.037-2.207-1.006-2.132-1.603.075-.596.411-.969.898-1.006z" fill="#1E0F07"/><path d="M133.448 66.089c-.075.857-.561 1.304-1.384 1.267-.785-.037-1.197-.559-1.197-1.304.038-.746.486-1.268 1.234-1.268.823 0 1.309.485 1.347 1.305z" fill="#21110A"/><path d="M153.379 68.213c-.037.857-.523 1.304-1.271 1.267-.823 0-1.309-.522-1.272-1.305.037-.82.561-1.267 1.384-1.192.785.074 1.122.559 1.159 1.23z" fill="#1F0C07"/></g><defs><clipPath id="a"><path fill="#fff" d="M0 0h248v233H0z"/></clipPath></defs></svg>