<svg width="280" height="257" viewBox="0 0 280 257" fill="none" xmlns="http://www.w3.org/2000/svg"><g clip-path="url(#a)"><path fill="#FA9BE1" d="M124.768 59.594h121.051v109.877H124.768z"/><path d="M255.071 52.336c0-1.159-.285-1.501-1.448-1.501-45.286.026-90.597.026-135.882.026-1.733 0-1.733 0-1.733 1.791v106.229c0 .5.155 1.053-.233 1.527 6.88 5.899 9.88 14.036 12.492 22.41 2.535 8.137 5.457 16.116 8.612 24.042.698.053 1.371.132 2.069.132 20.354 0 40.682 0 61.036.052 1.267 0 1.81-.421 2.25-1.58 2.25-5.846 5.586-11.033 9.828-15.589 4.551-4.872 9.879-8.664 15.905-11.402a45.655 45.655 0 0 1 13.242-3.766c4.086-.5 8.224-.79 12.336-.053 1.138.211 1.552-.184 1.552-1.448-.052-40.316-.052-80.58-.026-120.87zM195.846 188.4c-.466.29-.983.237-1.5.237h-53.51c-.207 0-.44.027-.646 0-.776-.105-1.526-.289-1.5-1.264.025-1 .775-1.106 1.577-1.106h54.286c.336 0 .698-.026 1.034.053.517.105.802.474.879 1.001.052.5-.232.816-.62 1.079zm51.026-20.54c0 2.397-.103 2.476-2.508 2.476H126.612c-2.302 0-2.38-.106-2.38-2.476V60.868c0-1.975.233-2.212 2.121-2.212h118.399c1.939 0 2.12.21 2.12 2.212V167.86z" fill="#FCDF5A"/><path d="M255.073 178.446v24.859c0 3.686 0 3.686-3.569 3.686H205.908c-1.784 0-1.94-.184-1.164-1.869 4.216-9.428 10.604-16.906 19.449-22.12 6.569-3.871 13.604-6.11 21.259-6.426 2.845-.105 5.664.053 8.483.29 1.138.105 1.138.737 1.138 1.58z" fill="#FCDF5A"/><path d="M239.475 37.458c-.026 2.29-1.681 4.134-4.241 4.16-2.302.026-4.06-1.975-4.034-4.371.025-2.16 2.017-4.345 4.112-4.187 2.12.131 4.163 1.422 4.163 4.398z" fill="#FA9BE1"/><path d="M254.527 37.457c-.026 2.37-1.914 4.214-4.242 4.161-2.069-.053-4.086-2.186-4.06-4.319.026-2.317 1.965-4.213 4.293-4.16 2.405.052 4.035 1.79 4.009 4.318z" fill="#FCDF5A"/><path d="M220.208 41.62c-2.276.052-3.905-1.95-4.06-4.346-.155-2.238 2.198-4.16 4.138-4.081 2.431.079 4.009 1.711 3.983 4.292.233 1.922-1.526 4.082-4.061 4.134z" fill="#FA9BE1"/><path d="M244.752 58.655H126.353c-1.888 0-2.121.264-2.121 2.212V167.86c0 2.37.104 2.475 2.38 2.475H244.364c2.405 0 2.509-.105 2.509-2.475V60.867c0-2.001-.207-2.212-2.121-2.212zm-1.604 109.442a81907.21 81907.21 0 0 0-115.191 0c-1.242 0-1.552-.316-1.552-1.58.026-34.655.026-69.31 0-103.99 0-1.344.31-1.66 1.629-1.66 19.216.053 38.432.027 57.648.027 19.19 0 38.354 0 57.518-.027 1.19 0 1.474.316 1.474 1.528a69496.64 69496.64 0 0 0 0 104.122c.026 1.237-.258 1.58-1.526 1.58zM167.658 186.268h26.871c.336 0 .699-.026 1.035.053.517.105.801.474.879 1 .052.501-.207.817-.595 1.08-.465.29-.983.237-1.5.237h-53.509c-.207 0-.44.026-.647 0-.776-.105-1.526-.29-1.5-1.264.026-1.001.776-1.106 1.578-1.106H167.658z" fill="#8D4BE2"/><path d="M203.395 112.033c-3.543 3.318-7.862 4.977-12.465 5.925-1.888.395-3.828.659-5.768.632-.982 0-1.086.395-1.06 1.238.155 5.214.233 10.428.336 15.642 0 .579.104 1.159-.517 1.501-.828.474-1.578-.105-1.604-1.317-.025-2.975 0-5.951 0-8.953h-.362v-8.558c0-1.396.259-1.712 1.63-1.712 4.888-.026 9.621-.843 14.017-3.028 6.362-3.16 9.362-8.98 8.69-16.143-.698-7.347-4.526-12.324-10.888-15.43-4.966-2.424-10.319-3.319-15.776-3.53-.414-.026-.88-.026-1.268-.158-.465-.158-.568-.632-.491-1.106.129-.71.621-.895 1.241-.869 2.949.053 5.845.37 8.716 1.001 5.69 1.238 10.94 3.344 15.207 7.558 6.802 6.82 7.604 20.513.362 27.307zM184.7 143.344c-.103.816-.517 1.29-1.344 1.264-.776-.026-1.294-.474-1.294-1.29 0-.869.544-1.37 1.397-1.343.802.052 1.216.579 1.241 1.369z" fill="#200F09"/><path d="M159.061 206.993s5.845 15.641 7.086 23.963c.388 2.607.44 5.24-.465 7.794-1.087 3.029-3.182 4.925-6.182 5.873-3.155.974-6.388 1-9.595.421-8.741-1.58-17.327-3.766-25.81-6.478a7.493 7.493 0 0 1-.931-.369c-.13-.421.207-.474.388-.605 6.465-4.424 12.724-9.164 18.931-13.983.931-.711 1.19-1.37.879-2.555-2.974-11.349-5.896-22.699-8.819-34.048-.129-.501-.284-.975.336-1.343 1.811-1.001 6.036-4.087 6.036-4.087l9.312-.931 2.794 7.449 6.04 18.899zM122.182 100.501v.052H122.233s.026 0 .052-.026c0 0 .026 0 .026-.026h-.129z" fill="#FEFEFE"/><path d="M122.182 100.502v.053H122.234s.025 0 .051-.027c0 0 .026 0 .026-.026h-.129zm46.32 133.141c-.181-4.898-1.371-9.585-2.845-14.22-1.345-4.213-2.793-8.374-4.19-12.561-3.155-7.9-6.078-15.905-8.612-24.042-2.612-8.348-5.586-16.511-12.492-22.41-.595-.026-.853-.553-1.241-.869-5.121-3.66-10.94-5.24-17.044-5.977-3.103-.369-3.155-.29-3.905-3.45-.181-.764-.776-1.396-.517-2.344.853-3.16 1.655-6.346 2.431-9.559.181-.737.543-.948 1.241-1.053a21.128 21.128 0 0 0 5.949-1.685c3.595-1.607 6.233-4.187 7.319-8.164.828-3.081.491-6.188.052-9.269-.776-5.293-2.069-10.454-3.311-15.642-.129-.579-.103-.922.362-1.343 1.293-1.211 1.888-2.791 1.914-4.582 0-.843.078-1.817-1.112-1.843-1.215-.026-.957.974-1.009 1.738-.025.263-.025.526-.077.79-.414 2.607-2.819 4.002-5.224 3.002-1.345-.553-2.354-1.528-2.742-2.95-.388-1.342-1.06-1.764-2.379-1.421-1.267.342-2.431.368-3.13-1.133-.284-.606-.905-.658-1.448-.316-.491.316-.621.816-.336 1.37.078.184.181.368.414.816-3.104-.553-3.724 1.29-3.776 3.686 0 .079-.052.158-.078.264-1.112 3.528-4.629 4.845-7.5 2.738-1.009-.737-1.784-1.659-2.302-2.791-.232-.526-.413-1.053-.646-1.58-.259-.632-.776-.869-1.371-.606-.595.238-.828.738-.595 1.396.207.579.414 1.159.673 1.712 1.577 3.37 4.732 5.372 7.939 4.977 3.233-.395 5.354-2.686 6.156-6.663.077-.447.026-1.053.75-.974.905.08 1.914-.843 2.715.29 1.604 2.238 3.078 4.555 3.983 7.189.776 2.185.828 4.371-.259 6.504-.362.711-.672 1.448.233 1.896.983.474 1.345-.29 1.707-1.053 1.888-4.003.802-7.69-1.112-11.297-.27-.525-.704-1.003-.857-1.659l-.012-.053-.01-.053h-.104c-.026 0-.051-.026-.051-.026l-.026-.026c-.026-.027-.052-.053-.052-.079-.44-.632-.853-1.29-1.267-1.975-.233-.395.103-.395.362-.422.336.027 1.603 2.133 1.422 2.397-.026.052-.077.079-.103.105.155 0 .258 0 .31.053 1.681 1.474 3.595 2.343 5.871 2.08.608-.077.695.3.795.736l.007.028c.491 2.054 1.008 4.081 1.474 6.135 1.06 4.74 2.172 9.507 2.121 14.405-.026 3.844-1.733 6.794-4.966 8.795-2.328 1.422-4.914 2.107-7.578 2.423-1.293.158-1.888.684-2.224 2.027-2.353 10.007-4.94 19.961-9.155 29.388-.802 1.817-1.474 3.687-2.276 5.662-.207-.316-.311-.448-.388-.606-3.802-7.768-7.604-15.536-11.431-23.278-.285-.58-.259-1.08-.104-1.633 1.267-5.135 2.483-10.296 3.776-15.431.233-.922.052-1.528-.75-1.975-1.034-.58-1.836-1.449-2.56-2.397-2.07-2.633-3.466-5.661-4.475-8.821-.336-1.054-.853-1.449-1.94-1.449-3.387-.079-6.672-.737-9.724-2.317-3-1.554-5.379-3.66-6.103-7.189-1.035-4.924 1.267-9.559 5.56-10.77 4.242-1.185 8.173-.21 11.768 2.29.465.317.802.738 1.474.58 1.81-.474 3.285-1.422 4.5-2.897 1.707-2.106 2.87-4.476 3.414-7.136.13-.684.44-1.053 1.034-1.343 3.621-1.659 7.397-2.87 11.38-3.239 5.457-.526 9.931 1.185 12.957 6.083.336.527.698.975.129 1.712-.517.684.026 1.5.906 1.527.827.026 1.629-.052 2.457-.105.517-.026.775-.369.905-.816.155-.474-.078-1.027-.466-1.106-1.189-.211-1.345-1.317-1.965-2.028-.75-.896-.492-1.528.155-2.344 2.146-2.765 3.207-5.951 2.871-9.532-.44-4.82-3.88-7.585-8.561-6.82-2.638.42-5.121 1.448-7.655 2.317-4.216 1.448-8.225 3.397-12.104 5.53-2.664 1.448-5.172 3.37-7.526 5.424a37.555 37.555 0 0 0-5.354 5.767c-1.422-2.528-3.44-3.924-6.129-4.345-3.078-.5-5.922.184-8.56 1.738-4.837 2.87-6.518 7.847-7.94 12.851-.802 2.817-1.06 5.819-1.63 8.716a29.566 29.566 0 0 1-2.56 7.558c-1.37 2.738-2.819 5.451-3.88 8.321-2.172 5.872-.439 11.455 5.639 13.404 5.457 1.764 11.974-.817 14.897-5.846 2.198-3.819 2.457-7.953 2.172-12.219-.078-.948-.724-2.238-.13-2.739.57-.5 1.708.448 2.639.527.776.053 1.163.395 1.422 1.185.698 2.08 1.836 4.003 3.698 5.082 2.742 1.58 4.966 3.634 7.087 5.925.465.527.698.869.517 1.554-1.06 4.24-2.069 8.506-3.103 12.745-.078.369-.156.711-.518 1.001-1.603 1.317-3.207 2.66-4.733 4.082-.853.816-1.758 1.079-2.896 1.106-6.44.079-12.828.605-19.01 2.607-10.474 3.423-17.405 10.349-20.275 21.277a49.042 49.042 0 0 0-1.578 12.087c-.026 6.241.543 12.456.905 18.644.647 10.454 1.293 20.935 2.173 31.363.465 5.767.982 11.534 1.474 17.301.13.132.155.263.052.421.051.474.129.948.18 1.422.052.132.104.264.156.422.051.131.103.289.155.421.078 0-.05 1.202-.025 1.281 1.604-.158 1.913-1.465 1.758-3.098-.233-2.265-.543-4.503-.724-6.768-.44-5.108-.828-10.217-1.19-15.326-.559-7.786-1.094-15.595-1.628-23.385l-.105-1.526-.62-9.717c-.363-6.294-.802-12.587.155-18.907 1.94-12.667 9.284-21.067 21.44-24.359 5.586-1.501 11.276-1.922 17.017-2.08 1.112-.026 1.655.263 2.12 1.317 4.501 9.954 9.079 19.855 13.63 29.783.259.553.466 1.185 1.216 1.185.75.026.983-.58 1.241-1.133 1.061-2.159 2.121-4.292 3.156-6.478.336-.711.595-.79 1.189-.21 1.785 1.711 3.621 3.37 5.431 5.082.466.421.932.843 1.604.553.621-.263.647-.869.724-1.448l.776-5.609c.905-6.505 1.784-13.035 2.664-19.54.103-.79.362-1.079 1.241-.974 2.793.342 5.561.737 8.25 1.448 4.5 1.212 8.69 3.081 12.026 6.557 2.949 2.607 4.811 5.978 6.44 9.507.854 1.843 1.655 3.739 2.25 5.819-3.103-.131-5.922.764-8.767 1.528-1.862.974-3.905 1.632-5.664 2.817-.983.659-1.293.369-1.448-.684-.13-.79-.388-1.686-1.449-1.422-1.163.289-.801 1.211-.594 2.027 1.655 6.347 3.258 12.719 4.939 19.066.207.79.078 1.106-.698 1.395a1078.07 1078.07 0 0 0-15.362 5.82c-.595.237-1.112.237-1.733.053-10.138-3.266-20.276-6.531-30.621-9.059-.673-.158-.983-.579-1.294-1.132-4.319-7.9-8.638-15.774-12.983-23.648-.362-.658-.698-1.316-1.112-1.922-.336-.5-.879-.606-1.37-.263-.466.316-.673.79-.388 1.369.18.342.362.685.543 1.053l.004.009 2.918 5.39c-10.215.895-17.069 7.241-23.638 14.246-.414-.711-.802-1.396-1.19-2.054-.362-.606-.88-.895-1.526-.527-.62.369-.672.975-.31 1.607.103.184.207.395.31.579 2.147 3.818 4.242 7.637 6.414 11.455l.002.004c4.551 8.004 9.103 16.008 13.705 23.959 3.518 6.083 7.087 12.14 11.044 17.933 1.914 2.818 4.448 4.767 7.836 5.32 3.259.553 6.414-.027 9.517-1.08 3.699-1.264 7.216-3.002 10.604-4.977 3.905-2.291 7.837-4.477 11.664-6.926 1.448-.921 2.69-1.237 4.112-.316.828.527 1.759.553 2.638.79 3.388.975 6.776 1.975 10.19 2.871.854.21 1.086.632 1.138 1.422.207 2.712.466 5.424.724 8.11.074.779-.091 4.323.923 4.494.05.009.103.009.159 0 1.112-.158 1.117-3.914 1.039-4.704-.233-2.449-.44-4.898-.698-7.347-.104-.922.051-1.212 1.06-.975 3.802.948 7.629 1.87 11.535 2.291 2.974.316 5.922.211 8.845-.763 6.026-1.923 8.483-6.926 8.276-12.904zm-63.105-58.223a1290.697 1290.697 0 0 0-3.103 6.268c-1.552-3.371-3.026-6.531-4.475-9.691-2.922-6.346-5.793-12.719-8.741-19.039-.362-.79-.285-1.238.388-1.764a19.444 19.444 0 0 0 2.327-2.081c.647-.684.906-.395 1.268.29a11240.24 11240.24 0 0 0 12.284 25.043c.13.342.259.606.052.974zm11.664-20.092l-3.336 24.095c0 .079-.078.132-.233.342l-5.121-4.74c-.336-.289-.207-.605-.077-.948 2.715-6.82 5.431-13.64 8.121-20.461.051-.105.103-.237.206-.447.44.816.544 1.448.44 2.159zm-7.784 53.457c2.172.684 4.344 1.369 6.879 2.185-2.767 1.106-5.147 2.081-7.552 3.055-3.672 1.475-7.371 2.949-11.043 4.424-.492.184-.983.395-1.5.342-4.837-.526-9.621.422-14.432.685-1.94.105-3.879.237-5.793-.079-.258-.053-.517-.053-.75-.158-.569-.211-1.241-.421-1.241-1.159 0-.684.62-.895 1.138-1.079 1.603-.553 3.284-.685 4.965-.79 4.035-.29 8.095-.237 12.156-.316.388 0 .776 0 1.164-.053.62-.105 1.034-.474.982-1.159-.051-.684-.465-1.053-1.112-1.027-1.293 0-2.586.079-3.88.106-4.137.079-8.275.026-12.387.605-1.035.132-2.017.422-3 .764-.337.132-.75.843-1.138.026-.31-.658-.517-1.343.233-1.869.698-.474 1.5-.659 2.301-.764 3.31-.5 6.621-.316 9.931-.316 1.888 0 3.802 0 5.69-.053.673 0 1.216-.316 1.19-1.106-.026-.842-.57-1.106-1.32-1.079-4.447.158-8.87-.185-13.318.105-1.94.132-3.854.342-5.612 1.343-.285.184-.518.263-.725-.132-.31-.632-.44-1.264.156-1.79.775-.685 1.707-1.001 2.69-1.185 3.232-.685 6.517-.685 9.775-.58 1.707.053 3.44.185 5.173.316.698.053 1.345 0 1.526-.816.18-.843-.414-1.159-1.06-1.396a2280.817 2280.817 0 0 1-12.415-4.45c-.491-.184-.93-.421-1.396-.632 2.12-.553 4.138-.079 6.13.369 9.31 2.027 18.465 4.792 27.595 7.663zm1.37 34.259c-4.629 2.607-9.155 5.451-14.172 7.268-1.656.606-3.363 1.08-5.121 1.317-4.63.632-8.25-.922-10.914-4.898-4.112-6.188-7.888-12.535-11.587-18.986-5.534-9.638-11.017-19.329-16.5-28.993-.336-.58-.647-1.08-.078-1.765 4.914-5.951 10.682-10.665 18.104-13.008.57-.185 1.164-.29 1.759-.369 2.896-.369 3.362-.105 4.784 2.502 1.992 3.686 4.035 7.347 6.052 11.007.362.685.724 1.369 1.216 2.265-2.198-.343-4.138-.659-6.104-.948-1.034-.158-2.069-.211-3.103-.053-1.009.158-1.655.764-1.888 1.738-.233 1.027.258 1.791 1.138 2.291 1.888 1.106 3.957 1.712 5.974 2.423.31.105.672.105.905.526-2.172.158-4.319.185-6.44.553-1.5.264-2.948.632-4.241 1.475-2.172 1.396-2.405 3.95-.491 5.741.155.158.388.237.336.5-.336 2.107 1.293 3.634 1.655 5.556.285 1.528 1.836 1.975 3.233 2.239 3.44.632 6.88.184 10.293-.106 3.517-.289 7.035-.842 10.552-.342.672.105 1.267-.158 1.862-.395 11.716-4.74 23.432-9.454 35.251-13.904 1.06-.395 2.12-.711 3.181-1.132.569-.237.75-.027.879.5 1.293 5.003 2.561 10.007 3.88 14.984.155.579-.078.869-.492 1.211-9.543 7.558-19.293 14.826-29.923 20.803zm55.036-4.292c-1.087 3.028-3.181 4.924-6.181 5.872-3.156 1.001-6.388 1.001-9.595.422-8.742-1.58-17.328-3.766-25.811-6.478-.336-.106-.647-.237-.931-.343-.13-.421.207-.474.388-.605 6.465-4.424 12.724-9.164 18.931-13.983.931-.711 1.19-1.37.879-2.555-2.974-11.349-5.896-22.699-8.819-34.049-.129-.526-.284-.974.336-1.343 1.811-1 3.544-2.159 5.561-2.712 2.741-1.264 5.586-1.975 8.612-1.843.698.026 1.164.237 1.397 1.027 2.457 8.347 5.534 16.458 8.612 24.569a.905.905 0 0 1 .026.263c2.948 7.795 5.845 15.642 7.086 23.963.362 2.607.414 5.241-.491 7.795z" fill="#fff"/><path d="M122.234 100.555h-.004c.153.656.587 1.134.857 1.659 1.914 3.607 3 7.294 1.112 11.297-.362.763-.724 1.527-1.707 1.053-.905-.448-.595-1.185-.233-1.896 1.087-2.133 1.035-4.319.259-6.504-.905-2.634-2.379-4.951-3.983-7.19-.801-1.132-1.81-.21-2.715-.289-.724-.079-.673.527-.75.974-.802 3.977-2.923 6.268-6.156 6.663-3.207.395-6.362-1.607-7.939-4.977-.259-.553-.466-1.133-.673-1.712-.233-.658 0-1.158.595-1.395.595-.264 1.112-.027 1.371.605.233.527.414 1.053.646 1.58.518 1.132 1.293 2.054 2.302 2.791 2.871 2.107 6.388.79 7.5-2.738.026-.106.078-.185.078-.264.052-2.396.672-4.24 3.776-3.686-.233-.448-.336-.632-.414-.816-.285-.553-.155-1.054.336-1.37.543-.342 1.164-.29 1.448.316.699 1.501 1.863 1.475 3.13 1.132 1.319-.342 1.991.08 2.379 1.422.388 1.422 1.397 2.397 2.742 2.95 2.405 1 4.81-.395 5.224-3.002.052-.264.052-.527.077-.79.052-.764-.206-1.764 1.009-1.738l-2.948-1.685c-.13.447-.388.79-.905.816-.828.053-1.63.132-2.457.105-.88-.026-1.423-.843-.906-1.527.569-.737.207-1.185-.129-1.712-3.026-4.898-7.5-6.61-12.957-6.083-3.983.369-7.759 1.58-11.38 3.24-.594.289-.905.657-1.034 1.342-.543 2.66-1.707 5.03-3.414 7.136-1.215 1.475-2.69 2.423-4.5 2.897-.672.158-1.009-.263-1.474-.58-3.595-2.5-7.526-3.475-11.768-2.29-4.293 1.211-6.595 5.846-5.56 10.77.724 3.529 3.103 5.635 6.103 7.189 3.052 1.58 6.337 2.238 9.725 2.317 1.086 0 1.603.395 1.94 1.449 1.008 3.16 2.405 6.188 4.474 8.821.724.948 1.526 1.817 2.56 2.397.802.447.983 1.053.75 1.975-1.293 5.135-2.508 10.296-3.776 15.431-.155.553-.18 1.053.104 1.633 3.827 7.742 7.629 15.51 11.431 23.278.077.158.181.29.388.606.802-1.975 1.474-3.845 2.276-5.662 4.215-9.427 6.802-19.381 9.155-29.388.336-1.343.931-1.869 2.224-2.027 2.664-.316 5.25-1.001 7.578-2.423 3.233-2.001 4.94-4.951 4.966-8.795.051-4.898-1.061-9.665-2.121-14.405-.466-2.054-.983-4.081-1.474-6.135l-.007-.028c-.1-.436-.187-.813-.795-.736-2.276.263-4.19-.606-5.871-2.08-.052-.053-.155-.053-.31-.053.026-.026.077-.053.103-.105.181-.264-1.086-2.37-1.422-2.397-.259.027-.595.027-.362.422.414.684.827 1.343 1.267 1.975 0 .026.026.052.052.079l.026.026s.025.026.051.026h.104a.83.83 0 0 0 .01.053h.093c0 .026-.026.026-.026.026-.026.027-.051.027-.051.027z" fill="#fff"/><path d="M50.905 254.947c.155 1.633-.154 2.94-1.758 3.098h89.139c-1.014-.171-.849-3.715-.923-4.494a416.103 416.103 0 0 1-.724-8.11c-.052-.79-.284-1.212-1.138-1.422-3.414-.896-6.802-1.896-10.19-2.871-.879-.237-1.81-.263-2.638-.79-1.422-.921-2.664-.605-4.112.316-3.827 2.449-7.759 4.635-11.664 6.926-3.388 1.975-6.905 3.713-10.604 4.977-3.103 1.053-6.258 1.633-9.517 1.08-3.388-.553-5.922-2.502-7.836-5.32-3.957-5.793-7.526-11.85-11.044-17.933-4.602-7.951-9.154-15.955-13.705-23.959l-.002-.004c-2.172-3.818-4.267-7.637-6.414-11.455-.103-.184-.206-.395-.31-.579-.362-.632-.31-1.238.31-1.607.647-.368 1.164-.079 1.526.527.388.658.776 1.343 1.19 2.054 6.569-7.005 13.423-13.351 23.638-14.246l-2.918-5.39-.004-.009a38.965 38.965 0 0 0-.543-1.053c-.285-.579-.078-1.053.388-1.369.491-.343 1.034-.237 1.37.263.414.606.75 1.264 1.112 1.922a6905.971 6905.971 0 0 1 12.983 23.648c.31.553.621.974 1.294 1.132 10.345 2.528 20.483 5.793 30.621 9.059.621.184 1.138.184 1.733-.053a1078.07 1078.07 0 0 1 15.362-5.82c.776-.289.905-.605.698-1.395-1.681-6.347-3.284-12.719-4.939-19.066-.207-.816-.569-1.738.594-2.027 1.061-.264 1.319.632 1.449 1.422.155 1.053.465 1.343 1.448.684 1.759-1.185 3.802-1.843 5.664-2.817 2.845-.764 5.664-1.659 8.767-1.528-.595-2.08-1.396-3.976-2.25-5.819-1.629-3.529-3.491-6.9-6.44-9.507-3.336-3.476-7.526-5.345-12.026-6.557-2.689-.711-5.457-1.106-8.25-1.448-.879-.105-1.138.184-1.241.974-.88 6.505-1.759 13.035-2.664 19.54l-.776 5.609c-.077.579-.103 1.185-.724 1.448-.672.29-1.138-.132-1.604-.553-1.81-1.712-3.646-3.371-5.431-5.082-.594-.58-.853-.501-1.189.21-1.035 2.186-2.095 4.319-3.156 6.478-.258.553-.491 1.159-1.241 1.133-.75 0-.957-.632-1.216-1.185-4.551-9.928-9.129-19.829-13.63-29.783-.465-1.054-1.008-1.343-2.12-1.317-5.741.158-11.431.579-17.017 2.08-12.156 3.292-19.5 11.692-21.44 24.359-.957 6.32-.518 12.613-.156 18.907l.621 9.717.105 1.526c.534 7.79 1.07 15.599 1.628 23.385.362 5.109.75 10.218 1.19 15.326.18 2.265.491 4.503.724 6.768z" fill="#fff"/><path d="M78.602 20.253c0-1.211-.362-1.448-1.474-1.448-20.767.052-41.535.052-62.303.026-1.215 0-1.5.369-1.474 1.554.026 6.478.026 12.956.026 19.434v30.283c0 6.847 0 13.693-.026 20.54 0 1.027.207 1.448 1.32 1.448 20.844-.026 41.715-.026 62.56 0 1.113 0 1.371-.368 1.371-1.422-.026-23.463-.026-46.926 0-70.415zm-5.586 50.376c0 .526 0 1.053-.052 1.58-.051.71-.44 1.106-1.19 1.106H20.98c-1.732 0-1.913-.185-1.913-1.949V26.362c0-2.185.052-2.238 2.146-2.238H71c1.784 0 2.043.263 2.043 2.028-.026 14.825-.026 29.651-.026 44.477z" fill="#13D6A3"/><path d="M122.182 100.502v.053h.052s.026 0 .051-.027c0 0 .026 0 .026-.026h-.129zm46.32 133.141c-.181-4.898-1.371-9.585-2.845-14.22-1.345-4.213-2.793-8.374-4.19-12.561-3.155-7.9-6.078-15.905-8.612-24.042-2.612-8.348-5.586-16.511-12.492-22.41-.595-.026-.853-.553-1.241-.869-5.121-3.66-10.94-5.24-17.044-5.977-3.103-.369-3.155-.29-3.905-3.45-.181-.764-.776-1.396-.517-2.344.853-3.16 1.655-6.346 2.431-9.559.181-.737.543-.948 1.241-1.053a21.128 21.128 0 0 0 5.949-1.685c3.595-1.607 6.233-4.187 7.319-8.164.828-3.081.491-6.188.052-9.269-.776-5.293-2.069-10.454-3.311-15.642-.129-.579-.103-.922.362-1.343 1.293-1.211 1.888-2.791 1.914-4.582 0-.843.078-1.817-1.112-1.843-1.215-.026-.957.974-1.009 1.738-.025.263-.025.526-.077.79-.414 2.607-2.819 4.002-5.224 3.002-1.345-.553-2.354-1.528-2.742-2.95-.388-1.342-1.06-1.764-2.379-1.421-1.267.342-2.431.368-3.13-1.133-.284-.606-.905-.658-1.448-.316-.491.316-.621.816-.336 1.37.078.184.181.368.414.816-3.104-.553-3.724 1.29-3.776 3.686 0 .079-.052.158-.078.264-1.112 3.528-4.629 4.845-7.5 2.738-1.009-.737-1.784-1.659-2.302-2.791-.232-.526-.413-1.053-.646-1.58-.259-.632-.776-.869-1.371-.606-.595.238-.828.738-.595 1.396.207.579.414 1.159.673 1.712 1.577 3.37 4.732 5.372 7.939 4.977 3.233-.395 5.354-2.686 6.156-6.663.077-.447.026-1.053.75-.974.905.08 1.914-.843 2.715.29 1.604 2.238 3.078 4.555 3.983 7.189.776 2.185.828 4.371-.258 6.504-.363.711-.673 1.448.232 1.896.983.474 1.345-.29 1.707-1.053 1.888-4.003.802-7.69-1.112-11.297-.284-.553-.75-1.054-.879-1.765h-.104c-.026 0-.051-.026-.051-.026l-.026-.026c-.026-.027-.052-.053-.052-.079-.44-.632-.853-1.29-1.267-1.975-.233-.395.103-.395.362-.422.336.027 1.603 2.133 1.422 2.397-.026.052-.077.079-.103.105.155 0 .258 0 .31.053 1.681 1.474 3.595 2.343 5.871 2.08.621-.079.698.316.802.764.491 2.054 1.008 4.081 1.474 6.135 1.06 4.74 2.172 9.507 2.121 14.405-.026 3.844-1.733 6.794-4.966 8.795-2.328 1.422-4.914 2.107-7.578 2.423-1.293.158-1.888.684-2.224 2.027-2.353 10.007-4.94 19.961-9.155 29.388-.802 1.817-1.474 3.687-2.276 5.662-.207-.316-.31-.448-.388-.606-3.802-7.768-7.604-15.536-11.431-23.278-.285-.58-.259-1.08-.104-1.633 1.267-5.135 2.483-10.296 3.776-15.431.233-.922.052-1.528-.75-1.975-1.034-.58-1.836-1.449-2.56-2.397-2.07-2.633-3.466-5.661-4.475-8.821-.336-1.054-.853-1.449-1.94-1.449-3.387-.079-6.672-.737-9.724-2.317-3-1.554-5.379-3.66-6.103-7.189-1.035-4.924 1.267-9.559 5.56-10.77 4.242-1.185 8.173-.21 11.768 2.29.465.317.802.738 1.474.58 1.81-.474 3.285-1.422 4.5-2.897 1.707-2.106 2.87-4.476 3.414-7.136.13-.684.44-1.053 1.034-1.343 3.621-1.659 7.397-2.87 11.38-3.239 5.457-.526 9.931 1.185 12.957 6.083.336.527.698.975.129 1.712-.517.684.026 1.5.906 1.527.827.026 1.629-.052 2.457-.105.517-.026.775-.369.905-.816.155-.474-.078-1.027-.466-1.106-1.189-.211-1.345-1.317-1.965-2.028-.75-.896-.492-1.528.155-2.344 2.146-2.765 3.207-5.951 2.871-9.532-.44-4.82-3.88-7.585-8.561-6.82-2.638.42-5.121 1.448-7.655 2.317-4.216 1.448-8.225 3.397-12.104 5.53-2.664 1.448-5.172 3.37-7.526 5.424a37.55 37.55 0 0 0-5.353 5.767c-1.423-2.528-3.44-3.924-6.13-4.345-3.078-.5-5.922.184-8.56 1.738-4.837 2.87-6.518 7.847-7.94 12.851-.802 2.817-1.06 5.819-1.63 8.716a29.566 29.566 0 0 1-2.56 7.558c-1.37 2.738-2.819 5.451-3.88 8.321-2.172 5.872-.439 11.455 5.639 13.404 5.457 1.764 11.974-.817 14.897-5.846 2.198-3.819 2.457-7.953 2.172-12.219-.078-.948-.724-2.238-.13-2.739.57-.5 1.708.448 2.639.527.776.053 1.163.395 1.422 1.185.698 2.08 1.836 4.003 3.698 5.082 2.742 1.58 4.966 3.634 7.087 5.925.465.527.698.869.517 1.554-1.06 4.24-2.069 8.506-3.103 12.745-.078.369-.156.711-.518 1.001-1.603 1.317-3.207 2.66-4.733 4.082-.853.816-1.758 1.079-2.896 1.106-6.44.079-12.828.605-19.01 2.607-10.473 3.423-17.405 10.349-20.275 21.277a49.042 49.042 0 0 0-1.578 12.087c-.026 6.241.543 12.456.905 18.644.647 10.454 1.293 20.935 2.173 31.363.465 5.767.982 11.534 1.474 17.301.13.132.155.263.052.421.051.474.129.948.18 1.422.052.132.104.264.156.422.051.131.103.289.155.421.078 0 .13.053.155.132 1.604-.158 1.733-.316 1.578-1.949-.233-2.265-.543-4.503-.724-6.768-.44-5.108-.828-10.217-1.19-15.326-.595-8.295-1.164-16.616-1.733-24.911l-.62-9.717c-.363-6.294-.802-12.587.155-18.907 1.94-12.667 9.284-21.067 21.44-24.359 5.586-1.501 11.276-1.922 17.017-2.08 1.112-.026 1.655.263 2.12 1.317 4.501 9.954 9.079 19.855 13.63 29.783.259.553.466 1.185 1.216 1.185.75.026.983-.58 1.241-1.133 1.061-2.159 2.121-4.292 3.156-6.478.336-.711.595-.79 1.189-.21 1.785 1.711 3.621 3.37 5.431 5.082.466.421.932.843 1.604.553.621-.263.647-.869.724-1.448l.776-5.609c.905-6.505 1.785-13.035 2.664-19.54.103-.79.362-1.079 1.241-.974 2.793.342 5.561.737 8.25 1.448 4.5 1.212 8.69 3.081 12.026 6.557 2.949 2.607 4.811 5.978 6.44 9.507.854 1.843 1.655 3.739 2.25 5.819-3.103-.131-5.922.764-8.767 1.528-1.862.974-3.905 1.632-5.664 2.817-.983.659-1.293.369-1.448-.684-.13-.79-.388-1.686-1.449-1.422-1.163.289-.801 1.211-.594 2.027 1.655 6.347 3.258 12.719 4.939 19.066.207.79.078 1.106-.698 1.395a1078.07 1078.07 0 0 0-15.362 5.82c-.595.237-1.112.237-1.733.053-10.138-3.266-20.276-6.531-30.621-9.059-.673-.158-.983-.579-1.294-1.132-4.319-7.9-8.638-15.774-12.983-23.648-.362-.658-.698-1.316-1.112-1.922-.336-.5-.879-.606-1.37-.263-.466.316-.673.79-.388 1.369.18.342.362.685.543 1.053.983 1.817 1.965 3.634 2.922 5.399-10.215.895-17.069 7.241-23.638 14.246-.414-.711-.802-1.396-1.19-2.054-.362-.606-.88-.895-1.526-.527-.62.369-.672.975-.31 1.607.103.184.207.395.31.579 2.147 3.818 4.242 7.637 6.414 11.455 4.552 8.005 9.104 16.011 13.707 23.963 3.518 6.083 7.087 12.14 11.044 17.933 1.914 2.818 4.448 4.767 7.836 5.32 3.259.553 6.414-.027 9.517-1.08 3.699-1.264 7.216-3.002 10.604-4.977 3.905-2.291 7.837-4.477 11.664-6.926 1.448-.921 2.69-1.237 4.112-.316.828.527 1.759.553 2.638.79 3.388.975 6.776 1.975 10.19 2.871.854.21 1.086.632 1.138 1.422.207 2.712.466 5.424.724 8.11.078.817.104 1.844 1.293 1.659 1.112-.158.906-1.079.828-1.869-.233-2.449-.44-4.898-.698-7.347-.104-.922.051-1.212 1.06-.975 3.802.948 7.629 1.87 11.535 2.291 2.974.316 5.922.211 8.845-.763 6.026-1.923 8.483-6.926 8.276-12.904zm-63.105-58.223a1290.697 1290.697 0 0 0-3.103 6.268c-1.552-3.371-3.026-6.531-4.475-9.691-2.922-6.346-5.793-12.719-8.741-19.039-.362-.79-.285-1.238.388-1.764a19.444 19.444 0 0 0 2.327-2.081c.647-.684.906-.395 1.268.29a11240.24 11240.24 0 0 0 12.284 25.043c.13.342.259.606.052.974zm11.664-20.092l-3.336 24.095c0 .079-.078.132-.233.342l-5.121-4.74c-.336-.289-.207-.605-.077-.948 2.715-6.82 5.431-13.64 8.121-20.461.051-.105.103-.237.206-.447.44.816.544 1.448.44 2.159zm-7.784 53.457c2.172.684 4.344 1.369 6.879 2.185-2.767 1.106-5.147 2.081-7.552 3.055-3.672 1.475-7.371 2.949-11.043 4.424-.492.184-.983.395-1.5.342-4.837-.526-9.621.422-14.432.685-1.94.105-3.879.237-5.793-.079-.258-.053-.517-.053-.75-.158-.569-.211-1.241-.421-1.241-1.159 0-.684.62-.895 1.138-1.079 1.603-.553 3.284-.685 4.965-.79 4.035-.29 8.095-.237 12.156-.316.388 0 .776 0 1.164-.053.62-.105 1.034-.474.982-1.159-.051-.684-.465-1.053-1.112-1.027-1.293 0-2.586.079-3.88.106-4.137.079-8.275.026-12.387.605-1.035.132-2.017.422-3 .764-.337.132-.75.843-1.138.026-.31-.658-.517-1.343.233-1.869.698-.474 1.5-.659 2.301-.764 3.31-.5 6.621-.316 9.931-.316 1.888 0 3.802 0 5.69-.053.673 0 1.216-.316 1.19-1.106-.026-.842-.57-1.106-1.32-1.079-4.447.158-8.87-.185-13.318.105-1.94.132-3.854.342-5.612 1.343-.285.184-.518.263-.725-.132-.31-.632-.44-1.264.156-1.79.775-.685 1.707-1.001 2.69-1.185 3.232-.685 6.517-.685 9.775-.58 1.707.053 3.44.185 5.173.316.698.053 1.345 0 1.526-.816.18-.843-.414-1.159-1.06-1.396a2280.817 2280.817 0 0 1-12.415-4.45c-.491-.184-.93-.421-1.396-.632 2.12-.553 4.138-.079 6.13.369 9.31 2.027 18.465 4.792 27.595 7.663zm1.37 34.259c-4.629 2.607-9.155 5.451-14.172 7.268-1.656.606-3.363 1.08-5.121 1.317-4.63.632-8.25-.922-10.914-4.898-4.112-6.188-7.888-12.535-11.587-18.986-5.534-9.638-11.017-19.329-16.5-28.993-.336-.58-.647-1.08-.078-1.765 4.914-5.951 10.682-10.665 18.104-13.008.57-.185 1.164-.29 1.759-.369 2.896-.369 3.362-.105 4.784 2.502 1.992 3.686 4.035 7.347 6.052 11.007.362.685.724 1.369 1.216 2.265-2.198-.343-4.138-.659-6.104-.948-1.034-.158-2.069-.211-3.103-.053-1.009.158-1.655.764-1.888 1.738-.233 1.027.258 1.791 1.138 2.291 1.888 1.106 3.957 1.712 5.974 2.423.31.105.672.105.905.526-2.172.158-4.319.185-6.44.553-1.5.264-2.948.632-4.241 1.475-2.172 1.396-2.405 3.95-.491 5.741.155.158.388.237.336.5-.336 2.107 1.293 3.634 1.655 5.556.285 1.528 1.836 1.975 3.233 2.239 3.44.632 6.88.184 10.293-.106 3.517-.289 7.035-.842 10.552-.342.672.105 1.267-.158 1.862-.395 11.716-4.74 23.432-9.454 35.251-13.904 1.06-.395 2.121-.711 3.181-1.132.569-.237.75-.027.879.5 1.293 5.003 2.561 10.007 3.88 14.984.155.579-.078.869-.492 1.211-9.543 7.558-19.293 14.826-29.923 20.803zm55.036-4.292c-1.086 3.028-3.181 4.924-6.181 5.872-3.156 1.001-6.388 1.001-9.595.422-8.742-1.58-17.328-3.766-25.811-6.478-.336-.106-.647-.237-.931-.343-.13-.421.207-.474.388-.605 6.465-4.424 12.724-9.164 18.931-13.983.931-.711 1.19-1.37.879-2.555-2.974-11.349-5.896-22.699-8.819-34.049-.129-.526-.284-.974.336-1.343 1.811-1 3.544-2.159 5.561-2.712 2.741-1.264 5.586-1.975 8.612-1.843.698.026 1.164.237 1.397 1.027 2.457 8.347 5.534 16.458 8.612 24.569a.905.905 0 0 1 .026.263c2.948 7.795 5.845 15.642 7.086 23.963.362 2.607.414 5.241-.491 7.795z" fill="#200F09"/><path d="M16.421 115.491c-3.672-.422-7.241 3.054-7.345 7.162-.103 4.24 3.414 7.716 7.707 7.584 3.725-.105 6.854-3.37 6.957-7.426.104-4.371-4.034-7.821-7.319-7.32zm.078 12.482c-2.974.026-5.07-2.16-5.224-5.135-.13-2.792 2.715-5.583 5.12-5.214 3.052 0 5.07 2.106 5.096 5.319.025 2.844-2.121 5.003-4.992 5.03zM33.344 140.449c-.853 1.817-1.758 3.792-2.69 5.767-2.017 4.292-4.06 8.584-6.103 12.903-.336.685-.724 1.264-1.577.869-.88-.395-.699-1.106-.388-1.791 2.87-6.056 5.741-12.139 8.638-18.17.31-.632.646-1.369 1.526-1.053.543.184.698.711.594 1.475z" fill="#FCDF5A"/><path d="M89.802 109.612c-.724.395-1.19.053-1.578-.606-1.293-2.159-3.103-3.713-5.405-4.687-.75-.316-1.552-.5-2.38-.448-.775.053-1.473-.079-1.5-1-.05-1.001.75-1.133 1.527-1.185h.388c4.138.526 7.138 2.791 9.284 6.32.337.579.337 1.211-.336 1.606z" fill="#200F09"/><path d="M128.027 35.432c-.594.37-1.034.132-1.37-.474-1.061-1.948-2.173-3.87-3.207-5.82-.569-1.079-.233-1.922.776-1.948.491-.105.724.29.931.685 1.112 2.027 2.198 4.055 3.31 6.056.44.711.103 1.16-.44 1.501zM125.182 39.934c-.026.632-.285.921-.647 1.106-.388.184-.776.131-1.06-.185a9.167 9.167 0 0 1-.854-1.132 399.845 399.845 0 0 1-2.612-4.345c-.388-.632-.465-1.29.259-1.712.724-.447 1.164 0 1.552.632.931 1.554 1.913 3.081 2.87 4.635.207.369.362.764.492 1z" fill="#FA9BE1"/><path d="M129.888 115.406c-1.293.526-2.431 1.211-3.336 2.343-.311.422-.854.369-1.293.053-.414-.263-.518-.685-.388-1.132.31-1.133 3.258-3.266 4.474-3.213.465.026.828.211.957.711.129.474.129 1.027-.414 1.238zM107.725 92.626c0 .711-1.526 1.712-2.741 1.712-.518 0-.88-.369-.906-1.027-.025-.737 1.475-1.712 2.587-1.686.646-.026 1.06.29 1.06 1.001zM110.518 99.343c-.103.816-.569 1.29-1.371 1.264-.801-.027-1.293-.553-1.241-1.37.052-.79.517-1.316 1.345-1.264.828.027 1.216.58 1.267 1.37zM127.743 98.025c-.828 0-1.293-.422-1.345-1.238-.052-.895.517-1.316 1.293-1.37 1.06-.236 1.19.633 1.215 1.239.026.684-.258 1.369-1.163 1.369z" fill="#200F09"/><path d="M48.683 254.629c-.259-.105-.31-.263-.052-.421.13.132.155.263.052.421zM49.016 256.446c-.31-.027-.44-.158-.155-.422.052.158.103.29.155.422zM49.33 256.999h-.13l-.052-.105c.104-.027.156.026.181.105z" fill="#FA9BE1"/><path d="M84.19 199.41c-2.2-.342-4.139-.658-6.105-.948-1.034-.158-2.069-.211-3.103-.026-1.009.158-1.655.737-1.888 1.738-.233 1.027.259 1.79 1.138 2.291 1.888 1.106 3.957 1.711 5.974 2.422.31.106.673.106.905.527-2.172.158-4.319.184-6.44.553-1.5.263-2.948.632-4.24 1.475-2.173 1.395-2.406 3.95-.492 5.714.155.158.362.237.336.5-.336 2.107 1.293 3.634 1.655 5.583.285 1.501 1.836 1.975 3.233 2.238 3.44.632 6.88.185 10.32-.105 3.516-.29 7.008-.843 10.551-.342.672.105 1.267-.158 1.862-.395 11.716-4.74 23.432-9.454 35.251-13.904 1.06-.395 2.121-.711 3.155-1.133.569-.237.75-.026.879.501 1.294 5.003 2.561 10.006 3.88 14.983.155.58-.078.896-.492 1.212-9.595 7.505-19.345 14.773-29.974 20.75-4.63 2.607-9.156 5.425-14.173 7.268-1.655.606-3.362 1.08-5.12 1.317-4.63.632-8.25-.922-10.915-4.898-4.112-6.188-7.888-12.535-11.586-18.96-5.535-9.638-11.018-19.329-16.5-29.019-.337-.58-.673-1.08-.078-1.765 4.914-5.951 10.681-10.665 18.104-13.008.569-.185 1.164-.29 1.758-.369 2.897-.369 3.363-.105 4.785 2.502 1.991 3.686 4.034 7.347 6.052 11.007.44.711.802 1.396 1.267 2.291z" fill="#FEFEFE"/><path d="M75.524 200.752c2.12-.553 4.138-.079 6.13.342 9.336 2.054 18.491 4.819 27.62 7.689 2.173.685 4.345 1.37 6.88 2.186-2.767 1.106-5.147 2.08-7.552 3.055-3.672 1.474-7.371 2.949-11.043 4.424-.492.184-.983.421-1.5.342-4.837-.527-9.621.448-14.432.685-1.94.105-3.879.237-5.793-.079-.258-.053-.517-.053-.75-.158-.569-.211-1.241-.422-1.241-1.159 0-.685.62-.895 1.138-1.08 1.603-.553 3.284-.684 4.965-.79 4.035-.289 8.095-.237 12.156-.316.388 0 .776 0 1.163-.052.621-.106 1.035-.474.983-1.159-.051-.685-.465-1.053-1.112-1.027-1.293 0-2.586.079-3.88.105-4.137.079-8.275.027-12.387.606a16.672 16.672 0 0 0-3 .764c-.337.131-.75.842-1.138.026-.31-.658-.518-1.343.232-1.87.699-.474 1.5-.658 2.302-.763 3.31-.501 6.621-.316 9.931-.316 1.888 0 3.802 0 5.69-.053.673-.026 1.216-.316 1.19-1.106-.026-.843-.57-1.106-1.32-1.08-4.422.158-8.87-.184-13.318.106-1.94.131-3.854.342-5.587 1.343-.31.184-.517.263-.724-.132-.31-.632-.44-1.264.155-1.791.776-.684 1.707-1 2.69-1.185 3.233-.684 6.517-.684 9.776-.579 1.733.053 3.44.184 5.147.316.698.053 1.345 0 1.526-.816.18-.843-.414-1.159-1.06-1.396-4.139-1.475-8.277-2.949-12.415-4.45-.491-.158-.957-.422-1.422-.632zM102.293 181.687c-1.552-3.371-3.026-6.531-4.474-9.691-2.923-6.346-5.794-12.719-8.742-19.039-.362-.79-.284-1.237.388-1.764a19.53 19.53 0 0 0 2.328-2.08c.646-.685.905-.395 1.267.289 4.086 8.348 8.173 16.696 12.285 25.043.155.343.284.606.103.975a273.571 273.571 0 0 0-3.155 6.267zM113.491 179.765l-5.121-4.74c-.336-.29-.207-.606-.077-.948 2.715-6.821 5.405-13.641 8.121-20.461.051-.106.103-.237.206-.448.44.816.544 1.448.44 2.159l-3.336 24.095c0 .079-.078.132-.233.343z" fill="#FEFEFE"/><path d="M70.998 24.124H21.213c-2.095 0-2.147.053-2.147 2.238v45.004c0 1.764.181 1.949 1.914 1.949H71.774c.724 0 1.112-.395 1.19-1.106.052-.527.052-1.054.052-1.58V26.152c0-1.791-.233-2.028-2.018-2.028zm-2.069 2.291c-2.198 2.001-4.138 3.792-6.077 5.556-5.25 4.74-10.5 9.454-15.699 14.273-.93.869-1.474.764-2.328-.026-4.215-3.898-8.508-7.769-12.776-11.64a1105.516 1105.516 0 0 0-8.172-7.452c-.181-.158-.336-.369-.647-.685h45.7v-.026zM21.213 68.127V29.443c0-.421-.207-1.027.155-1.237.492-.264.802.342 1.138.632a6750.545 6750.545 0 0 0 20.845 18.88c.854.764.906 1.186-.026 2.002-6.75 6.057-13.448 12.166-20.172 18.249-.543.5-1.009 1.08-1.759 1.396-.284-.448-.181-.843-.181-1.238zm47.38 2.897H23.101c2.638-2.423 5.043-4.609 7.448-6.794 4.81-4.372 9.647-8.743 14.432-13.14.724-.659 1.138-.87 1.965-.106A4574.968 4574.968 0 0 0 67.56 69.707c.388.342.776.685 1.163 1a.888.888 0 0 1-.129.317zm1.966-1.712c-.388.158-.621-.369-.906-.606-7.06-6.399-14.12-12.824-21.207-19.223-.543-.474-.801-.764-.103-1.396 7.345-6.61 14.664-13.272 21.983-19.908.052-.052.155-.079.44-.263v40.237c.025.369.258.948-.207 1.159z" fill="#13D6A3"/><path d="M122.44 100.396c-.026.053-.078.079-.103.106 0 0-.026 0-.026.026-.026 0-.026.026-.052.026h-.155c-.026 0-.052-.026-.052-.026l-.026-.026c-.026-.027-.052-.053-.052-.079a37.215 37.215 0 0 1-1.267-1.975c-.233-.395.104-.395.362-.422.285.027 1.552 2.107 1.371 2.37z" fill="#FA9BE1"/></g><defs><clipPath id="a"><path fill="#fff" transform="translate(-9)" d="M0 0h288.659v257H0z"/></clipPath></defs></svg>