<svg width="288" height="270" viewBox="0 0 288 270" fill="none" xmlns="http://www.w3.org/2000/svg"><path d="M-5.6 99.022c9.889-9.751 20.398-17.818 31.423-26.263 13.452-10.305 23.76-29.232 40.704-28.99 16.81.241 25.518 20.606 39.368 30.137 13.391 9.213 30.758 12.328 40.856 25.065 10.964 13.83 22.289 31.844 17.79 48.91-4.632 17.569-29.235 20.986-40.063 35.577-9.842 13.261-4.832 36.99-19.468 44.637-14.597 7.625-31.197-8.198-47.605-9.597-15.686-1.337-31.91 7.75-46.396 1.584-15-6.385-24.197-21.332-32.69-35.248-8.984-14.72-21.052-30.658-17.876-47.608 3.193-17.037 21.615-26.034 33.957-38.204z" fill="#FFF7FA"/><path d="M329.233 8.842c5.817 11.237-5.816 24.46-4.479 37.043 1.629 15.328 19.764 29.674 13.042 43.546-6.471 13.355-27.269 9.636-41.239 14.642-11.645 4.172-22.099 10.36-34.295 12.425-14.245 2.411-30.291 8.153-42.602.592-12.315-7.564-13.058-24.988-18.746-38.273-5.151-12.03-15.193-23.341-13.174-36.27 2.009-12.865 15.805-19.859 23.571-30.31 6.959-9.363 9.906-21.988 19.841-28.103 10.071-6.198 22.708-6.6 34.465-5.321 11.212 1.22 20.65 7.611 30.849 12.425 11.407 5.385 26.969 6.402 32.767 17.604z" fill="#F2EBFF"/></svg>