<svg width="911" height="534" viewBox="0 0 911 534" fill="none" xmlns="http://www.w3.org/2000/svg"><path opacity=".1" d="M115.435 256.708c28.711-8.811 50.571 3.124 76.852 3.899 27.959.825 57.632-13.265 81.853.783 25.398 14.731 46.384 10.947 56.021 34.837 14.18 35.149-44.118 45.373-60.059 76.338-14.849 28.842 1.251 61.357-17.756 81.129-21.586 22.454-49.806 6.155-79.556 5.413-29.829-.745-55.097 27.296-75.598 11.15-37.226-29.318-60.397-189.413 18.243-213.549z" fill="#FFA183"/><path opacity=".1" d="M864.691 122.621c25.901 12.933 32.616 26.108 38.516 63.517 11.908 75.502 22.926 120.604-70.059 139.513-50.863 10.343-163.742-23.015-182.285-75.745-13.377-38.039-4.41-85.558 32.551-111.742 32.613-23.104 65.091.879 99.032-9.221 37.425-11.137 54.229-20.311 82.245-6.322z" fill="#B98FFF"/><path opacity=".1" d="M433.286 30.026c28.302 11.62 26.105 45.77 41.908 69.189 17.489 25.916 65.329 46.16 54.066 73.033-11.383 27.157-62.017 12.513-93.804 21.777-25.059 7.303-43.301 31.599-69.86 25.92-27.613-5.905-41.138-31.953-56.577-52.956-17.789-24.198-45.906-48.956-37.807-75.44 8.183-26.758 45.576-34.314 74.758-45.391 28.035-10.642 58.302-28.045 87.316-16.132z" fill="#F57CBD"/></svg>