<svg width="484" height="456" viewBox="0 0 484 456" fill="none" xmlns="http://www.w3.org/2000/svg"><g clip-path="url(#a)"><path d="M-606.641 276.27l1.12-.647 800.639 462.209-1.12.646-800.639-462.208z" fill="url(#b)"/><path d="M193.998-182.06l1.12.646-800.639 462.209-1.12-.647L193.998-182.06z" fill="url(#c)"/><path d="M-593.203 268.512l1.119-.646 800.639 462.208-1.12.647-800.638-462.209z" fill="url(#d)"/><path d="M207.435-174.303l1.12.647-800.639 462.208-1.119-.646 800.638-462.209z" fill="url(#e)"/><path d="M-579.766 260.755l1.12-.646 800.638 462.208-1.12.647-800.638-462.209z" fill="url(#f)"/><path d="M220.872-166.546l1.12.647-800.638 462.208-1.12-.646 800.638-462.209z" fill="url(#g)"/><path d="M-566.329 252.998l1.12-.647L235.43 714.56l-1.12.646-800.639-462.208z" fill="url(#h)"/><path d="M234.31-158.788l1.12.646-800.639 462.209-1.12-.647L234.31-158.788z" fill="url(#i)"/><path d="M-552.892 245.24l1.12-.646 800.639 462.208-1.12.647-800.639-462.209z" fill="url(#j)"/><path d="M247.747-151.031l1.12.647-800.639 462.208-1.12-.646 800.639-462.209z" fill="url(#k)"/><path d="M-539.454 237.483l1.12-.647 800.638 462.209-1.12.647-800.638-462.209z" fill="url(#l)"/><path d="M261.184-143.274l1.12.647-800.638 462.208-1.12-.646 800.638-462.209z" fill="url(#m)"/><path d="M-526.017 229.726l1.12-.647 800.638 462.209-1.119.646-800.639-462.208z" fill="url(#n)"/><path d="M274.622-135.516l1.119.646-800.638 462.209-1.12-.647 800.639-462.208z" fill="url(#o)"/><path d="M-512.58 221.968l1.12-.646L289.179 683.53l-1.12.647-800.639-462.209z" fill="url(#p)"/><path d="M288.059-127.759l1.12.647-800.639 462.208-1.12-.646 800.639-462.209z" fill="url(#q)"/><path d="M-499.142 214.211l1.119-.647 800.639 462.209-1.12.646-800.638-462.208z" fill="url(#r)"/><path d="M301.496-120.002l1.12.647-800.639 462.209-1.119-.647 800.638-462.209z" fill="url(#s)"/><path d="M-485.705 206.454l1.12-.647 800.638 462.209-1.12.646-800.638-462.208z" fill="url(#t)"/><path d="M314.933-112.244l1.12.646-800.638 462.209-1.12-.647 800.638-462.208z" fill="url(#u)"/><path d="M-472.268 198.696l1.12-.646 800.639 462.208-1.12.647-800.639-462.209z" fill="url(#v)"/><path d="M328.371-104.487l1.12.647-800.639 462.208-1.12-.646 800.639-462.209z" fill="url(#w)"/><path d="M-458.83 190.939l1.119-.647 800.639 462.209-1.12.646-800.638-462.208z" fill="url(#x)"/><path d="M341.808-96.73l1.12.647-800.639 462.209-1.12-.647L341.808-96.729z" fill="url(#y)"/><path d="M-445.393 183.181l1.12-.646 800.638 462.209-1.12.646-800.638-462.209z" fill="url(#z)"/><path d="M355.245-88.972l1.12.646-800.638 462.209-1.12-.647L355.245-88.972z" fill="url(#A)"/><path d="M-431.956 175.424l1.12-.646 800.638 462.208-1.119.647-800.639-462.209z" fill="url(#B)"/><path d="M368.683-81.215l1.119.647-800.638 462.208-1.12-.646L368.683-81.215z" fill="url(#C)"/><path d="M-418.519 167.667l1.12-.647L383.24 629.229l-1.12.646-800.639-462.208z" fill="url(#D)"/><path d="M382.12-73.457l1.12.646-800.639 462.209-1.12-.647L382.12-73.457z" fill="url(#E)"/><path d="M-405.081 159.909l1.119-.646 800.639 462.209-1.12.646-800.638-462.209z" fill="url(#F)"/><path d="M395.557-65.7l1.12.646-800.639 462.209-1.119-.646 800.638-462.21z" fill="url(#G)"/><path d="M-391.644 152.152l1.12-.646 800.638 462.208-1.119.647-800.639-462.209z" fill="url(#H)"/><path d="M408.995-57.943l1.119.647-800.638 462.208-1.12-.646L408.995-57.943z" fill="url(#I)"/><path d="M-378.207 144.395l1.12-.647 800.639 462.209-1.12.646-800.639-462.208z" fill="url(#J)"/><path d="M422.432-50.185l1.12.646-800.639 462.209-1.12-.647L422.432-50.185z" fill="url(#K)"/><path d="M-364.769 136.637l1.119-.646L436.989 598.2l-1.12.646-800.638-462.209z" fill="url(#L)"/><path d="M435.869-42.428l1.12.646-800.639 462.209-1.12-.646L435.869-42.428z" fill="url(#M)"/><path d="M-351.332 128.88l1.12-.646 800.638 462.208-1.12.647-800.638-462.209z" fill="url(#N)"/><path d="M449.306-34.67l1.12.646-800.638 462.208-1.12-.646L449.306-34.671z" fill="url(#O)"/><path d="M-337.895 121.123l1.12-.647 800.638 462.209-1.119.646-800.639-462.208z" fill="url(#P)"/><path d="M462.744-26.913l1.119.646-800.638 462.209-1.12-.647L462.744-26.913z" fill="url(#Q)"/><path d="M-324.458 113.365l1.12-.646 800.639 462.209-1.12.646-800.639-462.209z" fill="url(#R)"/><path d="M476.181-19.156l1.12.646L-323.338 443.7l-1.12-.646L476.181-19.156z" fill="url(#S)"/><path d="M-311.02 105.608l1.119-.646L490.738 567.17l-1.12.647-800.638-462.209z" fill="url(#T)"/><path d="M489.618-11.399l1.12.647-800.639 462.208-1.119-.646L489.618-11.399z" fill="url(#U)"/><path d="M-297.583 97.85l1.12-.646 800.638 462.209-1.119.646-800.639-462.208z" fill="url(#V)"/><path d="M503.056-3.641l1.119.646-800.638 462.209-1.12-.647L503.056-3.641z" fill="url(#W)"/><path d="M-284.146 90.093l1.12-.646 800.639 462.208-1.12.647-800.639-462.209z" fill="url(#X)"/><path d="M516.493 4.116l1.12.646-800.639 462.209-1.12-.646L516.493 4.116z" fill="url(#Y)"/><path d="M-270.708 82.336l1.119-.647L531.05 543.899l-1.12.647-800.638-462.209z" fill="url(#Z)"/><path d="M529.93 11.873l1.12.647-800.639 462.208-1.119-.646L529.93 11.873z" fill="url(#aa)"/><path d="M-257.271 74.579l1.12-.647 800.638 462.209-1.12.646-800.638-462.208z" fill="url(#ab)"/><path d="M543.367 19.63l1.12.647-800.638 462.209-1.12-.647L543.367 19.631z" fill="url(#ac)"/><path d="M-243.834 66.821l1.12-.646 800.638 462.208-1.119.647-800.639-462.209z" fill="url(#ad)"/><path d="M556.805 27.388l1.119.646-800.638 462.209-1.12-.646L556.805 27.388z" fill="url(#ae)"/><path d="M-230.397 59.064l1.12-.647 800.639 462.209-1.12.647-800.639-462.21z" fill="url(#af)"/><path d="M570.242 35.145l1.12.647L-229.277 498l-1.12-.646L570.242 35.145z" fill="url(#ag)"/><path d="M-216.959 51.307l1.119-.647L584.799 512.87l-1.12.646-800.638-462.208z" fill="url(#ah)"/><path d="M583.679 42.903l1.12.646-800.639 462.209-1.119-.647L583.679 42.903z" fill="url(#ai)"/><path d="M-203.522 43.55l1.12-.647L598.236 505.11l-1.119.647-800.639-462.209z" fill="url(#aj)"/><path d="M597.117 50.66l1.119.647-800.638 462.208-1.12-.646L597.117 50.66z" fill="url(#ak)"/><path d="M-190.085 35.792l1.12-.647 800.639 462.209-1.12.647-800.639-462.21z" fill="url(#al)"/><path d="M610.554 58.417l1.12.647-800.639 462.208-1.12-.646L610.554 58.418z" fill="url(#am)"/><path d="M-176.647 28.035l1.119-.647 800.639 462.209-1.12.646-800.638-462.209z" fill="url(#an)"/><path d="M623.991 66.175l1.12.646-800.639 462.209-1.119-.647L623.991 66.175z" fill="url(#ao)"/><path d="M-163.21 20.277l1.12-.646 800.638 462.208-1.12.647L-163.21 20.277z" fill="url(#ap)"/><path d="M637.428 73.932l1.12.647-800.638 462.208-1.12-.646L637.428 73.932z" fill="url(#aq)"/><path d="M-149.773 12.52l1.12-.647 800.639 462.209-1.12.646L-149.773 12.52z" fill="url(#ar)"/><path d="M650.866 81.69l1.12.646-800.639 462.209-1.12-.647L650.866 81.689z" fill="url(#as)"/><path d="M-136.336 4.763l1.12-.647 800.639 462.209-1.12.646L-136.336 4.763z" fill="url(#at)"/><path d="M664.303 89.447l1.12.646-800.639 462.209-1.12-.647L664.303 89.447z" fill="url(#au)"/><path d="M-122.898-2.995l1.12-.646L678.86 458.567l-1.12.647L-122.898-2.995z" fill="url(#av)"/><path d="M677.74 97.204l1.12.647-800.638 462.208-1.12-.646L677.74 97.204z" fill="url(#aw)"/><path d="M-109.461-10.752l1.12-.647L692.297 450.81l-1.119.646-800.639-462.208z" fill="url(#ax)"/><path d="M691.178 104.962l1.119.646-800.638 462.209-1.12-.647 800.639-462.208z" fill="url(#ay)"/><path d="M-96.024-18.51l1.12-.646 800.639 462.209-1.12.646L-96.024-18.51z" fill="url(#az)"/><path d="M704.615 112.719l1.12.646-800.639 462.209-1.12-.647 800.639-462.208z" fill="url(#aA)"/><path d="M-82.586-26.267l1.12-.646 800.638 462.208-1.12.647L-82.586-26.267z" fill="url(#aB)"/><path d="M718.052 120.476l1.12.647-800.639 462.208-1.12-.646 800.639-462.209z" fill="url(#aC)"/><path d="M-69.15-34.024l1.12-.647L732.61 427.538l-1.12.646L-69.149-34.024z" fill="url(#aD)"/><path d="M731.489 128.234l1.12.646-800.638 462.209-1.12-.647 800.638-462.208z" fill="url(#aE)"/><path d="M-55.712-41.782l1.12-.646 800.639 462.209-1.12.646L-55.712-41.782z" fill="url(#aF)"/><path d="M744.927 135.991l1.12.646-800.639 462.209-1.12-.646 800.639-462.209z" fill="url(#aG)"/><path d="M-42.275-49.539l1.12-.646 800.639 462.208-1.12.647L-42.275-49.539z" fill="url(#aH)"/><path d="M758.364 143.748l1.12.647-800.639 462.208-1.12-.646 800.639-462.209z" fill="url(#aI)"/><path d="M-28.837-57.296l1.12-.647L772.92 404.266l-1.12.646L-28.837-57.296z" fill="url(#aJ)"/><path d="M771.801 151.506l1.12.646-800.639 462.209-1.12-.647 800.639-462.208z" fill="url(#aK)"/><path d="M-15.4-65.054l1.12-.646 800.638 462.209-1.119.646L-15.4-65.054z" fill="url(#aL)"/><path d="M785.239 159.263l1.119.646L-14.28 622.118l-1.12-.646 800.639-462.209z" fill="url(#aM)"/><path d="M-1.963-72.811l1.12-.646L799.796 388.75l-1.12.647L-1.963-72.811z" fill="url(#aN)"/><path d="M798.676 167.02l1.12.647L-.843 629.875l-1.12-.646L798.676 167.02z" fill="url(#aO)"/><path d="M11.475-80.568l1.12-.647 800.638 462.209-1.12.646L11.475-80.568z" fill="url(#aP)"/><path d="M812.113 174.778l1.12.646L12.594 637.633l-1.12-.647 800.639-462.208z" fill="url(#aQ)"/><path d="M24.912-88.326l1.12-.646L826.67 373.237l-1.12.646L24.912-88.326z" fill="url(#aR)"/><path d="M825.55 182.535l1.12.646L26.032 645.39l-1.12-.646L825.55 182.535z" fill="url(#aS)"/><path d="M38.35-96.083l1.119-.647L840.108 365.48l-1.12.647L38.349-96.083z" fill="url(#aT)"/><path d="M838.988 190.292l1.12.647-800.64 462.208-1.119-.646 800.639-462.209z" fill="url(#aU)"/><path d="M51.786-103.84l1.12-.647 800.639 462.209-1.12.646L51.787-103.84z" fill="url(#aV)"/><path d="M852.425 198.05l1.12.646L52.906 660.905l-1.12-.647L852.426 198.05z" fill="url(#aW)"/><path d="M65.224-111.598l1.12-.646 800.638 462.208-1.12.647L65.224-111.598z" fill="url(#aX)"/><path d="M865.862 205.807l1.12.647L66.343 668.662l-1.12-.646 800.639-462.209z" fill="url(#aY)"/><path d="M78.661-119.355l1.12-.647 800.638 462.209-1.119.647L78.661-119.355z" fill="url(#aZ)"/><path d="M879.3 213.564l1.119.647L79.781 676.419l-1.12-.646L879.3 213.564z" fill="url(#ba)"/><path d="M92.098-127.112l1.12-.647L893.857 334.45l-1.12.646L92.098-127.112z" fill="url(#bb)"/><path d="M892.737 221.322l1.12.646L93.218 684.177l-1.12-.647 800.639-462.208z" fill="url(#bc)"/><path d="M105.536-134.87l1.119-.646 800.639 462.208-1.12.647L105.536-134.87z" fill="url(#bd)"/><path d="M906.174 229.079l1.12.647-800.639 462.208-1.119-.646 800.638-462.209z" fill="url(#be)"/><path d="M118.973-142.627l1.12-.647 800.638 462.209-1.12.647-800.638-462.209z" fill="url(#bf)"/><path d="M919.611 236.836l1.12.647-800.638 462.208-1.12-.646 800.638-462.209z" fill="url(#bg)"/><path d="M132.41-150.384l1.12-.647 800.639 462.209-1.12.646L132.41-150.384z" fill="url(#bh)"/><path d="M933.049 244.594l1.12.646L133.53 707.449l-1.12-.647 800.639-462.208z" fill="url(#bi)"/><path d="M145.848-158.142l1.119-.646L947.606 303.42l-1.12.647-800.638-462.209z" fill="url(#bj)"/><path d="M946.486 252.351l1.12.647-800.639 462.208-1.12-.646 800.639-462.209z" fill="url(#bk)"/><path d="M159.285-165.899l1.12-.647 800.638 462.209-1.12.646-800.638-462.208z" fill="url(#bl)"/><path d="M959.923 260.108l1.12.647-800.638 462.208-1.12-.646 800.638-462.209z" fill="url(#bm)"/><path d="M172.722-173.656l1.12-.647L974.48 287.906l-1.119.646-800.639-462.208z" fill="url(#bn)"/><path d="M973.361 267.866l1.119.646-800.638 462.209-1.12-.647 800.639-462.208z" fill="url(#bo)"/><path d="M186.159-181.414l1.12-.646 800.639 462.208-1.12.647-800.639-462.209z" fill="url(#bp)"/><path d="M986.798 275.623l1.12.647-800.639 462.208-1.12-.646 800.639-462.209z" fill="url(#bq)"/></g><defs><radialGradient id="b" cx="0" cy="0" r="1" gradientUnits="userSpaceOnUse" gradientTransform="matrix(312.4435 2.16405 -1.87405 270.57251 203.057 256.336)"><stop stop-color="#EDF3FA"/><stop offset="1" stop-color="#F1F4F8" stop-opacity="0"/></radialGradient><radialGradient id="c" cx="0" cy="0" r="1" gradientUnits="userSpaceOnUse" gradientTransform="matrix(312.4435 2.16405 -1.87405 270.57251 203.057 256.336)"><stop stop-color="#EDF3FA"/><stop offset="1" stop-color="#F1F4F8" stop-opacity="0"/></radialGradient><radialGradient id="d" cx="0" cy="0" r="1" gradientUnits="userSpaceOnUse" gradientTransform="matrix(312.4435 2.16405 -1.87405 270.57251 203.057 256.336)"><stop stop-color="#EDF3FA"/><stop offset="1" stop-color="#F1F4F8" stop-opacity="0"/></radialGradient><radialGradient id="e" cx="0" cy="0" r="1" gradientUnits="userSpaceOnUse" gradientTransform="matrix(312.4435 2.16405 -1.87405 270.57251 203.057 256.336)"><stop stop-color="#EDF3FA"/><stop offset="1" stop-color="#F1F4F8" stop-opacity="0"/></radialGradient><radialGradient id="f" cx="0" cy="0" r="1" gradientUnits="userSpaceOnUse" gradientTransform="matrix(312.4435 2.16405 -1.87405 270.57251 203.057 256.336)"><stop stop-color="#EDF3FA"/><stop offset="1" stop-color="#F1F4F8" stop-opacity="0"/></radialGradient><radialGradient id="g" cx="0" cy="0" r="1" gradientUnits="userSpaceOnUse" gradientTransform="matrix(312.4435 2.16405 -1.87405 270.57251 203.057 256.336)"><stop stop-color="#EDF3FA"/><stop offset="1" stop-color="#F1F4F8" stop-opacity="0"/></radialGradient><radialGradient id="h" cx="0" cy="0" r="1" gradientUnits="userSpaceOnUse" gradientTransform="matrix(312.4435 2.16405 -1.87405 270.57251 203.057 256.336)"><stop stop-color="#EDF3FA"/><stop offset="1" stop-color="#F1F4F8" stop-opacity="0"/></radialGradient><radialGradient id="i" cx="0" cy="0" r="1" gradientUnits="userSpaceOnUse" gradientTransform="matrix(312.4435 2.16405 -1.87405 270.57251 203.057 256.336)"><stop stop-color="#EDF3FA"/><stop offset="1" stop-color="#F1F4F8" stop-opacity="0"/></radialGradient><radialGradient id="j" cx="0" cy="0" r="1" gradientUnits="userSpaceOnUse" gradientTransform="matrix(312.4435 2.16405 -1.87405 270.57251 203.057 256.336)"><stop stop-color="#EDF3FA"/><stop offset="1" stop-color="#F1F4F8" stop-opacity="0"/></radialGradient><radialGradient id="k" cx="0" cy="0" r="1" gradientUnits="userSpaceOnUse" gradientTransform="matrix(312.4435 2.16405 -1.87405 270.57251 203.057 256.336)"><stop stop-color="#EDF3FA"/><stop offset="1" stop-color="#F1F4F8" stop-opacity="0"/></radialGradient><radialGradient id="l" cx="0" cy="0" r="1" gradientUnits="userSpaceOnUse" gradientTransform="matrix(312.4435 2.16405 -1.87405 270.57251 203.057 256.336)"><stop stop-color="#EDF3FA"/><stop offset="1" stop-color="#F1F4F8" stop-opacity="0"/></radialGradient><radialGradient id="m" cx="0" cy="0" r="1" gradientUnits="userSpaceOnUse" gradientTransform="matrix(312.4435 2.16405 -1.87405 270.57251 203.057 256.336)"><stop stop-color="#EDF3FA"/><stop offset="1" stop-color="#F1F4F8" stop-opacity="0"/></radialGradient><radialGradient id="n" cx="0" cy="0" r="1" gradientUnits="userSpaceOnUse" gradientTransform="matrix(312.4435 2.16405 -1.87405 270.57251 203.057 256.336)"><stop stop-color="#EDF3FA"/><stop offset="1" stop-color="#F1F4F8" stop-opacity="0"/></radialGradient><radialGradient id="o" cx="0" cy="0" r="1" gradientUnits="userSpaceOnUse" gradientTransform="matrix(312.4435 2.16405 -1.87405 270.57251 203.057 256.336)"><stop stop-color="#EDF3FA"/><stop offset="1" stop-color="#F1F4F8" stop-opacity="0"/></radialGradient><radialGradient id="p" cx="0" cy="0" r="1" gradientUnits="userSpaceOnUse" gradientTransform="matrix(312.4435 2.16405 -1.87405 270.57251 203.057 256.336)"><stop stop-color="#EDF3FA"/><stop offset="1" stop-color="#F1F4F8" stop-opacity="0"/></radialGradient><radialGradient id="q" cx="0" cy="0" r="1" gradientUnits="userSpaceOnUse" gradientTransform="matrix(312.4435 2.16405 -1.87405 270.57251 203.057 256.336)"><stop stop-color="#EDF3FA"/><stop offset="1" stop-color="#F1F4F8" stop-opacity="0"/></radialGradient><radialGradient id="r" cx="0" cy="0" r="1" gradientUnits="userSpaceOnUse" gradientTransform="matrix(312.4435 2.16405 -1.87405 270.57251 203.057 256.336)"><stop stop-color="#EDF3FA"/><stop offset="1" stop-color="#F1F4F8" stop-opacity="0"/></radialGradient><radialGradient id="s" cx="0" cy="0" r="1" gradientUnits="userSpaceOnUse" gradientTransform="matrix(312.4435 2.16405 -1.87405 270.57251 203.057 256.336)"><stop stop-color="#EDF3FA"/><stop offset="1" stop-color="#F1F4F8" stop-opacity="0"/></radialGradient><radialGradient id="t" cx="0" cy="0" r="1" gradientUnits="userSpaceOnUse" gradientTransform="matrix(312.4435 2.16405 -1.87405 270.57251 203.057 256.336)"><stop stop-color="#EDF3FA"/><stop offset="1" stop-color="#F1F4F8" stop-opacity="0"/></radialGradient><radialGradient id="u" cx="0" cy="0" r="1" gradientUnits="userSpaceOnUse" gradientTransform="matrix(312.4435 2.16405 -1.87405 270.57251 203.057 256.336)"><stop stop-color="#EDF3FA"/><stop offset="1" stop-color="#F1F4F8" stop-opacity="0"/></radialGradient><radialGradient id="v" cx="0" cy="0" r="1" gradientUnits="userSpaceOnUse" gradientTransform="matrix(312.4435 2.16405 -1.87405 270.57251 203.057 256.336)"><stop stop-color="#EDF3FA"/><stop offset="1" stop-color="#F1F4F8" stop-opacity="0"/></radialGradient><radialGradient id="w" cx="0" cy="0" r="1" gradientUnits="userSpaceOnUse" gradientTransform="matrix(312.4435 2.16405 -1.87405 270.57251 203.057 256.336)"><stop stop-color="#EDF3FA"/><stop offset="1" stop-color="#F1F4F8" stop-opacity="0"/></radialGradient><radialGradient id="x" cx="0" cy="0" r="1" gradientUnits="userSpaceOnUse" gradientTransform="matrix(312.4435 2.16405 -1.87405 270.57251 203.057 256.336)"><stop stop-color="#EDF3FA"/><stop offset="1" stop-color="#F1F4F8" stop-opacity="0"/></radialGradient><radialGradient id="y" cx="0" cy="0" r="1" gradientUnits="userSpaceOnUse" gradientTransform="matrix(312.4435 2.16405 -1.87405 270.57251 203.057 256.336)"><stop stop-color="#EDF3FA"/><stop offset="1" stop-color="#F1F4F8" stop-opacity="0"/></radialGradient><radialGradient id="z" cx="0" cy="0" r="1" gradientUnits="userSpaceOnUse" gradientTransform="matrix(312.4435 2.16405 -1.87405 270.57251 203.057 256.336)"><stop stop-color="#EDF3FA"/><stop offset="1" stop-color="#F1F4F8" stop-opacity="0"/></radialGradient><radialGradient id="A" cx="0" cy="0" r="1" gradientUnits="userSpaceOnUse" gradientTransform="matrix(312.4435 2.16405 -1.87405 270.57251 203.057 256.336)"><stop stop-color="#EDF3FA"/><stop offset="1" stop-color="#F1F4F8" stop-opacity="0"/></radialGradient><radialGradient id="B" cx="0" cy="0" r="1" gradientUnits="userSpaceOnUse" gradientTransform="matrix(312.4435 2.16405 -1.87405 270.57251 203.057 256.336)"><stop stop-color="#EDF3FA"/><stop offset="1" stop-color="#F1F4F8" stop-opacity="0"/></radialGradient><radialGradient id="C" cx="0" cy="0" r="1" gradientUnits="userSpaceOnUse" gradientTransform="matrix(312.4435 2.16405 -1.87405 270.57251 203.057 256.336)"><stop stop-color="#EDF3FA"/><stop offset="1" stop-color="#F1F4F8" stop-opacity="0"/></radialGradient><radialGradient id="D" cx="0" cy="0" r="1" gradientUnits="userSpaceOnUse" gradientTransform="matrix(312.4435 2.16405 -1.87405 270.57251 203.057 256.336)"><stop stop-color="#EDF3FA"/><stop offset="1" stop-color="#F1F4F8" stop-opacity="0"/></radialGradient><radialGradient id="E" cx="0" cy="0" r="1" gradientUnits="userSpaceOnUse" gradientTransform="matrix(312.4435 2.16405 -1.87405 270.57251 203.057 256.336)"><stop stop-color="#EDF3FA"/><stop offset="1" stop-color="#F1F4F8" stop-opacity="0"/></radialGradient><radialGradient id="F" cx="0" cy="0" r="1" gradientUnits="userSpaceOnUse" gradientTransform="matrix(312.4435 2.16405 -1.87405 270.57251 203.057 256.336)"><stop stop-color="#EDF3FA"/><stop offset="1" stop-color="#F1F4F8" stop-opacity="0"/></radialGradient><radialGradient id="G" cx="0" cy="0" r="1" gradientUnits="userSpaceOnUse" gradientTransform="matrix(312.4435 2.16405 -1.87405 270.57251 203.057 256.336)"><stop stop-color="#EDF3FA"/><stop offset="1" stop-color="#F1F4F8" stop-opacity="0"/></radialGradient><radialGradient id="H" cx="0" cy="0" r="1" gradientUnits="userSpaceOnUse" gradientTransform="matrix(312.4435 2.16405 -1.87405 270.57251 203.057 256.336)"><stop stop-color="#EDF3FA"/><stop offset="1" stop-color="#F1F4F8" stop-opacity="0"/></radialGradient><radialGradient id="I" cx="0" cy="0" r="1" gradientUnits="userSpaceOnUse" gradientTransform="matrix(312.4435 2.16405 -1.87405 270.57251 203.057 256.336)"><stop stop-color="#EDF3FA"/><stop offset="1" stop-color="#F1F4F8" stop-opacity="0"/></radialGradient><radialGradient id="J" cx="0" cy="0" r="1" gradientUnits="userSpaceOnUse" gradientTransform="matrix(312.4435 2.16405 -1.87405 270.57251 203.057 256.336)"><stop stop-color="#EDF3FA"/><stop offset="1" stop-color="#F1F4F8" stop-opacity="0"/></radialGradient><radialGradient id="K" cx="0" cy="0" r="1" gradientUnits="userSpaceOnUse" gradientTransform="matrix(312.4435 2.16405 -1.87405 270.57251 203.057 256.336)"><stop stop-color="#EDF3FA"/><stop offset="1" stop-color="#F1F4F8" stop-opacity="0"/></radialGradient><radialGradient id="L" cx="0" cy="0" r="1" gradientUnits="userSpaceOnUse" gradientTransform="matrix(312.4435 2.16405 -1.87405 270.57251 203.057 256.336)"><stop stop-color="#EDF3FA"/><stop offset="1" stop-color="#F1F4F8" stop-opacity="0"/></radialGradient><radialGradient id="M" cx="0" cy="0" r="1" gradientUnits="userSpaceOnUse" gradientTransform="matrix(312.4435 2.16405 -1.87405 270.57251 203.057 256.336)"><stop stop-color="#EDF3FA"/><stop offset="1" stop-color="#F1F4F8" stop-opacity="0"/></radialGradient><radialGradient id="N" cx="0" cy="0" r="1" gradientUnits="userSpaceOnUse" gradientTransform="matrix(312.4435 2.16405 -1.87405 270.57251 203.057 256.336)"><stop stop-color="#EDF3FA"/><stop offset="1" stop-color="#F1F4F8" stop-opacity="0"/></radialGradient><radialGradient id="O" cx="0" cy="0" r="1" gradientUnits="userSpaceOnUse" gradientTransform="matrix(312.4435 2.16405 -1.87405 270.57251 203.057 256.336)"><stop stop-color="#EDF3FA"/><stop offset="1" stop-color="#F1F4F8" stop-opacity="0"/></radialGradient><radialGradient id="P" cx="0" cy="0" r="1" gradientUnits="userSpaceOnUse" gradientTransform="matrix(312.4435 2.16405 -1.87405 270.57251 203.057 256.336)"><stop stop-color="#EDF3FA"/><stop offset="1" stop-color="#F1F4F8" stop-opacity="0"/></radialGradient><radialGradient id="Q" cx="0" cy="0" r="1" gradientUnits="userSpaceOnUse" gradientTransform="matrix(312.4435 2.16405 -1.87405 270.57251 203.057 256.336)"><stop stop-color="#EDF3FA"/><stop offset="1" stop-color="#F1F4F8" stop-opacity="0"/></radialGradient><radialGradient id="R" cx="0" cy="0" r="1" gradientUnits="userSpaceOnUse" gradientTransform="matrix(312.4435 2.16405 -1.87405 270.57251 203.057 256.336)"><stop stop-color="#EDF3FA"/><stop offset="1" stop-color="#F1F4F8" stop-opacity="0"/></radialGradient><radialGradient id="S" cx="0" cy="0" r="1" gradientUnits="userSpaceOnUse" gradientTransform="matrix(312.4435 2.16405 -1.87405 270.57251 203.057 256.336)"><stop stop-color="#EDF3FA"/><stop offset="1" stop-color="#F1F4F8" stop-opacity="0"/></radialGradient><radialGradient id="T" cx="0" cy="0" r="1" gradientUnits="userSpaceOnUse" gradientTransform="matrix(312.4435 2.16405 -1.87405 270.57251 203.057 256.336)"><stop stop-color="#EDF3FA"/><stop offset="1" stop-color="#F1F4F8" stop-opacity="0"/></radialGradient><radialGradient id="U" cx="0" cy="0" r="1" gradientUnits="userSpaceOnUse" gradientTransform="matrix(312.4435 2.16405 -1.87405 270.57251 203.057 256.336)"><stop stop-color="#EDF3FA"/><stop offset="1" stop-color="#F1F4F8" stop-opacity="0"/></radialGradient><radialGradient id="V" cx="0" cy="0" r="1" gradientUnits="userSpaceOnUse" gradientTransform="matrix(312.4435 2.16405 -1.87405 270.57251 203.057 256.336)"><stop stop-color="#EDF3FA"/><stop offset="1" stop-color="#F1F4F8" stop-opacity="0"/></radialGradient><radialGradient id="W" cx="0" cy="0" r="1" gradientUnits="userSpaceOnUse" gradientTransform="matrix(312.4435 2.16405 -1.87405 270.57251 203.057 256.336)"><stop stop-color="#EDF3FA"/><stop offset="1" stop-color="#F1F4F8" stop-opacity="0"/></radialGradient><radialGradient id="X" cx="0" cy="0" r="1" gradientUnits="userSpaceOnUse" gradientTransform="matrix(312.4435 2.16405 -1.87405 270.57251 203.057 256.336)"><stop stop-color="#EDF3FA"/><stop offset="1" stop-color="#F1F4F8" stop-opacity="0"/></radialGradient><radialGradient id="Y" cx="0" cy="0" r="1" gradientUnits="userSpaceOnUse" gradientTransform="matrix(312.4435 2.16405 -1.87405 270.57251 203.057 256.336)"><stop stop-color="#EDF3FA"/><stop offset="1" stop-color="#F1F4F8" stop-opacity="0"/></radialGradient><radialGradient id="Z" cx="0" cy="0" r="1" gradientUnits="userSpaceOnUse" gradientTransform="matrix(312.4435 2.16405 -1.87405 270.57251 203.057 256.336)"><stop stop-color="#EDF3FA"/><stop offset="1" stop-color="#F1F4F8" stop-opacity="0"/></radialGradient><radialGradient id="aa" cx="0" cy="0" r="1" gradientUnits="userSpaceOnUse" gradientTransform="matrix(312.4435 2.16405 -1.87405 270.57251 203.057 256.336)"><stop stop-color="#EDF3FA"/><stop offset="1" stop-color="#F1F4F8" stop-opacity="0"/></radialGradient><radialGradient id="ab" cx="0" cy="0" r="1" gradientUnits="userSpaceOnUse" gradientTransform="matrix(312.4435 2.16405 -1.87405 270.57251 203.057 256.336)"><stop stop-color="#EDF3FA"/><stop offset="1" stop-color="#F1F4F8" stop-opacity="0"/></radialGradient><radialGradient id="ac" cx="0" cy="0" r="1" gradientUnits="userSpaceOnUse" gradientTransform="matrix(312.4435 2.16405 -1.87405 270.57251 203.057 256.336)"><stop stop-color="#EDF3FA"/><stop offset="1" stop-color="#F1F4F8" stop-opacity="0"/></radialGradient><radialGradient id="ad" cx="0" cy="0" r="1" gradientUnits="userSpaceOnUse" gradientTransform="matrix(312.4435 2.16405 -1.87405 270.57251 203.057 256.336)"><stop stop-color="#EDF3FA"/><stop offset="1" stop-color="#F1F4F8" stop-opacity="0"/></radialGradient><radialGradient id="ae" cx="0" cy="0" r="1" gradientUnits="userSpaceOnUse" gradientTransform="matrix(312.4435 2.16405 -1.87405 270.57251 203.057 256.336)"><stop stop-color="#EDF3FA"/><stop offset="1" stop-color="#F1F4F8" stop-opacity="0"/></radialGradient><radialGradient id="af" cx="0" cy="0" r="1" gradientUnits="userSpaceOnUse" gradientTransform="matrix(312.4435 2.16405 -1.87405 270.57251 203.057 256.336)"><stop stop-color="#EDF3FA"/><stop offset="1" stop-color="#F1F4F8" stop-opacity="0"/></radialGradient><radialGradient id="ag" cx="0" cy="0" r="1" gradientUnits="userSpaceOnUse" gradientTransform="matrix(312.4435 2.16405 -1.87405 270.57251 203.057 256.336)"><stop stop-color="#EDF3FA"/><stop offset="1" stop-color="#F1F4F8" stop-opacity="0"/></radialGradient><radialGradient id="ah" cx="0" cy="0" r="1" gradientUnits="userSpaceOnUse" gradientTransform="matrix(312.4435 2.16405 -1.87405 270.57251 203.057 256.336)"><stop stop-color="#EDF3FA"/><stop offset="1" stop-color="#F1F4F8" stop-opacity="0"/></radialGradient><radialGradient id="ai" cx="0" cy="0" r="1" gradientUnits="userSpaceOnUse" gradientTransform="matrix(312.4435 2.16405 -1.87405 270.57251 203.057 256.336)"><stop stop-color="#EDF3FA"/><stop offset="1" stop-color="#F1F4F8" stop-opacity="0"/></radialGradient><radialGradient id="aj" cx="0" cy="0" r="1" gradientUnits="userSpaceOnUse" gradientTransform="matrix(312.4435 2.16405 -1.87405 270.57251 203.057 256.336)"><stop stop-color="#EDF3FA"/><stop offset="1" stop-color="#F1F4F8" stop-opacity="0"/></radialGradient><radialGradient id="ak" cx="0" cy="0" r="1" gradientUnits="userSpaceOnUse" gradientTransform="matrix(312.4435 2.16405 -1.87405 270.57251 203.057 256.336)"><stop stop-color="#EDF3FA"/><stop offset="1" stop-color="#F1F4F8" stop-opacity="0"/></radialGradient><radialGradient id="al" cx="0" cy="0" r="1" gradientUnits="userSpaceOnUse" gradientTransform="matrix(312.4435 2.16405 -1.87405 270.57251 203.057 256.336)"><stop stop-color="#EDF3FA"/><stop offset="1" stop-color="#F1F4F8" stop-opacity="0"/></radialGradient><radialGradient id="am" cx="0" cy="0" r="1" gradientUnits="userSpaceOnUse" gradientTransform="matrix(312.4435 2.16405 -1.87405 270.57251 203.057 256.336)"><stop stop-color="#EDF3FA"/><stop offset="1" stop-color="#F1F4F8" stop-opacity="0"/></radialGradient><radialGradient id="an" cx="0" cy="0" r="1" gradientUnits="userSpaceOnUse" gradientTransform="matrix(312.4435 2.16405 -1.87405 270.57251 203.057 256.336)"><stop stop-color="#EDF3FA"/><stop offset="1" stop-color="#F1F4F8" stop-opacity="0"/></radialGradient><radialGradient id="ao" cx="0" cy="0" r="1" gradientUnits="userSpaceOnUse" gradientTransform="matrix(312.4435 2.16405 -1.87405 270.57251 203.057 256.336)"><stop stop-color="#EDF3FA"/><stop offset="1" stop-color="#F1F4F8" stop-opacity="0"/></radialGradient><radialGradient id="ap" cx="0" cy="0" r="1" gradientUnits="userSpaceOnUse" gradientTransform="matrix(312.4435 2.16405 -1.87405 270.57251 203.057 256.336)"><stop stop-color="#EDF3FA"/><stop offset="1" stop-color="#F1F4F8" stop-opacity="0"/></radialGradient><radialGradient id="aq" cx="0" cy="0" r="1" gradientUnits="userSpaceOnUse" gradientTransform="matrix(312.4435 2.16405 -1.87405 270.57251 203.057 256.336)"><stop stop-color="#EDF3FA"/><stop offset="1" stop-color="#F1F4F8" stop-opacity="0"/></radialGradient><radialGradient id="ar" cx="0" cy="0" r="1" gradientUnits="userSpaceOnUse" gradientTransform="matrix(312.4435 2.16405 -1.87405 270.57251 203.057 256.336)"><stop stop-color="#EDF3FA"/><stop offset="1" stop-color="#F1F4F8" stop-opacity="0"/></radialGradient><radialGradient id="as" cx="0" cy="0" r="1" gradientUnits="userSpaceOnUse" gradientTransform="matrix(312.4435 2.16405 -1.87405 270.57251 203.057 256.336)"><stop stop-color="#EDF3FA"/><stop offset="1" stop-color="#F1F4F8" stop-opacity="0"/></radialGradient><radialGradient id="at" cx="0" cy="0" r="1" gradientUnits="userSpaceOnUse" gradientTransform="matrix(312.4435 2.16405 -1.87405 270.57251 203.057 256.336)"><stop stop-color="#EDF3FA"/><stop offset="1" stop-color="#F1F4F8" stop-opacity="0"/></radialGradient><radialGradient id="au" cx="0" cy="0" r="1" gradientUnits="userSpaceOnUse" gradientTransform="matrix(312.4435 2.16405 -1.87405 270.57251 203.057 256.336)"><stop stop-color="#EDF3FA"/><stop offset="1" stop-color="#F1F4F8" stop-opacity="0"/></radialGradient><radialGradient id="av" cx="0" cy="0" r="1" gradientUnits="userSpaceOnUse" gradientTransform="matrix(312.4435 2.16405 -1.87405 270.57251 203.057 256.336)"><stop stop-color="#EDF3FA"/><stop offset="1" stop-color="#F1F4F8" stop-opacity="0"/></radialGradient><radialGradient id="aw" cx="0" cy="0" r="1" gradientUnits="userSpaceOnUse" gradientTransform="matrix(312.4435 2.16405 -1.87405 270.57251 203.057 256.336)"><stop stop-color="#EDF3FA"/><stop offset="1" stop-color="#F1F4F8" stop-opacity="0"/></radialGradient><radialGradient id="ax" cx="0" cy="0" r="1" gradientUnits="userSpaceOnUse" gradientTransform="matrix(312.4435 2.16405 -1.87405 270.57251 203.057 256.336)"><stop stop-color="#EDF3FA"/><stop offset="1" stop-color="#F1F4F8" stop-opacity="0"/></radialGradient><radialGradient id="ay" cx="0" cy="0" r="1" gradientUnits="userSpaceOnUse" gradientTransform="matrix(312.4435 2.16405 -1.87405 270.57251 203.057 256.336)"><stop stop-color="#EDF3FA"/><stop offset="1" stop-color="#F1F4F8" stop-opacity="0"/></radialGradient><radialGradient id="az" cx="0" cy="0" r="1" gradientUnits="userSpaceOnUse" gradientTransform="matrix(312.4435 2.16405 -1.87405 270.57251 203.057 256.336)"><stop stop-color="#EDF3FA"/><stop offset="1" stop-color="#F1F4F8" stop-opacity="0"/></radialGradient><radialGradient id="aA" cx="0" cy="0" r="1" gradientUnits="userSpaceOnUse" gradientTransform="matrix(312.4435 2.16405 -1.87405 270.57251 203.057 256.336)"><stop stop-color="#EDF3FA"/><stop offset="1" stop-color="#F1F4F8" stop-opacity="0"/></radialGradient><radialGradient id="aB" cx="0" cy="0" r="1" gradientUnits="userSpaceOnUse" gradientTransform="matrix(312.4435 2.16405 -1.87405 270.57251 203.057 256.336)"><stop stop-color="#EDF3FA"/><stop offset="1" stop-color="#F1F4F8" stop-opacity="0"/></radialGradient><radialGradient id="aC" cx="0" cy="0" r="1" gradientUnits="userSpaceOnUse" gradientTransform="matrix(312.4435 2.16405 -1.87405 270.57251 203.057 256.336)"><stop stop-color="#EDF3FA"/><stop offset="1" stop-color="#F1F4F8" stop-opacity="0"/></radialGradient><radialGradient id="aD" cx="0" cy="0" r="1" gradientUnits="userSpaceOnUse" gradientTransform="matrix(312.4435 2.16405 -1.87405 270.57251 203.057 256.336)"><stop stop-color="#EDF3FA"/><stop offset="1" stop-color="#F1F4F8" stop-opacity="0"/></radialGradient><radialGradient id="aE" cx="0" cy="0" r="1" gradientUnits="userSpaceOnUse" gradientTransform="matrix(312.4435 2.16405 -1.87405 270.57251 203.057 256.336)"><stop stop-color="#EDF3FA"/><stop offset="1" stop-color="#F1F4F8" stop-opacity="0"/></radialGradient><radialGradient id="aF" cx="0" cy="0" r="1" gradientUnits="userSpaceOnUse" gradientTransform="matrix(312.4435 2.16405 -1.87405 270.57251 203.057 256.336)"><stop stop-color="#EDF3FA"/><stop offset="1" stop-color="#F1F4F8" stop-opacity="0"/></radialGradient><radialGradient id="aG" cx="0" cy="0" r="1" gradientUnits="userSpaceOnUse" gradientTransform="matrix(312.4435 2.16405 -1.87405 270.57251 203.057 256.336)"><stop stop-color="#EDF3FA"/><stop offset="1" stop-color="#F1F4F8" stop-opacity="0"/></radialGradient><radialGradient id="aH" cx="0" cy="0" r="1" gradientUnits="userSpaceOnUse" gradientTransform="matrix(312.4435 2.16405 -1.87405 270.57251 203.057 256.336)"><stop stop-color="#EDF3FA"/><stop offset="1" stop-color="#F1F4F8" stop-opacity="0"/></radialGradient><radialGradient id="aI" cx="0" cy="0" r="1" gradientUnits="userSpaceOnUse" gradientTransform="matrix(312.4435 2.16405 -1.87405 270.57251 203.057 256.336)"><stop stop-color="#EDF3FA"/><stop offset="1" stop-color="#F1F4F8" stop-opacity="0"/></radialGradient><radialGradient id="aJ" cx="0" cy="0" r="1" gradientUnits="userSpaceOnUse" gradientTransform="matrix(312.4435 2.16405 -1.87405 270.57251 203.057 256.336)"><stop stop-color="#EDF3FA"/><stop offset="1" stop-color="#F1F4F8" stop-opacity="0"/></radialGradient><radialGradient id="aK" cx="0" cy="0" r="1" gradientUnits="userSpaceOnUse" gradientTransform="matrix(312.4435 2.16405 -1.87405 270.57251 203.057 256.336)"><stop stop-color="#EDF3FA"/><stop offset="1" stop-color="#F1F4F8" stop-opacity="0"/></radialGradient><radialGradient id="aL" cx="0" cy="0" r="1" gradientUnits="userSpaceOnUse" gradientTransform="matrix(312.4435 2.16405 -1.87405 270.57251 203.057 256.336)"><stop stop-color="#EDF3FA"/><stop offset="1" stop-color="#F1F4F8" stop-opacity="0"/></radialGradient><radialGradient id="aM" cx="0" cy="0" r="1" gradientUnits="userSpaceOnUse" gradientTransform="matrix(312.4435 2.16405 -1.87405 270.57251 203.057 256.336)"><stop stop-color="#EDF3FA"/><stop offset="1" stop-color="#F1F4F8" stop-opacity="0"/></radialGradient><radialGradient id="aN" cx="0" cy="0" r="1" gradientUnits="userSpaceOnUse" gradientTransform="matrix(312.4435 2.16405 -1.87405 270.57251 203.057 256.336)"><stop stop-color="#EDF3FA"/><stop offset="1" stop-color="#F1F4F8" stop-opacity="0"/></radialGradient><radialGradient id="aO" cx="0" cy="0" r="1" gradientUnits="userSpaceOnUse" gradientTransform="matrix(312.4435 2.16405 -1.87405 270.57251 203.057 256.336)"><stop stop-color="#EDF3FA"/><stop offset="1" stop-color="#F1F4F8" stop-opacity="0"/></radialGradient><radialGradient id="aP" cx="0" cy="0" r="1" gradientUnits="userSpaceOnUse" gradientTransform="matrix(312.4435 2.16405 -1.87405 270.57251 203.057 256.336)"><stop stop-color="#EDF3FA"/><stop offset="1" stop-color="#F1F4F8" stop-opacity="0"/></radialGradient><radialGradient id="aQ" cx="0" cy="0" r="1" gradientUnits="userSpaceOnUse" gradientTransform="matrix(312.4435 2.16405 -1.87405 270.57251 203.057 256.336)"><stop stop-color="#EDF3FA"/><stop offset="1" stop-color="#F1F4F8" stop-opacity="0"/></radialGradient><radialGradient id="aR" cx="0" cy="0" r="1" gradientUnits="userSpaceOnUse" gradientTransform="matrix(312.4435 2.16405 -1.87405 270.57251 203.057 256.336)"><stop stop-color="#EDF3FA"/><stop offset="1" stop-color="#F1F4F8" stop-opacity="0"/></radialGradient><radialGradient id="aS" cx="0" cy="0" r="1" gradientUnits="userSpaceOnUse" gradientTransform="matrix(312.4435 2.16405 -1.87405 270.57251 203.057 256.336)"><stop stop-color="#EDF3FA"/><stop offset="1" stop-color="#F1F4F8" stop-opacity="0"/></radialGradient><radialGradient id="aT" cx="0" cy="0" r="1" gradientUnits="userSpaceOnUse" gradientTransform="matrix(312.4435 2.16405 -1.87405 270.57251 203.057 256.336)"><stop stop-color="#EDF3FA"/><stop offset="1" stop-color="#F1F4F8" stop-opacity="0"/></radialGradient><radialGradient id="aU" cx="0" cy="0" r="1" gradientUnits="userSpaceOnUse" gradientTransform="matrix(312.4435 2.16405 -1.87405 270.57251 203.057 256.336)"><stop stop-color="#EDF3FA"/><stop offset="1" stop-color="#F1F4F8" stop-opacity="0"/></radialGradient><radialGradient id="aV" cx="0" cy="0" r="1" gradientUnits="userSpaceOnUse" gradientTransform="matrix(312.4435 2.16405 -1.87405 270.57251 203.057 256.336)"><stop stop-color="#EDF3FA"/><stop offset="1" stop-color="#F1F4F8" stop-opacity="0"/></radialGradient><radialGradient id="aW" cx="0" cy="0" r="1" gradientUnits="userSpaceOnUse" gradientTransform="matrix(312.4435 2.16405 -1.87405 270.57251 203.057 256.336)"><stop stop-color="#EDF3FA"/><stop offset="1" stop-color="#F1F4F8" stop-opacity="0"/></radialGradient><radialGradient id="aX" cx="0" cy="0" r="1" gradientUnits="userSpaceOnUse" gradientTransform="matrix(312.4435 2.16405 -1.87405 270.57251 203.057 256.336)"><stop stop-color="#EDF3FA"/><stop offset="1" stop-color="#F1F4F8" stop-opacity="0"/></radialGradient><radialGradient id="aY" cx="0" cy="0" r="1" gradientUnits="userSpaceOnUse" gradientTransform="matrix(312.4435 2.16405 -1.87405 270.57251 203.057 256.336)"><stop stop-color="#EDF3FA"/><stop offset="1" stop-color="#F1F4F8" stop-opacity="0"/></radialGradient><radialGradient id="aZ" cx="0" cy="0" r="1" gradientUnits="userSpaceOnUse" gradientTransform="matrix(312.4435 2.16405 -1.87405 270.57251 203.057 256.336)"><stop stop-color="#EDF3FA"/><stop offset="1" stop-color="#F1F4F8" stop-opacity="0"/></radialGradient><radialGradient id="ba" cx="0" cy="0" r="1" gradientUnits="userSpaceOnUse" gradientTransform="matrix(312.4435 2.16405 -1.87405 270.57251 203.057 256.336)"><stop stop-color="#EDF3FA"/><stop offset="1" stop-color="#F1F4F8" stop-opacity="0"/></radialGradient><radialGradient id="bb" cx="0" cy="0" r="1" gradientUnits="userSpaceOnUse" gradientTransform="matrix(312.4435 2.16405 -1.87405 270.57251 203.057 256.336)"><stop stop-color="#EDF3FA"/><stop offset="1" stop-color="#F1F4F8" stop-opacity="0"/></radialGradient><radialGradient id="bc" cx="0" cy="0" r="1" gradientUnits="userSpaceOnUse" gradientTransform="matrix(312.4435 2.16405 -1.87405 270.57251 203.057 256.336)"><stop stop-color="#EDF3FA"/><stop offset="1" stop-color="#F1F4F8" stop-opacity="0"/></radialGradient><radialGradient id="bd" cx="0" cy="0" r="1" gradientUnits="userSpaceOnUse" gradientTransform="matrix(312.4435 2.16405 -1.87405 270.57251 203.057 256.336)"><stop stop-color="#EDF3FA"/><stop offset="1" stop-color="#F1F4F8" stop-opacity="0"/></radialGradient><radialGradient id="be" cx="0" cy="0" r="1" gradientUnits="userSpaceOnUse" gradientTransform="matrix(312.4435 2.16405 -1.87405 270.57251 203.057 256.336)"><stop stop-color="#EDF3FA"/><stop offset="1" stop-color="#F1F4F8" stop-opacity="0"/></radialGradient><radialGradient id="bf" cx="0" cy="0" r="1" gradientUnits="userSpaceOnUse" gradientTransform="matrix(312.4435 2.16405 -1.87405 270.57251 203.057 256.336)"><stop stop-color="#EDF3FA"/><stop offset="1" stop-color="#F1F4F8" stop-opacity="0"/></radialGradient><radialGradient id="bg" cx="0" cy="0" r="1" gradientUnits="userSpaceOnUse" gradientTransform="matrix(312.4435 2.16405 -1.87405 270.57251 203.057 256.336)"><stop stop-color="#EDF3FA"/><stop offset="1" stop-color="#F1F4F8" stop-opacity="0"/></radialGradient><radialGradient id="bh" cx="0" cy="0" r="1" gradientUnits="userSpaceOnUse" gradientTransform="matrix(312.4435 2.16405 -1.87405 270.57251 203.057 256.336)"><stop stop-color="#EDF3FA"/><stop offset="1" stop-color="#F1F4F8" stop-opacity="0"/></radialGradient><radialGradient id="bi" cx="0" cy="0" r="1" gradientUnits="userSpaceOnUse" gradientTransform="matrix(312.4435 2.16405 -1.87405 270.57251 203.057 256.336)"><stop stop-color="#EDF3FA"/><stop offset="1" stop-color="#F1F4F8" stop-opacity="0"/></radialGradient><radialGradient id="bj" cx="0" cy="0" r="1" gradientUnits="userSpaceOnUse" gradientTransform="matrix(312.4435 2.16405 -1.87405 270.57251 203.057 256.336)"><stop stop-color="#EDF3FA"/><stop offset="1" stop-color="#F1F4F8" stop-opacity="0"/></radialGradient><radialGradient id="bk" cx="0" cy="0" r="1" gradientUnits="userSpaceOnUse" gradientTransform="matrix(312.4435 2.16405 -1.87405 270.57251 203.057 256.336)"><stop stop-color="#EDF3FA"/><stop offset="1" stop-color="#F1F4F8" stop-opacity="0"/></radialGradient><radialGradient id="bl" cx="0" cy="0" r="1" gradientUnits="userSpaceOnUse" gradientTransform="matrix(312.4435 2.16405 -1.87405 270.57251 203.057 256.336)"><stop stop-color="#EDF3FA"/><stop offset="1" stop-color="#F1F4F8" stop-opacity="0"/></radialGradient><radialGradient id="bm" cx="0" cy="0" r="1" gradientUnits="userSpaceOnUse" gradientTransform="matrix(312.4435 2.16405 -1.87405 270.57251 203.057 256.336)"><stop stop-color="#EDF3FA"/><stop offset="1" stop-color="#F1F4F8" stop-opacity="0"/></radialGradient><radialGradient id="bn" cx="0" cy="0" r="1" gradientUnits="userSpaceOnUse" gradientTransform="matrix(312.4435 2.16405 -1.87405 270.57251 203.057 256.336)"><stop stop-color="#EDF3FA"/><stop offset="1" stop-color="#F1F4F8" stop-opacity="0"/></radialGradient><radialGradient id="bo" cx="0" cy="0" r="1" gradientUnits="userSpaceOnUse" gradientTransform="matrix(312.4435 2.16405 -1.87405 270.57251 203.057 256.336)"><stop stop-color="#EDF3FA"/><stop offset="1" stop-color="#F1F4F8" stop-opacity="0"/></radialGradient><radialGradient id="bp" cx="0" cy="0" r="1" gradientUnits="userSpaceOnUse" gradientTransform="matrix(312.4435 2.16405 -1.87405 270.57251 203.057 256.336)"><stop stop-color="#EDF3FA"/><stop offset="1" stop-color="#F1F4F8" stop-opacity="0"/></radialGradient><radialGradient id="bq" cx="0" cy="0" r="1" gradientUnits="userSpaceOnUse" gradientTransform="matrix(312.4435 2.16405 -1.87405 270.57251 203.057 256.336)"><stop stop-color="#EDF3FA"/><stop offset="1" stop-color="#F1F4F8" stop-opacity="0"/></radialGradient><clipPath id="a"><path fill="#fff" d="M0 0h484v456H0z"/></clipPath></defs></svg>