<svg width="844" height="208" viewBox="0 0 844 208" fill="none" xmlns="http://www.w3.org/2000/svg"><path d="M21.838 94.93c14.51-14.308 29.932-26.145 46.11-38.538 19.74-15.121 34.864-42.894 59.727-42.538 24.668.353 37.445 30.236 57.769 44.22 19.649 13.52 45.133 18.09 59.95 36.78 16.089 20.295 32.707 46.728 26.105 71.77-6.797 25.781-42.899 30.795-58.788 52.204-14.441 19.459-7.089 54.279-28.567 65.499-21.418 11.19-45.776-12.029-69.853-14.081-23.017-1.962-46.825 11.371-68.08 2.324-22.01-9.369-35.507-31.302-47.97-51.722-13.181-21.6-30.89-44.987-26.23-69.859 4.685-24.999 31.717-38.202 49.828-56.06z" fill="#FFF7FA"/><path d="M828.91-37.397c8.536 16.488-8.535 35.892-6.573 54.354 2.39 22.494 29.002 43.544 19.138 63.9-9.496 19.595-40.014 14.138-60.514 21.484-17.086 6.123-32.426 15.203-50.322 18.232-20.904 3.539-44.448 11.965-62.514.869-18.07-11.099-19.16-36.666-27.507-56.16-7.559-17.652-22.294-34.25-19.331-53.222 2.948-18.877 23.191-29.14 34.588-44.475 10.211-13.74 14.535-32.265 29.114-41.238 14.778-9.096 33.321-9.685 50.572-7.809 16.452 1.79 30.302 11.169 45.268 18.233 16.738 7.901 39.572 9.394 48.081 25.832z" fill="#F2EBFF"/></svg>