<svg width="19" height="17" viewBox="0 0 19 17" fill="none" xmlns="http://www.w3.org/2000/svg"><path d="M15.625 3.688H13v-.876A2.625 2.625 0 0 0 10.375.188h-1.75A2.625 2.625 0 0 0 6 2.812v.876H3.375A2.625 2.625 0 0 0 .75 6.312v7.875a2.625 2.625 0 0 0 2.625 2.626h12.25a2.625 2.625 0 0 0 2.625-2.625V6.311a2.625 2.625 0 0 0-2.625-2.625zM7.75 2.812a.875.875 0 0 1 .875-.874h1.75a.875.875 0 0 1 .875.875v.874h-3.5v-.874zm8.75 11.376a.875.875 0 0 1-.875.874H3.375a.875.875 0 0 1-.875-.874V9.375c.854.339 1.73.613 2.625.822v.517a.875.875 0 1 0 1.75 0v-.184c.87.118 1.747.18 2.625.184a20.13 20.13 0 0 0 2.625-.184v.184a.875.875 0 1 0 1.75 0v-.517a18.611 18.611 0 0 0 2.625-.822v4.813zm0-6.73c-.851.36-1.729.652-2.625.876v-.271a.875.875 0 0 0-1.75 0v.647c-1.74.263-3.51.263-5.25 0v-.648a.875.875 0 0 0-1.75 0v.29A17.841 17.841 0 0 1 2.5 7.475V6.313a.875.875 0 0 1 .875-.875h12.25a.875.875 0 0 1 .875.875v1.146z" fill="#966CEE"/></svg>