<svg width="48" height="48" viewBox="0 0 48 48" fill="none" xmlns="http://www.w3.org/2000/svg"><path d="M13 13v-3a4 4 0 0 1 4-4h14a4 4 0 0 1 4 4v3" stroke="#CAB1FF" stroke-width="2"/><path d="M17 14v-3a1 1 0 0 1 1-1h12a1 1 0 0 1 1 1v3" stroke="#CAB1FF" stroke-width="2"/><path d="M12.225 30H9a5 5 0 0 1-5-5v-6a5 5 0 0 1 5-5h30a5 5 0 0 1 5 5v6a5 5 0 0 1-5 5h-3.225" stroke="#A177FF" stroke-width="2"/><path d="M42 29v9a5 5 0 0 1-5 5H11a5 5 0 0 1-5-5v-9M16 30h16" stroke="#A177FF" stroke-width="2"/><path d="M12 28.5a2.5 2.5 0 0 1 5 0v3a2.5 2.5 0 0 1-5 0v-3zM31 28.5a2.5 2.5 0 0 1 5 0v3a2.5 2.5 0 0 1-5 0v-3z" stroke="#A177FF" stroke-width="2"/></svg>