<svg width="48" height="48" viewBox="0 0 48 48" fill="none" xmlns="http://www.w3.org/2000/svg"><path d="M18 18.5c.49-2.182 1.53-3.954 3-4.5M30 18.5c-.49-2.182-1.53-3.954-3-4.5" stroke="#E2D5FF" stroke-width="2"/><circle cx="24" cy="11" r="4" stroke="#E2D5FF" stroke-width="2"/><circle cx="24" cy="11" r="10" stroke="#A177FF" stroke-width="2"/><path d="M31 44.5c.49-2.182 1.53-3.955 3-4.5M43 44.5c-.49-2.182-1.53-3.955-3-4.5" stroke="#E2D5FF" stroke-width="2"/><circle cx="37" cy="37" r="4" stroke="#E2D5FF" stroke-width="2"/><circle cx="37" cy="37" r="10" stroke="#A177FF" stroke-width="2"/><path d="M5 44.5c.49-2.182 1.53-3.955 3-4.5M17 44.5c-.49-2.182-1.53-3.955-3-4.5" stroke="#E2D5FF" stroke-width="2"/><circle cx="11" cy="37" r="4" stroke="#E2D5FF" stroke-width="2"/><circle cx="11" cy="37" r="10" stroke="#A177FF" stroke-width="2"/><path d="M24 21v6m0 0l-5 3m5-3l5 3" stroke="#A177FF" stroke-width="2"/></svg>