<svg width="48" height="48" viewBox="0 0 48 48" fill="none" xmlns="http://www.w3.org/2000/svg"><path d="M25 35l-2.597-23M25 35h-7m7 0l-4.682 6.182M22.403 12l-.244-1.707A5 5 0 0 0 17.209 6h-6.195a5 5 0 0 0-5 5.014l.053 19a5 5 0 0 0 5 4.986H18m4.403-23h14.532a5 5 0 0 1 5 4.987l.052 20a5 5 0 0 1-5 5.013H22.2a3 3 0 0 1-2.894-2.21L18 35" stroke="#A177FF" stroke-width="2"/><path d="M11 26l.833-4.286M18 26l-.833-4.286m0 0l-1.278-6.569a1.415 1.415 0 1 0-2.779 0l-1.277 6.57m5.334 0h-5.334M28 23h1.667M38 23h-1.667M33 23v-2m0 2h3.333M33 23h-3.333m6.666 0c-.694 2.095-3 7.114-7.333 9m.667-9c.416 1.833 3.583 7.036 7.333 9" stroke="#E2D5FF" stroke-width="2" stroke-linecap="round"/></svg>