<svg width="48" height="48" viewBox="0 0 48 48" fill="none" xmlns="http://www.w3.org/2000/svg"><path d="M26 13h12M10 13h12" stroke="#E2D5FF" stroke-width="2"/><path stroke="#A177FF" stroke-width="2" d="M22 9h4v28h-4z"/><circle cx="24" cy="6" r="3" stroke="#A177FF" stroke-width="2"/><path d="M26 37l2 3h1a4 4 0 0 1 4 4H15a4 4 0 0 1 4-4h1l2-3" stroke="#A177FF" stroke-width="2"/><path d="M45.168 25H30.832L38 13.85 45.168 25zM17.168 25H2.832L10 13.85 17.168 25zM30 26v3a3 3 0 0 0 3 3h10a3 3 0 0 0 3-3v-3M2 26v3a3 3 0 0 0 3 3h10a3 3 0 0 0 3-3v-3" stroke="#E2D5FF" stroke-width="2"/></svg>