<svg width="48" height="48" viewBox="0 0 48 48" fill="none" xmlns="http://www.w3.org/2000/svg"><path d="M16.226 32L25 41l16.07-16.485a10.278 10.278 0 0 0 2.169-3.329 10.488 10.488 0 0 0 0-7.852 10.279 10.279 0 0 0-2.17-3.328 9.986 9.986 0 0 0-3.244-2.225 9.78 9.78 0 0 0-7.654 0 9.986 9.986 0 0 0-3.244 2.225L25 11.983l-1.927-1.977A9.875 9.875 0 0 0 16 7a9.875 9.875 0 0 0-7.072 3.005A10.395 10.395 0 0 0 6 17.26c0 2.06.604 4.057 1.712 5.74" stroke="#A177FF" stroke-width="2" stroke-linecap="round" stroke-linejoin="round"/><path d="M4 27h12l4-9 5 12 4-8h5" stroke="#E2D5FF" stroke-width="2" stroke-linecap="round" stroke-linejoin="round"/></svg>