<svg width="48" height="48" viewBox="0 0 48 48" fill="none" xmlns="http://www.w3.org/2000/svg"><path d="M7 11a4 4 0 0 1 4-4h9a4 4 0 0 1 4 4v26.34c0 .186-.017.373-.052.557l-.432 2.28-.566-.975a5 5 0 0 0-4.323-2.488H11a4 4 0 0 1-4-4V11z" stroke="#A177FF" stroke-width="2"/><path d="M24 11a4 4 0 0 1 4-4h9a4 4 0 0 1 4 4v21.714a4 4 0 0 1-4 4h-7.627a5 5 0 0 0-4.323 2.488l-.566.975-.432-2.28a2.999 2.999 0 0 1-.052-.558V11z" stroke="#A177FF" stroke-width="2"/><path d="M12 13h7M29 18h7M29 13h7M12 18h7M12 23h7M29 23h7M29 28h3" stroke="#E2D5FF" stroke-width="2" stroke-linecap="round"/></svg>