<svg width="28" height="28" viewBox="0 0 28 28" fill="none" xmlns="http://www.w3.org/2000/svg"><path d="M14.583 20.417L13.068 7m1.515 13.417H10.5m4.083 0l-2.73 3.606M13.067 7a4.077 4.077 0 0 0-4.035-3.5h-.67a4.85 4.85 0 0 0-4.85 4.863l.02 7.068a5 5 0 0 0 5 4.986H10.5M13.068 7h6.4a5 5 0 0 1 5 4.987l.019 7.5a5 5 0 0 1-5 5.013h-5.582a3 3 0 0 1-2.894-2.21l-.511-1.873" stroke="#966CEE"/><path d="M6.417 15.167l.486-2.5m3.597 2.5l-.486-2.5m0 0l-.745-3.832a.826.826 0 0 0-1.62 0l-.746 3.832m3.11 0h-3.11M16.333 13.417h.973m4.86 0h-.972m-1.944 0V12.25m0 1.167h1.944m-1.944 0h-1.944m3.888 0c-.405 1.222-1.75 4.15-4.277 5.25m.389-5.25c.243 1.07 2.09 4.104 4.277 5.25" stroke="#BEA6F4" stroke-linecap="round"/></svg>