<svg width="48" height="48" viewBox="0 0 48 48" fill="none" xmlns="http://www.w3.org/2000/svg"><path d="M38.85 8.15l-7.072 7.072" stroke="#E2D5FF" stroke-width="2"/><path d="M12.685 25.828l8.486 8.486-5.657 5.656a4 4 0 0 1-5.657 0L7.03 37.142a4 4 0 0 1 0-5.657l5.656-5.657z" stroke="#A177FF" stroke-width="2"/><rect x="14.1" y="15.929" width="24" height="8" rx="3" transform="rotate(45 14.1 15.929)" stroke="#A177FF" stroke-width="2"/><path d="M29.656 31.485l5.57-.619a3 3 0 0 0 2.65-2.65l1.973-17.753a3 3 0 0 0-3.313-3.312L18.783 9.123a3 3 0 0 0-2.65 2.65l-.619 5.57" stroke="#A177FF" stroke-width="2"/><circle cx="29.656" cy="17.343" r="3" transform="rotate(45 29.656 17.343)" stroke="#E2D5FF" stroke-width="2"/></svg>