<svg width="48" height="48" viewBox="0 0 48 48" fill="none" xmlns="http://www.w3.org/2000/svg"><circle cx="24" cy="21" r="4" stroke="#E2D5FF" stroke-width="2"/><path d="M27.788 42.109L24 46.474l-3.788-4.365A3.51 3.51 0 0 1 19.854 38h8.292a3.51 3.51 0 0 1-.358 4.109z" stroke="#E2D5FF" stroke-width="2"/><path d="M16.028 10.237l.01-.016.01-.016c2.024-3.597 4.672-6.81 7.95-9.023 3.523 2.216 6.285 5.434 8.344 9.03.053.091.106.184.157.277 2.901 5.18 4.318 11.024 4.484 15.541.084 2.267-.15 4.122-.614 5.369-.477 1.284-1.047 1.601-1.49 1.601H13.08c-.445 0-1.022-.323-1.493-1.631-.458-1.268-.675-3.154-.554-5.452.242-4.578 1.81-10.486 4.995-15.68z" stroke="#A177FF" stroke-width="2"/><path d="M16.265 36.57l1.428-3a1 1 0 0 1 .903-.57h10.808a1 1 0 0 1 .903.57l1.428 3a1 1 0 0 1-.903 1.43H17.168a1 1 0 0 1-.903-1.43zM35.5 33l6.129 2.451A1 1 0 0 0 43 34.523v-5.109a1 1 0 0 0-.293-.707L36.5 22.5M13 33l-6.649 2.493A1 1 0 0 1 5 34.557v-5.143a1 1 0 0 1 .293-.707L11.5 22.5" stroke="#A177FF" stroke-width="2"/></svg>