<svg width="48" height="48" viewBox="0 0 48 48" fill="none" xmlns="http://www.w3.org/2000/svg"><path d="M35.286 20.12c3.032 6.001 2.041 13.515-2.972 18.528-6.249 6.249-16.38 6.249-22.628 0-6.248-6.248-6.248-16.379 0-22.627 5.014-5.014 12.527-6.005 18.529-2.972" stroke="#A177FF" stroke-width="2" stroke-linecap="round"/><path d="M30.66 24.745a9.996 9.996 0 0 1-2.589 9.66c-3.905 3.906-10.237 3.906-14.142 0-3.905-3.905-3.905-10.236 0-14.142a9.996 9.996 0 0 1 9.66-2.59" stroke="#A177FF" stroke-width="2" stroke-linecap="round"/><path d="M35.142 13.192L22.414 25.92m12.728-12.728l4.243 1.415 4.95-4.95-4.243-1.414L38.678 4l-4.95 4.95 1.414 4.242z" stroke="#E2D5FF" stroke-width="2" stroke-linejoin="round"/><path d="M23.121 29.456a3 3 0 1 1-4.242-4.243 3 3 0 0 1 4.242 4.243z" stroke="#E2D5FF" stroke-width="2"/></svg>