<svg width="22" height="23" viewBox="0 0 22 23" fill="none" xmlns="http://www.w3.org/2000/svg"><path d="M1 3.417A2.417 2.417 0 0 1 3.417 1h5.25a2.417 2.417 0 0 1 2.416 2.417V18.78c0 .115-.01.229-.032.341l-.293 1.55-.443-.762a2.833 2.833 0 0 0-2.45-1.41H3.418A2.417 2.417 0 0 1 1 16.083V3.417z" stroke="#966CEE"/><path d="M10.917 3.417A2.417 2.417 0 0 1 13.333 1h5.25A2.417 2.417 0 0 1 21 3.417v12.666a2.417 2.417 0 0 1-2.417 2.417h-4.448c-1.01 0-1.943.537-2.45 1.41l-.443.762-.293-1.55a1.837 1.837 0 0 1-.032-.34V3.416z" stroke="#966CEE"/><path d="M4 4.583h4.083M13.917 7.5H18M13.917 4.583H18M4 7.5h4.083M4 10.417h4.083M13.917 10.417H18M13.917 13.333h1.75" stroke="#BEA6F4" stroke-linecap="round"/></svg>