<svg width="236" height="121" viewBox="0 0 236 121" fill="none" xmlns="http://www.w3.org/2000/svg"><path d="M9.955 74.024c.98-.534 1.648-1.005 2.08-1.369m0 0c1.087-.915.683-1.153 0 0zm0 0c-.32.541-.702 1.389-1.02 2.616-1.604 6.189-3.961 12.053-5.35 18.335-1.099 4.97-1.701 8.743-2.44 13.743-.403 2.73-1.91 8.405-.858 11.345 1.307 3.652 8.508-3.571 8.975-4.021 11.494-11.078 21.202-24.127 32.182-35.815m0 0a183.466 183.466 0 0 1 3.558-3.687c10.154-10.221 20.722-19.953 30.84-30.19M43.524 78.857a328.937 328.937 0 0 1 4.875 13.401c1.656 4.856 2.946 10.512 5.674 14.902 1.202 1.934 4.044-4.959 4.31-5.511 3.831-7.93 6.811-16.264 10.687-24.185a252.236 252.236 0 0 1 1.567-3.145m-27.113 4.538c-3.023-7.744-6.403-15.343-10.336-22.607-.796-1.47-1.908-3.804-3.275-5.876m48.009-5.395c3.687-3.731 7.315-7.53 10.841-11.444 2.73-3.03 5.361-6.047 7.936-9.11M77.922 44.98C66.544 50.4 53.565 52.981 41.11 52.17c-3.396-.222-7.533-.584-11.198-1.794m48.009-5.395c.26-.123.518-.248.776-.375 2.024-.994 3.336-1.876 4.817-3.469.426-.457.683-1.693 1.234-1.416 2.376 1.193-4.202 13.998-4.604 14.72-4.118 7.387-9.422 14.047-14.229 20.946-.609.874-9.283 10.934-3.846 6.048 2.77-2.49 5.637-4.845 8.567-7.114M96.7 24.425a322.777 322.777 0 0 0 7.582-9.372c2.214-2.844 7.741-8.786 8.282-13.202.144-1.182-2.237.889-2.95 1.82-3.929 5.135-7.421 10.599-10.554 16.299a173.41 173.41 0 0 0-2.36 4.455zm0 0c-2.936 5.73-5.623 11.597-8.563 17.326-5.632 10.977-11.921 21.56-17.499 32.569m0 0c8.619-6.675 17.782-12.607 26.61-19.007m-67.334-4.938c-1.235-1.87-2.678-3.527-4.285-4.14-1.285-.49-2.799-.11-1.001 1.369 1.505 1.237 3.328 2.125 5.286 2.77zm67.334 4.938c3.228-2.341 6.411-4.745 9.506-7.27m-9.507 7.27c-3.895 7.327-3.997 18.206-3.879 25.386.032 1.935.313 2.523.673 2.593m3.206-27.98c1.259-2.366 2.913-4.363 5.083-5.744 1.578-1.005 3.046-1.468 4.424-1.526m0 0c2.863-2.335 5.651-4.776 8.329-7.367 1.704-1.65 3.506-3.4 5.195-5.272m-13.524 12.64c1.766-.074 3.384.52 4.896 1.499m8.628-14.139c2.222-2.462 4.249-5.136 5.603-8.07.327-.709.586-1.363-.017-.477a320.901 320.901 0 0 0-5.586 8.547zm0 0l-.758 1.2a462.408 462.408 0 0 0-7.87 12.939m0 0c-6.399 10.929-12.447 22.34-17.609 33.75m17.609-33.75c2.979 1.927 5.547 5.348 8.021 8.103 1.265 1.408 3.082 4.427 5.189 4.642 5.751.587 13.665-4.572 18.443-7.108 6.542-3.473 13.056-7.342 19.051-11.827M94.04 83.292c-.498 1.103-.989 2.205-1.47 3.307-.92 2.105-.621 2.73 1.39 2.873 2.06.146 1.782-3.117 1.848-4.575.168-3.714-.988-1.452-1.768-1.605zm68.313-39.94c11.552-8.64 21.18-19.565 25.382-34.342.248-.874 1.326-5.624 1.472-7.075.156-1.557-.788.117-.952.348-6.551 9.263-12.343 19.06-18.219 28.793-2.509 4.155-5.041 8.253-7.683 12.276zm0 0a214.087 214.087 0 0 1-6.295 9.099c-1.452 1.98-2.285 3.252-.663 4.604m0 0c.218.181.479.364.79.55 4.287 2.571-4.54 10.358-6.091 12.625-2.09 3.056-16.883 31.133-20.559 29.35-5.637-2.732-4.162-14.532-2.952-19.202 1.094-4.221 4.372-5.814 7.839-7.73 7.693-4.248 14.465-9.591 20.973-15.593zm0 0c.209-.192.417-.385.625-.579 8.924-8.308 15.622-16.62 27.912-18.256 2.135-.284 4.195.093 6.3-.11 2.933-.281 6.019-2.799 8.418-4.411 3.035-2.04 8.191-9.993 9.494-2.688.418 2.345.311 16.663 2.678 17.11 7.595 1.438 17.54-6.59 23.133-11.104l.045-.036" stroke="#392B4B" stroke-width="2.442" stroke-linecap="round"/></svg>