<svg width="389" height="1024" viewBox="0 0 389 1024" fill="none" xmlns="http://www.w3.org/2000/svg"><g clip-path="url(#a)"><path d="M0 48C0 21.49 21.49 0 48 0h341v1024H48c-26.51 0-48-21.49-48-48V48z" fill="#392B4B"/><path d="M507 524c0 175.074-137.896 317-308 317s-308-141.926-308-317S28.896 207 199 207s308 141.926 308 317z" fill="#fff"/><path d="M140.4 918.201h10.8v1.968h-8.544v5.208h7.824v1.968h-7.824v5.688h8.544v1.968h-10.8v-16.8zM158.774 935.241a5.585 5.585 0 0 1-2.16-.408 4.547 4.547 0 0 1-1.656-1.2c-.464-.544-.824-1.216-1.08-2.016-.256-.816-.384-1.768-.384-2.856v-.48c0-1.008.128-1.896.384-2.664.272-.784.64-1.44 1.104-1.968a4.547 4.547 0 0 1 1.656-1.2 5.522 5.522 0 0 1 2.136-.408c1.024 0 1.912.224 2.664.672a4.134 4.134 0 0 1 1.704 1.848v-6.36h2.112v16.8h-1.968v-2.4c-.32.784-.88 1.424-1.68 1.92-.8.48-1.744.72-2.832.72zm.48-1.872c.576 0 1.104-.096 1.584-.288.48-.192.888-.456 1.224-.792.336-.336.6-.744.792-1.224.192-.48.288-1.008.288-1.584v-1.92c0-.512-.096-.992-.288-1.44a3.443 3.443 0 0 0-.792-1.152 3.32 3.32 0 0 0-1.224-.768 4.228 4.228 0 0 0-1.584-.288c-.512 0-.992.096-1.44.288-.448.192-.84.48-1.176.864-.32.368-.576.824-.768 1.368-.176.544-.264 1.16-.264 1.848v.48c0 .752.088 1.416.264 1.992.192.576.448 1.056.768 1.44.336.384.728.68 1.176.888.448.192.928.288 1.44.288zM167.9 922.281h2.304l2.448 9.84 3.312-9.84h1.872l3.432 9.84 2.424-9.84h2.208l-3.48 12.72h-2.112l-3.456-9.84-3.36 9.84h-2.112l-3.48-12.72zM188.77 922.281h2.112v12.72h-2.112v-12.72zm1.056-1.68c-.416 0-.76-.136-1.032-.408-.272-.272-.408-.616-.408-1.032 0-.416.136-.76.408-1.032.272-.272.616-.408 1.032-.408.416 0 .76.136 1.032.408.272.272.408.616.408 1.032 0 .416-.136.76-.408 1.032-.272.272-.616.408-1.032.408zM199.872 935.241a6.622 6.622 0 0 1-2.28-.384 5.035 5.035 0 0 1-1.824-1.2c-.512-.544-.92-1.224-1.224-2.04-.288-.816-.432-1.768-.432-2.856v-.48c0-1.024.16-1.928.48-2.712.32-.784.744-1.432 1.272-1.944a5.038 5.038 0 0 1 1.824-1.176 6.01 6.01 0 0 1 2.184-.408c.752 0 1.424.104 2.016.312a4.744 4.744 0 0 1 1.56.864c.448.368.808.8 1.08 1.296.288.496.496 1.032.624 1.608h-2.16a4.69 4.69 0 0 0-.456-.84 2.356 2.356 0 0 0-.624-.696 2.771 2.771 0 0 0-.864-.456 3.723 3.723 0 0 0-1.176-.168 3.53 3.53 0 0 0-1.344.264 3.04 3.04 0 0 0-1.152.768c-.336.336-.608.776-.816 1.32-.192.544-.288 1.2-.288 1.968v.48c0 .816.096 1.52.288 2.112.208.576.48 1.048.816 1.416.336.352.72.616 1.152.792.432.16.88.24 1.344.24.784 0 1.44-.192 1.968-.576.544-.384.928-.912 1.152-1.584h2.16c-.304 1.264-.928 2.264-1.872 3-.944.72-2.08 1.08-3.408 1.08zM211.654 935.241c-.704 0-1.328-.096-1.872-.288a4.082 4.082 0 0 1-1.344-.84 3.51 3.51 0 0 1-.84-1.248 4.228 4.228 0 0 1-.288-1.584c0-1.264.368-2.176 1.104-2.736.752-.56 1.824-.84 3.216-.84h4.128v-.864c0-1.088-.248-1.84-.744-2.256-.48-.416-1.208-.624-2.184-.624-.912 0-1.576.176-1.992.528-.416.336-.648.72-.696 1.152h-2.112c.032-.512.168-.984.408-1.416a3.854 3.854 0 0 1 1.008-1.152c.432-.32.944-.568 1.536-.744a6.355 6.355 0 0 1 1.968-.288c1.504 0 2.696.36 3.576 1.08.896.704 1.344 1.864 1.344 3.48v6.936c.016.496.056.984.12 1.464h-1.848c-.048-.368-.08-.712-.096-1.032a23.912 23.912 0 0 1-.024-1.128c-.336.672-.88 1.24-1.632 1.704-.752.464-1.664.696-2.736.696zm.456-1.92c.496 0 .96-.064 1.392-.192.448-.144.84-.344 1.176-.6.336-.272.6-.6.792-.984.192-.384.288-.832.288-1.344v-.864h-3.768c-.784 0-1.4.16-1.848.48-.448.304-.672.792-.672 1.464 0 .592.208 1.08.624 1.464.432.384 1.104.576 2.016.576zM223.28 935.241a1.68 1.68 0 0 1-1.2-.48 1.68 1.68 0 0 1-.48-1.2c0-.48.16-.88.48-1.2a1.68 1.68 0 0 1 1.2-.48 1.6 1.6 0 0 1 1.176.48c.336.32.504.72.504 1.2 0 .464-.168.864-.504 1.2a1.6 1.6 0 0 1-1.176.48zM228.795 922.281h1.968v2.4a4.149 4.149 0 0 1 1.344-1.872c.64-.512 1.416-.768 2.328-.768.32 0 .576.016.768.048.208.032.392.072.552.12v1.968a3.011 3.011 0 0 0-.624-.168 5.283 5.283 0 0 0-.816-.048c-.48 0-.928.088-1.344.264a3.182 3.182 0 0 0-1.08.744c-.304.304-.544.68-.72 1.128a3.97 3.97 0 0 0-.264 1.464v7.44h-2.112v-12.72zM242.635 935.241c-1.536 0-2.688-.44-3.456-1.32-.768-.88-1.152-2.24-1.152-4.08v-7.56h2.112v7.44c0 1.184.24 2.08.72 2.688.496.608 1.296.912 2.4.912.592 0 1.104-.104 1.536-.312.448-.208.808-.48 1.08-.816.288-.336.496-.72.624-1.152.144-.432.216-.872.216-1.32v-7.44h2.112v12.72h-1.968v-2.4a4.093 4.093 0 0 1-.6 1.008c-.24.32-.544.6-.912.84-.352.24-.76.432-1.224.576a4.844 4.844 0 0 1-1.488.216z" fill="#B298EE"/><path d="M181.828 841.061c34.256 2.502 69.492-.594 104.518-9.979C455.115 785.86 555.101 611.753 509.67 442.201c-34.664-129.365-143.966-218.7-268.793-233.694 35.876 46.436 41.473 108.657 16.195 174.959-38.191 100.173-116.391 178.591-194.166 234.5-42.78 30.753-86.892 55.746-126.876 74.537 45.37 72.682 95.284 108.713 178.455 76.264 55.122-21.506 113.153-69.437 162.199-157.545l-45.221-19.693L387.02 470.622l17.197 196.138-41.3-17.985c-50.049 93.037-112.611 156.26-181.089 192.286z" fill="#966CEE"/><path d="M73.362 234.37c-138.839 62.69-215.751 218.987-174.86 371.593l.102.38c34.01-16.145 72.29-37.816 109.755-64.747C78.325 491.3 140.61 426.134 169.74 349.731c22.515-59.055-21.327-149.247-96.378-115.361z" fill="#966CEE"/><path d="M141.021 118.177v5.404H119V91.868h21.619v5.405h-15.455v7.638h13.355v5.002h-13.355v8.264h15.857zM143.38 111.879c0-2.264.447-4.303 1.34-6.12.893-1.846 2.129-3.305 3.707-4.377 1.579-1.072 3.38-1.608 5.405-1.608 1.727 0 3.276.432 4.645 1.295 1.4.834 2.487 1.906 3.261 3.216v-13.31h5.985v25.906c0 .626.105 1.072.313 1.34.208.268.566.432 1.072.492v4.868c-1.042.209-1.891.313-2.546.313-1.072 0-1.965-.268-2.68-.804a2.949 2.949 0 0 1-1.161-2.099l-.09-1.474a8.684 8.684 0 0 1-3.528 3.35 9.685 9.685 0 0 1-4.601 1.161c-1.608 0-3.097-.313-4.467-.938a11.146 11.146 0 0 1-3.528-2.591c-.983-1.102-1.757-2.382-2.323-3.841-.536-1.489-.804-3.082-.804-4.779zm18.358 3.126v-5.583a6.306 6.306 0 0 0-1.429-2.323 7.549 7.549 0 0 0-2.189-1.608c-.804-.417-1.608-.625-2.412-.625-.923 0-1.757.193-2.501.581-.745.387-1.4.908-1.966 1.563a7.314 7.314 0 0 0-1.25 2.278 9.14 9.14 0 0 0-.402 2.725c0 .952.149 1.861.446 2.724a6.676 6.676 0 0 0 1.385 2.189 6.679 6.679 0 0 0 2.055 1.474 6.309 6.309 0 0 0 2.59.536c.566 0 1.132-.089 1.698-.268a7.783 7.783 0 0 0 1.652-.804 6.18 6.18 0 0 0 1.385-1.251c.417-.506.73-1.042.938-1.608zM202.544 100.176h5.673l-9.782 23.405h-5.003l-3.93-10.05-3.842 10.05h-5.047l-9.737-23.405h5.628l6.968 17.688 2.724-7.638-4.064-10.005h4.958l2.412 7.146 2.456-7.146h4.958l-4.064 10.005 2.769 7.638 6.923-17.688zM210.981 123.581v-23.405h5.985v23.405h-5.985zm0-26.666v-5.94h5.985v5.94h-5.985zM233.264 124.028c-1.906 0-3.618-.313-5.137-.938-1.518-.655-2.814-1.549-3.886-2.68a12.99 12.99 0 0 1-2.501-3.931 12.606 12.606 0 0 1-.849-4.6c0-2.204.492-4.214 1.474-6.03 1.013-1.847 2.442-3.321 4.288-4.422 1.847-1.102 4.035-1.653 6.566-1.653 2.531 0 4.705.551 6.522 1.653 1.816 1.101 3.171 2.546 4.064 4.332l-5.851 1.787c-.506-.864-1.176-1.519-2.01-1.965-.834-.477-1.757-.715-2.769-.715a5.79 5.79 0 0 0-3.127.893c-.923.566-1.653 1.385-2.189 2.457-.536 1.042-.804 2.263-.804 3.663 0 1.369.268 2.59.804 3.662.566 1.042 1.311 1.876 2.234 2.502.923.595 1.95.893 3.082.893.714 0 1.384-.119 2.01-.357a5.897 5.897 0 0 0 1.742-.983c.506-.417.878-.893 1.116-1.429l5.852 1.786c-.536 1.162-1.325 2.204-2.368 3.127-1.012.923-2.218 1.653-3.618 2.189-1.369.506-2.918.759-4.645.759zM245.97 116.658c0-1.519.416-2.844 1.25-3.975.864-1.162 2.055-2.055 3.574-2.68 1.518-.626 3.26-.938 5.226-.938.982 0 1.98.074 2.992.223 1.013.149 1.891.387 2.636.715v-1.251c0-1.489-.447-2.635-1.34-3.439-.864-.804-2.159-1.206-3.886-1.206-1.281 0-2.502.223-3.663.67-1.161.446-2.382 1.101-3.663 1.965l-1.92-3.931c1.548-1.012 3.126-1.772 4.734-2.278 1.638-.506 3.35-.76 5.137-.76 3.335 0 5.926.835 7.772 2.502 1.876 1.668 2.814 4.05 2.814 7.147v7.459c0 .626.104 1.072.313 1.34.238.268.61.432 1.116.492v4.868c-.536.09-1.027.164-1.474.224a7.83 7.83 0 0 1-1.072.089c-1.191 0-2.099-.268-2.724-.804a3.459 3.459 0 0 1-1.117-1.965l-.134-1.206a10.24 10.24 0 0 1-3.797 3.037c-1.518.715-3.067 1.072-4.645 1.072-1.549 0-2.948-.313-4.199-.938-1.221-.655-2.188-1.534-2.903-2.635-.685-1.132-1.027-2.398-1.027-3.797zm14.561 1.206c.327-.357.595-.715.804-1.072.208-.357.313-.685.313-.983v-2.367a11.089 11.089 0 0 0-2.323-.67 11.295 11.295 0 0 0-2.367-.268c-1.549 0-2.829.342-3.842 1.027-.982.655-1.474 1.534-1.474 2.636 0 .595.164 1.161.492 1.697.327.536.804.968 1.429 1.295.625.328 1.37.492 2.233.492a7.37 7.37 0 0 0 2.636-.492c.863-.357 1.563-.789 2.099-1.295z" fill="#fff"/></g><defs><clipPath id="a"><path d="M0 48C0 21.49 21.49 0 48 0h341v1024H48c-26.51 0-48-21.49-48-48V48z" fill="#fff"/></clipPath></defs></svg>