<svg width="604" height="379" viewBox="0 0 604 379" fill="none" xmlns="http://www.w3.org/2000/svg"><g clip-path="url(#a)"><g opacity=".8"><path opacity=".5" d="M307.467 111.303c-21.508-3.136-41.85-11.918-59.415-25.181-26.257-19.805-81.19-53.5-133.614-36.742-72.32 23.12-72.588 90.152-53.769 126.535 18.819 36.383 152.344 143.024 325.389 125.998 154.854-15.145 185.054-188.817 102.429-220.272-71.601-27.243-96.066 42.208-181.02 29.662zM530.427 92.843c3.712 0 6.721-3.25 6.721-7.26 0-4.008-3.009-7.258-6.721-7.258s-6.721 3.25-6.721 7.259 3.009 7.259 6.721 7.259z" fill="#CED3E6"/><path opacity=".8" d="M91.945 37.999c2.06-.359 4.122.717 4.839 2.688 1.254 3.316-1.972 7.08-6.363 5.467-3.764-2.779-2.061-7.528 1.524-8.155zM520.752 22.407a8.783 8.783 0 1 0-17.338-2.822 8.783 8.783 0 0 0 17.338 2.822zM118.47 31.098c1.345 4.66-1.433 9.59-6.093 10.933-4.66 1.345-9.589-1.434-10.933-6.093-1.345-4.66 1.433-9.59 6.093-10.933 4.75-1.345 9.589 1.344 10.933 6.093zM468.145 294.385c1.972-.717 4.212 0 5.287 1.792 1.882 3.047-.627 7.349-5.287 6.542-4.212-2.061-3.405-6.99 0-8.334zM492.878 282.646c2.151 4.391.359 9.678-4.032 11.829-4.391 2.15-9.679.358-11.829-4.033-2.151-4.391-.359-9.678 4.032-11.829s9.679-.359 11.829 4.033zM495.567 12.996a5.377 5.377 0 1 0 0-10.754 5.377 5.377 0 0 0 0 10.754z" fill="#CED3E6"/></g><path opacity=".8" d="M515.282 105.12c0-48.123-40.057-100.727-89.883-103.953-.896-.09-1.792-.09-2.688-.179-71.333-3.316-76.8 83.79-141.412 93.647-64.612 9.858-113.989-39.789-191.326-7.438-69.451 29.035-88.27 192.402 115.782 198.944 163.277 5.197 309.617-37.638 309.527-181.021z" fill="#CED3E6"/><path d="M387.313 344.39c86.959 0 157.452-3.651 157.452-8.155s-70.493-8.155-157.452-8.155c-86.958 0-157.452 3.651-157.452 8.155s70.494 8.155 157.452 8.155z" fill="#CED3E6"/><path d="M493.954 313.562h-21.776v22.673h25.54v-18.998c-.09-2.062-1.703-3.675-3.764-3.675zM431.134 264.902H355.41v48.66h75.724v-48.66z" fill="#CED3E6"/><path d="M489.025 336.235H280.134v-8.424a14.228 14.228 0 0 1 14.249-14.249h180.393a14.228 14.228 0 0 1 14.249 14.249v8.424z" fill="#fff"/><path d="M421.814 264.902H346.09v48.66h75.724v-48.66z" fill="#fff"/><path d="M346.09 279.867l75.724-6.093.09-8.872H346.18l-.09 14.965zM556.325 64.076v190.7c0 5.556-4.57 10.126-10.126 10.126H222.781c-5.556 0-10.126-4.57-10.126-10.126v-190.7c0-5.556 4.57-10.126 10.126-10.126h323.418c5.556 0 10.126 4.57 10.126 10.126z" fill="#CED3E6"/><path d="M556.326 64.076v176.63H525.05V53.95h21.149c5.556 0 10.127 4.57 10.127 10.126z" fill="#585859"/><path d="M543.421 64.076v190.7c0 5.556-4.57 10.126-10.126 10.126H222.781c-5.556 0-10.126-4.57-10.126-10.126v-190.7c0-5.556 4.57-10.126 10.126-10.126H534.37c.09 0 .269 0 .358.09h.359c.089 0 .179 0 .269.09 4.57.985 8.065 5.107 8.065 9.946z" fill="#fff"/><path d="M535.356 54.22c-.09 0-.18 0-.269-.09h-.359c-.089 0-.268 0-.358-.09H222.781c-5.556 0-10.126 4.57-10.126 10.127v176.63h330.766V64.077c0-4.839-3.495-8.961-8.065-9.857zm-5.019 168.833a2.792 2.792 0 0 1-2.778 2.778H228.517a2.793 2.793 0 0 1-2.779-2.778V69.903a2.792 2.792 0 0 1 2.779-2.779h299.042a2.792 2.792 0 0 1 2.778 2.778v153.151z" fill="#39393B"/><path d="M530.338 69.901v153.151a2.792 2.792 0 0 1-2.778 2.778H228.517a2.791 2.791 0 0 1-2.778-2.778V69.902a2.792 2.792 0 0 1 2.778-2.779H527.56a2.792 2.792 0 0 1 2.778 2.778z" fill="#CED3E6"/><path d="M530.338 69.901v153.151a2.792 2.792 0 0 1-2.778 2.778H228.517a2.791 2.791 0 0 1-2.778-2.778V69.902a2.792 2.792 0 0 1 2.778-2.779H527.56a2.792 2.792 0 0 1 2.778 2.778z" fill="#CED3E6"/><path d="M530.338 69.901V84.33H225.739V69.901a2.792 2.792 0 0 1 2.778-2.778H527.56a2.792 2.792 0 0 1 2.778 2.778z" fill="#fff"/><path d="M506.679 75.457c0 1.255-1.075 2.33-2.33 2.33-1.254 0-2.329-1.075-2.329-2.33 0-1.254 1.075-2.33 2.329-2.33 1.255 0 2.33 1.076 2.33 2.33z" fill="#DF615C"/><path d="M511.967 77.787a2.33 2.33 0 1 0 0-4.66 2.33 2.33 0 0 0 0 4.66z" fill="#5392F3"/><path d="M492.431 77.967H254.505c-1.165 0-2.151-.986-2.151-2.151v-.627c0-1.165.986-2.151 2.151-2.151h237.926c1.165 0 2.15.986 2.15 2.15v.628c.09 1.165-.896 2.15-2.15 2.15z" fill="#D2DCEC"/><path d="M236.761 75.457v2.33c0 .359-.358.538-.627.359l-1.972-1.165-1.971-1.165a.42.42 0 0 1 0-.717l1.971-1.165 1.972-1.165c.269-.18.627 0 .627.358v2.33zM240.256 75.457v2.33c0 .359.359.538.628.359l1.971-1.165 1.972-1.165a.42.42 0 0 0 0-.717l-1.972-1.165-1.971-1.165c-.269-.18-.628 0-.628.358v2.33z" fill="#000"/><path d="M517.433 77.429l-.09-.09c-.269-.269-.269-.627 0-.806l3.137-3.137c.269-.269.627-.269.806 0l.09.09c.269.269.269.627 0 .806l-3.137 3.137c-.179.269-.537.269-.806 0z" fill="#39393B"/><path d="M521.286 77.429l.09-.09c.269-.269.269-.627 0-.806l-3.137-3.137c-.268-.269-.627-.269-.806 0l-.09.09c-.269.269-.269.627 0 .806l3.137 3.137c.269.269.627.269.806 0z" fill="#39393B"/><path d="M489.294 219.647H265.976c-3.137 0-5.736-2.599-5.736-5.736V93.559c0-3.136 2.599-5.735 5.736-5.735h223.318c3.137 0 5.736 2.599 5.736 5.735v120.352a5.719 5.719 0 0 1-5.736 5.736z" fill="#fff"/><path d="M328.168 155.304h-51.529a1.416 1.416 0 0 1-1.433-1.434c0-.807.627-1.434 1.433-1.434h51.529c.806 0 1.433.627 1.433 1.434 0 .717-.627 1.434-1.433 1.434zM328.168 143.116h-51.529a1.415 1.415 0 0 1-1.433-1.434c0-.806.627-1.434 1.433-1.434h51.529c.806 0 1.433.628 1.433 1.434 0 .807-.627 1.434-1.433 1.434zM328.168 167.402h-51.529a1.416 1.416 0 0 1-1.433-1.434c0-.807.627-1.434 1.433-1.434h51.529c.806 0 1.433.627 1.433 1.434 0 .717-.627 1.434-1.433 1.434zM486.426 155.304h-51.528a1.416 1.416 0 0 1-1.434-1.434c0-.807.628-1.434 1.434-1.434h51.528c.807 0 1.434.627 1.434 1.434 0 .717-.627 1.434-1.434 1.434zM486.426 143.116h-51.528a1.416 1.416 0 0 1-1.434-1.434c0-.806.628-1.434 1.434-1.434h51.528c.807 0 1.434.628 1.434 1.434 0 .807-.627 1.434-1.434 1.434zM486.426 167.402h-51.528a1.416 1.416 0 0 1-1.434-1.434c0-.807.628-1.434 1.434-1.434h51.528c.807 0 1.434.627 1.434 1.434 0 .717-.627 1.434-1.434 1.434z" fill="#CED3E6"/><path d="M260.15 199.125h234.879v19.267c0 .627-.537 1.255-1.254 1.255h-232.37a1.226 1.226 0 0 1-1.255-1.255v-19.267z" fill="#39393B"/><path d="M471.999 206.743v-1.703h2.15v-1.523h-2.957a.803.803 0 0 0-.806.807v2.509h1.613v-.09zM471.999 209.879h-1.524v2.599c0 .448.359.806.807.806h2.957v-1.523h-2.151v-1.882h-.089zM478.72 206.742h1.523v-2.509a.803.803 0 0 0-.806-.807h-2.868v1.524h2.061v1.792h.09zM478.72 209.879v1.882h-2.061v1.523h2.867a.803.803 0 0 0 .807-.806v-2.599h-1.613zM273.861 208.714v-4.929l4.212 2.509 4.212 2.42-4.212 2.419-4.212 2.42v-4.839zM297.251 213.194h-1.076a.706.706 0 0 1-.717-.716v-7.349c0-.448.359-.717.717-.717h1.076c.448 0 .717.359.717.717v7.349c.089.358-.269.716-.717.716zM302.807 213.194h-1.075a.706.706 0 0 1-.717-.716v-7.349c0-.448.358-.717.717-.717h1.075c.448 0 .717.359.717.717v7.349c0 .358-.359.716-.717.716z" fill="#fff"/><path d="M495.029 195.361H260.15v3.854h234.879v-3.854z" fill="#CED3E6"/><path d="M380.682 195.361H260.15v3.854h120.532v-3.854z" fill="#DF615C"/><path d="M457.48 180.306h2.689v5.825h3.584v2.061h-6.183v-7.886h-.09zM464.47 180.306h2.689v7.886h-2.689v-7.886zM476.747 180.306l-3.315 7.886h-2.599l-3.316-7.886h2.868l1.882 4.57 1.882-4.57h2.598zM483.558 186.221v1.971h-6.541v-7.886h6.362v1.972h-3.764v.896h3.316v1.882h-3.316v1.075h3.943v.09z" fill="#39393B"/><path d="M453.179 184.249a3.213 3.213 0 0 1-3.226 3.226 3.213 3.213 0 0 1-3.226-3.226 3.213 3.213 0 0 1 3.226-3.226c1.703-.09 3.226 1.434 3.226 3.226z" fill="#DF615C"/><path d="M288.916 186.4c0 1.792-1.702 2.957-4.122 2.957-2.419 0-4.122-1.165-4.122-2.957 0-.896.448-1.613 1.254-2.151-.537-.448-.896-1.075-.896-1.792 0-1.703 1.613-2.778 3.854-2.778 2.24 0 3.853 1.075 3.853 2.778 0 .806-.358 1.344-.896 1.792.538.538 1.075 1.255 1.075 2.151zm-3.136-.09c0-.627-.448-.986-.986-.986-.627 0-.986.359-.986.986s.448.986.986.986c.538-.09.986-.448.986-.986zm-1.792-3.764c0 .538.358.807.717.807.448 0 .716-.269.716-.807 0-.537-.358-.806-.716-.806-.359.089-.717.358-.717.806zM289.454 184.518c0-3.047 1.703-4.839 4.212-4.839 2.42 0 4.212 1.792 4.212 4.839 0 3.047-1.703 4.839-4.212 4.839-2.509 0-4.212-1.792-4.212-4.839zm5.198 0c0-1.792-.448-2.33-1.076-2.33-.627 0-1.075.538-1.075 2.33s.448 2.33 1.075 2.33c.628 0 1.076-.538 1.076-2.33z" fill="#39393B"/><path d="M275.206 181.919c0 1.524-1.255 2.868-2.868 2.868-1.524 0-2.868-1.255-2.868-2.868 0-1.523 1.255-2.868 2.868-2.868s2.868 1.345 2.868 2.868zM277.625 189.088h-10.574s1.165-3.405 5.197-3.405h.18c4.032.089 5.197 3.405 5.197 3.405z" fill="#DF615C"/><g clip-path="url(#b)"><path d="M304.958 117.845s-1.434 8.692-7.796 10.216c-5.108 1.254-10.037-3.674-11.65-5.646-.359-.448-.627-.717-.627-.717h-.986c-1.344 0-3.764-.269-4.66-1.971-1.344-2.33 3.495-3.943 3.495-3.943s-2.509-2.241-1.882-3.854 3.943-1.882 3.943-1.882-3.585-2.33-2.42-4.391c1.793-3.047 5.556.269 5.825.448-.269-.269-4.929-5.108-2.33-5.914 2.241-.717 5.915 1.702 8.245 4.212l.627.627s.179-.09.359-.269c1.165-.806 4.928-2.957 7.258-.986 2.958 2.33 2.599 14.07 2.599 14.07z" fill="#EA9B7A"/><path d="M298.327 123.132a.57.57 0 0 1-.538 0c-.269-.179-.269-.448-.179-.717.806-1.254 1.075-2.509.806-3.764-.806-3.226-5.197-5.466-5.197-5.466-.269-.09-.359-.448-.179-.717.089-.269.448-.358.716-.179.18.089 4.75 2.509 5.736 6.183.448 1.524.089 3.137-.896 4.57-.18 0-.18.09-.269.09z" fill="#D96C63"/><path d="M293.846 110.676c0 .627-.269 1.075-.717 1.344-.089.09-.179.09-.358.179-.269.09-.538.179-.896.179.268.18.448.359.627.538.179.179.269.359.358.627.09.269.18.807-.268 1.255-.807 1.075-2.689 1.523-4.212 1.703 1.075.627 2.061 1.523 2.33 2.419.179.538.179 1.076-.18 1.524-.268.268-.627.537-1.075.806-1.165.538-2.957.986-4.122 1.165-.448-.448-.628-.717-.628-.717h-.985c.089-.089.179-.089.269-.089 1.881-.18 5.108-.897 5.735-1.703.089-.09.179-.269.089-.627-.358-.986-2.15-2.241-3.763-2.599-.269-.09-.448-.269-.359-.538 0-.269.269-.448.538-.448 1.255 0 4.66-.179 5.646-1.434.089-.179.089-.269.089-.358-.089-.269-.358-.448-.806-.717-.807-.448-2.061-.896-2.958-1.165-.089 0-.179-.09-.268-.179-.09-.09-.18-.269-.09-.448.09-.269.358-.448.627-.359.179 0 .538.09.986.269.807.09 1.703.179 2.33.09.358 0 .627-.09.896-.269.09-.09.269-.179.269-.538 0-.448-.179-.986-.538-1.523a.575.575 0 0 1 0-.538c.18-.269.628-.269.807.09.358.716.627 1.433.627 2.061z" fill="#D96C63"/><path d="M290.172 101.177a15.593 15.593 0 0 1 2.33 1.702c.717.717 1.165 1.076 1.702 1.524 0-.09 0 .089 0 0l-9.768-41.313c-.179-.627-1.075-.448-.985.18l6.721 37.907zM298.596 124.118c-3.406 2.151-4.302.538-4.302.538l-1.702-9.679.179-.179c.358-.538.358-.986.269-1.255-.09-.179-.18-.448-.359-.627l-.358-.358v-.18c.269 0 .448-.089.717-.179.089-.089.268-.089.358-.179.269-.179.538-.448.627-.807.448.359.897.628 1.524.717h.448l2.599 12.188z" fill="#39393B"/><path d="M301.553 108.973c-.09.09-1.613 1.344-3.316 2.24-.986.448-1.972.807-2.957.717-.807-.089-1.344-.448-1.793-1.075-1.613-2.151-.268-4.929.717-6.452l.628.627s.179-.09.358-.269c-.806 1.255-2.24 3.764-.896 5.467.269.358.627.627 1.165.627 1.792.179 4.57-1.882 5.466-2.688.18-.18.538-.18.717 0 .18.358.09.627-.089.806z" fill="#D96C63"/><path d="M353.619 98.936v.18l-.09.268-.089.628c-.09.179-.09.448-.18.717-.089.268-.089.448-.179.716-.179.897-.448 1.882-.717 2.868-.538 1.882-1.075 3.854-1.703 5.735-.627 1.882-1.344 3.764-2.061 5.646-.358.896-.806 1.792-1.165 2.778-.358.896-.806 1.792-1.254 2.689a95.75 95.75 0 0 1-2.778 5.197c-.269.448-.538.807-.717 1.255-.269.448-.538.806-.807 1.254l-1.613 2.42c-1.075 1.613-2.33 3.047-3.495 4.57-1.254 1.434-2.509 2.868-3.853 4.212l-.986.986-1.075.986-.538.448-.09.089.09-.089.09-.09c.089-.089.269-.179.358-.269.538-.358 1.255-.717 1.882-.896.179 0 .269-.089.448-.089H334.8c.179.089-.179 0-.628-.18-.448-.179-1.075-.537-1.702-.896a19.718 19.718 0 0 1-2.061-1.344c-1.434-.986-2.958-2.24-4.481-3.495-1.523-1.344-3.047-2.688-4.57-4.122a105.196 105.196 0 0 1-4.481-4.481c-1.524-1.523-2.957-3.136-4.481-4.66-.717-.806-1.434-1.613-2.24-2.419l-2.151-2.33-16.31 12.277.538.806.538.807 1.075 1.523 2.151 2.958a138.52 138.52 0 0 0 4.391 5.735 140.36 140.36 0 0 0 4.749 5.556c.807.896 1.703 1.792 2.51 2.688l2.688 2.689c1.882 1.792 3.764 3.495 6.004 5.287 1.076.896 2.241 1.703 3.585 2.509a46.045 46.045 0 0 0 4.301 2.42 21.765 21.765 0 0 0 5.915 1.971l.448.09c.179 0 .358.09.448.09.358.089.627.089.986.089.358 0 .717.09 1.075.09h2.24c.359 0 .807-.09 1.255-.09.179 0 .448-.089.627-.089.18 0 .448-.09.628-.09.448-.09.806-.179 1.254-.269 1.703-.448 3.495-1.255 4.929-2.33l1.075-.806.269-.18.269-.179.179-.179.717-.627 1.524-1.345c.448-.448.985-.896 1.433-1.433 1.972-1.882 3.675-3.854 5.467-5.825 1.703-2.062 3.316-4.123 4.75-6.363 1.523-2.151 2.867-4.391 4.122-6.631l.896-1.703c.269-.538.627-1.165.896-1.703.269-.537.627-1.165.896-1.702l.807-1.793c2.15-4.749 3.853-9.588 5.197-14.517.628-2.509 1.255-4.929 1.703-7.528.269-1.254.448-2.509.627-3.853 0-.359.09-.628.09-.986s.09-.627.09-.986c0-.358.089-.717.089-1.075l.09-1.255-21.597-2.33z" fill="#FAAF3A"/><path d="M302.359 126.806c.09.807.717 1.344 1.524 1.255.806-.09 1.344-.717 1.254-1.524-.089-.806-.717-1.344-1.523-1.254-.717.089-1.344.717-1.255 1.523zM331.663 151.002a.675.675 0 0 0 .628-.448c1.165-4.481.985-10.216.985-10.395a.612.612 0 0 0-.627-.628.613.613 0 0 0-.627.628c0 .089.179 5.735-.986 10.126-.09.359.09.628.448.717h.179z" fill="#C77E2E"/><path d="M335.517 146.611c.089 0 .179 0 .269-.09.269-.179.448-.537.268-.806-.089-.179-2.061-4.033-2.957-5.198-.179-.269-.627-.269-.806-.089-.269.179-.269.627-.09.806.807 1.076 2.778 4.929 2.778 5.019.09.268.269.358.538.358zM298.058 138.456c.179 0 .359-.09.448-.179 5.019-5.198 16.4-13.442 16.489-13.442a.583.583 0 0 0 .179-.807.583.583 0 0 0-.806-.179c-.09.09-11.56 8.334-16.668 13.621-.269.269-.269.628 0 .807 0 .179.179.179.358.179z" fill="#C77E2E"/><path d="M302.897 134.065c.179 0 .269-.09.359-.179.269-.179.269-.627.089-.807l-6.093-7.258c-.18-.269-.628-.269-.807-.09-.269.179-.269.627-.09.806l6.094 7.259c.09.179.269.269.448.269z" fill="#C77E2E"/><path d="M415.99 197.87s1.792 16.758-2.061 26.078c-3.854 9.32-53.141 4.57-65.687-3.853-5.198-3.406 5.824-35.219 5.824-35.219l61.924 12.994z" fill="#39393B"/><path d="M375.932 224.844c0 .359.269.628.627.628.359 0 .628-.269.628-.538.089-2.33.269-4.66.358-6.99 0-.448.09-.807.09-1.255.537-7.617 1.165-15.144 1.613-20.521 0-.448.089-.807.089-1.255.09-1.165.18-2.24.269-3.047-.448-.089-.806-.089-1.254-.179-.09.896-.18 1.882-.269 3.136 0 .359-.09.807-.09 1.255-.448 5.287-1.075 12.725-1.613 20.342 0 .449-.089.807-.089 1.255-.09 2.42-.18 4.839-.359 7.169z" fill="#585859"/><path d="M374.14 216.779c.18.09 1.076.538 2.241.806.358.09.806.269 1.254.359.359.09.807.09 1.165.179.807 0 1.524 0 2.151-.358.807-.359 1.255-1.076 1.434-1.972.448-2.33 1.434-12.098 2.061-18.998 0-.448.09-.807.09-1.255.089-1.075.179-2.15.268-2.957-.448-.09-.806-.09-1.254-.179-.09.896-.179 1.882-.269 2.957 0 .359-.09.807-.09 1.255-.627 6.9-1.613 16.578-2.061 18.908-.089.538-.358.896-.806 1.076-.628.358-1.703.269-2.689 0a6.643 6.643 0 0 1-1.254-.359 19.444 19.444 0 0 1-1.703-.717c-.358-.179-.717 0-.807.269-.179.448 0 .807.269.986z" fill="#585859"/><path d="M346.449 196.795c13.622 12.725 45.972 19.536 70.885 7.438 2.689-7.438 5.735-34.143 6.542-42.029.179-1.613.269-3.137.358-4.75.538-7.617.359-15.324 0-23.389 0-.448 0-.896-.089-1.344-.359-6.632-.807-13.532-1.255-20.791-.896-14.428-5.735-23.3-14.069-24.644-3.854-.627-6.99-1.702-9.231-2.778-.268-.09-.537-.268-.806-.358-2.688-1.344-4.212-2.599-4.212-2.599h-18.64c-1.613 2.33-3.674 3.853-5.825 4.84-.268.089-.448.268-.717.358-6.631 2.867-14.338 2.33-15.951 10.305-.986 5.019 2.868 15.324 2.42 36.294 0 1.524-.09 3.137-.18 4.75a785.956 785.956 0 0 0-.268 4.839c-.09 1.523-.269 3.136-.448 4.749-.18 1.434-.269 2.868-.448 4.391-.18 1.524-.359 3.137-.628 4.75-1.254 8.513-4.57 28.856-7.438 39.968z" fill="#FAAF3A"/><path d="M410.434 201.186h-.18c-.269-.09-.448-.358-.358-.717 10.395-37.996 8.244-76.62 8.244-77.068 0-.269.18-.538.538-.627.269 0 .538.179.627.537 0 .359 2.151 39.251-8.334 77.427-.089.269-.269.448-.537.448zM354.156 151.809c.269 0 .538-.269.627-.538 1.255-11.023 1.255-32.888 1.255-33.068a.613.613 0 0 0-.627-.627.613.613 0 0 0-.628.627c0 .18 0 22.045-1.254 32.978 0 .269.269.628.627.628zM379.786 193.21c.089.807.717 1.345 1.523 1.255.807-.09 1.344-.717 1.255-1.523-.09-.807-.717-1.345-1.524-1.255-.806.09-1.344.717-1.254 1.523zM363.118 125.104c-3.675-4.212-2.33-13.711-2.241-14.159 0-.269.269-.538.628-.538h12.456c.269 0 .538.179.627.538.09.358 1.434 9.857-2.24 14.159-1.165 1.344-2.689 2.061-4.57 2.061-1.972 0-3.495-.717-4.66-2.061zm-1.076-13.443c-.269 1.972-.806 9.32 2.061 12.636.897 1.075 2.151 1.613 3.675 1.613 1.523 0 2.688-.538 3.674-1.613 2.867-3.316 2.24-10.664 2.061-12.636h-11.471z" fill="#C77E2E"/><path d="M396.275 35.49c-3.495-2.241-14.428-3.406-14.428-3.406s-1.792-4.75-3.854-6.094c-4.66-3.047-5.197 3.137-5.197 3.137s-4.481-6.273-8.603-4.481c-4.033 1.792 1.165 7.707 1.165 7.707s-6.094-1.165-5.377 4.032c.717 5.198 6.542 7.439 6.542 7.439s-1.792 2.957-.896 7.706c.896 4.75 2.957 4.93 2.957 4.93l25.271 2.24s5.198 0 6.542-6.542c1.344-6.542-3.136-9.23-3.136-9.23s2.867-5.02-.986-7.439z" fill="#39393B"/><path d="M375.664 78.325v4.75a11.38 11.38 0 0 0 1.702 1.165c8.245 4.928 17.117-1.165 17.117-1.165v-16.49l-16.579 10.306-2.24 1.434z" fill="#EA9B7A"/><path d="M375.664 78.146v4.839a11.38 11.38 0 0 0 1.702 1.165c6.99-2.778 12.098-10.127 12.098-10.127l-11.56 2.779-2.24 1.344z" fill="#39393B"/><path d="M394.393 78.235s5.556.897 7.08 7.26c-5.377 5.645-10.216 10.574-17.923 12.007v-11.38s6.81-1.703 10.843-7.887z" fill="#FAAF3A"/><path d="M375.485 79.848s-4.929 1.076-6.901 7.438c5.019 6.094 7.618 8.335 14.966 10.216v-11.38s-4.033-.09-8.065-6.274z" fill="#FAAF3A"/><path d="M372.706 168.118l3.226 7.707 1.434 3.495 4.033 9.858 1.971-3.764.717-1.344 1.613-3.047.627-1.344 1.613-3.047.717-1.344 1.524-3.047.717-1.345 1.523-2.867-.089-.359-.18-2.24-.537-5.198-.269-2.24-.538-5.198-.179-2.24-.538-5.108-.269-2.33-.448-5.108-.269-2.24-.537-5.198-.179-2.24-.538-5.198-.269-2.24-.538-5.198-.179-2.24-.538-5.108-.268-2.33-.538-5.287-3.943-.18-.09.896-.269 1.793-.537 4.122-.179 1.792-.538 4.033-.269 1.882-.538 4.032-.269 1.793-.537 4.122-.179 1.792-.538 4.123-.269 1.792-.538 4.032-.269 1.793-.537 4.122-.179 1.792-.538 4.123-.269 1.792-.538 4.032-.268 1.882-.538 4.033-.179 1.792-.538 4.123-.269 1.792v.089z" fill="#39393B"/><path d="M381.219 103.238l5.108 5.108-.269-2.33-4.57-4.571-.269 1.793zM380.502 109.152l6.542 6.542-.179-2.24-6.183-6.094-.18 1.792zM379.696 115.067l8.155 8.065-.269-2.24-7.617-7.707-.269 1.882zM378.889 120.892l9.679 9.678-.18-2.24-9.23-9.231-.269 1.793zM378.172 126.806l11.202 11.202-.269-2.24-10.753-10.754-.18 1.792zM377.366 132.721l12.725 12.725-.269-2.33-12.187-12.187-.269 1.792zM376.56 138.546l14.248 14.248-.179-2.24-13.801-13.801-.268 1.793zM375.842 144.46l15.772 15.772-.268-2.24-15.324-15.324-.18 1.792zM375.036 150.375l17.296 17.295-.18-2.24-16.847-16.847-.269 1.792zM374.229 156.289l15.952 15.952.717-1.345-16.4-16.489-.269 1.882zM373.513 162.114l14.428 14.518.717-1.344-14.966-14.966-.179 1.792zM372.706 168.029l12.994 12.994.627-1.344-13.352-13.442-.269 1.792zM375.932 175.825l1.434 3.495 6.004 6.094.717-1.344-8.155-8.245z" fill="#585859"/><path d="M385.521 100.729l-1.972 2.867-1.971-3.047-.359 2.599 2.33 2.33 2.241-2.688-.269-2.061z" fill="#585859"/><path d="M388.837 95.8l-5.287 7.796-5.019-7.796 5.019-6.453 5.287 6.453z" fill="#39393B"/><path d="M391.884 101.177c.179 0 .269-.09.358-.09 5.198-4.122 9.589-14.876 9.768-15.324a.663.663 0 0 0-.358-.806.664.664 0 0 0-.807.358c0 .09-4.212 10.216-8.961 14.428l-7.886-10.754a.493.493 0 0 0-.448-.269.492.492 0 0 0-.448.27l-7.349 10.484c-1.165-2.061-4.122-7.438-6.542-12.456-.179-.27-.537-.448-.806-.27-.269.18-.448.538-.269.807 3.137 6.273 6.99 13.263 7.08 13.353.089.179.268.269.537.269.18 0 .448-.09.538-.269l7.438-10.575 7.796 10.575c0 .179.09.269.359.269-.09 0 0 0 0 0z" fill="#C77E2E"/><path d="M383.639 89.885a.613.613 0 0 0 .627-.627V86.57a.613.613 0 0 0-.627-.628.613.613 0 0 0-.627.628v2.688c0 .358.269.627.627.627z" fill="#C77E2E"/><path d="M369.749 57.266s-2.689-3.227-4.212 0c-1.523 3.226-.358 9.588 3.764 8.603l.448-8.603z" fill="#D96C63"/><path d="M366.881 68.467s0 9.768 10.216 9.768c10.127 0 17.027-7.975 17.386-8.334l.089-2.06.538-10.665.269-5.735s1.254-10.306-8.514-12.188c-7.169-1.344-13.89-.18-17.206 3.585-.089.09-.179.269-.358.358-1.075 1.344-1.703 2.868-1.882 4.84l-.358 10.305-.09 2.51-.09 7.616z" fill="#EA9B7A"/><path d="M378.531 50.813s4.302 3.226 6.811 1.165c2.509-2.06-3.405-4.212-5.377-4.122-1.882.18-2.688 2.24-1.434 2.957zM373.871 50.813s-4.301 3.226-6.81 1.165c-2.509-2.06 3.405-4.212 5.377-4.122 1.971.18 2.778 2.24 1.433 2.957z" fill="#39393B"/><path d="M377.277 69.722c1.613.18 2.867-.896 2.957-.896a.554.554 0 0 0 .09-.627.553.553 0 0 0-.628-.09c-.089.09-1.433 1.255-3.136.448-.269-.09-.538 0-.627.269-.09.269 0 .538.268.627.359.18.717.269 1.076.269z" fill="#D96C63"/><path d="M381.668 62.732s-6.184 1.255-9.41.986c0 0 1.165 4.66 5.825 3.495 3.674-.986 3.585-4.48 3.585-4.48z" fill="#fff"/><path d="M369.391 43.107c1.613-.538 2.778 0 5.287 1.075 3.584 1.613 7.617.18 11.202-1.703 3.584-1.792 5.735.717 4.48 2.42-1.254 1.703-1.075 3.047.269 5.108 1.344 2.15-2.509 3.136-.358 4.75.896.716.896 1.702.448 2.688-.359 1.075.537 2.15 1.613 1.971 1.165-.268 2.778-2.33 2.778-2.33l.269-5.735s1.254-10.306-8.514-12.187c-7.169-1.345-13.89-.18-17.206 3.584 0 .09-.179.269-.268.359z" fill="#39393B"/><path d="M380.502 59.416c0 .717 1.434 1.255 3.316 1.255 1.792 0 3.316-.538 3.316-1.255 0-.717-1.434-1.254-3.316-1.254s-3.316.627-3.316 1.254zM367.061 60.76h.806c1.792 0 3.316-.537 3.316-1.254s-1.434-1.255-3.316-1.255h-.717l-.089 2.51z" fill="#D96C63"/><path d="M379.069 55.563c0 .986.448 1.792.986 1.792.537 0 .985-.806.985-1.792s-.448-1.792-.985-1.792c-.538 0-.986.806-.986 1.792zM369.211 55.563c0 .986.449 1.792.986 1.792.538 0 .986-.806.986-1.792s-.448-1.792-.986-1.792c-.537 0-.986.806-.986 1.792zM391.256 65.869c.09.09 1.345 3.136 3.226 3.943l.09-2.061c0 .09-1.613-.18-3.316-1.882z" fill="#39393B"/><path d="M393.049 59.058s3.943-5.287 6.811-1.165c2.329 3.405-2.151 12.277-6.811 9.23v-8.065z" fill="#EA9B7A"/><path d="M393.586 65.6c.18 0 .359-.18.359-.359.448-3.943 3.764-5.377 3.943-5.466.179-.09.269-.359.269-.538-.09-.18-.359-.269-.538-.269-.179.09-3.943 1.613-4.391 6.094-.09.359.09.538.358.538z" fill="#39393B"/><path d="M397.35 63.18c.09 0 .269-.09.269-.18.179-.178.089-.447-.09-.537-.179-.09-1.613-1.254-2.778-.986-.179.09-.358.27-.269.449.09.179.269.358.448.268.717-.179 1.793.538 2.151.807.09.18.179.18.269.18zM375.843 60.492c.179 0 .448-.18.448-.448 0-.18-.18-.448-.448-.448-1.524 0-2.151-.807-2.42-1.165 1.613-3.316 3.226-6.632 3.226-6.721.09-.18 0-.449-.179-.538-.179-.09-.448 0-.538.18 0 0-1.702 3.494-3.315 6.9a.272.272 0 0 0 0 .358c.089.18.896 1.882 3.226 1.882z" fill="#39393B"/><path d="M473.523 96.875s5.466 5.467 10.753 3.316c4.302-1.703 5.288-7.797 5.467-10.037.089-.538.089-.896.089-.896s.269-.18.717-.448c.986-.717 2.51-2.15 2.33-3.764-.269-2.33-4.57-1.075-4.57-1.075s.627-2.868-.627-3.675c-1.255-.806-3.854.628-3.854.628s1.344-3.495-.537-4.391c-2.868-1.255-3.764 3.046-3.943 3.315 0-.269 1.433-13.531-.897-12.814-1.971.627-3.763 11.65-4.301 14.607-.09.448-.09.717-.09.717h-.448c-1.254 0-5.018.358-5.735 2.957-.538 3.316 5.646 11.56 5.646 11.56z" fill="#EA9B7A"/><path d="M484.635 87.555c-.448.986-.717 2.151-.448 2.957.179.538.448.897.896.986.358.09.717.09 1.165 0 1.165-.179 2.599-.806 3.495-1.254.089-.538.089-.897.089-.897s.269-.179.717-.448c-.089 0-.179 0-.269.09-1.433.807-4.122 1.972-4.928 1.703-.09 0-.269-.09-.359-.359-.269-.896.448-2.688 1.344-3.763a.432.432 0 0 0 0-.628.551.551 0 0 0-.627-.09c-.896.628-3.495 2.24-4.749 1.882-.18-.09-.18-.179-.18-.179-.089-.179 0-.538.18-.896.358-.717.985-1.703 1.613-2.33.089-.09.089-.18.089-.269 0-.179 0-.269-.179-.358a.433.433 0 0 0-.627 0c-.269.269-1.076 1.254-1.613 2.33-.179.358-.359.717-.359 1.075v.627c.09.27.269.628.807.807 1.165.269 2.778-.358 3.943-.986z" fill="#D96C63"/><path d="M477.824 83.791c.179.09.269.18.359.359.089.537.179 1.075.358 1.344.179.269.358.269.448.269.179 0 .448-.09.717-.269.717-.358 1.613-1.165 2.42-1.972 0 .09 0 .18-.09.27-.538.627-1.255 1.612-1.613 2.33-.09.089-.179.089-.269.179-.269.179-.538.268-.806.358-.09 0-.18 0-.359.09-.448 0-.896-.18-1.255-.628-.358-.448-.537-1.075-.537-1.792 0-.448.269-.627.627-.538z" fill="#D96C63"/><path d="M471.461 88.72c.09 0 1.882.18 3.495-.09.896-.179 1.882-.447 2.42-.985.538-.448.806-.986.806-1.703.09-2.33-2.33-3.674-3.853-4.301-.09.448-.09.717-.09.717h-.448c1.255.448 3.495 1.613 3.495 3.495 0 .448-.179.717-.448.985-1.165 1.076-4.212.986-5.287.897-.269 0-.448.179-.448.358-.09.448.089.627.358.627zM480.961 97.234c.179 0 .268-.09.358-.27.09-.268 0-.447-.269-.537-1.254-.448-2.061-1.255-2.509-2.33-1.075-2.778.896-6.542.896-6.631.09-.18 0-.448-.179-.628-.179-.09-.448 0-.627.18-.09.179-2.151 4.211-.986 7.348.538 1.344 1.523 2.24 3.047 2.868h.269z" fill="#D96C63"/><path d="M414.915 90.423l9.32 8.065c1.523 1.344 2.957 2.778 4.481 4.122 1.523 1.345 2.957 2.778 4.48 4.123 1.524 1.344 2.958 2.688 4.481 4.032 1.523 1.344 2.957 2.599 4.481 3.854 1.434 1.254 2.957 2.419 4.301 3.495.717.537 1.344.985 1.882 1.344l.359.269.179.089.089.09.09.09c.09.089 0 .089.09.179.089.089.179.089.448.089.537 0 1.523-.358 2.599-.985 1.075-.628 2.33-1.613 3.584-2.689a35.485 35.485 0 0 0 3.674-3.674c2.42-2.688 4.75-5.735 6.901-8.961 2.24-3.227 3.763-5.646 5.735-9.051 3.226 3.853 8.155 5.824 13.532 5.197-1.524 4.122-3.226 8.155-5.198 12.098-1.971 3.943-4.212 7.886-6.9 11.74-1.344 1.881-2.778 3.853-4.481 5.645a49.232 49.232 0 0 1-5.825 5.467 26.963 26.963 0 0 1-3.764 2.419c-1.434.717-2.957 1.434-4.66 1.972-1.702.538-3.674.896-5.645.896-1.972.09-4.123-.179-6.004-.807-.986-.268-1.882-.627-2.779-.985l-.627-.269-.538-.269-.537-.269c-.179-.089-.359-.179-.448-.269-1.255-.717-2.33-1.344-3.406-1.971-2.061-1.344-3.853-2.599-5.645-3.854-1.793-1.344-3.495-2.598-5.198-3.943-1.703-1.344-3.405-2.688-5.018-4.032-1.613-1.344-3.226-2.689-4.839-4.123-1.614-1.344-3.227-2.778-4.75-4.122-1.613-1.434-3.137-2.778-4.66-4.212l-2.33-2.15-1.165-1.076-1.165-1.165 14.876-16.4z" fill="#FAAF3A"/><path d="M423.697 128.509c-.09 0-.179 0-.358-.09-6.094-4.301-17.027-13.352-17.117-13.442-.269-.179-.268-.538-.089-.806.179-.269.537-.269.806-.09.09.09 10.933 9.141 17.027 13.353a.583.583 0 0 1 .179.806.493.493 0 0 1-.448.269z" fill="#C77E2E"/><path d="M411.061 118.741s-.089 0 0 0l-4.391-.627c-.269 0-.537-.359-.448-.628 0-.269.359-.537.627-.448l4.302.628c.269 0 .538.358.448.627 0 .269-.269.448-.538.448zM482.574 106.822c.179-.089.358-.358.269-.627-.09-.269-.359-.538-.717-.448-8.155 1.792-12.188-6.004-12.188-6.094-.179-.269-.448-.358-.806-.269-.269.18-.359.448-.269.807 0 .089 4.48 8.603 13.442 6.631.179.09.179.09.269 0z" fill="#C77E2E"/><path d="M478.362 107.001l.269-.268 2.688-6.273c.09-.269 0-.628-.269-.717-.269-.09-.627 0-.717.269l-2.688 6.273c-.09.268 0 .627.269.716.089.09.269.09.448 0zM473.523 100.997c.269.448.806.717 1.344.448.448-.268.717-.806.448-1.344-.269-.448-.806-.717-1.344-.448-.448.269-.627.896-.448 1.344zM447.714 126.985a.492.492 0 0 0 .269-.448s.627-3.584 1.703-5.645c.179-.269 0-.628-.269-.807-.269-.179-.628 0-.807.269-1.165 2.24-1.792 5.825-1.792 6.004-.09.269.179.627.448.627.269.09.358 0 .448 0z" fill="#C77E2E"/><path d="M451.478 125.731s.089 0 .089-.09c.269-.179.269-.537.09-.806 0 0-1.613-1.972-1.972-3.764-.089-.269-.358-.538-.716-.448-.269.089-.538.358-.448.717.448 2.15 2.15 4.212 2.24 4.301.179.09.448.179.717.09z" fill="#C77E2E"/></g><path d="M129.761 378.802c71.666 0 129.762-3.531 129.762-7.886 0-4.356-58.096-7.886-129.762-7.886C58.096 363.03 0 366.56 0 370.916c0 4.355 58.096 7.886 129.761 7.886z" fill="#CED3E6"/><path d="M121.696 151.092l13.084 47.943-4.66-5.376c1.703.896 3.764 1.613 5.915 2.15 2.24.538 4.659.807 7.169.897 2.509.089 5.197.089 7.886 0 2.688-.09 5.466-.359 8.244-.538 4.123-.359 7.707 2.688 8.066 6.811.358 3.943-2.42 7.437-6.273 8.065-2.868.448-5.825.896-8.783 1.254-3.047.359-6.093.628-9.32.717a62.787 62.787 0 0 1-9.947-.537c-3.405-.538-6.99-1.345-10.395-2.868-2.24-.986-3.764-2.778-4.481-4.929l-.179-.537-15.772-47.138c-1.792-5.287 1.075-11.022 6.363-12.814 5.287-1.793 11.022 1.075 12.814 6.362.18.179.269.359.269.538z" fill="#EA9B7A"/><path d="M126.715 324.854c-.18 0-.359 0-.628-.09l-68.644-24.733a1.846 1.846 0 0 1-1.075-2.241 1.845 1.845 0 0 1 2.24-1.075l68.644 24.734a1.844 1.844 0 0 1 1.076 2.24c-.179.717-.896 1.165-1.613 1.165z" fill="#C77E2E"/><path d="M55.202 324.854c-.716 0-1.344-.448-1.613-1.165-.358-.896.18-1.882 1.076-2.24l69.54-25.182c.897-.359 1.882.179 2.241 1.075.358.896-.18 1.882-1.076 2.241l-69.54 25.181c-.18.09-.448.09-.628.09z" fill="#C77E2E"/><path d="M132.898 369.123c-1.434 0-2.778-1.075-2.957-2.598l-12.367-92.662H65.598L53.41 366.525c-.179 1.613-1.702 2.778-3.315 2.509-1.613-.179-2.778-1.703-2.51-3.316l12.547-95.17a2.998 2.998 0 0 1 2.957-2.599h56.994c1.524 0 2.779 1.075 2.958 2.599l12.725 95.17c.179 1.613-.896 3.137-2.509 3.316-.179.089-.269.089-.359.089z" fill="#FAAF3A"/><path d="M103.594 270.996h-37.1c-11.74 0-24.375-6.452-26.167-18.013-2.42-15.503-3.047-30.558-2.33-44.359.717-15.593 8.244-30.11 20.521-39.788 0 0 7.438 32.261-1.882 76.889 3.495 16.847 46.958 25.271 46.958 25.271z" fill="#FAAF3A"/><path d="M95.798 81.64s-4.391-10.663-16.041-8.602c-8.155 1.434-11.65 11.56-11.112 27.243.717 22.851-6.99 36.562-6.99 36.562l10.216 2.33s26.078-39.161 23.927-57.532zM189.355 329.424h-16.578s-3.854-18.371-5.108-28.676c-1.255-10.306-1.972-34.771-1.972-34.771s-13.173 4.302-40.864 2.689c-61.207-3.585-37.907-48.571-37.907-48.571 2.061 2.868 14.697.896 23.389 2.24 26.616 2.509 49.647 12.994 63.447 18.998 3.316 1.434 6.273 2.958 8.872 4.571 3.316 2.061 5.467 8.334 6.721 16.489 3.764 24.644 0 67.031 0 67.031z" fill="#39393B"/><path d="M174.838 320.552c-.269 0-.538-.179-.538-.448-2.42-11.829-3.226-26.525-3.853-38.355-.538-9.767-1.076-19.087-2.33-20.163-.986-.896-5.288-.179-10.665.717-10.664 1.792-26.794 4.481-44.627.269-9.679-2.24-16.848-6.99-21.15-13.98-7.527-12.098-4.122-27.153-4.032-27.332.09-.359.358-.538.717-.448.358.089.538.358.448.717 0 .179-3.316 14.696 3.943 26.436 4.212 6.721 11.023 11.291 20.432 13.442 17.564 4.122 33.516 1.434 44.09-.358 6.363-1.076 10.127-1.703 11.56-.449 1.524 1.345 1.972 8.155 2.689 20.97.627 11.829 1.434 26.436 3.853 38.176.09.358-.179.627-.448.717 0 .089 0 .089-.089.089z" fill="#585859"/><path d="M189.714 320.911l-18.461-.359c-.358 0-.627-.268-.537-.627 0-.358.268-.627.627-.538l18.46.359c.359 0 .628.269.538.627-.089.269-.358.538-.627.538z" fill="#585859"/><path d="M188.907 350.663h-11.65l-2.24-13.711-1.255-7.528h14.518l.179 7.528.448 13.711z" fill="#EA9B7A"/><path d="M188.907 350.663h-11.65l-1.703-10.216-.537-3.495h13.442l.179 3.674.269 10.037z" fill="#FAAF3A"/><path d="M188.638 340.626l-13.084-.179-.537-3.495h13.442l.179 3.674z" fill="#C77E2E"/><path d="M217.763 369.123h-44.27c-.358-.627-.537-1.433-.537-2.419-.269-3.764.896-9.679 1.523-13.442.09-.448.09-.807.179-1.255.09-.627.09-1.165.09-1.523 0-3.047 2.688-2.51 2.688-2.51 4.481 4.391 9.499-2.15 12.546 0 0 0 .09.09.359.269.269.179.627.538 1.165.896.717.628 1.792 1.524 3.226 2.868 3.495 3.136 9.499 5.287 14.607 7.348.627.269 1.255.538 1.792.807.448.179.807.448 1.165.627 4.123 2.241 5.467 4.391 5.736 5.915.358 1.523-.269 2.419-.269 2.419z" fill="#0875F7"/><path d="M212.386 360.7c-1.165.896-3.674 2.688-5.735 2.688h-.269c-1.434-.09-6.721-2.688-11.023-5.108-2.419-1.344-4.66-2.688-6.273-3.764-2.688-1.702-3.136-2.419-3.226-2.867-.358-1.703 2.509-2.958 4.481-3.585.269.179.627.538 1.165.896-2.509.717-4.57 1.792-4.481 2.33.269.538 2.868 2.509 9.141 5.915 4.749 2.598 9.32 4.749 10.305 4.839 1.345.089 3.406-1.165 4.66-2.061.449.358.897.537 1.255.717zM217.763 369.123h-44.27c-.358-.627-.537-1.434-.537-2.419h45.165c.269 1.434-.358 2.419-.358 2.419z" fill="#084FC7"/><path d="M178.064 369.123h-1.345c1.345-1.523 2.51-3.763 2.42-7.079-.179-4.391-2.868-7.349-4.66-8.872.09-.448.09-.807.179-1.255 1.972 1.524 5.287 4.75 5.556 10.037.09 3.226-.896 5.556-2.15 7.169z" fill="#084FC7"/><path d="M194.015 354.516c-.358 0-.627-.179-.717-.537-.089-.359.179-.807.538-.897l2.778-.716c.358-.09.806.179.896.537.09.359-.179.807-.538.896l-2.778.717h-.179zM191.327 352.276c-.359 0-.628-.179-.717-.538-.09-.358.179-.806.537-.896l2.778-.717c.359-.089.807.179.897.538.089.358-.18.806-.538.896l-2.778.717h-.179zM196.793 356.129c-.358 0-.627-.179-.717-.537-.089-.359.18-.807.538-.897l2.778-.717c.359-.089.807.18.896.538.09.359-.179.807-.537.896l-2.778.717h-.18zM199.571 357.742c-.358 0-.627-.179-.717-.537-.089-.359.18-.807.538-.896l2.778-.717c.358-.09.807.179.896.537.09.359-.179.807-.538.896l-2.778.717c-.089-.089-.089 0-.179 0zM202.618 359.087c-.358 0-.627-.18-.717-.538-.089-.359.179-.807.538-.896l2.778-.717c.358-.09.806.179.896.537.09.359-.179.807-.538.897l-2.778.717h-.179zM205.844 360.341c-.358 0-.627-.179-.717-.538-.089-.358.179-.806.538-.896l2.778-.717c.358-.089.806.18.896.538.09.359-.179.807-.538.896l-2.778.717h-.179z" fill="#fff"/><path d="M56.189 205.846s-.538 3.585 4.301 4.571l49.915 1.702s3.406-1.702 2.778-5.914c0 0-21.149-11.829-56.994-.359z" fill="#084FC7"/><path d="M111.033 222.335c-25.899 14.249-54.217 2.778-54.217 2.778 1.344-3.764 2.42-8.065 3.136-11.918a101.256 101.256 0 0 0 1.524-10.575c11.022-.627 37.996-1.792 48.571.717l.089 4.212.897 14.786z" fill="#EA9B7A"/><path d="M91.945 215.525c-.18 1.344-.807 2.33-1.344 2.24-.538-.09-.807-1.255-.628-2.599.18-1.344.807-2.33 1.344-2.24.538.089.807 1.254.628 2.599zM110.316 207.639c-11.023-.628-32.71-.897-50.274 5.556a101.25 101.25 0 0 0 1.523-10.575c11.023-.627 37.997-1.792 48.571.717l.18 4.302z" fill="#D96C63"/><path d="M122.593 187.117c-.09.358-.269.627-.359.896-.089.09-.089.179-.179.358-1.344 2.599-3.495 4.84-5.377 6.363-.358.359-.717.627-1.075.896-.627.538-1.255.986-1.613 1.255a4.06 4.06 0 0 1-.538.358v.09c0 .179 0 .358-.089.627-.09.807-.09 1.792-.18 2.868 0 .896-.089 1.882-.089 2.957v2.42c-14.607-6.542-44.807-2.42-56.905-.359.179-1.075.448-2.061.627-3.047.896-4.66 1.344-8.782 1.523-12.546.27-5.556-.179-13.89-1.344-22.582-.09-.538-.179-1.076-.269-1.703-.09-.359-.09-.717-.179-1.075-.448-2.689-.896-5.467-1.434-8.066-2.42-11.47-.717-23.568 10.933-25.002.807-.09 1.703-.179 2.51-.269 5.466-.627 10.036-.806 11.29-.806h.36l22.493 6.541 2.15.628c1.255.358 2.33.806 3.406 1.165.448.179.896.358 1.344.448 1.075.448 2.061.806 2.957 1.165 1.792.806 3.226 1.613 4.391 2.419 4.929 3.495 4.212 7.438 4.033 15.324v1.434c0 .986 0 1.972.089 3.047.09 1.434.18 2.957.359 4.391.09.538.09 1.165.179 1.703.09.537.09 1.075.179 1.613.896 6.9 2.061 12.904.807 16.489z" fill="#0875F7"/><path d="M120.89 158.53V159.874l-4.75 2.957c-.179.09-.269.09-.448.09a.494.494 0 0 1-.448-.269c-.179-.269-.089-.717.179-.896l5.019-3.136c.179-.09.358-.09.448-.09zM89.705 183.891a.687.687 0 0 1-.448-.179c-.27-.269-.18-.717.09-.897l4.39-3.943c.27-.268.717-.179.896.09.27.269.18.717-.09.896l-4.39 3.943c-.09 0-.27.09-.448.09zM121.786 170.628l-3.047 2.688a.681.681 0 0 1-.448.179.684.684 0 0 1-.448-.179c-.269-.269-.179-.717.09-.896l3.674-3.316c.089.448.089.986.179 1.524zM80.833 167.939c-.09-.179-.18-.358-.09-.537.09-.359.448-.538.807-.448l5.735 1.344c.359.089.538.448.448.806-.09.359-.448.538-.806.448l-5.736-1.344c-.179 0-.269-.179-.358-.269zM60.221 179.231a.687.687 0 0 1-.448-.179c-.269-.269-.18-.717.09-.897l4.39-3.943c.27-.268.718-.179.897.09.269.269.18.717-.09.896l-4.39 3.943c-.09.09-.27.09-.449.09zM111.481 178.335c.089-.18.179-.359.358-.359.359-.179.717 0 .896.359l2.33 5.466c.18.359 0 .717-.358.896-.359.179-.717 0-.896-.358l-2.33-5.467c-.09-.269-.09-.448 0-.537zM122.593 187.117c-.09.358-.269.627-.359.896-.089.09-.089.179-.179.358l-3.226-.985c-.179-.09-.269-.18-.359-.269-.089-.179-.089-.359-.089-.538.089-.358.448-.538.806-.448l3.406.986zM104.401 187.655c.179 0 .358 0 .538.179a.688.688 0 0 1 .089.896l-3.943 4.391a.69.69 0 0 1-.896.09.69.69 0 0 1-.089-.897l3.943-4.391c.089-.179.179-.268.358-.268zM102.071 177.528a.494.494 0 0 1-.448-.269c-.179-.269-.09-.717.179-.896l5.019-3.136c.268-.18.717-.09.896.179.179.269.089.717-.179.896l-5.019 3.136c-.089.09-.269.09-.448.09zM105.297 158.44c.09.18.18.359.18.538 0 .358-.359.627-.717.627l-5.915-.627c-.358 0-.627-.358-.627-.717 0-.358.358-.627.717-.627l5.914.627c.179 0 .359.09.448.179zM96.694 145.715c0-.179.18-.358.359-.448.358-.179.717-.09.896.269l2.778 5.197c.179.359.09.717-.269.897-.358.179-.717.089-.896-.269l-2.778-5.198c-.09-.179-.09-.358-.09-.448zM116.768 194.734c-.358.359-.717.627-1.075.896l-.807-1.971c-.09-.18-.09-.359 0-.448a.699.699 0 0 1 .359-.359c.358-.089.716 0 .896.359l.627 1.523zM62.64 184.697a.57.57 0 0 1 0-.537c.09-.359.539-.538.807-.359l5.557 1.972c.358.089.537.537.358.806-.09.359-.538.538-.806.359l-5.557-1.972c-.179 0-.358-.09-.358-.269zM65.33 192.225c.179 0 .358.089.448.179.268.269.179.717-.09.896l-4.391 3.943c-.27.269-.717.179-.896-.089-.27-.269-.18-.717.09-.897l4.39-3.943c.09 0 .27-.089.448-.089zM73.394 198.498c.09.179.18.358.09.538-.09.358-.358.627-.717.537l-5.825-.986c-.358-.089-.627-.358-.537-.806.09-.359.358-.627.716-.538l5.825.986c.18 0 .359.09.448.269zM78.234 143.027c-.09-.18 0-.359.09-.538.179-.269.627-.359.896-.179l5.018 3.226c.269.179.359.627.18.896-.18.269-.628.358-.897.179l-5.018-3.226c-.09-.09-.18-.179-.27-.358zM112.197 146.79a.575.575 0 0 1 .538 0c.359.09.538.538.359.807l-1.972 5.646c-.09.358-.538.537-.807.358-.358-.09-.537-.538-.358-.806l1.972-5.557c0-.179.089-.358.268-.448zM109.509 139.532l-3.047 3.943c-.269.269-.627.358-.896.089s-.359-.627-.09-.896l2.778-3.584c.448.179.896.358 1.255.448zM79.668 193.748c.09.18.179.359.448.359h.269c.09 0 9.678-3.137 19.715 1.075 5.108 2.151 9.678 2.957 13.352 2.868 0-.179 0-.448.09-.628v-.089s.179-.09.537-.359c-3.584.18-8.244-.627-13.531-2.778-10.485-4.301-20.074-1.165-20.522-1.075-.358 0-.448.269-.358.627zM102.698 137.291c-1.254 1.972-3.853 4.212-9.14 3.764-7.26-.538-12.009-7.438-13.711-10.305h.358l22.493 6.541z" fill="#084FC7"/><path d="M94.902 150.196c.18 0 .448.089.627.089 1.972.18 3.675-.448 4.84-1.702 3.494-3.854 2.061-12.546 1.971-12.905a.673.673 0 0 0-.627-.448.674.674 0 0 0-.448.627c0 .09 1.434 8.514-1.703 12.009-.986 1.075-2.24 1.523-3.943 1.344-7.08-.538-14.966-18.461-15.055-18.64-.09-.269-.448-.358-.717-.269-.269.09-.359.448-.269.717.448.717 7.886 17.654 15.324 19.178z" fill="#fff"/><path d="M116.858 143.116c-.448 5.198.806 13.711 4.122 19.805-.09-1.344-.09-2.688-.09-3.943v-.179-.448c.18-7.707.896-11.74-4.032-15.235zM75.456 152.257c-2.599 9.947-12.009 17.923-18.46 15.503-.09-.538-.18-1.075-.27-1.702-.09-.359-.09-.717-.179-1.076-.448-2.688-.896-5.466-1.434-8.065-2.42-11.471-.717-23.569 10.933-25.003.807-.089 1.703-.179 2.51-.268 5.824 2.419 9.857 9.14 6.9 20.611z" fill="#EA9B7A"/><path d="M76.8 144.64l15.145 55.292-5.377-6.184c1.971 1.076 4.301 1.882 6.9 2.42s5.377.896 8.245 1.075c2.957.179 6.004.09 9.051 0 3.136-.089 6.273-.358 9.499-.627 4.749-.448 8.961 3.136 9.32 7.886.358 4.57-2.868 8.513-7.259 9.23-3.316.538-6.721 1.076-10.216 1.434-3.495.359-6.99.717-10.754.807a72.039 72.039 0 0 1-11.47-.628c-3.944-.537-8.066-1.613-12.009-3.315-2.599-1.076-4.39-3.226-5.198-5.646l-.179-.538-18.191-54.396c-2.062-6.093 1.254-12.725 7.348-14.786 6.094-2.061 12.725 1.255 14.786 7.348.27.18.27.448.359.628z" fill="#EA9B7A"/><path d="M83.61 198.139c-.179 0-.269-.089-.358-.268a.473.473 0 0 1 .18-.628c.178-.089 3.494-1.971 6.9-2.24.268 0 .447.179.447.448s-.179.448-.448.448c-3.226.269-6.541 2.061-6.541 2.061-.09.179-.18.179-.18.179z" fill="#D96C63"/><path d="M89.077 196.168c-.09 0-.18 0-.27-.09-2.06-1.254-4.57-1.434-4.66-1.434-.268 0-.447-.268-.447-.448 0-.268.269-.448.448-.448.09 0 2.778.18 5.018 1.613.18.09.269.448.18.628 0 .089-.09.179-.27.179z" fill="#D96C63"/><path d="M102.519 167.043c6.721 1.344 9.589-5.556 9.679-5.645.089-.269 0-.628-.269-.717-.269-.09-.627 0-.717.268-.09.269-2.599 6.184-8.424 5.019-6.094-1.255-17.475-13.263-17.564-13.353a.567.567 0 0 0-.807 0c-.179.18-.269.538 0 .717.448.538 11.74 12.367 18.102 13.711z" fill="#084FC7"/><path d="M92.034 123.491s-10.753-2.061-13.8-12.905c-2.868-10.305-.627-15.682 2.33-21.238 2.24-4.212 9.41-9.858 19.446-7.797 10.127 2.061 17.744 7.259 18.819 15.593 2.151 15.593-10.395 34.591-26.794 26.347z" fill="#39393B"/><path d="M78.772 112.289a.493.493 0 0 1-.449-.269c-.179-.358-4.75-8.513-.985-19.177 2.33-6.721 6.99-9.679 10.395-11.023 3.764-1.434 6.9-1.344 6.99-1.254.269 0 .537.268.537.627 0 .269-.268.538-.627.538 0 0-3.047-.09-6.631 1.254-4.66 1.792-7.976 5.287-9.768 10.306-3.585 10.216.806 18.191.896 18.281.18.269.09.627-.18.807 0-.18-.089-.09-.178-.09z" fill="#FAAF3A"/><path d="M112.915 112.468s3.494-2.778 4.391.896c.896 3.675-1.703 10.127-5.736 8.155l1.345-9.051z" fill="#D96C63"/><path d="M109.419 119.189c-1.703.538-3.316 2.151-3.674 4.033-.538 2.868 1.255 5.646 4.122 6.183 2.868.538 5.646-1.254 6.184-4.122.448-2.151-.538-4.212-2.151-5.377-.538-.358-1.255-.717-1.972-.806h-.089c-.09.358-.09.627.179.896a7.906 7.906 0 0 1 1.523.717c1.345.985 2.062 2.688 1.703 4.391-.448 2.419-2.868 3.943-5.287 3.495-2.42-.448-3.943-2.868-3.495-5.198.358-1.703 1.613-2.957 3.316-3.405l-.359-.807z" fill="#FAAF3A"/><path d="M102.25 128.061l-1.433 9.141s-6.811 6.99-19.357-5.556c3.405-2.51 4.66-8.334 4.212-12.098 0 0 .986.627 2.509 1.971.269.269.717.448 1.075.717 3.316 2.33 8.335 5.287 12.994 5.825z" fill="#EA9B7A"/><path d="M102.251 128.061l-.717 4.302c-3.764-1.703-10.396-5.288-13.353-10.844.359.269.717.448 1.076.717 3.315 2.33 8.334 5.287 12.994 5.825z" fill="#39393B"/><path d="M116.23 110.228c-.179.986-.358 1.882-.538 2.778a70.866 70.866 0 0 1-.537 2.688c-1.345 6.363-2.509 9.768-4.391 11.023-9.32 6.452-24.555-6.542-25.003-6.99v-2.24a55.248 55.248 0 0 1 2.868-16.848c.806-5.556 5.197-10.037 10.754-10.933 5.825-.896 10.126 2.51 12.904 3.943 3.943 2.24 5.556 8.513 3.943 16.579z" fill="#EA9B7A"/><path d="M88.808 94.904s6.542-12.546 19.625-9.051c13.084 3.495 13.711 9.588 13.98 12.635.269 3.047-6.721-2.33-6.721-2.33s-.269 6.094-2.599 4.212c-2.867-2.33-6.093-7.258-6.093-7.258s-7.797 7.617-15.145 5.556c-4.212-1.255-3.047-3.764-3.047-3.764z" fill="#39393B"/><path d="M104.849 122.595c-1.703 0-2.868-1.165-2.957-1.255a.433.433 0 0 1 0-.627.432.432 0 0 1 .627 0c.09.089 1.434 1.434 3.226.806.269-.089.538.09.627.269.09.269-.089.538-.268.627-.448.09-.807.18-1.255.18z" fill="#D96C63"/><path d="M100.995 114.977s6.273 1.882 9.589 1.882c0 0-1.613 4.66-6.273 3.047-3.674-1.344-3.316-4.929-3.316-4.929z" fill="#fff"/><path d="M112.645 101.804s-1.613-.179-1.344 1.434c.269 1.613 3.854.627 5.556 3.764 0 .089 1.703-3.316-4.212-5.198zM105.387 100.37s1.613.448.717 1.882c-.896 1.344-3.764-.896-6.632 1.344 0-.089-.268-3.763 5.915-3.226z" fill="#39393B"/><path d="M102.519 111.751c-.179.717-1.792 1.076-3.674.628-1.882-.359-3.316-1.345-3.136-2.062.179-.716 1.792-1.075 3.674-.627 1.882.359 3.315 1.255 3.136 2.061z" fill="#D96C63"/><path d="M121.159 112.199l-5.108-.896c0 .179-.09.448-.09.627v.09l5.108.896a.492.492 0 0 0 .448-.269c-.09-.179-.179-.358-.358-.448zM107.538 107.898c0-.269 0-.538-.09-.807a6.974 6.974 0 0 0-1.703-3.674c-.896-.896-1.971-1.613-3.315-1.882h-.09c-2.957-.627-5.915.986-7.08 3.585-.09.269-.179.448-.269.717-.09.179-.09.448-.179.627-.358 1.703 0 3.316.807 4.66.269.448.627.896.986 1.255a6.314 6.314 0 0 0 3.136 1.702 6.195 6.195 0 0 0 5.556-1.523c.986-.896 1.703-2.061 1.972-3.495.269-.359.269-.807.269-1.165zm-7.528 5.466h-.09c-1.613-.358-2.867-1.344-3.674-2.688-.627-1.165-.896-2.509-.627-3.943l.269-.807v-.089c.806-2.061 2.778-3.495 4.928-3.585.449 0 .986 0 1.524.09 1.075.179 1.971.717 2.778 1.434 1.344 1.344 2.061 3.226 1.613 5.197-.717 3.047-3.674 5.019-6.721 4.391z" fill="#fff"/><path d="M118.918 105.299l-.537-.269c-.179-.089-.448-.179-.628-.269-.179-.089-.358-.089-.448-.089-.268-.09-.627-.09-.896-.09h-1.075c-.986.09-1.882.448-2.689.896-.896.538-1.613 1.344-2.15 2.241a2.69 2.69 0 0 0-.359.717c-.179.358-.269.716-.358 1.075a6.284 6.284 0 0 0 2.33 6.362 8.992 8.992 0 0 0 2.061 1.076c.09 0 .269.089.358.089h.18c.627.09 1.254.18 1.792.09h.269c.269 0 .537-.09.806-.179a4.23 4.23 0 0 0 1.344-.538c1.614-.896 2.868-2.419 3.316-4.391.627-2.688-.806-5.466-3.316-6.721zm2.599 6.811c0 .089-.089.269-.089.358-.09.179-.09.359-.18.538-.448 1.165-1.254 2.151-2.33 2.778a3.14 3.14 0 0 1-1.254.538c-.269.089-.538.179-.807.179h-.268c-.628.089-1.255.089-1.793-.09h-.269a6.491 6.491 0 0 1-2.33-1.254l-.268-.269a5.356 5.356 0 0 1-1.434-5.019c.089-.448.179-.806.358-1.165a5.27 5.27 0 0 1 2.778-2.778c.717-.358 1.524-.537 2.42-.537h.448c.269 0 .448.089.717.089.179 0 .358.09.537.09.269.089.449.179.717.269l.538.269c1.792 1.165 2.957 3.494 2.509 6.004zM87.195 106.374s-.09 0-.09-.089c-.179-.09-.269-.359-.09-.538 2.51-3.943 8.693-.448 8.693-.358.18.089.27.358.09.537-.09.18-.359.269-.538.09-.09 0-5.556-3.226-7.707.09 0 .179-.179.268-.358.268z" fill="#fff"/><path d="M110.316 108.704c-.09 0-.18-.089-.269-.179-.807-1.254-2.599-.717-2.599-.717-.179.09-.448 0-.448-.269-.09-.179 0-.448.269-.448.806-.269 2.509-.358 3.405.986.09.179.09.448-.09.538-.089.179-.179.179-.268.089z" fill="#fff"/><path opacity=".8" d="M115.693 113.006a72.77 72.77 0 0 1-.538 2.688c-1.703-.448-2.957-1.254-2.868-1.971.179-.717 1.613-.986 3.406-.717z" fill="#D96C63"/><path d="M103.863 107.987c-.179.986-.807 1.793-1.434 1.614-.538-.09-.896-1.076-.627-2.062.179-.985.806-1.792 1.434-1.613.537.09.896.986.627 2.061zM114.079 110.049c-.179.985-.807 1.792-1.434 1.613-.538-.09-.896-1.076-.627-2.062.179-.985.806-1.792 1.434-1.613.537.09.806.986.627 2.062zM108.792 112.827c.448.089.806.089.896.089.09 0 .269-.089.269-.179.089-.09.089-.179.089-.358l-.627-4.84c0-.268-.269-.358-.448-.358-.269 0-.358.269-.358.448l.627 4.301c-.448-.089-1.075-.268-1.613-.716-.179-.18-.448-.09-.627.089-.18.179-.09.448.089.627.448.538 1.165.717 1.703.897zM89.883 116.142c-.09.09-2.06 2.958-4.212 3.495v-2.24c.09.09 2.151.09 4.212-1.255z" fill="#39393B"/><path d="M89.436 108.704s-2.958-6.362-6.9-2.598c-3.227 3.046-.36 13.352 5.107 11.112l1.793-8.514z" fill="#EA9B7A"/><path d="M82.087 114.171c-1.703.537-3.316 2.151-3.674 4.032-.538 2.868 1.255 5.646 4.122 6.184 2.868.538 5.646-1.255 6.184-4.122.448-2.151-.538-4.212-2.151-5.377-.538-.359-1.255-.717-1.972-.807h-.09c-.089.359-.089.627.18.896.538.18 1.075.448 1.523.717 1.345.986 2.061 2.689 1.703 4.391-.448 2.42-2.868 3.943-5.198 3.495-2.42-.448-3.943-2.867-3.495-5.197.359-1.703 1.614-2.958 3.316-3.406l-.448-.806z" fill="#FAAF3A"/><path d="M87.554 115.425c.268 0 .537-.179.537-.358.448-4.839-3.226-7.259-3.316-7.348a.552.552 0 0 0-.627.089.553.553 0 0 0 .09.628c.18.089 3.316 2.24 2.957 6.541-.09.18.09.359.359.448z" fill="#39393B"/><path d="M84.058 112.02h.27c.447-.179 1.702-.717 2.419-.358.18.089.448 0 .537-.18.09-.179 0-.448-.179-.537-1.165-.538-2.957.269-3.136.448-.18.089-.27.358-.18.537.09 0 .18.09.27.09zM93.289 97.861s-4.033 10.933-4.212 13.084c-.27 2.957-4.302-7.259-.27-16.041l4.482 2.957zM160.499 329.514h-16.578s-3.854-18.371-5.108-28.677c-1.255-10.305-1.972-34.77-1.972-34.77s-13.173 4.301-40.864 2.688c-61.206-3.584-37.996-48.571-37.996-48.571 2.06 2.868 17.564 6.811 26.257 8.155 26.615 2.51 46.778 7.08 60.669 12.994 3.315 1.434 6.273 2.958 8.871 4.571 3.316 2.061 5.467 8.334 6.721 16.489 3.764 24.644 0 67.121 0 67.121z" fill="#39393B"/><path d="M145.982 320.642c-.269 0-.538-.179-.538-.448-2.42-11.829-3.226-26.526-3.853-38.355-.538-9.768-1.076-19.088-2.33-20.163-.986-.896-5.288-.179-10.664.717-10.665 1.792-26.795 4.48-44.628.269-9.679-2.241-16.848-6.99-21.15-13.98-7.527-12.098-4.122-27.153-4.032-27.333.09-.358.358-.537.717-.448.358.09.538.359.448.717 0 .18-3.316 14.697 3.943 26.436 4.212 6.722 11.023 11.292 20.432 13.443 17.564 4.122 33.516 1.433 44.09-.359 6.363-1.075 10.127-1.703 11.561-.448 1.523 1.344 1.971 8.155 2.688 20.97.627 11.829 1.434 26.436 3.853 38.176.09.358-.179.627-.448.716 0 .09 0 .09-.089.09z" fill="#585859"/><path d="M160.858 321l-18.461-.358c-.358 0-.627-.269-.537-.627 0-.359.268-.628.627-.538l18.46.358c.359 0 .628.269.538.628-.089.269-.269.537-.627.537z" fill="#585859"/><path d="M160.052 350.752h-11.65l-2.241-13.71-1.254-7.528h14.517l.269 7.528.359 13.71z" fill="#EA9B7A"/><path d="M160.051 350.752h-11.65l-1.702-10.216-.538-3.495h13.532l.089 3.585.269 10.126z" fill="#FAAF3A"/><path d="M159.782 340.626l-13.083-.09-.538-3.495h13.532l.089 3.585z" fill="#C77E2E"/><path d="M188.907 369.213h-44.269c-.359-.627-.538-1.434-.538-2.42-.269-3.763.896-9.678 1.524-13.442.089-.448.089-.806.179-1.254.089-.628.089-1.165.089-1.524 0-3.047 2.689-2.509 2.689-2.509 4.481 4.391 9.499-2.151 12.546 0 0 0 .089.09.358.269.269.179.628.538 1.165.896.717.627 1.793 1.523 3.226 2.868 3.495 3.136 9.5 5.287 14.608 7.348.627.269 1.254.538 1.792.807.448.179.806.448 1.165.627 4.122 2.24 5.466 4.391 5.735 5.914.448 1.434-.269 2.42-.269 2.42z" fill="#0875F7"/><path d="M183.531 360.789c-1.165.896-3.675 2.689-5.736 2.689h-.269c-1.433-.09-6.721-2.689-11.022-5.108-2.42-1.345-4.66-2.689-6.273-3.764-2.689-1.703-3.137-2.42-3.226-2.868-.359-1.702 2.509-2.957 4.48-3.584.269.179.628.537 1.165.896-2.509.717-4.57 1.792-4.48 2.33.269.537 2.867 2.509 9.14 5.914 4.75 2.599 9.32 4.75 10.306 4.839 1.344.09 3.405-1.165 4.66-2.061.448.359.896.538 1.255.717zM188.907 369.213h-44.269c-.359-.627-.538-1.434-.538-2.42h45.166c.358 1.434-.359 2.42-.359 2.42z" fill="#084FC7"/><path d="M149.208 369.213h-1.344c1.344-1.524 2.509-3.764 2.419-7.08-.179-4.391-2.867-7.348-4.659-8.871.089-.448.089-.807.179-1.255 1.971 1.523 5.287 4.75 5.556 10.037.089 3.136-.896 5.466-2.151 7.169z" fill="#084FC7"/><path d="M165.16 354.606c-.359 0-.628-.179-.717-.538-.09-.358.179-.806.537-.896l2.778-.717c.359-.09.807.179.897.538.089.358-.18.806-.538.896l-2.778.717h-.179zM162.471 352.276c-.358 0-.627-.179-.717-.538-.089-.358.179-.806.538-.896l2.778-.717c.358-.089.806.179.896.538.09.358-.179.806-.538.896l-2.778.717h-.179zM167.938 356.219c-.359 0-.627-.179-.717-.538-.09-.358.179-.806.538-.896l2.778-.717c.358-.089.806.179.896.538.089.358-.179.806-.538.896l-2.778.717h-.179zM170.716 357.742c-.359 0-.628-.179-.717-.537-.09-.359.179-.807.538-.896l2.778-.717c.358-.09.806.179.896.537.089.359-.18.807-.538.896l-2.778.717h-.179zM173.763 359.176c-.359 0-.628-.179-.717-.537-.09-.359.179-.807.537-.897l2.778-.717c.359-.089.807.18.897.538.089.359-.18.807-.538.896l-2.778.717h-.179zM176.989 360.431c-.359 0-.628-.179-.717-.538-.09-.358.179-.806.537-.896l2.778-.717c.359-.09.807.179.897.538.089.358-.18.806-.538.896l-2.778.717h-.179z" fill="#fff"/><path d="M221.527 219.468v3.674c0 2.15-1.255 3.853-2.868 3.853H20.253c-1.613 0-2.868-1.703-2.868-3.853v-3.674c0-2.151 1.255-3.854 2.868-3.854h198.495c1.524.09 2.779 1.792 2.779 3.854z" fill="#21B573"/><path d="M221.527 220.633H17.385v1.702h204.142v-1.702zM215.612 236.405H29.035c-.806 0-1.523-.717-1.523-1.524v-7.975h189.534v7.975c.089.896-.627 1.524-1.434 1.524zM207.278 283.273H40.417v6.542h166.861v-6.542z" fill="#217C58"/><path d="M28.318 370.378L60.67 236.405H49.288L17.027 370.378h11.291zM219.017 370.378l-32.261-133.973h11.292l32.35 133.973h-11.381z" fill="#21B573"/><path d="M35.582 184.849l-3.543.543 4.043 26.398 3.544-.543-4.044-26.398z" fill="#FAAF3A"/><path d="M35.488 184.876l-3.495.538.806-2.688.359-1.345.806 1.165 1.524 2.33z" fill="#EA9B7A"/><path d="M39.341 209.35l-3.543.543.298 1.949 3.544-.543-.299-1.949z" fill="#39393B"/><path d="M39.61 212.836l-3.047.448c-.09 0-.269-.089-.269-.179l-.179-1.255 3.495-.537.18 1.254c0 .179-.09.269-.18.269z" fill="#DF615C"/><path d="M33.964 182.546l-1.165.18.359-1.345.806 1.165z" fill="#39393B"/><path d="M39.128 208.002l-3.544.542.218 1.418 3.543-.543-.217-1.417zM33.068 186.579l2.957 19.536c0 .179.18.269.269.269.18 0 .269-.179.269-.269l-2.957-19.536c0-.179-.18-.269-.27-.269-.178 0-.268.09-.268.269zM34.502 186.4l2.957 19.536c0 .179.18.269.269.269.18 0 .269-.18.269-.269L35.04 186.4c0-.179-.18-.269-.27-.269-.268 0-.358.09-.268.269z" fill="#C77E2E"/><path d="M41.896 185.051l-3.584.012.087 26.705 3.585-.012-.088-26.705z" fill="#21B573"/><path d="M41.85 184.966l-3.494.09 1.075-2.599.628-1.255.627 1.255 1.165 2.509z" fill="#EA9B7A"/><path d="M41.937 209.784l-3.585.012.007 1.972 3.584-.012-.006-1.972z" fill="#39393B"/><path d="M41.67 213.284h-3.046c-.09 0-.269-.09-.269-.269v-1.344h3.585v1.344c0 .179-.09.269-.27.269z" fill="#DF615C"/><path d="M40.685 182.457H39.43l.627-1.255.628 1.255z" fill="#39393B"/><path d="M41.937 208.351l-3.584.011.004 1.434 3.585-.012-.005-1.433zM39.162 186.31l.09 19.805c0 .179.089.269.268.269.18 0 .269-.09.269-.269l-.09-19.805c0-.179-.09-.269-.268-.269-.09 0-.27.18-.27.269zM40.595 186.31l.09 19.805c0 .179.09.269.269.269.179 0 .268-.09.268-.269l-.09-19.805c0-.179-.089-.269-.268-.269-.18 0-.269.18-.269.269z" fill="#217C58"/><path d="M44.497 184.86l-3.754 26.44 3.549.504 3.755-26.44-3.55-.504z" fill="#0875F7"/><path d="M47.944 185.414l-3.495-.538 1.523-2.33.807-1.165.358 1.345.807 2.688z" fill="#EA9B7A"/><path d="M44.585 209.887l-3.549-.504-.277 1.952 3.549.504.277-1.952z" fill="#39393B"/><path d="M43.732 213.374l-3.047-.448c-.09 0-.18-.18-.18-.269l.18-1.255 3.495.538-.18 1.255c0 .089-.089.179-.268.179z" fill="#DF615C"/><path d="M47.137 182.726l-1.165-.18.807-1.165.358 1.345z" fill="#39393B"/><path d="M41.177 208.002l-.202 1.419 3.55.505.2-1.42-3.548-.504zM45.166 186.31l-2.778 19.626c0 .179.09.269.269.269.179 0 .268-.09.268-.269l2.778-19.536c0-.179-.09-.269-.268-.269-.09-.09-.27 0-.27.179zM46.51 186.49l-2.778 19.625c0 .179.09.269.269.269.179 0 .269-.09.269-.269l2.778-19.625c0-.18-.09-.269-.27-.269-.089 0-.268.179-.268.269z" fill="#084FC7"/><path d="M49.109 195.541l-.18 1.433-.179 1.345-.269 1.971-.179 1.255-.179 2.061-.18 1.254-.268 1.972-.18 1.255-.268 2.061-.18 1.254-.268 1.972-.09 1.254-.179 1.076H32.62l-.18-1.076-.179-1.254-.179-1.972-.18-1.254-.268-2.061-.18-1.255-.268-1.972-.18-1.254-.268-2.061-.09-1.255-.268-1.971-.18-1.345-.179-1.433h19.088z" fill="#DF615C"/><path d="M48.93 196.974l-.18 1.345H30.38l-.18-1.345h18.73zM48.482 200.29l-.18 1.255H30.738l-.09-1.255h17.834zM48.123 203.606l-.18 1.254H31.187l-.18-1.254h17.117zM47.675 206.832l-.18 1.255H31.634l-.18-1.255h16.22zM47.227 210.148l-.18 1.254H32.083l-.18-1.254h15.325zM46.779 213.374l-.09 1.254H32.441l-.18-1.254H46.78z" fill="#B11722"/><path d="M220.451 144.64l-11.918 50.184-.269 1.344-.807 3.405c-.358 1.434-1.613 2.509-3.136 2.509h-80.026c-2.061 0-3.674-1.971-3.136-4.032l12.994-54.934c.358-1.434 1.613-2.509 3.136-2.509h80.026c2.061.09 3.584 1.972 3.136 4.033z" fill="#39393B"/><path d="M208.533 194.913l-.269 1.255h-83.073v-1.255h83.342z" fill="#585859"/><path d="M156.467 153.063c-.627 3.585-4.122 6.453-7.617 6.453-3.585 0-5.915-2.868-5.198-6.453.627-3.584 4.122-6.452 7.617-6.452 3.585 0 5.915 2.957 5.198 6.452z" fill="#FAAF3A"/><path d="M149.208 151.898c-.09.717-.448 1.255-.807 1.255-.269 0-.448-.538-.358-1.255.089-.717.448-1.254.806-1.254.359-.09.538.537.359 1.254zM152.613 151.898c-.09.717-.448 1.255-.806 1.255-.269 0-.448-.538-.359-1.255.09-.717.448-1.254.807-1.254.358-.09.448.537.358 1.254z" fill="#39393B"/><path d="M149.566 156.2c-2.778 0-2.867-2.778-2.867-2.778 0-.179.089-.269.269-.359.179 0 .268.09.268.18 0 .089.09 2.33 2.42 2.33s3.226-2.241 3.316-2.33c.089-.18.269-.269.358-.18.179 0 .179.18.179.359-.089 0-1.165 2.778-3.943 2.778z" fill="#39393B"/><path d="M193.477 183.174c.09 3.316 5.736 7.527 5.736 7.527s6.542-4.211 7.348-7.527c.896-3.585-3.226-4.75-6.363-1.972-2.419-2.778-6.81-1.613-6.721 1.972z" fill="#DF615C"/><path d="M181.559 173.495c-.359 3.495-3.495 6.273-6.99 6.273s-5.915-2.778-5.556-6.273c.358-3.495 3.495-6.273 6.99-6.273 3.405 0 5.914 2.868 5.556 6.273zM140.426 140.697l-13.801 61.385h-2.33c-2.061 0-3.674-1.971-3.136-4.032l12.994-54.934c.358-1.434 1.613-2.509 3.136-2.509h3.137v.09z" fill="#585859"/><path d="M163.636 202.082l-2.51 13.622h8.066l2.419-13.622h-7.975z" fill="#fff"/><path d="M149.208 213.374l1.613-2.33c.627-.807 1.524-1.344 2.509-1.344h21.956c1.165 0 2.24.627 2.778 1.702l1.075 2.151c.538.986-.179 2.151-1.344 2.151h-27.512c-1.075 0-1.792-1.344-1.075-2.33z" fill="#fff"/><path d="M103.415 215.704h65.956l.717-2.509c.448-1.524-.717-3.137-2.33-3.137H106.82c-1.075 0-2.061.717-2.33 1.792l-1.075 3.854z" fill="#fff"/><path d="M189.982 124.297h-29.214a2.028 2.028 0 0 1-2.061-2.061v-17.923c0-1.165.896-2.061 2.061-2.061h29.214c1.165 0 2.062.896 2.062 2.061v17.923c-.09 1.165-.986 2.061-2.062 2.061z" fill="#DF615C"/><path d="M188.19 120.982l-2.689 10.036-4.57-9.409 7.259-.627z" fill="#DF615C"/><path d="M182.724 111.572c-.628 3.764-7.618 8.513-7.618 8.513s-6.81-4.749-7.169-8.513c-.448-4.122 4.391-5.377 7.438-2.24 3.226-3.047 7.976-1.793 7.349 2.24z" fill="#fff"/><path d="M554.264 376.203c27.469 0 49.736-2.207 49.736-4.929 0-2.722-22.267-4.929-49.736-4.929-27.468 0-49.736 2.207-49.736 4.929 0 2.722 22.268 4.929 49.736 4.929z" fill="#CED3E6"/><path d="M584.733 335.787h-62.73c-1.165 0-2.151-.986-2.151-2.151v-.986c0-1.165.986-2.15 2.151-2.15h62.73c1.165 0 2.151.985 2.151 2.15v.986c0 1.165-.986 2.151-2.151 2.151z" fill="#39393B"/><path d="M522.72 271.623h61.296c.986 0 1.882.807 1.882 1.882v7.528c0 .985-.807 1.882-1.882 1.882H522.72c-.986 0-1.882-.807-1.882-1.882v-7.528c.09-1.075.896-1.882 1.882-1.882z" fill="#585859"/><path d="M537.237 223.859s-25.898-5.108-33.067-23.121c-7.259-18.012 19.177-31.544 33.067-21.866 14.876 10.306 0 44.987 0 44.987z" fill="#21B573"/><path d="M552.651 271.265c-.269 0-.448-.18-.448-.359-2.509-16.758-12.456-40.864-20.432-58.159-8.603-18.73-16.758-33.695-16.848-33.785-.089-.269 0-.538.18-.627.268-.09.537 0 .627.179.09.179 8.244 15.145 16.847 33.874 7.976 17.296 18.013 41.492 20.432 58.429.09.179-.089.358-.358.448z" fill="#39393B"/><path d="M536.252 222.066a.492.492 0 0 1-.448-.268c-11.202-20.97-29.483-36.115-29.663-36.294-.179-.179-.268-.448-.089-.627.179-.18.448-.269.627-.09.179.179 18.55 15.503 29.931 36.563.09.268 0 .537-.179.627 0 .089-.09.089-.179.089z" fill="#39393B"/><path d="M536.79 223.59c-.09 0-.269-.09-.359-.179-8.244-9.679-16.579-15.683-22.224-18.999-6.094-3.584-10.216-4.928-10.306-5.018-.269-.09-.358-.358-.269-.627.09-.269.359-.359.628-.269.179.089 4.301 1.344 10.484 5.018 5.646 3.406 14.159 9.41 22.494 19.178.179.179.179.448-.09.627-.179.269-.269.269-.358.269zM534.459 218.123c-.179 0-.358-.089-.448-.358-6.273-18.461-3.943-40.954-3.943-41.223 0-.268.269-.448.538-.448s.448.269.448.538c0 .179-2.33 22.493 3.943 40.775.09.268-.09.537-.269.627-.089.089-.179.089-.269.089z" fill="#39393B"/><path d="M536.073 221.798c-.269 0-.448-.18-.448-.359-1.972-11.739-.448-21.238 1.165-27.243 1.702-6.452 3.853-10.126 3.943-10.216.089-.179.448-.268.627-.179.179.09.269.448.179.627 0 0-2.151 3.675-3.853 10.037-1.524 5.825-3.047 15.235-1.076 26.795 0 .269-.179.448-.537.538.089 0 0 0 0 0z" fill="#39393B"/><path d="M564.48 228.608s26.078-3.584 34.412-21.149c8.245-17.564-17.295-32.619-31.723-23.837-15.504 9.409-2.689 44.986-2.689 44.986z" fill="#21B573"/><path d="M554.622 269.741c-.268 0-.448-.179-.448-.448.09-8.603 1.972-18.46 5.556-29.214 2.868-8.603 6.901-17.833 11.829-27.333 8.514-16.22 17.027-28.049 17.117-28.228.179-.179.448-.269.627-.09.179.18.269.448.09.628-.09.089-8.603 11.918-17.027 28.139-7.796 14.965-17.116 36.831-17.296 56.098 0 .179-.179.448-.448.448z" fill="#39393B"/><path d="M565.645 226.906c-.09 0-.179 0-.269-.09-.179-.179-.269-.448-.179-.627 12.546-20.432 31.813-34.591 31.992-34.771.179-.179.538-.089.627.09.18.179.09.538-.089.627-.179.179-19.357 14.249-31.813 34.502 0 .179-.18.269-.269.269z" fill="#39393B"/><path d="M565.018 228.339c-.09 0-.269 0-.359-.089a.434.434 0 0 1 0-.628c8.872-9.23 17.744-14.786 23.569-17.833 6.363-3.315 10.574-4.391 10.754-4.391.268-.089.537.09.537.359.09.268-.089.537-.358.537 0 0-4.302 1.076-10.575 4.391-5.825 2.958-14.517 8.514-23.299 17.654h-.269zM567.616 222.963h-.179c-.269-.09-.358-.359-.269-.628 7.349-17.923 6.363-40.326 6.363-40.505 0-.269.179-.448.448-.448s.448.179.448.448c0 .268.986 22.851-6.362 40.864a.494.494 0 0 1-.449.269z" fill="#39393B"/><path d="M565.824 226.547h-.089c-.269-.09-.448-.269-.359-.538 2.599-11.381 1.703-20.88.448-26.794-1.344-6.452-3.226-10.216-3.226-10.306-.089-.269 0-.538.179-.627.269-.09.538 0 .628.179.089.179 1.971 3.943 3.315 10.485 1.255 6.004 2.151 15.682-.448 27.243-.089.268-.268.358-.448.358z" fill="#39393B"/><path d="M554.444 194.555s-22.135-14.338-22.135-33.785c0-19.446 29.483-22.224 38.803-8.065 10.037 15.145-16.668 41.85-16.668 41.85z" fill="#21B573"/><path d="M551.397 244.291h-.09c-.269-.09-.448-.269-.358-.538 3.943-16.489 3.584-42.567 2.599-61.565-1.076-20.611-3.047-37.459-3.137-37.638 0-.269.179-.448.448-.538.269 0 .448.18.538.449 0 .179 2.061 17.116 3.136 37.727.986 19.088 1.345 45.255-2.598 61.834-.18.09-.359.269-.538.269z" fill="#39393B"/><path d="M554.354 192.583c-.269 0-.448-.179-.448-.448-2.689-23.658-14.07-44.538-14.159-44.717-.09-.269 0-.538.179-.627.269-.09.538 0 .627.179.09.179 11.56 21.238 14.249 45.076.089.269-.09.537-.448.537.089 0 0 0 0 0z" fill="#39393B"/><path d="M554.264 194.196c-.179 0-.358-.089-.448-.358-4.032-12.008-9.588-20.701-13.621-25.899-4.302-5.645-7.707-8.423-7.707-8.423-.179-.18-.269-.448-.09-.628.18-.179.449-.268.628-.089.179.089 3.495 2.867 7.886 8.603 4.032 5.197 9.678 13.98 13.8 26.167.09.269-.089.538-.268.627h-.18zM554.175 188.192c-.269 0-.448-.269-.448-.448.985-19.536 11.47-39.52 11.56-39.789.089-.268.448-.358.627-.179.269.09.359.448.179.628-.089.179-10.485 20.073-11.47 39.34 0 .269-.18.448-.448.448z" fill="#39393B"/><path d="M554.354 192.225h-.09c-.269-.09-.448-.269-.358-.538 2.509-11.56 7.438-19.984 11.201-25.002 4.033-5.467 7.349-8.066 7.528-8.155.179-.179.538-.09.627.09.18.179.09.537-.089.627 0 0-3.406 2.688-7.349 8.065a65.824 65.824 0 0 0-11.022 24.554c-.09.18-.269.359-.448.359z" fill="#39393B"/><path d="M581.507 241.782l-.807 2.061-.448 1.254-1.433 3.674-.448 1.255-1.434 3.853-.448 1.255-6.184 16.399H536.61l-6.183-16.399-.448-1.255-1.434-3.853-.448-1.255-1.434-3.674-.448-1.254-.807-2.061a2.114 2.114 0 0 1 1.972-2.868h52.155a2.114 2.114 0 0 1 1.972 2.868z" fill="#0875F7"/><path d="M580.7 243.843l-.448 1.254h-53.679l-.448-1.254H580.7zM578.818 248.861l-.448 1.255h-49.915l-.448-1.255h50.811zM576.936 253.969l-.538 1.255h-45.972l-.537-1.255h47.047z" fill="#084FC7"/><path d="M544.407 282.825l-1.882 6.004-25.988 83.789h-5.108l16.489-82.086 1.613-7.707h14.876zM595.487 372.618h-5.019l-26.794-86.209-1.076-3.584h14.876l.359 1.882 17.654 87.911z" fill="#39393B"/><path d="M584.733 324.227h-62.73c-1.165 0-2.151-.986-2.151-2.151v-.986c0-1.165.986-2.151 2.151-2.151h62.73c1.165 0 2.151.986 2.151 2.151v.986c0 1.165-.986 2.151-2.151 2.151z" fill="#585859"/><path d="M175.465 67.571c13.412 0 24.285-10.752 24.285-24.016 0-13.264-10.873-24.017-24.285-24.017-13.413 0-24.286 10.753-24.286 24.017s10.873 24.016 24.286 24.016z" fill="#CED3E6"/><path d="M175.465 64.435c13.412 0 24.285-10.753 24.285-24.017s-10.873-24.016-24.285-24.016c-13.413 0-24.286 10.752-24.286 24.016 0 13.264 10.873 24.017 24.286 24.017z" fill="#0875F7"/><path d="M175.465 59.954c10.888 0 19.715-8.746 19.715-19.536 0-10.79-8.827-19.536-19.715-19.536-10.889 0-19.715 8.747-19.715 19.536 0 10.79 8.826 19.536 19.715 19.536z" fill="#fff"/><path d="M195.18 40.418c0 .538 0 1.076-.09 1.524-.806-10.037-9.32-18.013-19.715-18.013s-18.909 7.886-19.715 18.013c0-.538-.09-.986-.09-1.524 0-10.753 8.872-19.536 19.715-19.536 11.113 0 19.895 8.783 19.895 19.536z" fill="#CED3E6"/><path d="M175.465 42.39c-.18 0-.269-.09-.359-.18l-9.678-12.904c-.179-.18-.09-.538.089-.717.18-.179.538-.09.717.09l9.499 12.546 10.754-4.66c.269-.09.538 0 .627.269.09.269 0 .537-.268.627l-11.202 4.929h-.179z" fill="#39393B"/></g><defs><clipPath id="a"><path fill="#fff" transform="translate(0 .898)" d="M0 0h604v377.903H0z"/></clipPath><clipPath id="b"><path fill="#fff" transform="translate(278.701 24.198)" d="M0 0h214.178v171.163H0z"/></clipPath></defs></svg>