<svg width="671" height="417" viewBox="0 0 671 417" fill="none" xmlns="http://www.w3.org/2000/svg"><path d="M609.459 415.988c8.697-5.728 17.607-11.455 24.395-19.304 6.788-7.849 11.031-18.455 9.121-28.637-1.909-10.183-11.242-19.304-21.637-18.456-7.636.637-13.788 4.243-19.092 11.243 5.516-15.273 8.91-30.547 5.304-46.456-3.606-15.91-15.91-30.547-31.82-33.305-17.182-2.758-34.365 8.697-43.275 23.547-9.121 14.849-21.213 51.123-14.424 111.156" fill="#F55D3E"/><path d="M222.957 415.988c-1.909-34.577-17.607-67.458-40.305-84.004-22.698-16.546-51.76-16.546-74.458 0s-38.395 49.427-40.304 84.004" fill="#8FD8D7"/><path d="M550.699 415.988c11.031-15.91 20.789-29.698 24.819-48.578 4.243-18.88 2.546-39.456-8.061-55.79-10.394-16.334-30.546-27.153-50.062-24.183-17.183 2.757-31.184 15.485-39.669 30.334-8.485 14.85-12.091 31.82-15.697 48.366-6.789-14.849-23.547-24.607-40.305-23.758-16.758.848-32.032 12.303-38.184 27.364-6.151 15.274-2.757 33.517 7.849 46.033" fill="#F9E022"/><path d="M122.619 261.345l-26.728 24.183-42.85-15.91 4.666-89.095 33.305 16.122 17.395 8.485 2.969 24.395 1.697 14.425 9.546 17.395z" fill="#FFB78F"/><path d="M91.012 196.645l17.607 8.485 2.758 24.395c-13.152-3.606-25.032-12.516-31.396-24.607 3.819-2.97 7.213-5.728 11.031-8.273z" fill="#000"/><path d="M54.313 251.163s46.881 23.546 58.548-7.213l24.395 1.061v98.853H61.95" fill="#F9E022"/><path d="M65.132 306.741l15.061 9.546 50.488-44.76 21.425 57.063-67.882 37.547-42.002-25.88 22.91-33.516z" fill="#E8C80F"/><path d="M610.944 77.428c-9.758 11.667-25.032 18.243-40.093 17.606-13.788-.636-26.94-7-40.941-7.424-22.698-.849-44.547 16.334-50.275 38.608-5.515 22.061 4.879 47.093 23.971 59.396 19.092 12.304 45.396 12.304 64.912.637l14.213 15.697c-.637 17.395 9.97 34.577 25.879 41.578 15.91 7 35.85 3.394 48.366-8.698 12.516-12.091 16.546-32.031 9.758-48.153-4.03-9.546-11.455-17.395-16.758-26.304-8.061-13.365-11.879-30.759-4.455-44.548" fill="#000"/><path d="M552.82 161.855l-1.697 24.395 58.548 15.062-1.273-19.728 8.485-42.639-31.183-38.607-32.88 61.517z" fill="#F9C88F"/><path d="M593.973 131.309c.637 13.576 7.213 26.516 17.395 35.426l5.303-26.517-9.334-11.667c-4.454.849-8.909 1.909-13.364 2.758z" fill="#000"/><path d="M585.488 80.61l.212 2.757 5.727 50.911s17.395 30.547 47.306 15.274c16.546-8.485 28.637-39.032 28.213-65.548v-1.698-1.272-.849c0-1.06-.212-1.91-.212-2.97 0-.636-.212-1.273-.212-2.121-.212-.849-.212-1.697-.425-2.546-1.485-9.121-4.879-16.97-10.394-22.698-1.273-1.272-2.546-2.545-4.03-3.394-.637-.424-1.485-.848-2.122-1.272-.636-.425-1.273-.637-1.909-.849a24.863 24.863 0 0 0-5.091-1.91c-.212 0-.424 0-.424-.211-15.698-3.819-27.365 0-35.85 6.364-9.758 7.424-15.486 18.03-18.244 25.031-.424 1.06-.848 1.91-1.06 2.758l-.212.424-.213.636c-.212.637-.424 1.273-.636 1.697-.212.637-.424 1.273-.424 1.485z" fill="#F9C88F"/><path d="M635.127 120.702c-.424 0-.849 0-1.273-.212l.636-2.546c.849.213 1.485 0 2.334-.424.636-.424 1.06-1.06 1.273-1.909l3.182-18.88 2.545.425-3.182 18.879c-.212 1.485-1.06 2.758-2.333 3.607-1.061.848-2.122 1.06-3.182 1.06zM628.127 95.246c-.425 1.485-1.485 2.334-2.546 2.122-1.06-.212-1.485-1.697-1.273-2.97.425-1.485 1.485-2.334 2.546-2.121 1.061.212 1.697 1.485 1.273 2.97zM655.916 102.247c-.424 1.485-1.485 2.333-2.546 2.121-1.06-.212-1.485-1.697-1.273-2.97.425-1.485 1.485-2.333 2.546-2.121 1.061.212 1.697 1.485 1.273 2.97zM626.642 125.793c-1.697-.636-3.394-1.909-4.031-3.606-.848-1.697-.636-3.818 0-5.515l2.334 1.06c-.424 1.061-.424 2.334 0 3.182.424 1.061 1.273 1.91 2.333 2.122l-.636 2.757zM624.945 81.67c-.849 0-1.697 0-2.334.212-.636.212-1.273.637-1.273 1.273 0 .849 1.273 1.697 2.546 2.121 2.758.849 5.727 1.485 8.697 1.273 1.061 0 2.122-.212 2.758-.848 1.061-1.485-1.697-2.546-2.97-2.97-2.333-.849-5.091-1.06-7.424-1.06zM654.219 88.246a3.618 3.618 0 0 0-2.122 0c-.636.212-1.272.424-1.272 1.06-.212.85.848 1.698 1.909 2.334 2.333 1.273 4.879 2.121 7.424 2.334.849 0 1.91.212 2.334-.425 1.06-1.06-1.061-2.757-2.121-3.182-1.698-1.06-4.031-1.697-6.152-2.12z" fill="#000"/><path d="M608.61 181.584s-27.152 25.031-55.79-19.729l-40.305-26.304v150.613h94.61" fill="#C4EFE4"/><path d="M585.488 240.768l-5.727 8.91-47.093-29.699-1.909 70.428 68.73 8.061-14.001-57.7z" fill="#8FD8D7"/><path d="M654.218 115.823c-6.151 0-11.03-4.879-11.03-11.031 0-6.151 4.879-11.03 11.03-11.03 6.152 0 11.031 4.879 11.031 11.03-.212 5.94-5.091 11.031-11.031 11.031zm0-19.516c-4.667 0-8.273 3.819-8.273 8.273 0 4.455 3.819 8.273 8.273 8.273 4.667 0 8.273-3.818 8.273-8.273 0-4.454-3.818-8.273-8.273-8.273zM626.005 108.823c-6.151 0-11.03-4.879-11.03-11.03 0-6.153 4.879-11.032 11.03-11.032 6.152 0 11.031 4.88 11.031 11.031 0 6.152-4.879 11.031-11.031 11.031zm0-19.304c-4.667 0-8.273 3.818-8.273 8.273s3.819 8.273 8.273 8.273c4.455 0 8.273-3.818 8.273-8.273s-3.606-8.273-8.273-8.273z" fill="#fff"/><path d="M635.758 99.492l-.632 2.466 9.247 2.369.632-2.466-9.247-2.369zM594.473 72.392l-1.753 1.846 22.925 21.758 1.752-1.846-22.924-21.758z" fill="#fff"/><path d="M587.822 73.821c5.091 1.697 10.394 2.758 15.697 2.758 12.728.212 25.244-3.818 35.426-11.455 2.97-2.333 5.728-4.88 8.273-7.849.849 2.97 2.122 5.728 3.607 8.273 3.818 6.788 9.333 12.516 16.121 16.546v-1.272-.849c0-1.06-.212-1.91-.212-2.97 0-.636-.212-1.272-.212-2.121-.212-.849-.212-1.697-.424-2.546-1.485-9.121-4.879-16.97-10.394-22.698-1.273-1.272-2.546-2.545-4.031-3.394-.636-.424-1.485-.848-2.121-1.273-.637-.424-1.273-.636-1.909-.848a24.86 24.86 0 0 0-5.092-1.91c-.212 0-.424 0-.424-.211-15.697-3.819-27.365 0-35.85 6.364-9.97 7.636-15.485 18.455-18.455 25.455z" fill="#000"/><path d="M596.943 79.337c-1.061-3.182-4.03-5.516-7.425-6.152-3.394-.636-6.788.424-9.758 2.121-6.576 4.243-9.333 13.152-6.576 20.365 2.758 7.212 11.031 11.879 18.668 10.606" fill="#F9C88F"/><path d="M584.64 94.61l-2.546-.424c.637-3.819 2.758-7.213 5.516-9.758l-4.667-1.06.636-2.546 7.425 1.697.424 2.333c-3.606 2.121-6.152 5.94-6.788 9.758z" fill="#000"/><path d="M271.747 415.988h147.219l-24.395-32.032c-4.455-5.94-11.667-9.546-19.092-9.546h-32.244c-4.879 0-8.061-4.879-6.364-9.334l21.001-54.305-65.76-43.699-41.79 107.126-2.546 6.364c-6.576 17.183 5.94 35.426 23.971 35.426z" fill="#EA4126"/><path d="M271.747 415.988h55.366l-24.395-32.032c-4.455-5.94-11.667-9.546-19.092-9.546h-33.304l-2.546 6.364c-6.576 16.97 5.94 35.214 23.971 35.214z" fill="#C4EFE4"/><path d="M155.712 329.014h282.77c18.879 0 34.365-15.485 34.365-34.365V71.064c0-18.88-15.486-34.365-34.365-34.365h-282.77c-19.092 0-34.365 15.273-34.365 34.365V294.86c0 18.88 15.273 34.153 34.365 34.153z" fill="#E34B2C"/><path d="M191.986 71.064V294.86c0 18.88 15.486 34.365 34.365 34.365h282.77c18.88 0 34.366-15.485 34.366-34.365V71.064c0-18.88-15.486-34.365-34.366-34.365h-282.77c-18.879 0-34.365 15.273-34.365 34.365z" fill="#8FD8D7"/><path d="M191.986 266.436v28.213c0 18.88 15.486 34.365 34.365 34.365h282.77c18.88 0 34.366-15.485 34.366-34.365v-28.213H191.986z" fill="#F86041"/><path d="M220.744 242.049h294.225V63.647H220.744V242.05z" fill="#8176C5"/><path d="M355.114 299.74c0 7 5.728 12.728 12.728 12.728s12.728-5.728 12.728-12.728-5.728-12.728-12.728-12.728c-7 .212-12.728 5.728-12.728 12.728z" fill="#fff"/><path d="M326.901 144.036l65.548 20.365-45.184 45.184-20.364-65.549z" fill="#F9E022"/><path d="M368.727 172.332l-13.499 13.5 30.899 30.9 13.5-13.5-30.9-30.9z" fill="#F9E022"/><path d="M355.751 285.527l-1.273-2.333c20.577-11.455 39.032-26.516 54.942-44.547 15.91-18.031 28.637-38.184 37.547-60.033 4.03-9.546 7-19.092 9.334-28.426-3.607-1.909-7.001-4.242-10.395-6.576-12.091-8.697-22.698-20.152-30.546-33.092-8.061-12.94-13.365-27.577-15.698-42.214-.849-5.515-1.697-12.94.424-19.728 2.121-7.213 7.425-12.728 13.576-14.637 9.122-2.758 19.516 2.757 28.214 14.212 12.94 17.607 20.364 40.517 21.001 64.7.212 11.667-.849 23.759-3.606 36.062 8.909 4.879 18.455 8.486 28.425 10.819 14.425 3.394 29.698 3.818 43.911 1.485l.424 2.546c-14.637 2.545-30.122 1.909-44.971-1.485-9.971-2.334-19.516-5.94-28.426-10.607-2.121 9.334-5.303 18.668-9.122 28.214-9.121 22.061-21.849 42.426-37.971 60.669-16.334 18.243-35.001 33.304-55.79 44.971zm62.578-249.465c-1.272 0-2.757.212-4.03.636-5.303 1.485-9.758 6.364-11.667 12.728-1.91 6.364-1.273 13.364-.425 18.668 2.122 14.425 7.425 28.637 15.274 41.365 7.849 12.728 18.031 23.971 29.91 32.244 2.97 2.121 6.152 4.243 9.334 5.94 2.546-11.88 3.818-23.547 3.394-34.79-.636-23.546-7.849-46.032-20.577-63.002-2.545-3.607-11.03-13.789-21.213-13.789zM185.622 188.584c-6.788 0-13.577-.424-20.365-1.273l.425-2.546c21.001 2.758 43.062 1.061 63.851-4.879 20.789-5.939 40.517-16.121 56.851-29.486 16.334-13.364 30.334-30.546 40.305-49.85 9.97-19.304 16.122-40.517 17.606-61.73l2.546.212c-1.485 21.425-7.637 43.062-17.819 62.79-10.182 19.516-24.395 37.123-40.941 50.7-16.758 13.576-36.699 23.97-57.912 29.91-14.425 4.031-29.698 6.152-44.547 6.152z" fill="#F9E022"/><path d="M303.142 277.891c-9.121-81.458-63.427-156.128-138.097-190.281l1.061-2.334c75.519 34.366 130.248 109.884 139.582 192.403l-2.546.212z" fill="#F9E022"/><path d="M521.637 229.737l-27.365 37.123s-35.638-35.85-34.365-42.002c.848-3.818 3.818-3.182 3.818-3.182s-4.03-3.182-3.394-6.152c.636-2.969 3.818-3.181 3.818-3.181s-3.182-3.182.213-5.94c3.606-2.758 17.394 2.545 30.546 8.909-7-5.939-8.485-11.879-4.879-15.061 2.97-2.545 12.94 7 20.365 16.334 4.667 6.788 11.243 13.152 11.243 13.152z" fill="#F9C88F"/><path d="M482.605 222.313c-9.758-6.152-18.88-8.486-19.092-8.486l.637-2.545c.424 0 9.758 2.333 19.728 8.909l-1.273 2.122zM478.15 231.01c-6.788-4.455-14.849-8.061-15.061-8.061l1.061-2.333c.424.212 8.485 3.818 15.273 8.273l-1.273 2.121z" fill="#000"/><path d="M585.488 241.404l-2.333 17.395-62.367-37.759-36.062 47.093s90.368 98.004 143.612 66.397c39.457-23.335 18.456-116.248 11.668-129.188-6.576-12.728-31.396-23.758-31.396-23.758" fill="#C4EFE4"/><path d="M533.415 229.251l-33.765 54.19 2.341 1.459 33.764-54.191-2.34-1.458z" fill="#000"/><path d="M138.105 279.8l32.668 32.668s29.91-40.729 27.577-46.668c-1.273-3.607-4.243-2.546-4.243-2.546s3.607-3.818 2.546-6.576c-1.061-2.97-4.243-2.546-4.243-2.546s2.546-3.606-1.06-5.727c-3.819-2.334-16.759 5.303-28.85 13.576 5.94-7 6.576-12.94 2.546-15.485-3.395-2.122-11.88 8.909-17.607 19.304-3.819 6.788-9.334 14-9.334 14z" fill="#FFB78F"/><path d="M175.44 266.648l-1.697-1.909c9.121-7.849 17.819-11.667 18.243-11.667l1.061 2.545c-.213-.212-8.91 3.394-17.607 11.031zM181.38 274.709l-1.697-1.909c6.151-5.515 13.576-10.394 14-10.607l1.485 2.334c-.424-.212-7.849 4.667-13.788 10.182z" fill="#000"/><path d="M65.132 306.741l15.061 19.304 58.336-52.821 46.457 37.123S117.953 436.565 44.343 412.806C-19.296 392.229.645 286.8 12.948 270.891c8.91-11.667 41.153-19.941 41.153-19.941" fill="#F9E022"/><path d="M125.172 285.54l-1.721 1.876 48.452 44.46 1.722-1.875-48.453-44.461z" fill="#fff"/><path d="M48.586 159.098v.212c0 .849.212 1.485.212 1.909 0 .424 0 .637.212 1.061v.636l1.485 2.334 1.273 1.909 1.06 1.697 24.608 39.668s28.85 20.153 49.214-6.576c11.879-15.273 8.91-49.85-4.03-73.821-1.061-2.122-2.334-4.031-3.607-5.94-.212-.424-.424-.636-.636-1.061l-.212-.212c-1.697-2.333-3.394-4.667-5.303-6.576l-.425-.424c-1.06-1.061-2.121-2.121-3.182-2.97-7.212-6.152-15.697-9.121-25.243-7.212-13.152 2.545-21.637 8.697-26.94 16.122-1.274 1.697-2.334 3.394-3.183 5.091-6.576 12.94-5.94 27.577-5.303 34.153z" fill="#FFB78F"/><path d="M48.586 159.098l.636.636c5.092-1.909 9.546-5.727 12.304-10.394 2.758-4.667 3.818-10.607 2.758-15.91h.212c-1.06-5.303-3.606-9.97-7.425-13.364-1.273 1.697-2.333 3.394-3.182 5.091-6.576 12.728-5.94 27.365-5.303 33.941zM109.68 178.19l-.425-2.546c.849-.212 1.485-.636 1.91-1.273.424-.636.636-1.485.424-2.333l-5.303-18.668 2.545-.636 5.091 18.455c.425 1.485.212 2.97-.636 4.455-.636 1.273-2.121 2.121-3.606 2.546zM93.77 157.613c.212 1.485-.424 2.758-1.273 2.97-1.06.212-2.121-.849-2.333-2.122-.213-1.484.424-2.757 1.272-2.969 1.061-.213 2.122.636 2.334 2.121zM121.983 152.097c.212 1.485-.424 2.758-1.273 2.97-1.06.212-2.121-.848-2.333-2.121-.212-1.485.424-2.758 1.273-2.97 1.06-.212 2.121.849 2.333 2.121zM84.86 145.946c-.636.424-1.484.848-1.909 1.484-.424.637-.636 1.485-.424 2.334.424 1.273 2.121 1.485 3.606 1.485 2.97 0 5.94-1.061 8.486-2.546.848-.636 1.697-1.273 1.909-2.333.212-2.334-3.182-2.546-4.455-2.546-2.546.212-5.091 1.061-7.212 2.122zM114.347 139.582c-.637.212-1.485.636-1.91 1.06-.424.425-.848 1.273-.636 1.91.212 1.06 1.697 1.697 2.758 1.909 2.545.424 5.303 0 7.636-1.061.849-.424 1.697-.848 1.91-1.697.424-2.121-2.334-2.758-3.394-2.758-1.91-.424-4.243 0-6.364.637z" fill="#000"/><path d="M59.829 159.098c-2.334-2.546-6.152-3.394-9.334-2.334-3.182.849-5.94 3.182-7.849 6.152-4.03 6.576-2.757 15.91 2.758 21.213 5.727 5.304 15.061 5.94 21.425 1.485" fill="#FFB78F"/><path d="M53.465 179.25c-2.122-3.182-3.182-7-2.758-10.819l-4.03 2.334-1.273-2.334 6.364-3.818 1.909 1.485c-1.06 4.031-.212 8.273 1.91 11.667l-2.122 1.485z" fill="#000"/><path d="M106.498 180.523c0 2.97-2.334 5.727-5.516 5.727-2.97 0-5.727-2.333-5.727-5.515" fill="#fff"/><path d="M126.014 114.338c3.818 2.758 5.091 8.485 3.182 12.94-1.698 4.455-6.152 7.425-10.819 8.485-4.667 1.061-9.546 0-14.001-1.909s-8.273-4.879-11.879-7.849c.424 4.455-2.334 8.91-6.788 9.97-4.243 1.061-9.122-1.485-10.819-5.727" fill="#000"/><path d="M49.435 138.521l66.184-21.001c-.848-1.061-1.697-2.121-2.545-2.97l-.425-.424c-1.06-1.061-2.121-2.121-3.181-2.97-7.213-6.152-15.698-9.121-25.244-7.212-16.122 3.182-25.244 11.667-30.123 21.213-2.333 4.242-3.818 8.909-4.666 13.364z" fill="#C4EFE4"/><path d="M152.105 104.488l-103.058 32.9.774 2.424 103.058-32.899-.774-2.425z" fill="#C4EFE4"/><path d="M284.475 416.2h-2.545c-.212-1.273-.425-2.546-.425-3.818-1.909-13.789-3.394-25.668-9.333-37.972-7.213-15.061-19.304-25.668-32.456-28.425-15.91-3.182-33.941 4.879-44.972 20.152-8.909 12.304-13.788 28.638-15.061 50.063l-2.546-.212c1.273-21.85 6.364-38.608 15.486-51.336 11.667-16.122 30.759-24.607 47.729-21.213 14.001 2.97 26.729 14.001 34.365 29.911 5.303 11.242 7.213 21.849 8.91 33.728 2.121-11.455 4.667-21.425 10.182-31.395 9.546-17.395 24.183-23.971 34.789-24.183v2.546c-9.97.424-23.546 6.576-32.668 22.91-6.788 12.091-9.121 24.395-11.455 39.244zM20.797 237.374c-4.242 0-8.697-1.909-11.455-5.303-3.818-4.667-4.242-11.668-1.06-16.759 3.181-5.091 9.97-7.636 15.697-5.939 5.94 1.697 10.182 7.212 10.395 13.576.212 6.152-3.182 11.243-8.91 13.364-1.485.849-3.182 1.061-4.667 1.061zm-.424-25.668c-3.818 0-7.637 1.909-9.758 5.091-2.546 4.031-2.333 9.97.848 13.577 3.182 3.818 8.698 5.303 13.365 3.606 5.515-2.121 7.212-7 7.212-10.819-.212-5.303-3.606-9.758-8.485-11.243-1.273-.212-2.121-.212-3.182-.212zM570.215 48.366c-4.243 0-8.698-1.91-11.455-5.303-3.819-4.667-4.243-11.668-1.061-16.759 3.182-5.091 9.97-7.636 15.698-5.94 5.939 1.698 10.182 7.213 10.394 13.577.212 6.152-3.182 11.243-8.909 13.364-1.273.849-2.97 1.06-4.667 1.06zm-.212-25.668c-3.819 0-7.637 1.91-9.758 5.091-2.546 4.03-2.334 9.97.848 13.576 3.182 3.819 8.697 5.304 13.364 3.607 5.516-2.122 7.213-7 7.213-10.819-.212-5.303-3.607-9.758-8.486-11.243-1.272-.212-2.333-.212-3.181-.212zM526.941 416.2c-4.455-34.365-22.698-65.336-47.518-81.034-24.607-15.485-55.366-15.485-79.973.212-24.819 15.698-42.85 46.669-47.305 80.822l-2.545-.424c4.454-35.002 23.122-66.609 48.365-82.731 25.456-16.122 57.276-16.334 82.943-.212 25.456 16.122 44.124 47.729 48.578 82.943l-2.545.424z" fill="#fff"/><path d="M593.974 379.289H420.451c-10.182 0-18.455 8.273-18.455 18.456 0 10.182 8.273 18.455 18.455 18.455h173.523v-36.911z" fill="#8FD8D7"/><path d="M593.974 408.139v-21.001H420.451c-5.728 0-10.394 4.667-10.394 10.395 0 5.727 4.666 10.394 10.394 10.394h173.523v.212z" fill="#fff"/><path d="M568.094 393.926v18.88l8.061-10.819 8.061 10.819v-18.88h-16.122z" fill="#F55D3E"/><path d="M160.591 0h173.523c10.182 0 18.455 8.273 18.455 18.455 0 10.183-8.273 18.456-18.455 18.456H160.591V0z" fill="#F9E022"/><path d="M160.591 28.85V7.849h173.523c5.727 0 10.394 4.667 10.394 10.394 0 5.728-4.667 10.395-10.394 10.395H160.591v.212z" fill="#fff"/><path d="M186.471 14.637v18.88l-8.061-10.819-8.273 10.819v-18.88h16.334z" fill="#F55D3E"/><path d="M397.965 379.289h173.523c10.182 0 18.455-8.273 18.455-18.455 0-10.182-8.273-18.455-18.455-18.455H397.965v36.91z" fill="#C4EFE4"/><path d="M397.965 350.439v21.001h173.523c5.727 0 10.394-4.666 10.394-10.394s-4.667-10.394-10.394-10.394H397.965v-.213z" fill="#fff"/></svg>