<svg width="1920" height="612" viewBox="0 0 1920 612" fill="none" xmlns="http://www.w3.org/2000/svg"><g opacity=".4" stroke-width="2"><path opacity=".014" d="M2121.23 970.064l78.97-315.887a24.055 24.055 0 0 0-2.64-18.07l-237.9-400.815a24.036 24.036 0 0 0-10.89-9.682L1575.74 59.802a23.997 23.997 0 0 0-24.85 3.28l-220.67 178.694a23.996 23.996 0 0 0-8.37 23.627l84.62 399.347a24.039 24.039 0 0 0 7.21 12.665l342.6 316.034a23.964 23.964 0 0 0 17.12 6.344l325.4-11.565c10.69-.38 19.84-7.787 22.43-18.164z" stroke="url(#a)"/><path opacity=".029" d="M2077 995.585l95.2-308.936a23.94 23.94 0 0 0-1.68-18.211l-214.4-409.027a24.04 24.04 0 0 0-10.41-10.263L1584.76 66.127a24 24 0 0 0-24.96 1.989l-228.35 165.907a24 24 0 0 0-9.61 23.124l62.53 399.842c.77 4.93 3.06 9.496 6.54 13.065l322.76 330.316a23.99 23.99 0 0 0 16.8 7.22l323.23 4.92a23.98 23.98 0 0 0 23.3-16.925z" stroke="url(#b)"/><path opacity=".043" d="M2032.28 1019.61l110.92-301.165a23.986 23.986 0 0 0-.7-18.299l-190.72-415.888a23.992 23.992 0 0 0-9.89-10.82l-348.1-199.433a23.996 23.996 0 0 0-25 .697L1333.48 227.51a24.005 24.005 0 0 0-10.8 22.557l40.6 399.127a24.068 24.068 0 0 0 5.86 13.431l302.36 343.384c4.2 4.76 10.1 7.67 16.43 8.09l320.24 21.16a24.01 24.01 0 0 0 24.11-15.65z" stroke="url(#c)"/><path opacity=".058" d="M1987.14 1042.11l126.09-292.59a23.976 23.976 0 0 0 .28-18.337L1946.6 309.784a23.975 23.975 0 0 0-9.34-11.352L1602.73 83.425a24.007 24.007 0 0 0-24.98-.595l-241.52 139.441a23.994 23.994 0 0 0-11.97 21.927l18.93 397.222a24.06 24.06 0 0 0 5.16 13.763l281.49 355.247c3.95 4.98 9.71 8.19 16.02 8.93l316.44 37.09a23.992 23.992 0 0 0 24.84-14.34z" stroke="url(#d)"/><path opacity=".072" d="M1941.67 1063.1l140.67-283.272c2.83-5.7 3.28-12.29 1.26-18.322l-143.04-425.568a24.044 24.044 0 0 0-8.76-11.856L1611.49 94.366a23.996 23.996 0 0 0-24.88-1.88l-246.98 125.843a24.003 24.003 0 0 0-13.11 21.236l-2.42 394.153a23.997 23.997 0 0 0 4.44 14.058l260.22 365.864a23.97 23.97 0 0 0 15.56 9.75l311.85 52.7a24.018 24.018 0 0 0 25.5-12.99z" stroke="url(#e)"/><path opacity=".087" d="M1895.96 1082.56l154.63-273.232a24.032 24.032 0 0 0 2.23-18.254l-119.2-428.404a23.98 23.98 0 0 0-8.16-12.333l-305.45-243.529a23.993 23.993 0 0 0-24.72-3.16l-251.69 112.06a24 24 0 0 0-14.2 20.487l-23.41 389.946a24.03 24.03 0 0 0 3.71 14.316l238.61 375.243c3.41 5.38 8.83 9.17 15.06 10.55l306.51 67.92a24.009 24.009 0 0 0 26.08-11.61z" stroke="url(#f)"/><path opacity=".101" d="M1850.09 1100.49l167.92-262.507a24.014 24.014 0 0 0 3.21-18.135l-95.46-429.922a24.048 24.048 0 0 0-7.53-12.778l-290.04-256.427a24 24 0 0 0-24.5-4.426l-255.63 98.13a24 24 0 0 0-15.25 19.681l-43.95 384.634a23.997 23.997 0 0 0 2.95 14.536l216.73 383.374c3.14 5.55 8.37 9.63 14.52 11.32l300.44 82.73a23.992 23.992 0 0 0 26.59-10.21z" stroke="url(#g)"/><path opacity=".116" d="M1804.15 1116.91l180.51-251.154a24.021 24.021 0 0 0 4.18-17.963l-71.89-430.14a24.033 24.033 0 0 0-6.88-13.193l-274.12-268.386a23.989 23.989 0 0 0-24.2-5.676l-258.82 84.095a23.998 23.998 0 0 0-16.25 18.821l-64.01 378.249a23.99 23.99 0 0 0 2.19 14.718l194.67 390.249a23.992 23.992 0 0 0 13.94 12.07l293.66 97.1c9.96 3.29 20.9-.27 27.02-8.79z" stroke="url(#h)"/><path opacity=".13" d="M1758.23 1131.83l192.37-239.216a24.015 24.015 0 0 0 5.15-17.739l-48.57-429.08a23.973 23.973 0 0 0-6.21-13.574l-257.74-279.39a23.995 23.995 0 0 0-23.85-6.909l-261.24 69.999a24.008 24.008 0 0 0-17.2 17.909l-83.52 370.829a23.996 23.996 0 0 0 1.42 14.86l172.48 395.881a24.015 24.015 0 0 0 13.32 12.79l286.21 110.98a24 24 0 0 0 27.38-7.34z" stroke="url(#i)"/><path opacity=".145" d="M1712.4 1145.26l203.49-226.729a24.025 24.025 0 0 0 6.09-17.465l-25.55-426.768c-.3-5.11-2.23-9.988-5.51-13.922l-240.97-289.424a24.006 24.006 0 0 0-23.44-8.119l-262.89 55.881a23.991 23.991 0 0 0-18.11 16.949l-102.42 362.414a24.009 24.009 0 0 0 .63 14.961l150.24 400.262a23.997 23.997 0 0 0 12.67 13.48l278.11 124.35c9.52 4.26 20.7 1.88 27.66-5.87z" stroke="url(#j)"/><path opacity=".159" d="M1666.74 1157.21l213.83-213.73a24.03 24.03 0 0 0 7.03-17.139l-2.91-423.234a23.976 23.976 0 0 0-4.8-14.235l-223.86-298.478a24.008 24.008 0 0 0-22.96-9.304l-263.8 41.782a23.988 23.988 0 0 0-18.95 15.942l-120.68 353.047a23.965 23.965 0 0 0-.16 15.022L1357.5 1010.3a24.026 24.026 0 0 0 11.98 14.13l269.41 137.2c9.26 4.71 20.5 2.93 27.85-4.42z" stroke="url(#k)"/><path opacity=".174" d="M1621.35 1167.72l223.36-200.284a24.013 24.013 0 0 0 7.95-16.763l19.29-418.51a23.98 23.98 0 0 0-4.07-14.513l-206.47-306.542a24.01 24.01 0 0 0-22.42-10.461l-263.95 27.743a24.001 24.001 0 0 0-19.75 14.892l-138.23 342.772a24.004 24.004 0 0 0-.96 15.042l105.88 405.354a23.986 23.986 0 0 0 11.27 14.74l260.12 149.48c8.98 5.16 20.26 3.97 27.98-2.95z" stroke="url(#l)"/><path opacity=".188" d="M1576.27 1176.82l232.08-186.436a24.003 24.003 0 0 0 8.86-16.338l40.98-412.635a23.928 23.928 0 0 0-3.32-14.753l-188.85-313.614a24.007 24.007 0 0 0-21.82-11.586l-263.37 13.802a23.992 23.992 0 0 0-20.48 13.803L1205.31 580.7a23.98 23.98 0 0 0-1.76 15.02l83.89 406.09c1.31 6.31 5.1 11.83 10.52 15.32l250.29 161.16c8.69 5.59 19.97 5 28.02-1.47z" stroke="url(#m)"/><path opacity=".203" d="M1531.61 1184.53l239.97-172.22c5.24-3.77 8.75-9.49 9.73-15.869l62.12-405.646a23.964 23.964 0 0 0-2.56-14.956L1669.8 256.147a23.995 23.995 0 0 0-21.16-12.677h-262.05c-8.85 0-16.98 4.873-21.16 12.677l-171.06 319.692a24.038 24.038 0 0 0-2.57 14.956l62.13 405.646a23.982 23.982 0 0 0 9.73 15.869l239.96 172.22c8.37 6 19.63 6 27.99 0z" stroke="url(#n)"/><path opacity=".217" d="M1487.42 1190.9l247.01-157.71c5.45-3.48 9.27-9.01 10.58-15.35l82.64-397.581a23.948 23.948 0 0 0-1.79-15.121L1672.7 280.362a23.994 23.994 0 0 0-20.45-13.731l-260.01-13.626a24.009 24.009 0 0 0-21.78 11.517l-186.27 306.987a24.025 24.025 0 0 0-3.36 14.851l40.63 404.047a23.991 23.991 0 0 0 8.92 16.363l229.17 182.67c8.02 6.39 19.23 6.98 27.87 1.46z" stroke="url(#o)"/><path opacity=".232" d="M1443.78 1195.96l253.19-142.93c5.64-3.19 9.76-8.52 11.41-14.78l102.48-388.505c1.34-5.057.98-10.41-1-15.247l-135.2-328.872a23.986 23.986 0 0 0-19.69-14.743l-257.27-27.041a24.005 24.005 0 0 0-22.33 10.328l-200.61 293.577a24.025 24.025 0 0 0-4.16 14.703l19.47 401.321a24.021 24.021 0 0 0 8.09 16.829l217.94 192.45c7.66 6.77 18.78 7.93 27.68 2.91z" stroke="url(#p)"/><path opacity=".246" d="M1400.76 1199.75l258.51-127.94a24.033 24.033 0 0 0 12.2-14.17l121.6-378.441a24.023 24.023 0 0 0-.21-15.333l-117.22-331.987a24 24 0 0 0-18.88-15.714l-253.85-40.207a24 24 0 0 0-22.81 9.112l-214.07 279.517a24.03 24.03 0 0 0-4.95 14.514l-1.29 397.498a24.012 24.012 0 0 0 7.23 17.245l206.32 201.566a24.007 24.007 0 0 0 27.42 4.34z" stroke="url(#q)"/><path opacity=".261" d="M1358.41 1202.33l262.95-112.79a23.992 23.992 0 0 0 12.97-13.52l139.96-367.454a24.043 24.043 0 0 0 .58-15.379l-99.29-334.132a24.013 24.013 0 0 0-18.02-16.639l-249.76-53.089a24.008 24.008 0 0 0-23.23 7.873l-226.61 264.861a24.027 24.027 0 0 0-5.72 14.284l-21.6 392.613a23.97 23.97 0 0 0 6.35 17.62l194.34 210.002a24 24 0 0 0 27.08 5.75z" stroke="url(#r)"/><path opacity=".275" d="M1316.79 1203.75l266.53-97.54a24.023 24.023 0 0 0 13.7-12.82l157.5-355.599a24 24 0 0 0 1.37-15.384l-81.45-335.32a23.992 23.992 0 0 0-17.11-17.517l-245.03-65.655a23.983 23.983 0 0 0-23.57 6.616l-238.21 249.668a24.051 24.051 0 0 0-6.5 14.012l-41.4 386.703a24.04 24.04 0 0 0 5.45 17.949l182.06 217.737c6.49 7.77 17.16 10.62 26.66 7.15z" stroke="url(#s)"/><path opacity=".29" d="M1275.97 1204.05l269.24-82.22a24.028 24.028 0 0 0 14.39-12.09l174.18-342.917a24.038 24.038 0 0 0 2.18-15.349l-63.77-335.567a24.004 24.004 0 0 0-16.17-18.345l-239.66-77.871a24.01 24.01 0 0 0-23.86 5.341l-248.83 233.997a24.01 24.01 0 0 0-7.26 13.699l-60.65 379.806a23.988 23.988 0 0 0 4.54 18.235l169.49 224.771a24.01 24.01 0 0 0 26.18 8.51z" stroke="url(#t)"/><path opacity=".304" d="M1235.99 1203.29l271.08-66.89a23.954 23.954 0 0 0 15.04-11.31l189.97-329.481a23.95 23.95 0 0 0 2.98-15.273l-46.28-334.892a23.989 23.989 0 0 0-15.17-19.12l-233.7-89.709a24.004 24.004 0 0 0-24.07 4.057l-258.48 217.905a24.017 24.017 0 0 0-8 13.346l-79.29 371.965a24.004 24.004 0 0 0 3.61 18.473l156.69 231.099a23.993 23.993 0 0 0 25.62 9.83z" stroke="url(#u)"/><path opacity=".319" d="M1196.9 1201.54l272.07-51.6a23.976 23.976 0 0 0 15.65-10.5l204.84-315.34a23.939 23.939 0 0 0 3.78-15.157l-29.03-333.315a24.014 24.014 0 0 0-14.15-19.843L1422.9 354.648a23.999 23.999 0 0 0-24.21 2.764l-267.13 201.452a24.012 24.012 0 0 0-8.74 12.954l-97.27 363.225a24.004 24.004 0 0 0 2.66 18.663l143.71 236.714a23.988 23.988 0 0 0 24.98 11.12z" stroke="url(#v)"/><path opacity=".333" d="M1158.76 1198.85l272.2-36.39a23.98 23.98 0 0 0 16.22-9.67l218.75-300.547a24.056 24.056 0 0 0 4.58-14.999l-12.08-330.862a24.01 24.01 0 0 0-13.09-20.508l-220.07-112.129a23.994 23.994 0 0 0-24.28 1.466l-274.78 184.701a24.012 24.012 0 0 0-9.44 12.521L1002.2 926.064a23.957 23.957 0 0 0 1.71 18.807l130.56 241.599a24.003 24.003 0 0 0 24.29 12.38z" stroke="url(#w)"/><path opacity=".348" d="M1121.6 1195.28l271.48-21.31a23.98 23.98 0 0 0 16.75-8.79l231.68-285.184c3.41-4.19 5.3-9.404 5.37-14.801l4.54-327.556a23.999 23.999 0 0 0-12-21.117l-212.45-122.659a23.988 23.988 0 0 0-24.28.168l-281.41 167.708a24.045 24.045 0 0 0-10.13 12.051L980.014 917.023a23.999 23.999 0 0 0 .759 18.902l117.287 245.765a23.994 23.994 0 0 0 23.54 13.59z" stroke="url(#x)"/><path opacity=".362" d="M1085.45 1190.9l269.96-6.41c6.58-.15 12.81-3.01 17.22-7.89l243.61-269.293a23.999 23.999 0 0 0 6.16-14.561l20.78-323.428a24.026 24.026 0 0 0-10.88-21.667l-204.35-132.702a23.985 23.985 0 0 0-24.21-1.126l-287.02 150.535a24.035 24.035 0 0 0-10.8 11.544l-146.925 332.08a23.998 23.998 0 0 0-.203 18.949l103.938 249.219a23.992 23.992 0 0 0 22.72 14.75z" stroke="url(#y)"/><path opacity=".377" d="M1050.37 1185.78l267.6 8.27c6.6.21 12.98-2.31 17.66-6.96l254.52-252.951a23.993 23.993 0 0 0 6.92-14.283l36.61-318.506a24.002 24.002 0 0 0-9.73-22.157l-195.77-142.235a24.016 24.016 0 0 0-24.09-2.413l-291.6 133.242a23.97 23.97 0 0 0-11.44 10.999L939.129 899.01a24.003 24.003 0 0 0-1.167 18.947l90.558 251.953a24 24 0 0 0 21.85 15.87z" stroke="url(#z)"/><path opacity=".391" d="M1016.36 1179.98l264.47 22.68c6.59.57 13.11-1.61 18.04-6.01l264.39-236.206a23.944 23.944 0 0 0 7.68-13.963l51.99-312.823a24.022 24.022 0 0 0-8.57-22.586l-186.77-151.238a23.992 23.992 0 0 0-23.87-3.689l-295.18 115.887a23.973 23.973 0 0 0-12.06 10.42L920.402 890.17a24.004 24.004 0 0 0-2.132 18.897l77.175 253.983a23.997 23.997 0 0 0 20.915 16.93z" stroke="url(#A)"/><path opacity=".406" d="M983.461 1173.57l260.569 36.79c6.56.92 13.21-.9 18.38-5.04l273.2-219.135a24.027 24.027 0 0 0 8.44-13.605l66.86-306.412a23.99 23.99 0 0 0-7.39-22.953l-177.35-159.693a24.005 24.005 0 0 0-23.6-4.949l-297.75 98.529a24.017 24.017 0 0 0-12.65 9.807L902.8 881.525a24 24 0 0 0-3.094 18.798l63.827 255.297a24.013 24.013 0 0 0 19.928 17.95z" stroke="url(#B)"/><path opacity=".42" d="M951.693 1166.61l255.927 50.55c6.51 1.29 13.26-.18 18.65-4.05l280.98-201.79c4.48-3.21 7.71-7.88 9.16-13.203l81.23-299.31a23.994 23.994 0 0 0-6.2-23.257l-167.58-167.582a23.988 23.988 0 0 0-23.25-6.191l-299.31 81.226a23.994 23.994 0 0 0-13.21 9.162L886.299 873.139a24 24 0 0 0-4.051 18.65l50.551 255.931a23.981 23.981 0 0 0 18.894 18.89z" stroke="url(#C)"/><path opacity=".435" d="M921.071 1159.19l250.569 63.92c6.44 1.65 13.28.54 18.87-3.04l287.69-184.24c4.66-2.99 8.15-7.51 9.87-12.78l95.03-291.548c2.66-8.16.76-17.119-4.98-23.497l-157.47-174.889a24.006 24.006 0 0 0-22.85-7.412l-299.89 64.035a23.984 23.984 0 0 0-13.73 8.486L870.874 865.072a24.002 24.002 0 0 0-5.001 18.455l37.383 255.873a24.008 24.008 0 0 0 17.815 19.79z" stroke="url(#D)"/><path opacity=".449" d="M891.612 1151.36l244.508 76.87c6.36 2 13.26 1.27 19.05-2.02l293.33-166.55c4.85-2.75 8.58-7.1 10.57-12.3l108.25-283.181a23.99 23.99 0 0 0-3.76-23.674L1416.5 558.903a23.995 23.995 0 0 0-22.37-8.606l-299.5 47.011a24.022 24.022 0 0 0-14.23 7.779L856.501 857.381a24 24 0 0 0-5.941 18.211l24.358 255.158a23.993 23.993 0 0 0 16.694 20.61z" stroke="url(#E)"/><path opacity=".464" d="M863.324 1143.2l237.796 89.36c6.25 2.35 13.2 1.99 19.17-.99l297.92-148.78c5.01-2.5 8.99-6.67 11.24-11.79l120.87-274.232a24.015 24.015 0 0 0-2.55-23.786l-136.38-187.709a23.988 23.988 0 0 0-21.83-9.771l-298.16 30.207a23.99 23.99 0 0 0-14.68 7.045L843.151 850.123a24.005 24.005 0 0 0-6.869 17.921l11.51 253.776c.435 9.59 6.544 18 15.532 21.38z" stroke="url(#F)"/><path opacity=".478" d="M836.208 1134.77l230.452 101.37a24.002 24.002 0 0 0 19.23.04l301.47-130.99c5.16-2.24 9.37-6.22 11.89-11.25l132.84-264.739a24.007 24.007 0 0 0-1.32-23.835L1405.3 612.165a23.99 23.99 0 0 0-21.23-10.903l-295.89 13.678a24.03 24.03 0 0 0-15.11 6.284L830.783 843.355a23.996 23.996 0 0 0-7.781 17.582l-1.131 251.763a23.989 23.989 0 0 0 14.337 22.07z" stroke="url(#G)"/><path opacity=".493" d="M810.27 1126.15L1032.78 1239a24.02 24.02 0 0 0 19.24 1.08L1356 1126.83c5.3-1.97 9.73-5.75 12.51-10.67l144.17-254.753a24.016 24.016 0 0 0-.11-23.82l-114.35-198.071a24.004 24.004 0 0 0-20.58-11.999l-292.71-2.527a23.975 23.975 0 0 0-15.49 5.498L819.368 837.124a24.003 24.003 0 0 0-8.677 17.199L797.16 1103.45a23.995 23.995 0 0 0 13.11 22.7z" stroke="url(#H)"/><path opacity=".507" d="M785.502 1117.41l214.01 123.77a24.045 24.045 0 0 0 19.188 2.13l305.47-95.61a24.013 24.013 0 0 0 13.11-10.06l154.81-244.316a23.994 23.994 0 0 0 1.11-23.742l-103.08-202.313a24.005 24.005 0 0 0-19.86-13.056l-288.66-18.359a24 24 0 0 0-15.84 4.69l-256.898 190.94a24.001 24.001 0 0 0-9.553 16.771l-25.662 245.885a24 24 0 0 0 11.855 23.27z" stroke="url(#I)"/><path opacity=".522" d="M761.905 1108.61l204.981 134.11a24.043 24.043 0 0 0 19.077 3.17l305.957-78.12a23.966 23.966 0 0 0 13.67-9.41l164.78-233.476a23.99 23.99 0 0 0 2.32-23.6l-91.68-205.923a24.012 24.012 0 0 0-19.09-14.07l-283.77-33.772a23.996 23.996 0 0 0-16.14 3.86L799.23 826.481a24.002 24.002 0 0 0-10.408 16.299l-37.495 242.07a24.007 24.007 0 0 0 10.578 23.76z" stroke="url(#J)"/><path opacity=".536" d="M739.455 1099.81l195.464 143.86c5.433 4 12.298 5.52 18.914 4.2l305.467-60.84a24 24 0 0 0 14.2-8.74l174.04-222.263a24.005 24.005 0 0 0 3.51-23.397l-80.19-208.9a24.002 24.002 0 0 0-18.27-15.039l-278.05-48.719a24.015 24.015 0 0 0-16.41 3.011L790.416 822.159a23.999 23.999 0 0 0-11.24 15.783l-49.001 237.698a23.988 23.988 0 0 0 9.28 24.17z" stroke="url(#K)"/><path opacity=".551" d="M718.152 1091.09l185.497 152.97a24.026 24.026 0 0 0 18.695 5.24l304.006-43.85a23.99 23.99 0 0 0 14.71-8.04l182.58-210.718a23.993 23.993 0 0 0 4.69-23.132l-68.64-211.245a24.007 24.007 0 0 0-17.39-15.959l-271.57-63.161a24.014 24.014 0 0 0-16.63 2.145L782.388 818.557a24.002 24.002 0 0 0-12.046 15.227l-60.157 232.786a23.996 23.996 0 0 0 7.967 24.52z" stroke="url(#L)"/></g><defs><linearGradient id="a" x1="2117.64" y1="988.559" x2="1377.88" y2="75.034" gradientUnits="userSpaceOnUse"><stop stop-color="#D245CE"/><stop offset="1" stop-color="#BAC9FF"/></linearGradient><linearGradient id="b" x1="2072.44" y1="1013.8" x2="1387.6" y2="71.204" gradientUnits="userSpaceOnUse"><stop stop-color="#D245CE"/><stop offset="1" stop-color="#BAC9FF"/></linearGradient><linearGradient id="c" x1="2026.76" y1="1037.49" x2="1397.84" y2="69.044" gradientUnits="userSpaceOnUse"><stop stop-color="#D245CE"/><stop offset="1" stop-color="#BAC9FF"/></linearGradient><linearGradient id="d" x1="1980.68" y1="1059.61" x2="1408.5" y2="68.565" gradientUnits="userSpaceOnUse"><stop stop-color="#D245CE"/><stop offset="1" stop-color="#BAC9FF"/></linearGradient><linearGradient id="e" x1="1934.31" y1="1080.16" x2="1419.49" y2="69.774" gradientUnits="userSpaceOnUse"><stop stop-color="#D245CE"/><stop offset="1" stop-color="#BAC9FF"/></linearGradient><linearGradient id="f" x1="1887.72" y1="1099.14" x2="1430.71" y2="72.674" gradientUnits="userSpaceOnUse"><stop stop-color="#D245CE"/><stop offset="1" stop-color="#BAC9FF"/></linearGradient><linearGradient id="g" x1="1841.01" y1="1116.56" x2="1442.06" y2="77.26" gradientUnits="userSpaceOnUse"><stop stop-color="#D245CE"/><stop offset="1" stop-color="#BAC9FF"/></linearGradient><linearGradient id="h" x1="1794.25" y1="1132.41" x2="1453.44" y2="83.524" gradientUnits="userSpaceOnUse"><stop stop-color="#D245CE"/><stop offset="1" stop-color="#BAC9FF"/></linearGradient><linearGradient id="i" x1="1747.54" y1="1146.71" x2="1464.79" y2="91.45" gradientUnits="userSpaceOnUse"><stop stop-color="#D245CE"/><stop offset="1" stop-color="#BAC9FF"/></linearGradient><linearGradient id="j" x1="1700.97" y1="1159.49" x2="1475.99" y2="101.022" gradientUnits="userSpaceOnUse"><stop stop-color="#D245CE"/><stop offset="1" stop-color="#BAC9FF"/></linearGradient><linearGradient id="k" x1="1654.61" y1="1170.76" x2="1486.95" y2="112.213" gradientUnits="userSpaceOnUse"><stop stop-color="#D245CE"/><stop offset="1" stop-color="#BAC9FF"/></linearGradient><linearGradient id="l" x1="1608.55" y1="1180.54" x2="1497.61" y2="124.995" gradientUnits="userSpaceOnUse"><stop stop-color="#D245CE"/><stop offset="1" stop-color="#BAC9FF"/></linearGradient><linearGradient id="m" x1="1562.86" y1="1188.88" x2="1507.85" y2="139.334" gradientUnits="userSpaceOnUse"><stop stop-color="#D245CE"/><stop offset="1" stop-color="#BAC9FF"/></linearGradient><linearGradient id="n" x1="1517.62" y1="1195.81" x2="1517.62" y2="155.194" gradientUnits="userSpaceOnUse"><stop stop-color="#D245CE"/><stop offset="1" stop-color="#BAC9FF"/></linearGradient><linearGradient id="o" x1="1472.9" y1="1201.36" x2="1526.82" y2="172.531" gradientUnits="userSpaceOnUse"><stop stop-color="#D245CE"/><stop offset="1" stop-color="#BAC9FF"/></linearGradient><linearGradient id="p" x1="1428.78" y1="1205.58" x2="1535.38" y2="191.3" gradientUnits="userSpaceOnUse"><stop stop-color="#D245CE"/><stop offset="1" stop-color="#BAC9FF"/></linearGradient><linearGradient id="q" x1="1385.32" y1="1208.51" x2="1543.24" y2="211.45" gradientUnits="userSpaceOnUse"><stop stop-color="#D245CE"/><stop offset="1" stop-color="#BAC9FF"/></linearGradient><linearGradient id="r" x1="1342.58" y1="1210.21" x2="1550.31" y2="232.928" gradientUnits="userSpaceOnUse"><stop stop-color="#D245CE"/><stop offset="1" stop-color="#BAC9FF"/></linearGradient><linearGradient id="s" x1="1300.63" y1="1210.72" x2="1556.54" y2="255.677" gradientUnits="userSpaceOnUse"><stop stop-color="#D245CE"/><stop offset="1" stop-color="#BAC9FF"/></linearGradient><linearGradient id="t" x1="1259.53" y1="1210.11" x2="1561.86" y2="279.636" gradientUnits="userSpaceOnUse"><stop stop-color="#D245CE"/><stop offset="1" stop-color="#BAC9FF"/></linearGradient><linearGradient id="u" x1="1219.32" y1="1208.44" x2="1566.21" y2="304.743" gradientUnits="userSpaceOnUse"><stop stop-color="#D245CE"/><stop offset="1" stop-color="#BAC9FF"/></linearGradient><linearGradient id="v" x1="1180.06" y1="1205.75" x2="1569.55" y2="330.932" gradientUnits="userSpaceOnUse"><stop stop-color="#D245CE"/><stop offset="1" stop-color="#BAC9FF"/></linearGradient><linearGradient id="w" x1="1141.79" y1="1202.13" x2="1571.83" y2="358.132" gradientUnits="userSpaceOnUse"><stop stop-color="#D245CE"/><stop offset="1" stop-color="#BAC9FF"/></linearGradient><linearGradient id="x" x1="1104.55" y1="1197.63" x2="1572.99" y2="386.278" gradientUnits="userSpaceOnUse"><stop stop-color="#D245CE"/><stop offset="1" stop-color="#BAC9FF"/></linearGradient><linearGradient id="y" x1="1068.39" y1="1192.31" x2="1572.99" y2="415.293" gradientUnits="userSpaceOnUse"><stop stop-color="#D245CE"/><stop offset="1" stop-color="#BAC9FF"/></linearGradient><linearGradient id="z" x1="1033.33" y1="1186.26" x2="1571.81" y2="445.106" gradientUnits="userSpaceOnUse"><stop stop-color="#D245CE"/><stop offset="1" stop-color="#BAC9FF"/></linearGradient><linearGradient id="A" x1="999.409" y1="1179.53" x2="1569.41" y2="475.64" gradientUnits="userSpaceOnUse"><stop stop-color="#D245CE"/><stop offset="1" stop-color="#BAC9FF"/></linearGradient><linearGradient id="B" x1="966.647" y1="1172.2" x2="1565.76" y2="506.82" gradientUnits="userSpaceOnUse"><stop stop-color="#D245CE"/><stop offset="1" stop-color="#BAC9FF"/></linearGradient><linearGradient id="C" x1="935.064" y1="1164.35" x2="1560.84" y2="538.568" gradientUnits="userSpaceOnUse"><stop stop-color="#D245CE"/><stop offset="1" stop-color="#BAC9FF"/></linearGradient><linearGradient id="D" x1="904.676" y1="1156.04" x2="1554.64" y2="570.808" gradientUnits="userSpaceOnUse"><stop stop-color="#D245CE"/><stop offset="1" stop-color="#BAC9FF"/></linearGradient><linearGradient id="E" x1="875.498" y1="1147.34" x2="1547.14" y2="603.459" gradientUnits="userSpaceOnUse"><stop stop-color="#D245CE"/><stop offset="1" stop-color="#BAC9FF"/></linearGradient><linearGradient id="F" x1="847.54" y1="1138.33" x2="1538.33" y2="636.446" gradientUnits="userSpaceOnUse"><stop stop-color="#D245CE"/><stop offset="1" stop-color="#BAC9FF"/></linearGradient><linearGradient id="G" x1="820.797" y1="1129.09" x2="1528.21" y2="669.691" gradientUnits="userSpaceOnUse"><stop stop-color="#D245CE"/><stop offset="1" stop-color="#BAC9FF"/></linearGradient><linearGradient id="H" x1="795.277" y1="1119.67" x2="1516.77" y2="703.115" gradientUnits="userSpaceOnUse"><stop stop-color="#D245CE"/><stop offset="1" stop-color="#BAC9FF"/></linearGradient><linearGradient id="I" x1="770.97" y1="1110.16" x2="1504.03" y2="736.645" gradientUnits="userSpaceOnUse"><stop stop-color="#D245CE"/><stop offset="1" stop-color="#BAC9FF"/></linearGradient><linearGradient id="J" x1="747.873" y1="1100.62" x2="1490" y2="770.203" gradientUnits="userSpaceOnUse"><stop stop-color="#D245CE"/><stop offset="1" stop-color="#BAC9FF"/></linearGradient><linearGradient id="K" x1="725.961" y1="1091.12" x2="1474.68" y2="803.717" gradientUnits="userSpaceOnUse"><stop stop-color="#D245CE"/><stop offset="1" stop-color="#BAC9FF"/></linearGradient><linearGradient id="L" x1="705.233" y1="1081.73" x2="1458.1" y2="837.112" gradientUnits="userSpaceOnUse"><stop stop-color="#D245CE"/><stop offset="1" stop-color="#BAC9FF"/></linearGradient></defs></svg>