<svg width="17" height="16" viewBox="0 0 17 16" fill="none" xmlns="http://www.w3.org/2000/svg"><path d="M3.167 14L14.5 2.667" stroke="#F3A919" stroke-width="1.333" stroke-linecap="round"/><path fill-rule="evenodd" clip-rule="evenodd" d="M12.578 4.979c-1.089-.897-2.477-1.646-4.079-1.646C4.5 3.333 1.833 8 1.833 8s1.46 2.555 3.84 3.884l.989-.99c-.755-.356-1.448-.898-2.053-1.504A11.548 11.548 0 0 1 3.429 8c.281-.389.681-.892 1.18-1.39 1.07-1.072 2.415-1.943 3.89-1.943 1.145 0 2.21.524 3.13 1.26l.949-.948zm-4.45 6.336c.122.012.246.018.371.018 1.476 0 2.82-.872 3.89-1.943.5-.498.9-1.001 1.18-1.39-.238-.33-.563-.743-.961-1.166l.943-.943C14.582 6.978 15.166 8 15.166 8s-2.667 4.667-6.667 4.667c-.525 0-1.027-.08-1.503-.22l1.131-1.132zm2.212-4.099a2 2 0 1 0-2.624 2.625l2.624-2.625zM9.166 8a.667.667 0 1 1-1.333 0 .667.667 0 0 1 1.333 0z" fill="#F3A919"/></svg>