<svg width="16" height="16" viewBox="0 0 16 16" fill="none" xmlns="http://www.w3.org/2000/svg"><path fill-rule="evenodd" clip-rule="evenodd" d="M1.333 8s2.666 4.667 6.666 4.667S14.666 8 14.666 8s-2.667-4.667-6.667-4.667S1.333 8 1.333 8zM2.93 8c.28.389.68.892 1.179 1.39 1.07 1.071 2.415 1.943 3.89 1.943 1.476 0 2.82-.872 3.89-1.943.5-.498.9-1.001 1.18-1.39-.28-.389-.68-.892-1.18-1.39C10.82 5.537 9.476 4.666 8 4.666c-1.475 0-2.82.871-3.89 1.942A11.548 11.548 0 0 0 2.929 8z" fill="#EB92CD"/><path fill-rule="evenodd" clip-rule="evenodd" d="M8 8.667a.667.667 0 1 0 0-1.334.667.667 0 0 0 0 1.334zM8 10a2 2 0 1 0 0-4 2 2 0 0 0 0 4z" fill="#EB92CD"/></svg>