<svg width="16" height="16" viewBox="0 0 16 16" fill="none" xmlns="http://www.w3.org/2000/svg"><path d="M7.497 3.77L8 4.35l.504-.58c.184-.212.4-.4.642-.557A3.412 3.412 0 0 1 11 2.667c1.697 0 3 1.296 3 2.93a4.26 4.26 0 0 1-.403 1.767c-.829 1.836-2.759 3.43-4.582 4.917l-.007.005c-.345.283-.686.56-1.008.833-.321-.272-.662-.55-1.008-.833l-.007-.005C5.162 10.793 3.232 9.2 2.404 7.364A4.26 4.26 0 0 1 2 5.597c0-1.634 1.303-2.93 3-2.93.67 0 1.32.197 1.854.546.242.158.459.345.643.557z" stroke="#392B4B" stroke-width="1.333" stroke-linecap="round"/></svg>