<svg width="1060" height="447" viewBox="0 0 1060 447" fill="none" xmlns="http://www.w3.org/2000/svg"><path d="M210.54 169.628c25.924 8.417 38.208 38.952 47.744 64.594 8.526 22.926 12.987 49.547 3.006 71.871-9.253 20.698-40.566 21.171-53.054 40.076-12.908 19.539-1.898 49.177-17.454 66.66-17.841 20.053-45.19 38.663-71.402 33.207-26.305-5.475-32.72-41.041-52.734-59.045-20.533-18.47-59.131-20.658-65.75-47.538-6.633-26.943 25.375-47.498 36.047-73.097 9.56-22.932 3.536-54.256 23.29-69.228 19.79-15 48.386.883 72.774-3.579 27.147-4.967 51.275-32.445 77.533-23.921z" fill="#FFEAC0" fill-opacity=".32"/><path d="M997.265 69.68c22.605 21.598 59.195 34.009 62.455 65.109 3.27 31.146-22.83 57.638-47.56 76.834-19.75 15.327-46.399 8.546-70.583 14.859-33.618 8.776-64.978 44.124-96.088 28.647-31.769-15.804-41.45-59.922-37.74-95.224 3.244-30.865 37.404-45.092 55.162-70.54C883.774 59.466 882.999 5.67 919.062.386c35.817-5.248 52.025 44.28 78.203 69.294z" fill="#FFE8DF" fill-opacity=".32"/></svg>