<svg width="708" height="500" viewBox="0 0 708 500" fill="none" xmlns="http://www.w3.org/2000/svg"><g clip-path="url(#a)"><path d="M654.814 493.097c10.694-15.779 20.12-29.445 24.201-48.183 4.08-18.738 2.392-39.166-7.739-55.368-10.13-16.201-29.687-27.05-48.541-23.95-16.603 2.677-30.391 15.356-38.552 30.149-8.16 14.793-11.678 31.558-15.195 48.042-6.473-14.793-22.934-24.514-39.115-23.528-16.18.986-31.094 12.116-37.004 27.191-5.909 15.075-2.814 33.249 7.457 45.788" fill="#8B80F9"/><path d="M581.37 493.66l-1.407-1.127c6.331-7.608 10.412-17.047 12.1-27.05 1.689-10.143.704-20.428-2.814-29.445a53.504 53.504 0 0 0-18.15-23.387c-8.301-6.199-17.869-9.721-27.577-10.284-9.708-.564-19.839 1.972-28.562 7.326-8.864 5.213-15.759 13.102-19.698 21.837l-1.688-.141c-4.221-20.428-8.724-41.561-18.995-60.158-5.347-9.58-12.241-18.033-19.979-24.373-8.583-7.044-18.01-11.411-27.718-12.961-11.115-1.832-22.934.282-34.049 5.917-10.553 5.354-19.839 13.807-26.03 23.81-11.678 18.596-15.195 43.674-9.708 69.033 4.784 21.837 15.477 37.616 27.859 55.79.844 1.128 1.547 2.396 2.391 3.523l-1.407.986c-.844-1.268-1.547-2.395-2.391-3.522-12.523-18.315-23.216-34.235-28.14-56.495-2.674-12.116-3.236-24.655-1.829-36.348 1.547-12.68 5.487-24.092 11.678-33.954 6.472-10.284 15.899-18.878 26.732-24.514 11.397-5.917 23.497-8.03 35.175-6.058 10.131 1.691 19.698 6.199 28.562 13.384 8.02 6.481 15.055 15.075 20.402 24.796 9.989 18.033 14.492 38.321 18.572 58.186 4.221-8.172 10.975-15.216 19.276-20.288 9.005-5.494 19.557-8.03 29.547-7.467 10.13.564 19.979 4.227 28.562 10.567 8.583 6.339 15.055 14.652 18.713 24.232 3.658 9.439 4.643 19.865 2.955 30.431-1.548 10.144-5.91 19.865-12.382 27.754z" fill="#000"/><path d="M107.775 493.097c2.111-43.111 19.98-83.968 45.587-104.678 25.748-20.71 58.531-20.71 84.279 0 25.748 20.71 49.948 61.567 52.059 104.678" fill="#ADD7F6"/><path d="M369.477 493.097c1.688-37.757 15.758-73.542 36.159-91.575 20.402-18.034 46.29-18.034 66.692 0 20.401 18.174 39.536 53.818 41.225 91.575M181.925 493.237l-1.689-.281c0-.282 4.362-25.078 15.899-49.592 6.754-14.37 14.633-25.923 23.356-34.094 10.975-10.425 23.497-15.638 37.004-15.638 13.508 0 26.03 5.213 37.004 15.638 8.724 8.312 16.603 19.724 23.216 34.235 11.397 24.514 15.618 49.31 15.758 49.592l-1.688.281c0-.281-4.221-24.795-15.618-49.168-6.613-14.23-14.351-25.501-22.934-33.672-10.693-10.003-22.652-15.215-35.738-15.215-13.085 0-25.185 5.071-35.878 15.215-8.583 8.171-16.321 19.442-22.934 33.672-11.397 24.232-15.618 48.746-15.758 49.027z" fill="#fff"/><path d="M514.397 272.048l17.306 19.583s-24.059 15.639-27.436 14.089c-1.97-.845-1.266-2.536-1.266-2.536s-2.252 1.831-3.799 1.127c-1.548-.704-1.267-2.536-1.267-2.536s-2.11 1.268-3.236-.704c-1.125-2.254 3.518-9.299 8.583-15.92" fill="#FFB78F"/><path d="M498.78 302.339l-1.548-.705c.141-.141 2.533-5.072 7.317-10.003l1.266 1.268c-4.784 4.65-7.035 9.44-7.035 9.44zM503.844 303.888l-1.406-.986c.14-.141 3.095-4.226 6.472-7.608l1.266 1.268c-3.377 3.1-6.332 7.185-6.332 7.326zM512.146 285.714c-1.97 0-3.94-.563-5.628-1.831l.984-1.409c2.252 1.69 5.347 1.972 7.88.704l.844 1.55c-1.266.704-2.673.986-4.08.986z" fill="#000"/><path d="M503.283 285.292c-3.799 1.408-9.849 1.408-9.708-2.395.14-3.945 4.924-3.1 9.286-4.79 4.221-1.691 11.537-6.199 11.537-6.199M603.882 132.713v13.948l-33.627 6.199 1.407-11.13-3.236-24.373 19.135-20.71 16.321 36.066z" fill="#FFB78F"/><path d="M581.792 113.835c-.844 7.608-5.065 14.793-11.256 19.442l-1.97-15.356 5.769-6.199c2.392.845 4.925 1.549 7.457 2.113z" fill="#000"/><path d="M587.701 83.967l-.141 1.55-3.376 28.881s-9.99 17.188-26.874 8.594c-9.427-4.79-16.04-22.259-15.758-37.334v-1.691V83.545c0-.564.14-1.127.14-1.691 0-.423.141-.704.141-1.127 0-.564.141-.986.281-1.409.845-5.213 2.814-9.721 5.91-12.82a16.179 16.179 0 0 1 2.392-1.973c.422-.282.844-.563 1.266-.704.281-.141.703-.423.985-.564a18.179 18.179 0 0 1 2.955-.986h.281c8.864-2.113 15.477 0 20.401 3.663 6.051 4.65 9.287 11.694 10.834 15.497 0 .141.141.282.141.423v.14l.141.424c.14.422.281.704.281.986a.428.428 0 0 0 0 .563z" fill="#FFB78F"/><path d="M559.421 106.791c-.563 0-1.267-.141-1.829-.564-.704-.563-1.267-1.268-1.407-2.113l-1.83-10.848 1.689-.282 1.829 10.848c0 .423.281.704.703.986.423.282.704.282 1.126.141l.422 1.691c-.141 0-.422.141-.703.141zM563.36 92.139c.141.845.844 1.268 1.407 1.127.563-.141.844-.846.704-1.69-.141-.846-.845-1.269-1.407-1.128-.563.141-.845.845-.704 1.69zM547.602 96.083c.141.846.844 1.268 1.407 1.127.563-.14.844-.845.704-1.69-.141-.845-.844-1.268-1.407-1.127-.563.14-.844.845-.704 1.69zM565.331 84.39c.422 0 .985 0 1.407.14.422.142.703.423.703.705 0 .564-.703.986-1.547 1.127-1.548.564-3.236.705-4.925.705-.563 0-1.266-.141-1.547-.423-.563-.845.984-1.55 1.688-1.69 1.266-.282 2.814-.564 4.221-.564zM548.588 88.194c.422 0 .844-.14 1.266 0 .422 0 .704.282.704.563.14.423-.563.987-1.126 1.268-1.266.705-2.673 1.127-4.221 1.268-.563 0-1.126 0-1.407-.281-.703-.705.704-1.55 1.266-1.832 1.126-.423 2.392-.845 3.518-.986z" fill="#000"/><path d="M581.512 85.235c.563-1.831 2.392-3.1 4.221-3.522 1.829-.282 3.939.282 5.487 1.268 3.658 2.395 5.206 7.467 3.658 11.553-1.688 4.085-6.331 6.762-10.552 5.917" fill="#FFB78F"/><path d="M588.404 94.111c-.422-2.254-1.829-4.226-3.658-5.494l.281-1.55 4.221-.986.423 1.69-2.392.564c1.547 1.409 2.532 3.381 2.954 5.494l-1.829.282zM560.688 59.453c-3.095 2.959-8.02 3.804-11.818 1.973-3.799-1.832-6.191-6.34-5.769-10.567.563-4.226 3.799-8.03 8.02-9.016 10.271-2.395 17.024 10.143 9.567 17.61z" fill="#000"/><path d="M568.003 104.818c.704 1.55 0 3.522-1.548 4.227-1.547.704-3.517 0-4.221-1.55" fill="#fff"/><path d="M586.858 81.29c-6.05 1.691-12.804 1.41-18.572-.986-5.91-2.395-10.834-7.044-13.93-12.538-2.391 6.48-6.894 12.257-12.803 16.06v-.14c0-.564.14-1.128.14-1.691 0-.423.141-.704.141-1.127 0-.564.141-.986.282-1.409.844-5.213 2.814-9.721 5.909-12.82a16.179 16.179 0 0 1 2.392-1.973c.422-.282.844-.563 1.266-.704.282-.141.704-.423.985-.564a18.179 18.179 0 0 1 2.955-.986h.281c8.864-2.113 15.477 0 20.402 3.663 5.768 4.367 9.145 11.412 10.552 15.216z" fill="#000"/><path d="M657.489 205.41s-4.784-.141-11.538 2.536c-1.266.563-2.673 1.127-3.939 1.831-7.739 3.945-17.025 11.412-24.763 25.782-5.769 10.426-17.166 21.274-29.688 30.995-3.377 2.536-6.753 5.072-10.271 7.467-21.105 14.793-41.928 25.5-41.928 25.5l-30.11-29.727 35.034-43.251s2.814-52.55 5.628-60.299c2.814-7.749 25.607-24.514 25.607-24.514 15.477 14.229 32.08-9.017 32.08-9.017l53.888 72.697z" fill="#FF5C4F"/><path d="M692.382 450.69l6.05 42.407h-80.48c-.141-5.777 3.236-10.989 7.597-13.948 4.362-2.958 9.568-3.945 14.492-5.213 4.925-1.268 10.131-2.676 14.07-6.339 4.362-3.804 7.035-10.003 7.035-16.343M561.391 438.715l-13.366 40.716-72.179-35.785c2.392-5.213 7.738-8.453 12.944-9.157 5.206-.705 10.271.704 15.336 1.69 5.065.986 10.271 1.973 15.337.564 5.628-1.55 10.693-5.917 13.507-11.412" fill="#000"/><path d="M708.001 458.298h-66.833l-17.869-130.741-5.768 13.384-47.416 109.608-62.33-30.149 69.506-146.238 6.753-14.371 2.252-4.649 48.822-48.887c2.392.986 4.643 2.114 6.895 3.663 10.552 6.904 19.416 19.724 27.014 35.926 33.205 72.133 38.974 212.454 38.974 212.454z" fill="#ADD7F6"/><path d="M668.885 245.844c-26.452 24.796-76.541 30.572-76.541 30.572l-4.924-9.721-3.377-6.904 2.251-4.649 48.823-48.887c2.392.986 4.643 2.114 6.894 3.663 10.412 6.904 19.417 19.583 26.874 35.926z" fill="#7EBFE8"/><path d="M634.976 206.255l-50.933 53.537-11.256-22.542 45.165-39.87v-13.103s19.416 22.824 17.024 21.978z" fill="#F4281E"/><path d="M569.834 251.479c-4.784 2.114-8.16 1.409-8.864-1.268-.563-2.113 6.754-4.931 13.366-6.339 4.503-.987 9.427-2.677 9.427-2.677" fill="#FFB78F"/><path d="M583.622 241.195l12.241 23.246s-27.155 9.298-29.969 7.044c-1.689-1.409-.704-2.677-.704-2.677s-2.673 1.268-4.08.282c-1.407-1.127-.704-2.677-.704-2.677s-2.392.704-2.954-1.55c-.563-2.536 5.628-8.171 12.1-13.384" fill="#FFB78F"/><path d="M561.251 266.977l-1.407-1.128c.14-.14 3.658-4.367 9.427-7.889l.984 1.55c-5.487 3.24-9.004 7.326-9.004 7.467zM565.753 269.513l-1.126-1.409c.141-.141 4.08-3.382 8.02-5.777l.844 1.55c-3.799 2.395-7.598 5.636-7.738 5.636z" fill="#000"/><path d="M623.298 327.557l-5.769 13.384-.281-57.904 6.05 44.52z" fill="#7EBFE8"/><path d="M617.953 184.277l4.924 15.498-45.164 37.898 17.025 33.389s74.43-14.229 82.168-53.395c6.613-33.672-31.657-82.277-37.848-84.39-7.316-2.395-35.456-.423-35.456-.423" fill="#FF5C4F"/><path d="M666.916 236.405c-6.332-8.876-8.583-17.047-6.472-24.233 3.236-11.129 15.055-16.06 15.477-16.201l.703 1.69c-.14 0-11.537 4.79-14.492 15.075-1.97 6.762.141 14.37 6.191 22.823l-1.407.846z" fill="#000"/><path d="M706.733 435.897h-68.52v1.832h68.52v-1.832z" fill="#fff"/><path d="M689.512 376.254l-1.68.163 7.919 81.889 1.681-.163-7.92-81.889zM584.606 157.932c-9.426 0-18.291-7.185-20.26-16.343l1.688-.422c1.829 8.312 9.99 14.933 18.432 14.933 7.598 0 15.336-4.79 20.26-12.538 4.644-7.467 6.473-16.343 7.458-24.092l1.688.282c-1.126 8.031-2.955 17.188-7.739 24.796-4.924 8.171-13.225 13.384-21.527 13.384zM703.638 486.052h-91.173v1.832h91.173v-1.832z" fill="#fff"/><path d="M235.25 117.92l2.673 10.144 14.352-6.762-6.613-16.061" fill="#FFB78F"/><path d="M354.281 131.305s-20.12 52.972-59.938 62.271c-1.126.281-2.111.422-3.236.704-2.392.423-4.643.564-6.754.423-37.285-1.409-50.933-68.188-50.933-68.188l29.688-20.147 21.104 33.39 70.069-8.453z" fill="#ADD7F6"/><path d="M294.343 193.576c-1.125.281-2.11.422-3.236.704-2.392.423-4.643.564-6.753.423l9.708-42.125.281 40.998z" fill="#7EBFE8"/><path d="M397.618 450.69l6.894 42.407h-91.595c-.282-5.777 3.658-10.989 8.582-13.948 4.925-2.959 10.834-3.945 16.462-5.213 5.628-1.268 11.397-2.677 16.04-6.34 4.924-3.803 8.02-10.002 8.02-16.342M296.032 450.69l-6.331 42.407-87.234-27.896c1.547-5.635 6.753-9.439 12.381-10.707 5.628-1.268 11.538-.563 17.306 0 5.769.564 11.678.845 17.166-1.127 5.909-2.113 10.693-7.044 12.663-13.102" fill="#000"/><path d="M413.375 459.707h-72.601s-4.221-60.721-7.879-115.948l-.141.423-7.176 32.403-18.15 81.995-70.772-22.119 55.858-253.733 23.919.986 71.616 3.099h.422l2.533 27.895 22.371 244.999z" fill="#8B80F9"/><path d="M326.002 90.166l16.884 11.412 22.793-12.398-9.708-49.732-17.306 11.693-9.286 6.2.422 13.947.141 8.312-3.94 10.566z" fill="#FFB78F"/><path d="M338.663 51.141l-9.145 6.199.422 13.948c7.175-3.1 13.085-9.017 15.617-16.343-2.532-1.409-4.643-2.536-6.894-3.804z" fill="#000"/><path d="M357.237 28.177l-.563 1.409-.422 1.268-.422.986-8.583 25.218s-13.367 14.793-28.14 2.677c-8.442-6.903-11.256-26.486-7.176-41.42.282-1.268.704-2.536 1.126-3.663.141-.282.141-.423.281-.704v-.141c.563-1.41 1.267-2.818 1.97-4.086 0-.14.141-.282.141-.423 0-.14.141-.14.141-.281.14-.282.422-.564.562-.846.282-.422.563-.845.845-1.127C320.233 2.818 324.454 0 330.082-.14c9.286-.282 15.477 3.24 19.416 7.89 4.925 5.776 6.613 13.384 7.176 17.47v.281c0 .282 0 .423.14.704 0 .423.141.846.141 1.128v.704l.282.14z" fill="#FFB78F"/><path d="M325.58 44.52c-.844 0-1.689-.282-2.251-.987a3.3 3.3 0 0 1-.985-2.395l.563-10.848 1.688.141-.563 10.848c0 .423.141.845.422 1.127.282.282.704.423 1.126.423v1.69zM331.77 30.994c0 .846.562 1.55 1.125 1.41.563 0 .985-.705.985-1.55 0-.846-.563-1.55-1.126-1.41-.562 0-.984.705-.984 1.55zM315.59 31.558c0 .845.563 1.55 1.125 1.409.563 0 .985-.704.985-1.55 0-.845-.563-1.55-1.125-1.409-.563 0-.985.705-.985 1.55zM335.286 23.387c.423.14.845.282 1.267.563.422.282.563.705.563 1.268-.141.705-.985 1.127-1.83 1.268-1.688.282-3.376.141-4.924-.422-.563-.141-1.126-.564-1.266-1.127-.422-1.268 1.407-1.832 2.11-1.973 1.266-.14 2.814 0 4.08.423zM318.122 23.669c.422 0 .844.14 1.126.281.422.282.563.564.563.987 0 .704-.704 1.127-1.407 1.408-1.407.564-2.955.705-4.362.423-.563-.14-1.126-.282-1.266-.704-.563-1.127.984-1.832 1.547-1.973 1.267-.563 2.674-.563 3.799-.422z" fill="#000"/><path d="M314.041 41.42c-4.08 0-7.457-3.381-7.457-7.467l.844-.845h13.085l.844.845c0 4.227-3.236 7.467-7.316 7.467zm-5.628-6.48c.422 2.676 2.814 4.79 5.628 4.79s5.206-2.114 5.628-4.79h-11.256zM332.754 41.42c-4.08 0-7.457-3.381-7.457-7.467l.844-.845h13.085l.844.845c0 4.227-3.236 7.467-7.316 7.467zm-5.628-6.48c.422 2.676 2.814 4.79 5.628 4.79s5.206-2.114 5.628-4.79h-11.256z" fill="#FF5C4F"/><path d="M330.924 33.249h-11.537v1.831h11.537V33.25zM354.756 21.13L338.92 33.328l1.115 1.451 15.836-12.2-1.115-1.45z" fill="#FF5C4F"/><path d="M356.956 25.64c-8.161-4.085-14.492-11.552-17.025-20.286-7.316 4.226-16.04 5.917-24.482 4.649 0-.141.141-.282.141-.423 0-.14.141-.14.141-.282.14-.281.422-.563.562-.845.282-.423.563-.845.845-1.127 3.236-4.227 7.457-7.044 13.085-7.185 9.286-.282 15.477 3.24 19.416 7.89 4.925 5.776 6.613 13.383 7.176 17.47.141-.142.141 0 .141.14z" fill="#000"/><path d="M350.905 27.472c.984-1.69 2.954-2.536 4.924-2.536 1.97 0 3.799.987 5.065 2.396 3.096 3.099 3.518 8.453 1.126 12.116-2.392 3.663-7.598 5.212-11.678 3.522" fill="#FFB78F"/><path d="M356.954 37.898l-1.688-.564c.844-2.113.703-4.649-.422-6.621l1.125-1.268 4.081 1.268-.563 1.69-2.251-.704c.562 1.972.562 4.226-.282 6.199zM327.971 48.464c-.281 0-.703 0-.985-.14l.422-1.691c.704.14 1.407 0 1.97-.423.563-.422.844-1.127.985-1.69l1.689.14c0 1.268-.704 2.396-1.689 3.1-.703.422-1.548.704-2.392.704z" fill="#000"/><path d="M332.754 344.181l-7.176 32.263 1.829-119.611v-1.268l4.362 71.569.985 17.047z" fill="#6460F4"/><path d="M388.189 190.053s-33.064 5.777-64.862 1.268c-10.834-1.549-21.527-4.226-30.673-8.875l1.548-30.15 7.598-2.817 45.305-17.047 38.13-14.371 1.125 27.614 1.689 40.856.14 3.522z" fill="#ADD7F6"/><path d="M385.517 190.476c-8.301 1.268-35.738 4.649-62.33.845-2.392-2.535-4.643-5.212-6.753-7.748-12.382-15.498-18.291-30.854-18.291-30.854l3.658-3.24 45.305-17.047 18.994 10.989 8.161-4.509 11.256 51.564z" fill="#B3B3B3"/><path d="M389.317 205.833c51.214-22.824 16.743-108.763 6.472-117.357-8.161-6.904-32.502-11.835-32.502-11.835s-22.793 26.064-33.346 2.818c0 0-24.481 7.749-28.843 12.257-4.502 4.508-26.452 51-26.452 51" fill="#ADD7F6"/><path d="M390.864 214.708c-5.487.705-11.256.986-17.447.846-21.527-.705-38.129-11.694-50.229-24.233 26.592 3.804 54.028.282 62.329-.845l5.347 24.232z" fill="#6460F4"/><path d="M385.517 190.476c-8.301 1.268-35.738 4.649-62.33.845-2.392-2.536-4.643-5.212-6.753-7.748-12.382-15.498-18.291-30.854-18.291-30.854l3.658-3.24 28.843-26.346 16.321 9.439 18.995 10.989 8.16-4.508 11.397 51.423z" fill="#7EBFE8"/><path d="M315.73 123.697c-3.517-3.804-3.799-7.326-1.548-8.876 1.83-1.268 6.754 4.931 10.131 10.848 2.251 3.945 5.487 8.031 5.487 8.031" fill="#FFB78F"/><path d="M273.66 83.967l-3.236 67.202 46.009-13.806-3.236-58.327-39.537 4.931z" fill="#fff"/><path d="M273.66 83.967l-31.657-14.652-1.689 59.876 30.11 21.978" fill="#E6E6E6"/><path d="M329.799 133.7l-18.291 18.737s-17.306-22.823-16.039-26.345c.703-2.113 2.391-1.409 2.391-1.409s-1.969-2.113-1.407-3.804c.563-1.69 2.392-1.409 2.392-1.409s-1.547-2.113.563-3.24c2.251-1.268 9.568 2.818 16.462 7.467" fill="#FFB78F"/><path d="M308.414 126.656c-4.925-4.227-9.99-6.199-9.99-6.199l.703-1.691c.282.141 5.206 2.113 10.412 6.481l-1.125 1.409zM305.176 131.164c-3.377-2.959-7.738-5.636-7.738-5.777l.844-1.408c.14.141 4.502 2.817 8.02 5.917l-1.126 1.268z" fill="#000"/><path d="M394.662 256.551c-6.19 0-11.818-3.663-16.321-10.707-3.517-5.495-6.613-13.103-9.004-22.683-4.081-16.201-4.925-32.403-4.925-32.685l1.689-.141c0 .705 3.658 63.962 28.561 64.244v1.972z" fill="#fff"/><path d="M252.134 111.722s1.688.14 1.829-2.114c.141-2.113-10.834-12.116-13.789-11.975-4.361.141-8.582 15.92-4.783 20.287 2.954 3.523 16.18 4.227 17.868 2.396 1.548-1.691-.422-3.241-.422-3.241s1.829-.422 1.829-2.113c0-1.832-2.532-3.24-2.532-3.24z" fill="#FFB78F"/><path d="M252.696 117.78c-.282 0-5.628-.564-11.96-3.241l.704-1.549c6.05 2.676 11.256 3.099 11.396 3.099l-.14 1.691zM251.993 112.567c-.14 0-5.065-1.409-9.427-3.381l.704-1.55c4.221 1.831 9.005 3.24 9.145 3.24l-.422 1.691z" fill="#000"/><path d="M374.26 139.053l-7.738 10.144-35.457-21.133-27.717 26.064s36.019 73.964 85.826 51.705" fill="#ADD7F6"/><path d="M281.259 247.816a10.72 10.72 0 0 1-2.954-.422l.422-1.691c2.954.704 5.487.282 8.02-1.55 14.21-10.284 17.306-57.34 17.306-57.762l1.688.14c0 .141-.844 12.116-3.377 25.36-3.517 17.892-8.442 29.163-14.773 33.671-1.829 1.55-4.08 2.254-6.332 2.254z" fill="#fff"/><path d="M411.265 435.052h-72.038v1.832h72.038v-1.832zM241.422 414.576l-.479 1.621 71.116 21.027.479-1.622-71.116-21.026zM340.923 133.708l-31.702 31.016 1.18 1.21 31.702-31.017-1.18-1.209z" fill="#000"/><path d="M284.213 98.478l20.823-3.663v11.835l-20.823 3.24V98.478z" fill="#FF5C4F"/><path d="M381.155 500l-1.688-.423c3.377-15.779 16.04-29.304 31.516-33.812l.423 1.69c-14.915 4.368-27.015 17.329-30.251 32.545zM263.249 489.715l-1.407-.986c9.005-13.384 25.748-21.273 41.788-19.583l-.141 1.691c-15.477-1.55-31.658 6.058-40.24 18.878z" fill="#fff"/><path d="M560.266 361.088h-93.565v10.989h93.565v-10.989z" fill="#E6E6E6"/><path d="M521.433 372.077h-86.671l-12.241-63.117h86.671l12.241 63.117z" fill="#fff"/><path d="M478.802 340.519c0 3.803-3.095 6.903-6.894 6.903s-6.894-3.1-6.894-6.903c0-3.804 3.095-6.904 6.894-6.904s6.894 3.1 6.894 6.904z" fill="#ADD7F6"/><path d="M571.1 372.077H422.521v121.02H571.1v-121.02z" fill="#FF5C4F"/><path d="M495.827 394.759h-52.481v30.572h52.481v-30.572z" fill="#fff"/><path d="M503.003 452.099l-1.548-.845c2.673-4.368 5.909-8.312 9.708-11.553 2.955-2.536 5.628-3.24 7.739-2.113 1.97 1.127 2.532 3.24 3.095 5.354.422 1.549.844 3.099 1.829 4.085.985.846 2.814 1.127 4.643.564.985-.282 1.97-.705 2.955-1.127.704-.282 1.548-.705 2.251-.986 5.91-2.114 12.945-.282 17.025 4.508l-1.266 1.127c-3.659-4.086-9.99-5.776-15.196-3.945l-2.11.846c-.985.422-2.111.986-3.237 1.267-2.391.705-4.783.282-6.19-.986s-1.97-3.099-2.392-4.931c-.422-1.831-.844-3.522-2.251-4.226-1.97-.986-4.362.704-5.769 1.972-3.658 2.959-6.754 6.763-9.286 10.989z" fill="#000"/><path d="M542.398 459.284h-40.099v1.832h40.099v-1.832z" fill="#fff"/><path d="M530.579 469.569h-28.28v1.831h28.28v-1.831zM102.57 223.725c-1.267 11.412-12.804 18.738-23.778 22.119-10.975 3.522-22.934 5.072-31.799 12.398-11.678 9.721-13.929 28.318-6.19 41.42 7.738 13.102 23.919 20.147 38.973 18.315 15.055-1.691 28.703-11.412 36.723-24.373l6.05 6.622c6.332 11.129 21.949 15.92 33.346 10.002 11.397-5.917 16.602-21.414 11.115-33.108-4.924-10.425-16.321-16.06-26.17-22.118-9.99-5.918-20.12-14.793-20.401-26.346" fill="#000"/><path d="M170.81 416.737c2.11 11.412-2.814 23.246-11.397 31.981-8.583 8.876-20.683 14.793-33.346 18.456-16.18 4.649-34.049 5.776-50.51 1.831-16.463-3.944-31.377-13.243-39.678-26.204-8.301-12.821-9.427-29.304-1.548-42.406" fill="#F4281E"/><path d="M58.25 341.505l1.97 65.652s41.084 17.892 111.434-3.663l-11.819-73.401" fill="#fff"/><path d="M74.43 450.69l6.05 42.407H0c-.14-5.777 3.236-10.989 7.598-13.948 4.362-2.958 9.568-3.945 14.492-5.213 4.925-1.268 10.13-2.676 14.07-6.339 4.362-3.804 7.035-10.003 7.035-16.343" fill="#000"/><path d="M65.382 452.839l-1.816.221 4.873 40.138 1.816-.221-4.873-40.138z" fill="#fff"/><path d="M82.591 459.143H21.246s-47.979-124.401 3.236-129.05h2.11c1.548.141 3.096.564 4.644 1.268 8.3 3.804 15.899 15.497 22.652 30.29 7.317 16.202 13.648 36.067 18.291 53.677 6.613 24.092 10.412 43.815 10.412 43.815z" fill="#FF5C4F"/><path d="M25.468 354.325c.703-7.467 2.954-15.356 5.768-23.105 7.458 3.381 14.352 13.102 20.543 25.923l-25.326 12.398c-1.267-4.508-1.548-9.721-.985-15.216z" fill="#CCC"/><path d="M109.747 424.768l-38.27 19.019 26.31 49.31h33.346c-1.125-4.931-3.939-9.299-7.879-12.398-2.111-1.691-4.502-3.1-6.754-4.79-2.11-1.691-3.939-3.945-4.361-6.763-.422-2.677.844-5.494 2.532-7.607 1.829-2.114 4.081-3.664 6.472-5.213" fill="#000"/><path d="M199.793 290.223l23.215 12.116s9.146-27.191 6.895-30.009c-1.407-1.69-2.674-.704-2.674-.704s1.267-2.677.141-4.086c-1.125-1.409-2.673-.704-2.673-.704s.703-2.395-1.548-2.959c-2.532-.563-8.16 5.636-13.226 12.257" fill="#B0614E"/><path d="M217.802 276.698l-1.548-.986c3.517-5.777 7.738-9.299 7.879-9.581l1.126 1.409c.14 0-3.94 3.522-7.457 9.158zM222.446 280.079l-1.548-.845c2.392-4.086 5.628-7.89 5.769-8.172l1.407 1.127c-.141 0-3.377 3.945-5.628 7.89zM212.596 288.814l-1.688-.423c.562-2.677-.423-5.776-2.533-7.467l1.126-1.409c2.532 2.255 3.798 6.058 3.095 9.299z" fill="#000"/><path d="M209.923 276.134c.422-4.085-1.125-9.862-4.643-8.876-3.799 1.128-1.688 5.636-2.251 10.144s-3.095 12.68-3.095 12.68M87.797 285.996l3.517 13.525 34.05-2.395-4.081-10.426-2.954-24.513-23.638-15.216-6.894 39.025z" fill="#B0614E"/><path d="M104.541 262.187c2.673 7.185 8.583 13.102 15.758 16.06l-1.829-15.356-7.035-4.649c-2.392 1.409-4.502 2.677-6.894 3.945z" fill="#000"/><path d="M90.47 235.982l.704 1.409 11.96 26.486s14.773 13.384 28.28-.141c7.457-7.467 8.583-26.063 3.658-40.434-.14-.422-.281-.845-.422-1.408l-.14-.141c0-.141 0-.141-.141-.282v-.141c-.141-.564-.422-.986-.704-1.55-.14-.422-.281-.704-.422-.986-.14-.423-.422-.845-.703-1.268-2.392-4.649-5.628-8.312-9.568-10.425-.844-.423-1.829-.846-2.814-1.127-.422-.141-.844-.282-1.407-.282-.422-.141-.703-.141-1.125-.141-.985-.141-1.97-.141-3.096-.141h-.281c-9.146.704-14.773 4.79-18.291 9.721-4.362 6.34-5.347 13.948-5.487 18.033V235.982z" fill="#B0614E"/><path d="M123.535 249.084l-.14-1.69c.422 0 .844-.282 1.125-.564.282-.282.422-.704.282-1.127l-1.548-10.848 1.688-.282 1.548 10.848c.141.846-.141 1.832-.703 2.536-.423.705-1.267 1.127-2.252 1.127zM116.077 236.264c0 .845-.422 1.55-.985 1.55-.562 0-1.125-.564-1.125-1.409 0-.846.422-1.55.985-1.55.562 0 1.125.564 1.125 1.409zM132.257 235.278c0 .845-.422 1.549-.985 1.549s-1.126-.563-1.126-1.408c0-.846.423-1.55.985-1.55.563 0 1.126.563 1.126 1.409zM111.997 229.501c-.422.141-.844.282-1.266.564-.282.282-.563.563-.563.986.141.564.985.704 1.829.704 1.688 0 3.377-.281 4.925-.845.562-.141 1.125-.563 1.266-.845.281-.986-1.407-1.127-2.111-1.127-1.266-.141-2.814.141-4.08.563zM129.022 227.952c-.422 0-.844.14-1.125.281-.282.141-.563.423-.563.705 0 .422.844.704 1.407.845 1.407.282 2.955.282 4.362 0 .562-.141.985-.282 1.266-.563.422-.846-1.126-1.268-1.688-1.268a15.878 15.878 0 0 0-3.659 0z" fill="#000"/><path d="M96.802 235.278c-1.126-1.55-3.237-2.255-5.066-2.114-1.97.282-3.658 1.409-4.783 2.959-2.814 3.381-2.674 8.735 0 12.116 2.814 3.381 8.02 4.508 11.96 2.395" fill="#B0614E"/><path d="M116.11 433.079l-38.98 20.522.852 1.621 38.979-20.522-.851-1.621z" fill="#fff"/><path d="M91.175 245.985a10.003 10.003 0 0 1 1.125-6.058l-2.392.281-.14-1.69 4.22-.423.704 1.409c-1.407 1.691-2.11 4.086-1.829 6.34l-1.688.141z" fill="#000"/><path d="M115.514 249.789c-.282 1.69.985 3.381 2.673 3.522 1.689.282 3.377-.986 3.518-2.677" fill="#fff"/><path d="M90.47 233.164c6.332-.281 12.523-2.536 17.307-6.621 4.924-4.086 8.16-10.003 9.427-16.202 4.221 5.494 10.271 9.58 17.024 11.412v-.141c-.14-.564-.422-.986-.703-1.55-.141-.423-.282-.704-.422-.986-.141-.423-.422-.845-.704-1.268-2.392-4.649-5.628-8.312-9.567-10.426-.845-.422-1.83-.845-2.814-1.127-.422-.141-.845-.281-1.407-.281-.422-.141-.704-.141-1.126-.141-.985-.141-1.97-.141-3.095-.141h-.282c-9.145.704-14.773 4.79-18.29 9.721-4.222 5.917-5.066 13.666-5.347 17.751z" fill="#000"/><path d="M127.897 480.417l-22.372-59.876s109.887-58.467 124.519-20.006c18.291 48.183-102.147 79.882-102.147 79.882z" fill="#FF5C4F"/><path d="M229.2 300.366s-10.974 83.545-50.089 87.208c-42.21 3.945-58.953-45.224-58.953-45.224l-34.05 9.862-3.517.986-28.702 8.312-27.437 8.031c-1.407-4.649-1.548-9.721-1.125-15.216.703-7.467 2.954-15.356 5.768-23.105a97.553 97.553 0 0 1 3.377-8.03c7.88-17.611 18.572-32.545 22.512-35.221 7.035-4.65 30.954-1.973 30.954-1.973s23.637 17.047 33.346.845c0 0 23.637 3.241 30.109 7.326 1.829 1.128 4.784 4.65 8.02 8.876 6.894 9.158 14.774 21.696 14.774 21.696l24.059-38.743 30.954 14.37z" fill="#fff"/><path d="M86.108 352.212l-3.518 1.127-55.998 16.343 58.953-29.023.563 11.553z" fill="#999"/><path d="M72.32 415.328c-17.588-9.298-41.366-23.95-48.682-39.166-8.161-17.047-1.83-35.925 2.954-46.069 1.548.141 3.096.564 4.643 1.268-2.954 7.749-5.065 15.638-5.768 23.105-.563 5.495-.282 10.707 1.125 15.216l25.326-12.398c.704 1.409 1.407 2.958 2.11 4.367 7.317 16.202 13.508 36.067 18.292 53.677z" fill="#F4281E"/><path d="M106.791 409.129l-14.351 15.92s-8.723-3.663-20.12-9.721c-.985-3.522-1.97-7.044-2.955-10.707l37.426 4.508z" fill="#E00B0B"/><path d="M122.127 392.082l-15.336 17.047-37.426-4.508c-4.221-14.652-9.427-30.008-15.336-42.97-.704-1.549-1.408-2.958-2.111-4.367L85.545 340.8l.563 11.553.281 4.367 35.738 35.362z" fill="#E6E6E6"/><path d="M94.044 403.006h93.565v-10.989H94.044v10.989z" fill="#6460F4"/><path d="M133.102 403.071h86.67l12.101-63.116h-86.671l-12.1 63.116z" fill="#8B80F9"/><path d="M175.594 371.513c0 3.804 3.095 6.904 6.894 6.904s6.894-3.1 6.894-6.904-3.095-6.903-6.894-6.903c-3.799-.141-6.894 3.099-6.894 6.903z" fill="#fff"/><path d="M119.174 408.425c4.221 2.959 7.739 3.099 8.864.564.985-1.973-5.628-6.199-11.819-8.876-4.221-1.832-8.582-4.509-8.582-4.509" fill="#B0614E"/><path d="M107.636 395.464l-16.603 20.287s24.623 14.652 27.859 13.102c1.97-.986 1.266-2.536 1.266-2.536s2.251 1.832 3.94.987c1.547-.705 1.266-2.536 1.266-2.536s2.251 1.268 3.236-.846c1.126-2.395-3.94-9.157-9.145-15.497" fill="#B0614E"/><path d="M124.379 425.19s-2.533-4.79-7.317-9.298l1.267-1.268c4.924 4.649 7.598 9.439 7.598 9.721l-1.548.845zM119.455 426.881s-3.096-4.086-6.473-7.044l1.126-1.268c3.517 3.24 6.613 7.185 6.754 7.326l-1.407.986z" fill="#000"/><path d="M116.499 392.082l-24.763 28.036s-53.466-21.414-64.16-47.9c-.421-.846-.703-1.691-.984-2.677l58.953-28.882-2.955 12.539-1.125 4.931 35.034 33.953z" fill="#fff"/><path d="M158.85 302.62l11.396 26.628 4.081-4.509s-7.88-12.538-14.774-21.696l-.703-.423z" fill="#E6E6E6"/><path d="M106.189 382.008l-29.275 31.03 1.227 1.161 29.276-31.03-1.228-1.161zM193.296 294.26l-.968 1.554 33.551 20.943.967-1.554-33.55-20.943z" fill="#000"/><path d="M459.805 243.308c-4.361 0-8.019-1.832-10.411-5.354-2.814-4.226-3.096-10.002-.704-14.511 2.251-4.226 6.332-6.48 11.538-6.48 6.612 0 12.663 5.776 13.085 12.397.281 6.622-5.066 12.962-11.678 13.666l-.141-.845.141.845c-.704.282-1.267.282-1.83.282zm.282-24.373c-4.503 0-8.02 1.972-9.99 5.494-2.11 3.945-1.829 9.017.704 12.68 2.251 3.381 6.05 4.931 10.552 4.508 5.628-.563 10.412-6.199 10.131-11.834-.282-5.776-5.628-10.848-11.397-10.848.141 0 .141 0 0 0zM255.933 38.884c-3.377 0-6.332-1.409-8.161-4.226-2.251-3.24-2.392-7.89-.563-11.271 1.689-3.24 4.925-5.072 9.005-5.072 5.206 0 9.99 4.508 10.13 9.721.282 5.213-3.939 10.144-9.145 10.707-.281 0-.704.141-1.266.141zm.281-18.878c-3.377 0-6.05 1.409-7.457 4.085-1.548 2.959-1.407 6.763.422 9.44 1.689 2.535 4.502 3.663 7.879 3.38 4.221-.422 7.739-4.648 7.598-8.875-.141-4.226-4.08-8.03-8.442-8.03.141 0 .141 0 0 0z" fill="#fff"/></g><defs><clipPath id="a"><path fill="#fff" d="M0 0h708v500H0z"/></clipPath></defs></svg>