<svg width="24" height="24" viewBox="0 0 24 24" fill="none" xmlns="http://www.w3.org/2000/svg"><path d="M16.863 15.473a1 1 0 1 0-1.41 1.418l1.41-1.417zm3.432 6.236a1 1 0 0 0 1.41-1.418l-1.41 1.418zm-3.037-10.58a6.13 6.13 0 0 1-6.129 6.13v2a8.13 8.13 0 0 0 8.13-8.13h-2zm-6.129 6.13A6.13 6.13 0 0 1 5 11.128H3c0 4.49 3.64 8.13 8.129 8.13v-2zM5 11.128A6.129 6.129 0 0 1 11.129 5V3A8.129 8.129 0 0 0 3 11.129h2zM11.129 5a6.13 6.13 0 0 1 6.13 6.129h2c0-4.49-3.64-8.129-8.13-8.129v2zm4.323 11.891l4.843 4.818 1.41-1.418-4.842-4.818-1.41 1.418zM12.25 8a1 1 0 1 0-2 0h2zm-2 6.5a1 1 0 1 0 2 0h-2zm0-6.5v6.5h2V8h-2z" fill="#fff"/><path d="M14.5 12.25a1 1 0 1 0 0-2v2zm-6.5-2a1 1 0 1 0 0 2v-2zm6.5 0H8v2h6.5v-2z" fill="#fff"/></svg>