<svg width="44" height="44" viewBox="0 0 44 44" fill="none" xmlns="http://www.w3.org/2000/svg"><rect width="44" height="44" rx="8" fill="#F9F4FF"/><path d="M26.863 25.474a1 1 0 1 0-1.41 1.417l1.41-1.417zm3.432 6.235a1 1 0 0 0 1.41-1.418l-1.41 1.418zm-3.037-10.58a6.13 6.13 0 0 1-6.129 6.13v2a8.13 8.13 0 0 0 8.13-8.13h-2zm-6.129 6.13A6.13 6.13 0 0 1 15 21.128h-2a8.13 8.13 0 0 0 8.129 8.13v-2zM15 21.128A6.13 6.13 0 0 1 21.129 15v-2A8.129 8.129 0 0 0 13 21.129h2zM21.129 15a6.13 6.13 0 0 1 6.13 6.129h2A8.13 8.13 0 0 0 21.128 13v2zm4.323 11.891l4.843 4.818 1.41-1.418-4.842-4.817-1.41 1.417zM22.25 18a1 1 0 1 0-2 0h2zm-2 6.5a1 1 0 1 0 2 0h-2zm0-6.5v6.5h2V18h-2z" fill="#966CEE"/><path d="M24.5 22.25a1 1 0 1 0 0-2v2zm-6.5-2a1 1 0 1 0 0 2v-2zm6.5 0H18v2h6.5v-2z" fill="#966CEE"/></svg>