<svg width="24" height="24" viewBox="0 0 24 24" fill="none" xmlns="http://www.w3.org/2000/svg"><path d="M20 9.535a7.217 7.217 0 0 1-.853 3.375 7.701 7.701 0 0 1-2.362 2.663.648.648 0 0 0-.196.228.61.61 0 0 0-.067.285c0 .435-.184.85-.51 1.158-.326.307-.768.48-1.23.48H9.218c-.46 0-.903-.173-1.229-.48a1.593 1.593 0 0 1-.51-1.158v-.018a.608.608 0 0 0-.077-.286.651.651 0 0 0-.205-.222 7.61 7.61 0 0 1-2.348-2.636A7.129 7.129 0 0 1 4 9.577c-.024-4.08 3.479-7.479 7.808-7.575a8.442 8.442 0 0 1 3.12.52 8.07 8.07 0 0 1 2.66 1.621 7.533 7.533 0 0 1 1.784 2.466c.415.926.628 1.92.628 2.926zm-2.087 0a5.29 5.29 0 0 0-.464-2.163A5.567 5.567 0 0 0 16.13 5.55a5.964 5.964 0 0 0-1.967-1.197 6.24 6.24 0 0 0-2.306-.385c-3.2.071-5.788 2.583-5.77 5.6.002.858.217 1.706.627 2.473A5.627 5.627 0 0 0 8.45 13.99c.3.211.55.476.738.78.188.304.31.64.357.99h4.912c.045-.347.164-.681.35-.983.185-.303.433-.567.729-.777a5.623 5.623 0 0 0 1.755-1.965 5.265 5.265 0 0 0 .622-2.5zM12.927 5.7a1.106 1.106 0 0 0-.79.125 1.02 1.02 0 0 0-.297.264.927.927 0 0 0-.03 1.094c.073.11.17.204.282.278.112.075.239.128.373.156.383.083.733.265 1.01.527.278.262.472.591.56.952.064.252.23.47.463.608.234.137.515.182.784.124.268-.057.502-.212.65-.43a.935.935 0 0 0 .138-.737 3.889 3.889 0 0 0-1.12-1.906 4.268 4.268 0 0 0-2.023-1.055z" fill="#17AA63"/><path d="M9 17v2.5a2.5 2.5 0 0 0 2.5 2.5h1a2.5 2.5 0 0 0 2.5-2.5V17" stroke="#17AA63" stroke-width="2"/></svg>