<svg width="35" height="35" viewBox="0 0 35 35" fill="none" xmlns="http://www.w3.org/2000/svg"><rect x=".998" y="6.5" width="28" height="28" rx="14" fill="#FFC85F"/><path d="M27.165 7.084C26.957 4.862 25.5 3.334 23 3.334c-2.5 0-3.959 1.528-4.167 3.75M13.998 14.583c0 3.263.469 4.777 1.533 5.62.555.44 1.367.774 2.604.992 1.237.218 2.822.305 4.863.305 2.041 0 3.627-.087 4.863-.305 1.237-.218 2.049-.553 2.604-.993 1.065-.842 1.533-2.356 1.533-5.619 0-1.928-.16-3.266-.534-4.218-.4-1.02-1.063-1.658-2.312-2.077-1.331-.446-3.277-.621-6.154-.621s-4.823.175-6.154.621c-1.249.419-1.913 1.057-2.312 2.077-.373.952-.534 2.29-.534 4.218z" stroke="#392B4B" stroke-width="2" stroke-linecap="round" stroke-linejoin="round"/></svg>