<svg width="41" height="33" viewBox="0 0 41 33" fill="none" xmlns="http://www.w3.org/2000/svg"><rect y="5" width="28" height="28" rx="14" fill="#6FDE9B"/><path d="M22 10.083c0 3.263.468 4.777 1.533 5.62.555.44 1.367.774 2.604.992 1.236.218 2.822.305 4.863.305 2.041 0 3.627-.087 4.863-.305 1.237-.218 2.049-.553 2.604-.993C39.532 14.86 40 13.346 40 10.083c0-1.928-.161-3.266-.534-4.218-.4-1.02-1.063-1.658-2.312-2.077-1.331-.446-3.277-.621-6.154-.621s-4.823.175-6.154.621c-1.249.419-1.913 1.057-2.312 2.077-.373.952-.534 2.29-.534 4.218z" stroke="#392B4B" stroke-width="2" stroke-linecap="round" stroke-linejoin="round"/></svg>