<svg width="35" height="35" viewBox="0 0 35 35" fill="none" xmlns="http://www.w3.org/2000/svg"><rect x=".998" y="6.5" width="28" height="28" rx="14" fill="#5ADCEE"/><circle cx="22.998" cy="12.5" r="2" stroke="#392B4B" stroke-width="2"/><path fill-rule="evenodd" clip-rule="evenodd" d="M23.998 1.5a1 1 0 1 0-2 0v4.014c-4.593.143-5.843 1.393-5.986 5.986h-4.014a1 1 0 0 0 0 2h4.014c.143 4.593 1.393 5.843 5.986 5.986V23.5a1 1 0 0 0 2 0v-4-.014c4.593-.143 5.843-1.393 5.986-5.986h4.014a1 1 0 1 0 0-2h-4.014c-.143-4.593-1.393-5.843-5.986-5.986V1.5zm-6 11c0 1.396.077 2.38.235 3.092.154.688.354.992.518 1.155.163.164.467.364 1.155.518.712.158 1.697.235 3.092.235s2.38-.077 3.092-.235c.689-.154.992-.354 1.155-.518.164-.163.364-.467.518-1.155.158-.712.235-1.697.235-3.092 0-1.396-.077-2.38-.235-3.092-.154-.688-.354-.992-.518-1.155-.163-.164-.466-.364-1.155-.518-.712-.158-1.697-.235-3.092-.235s-2.38.077-3.092.235c-.688.154-.992.354-1.155.518-.164.163-.364.467-.518 1.155-.158.712-.235 1.697-.235 3.092z" fill="#392B4B"/></svg>