<svg width="41" height="33" viewBox="0 0 41 33" fill="none" xmlns="http://www.w3.org/2000/svg"><rect y="5" width="28" height="28" rx="14" fill="#DCDE6F"/><path d="M31.9 7.8h-5.4M40 9.572v1.854c0 .495-.396.9-.9.918h-1.764c-.972 0-1.863-.71-1.944-1.683a1.807 1.807 0 0 1 .54-1.467c.333-.342.792-.54 1.296-.54H39.1c.504.018.9.423.9.918z" stroke="#392B4B" stroke-width="2" stroke-linecap="round" stroke-linejoin="round"/><path d="M35.932 9.195c-.378.369-.594.9-.54 1.467.08.972.972 1.683 1.944 1.683H39.1v1.305c0 2.7-1.8 4.5-4.5 4.5h-8.1c-2.7 0-4.5-1.8-4.5-4.5v-6.3c0-2.448 1.476-4.158 3.771-4.446.234-.036.477-.054.73-.054H34.6c.234 0 .459.01.675.045 2.322.27 3.825 1.99 3.825 4.455v1.305h-1.872c-.504 0-.963.198-1.296.54z" stroke="#392B4B" stroke-width="2" stroke-linecap="round" stroke-linejoin="round"/></svg>