<svg width="42" height="34" viewBox="0 0 42 34" fill="none" xmlns="http://www.w3.org/2000/svg"><rect x=".998" y="5.5" width="28" height="28" rx="14" fill="#FF7E62"/><path d="M39.17 11.914a2 2 0 0 0 0-2.828l-5.758-5.758a2 2 0 0 0-2.828 0l-5.758 5.758a2 2 0 0 0 0 2.828l5.758 5.758a2 2 0 0 0 2.828 0l5.758-5.758z" stroke="#392B4B" stroke-width="2"/><path d="M25.998 2.5l-4.464 4.464a5 5 0 0 0 0 7.072l4.464 4.464M18.998 4.5l-1.05 1.05a7 7 0 0 0 0 9.9l1.05 1.05" stroke="#392B4B" stroke-width="2"/></svg>