<svg width="35" height="35" viewBox="0 0 35 35" fill="none" xmlns="http://www.w3.org/2000/svg"><rect x=".998" y="6.5" width="28" height="28" rx="14" fill="#C9AFFF"/><path d="M12.998 12.5c0 2.242.122 3.975.421 5.323.297 1.337.756 2.234 1.39 2.867.632.633 1.529 1.092 2.866 1.389 1.348.3 3.081.421 5.323.421 2.242 0 3.975-.121 5.323-.421 1.337-.297 2.234-.756 2.867-1.39.633-.632 1.092-1.529 1.389-2.866.3-1.348.421-3.081.421-5.323 0-2.242-.121-3.975-.421-5.323-.297-1.337-.756-2.234-1.39-2.867-.632-.633-1.529-1.092-2.866-1.389-1.348-.3-3.081-.421-5.323-.421-2.242 0-3.975.121-5.323.421-1.337.297-2.234.756-2.867 1.39-.633.632-1.092 1.529-1.389 2.866-.3 1.348-.421 3.081-.421 5.323zM22.998 7.5v10m5-6v6m-10-4v4" stroke="#392B4B" stroke-width="2" stroke-linecap="round" stroke-linejoin="round"/></svg>