<svg width="36" height="36" viewBox="0 0 36 36" fill="none" xmlns="http://www.w3.org/2000/svg"><rect x=".998" y="7.5" width="28" height="28" rx="14" fill="#38BF7E"/><path d="M14.998 18.5c0 .766.09 1.255.248 1.588.139.294.361.534.803.742.476.224 1.19.4 2.272.514 1.072.112 2.437.156 4.177.156 1.74 0 3.105-.044 4.177-.156 1.082-.114 1.796-.29 2.272-.514.442-.207.664-.448.803-.742.157-.333.248-.822.248-1.588 0-.766-.09-1.255-.248-1.588-.139-.294-.361-.534-.803-.742-.476-.224-1.19-.4-2.272-.514-1.072-.112-2.437-.156-4.177-.156-1.74 0-3.105.044-4.177.156-1.082.114-1.796.29-2.272.514-.442.207-.664.448-.803.742-.157.333-.248.822-.248 1.588z" stroke="#392B4B" stroke-width="2" stroke-linecap="round" stroke-linejoin="round"/><circle r="3.5" transform="matrix(-1 0 0 1 22.498 8)" stroke="#392B4B" stroke-width="2"/><path d="M28.537 11.116l1.385 1.385 3.692-3.692" stroke="#392B4B" stroke-width="2" stroke-linecap="round" stroke-linejoin="round"/></svg>