<svg width="24" height="24" viewBox="0 0 24 24" fill="none" xmlns="http://www.w3.org/2000/svg"><path d="M9.435 11.55l-.958-.287.958.287zm-1.598.48l-.64.77.64-.77zm5.12-5.837L12 6.48l.958-.287zm-1.915 0L12 6.48l-.958-.287zm8.107 11.986l.984.179-.984-.18zM3.493 10.71l-.984.18.984-.18zm-.984.18l1.358 7.467L5.835 18l-1.358-7.468-1.968.358zM5.835 20h12.33v-2H5.835v2zm14.298-1.642l1.358-7.468-1.968-.358L18.165 18l1.968.358zm-1.89-9.362l-2.72 2.267 1.28 1.536 2.72-2.267-1.28-1.536zm-2.72 2.267l-1.607-5.358L12 6.48l1.607 5.357 1.916-.574zm-5.439-5.358l-1.607 5.358 1.916.574L12 6.48l-1.916-.575zm-1.607 5.358l-2.72-2.267-1.28 1.536 2.72 2.267 1.28-1.536zm0 0l-1.28 1.536a2 2 0 0 0 3.196-.962l-1.916-.574zm5.439-5.358c-.57-1.9-3.261-1.9-3.832 0L12 6.48l1.916-.575zm1.607 5.358l-1.916.574a2 2 0 0 0 3.196.962l-1.28-1.536zm5.968-.373c.334-1.839-1.812-3.09-3.248-1.894l1.28 1.536 1.968.358zM18.165 20a2 2 0 0 0 1.968-1.642L18.165 18v2zM3.867 18.358A2 2 0 0 0 5.835 20v-2l-1.968.358zm.61-7.826l1.28-1.536c-1.436-1.197-3.582.055-3.248 1.894l1.968-.358z" fill="#D0C2DE"/></svg>