<svg width="40" height="40" viewBox="0 0 40 40" fill="none" xmlns="http://www.w3.org/2000/svg"><rect width="40" height="40" rx="20" fill="#fff"/><path fill-rule="evenodd" clip-rule="evenodd" d="M18.655 11.874l-1.604 4.81-.298.894.876.35 3.591 1.437-2.927 2.928-.354.353.071.495.678 4.745c-.274-.226-.556-.456-.842-.69-2.68-2.187-5.793-4.727-7.152-7.738-.438-.97-.694-1.99-.694-3.063C10 13.374 12.42 11 15.5 11c1.127 0 2.225.312 3.155.874zm1.924.552l-1.332 3.996 4.124 1.65 1.409.563-1.073 1.072-3.646 3.647.711 4.981c.439-.369.904-.748 1.383-1.139 2.68-2.187 5.792-4.727 7.151-7.738.438-.97.694-1.99.694-3.063C30 13.374 27.58 11 24.5 11a6.117 6.117 0 0 0-3.328.982 5.723 5.723 0 0 0-.593.444z" fill="#B298EE"/></svg>