<svg width="98" height="92" viewBox="0 0 98 92" fill="none" xmlns="http://www.w3.org/2000/svg"><path d="M43 26.5c.49-2.182 1.53-3.954 3-4.5M55 26.5c-.49-2.182-1.53-3.954-3-4.5" stroke="#E2D5FF" stroke-width="2"/><circle cx="49" cy="19" r="4" stroke="#E2D5FF" stroke-width="2"/><circle cx="49" cy="19" r="10" stroke="#A177FF" stroke-width="2"/><path d="M56 52.5c.49-2.182 1.53-3.955 3-4.5M68 52.5c-.49-2.182-1.53-3.955-3-4.5" stroke="#E2D5FF" stroke-width="2"/><circle cx="62" cy="45" r="4" stroke="#E2D5FF" stroke-width="2"/><circle cx="62" cy="45" r="10" stroke="#A177FF" stroke-width="2"/><path d="M30 52.5c.49-2.182 1.53-3.955 3-4.5M42 52.5c-.49-2.182-1.53-3.955-3-4.5" stroke="#E2D5FF" stroke-width="2"/><circle cx="36" cy="45" r="4" stroke="#E2D5FF" stroke-width="2"/><circle cx="36" cy="45" r="10" stroke="#A177FF" stroke-width="2"/><path d="M49 29v6m0 0l-5 3m5-3l5 3" stroke="#A177FF" stroke-width="2"/><path d="M5.344 69.2h1.372l3.276 6.23 3.276-6.23h1.316V79h-1.316v-7.42l-2.814 5.32h-.98L6.66 71.58V79H5.344v-9.8zm14.845 9.94c-.476 0-.928-.075-1.358-.224a3.133 3.133 0 0 1-1.134-.686 3.48 3.48 0 0 1-.784-1.19c-.196-.476-.294-1.036-.294-1.68v-.28c0-.616.094-1.148.28-1.596a3.28 3.28 0 0 1 .742-1.134 3.046 3.046 0 0 1 1.092-.686 3.9 3.9 0 0 1 1.316-.224c1.092 0 1.937.299 2.534.896.598.597.896 1.442.896 2.534v.784h-5.628c0 .439.07.807.21 1.106a2.077 2.077 0 0 0 1.288 1.134c.28.084.56.126.84.126.56 0 .99-.093 1.288-.28.308-.187.528-.443.658-.77h1.204c-.074.355-.21.667-.406.938-.186.27-.42.5-.7.686-.27.177-.583.313-.938.406-.345.093-.714.14-1.106.14zm-.07-6.58c-.29 0-.57.042-.84.126a1.94 1.94 0 0 0-1.232 1.022c-.13.261-.196.574-.196.938h4.466c-.01-.383-.074-.705-.196-.966a1.59 1.59 0 0 0-.462-.644 1.792 1.792 0 0 0-.7-.364 3.045 3.045 0 0 0-.84-.112zm5.111-.98h1.232v3.094h3.836V71.58h1.232V79h-1.232v-3.234h-3.836V79H25.23v-7.42zm11.625 7.56c-.476 0-.928-.075-1.358-.224a3.133 3.133 0 0 1-1.134-.686 3.48 3.48 0 0 1-.784-1.19c-.196-.476-.294-1.036-.294-1.68v-.28c0-.616.094-1.148.28-1.596a3.28 3.28 0 0 1 .742-1.134 3.046 3.046 0 0 1 1.092-.686 3.9 3.9 0 0 1 1.316-.224c1.092 0 1.937.299 2.534.896.598.597.896 1.442.896 2.534v.784h-5.628c0 .439.07.807.21 1.106a2.077 2.077 0 0 0 1.288 1.134c.28.084.56.126.84.126.56 0 .99-.093 1.288-.28.308-.187.528-.443.658-.77h1.204c-.074.355-.21.667-.406.938-.186.27-.42.5-.7.686-.27.177-.583.313-.938.406-.345.093-.714.14-1.106.14zm-.07-6.58c-.29 0-.57.042-.84.126a1.94 1.94 0 0 0-1.232 1.022c-.13.261-.196.574-.196.938h4.466c-.01-.383-.074-.705-.196-.966a1.59 1.59 0 0 0-.462-.644 1.792 1.792 0 0 0-.7-.364 3.045 3.045 0 0 0-.84-.112zm4.135 5.348h.91c.102-.14.196-.355.28-.644.084-.29.158-.63.224-1.022.065-.392.112-.817.14-1.274.037-.467.056-.943.056-1.428v-1.96h5.18v6.328h1.05v2.842h-1.176V79h-5.488v1.75H40.92v-2.842zm5.558 0v-5.236h-2.744v1.148c0 .392-.014.784-.042 1.176-.028.383-.07.751-.126 1.106-.056.345-.126.677-.21.994a4.866 4.866 0 0 1-.266.812h3.388zm5.925-2.73l-2.66-3.598h1.372l2.268 3.108h.854V71.58h1.232v3.108h.84l2.31-3.108h1.344l-2.66 3.556 2.8 3.864h-1.456l-2.338-3.248h-.84V79h-1.232v-3.248h-.854L51.03 79h-1.428l2.8-3.822zm9.167-3.598h1.316l2.646 4.62 2.646-4.62h1.232V79h-1.232v-5.39l-2.198 3.78H65l-2.198-3.78V79H61.57v-7.42zm13.156 7.56c-.476 0-.928-.075-1.358-.224a3.133 3.133 0 0 1-1.134-.686 3.48 3.48 0 0 1-.784-1.19c-.196-.476-.294-1.036-.294-1.68v-.28c0-.616.094-1.148.28-1.596a3.28 3.28 0 0 1 .742-1.134 3.046 3.046 0 0 1 1.092-.686 3.9 3.9 0 0 1 1.316-.224c1.092 0 1.937.299 2.534.896.598.597.896 1.442.896 2.534v.784h-5.628c0 .439.07.807.21 1.106a2.077 2.077 0 0 0 1.288 1.134c.28.084.56.126.84.126.56 0 .99-.093 1.288-.28.308-.187.528-.443.658-.77h1.204c-.074.355-.21.667-.406.938-.186.27-.42.5-.7.686-.27.177-.583.313-.938.406-.345.093-.714.14-1.106.14zm-.07-6.58c-.289 0-.569.042-.84.126a1.94 1.94 0 0 0-1.232 1.022c-.13.261-.196.574-.196.938h4.466c-.009-.383-.074-.705-.196-.966a1.59 1.59 0 0 0-.462-.644 1.792 1.792 0 0 0-.7-.364 3.045 3.045 0 0 0-.84-.112zm5.111-.98H81v3.094h3.835V71.58h1.233V79h-1.233v-3.234H81V79h-1.233v-7.42zm10.24 1.092h-2.535V71.58h6.3v1.092h-2.534V79h-1.232v-6.328z" fill="#1B273A"/></svg>