<svg width="77" height="40" viewBox="0 0 77 40" fill="none" xmlns="http://www.w3.org/2000/svg"><rect width="77" height="40" rx="20" fill="#F3A919"/><path d="M24.67 25.177l-.335.942.335-.942a2 2 0 0 0-1.34 0l-4.168 1.482.122-4.422a2 2 0 0 0-.415-1.274l-2.697-3.507 4.243-1.25a2 2 0 0 0 1.084-.788L24 11.768l2.5 3.65a2 2 0 0 0 1.085.788l4.243 1.25-2.697 3.506a2 2 0 0 0-.415 1.275l.122 4.422-4.168-1.482z" fill="url(#a)" stroke="url(#b)" stroke-width="2"/><path d="M45.6 23.632h-5.28v-1.664L45.6 14.8H48v6.848h1.28v1.984H48V26h-2.4v-2.368zm0-1.984v-4.176l-3.04 4.176h3.04zM51.407 26v-2.08h2.24V26l-1.792 2.56h-1.088l.64-2.56zm8.793.192c-.704 0-1.328-.101-1.872-.304a3.352 3.352 0 0 1-1.376-.944c-.373-.437-.661-.992-.864-1.664-.192-.672-.288-1.472-.288-2.4v-.32c0-1.067.112-1.973.336-2.72.224-.757.539-1.376.944-1.856a3.52 3.52 0 0 1 1.44-1.04 4.95 4.95 0 0 1 1.84-.336c1.035 0 1.872.219 2.512.656.64.437 1.03 1.163 1.168 2.176H61.8c-.213-.544-.72-.816-1.52-.816-.31 0-.597.048-.864.144-.256.085-.485.25-.688.496-.192.235-.347.56-.464.976-.117.416-.192.95-.224 1.6.139-.213.31-.39.512-.528.203-.15.421-.267.656-.352.245-.096.496-.165.752-.208.267-.043.533-.064.8-.064 1.13 0 2 .31 2.608.928.608.608.912 1.472.912 2.592v.176c0 .565-.101 1.083-.304 1.552-.203.47-.485.875-.848 1.216a3.66 3.66 0 0 1-1.28.768 4.813 4.813 0 0 1-1.648.272zm-.16-2.016c.576 0 1.024-.16 1.344-.48.33-.33.496-.752.496-1.264v-.16c0-.512-.165-.928-.496-1.248-.32-.32-.768-.48-1.344-.48-.576 0-1.03.16-1.36.48-.32.32-.48.736-.48 1.248v.16c0 .512.16.933.48 1.264.33.32.784.48 1.36.48z" fill="#fff"/><defs><linearGradient id="a" x1="14.5" y1="18" x2="27.5" y2="18" gradientUnits="userSpaceOnUse"><stop offset="1" stop-color="#FFD25E"/><stop offset="1" stop-color="#FFB800" stop-opacity="0"/></linearGradient><linearGradient id="b" x1="34" y1="17" x2="27.5" y2="17" gradientUnits="userSpaceOnUse"><stop offset="1" stop-color="#C28919"/><stop offset="1" stop-color="#CBCBCB" stop-opacity="0"/></linearGradient></defs></svg>