<svg width="40" height="40" viewBox="0 0 40 40" fill="none" xmlns="http://www.w3.org/2000/svg"><rect width="40" height="40" rx="20" fill="#fff"/><path fill-rule="evenodd" clip-rule="evenodd" d="M20 13a5.605 5.605 0 0 0-1.172-1.018A6.117 6.117 0 0 0 15.5 11c-3.08 0-5.5 2.374-5.5 5.395 0 1.074.256 2.093.694 3.063 1.359 3.01 4.472 5.551 7.152 7.738.771.63 1.507 1.23 2.154 1.804.647-.574 1.383-1.174 2.154-1.804 2.68-2.187 5.793-4.727 7.152-7.738.438-.97.694-1.99.694-3.063C30 13.374 27.58 11 24.5 11a6.117 6.117 0 0 0-3.328.982A5.605 5.605 0 0 0 20 13z" fill="#A177FF"/></svg>