<svg width="98" height="92" viewBox="0 0 98 92" fill="none" xmlns="http://www.w3.org/2000/svg"><path d="M0 16C0 7.163 7.163 0 16 0h66c8.837 0 16 7.163 16 16v60c0 8.837-7.163 16-16 16H16C7.163 92 0 84.837 0 76V16z" fill="#F6FEC6"/><path d="M50 43l-2.597-23M50 43h-7m7 0l-4.682 6.182M47.403 20l-.244-1.707A5 5 0 0 0 42.209 14h-6.195a5 5 0 0 0-5 5.014l.053 19a5 5 0 0 0 5 4.986H43m4.403-23h14.532a5 5 0 0 1 5 4.987l.052 20a5 5 0 0 1-5 5.013H47.2a3 3 0 0 1-2.894-2.21L43 43" stroke="#A177FF" stroke-width="2"/><path d="M36 34l.833-4.286M43 34l-.833-4.286m0 0l-1.278-6.569a1.415 1.415 0 1 0-2.779 0l-1.277 6.57m5.334 0h-5.334M53 31h1.667M63 31h-1.667M58 31v-2m0 2h3.333M58 31h-3.333m6.666 0c-.694 2.095-3 7.114-7.333 9m.667-9c.416 1.833 3.583 7.036 7.333 9" stroke="#E2D5FF" stroke-width="2" stroke-linecap="round"/><path d="M30.511 74.884c-.756-.205-1.325-.55-1.708-1.036a2.758 2.758 0 0 1-.56-1.708c0-.42.08-.807.238-1.162.159-.364.392-.677.7-.938.308-.261.691-.467 1.148-.616.467-.15 1.008-.224 1.624-.224h3.43V79h-1.316v-3.948H31.8L29.307 79h-1.484l2.688-4.116zm-.952-2.744c0 .532.196.966.588 1.302.392.327 1.041.49 1.946.49h1.974v-3.584h-1.974c-.905 0-1.554.168-1.946.504-.392.327-.588.756-.588 1.288zm10.858 7c-.933 0-1.666-.196-2.198-.588-.532-.392-.826-.943-.882-1.652h1.232c.066.364.257.644.574.84.327.187.752.28 1.274.28.644 0 1.111-.107 1.4-.322.299-.224.448-.49.448-.798 0-.364-.121-.649-.364-.854-.242-.215-.662-.322-1.26-.322h-1.274v-1.008h1.19c.514 0 .878-.098 1.092-.294.224-.196.336-.471.336-.826 0-.28-.13-.523-.392-.728-.261-.205-.653-.308-1.176-.308-.569 0-.984.093-1.246.28-.252.177-.406.434-.462.77h-1.232c.028-.308.112-.593.252-.854.15-.27.35-.504.602-.7.252-.196.551-.345.896-.448a3.942 3.942 0 0 1 1.19-.168c.476 0 .887.056 1.232.168.355.103.649.252.882.448.234.187.406.41.518.672.112.261.168.55.168.868 0 .355-.088.667-.266.938-.177.261-.462.467-.854.616.523.14.887.364 1.092.672.206.308.308.667.308 1.078 0 .308-.065.597-.196.868-.13.27-.326.509-.588.714a3.011 3.011 0 0 1-.966.476 4.407 4.407 0 0 1-1.33.182zm4.836-7.56h1.232v2.8h1.498c.933 0 1.62.205 2.058.616.448.41.672.98.672 1.708 0 .71-.224 1.27-.672 1.68-.439.41-1.125.616-2.058.616h-2.73v-7.42zm2.66 6.328c.579 0 .985-.103 1.218-.308.233-.205.35-.509.35-.91s-.117-.705-.35-.91c-.233-.205-.64-.308-1.218-.308h-1.428v2.436h1.428zm3.948-6.328h1.232V79H51.86v-7.42zm3.468 0h1.232v3.108h.98l2.772-3.108h1.456l-3.22 3.556L61.909 79h-1.568l-2.8-3.248h-.98V79h-1.232v-7.42zm8.053 0h1.232v5.6l3.836-5.6h1.232V79H68.45v-5.6L64.614 79h-1.232v-7.42z" fill="#1B273A"/></svg>