<svg width="59" height="24" viewBox="0 0 59 24" fill="none" xmlns="http://www.w3.org/2000/svg"><path d="M15.5 7.183L16.667 9a2 2 0 0 0 1.083.826l2.073.652-1.37 1.9a2 2 0 0 0-.377 1.221l.06 2.331-1.927-.73a2 2 0 0 0-1.418 0l-1.927.73.06-2.331a2 2 0 0 0-.377-1.222l-1.37-1.899 2.073-.652A2 2 0 0 0 14.333 9L15.5 7.183z" fill="url(#a)" stroke="url(#b)" stroke-width="2"/><path d="M31.2 14.224h-3.96v-1.248L31.2 7.6H33v5.136h.96v1.488H33V16h-1.8v-1.776zm0-1.488V9.604l-2.28 3.132h2.28zM35.555 16v-1.56h1.68V16l-1.344 1.92h-.816l.48-1.92zm6.595.144c-.528 0-.996-.076-1.404-.228a2.514 2.514 0 0 1-1.032-.708c-.28-.328-.496-.744-.648-1.248-.144-.504-.216-1.104-.216-1.8v-.24c0-.8.084-1.48.252-2.04.168-.568.404-1.032.708-1.392a2.64 2.64 0 0 1 1.08-.78 3.713 3.713 0 0 1 1.38-.252c.776 0 1.404.164 1.884.492.48.328.772.872.876 1.632h-1.68c-.16-.408-.54-.612-1.14-.612a1.9 1.9 0 0 0-.648.108 1.138 1.138 0 0 0-.516.372c-.144.176-.26.42-.348.732-.088.312-.144.712-.168 1.2.104-.16.232-.292.384-.396.152-.112.316-.2.492-.264.184-.072.372-.124.564-.156.2-.032.4-.048.6-.048.848 0 1.5.232 1.956.696.456.456.684 1.104.684 1.944v.132c0 .424-.076.812-.228 1.164a2.716 2.716 0 0 1-.636.912c-.264.248-.584.44-.96.576a3.61 3.61 0 0 1-1.236.204zm-.12-1.512c.432 0 .768-.12 1.008-.36.248-.248.372-.564.372-.948v-.12c0-.384-.124-.696-.372-.936-.24-.24-.576-.36-1.008-.36-.432 0-.772.12-1.02.36-.24.24-.36.552-.36.936v.12c0 .384.12.7.36.948.248.24.588.36 1.02.36z" fill="#392B4B"/><rect x=".5" y=".5" width="58" height="23" rx="7.5" stroke="#F3A919"/><defs><linearGradient id="a" x1="9.563" y1="10.667" x2="17.688" y2="10.667" gradientUnits="userSpaceOnUse"><stop offset="1" stop-color="#FFAA04"/><stop offset="1" stop-color="#FFB800" stop-opacity="0"/></linearGradient><linearGradient id="b" x1="21.75" y1="10" x2="17.688" y2="10" gradientUnits="userSpaceOnUse"><stop offset="1" stop-color="#DCDCDC"/><stop offset="1" stop-color="#CBCBCB" stop-opacity="0"/></linearGradient></defs></svg>