<svg width="418" height="389" viewBox="0 0 418 389" fill="none" xmlns="http://www.w3.org/2000/svg"><path fill-rule="evenodd" clip-rule="evenodd" d="M133.559 175.544l-4.225-2.439 3.328-1.921 4.225 2.439c.92.53.92 1.391 0 1.921-.919.531-2.409.531-3.328 0zm8.451 2.958c.919-.531 2.409-.531 3.328 0l8.451 4.878c.919.531.919 1.391 0 1.922-.919.53-2.409.53-3.328 0l-8.451-4.879c-.919-.531-.919-1.391 0-1.921zm16.901 9.757c.919-.531 2.41-.531 3.329 0l8.45 4.878c.92.531.92 1.391 0 1.922-.919.53-2.409.53-3.328 0l-8.451-4.879c-.919-.53-.919-1.391 0-1.921zm16.902 9.757c.919-.531 2.409-.531 3.328 0l8.451 4.879c.919.53.919 1.39 0 1.921-.919.531-2.409.531-3.328 0l-8.451-4.879c-.919-.53-.919-1.39 0-1.921zm16.901 9.757c.919-.53 2.41-.53 3.329 0l8.45 4.879c.919.53.919 1.391 0 1.921-.919.531-2.409.531-3.328 0l-8.451-4.878c-.919-.531-.919-1.391 0-1.922zm16.902 9.757c.919-.53 2.409-.53 3.328 0l8.451 4.879c.919.531.919 1.391 0 1.921-.919.531-2.409.531-3.328 0l-8.451-4.878c-.919-.531-.919-1.391 0-1.922zm16.901 9.758c.919-.531 2.409-.531 3.329 0l8.45 4.878c.919.531.919 1.391 0 1.922-.919.53-2.409.53-3.328 0l-8.451-4.879c-.919-.531-.919-1.391 0-1.921zm16.902 9.757c.919-.531 2.409-.531 3.328 0l8.451 4.878c.919.531.919 1.391 0 1.922-.919.53-2.409.53-3.329 0l-8.45-4.879c-.919-.53-.919-1.391 0-1.921zm16.901 9.757c.919-.531 2.409-.531 3.329 0l4.225 2.439-3.328 1.922-4.226-2.44c-.919-.53-.919-1.39 0-1.921z" fill="url(#a)"/><path fill-rule="evenodd" clip-rule="evenodd" d="M161.854 334.358l-3.834 2.214-3.02-1.744 3.834-2.213c.834-.482 2.186-.482 3.02 0 .834.481.834 1.262 0 1.743zm4.648-4.427c-.834-.481-.834-1.262 0-1.743l7.668-4.427c.834-.481 2.186-.481 3.02 0 .834.482.834 1.262 0 1.744l-7.668 4.426c-.834.482-2.186.482-3.02 0zm15.336-8.853c-.834-.482-.834-1.262 0-1.744l7.668-4.426c.834-.482 2.186-.482 3.02 0 .834.481.834 1.262 0 1.743l-7.668 4.427c-.834.481-2.186.481-3.02 0zm15.336-8.854c-.834-.481-.834-1.262 0-1.743l7.668-4.427c.834-.481 2.186-.481 3.02 0 .834.482.834 1.262 0 1.744l-7.668 4.426c-.834.482-2.186.482-3.02 0zm15.336-8.853c-.834-.482-.834-1.262 0-1.744l7.668-4.426c.834-.482 2.187-.482 3.02 0 .834.481.834 1.262 0 1.743l-7.668 4.427c-.834.481-2.186.481-3.02 0zm15.337-8.854c-.834-.481-.834-1.262 0-1.743l7.668-4.427c.834-.481 2.186-.481 3.02 0 .834.482.834 1.262 0 1.744l-7.668 4.426c-.834.482-2.187.482-3.02 0zm15.336-8.853c-.834-.482-.834-1.262 0-1.744l7.668-4.426c.834-.482 2.186-.482 3.02 0 .834.481.834 1.262 0 1.743l-7.668 4.427c-.834.481-2.186.481-3.02 0zm15.336-8.854c-.834-.481-.834-1.262 0-1.743l7.668-4.427c.834-.481 2.186-.481 3.02 0 .834.481.834 1.262 0 1.743l-7.668 4.427c-.834.482-2.186.482-3.02 0zm15.336-8.853c-.834-.482-.834-1.262 0-1.744l3.834-2.213 3.02 1.743-3.834 2.214c-.834.481-2.186.481-3.02 0z" fill="url(#b)"/><path fill-rule="evenodd" clip-rule="evenodd" d="M161.854 162.358l-3.834 2.214-3.02-1.744 3.834-2.213c.834-.482 2.186-.482 3.02 0 .834.481.834 1.262 0 1.743zm4.648-4.427c-.834-.481-.834-1.262 0-1.743l7.668-4.427c.834-.481 2.186-.481 3.02 0 .834.482.834 1.262 0 1.744l-7.668 4.426c-.834.482-2.186.482-3.02 0zm15.336-8.853c-.834-.482-.834-1.262 0-1.744l7.668-4.426c.834-.482 2.186-.482 3.02 0 .834.481.834 1.262 0 1.743l-7.668 4.427c-.834.481-2.186.481-3.02 0zm15.336-8.854c-.834-.481-.834-1.262 0-1.743l7.668-4.427c.834-.481 2.186-.481 3.02 0 .834.482.834 1.262 0 1.744l-7.668 4.426c-.834.482-2.186.482-3.02 0zm15.336-8.853c-.834-.482-.834-1.262 0-1.744l7.668-4.426c.834-.482 2.187-.482 3.02 0 .834.481.834 1.262 0 1.743l-7.668 4.427c-.834.481-2.186.481-3.02 0zm15.337-8.854c-.834-.481-.834-1.262 0-1.743l7.668-4.427c.834-.481 2.186-.481 3.02 0 .834.482.834 1.262 0 1.744l-7.668 4.426c-.834.482-2.187.482-3.02 0zm15.336-8.853c-.834-.482-.834-1.262 0-1.744l7.668-4.426c.834-.482 2.186-.482 3.02 0 .834.481.834 1.262 0 1.743l-7.668 4.427c-.834.481-2.186.481-3.02 0zm15.336-8.854c-.834-.481-.834-1.262 0-1.743l7.668-4.427c.834-.481 2.186-.481 3.02 0 .834.481.834 1.262 0 1.743l-7.668 4.427c-.834.482-2.186.482-3.02 0zm15.336-8.853c-.834-.482-.834-1.262 0-1.744L277.689 92l3.02 1.743-3.834 2.214c-.834.481-2.186.481-3.02 0z" fill="url(#c)"/><mask id="e" style="mask-type:alpha" maskUnits="userSpaceOnUse" x="30" y="327" width="149" height="59"><path d="M178.652 327.756h-148v18.5c0 .167.002.333.006.5.502 21.585 33.438 39 73.994 39 40.557 0 73.493-17.415 73.995-39 .003-.167.005-.333.005-.5v-18.5z" fill="url(#d)"/></mask><g mask="url(#e)"><path d="M178.652 327.756h-148v18.5c0 .167.002.333.006.5.502 21.585 33.438 39 73.994 39 40.557 0 73.493-17.415 73.995-39 .003-.167.005-.333.005-.5v-18.5z" fill="url(#f)"/><path d="M178.652 316h-148v18.5c0 .167.002.334.006.5.502 21.585 33.438 39 73.994 39 40.557 0 73.493-17.415 73.995-39 .003-.166.005-.333.005-.5V316z" fill="url(#g)"/></g><g filter="url(#h)"><rect width="120.839" height="120.839" rx="60.419" transform="matrix(.86604 -.49997 .86604 .49997 0 328.416)" fill="url(#i)"/><path fill-rule="evenodd" clip-rule="evenodd" d="M101.747 318.757l-14.434 8.332c-1.595.921-1.595 2.413 0 3.333l14.434 8.333c1.594.921 4.179.921 5.773 0l14.435-8.333c1.594-.92 1.594-2.412 0-3.333l-14.435-8.332c-1.594-.921-4.179-.921-5.773 0zm-17.321 6.666c-3.189 1.841-3.189 4.825 0 6.666l14.434 8.333c3.189 1.841 8.359 1.841 11.547 0l14.434-8.333c3.189-1.841 3.189-4.825 0-6.666l-14.434-8.333c-3.188-1.841-8.358-1.841-11.547 0l-14.434 8.333z" fill="#966CEE"/><path fill-rule="evenodd" clip-rule="evenodd" d="M104.634 337.089l-10.104-5.833 2.887-1.667 10.103 5.833-2.886 1.667zM110.407 333.756l-14.434-8.333 2.887-1.667 14.434 8.333-2.887 1.667zM116.181 330.422l-5.774-3.333 2.887-1.666 5.774 3.333-2.887 1.666z" fill="#966CEE"/></g><mask id="k" style="mask-type:alpha" maskUnits="userSpaceOnUse" x="30" y="155" width="149" height="59"><path d="M178.652 155.756h-148v18.5c0 .167.002.333.006.5.502 21.585 33.438 39 73.994 39 40.557 0 73.493-17.415 73.995-39 .003-.167.005-.333.005-.5v-18.5z" fill="url(#j)"/></mask><g mask="url(#k)"><path d="M178.652 155.756h-148v18.5c0 .167.002.333.006.5.502 21.585 33.438 39 73.994 39 40.557 0 73.493-17.415 73.995-39 .003-.167.005-.333.005-.5v-18.5z" fill="url(#l)"/><path d="M178.652 144h-148v18.5c0 .167.002.334.006.5.502 21.585 33.438 39 73.994 39 40.557 0 73.493-17.415 73.995-39 .003-.166.005-.333.005-.5V144z" fill="url(#m)"/></g><g filter="url(#n)"><rect width="120.839" height="120.839" rx="60.419" transform="matrix(.86604 -.49997 .86604 .49997 0 156.416)" fill="url(#o)"/><path fill-rule="evenodd" clip-rule="evenodd" d="M101.7 166.49c-.718.415-1.883.415-2.601 0l-13.008-7.509c-.718-.414-.718-1.087 0-1.501l20.812-12.015c.719-.415 1.883-.415 2.602 0l13.007 7.509c.718.415.718 1.087 0 1.502l-9.105 5.256 2.601 1.502 9.105-5.256c2.155-1.244 2.155-3.262 0-4.506l-13.007-7.509c-2.155-1.244-5.649-1.244-7.804 0L83.49 155.978c-2.155 1.244-2.155 3.261 0 4.505l13.007 7.509c2.156 1.244 5.65 1.244 7.805 0l9.105-5.256-2.602-1.502-9.105 5.256z" fill="#966CEE"/><path fill-rule="evenodd" clip-rule="evenodd" d="M116.008 164.238l-5.203-3.004 2.602-1.502 5.203 3.004 3.902-2.253 2.601 1.502-10.405 6.007-2.602-1.502 3.902-2.252zM94.89 155.05l16.529-3.181-5.51 9.542-11.02-6.361zm6.81.928l3.902-.751-1.3 2.253-2.602-1.502z" fill="#966CEE"/></g><mask id="q" style="mask-type:alpha" maskUnits="userSpaceOnUse" x="238" y="231" width="149" height="59"><path d="M386.652 231.756h-148v18.5c0 .167.002.333.006.5.502 21.585 33.438 39 73.994 39 40.557 0 73.493-17.415 73.995-39 .003-.167.005-.333.005-.5v-18.5z" fill="url(#p)"/></mask><g mask="url(#q)"><path d="M386.652 231.756h-148v18.5c0 .167.002.333.006.5.502 21.585 33.438 39 73.994 39 40.557 0 73.493-17.415 73.995-39 .003-.167.005-.333.005-.5v-18.5z" fill="url(#r)"/><path d="M386.652 220h-148v18.5c0 .167.002.334.006.5.502 21.585 33.438 39 73.994 39 40.557 0 73.493-17.415 73.995-39 .003-.166.005-.333.005-.5V220z" fill="url(#s)"/></g><g filter="url(#t)"><rect width="120.839" height="120.839" rx="60.419" transform="matrix(.86604 -.49997 .86604 .49997 208 232.416)" fill="url(#u)"/><path fill-rule="evenodd" clip-rule="evenodd" d="M310.339 231.412c.746-.43.746-1.128 0-1.559-.745-.43-1.954-.43-2.7 0-.745.431-.745 1.129 0 1.559.746.43 1.955.43 2.7 0zm2.7 1.559c2.237-1.292 2.237-3.385 0-4.676-2.237-1.292-5.863-1.292-8.1 0-2.237 1.291-2.237 3.384 0 4.676 2.237 1.291 5.863 1.291 8.1 0zM317.089 235.309c-2.982 1.721-2.982 4.513 0 6.235l-2.7 1.558c-4.473-2.582-4.473-6.769 0-9.352 4.474-2.583 11.727-2.583 16.2 0l-2.7 1.559c-2.982-1.722-7.817-1.722-10.8 0z" fill="#966CEE"/><path fill-rule="evenodd" clip-rule="evenodd" d="M323.839 239.206c5.965-3.444 5.965-9.027 0-12.47-5.964-3.444-15.635-3.444-21.6 0-5.965 3.443-5.965 9.026 0 12.47 5.965 3.443 15.636 3.443 21.6 0zm2.7 1.558c7.456-4.304 7.456-11.283 0-15.587s-19.544-4.304-27 0c-7.456 4.304-7.456 11.283 0 15.587 7.456 4.305 19.544 4.305 27 0z" fill="#966CEE"/></g><mask id="w" style="mask-type:alpha" maskUnits="userSpaceOnUse" x="238" y="59" width="149" height="59"><path d="M386.652 59.756h-148v18.5c0 .167.002.333.006.5.502 21.585 33.438 39 73.994 39 40.557 0 73.493-17.415 73.995-39 .003-.167.005-.333.005-.5v-18.5z" fill="url(#v)"/></mask><g mask="url(#w)"><path d="M386.652 59.756h-148v18.5c0 .167.002.333.006.5.502 21.585 33.438 39 73.994 39 40.557 0 73.493-17.415 73.995-39 .003-.167.005-.333.005-.5v-18.5z" fill="url(#x)"/><path d="M386.652 48h-148v18.5c0 .167.002.334.006.5.502 21.585 33.438 39 73.994 39 40.557 0 73.493-17.415 73.995-39 .003-.166.005-.333.005-.5V48z" fill="url(#y)"/></g><g filter="url(#z)"><rect width="120.839" height="120.839" rx="60.419" transform="matrix(.86604 -.49997 .86604 .49997 208 60.416)" fill="url(#A)"/><path fill-rule="evenodd" clip-rule="evenodd" d="M309.999 52.269l-12.572 7.258 5.029 2.903c3.471 2.004 9.1 2.004 12.572 0 3.471-2.005 3.471-5.254 0-7.258l-5.029-2.903zm-17.601 7.258l7.543 4.354c4.861 2.806 12.741 2.806 17.601 0 4.86-2.806 4.86-7.355 0-10.16l-7.543-4.355-17.601 10.16z" fill="#F3A919"/><path fill-rule="evenodd" clip-rule="evenodd" d="M313.77 51.543l3.772 2.177.629-.363c1.041-.6 1.041-1.576 0-2.177-1.042-.601-2.73-.601-3.772 0l-.629.363zm3.772 5.08l3.143-1.814c2.43-1.403 2.43-3.678 0-5.08-2.43-1.404-6.37-1.404-8.8 0l-3.143 1.814 8.8 5.08zM296.17 61.704l3.771 2.177-.628.363c-1.042.601-2.731.601-3.772 0-1.042-.601-1.042-1.576 0-2.177l.629-.363zm8.8 2.177l-3.143 1.815c-2.43 1.403-6.37 1.403-8.8 0-2.431-1.403-2.431-3.678 0-5.08l3.143-1.815 8.8 5.08zM326.343 64.607l-7.544 4.355c-.694.4-.694 1.05 0 1.451l10.058-5.806c-.694-.4-1.82-.4-2.514 0zm-10.058 2.903c-2.083 1.203-2.083 3.152 0 4.355l2.514 1.452 15.087-8.71-2.515-1.451c-2.083-1.203-5.46-1.203-7.543 0l-7.543 4.354z" fill="#F3A919"/><path fill-rule="evenodd" clip-rule="evenodd" d="M318.799 63.156l-2.514 1.451 2.514 1.452 2.515-1.452-2.515-1.451zm-7.543 1.451l7.543 4.355 7.544-4.355-7.544-4.355-7.543 4.355z" fill="#F3A919"/></g><defs><filter id="h" x="0" y="268" width="213.304" height="124.831" filterUnits="userSpaceOnUse" color-interpolation-filters="sRGB"><feFlood flood-opacity="0" result="BackgroundImageFix"/><feBlend in="SourceGraphic" in2="BackgroundImageFix" result="shape"/><feColorMatrix in="SourceAlpha" values="0 0 0 0 0 0 0 0 0 0 0 0 0 0 0 0 0 0 127 0" result="hardAlpha"/><feOffset dx="4" dy="4"/><feGaussianBlur stdDeviation="4"/><feComposite in2="hardAlpha" operator="arithmetic" k2="-1" k3="1"/><feColorMatrix values="0 0 0 0 0.917778 0 0 0 0 0.952281 0 0 0 0 0.983333 0 0 0 1 0"/><feBlend in2="shape" result="effect1_innerShadow"/></filter><filter id="n" x="0" y="96" width="213.304" height="124.831" filterUnits="userSpaceOnUse" color-interpolation-filters="sRGB"><feFlood flood-opacity="0" result="BackgroundImageFix"/><feBlend in="SourceGraphic" in2="BackgroundImageFix" result="shape"/><feColorMatrix in="SourceAlpha" values="0 0 0 0 0 0 0 0 0 0 0 0 0 0 0 0 0 0 127 0" result="hardAlpha"/><feOffset dx="4" dy="4"/><feGaussianBlur stdDeviation="4"/><feComposite in2="hardAlpha" operator="arithmetic" k2="-1" k3="1"/><feColorMatrix values="0 0 0 0 0.917778 0 0 0 0 0.952281 0 0 0 0 0.983333 0 0 0 1 0"/><feBlend in2="shape" result="effect1_innerShadow"/></filter><filter id="t" x="208" y="172" width="213.304" height="124.831" filterUnits="userSpaceOnUse" color-interpolation-filters="sRGB"><feFlood flood-opacity="0" result="BackgroundImageFix"/><feBlend in="SourceGraphic" in2="BackgroundImageFix" result="shape"/><feColorMatrix in="SourceAlpha" values="0 0 0 0 0 0 0 0 0 0 0 0 0 0 0 0 0 0 127 0" result="hardAlpha"/><feOffset dx="4" dy="4"/><feGaussianBlur stdDeviation="4"/><feComposite in2="hardAlpha" operator="arithmetic" k2="-1" k3="1"/><feColorMatrix values="0 0 0 0 0.917778 0 0 0 0 0.952281 0 0 0 0 0.983333 0 0 0 1 0"/><feBlend in2="shape" result="effect1_innerShadow"/></filter><filter id="z" x="208" y="0" width="213.304" height="124.831" filterUnits="userSpaceOnUse" color-interpolation-filters="sRGB"><feFlood flood-opacity="0" result="BackgroundImageFix"/><feBlend in="SourceGraphic" in2="BackgroundImageFix" result="shape"/><feColorMatrix in="SourceAlpha" values="0 0 0 0 0 0 0 0 0 0 0 0 0 0 0 0 0 0 127 0" result="hardAlpha"/><feOffset dx="4" dy="4"/><feGaussianBlur stdDeviation="4"/><feComposite in2="hardAlpha" operator="arithmetic" k2="-1" k3="1"/><feColorMatrix values="0 0 0 0 1 0 0 0 0 0.934833 0 0 0 0 0.858333 0 0 0 1 0"/><feBlend in2="shape" result="effect1_innerShadow"/></filter><linearGradient id="a" x1="180.059" y1="191.225" x2="178.317" y2="240.889" gradientUnits="userSpaceOnUse"><stop stop-color="#B8CAE7"/><stop offset="1" stop-color="#E6EFFF"/></linearGradient><linearGradient id="b" x1="186.5" y1="310" x2="263.801" y2="318.137" gradientUnits="userSpaceOnUse"><stop stop-color="#B8CAE7"/><stop offset="1" stop-color="#E6EFFF"/></linearGradient><linearGradient id="c" x1="186.5" y1="138" x2="263.801" y2="146.137" gradientUnits="userSpaceOnUse"><stop stop-color="#B8CAE7"/><stop offset="1" stop-color="#E6EFFF"/></linearGradient><radialGradient id="d" cx="0" cy="0" r="1" gradientUnits="userSpaceOnUse" gradientTransform="rotate(-29.376 732.84 -21.246) scale(79.0064 201.603)"><stop stop-color="#BCD0F2"/><stop offset="1" stop-color="#E3EEFF"/></radialGradient><radialGradient id="f" cx="0" cy="0" r="1" gradientUnits="userSpaceOnUse" gradientTransform="rotate(-29.376 732.84 -21.246) scale(79.0064 201.603)"><stop stop-color="#BCD0F2"/><stop offset="1" stop-color="#E3EEFF"/></radialGradient><radialGradient id="g" cx="0" cy="0" r="1" gradientUnits="userSpaceOnUse" gradientTransform="matrix(68.34764 -28.00006 71.44838 174.4042 104.652 345)"><stop stop-color="#DFEBFF"/><stop offset=".522" stop-color="#DFEBFF" stop-opacity=".27"/></radialGradient><radialGradient id="i" cx="0" cy="0" r="1" gradientUnits="userSpaceOnUse" gradientTransform="rotate(-70.283 108.01 37.448) scale(137.644 93.9234)"><stop stop-color="#FDFEFF"/><stop offset="1" stop-color="#E6F3FF"/></radialGradient><radialGradient id="j" cx="0" cy="0" r="1" gradientUnits="userSpaceOnUse" gradientTransform="rotate(-29.376 404.75 -107.246) scale(79.0064 201.603)"><stop stop-color="#BCD0F2"/><stop offset="1" stop-color="#E3EEFF"/></radialGradient><radialGradient id="l" cx="0" cy="0" r="1" gradientUnits="userSpaceOnUse" gradientTransform="rotate(-29.376 404.75 -107.246) scale(79.0064 201.603)"><stop stop-color="#BCD0F2"/><stop offset="1" stop-color="#E3EEFF"/></radialGradient><radialGradient id="m" cx="0" cy="0" r="1" gradientUnits="userSpaceOnUse" gradientTransform="matrix(68.34764 -28.00006 71.44838 174.4042 104.652 173)"><stop stop-color="#DFEBFF"/><stop offset=".522" stop-color="#DFEBFF" stop-opacity=".27"/></radialGradient><radialGradient id="o" cx="0" cy="0" r="1" gradientUnits="userSpaceOnUse" gradientTransform="rotate(-70.283 108.01 37.448) scale(137.644 93.9234)"><stop stop-color="#FDFEFF"/><stop offset="1" stop-color="#E6F3FF"/></radialGradient><radialGradient id="p" cx="0" cy="0" r="1" gradientUnits="userSpaceOnUse" gradientTransform="rotate(-29.376 653.72 -466.008) scale(79.0064 201.603)"><stop stop-color="#BCD0F2"/><stop offset="1" stop-color="#E3EEFF"/></radialGradient><radialGradient id="r" cx="0" cy="0" r="1" gradientUnits="userSpaceOnUse" gradientTransform="rotate(-29.376 653.72 -466.008) scale(79.0064 201.603)"><stop stop-color="#BCD0F2"/><stop offset="1" stop-color="#E3EEFF"/></radialGradient><radialGradient id="s" cx="0" cy="0" r="1" gradientUnits="userSpaceOnUse" gradientTransform="matrix(68.34764 -28.00006 71.44838 174.4042 312.652 249)"><stop stop-color="#DFEBFF"/><stop offset=".522" stop-color="#DFEBFF" stop-opacity=".27"/></radialGradient><radialGradient id="u" cx="0" cy="0" r="1" gradientUnits="userSpaceOnUse" gradientTransform="rotate(-70.283 108.01 37.448) scale(137.644 93.9234)"><stop stop-color="#FDFEFF"/><stop offset="1" stop-color="#E6F3FF"/></radialGradient><radialGradient id="v" cx="0" cy="0" r="1" gradientUnits="userSpaceOnUse" gradientTransform="rotate(-29.376 325.629 -552.008) scale(79.0064 201.603)"><stop stop-color="#BCD0F2"/><stop offset="1" stop-color="#E3EEFF"/></radialGradient><radialGradient id="x" cx="0" cy="0" r="1" gradientUnits="userSpaceOnUse" gradientTransform="rotate(-29.376 325.629 -552.008) scale(79.0064 201.603)"><stop stop-color="#F5BF7F"/><stop offset="1" stop-color="#FFFCF9"/></radialGradient><radialGradient id="y" cx="0" cy="0" r="1" gradientUnits="userSpaceOnUse" gradientTransform="matrix(68.34764 -28.00006 71.44838 174.4042 312.652 77)"><stop stop-color="#FFF2DF"/><stop offset=".522" stop-color="#FFF8DF" stop-opacity=".27"/></radialGradient><radialGradient id="A" cx="0" cy="0" r="1" gradientUnits="userSpaceOnUse" gradientTransform="rotate(-70.283 108.01 37.448) scale(137.644 93.9234)"><stop stop-color="#FFFAEA"/><stop offset="1" stop-color="#FFF4D9"/></radialGradient></defs></svg>