<svg width="32" height="32" viewBox="0 0 32 32" fill="none" xmlns="http://www.w3.org/2000/svg"><path fill-rule="evenodd" clip-rule="evenodd" d="M11.062 3.566c1.267-.048 1.69-.064 4.938-.064 3.227 0 3.65.016 4.913.063h.032c1.271.066 2.158.275 2.916.565a5.91 5.91 0 0 1 2.126 1.386 5.703 5.703 0 0 1 1.385 2.126c.306.772.499 1.643.564 2.915v.007c.048 1.267.064 1.69.064 4.938 0 3.254 0 3.672-.064 4.945-.065 1.272-.274 2.159-.564 2.916a5.907 5.907 0 0 1-1.387 2.126 5.703 5.703 0 0 1-2.125 1.384c-.773.307-1.643.5-2.915.565h-.007c-1.267.048-1.69.064-4.938.064-3.254 0-3.672 0-4.945-.064-1.272-.065-2.159-.274-2.916-.564-.789-.307-1.45-.725-2.126-1.386-.676-.66-1.078-1.337-1.385-2.126-.306-.773-.499-1.643-.564-2.915v-.007C4.016 19.173 4 18.75 4 15.502c0-3.254 0-3.673.064-4.944.065-1.272.274-2.159.564-2.917a5.91 5.91 0 0 1 1.386-2.126c.66-.676 1.337-1.078 2.126-1.385.773-.306 1.643-.499 2.915-.564h.007zM22.958 9.18c-.18.07-.37.102-.562.097v.001a1.434 1.434 0 0 1 0-2.868 1.434 1.434 0 0 1 .561 2.77zm-12.642 3.95a6.153 6.153 0 1 0 11.37 4.71 6.153 6.153 0 0 0-11.37-4.71zm1.993 3.898a3.996 3.996 0 1 1 7.384-3.058 3.996 3.996 0 0 1-7.384 3.058z" fill="#CAB1FF"/></svg>