<svg width="156" height="156" viewBox="0 0 156 156" fill="none" xmlns="http://www.w3.org/2000/svg"><g opacity=".6"><mask id="a" style="mask-type:alpha" maskUnits="userSpaceOnUse" x="18" y="18" width="120" height="120"><path fill-rule="evenodd" clip-rule="evenodd" d="M78 137.428c32.822 0 59.429-26.607 59.429-59.428 0-32.822-26.607-59.429-59.428-59.429-32.822 0-59.429 26.607-59.429 59.429 0 32.821 26.607 59.428 59.429 59.428zm8-100.857a3.714 3.714 0 0 0-3.713 3.715v37.142h18.571a3.714 3.714 0 0 0 0-7.428H89.715V40.286a3.714 3.714 0 0 0-3.714-3.715z" fill="#0D0D0D"/></mask><g mask="url(#a)"><path d="M55.34-51.563l.879.88L-66.558 72.092l-.88-.878L55.34-51.563z" fill="url(#b)"/><path d="M126.237 19.335l.879.878L4.339 142.992l-.88-.879L126.238 19.335z" fill="url(#c)"/><path d="M90.788-16.114l.88.879L-31.11 107.542l-.879-.879L90.788-16.114z" fill="url(#d)"/><path d="M161.685 54.783l.879.879L39.787 178.439l-.879-.879L161.685 54.783z" fill="url(#e)"/><path d="M58.562-48.34l.88.879L-63.337 75.316l-.879-.879L58.562-48.34z" fill="url(#f)"/><path d="M129.46 22.557l.878.88L7.561 146.212l-.879-.879L129.46 22.557z" fill="url(#g)"/><path d="M94.011-12.891l.879.879-122.777 122.777-.88-.879L94.012-12.891z" fill="url(#h)"/><path d="M164.908 58.006l.879.879L43.01 181.662l-.879-.879L164.908 58.006z" fill="url(#i)"/><path d="M61.785-45.117l.879.879L-60.113 78.539l-.879-.88L61.785-45.116z" fill="url(#j)"/><path d="M132.682 25.78l.879.879L10.784 149.436l-.879-.879L132.682 25.78z" fill="url(#k)"/><path d="M97.234-9.669l.879.88-122.778 122.776-.879-.879L97.234-9.669z" fill="url(#l)"/><path d="M168.131 61.228l.879.88L46.233 184.883l-.88-.879L168.132 61.228z" fill="url(#m)"/><path d="M65.008-41.895l.879.88L-56.892 81.76l-.878-.879L65.008-41.895z" fill="url(#n)"/><path d="M135.905 29.002l.879.88L14.007 152.657l-.88-.879L135.906 29.002z" fill="url(#o)"/><path d="M100.456-6.446l.879.879L-21.442 117.21l-.879-.879L100.456-6.446z" fill="url(#p)"/><path d="M171.353 64.45l.879.88L49.455 188.107l-.879-.879L171.353 64.451z" fill="url(#q)"/><path d="M68.23-38.672l.88.879L-53.669 84.984l-.879-.88L68.23-38.671z" fill="url(#r)"/><path d="M139.127 32.225l.879.879L17.229 155.88l-.879-.879L139.127 32.225z" fill="url(#s)"/><path d="M103.679-3.224l.879.88-122.777 122.776-.88-.879L103.68-3.224z" fill="url(#t)"/><path d="M174.576 67.674l.879.878L52.678 191.33l-.88-.878L174.577 67.674z" fill="url(#u)"/><path d="M71.453-35.45l.879.88L-50.445 88.205l-.88-.879L71.454-35.448z" fill="url(#v)"/><path d="M142.35 35.448l.879.879L20.452 159.103l-.88-.879L142.35 35.448z" fill="url(#w)"/><path d="M106.901-.001l.879.879-122.777 122.777-.879-.879L106.901-.001z" fill="url(#x)"/><path d="M177.798 70.896l.879.879L55.9 194.552l-.879-.879L177.798 70.896z" fill="url(#y)"/><path d="M74.675-32.227l.88.879L-47.224 91.429l-.879-.879L74.675-32.227z" fill="url(#z)"/><path d="M145.573 38.67l.878.88L23.674 162.325l-.878-.879L145.572 38.67z" fill="url(#A)"/><path d="M110.124 3.222l.879.879-122.777 122.777-.88-.879L110.125 3.222z" fill="url(#B)"/><path d="M181.021 74.119l.879.879L59.123 197.775l-.879-.879L181.021 74.119z" fill="url(#C)"/><path d="M77.898-29.004l.879.879L-44 94.652l-.879-.88L77.898-29.003z" fill="url(#D)"/><path d="M148.795 41.893l.879.879L26.897 165.549l-.879-.879L148.795 41.893z" fill="url(#E)"/><path d="M113.347 6.444l.878.88L-8.552 130.1l-.879-.879L113.348 6.444z" fill="url(#F)"/><path d="M184.244 77.341l.879.88L62.346 200.996l-.88-.879L184.245 77.341z" fill="url(#G)"/><path d="M81.12-25.782l.88.88L-40.779 97.873l-.879-.879L81.121-25.782z" fill="url(#H)"/><path d="M152.018 45.115l.879.88L30.12 168.77l-.88-.879L152.019 45.115z" fill="url(#I)"/><path d="M116.569 9.667l.879.879L-5.329 133.323l-.879-.879L116.57 9.667z" fill="url(#J)"/><path d="M187.466 80.564l.879.879L65.568 204.22l-.879-.879L187.466 80.564z" fill="url(#K)"/><path d="M84.343-22.56l.88.88-122.778 122.777-.879-.879L84.343-22.559z" fill="url(#L)"/><path d="M155.24 48.338l.879.879L33.342 171.994l-.879-.879L155.24 48.338z" fill="url(#M)"/><path d="M119.792 12.89l.879.878L-2.106 136.545l-.88-.879L119.793 12.889z" fill="url(#N)"/><path d="M190.689 83.787l.879.878L68.791 207.442l-.88-.878L190.69 83.787z" fill="url(#O)"/><path d="M87.566-19.337l.879.88-122.777 122.776-.88-.878L87.567-19.337z" fill="url(#P)"/><path d="M158.463 51.56l.879.88L36.565 175.215l-.88-.878L158.464 51.56z" fill="url(#Q)"/><path d="M123.014 16.112l.879.879L1.116 139.768l-.879-.879L123.014 16.112z" fill="url(#R)"/><path d="M193.911 87.01l.879.878L72.013 210.665l-.879-.879L193.911 87.009z" fill="url(#S)"/></g></g><defs><radialGradient id="b" cx="0" cy="0" r="1" gradientUnits="userSpaceOnUse" gradientTransform="matrix(-61.38854 61.38854 -69.72525 -69.72525 63.677 79.551)"><stop stop-color="#D0B9E7"/><stop offset="1" stop-color="#D0B9E7" stop-opacity=".47"/></radialGradient><radialGradient id="c" cx="0" cy="0" r="1" gradientUnits="userSpaceOnUse" gradientTransform="matrix(-61.38854 61.38854 -69.72525 -69.72525 63.677 79.551)"><stop stop-color="#D0B9E7"/><stop offset="1" stop-color="#D0B9E7" stop-opacity=".47"/></radialGradient><radialGradient id="d" cx="0" cy="0" r="1" gradientUnits="userSpaceOnUse" gradientTransform="matrix(-61.38854 61.38854 -69.72525 -69.72525 63.677 79.551)"><stop stop-color="#D0B9E7"/><stop offset="1" stop-color="#D0B9E7" stop-opacity=".47"/></radialGradient><radialGradient id="e" cx="0" cy="0" r="1" gradientUnits="userSpaceOnUse" gradientTransform="matrix(-61.38854 61.38854 -69.72525 -69.72525 63.677 79.551)"><stop stop-color="#D0B9E7"/><stop offset="1" stop-color="#D0B9E7" stop-opacity=".47"/></radialGradient><radialGradient id="f" cx="0" cy="0" r="1" gradientUnits="userSpaceOnUse" gradientTransform="matrix(-61.38854 61.38854 -69.72525 -69.72525 63.677 79.551)"><stop stop-color="#D0B9E7"/><stop offset="1" stop-color="#D0B9E7" stop-opacity=".47"/></radialGradient><radialGradient id="g" cx="0" cy="0" r="1" gradientUnits="userSpaceOnUse" gradientTransform="matrix(-61.38854 61.38854 -69.72525 -69.72525 63.677 79.551)"><stop stop-color="#D0B9E7"/><stop offset="1" stop-color="#D0B9E7" stop-opacity=".47"/></radialGradient><radialGradient id="h" cx="0" cy="0" r="1" gradientUnits="userSpaceOnUse" gradientTransform="matrix(-61.38854 61.38854 -69.72525 -69.72525 63.677 79.551)"><stop stop-color="#D0B9E7"/><stop offset="1" stop-color="#D0B9E7" stop-opacity=".47"/></radialGradient><radialGradient id="i" cx="0" cy="0" r="1" gradientUnits="userSpaceOnUse" gradientTransform="matrix(-61.38854 61.38854 -69.72525 -69.72525 63.677 79.551)"><stop stop-color="#D0B9E7"/><stop offset="1" stop-color="#D0B9E7" stop-opacity=".47"/></radialGradient><radialGradient id="j" cx="0" cy="0" r="1" gradientUnits="userSpaceOnUse" gradientTransform="matrix(-61.38854 61.38854 -69.72525 -69.72525 63.677 79.551)"><stop stop-color="#D0B9E7"/><stop offset="1" stop-color="#D0B9E7" stop-opacity=".47"/></radialGradient><radialGradient id="k" cx="0" cy="0" r="1" gradientUnits="userSpaceOnUse" gradientTransform="matrix(-61.38854 61.38854 -69.72525 -69.72525 63.677 79.551)"><stop stop-color="#D0B9E7"/><stop offset="1" stop-color="#D0B9E7" stop-opacity=".47"/></radialGradient><radialGradient id="l" cx="0" cy="0" r="1" gradientUnits="userSpaceOnUse" gradientTransform="matrix(-61.38854 61.38854 -69.72525 -69.72525 63.677 79.551)"><stop stop-color="#D0B9E7"/><stop offset="1" stop-color="#D0B9E7" stop-opacity=".47"/></radialGradient><radialGradient id="m" cx="0" cy="0" r="1" gradientUnits="userSpaceOnUse" gradientTransform="matrix(-61.38854 61.38854 -69.72525 -69.72525 63.677 79.551)"><stop stop-color="#D0B9E7"/><stop offset="1" stop-color="#D0B9E7" stop-opacity=".47"/></radialGradient><radialGradient id="n" cx="0" cy="0" r="1" gradientUnits="userSpaceOnUse" gradientTransform="matrix(-61.38854 61.38854 -69.72525 -69.72525 63.677 79.551)"><stop stop-color="#D0B9E7"/><stop offset="1" stop-color="#D0B9E7" stop-opacity=".47"/></radialGradient><radialGradient id="o" cx="0" cy="0" r="1" gradientUnits="userSpaceOnUse" gradientTransform="matrix(-61.38854 61.38854 -69.72525 -69.72525 63.677 79.551)"><stop stop-color="#D0B9E7"/><stop offset="1" stop-color="#D0B9E7" stop-opacity=".47"/></radialGradient><radialGradient id="p" cx="0" cy="0" r="1" gradientUnits="userSpaceOnUse" gradientTransform="matrix(-61.38854 61.38854 -69.72525 -69.72525 63.677 79.551)"><stop stop-color="#D0B9E7"/><stop offset="1" stop-color="#D0B9E7" stop-opacity=".47"/></radialGradient><radialGradient id="q" cx="0" cy="0" r="1" gradientUnits="userSpaceOnUse" gradientTransform="matrix(-61.38854 61.38854 -69.72525 -69.72525 63.677 79.551)"><stop stop-color="#D0B9E7"/><stop offset="1" stop-color="#D0B9E7" stop-opacity=".47"/></radialGradient><radialGradient id="r" cx="0" cy="0" r="1" gradientUnits="userSpaceOnUse" gradientTransform="matrix(-61.38854 61.38854 -69.72525 -69.72525 63.677 79.551)"><stop stop-color="#D0B9E7"/><stop offset="1" stop-color="#D0B9E7" stop-opacity=".47"/></radialGradient><radialGradient id="s" cx="0" cy="0" r="1" gradientUnits="userSpaceOnUse" gradientTransform="matrix(-61.38854 61.38854 -69.72525 -69.72525 63.677 79.551)"><stop stop-color="#D0B9E7"/><stop offset="1" stop-color="#D0B9E7" stop-opacity=".47"/></radialGradient><radialGradient id="t" cx="0" cy="0" r="1" gradientUnits="userSpaceOnUse" gradientTransform="matrix(-61.38854 61.38854 -69.72525 -69.72525 63.677 79.551)"><stop stop-color="#D0B9E7"/><stop offset="1" stop-color="#D0B9E7" stop-opacity=".47"/></radialGradient><radialGradient id="u" cx="0" cy="0" r="1" gradientUnits="userSpaceOnUse" gradientTransform="matrix(-61.38854 61.38854 -69.72525 -69.72525 63.677 79.551)"><stop stop-color="#D0B9E7"/><stop offset="1" stop-color="#D0B9E7" stop-opacity=".47"/></radialGradient><radialGradient id="v" cx="0" cy="0" r="1" gradientUnits="userSpaceOnUse" gradientTransform="matrix(-61.38854 61.38854 -69.72525 -69.72525 63.677 79.551)"><stop stop-color="#D0B9E7"/><stop offset="1" stop-color="#D0B9E7" stop-opacity=".47"/></radialGradient><radialGradient id="w" cx="0" cy="0" r="1" gradientUnits="userSpaceOnUse" gradientTransform="matrix(-61.38854 61.38854 -69.72525 -69.72525 63.677 79.551)"><stop stop-color="#D0B9E7"/><stop offset="1" stop-color="#D0B9E7" stop-opacity=".47"/></radialGradient><radialGradient id="x" cx="0" cy="0" r="1" gradientUnits="userSpaceOnUse" gradientTransform="matrix(-61.38854 61.38854 -69.72525 -69.72525 63.677 79.551)"><stop stop-color="#D0B9E7"/><stop offset="1" stop-color="#D0B9E7" stop-opacity=".47"/></radialGradient><radialGradient id="y" cx="0" cy="0" r="1" gradientUnits="userSpaceOnUse" gradientTransform="matrix(-61.38854 61.38854 -69.72525 -69.72525 63.677 79.551)"><stop stop-color="#D0B9E7"/><stop offset="1" stop-color="#D0B9E7" stop-opacity=".47"/></radialGradient><radialGradient id="z" cx="0" cy="0" r="1" gradientUnits="userSpaceOnUse" gradientTransform="matrix(-61.38854 61.38854 -69.72525 -69.72525 63.677 79.551)"><stop stop-color="#D0B9E7"/><stop offset="1" stop-color="#D0B9E7" stop-opacity=".47"/></radialGradient><radialGradient id="A" cx="0" cy="0" r="1" gradientUnits="userSpaceOnUse" gradientTransform="matrix(-61.38854 61.38854 -69.72525 -69.72525 63.677 79.551)"><stop stop-color="#D0B9E7"/><stop offset="1" stop-color="#D0B9E7" stop-opacity=".47"/></radialGradient><radialGradient id="B" cx="0" cy="0" r="1" gradientUnits="userSpaceOnUse" gradientTransform="matrix(-61.38854 61.38854 -69.72525 -69.72525 63.677 79.551)"><stop stop-color="#D0B9E7"/><stop offset="1" stop-color="#D0B9E7" stop-opacity=".47"/></radialGradient><radialGradient id="C" cx="0" cy="0" r="1" gradientUnits="userSpaceOnUse" gradientTransform="matrix(-61.38854 61.38854 -69.72525 -69.72525 63.677 79.551)"><stop stop-color="#D0B9E7"/><stop offset="1" stop-color="#D0B9E7" stop-opacity=".47"/></radialGradient><radialGradient id="D" cx="0" cy="0" r="1" gradientUnits="userSpaceOnUse" gradientTransform="matrix(-61.38854 61.38854 -69.72525 -69.72525 63.677 79.551)"><stop stop-color="#D0B9E7"/><stop offset="1" stop-color="#D0B9E7" stop-opacity=".47"/></radialGradient><radialGradient id="E" cx="0" cy="0" r="1" gradientUnits="userSpaceOnUse" gradientTransform="matrix(-61.38854 61.38854 -69.72525 -69.72525 63.677 79.551)"><stop stop-color="#D0B9E7"/><stop offset="1" stop-color="#D0B9E7" stop-opacity=".47"/></radialGradient><radialGradient id="F" cx="0" cy="0" r="1" gradientUnits="userSpaceOnUse" gradientTransform="matrix(-61.38854 61.38854 -69.72525 -69.72525 63.677 79.551)"><stop stop-color="#D0B9E7"/><stop offset="1" stop-color="#D0B9E7" stop-opacity=".47"/></radialGradient><radialGradient id="G" cx="0" cy="0" r="1" gradientUnits="userSpaceOnUse" gradientTransform="matrix(-61.38854 61.38854 -69.72525 -69.72525 63.677 79.551)"><stop stop-color="#D0B9E7"/><stop offset="1" stop-color="#D0B9E7" stop-opacity=".47"/></radialGradient><radialGradient id="H" cx="0" cy="0" r="1" gradientUnits="userSpaceOnUse" gradientTransform="matrix(-61.38854 61.38854 -69.72525 -69.72525 63.677 79.551)"><stop stop-color="#D0B9E7"/><stop offset="1" stop-color="#D0B9E7" stop-opacity=".47"/></radialGradient><radialGradient id="I" cx="0" cy="0" r="1" gradientUnits="userSpaceOnUse" gradientTransform="matrix(-61.38854 61.38854 -69.72525 -69.72525 63.677 79.551)"><stop stop-color="#D0B9E7"/><stop offset="1" stop-color="#D0B9E7" stop-opacity=".47"/></radialGradient><radialGradient id="J" cx="0" cy="0" r="1" gradientUnits="userSpaceOnUse" gradientTransform="matrix(-61.38854 61.38854 -69.72525 -69.72525 63.677 79.551)"><stop stop-color="#D0B9E7"/><stop offset="1" stop-color="#D0B9E7" stop-opacity=".47"/></radialGradient><radialGradient id="K" cx="0" cy="0" r="1" gradientUnits="userSpaceOnUse" gradientTransform="matrix(-61.38854 61.38854 -69.72525 -69.72525 63.677 79.551)"><stop stop-color="#D0B9E7"/><stop offset="1" stop-color="#D0B9E7" stop-opacity=".47"/></radialGradient><radialGradient id="L" cx="0" cy="0" r="1" gradientUnits="userSpaceOnUse" gradientTransform="matrix(-61.38854 61.38854 -69.72525 -69.72525 63.677 79.551)"><stop stop-color="#D0B9E7"/><stop offset="1" stop-color="#D0B9E7" stop-opacity=".47"/></radialGradient><radialGradient id="M" cx="0" cy="0" r="1" gradientUnits="userSpaceOnUse" gradientTransform="matrix(-61.38854 61.38854 -69.72525 -69.72525 63.677 79.551)"><stop stop-color="#D0B9E7"/><stop offset="1" stop-color="#D0B9E7" stop-opacity=".47"/></radialGradient><radialGradient id="N" cx="0" cy="0" r="1" gradientUnits="userSpaceOnUse" gradientTransform="matrix(-61.38854 61.38854 -69.72525 -69.72525 63.677 79.551)"><stop stop-color="#D0B9E7"/><stop offset="1" stop-color="#D0B9E7" stop-opacity=".47"/></radialGradient><radialGradient id="O" cx="0" cy="0" r="1" gradientUnits="userSpaceOnUse" gradientTransform="matrix(-61.38854 61.38854 -69.72525 -69.72525 63.677 79.551)"><stop stop-color="#D0B9E7"/><stop offset="1" stop-color="#D0B9E7" stop-opacity=".47"/></radialGradient><radialGradient id="P" cx="0" cy="0" r="1" gradientUnits="userSpaceOnUse" gradientTransform="matrix(-61.38854 61.38854 -69.72525 -69.72525 63.677 79.551)"><stop stop-color="#D0B9E7"/><stop offset="1" stop-color="#D0B9E7" stop-opacity=".47"/></radialGradient><radialGradient id="Q" cx="0" cy="0" r="1" gradientUnits="userSpaceOnUse" gradientTransform="matrix(-61.38854 61.38854 -69.72525 -69.72525 63.677 79.551)"><stop stop-color="#D0B9E7"/><stop offset="1" stop-color="#D0B9E7" stop-opacity=".47"/></radialGradient><radialGradient id="R" cx="0" cy="0" r="1" gradientUnits="userSpaceOnUse" gradientTransform="matrix(-61.38854 61.38854 -69.72525 -69.72525 63.677 79.551)"><stop stop-color="#D0B9E7"/><stop offset="1" stop-color="#D0B9E7" stop-opacity=".47"/></radialGradient><radialGradient id="S" cx="0" cy="0" r="1" gradientUnits="userSpaceOnUse" gradientTransform="matrix(-61.38854 61.38854 -69.72525 -69.72525 63.677 79.551)"><stop stop-color="#D0B9E7"/><stop offset="1" stop-color="#D0B9E7" stop-opacity=".47"/></radialGradient></defs></svg>