<svg width="156" height="156" viewBox="0 0 156 156" fill="none" xmlns="http://www.w3.org/2000/svg"><g opacity=".6"><mask id="a" style="mask-type:alpha" maskUnits="userSpaceOnUse" x="14" y="19" width="128" height="114"><path d="M32.637 34.872h90.422c1.056 0 2.111.067 3.159.201a18.66 18.66 0 0 0-7.598-12.527 18.652 18.652 0 0 0-14.304-3.172L29.953 32.069h-.085a18.65 18.65 0 0 0-11.605 7.384 24.745 24.745 0 0 1 14.374-4.58zM123.059 41.654H32.637a18.104 18.104 0 0 0-18.084 18.084v54.253a18.104 18.104 0 0 0 18.084 18.085h90.422a18.103 18.103 0 0 0 18.084-18.085V59.738a18.104 18.104 0 0 0-18.084-18.084zm-13.422 54.253a9.042 9.042 0 1 1-.001-18.084 9.042 9.042 0 0 1 .001 18.084z" fill="#000"/><path d="M14.694 78.812V50.696c0-6.123 3.39-16.389 15.16-18.613 9.989-1.873 19.878-1.873 19.878-1.873s6.5 4.521 1.13 4.521c-5.368 0-5.227 6.923 0 6.923 5.228 0 0 6.64 0 6.64l-21.05 23.877-15.118 6.64z" fill="#000"/></mask><g mask="url(#a)"><path d="M55.34-49.563l.879.88L-66.558 74.092l-.88-.878L55.34-49.563z" fill="url(#b)"/><path d="M126.237 21.335l.879.878L4.339 144.992l-.88-.879L126.238 21.335z" fill="url(#c)"/><path d="M90.788-14.114l.88.879L-31.11 109.542l-.879-.879L90.788-14.114z" fill="url(#d)"/><path d="M161.685 56.783l.879.879L39.787 180.439l-.879-.879L161.685 56.783z" fill="url(#e)"/><path d="M58.562-46.34l.88.879L-63.337 77.316l-.879-.879L58.562-46.34z" fill="url(#f)"/><path d="M129.46 24.557l.878.88L7.561 148.212l-.879-.879L129.46 24.557z" fill="url(#g)"/><path d="M94.011-10.891l.879.879-122.777 122.777-.88-.879L94.012-10.891z" fill="url(#h)"/><path d="M164.908 60.006l.879.879L43.01 183.662l-.879-.879L164.908 60.006z" fill="url(#i)"/><path d="M61.785-43.117l.879.879L-60.113 80.539l-.879-.88L61.785-43.116z" fill="url(#j)"/><path d="M132.682 27.78l.879.879L10.784 151.436l-.879-.879L132.682 27.78z" fill="url(#k)"/><path d="M97.234-7.669l.879.88-122.778 122.776-.879-.879L97.234-7.669z" fill="url(#l)"/><path d="M168.131 63.228l.879.88L46.233 186.883l-.88-.879L168.132 63.228z" fill="url(#m)"/><path d="M65.008-39.895l.879.88L-56.892 83.76l-.878-.879L65.008-39.895z" fill="url(#n)"/><path d="M135.905 31.002l.879.88L14.007 154.657l-.88-.879L135.906 31.002z" fill="url(#o)"/><path d="M100.456-4.446l.879.879L-21.442 119.21l-.879-.879L100.456-4.446z" fill="url(#p)"/><path d="M171.353 66.45l.879.88L49.455 190.107l-.879-.879L171.353 66.451z" fill="url(#q)"/><path d="M68.23-36.672l.88.879L-53.669 86.984l-.879-.88L68.23-36.671z" fill="url(#r)"/><path d="M139.127 34.225l.879.879L17.229 157.88l-.879-.879L139.127 34.225z" fill="url(#s)"/><path d="M103.679-1.224l.879.88-122.777 122.776-.88-.879L103.68-1.224z" fill="url(#t)"/><path d="M174.576 69.674l.879.878L52.678 193.33l-.88-.878L174.577 69.674z" fill="url(#u)"/><path d="M71.453-33.45l.879.88L-50.445 90.205l-.88-.879L71.454-33.448z" fill="url(#v)"/><path d="M142.35 37.448l.879.879L20.452 161.103l-.88-.879L142.35 37.448z" fill="url(#w)"/><path d="M106.901 1.999l.879.879-122.777 122.777-.879-.879L106.901 1.999z" fill="url(#x)"/><path d="M177.798 72.896l.879.879L55.9 196.552l-.879-.879L177.798 72.896z" fill="url(#y)"/><path d="M74.675-30.227l.88.879L-47.224 93.429l-.879-.879L74.675-30.227z" fill="url(#z)"/><path d="M145.573 40.67l.878.88L23.674 164.325l-.878-.879L145.572 40.67z" fill="url(#A)"/><path d="M110.124 5.222l.879.879-122.777 122.777-.88-.879L110.125 5.222z" fill="url(#B)"/><path d="M181.021 76.119l.879.879L59.123 199.775l-.879-.879L181.021 76.119z" fill="url(#C)"/><path d="M77.898-27.004l.879.879L-44 96.652l-.879-.88L77.898-27.003z" fill="url(#D)"/><path d="M148.795 43.893l.879.879L26.897 167.549l-.879-.879L148.795 43.893z" fill="url(#E)"/><path d="M113.347 8.444l.878.88L-8.552 132.1l-.879-.879L113.348 8.444z" fill="url(#F)"/><path d="M184.244 79.341l.879.88L62.346 202.996l-.88-.879L184.245 79.341z" fill="url(#G)"/><path d="M81.12-23.782l.88.88L-40.779 99.873l-.879-.879L81.121-23.782z" fill="url(#H)"/><path d="M152.018 47.115l.879.88L30.12 170.77l-.88-.879L152.019 47.115z" fill="url(#I)"/><path d="M116.569 11.667l.879.879L-5.329 135.323l-.879-.879L116.57 11.667z" fill="url(#J)"/><path d="M187.466 82.564l.879.879L65.568 206.22l-.879-.879L187.466 82.564z" fill="url(#K)"/><path d="M84.343-20.56l.88.88-122.778 122.777-.879-.879L84.343-20.559z" fill="url(#L)"/><path d="M155.24 50.338l.879.879L33.342 173.994l-.879-.879L155.24 50.338z" fill="url(#M)"/><path d="M119.792 14.89l.879.878L-2.106 138.545l-.88-.879L119.793 14.889z" fill="url(#N)"/><path d="M190.689 85.787l.879.878L68.791 209.442l-.88-.878L190.69 85.787z" fill="url(#O)"/><path d="M87.566-17.337l.879.88-122.777 122.776-.88-.878L87.567-17.337z" fill="url(#P)"/><path d="M158.463 53.56l.879.88L36.565 177.215l-.88-.878L158.464 53.56z" fill="url(#Q)"/><path d="M123.014 18.112l.879.879L1.116 141.768l-.879-.879L123.014 18.112z" fill="url(#R)"/><path d="M193.911 89.01l.879.878L72.013 212.665l-.879-.879L193.911 89.009z" fill="url(#S)"/></g></g><defs><radialGradient id="b" cx="0" cy="0" r="1" gradientUnits="userSpaceOnUse" gradientTransform="matrix(-61.38854 61.38854 -69.72525 -69.72525 63.677 81.551)"><stop stop-color="#D0B9E7"/><stop offset="1" stop-color="#D0B9E7" stop-opacity=".47"/></radialGradient><radialGradient id="c" cx="0" cy="0" r="1" gradientUnits="userSpaceOnUse" gradientTransform="matrix(-61.38854 61.38854 -69.72525 -69.72525 63.677 81.551)"><stop stop-color="#D0B9E7"/><stop offset="1" stop-color="#D0B9E7" stop-opacity=".47"/></radialGradient><radialGradient id="d" cx="0" cy="0" r="1" gradientUnits="userSpaceOnUse" gradientTransform="matrix(-61.38854 61.38854 -69.72525 -69.72525 63.677 81.551)"><stop stop-color="#D0B9E7"/><stop offset="1" stop-color="#D0B9E7" stop-opacity=".47"/></radialGradient><radialGradient id="e" cx="0" cy="0" r="1" gradientUnits="userSpaceOnUse" gradientTransform="matrix(-61.38854 61.38854 -69.72525 -69.72525 63.677 81.551)"><stop stop-color="#D0B9E7"/><stop offset="1" stop-color="#D0B9E7" stop-opacity=".47"/></radialGradient><radialGradient id="f" cx="0" cy="0" r="1" gradientUnits="userSpaceOnUse" gradientTransform="matrix(-61.38854 61.38854 -69.72525 -69.72525 63.677 81.551)"><stop stop-color="#D0B9E7"/><stop offset="1" stop-color="#D0B9E7" stop-opacity=".47"/></radialGradient><radialGradient id="g" cx="0" cy="0" r="1" gradientUnits="userSpaceOnUse" gradientTransform="matrix(-61.38854 61.38854 -69.72525 -69.72525 63.677 81.551)"><stop stop-color="#D0B9E7"/><stop offset="1" stop-color="#D0B9E7" stop-opacity=".47"/></radialGradient><radialGradient id="h" cx="0" cy="0" r="1" gradientUnits="userSpaceOnUse" gradientTransform="matrix(-61.38854 61.38854 -69.72525 -69.72525 63.677 81.551)"><stop stop-color="#D0B9E7"/><stop offset="1" stop-color="#D0B9E7" stop-opacity=".47"/></radialGradient><radialGradient id="i" cx="0" cy="0" r="1" gradientUnits="userSpaceOnUse" gradientTransform="matrix(-61.38854 61.38854 -69.72525 -69.72525 63.677 81.551)"><stop stop-color="#D0B9E7"/><stop offset="1" stop-color="#D0B9E7" stop-opacity=".47"/></radialGradient><radialGradient id="j" cx="0" cy="0" r="1" gradientUnits="userSpaceOnUse" gradientTransform="matrix(-61.38854 61.38854 -69.72525 -69.72525 63.677 81.551)"><stop stop-color="#D0B9E7"/><stop offset="1" stop-color="#D0B9E7" stop-opacity=".47"/></radialGradient><radialGradient id="k" cx="0" cy="0" r="1" gradientUnits="userSpaceOnUse" gradientTransform="matrix(-61.38854 61.38854 -69.72525 -69.72525 63.677 81.551)"><stop stop-color="#D0B9E7"/><stop offset="1" stop-color="#D0B9E7" stop-opacity=".47"/></radialGradient><radialGradient id="l" cx="0" cy="0" r="1" gradientUnits="userSpaceOnUse" gradientTransform="matrix(-61.38854 61.38854 -69.72525 -69.72525 63.677 81.551)"><stop stop-color="#D0B9E7"/><stop offset="1" stop-color="#D0B9E7" stop-opacity=".47"/></radialGradient><radialGradient id="m" cx="0" cy="0" r="1" gradientUnits="userSpaceOnUse" gradientTransform="matrix(-61.38854 61.38854 -69.72525 -69.72525 63.677 81.551)"><stop stop-color="#D0B9E7"/><stop offset="1" stop-color="#D0B9E7" stop-opacity=".47"/></radialGradient><radialGradient id="n" cx="0" cy="0" r="1" gradientUnits="userSpaceOnUse" gradientTransform="matrix(-61.38854 61.38854 -69.72525 -69.72525 63.677 81.551)"><stop stop-color="#D0B9E7"/><stop offset="1" stop-color="#D0B9E7" stop-opacity=".47"/></radialGradient><radialGradient id="o" cx="0" cy="0" r="1" gradientUnits="userSpaceOnUse" gradientTransform="matrix(-61.38854 61.38854 -69.72525 -69.72525 63.677 81.551)"><stop stop-color="#D0B9E7"/><stop offset="1" stop-color="#D0B9E7" stop-opacity=".47"/></radialGradient><radialGradient id="p" cx="0" cy="0" r="1" gradientUnits="userSpaceOnUse" gradientTransform="matrix(-61.38854 61.38854 -69.72525 -69.72525 63.677 81.551)"><stop stop-color="#D0B9E7"/><stop offset="1" stop-color="#D0B9E7" stop-opacity=".47"/></radialGradient><radialGradient id="q" cx="0" cy="0" r="1" gradientUnits="userSpaceOnUse" gradientTransform="matrix(-61.38854 61.38854 -69.72525 -69.72525 63.677 81.551)"><stop stop-color="#D0B9E7"/><stop offset="1" stop-color="#D0B9E7" stop-opacity=".47"/></radialGradient><radialGradient id="r" cx="0" cy="0" r="1" gradientUnits="userSpaceOnUse" gradientTransform="matrix(-61.38854 61.38854 -69.72525 -69.72525 63.677 81.551)"><stop stop-color="#D0B9E7"/><stop offset="1" stop-color="#D0B9E7" stop-opacity=".47"/></radialGradient><radialGradient id="s" cx="0" cy="0" r="1" gradientUnits="userSpaceOnUse" gradientTransform="matrix(-61.38854 61.38854 -69.72525 -69.72525 63.677 81.551)"><stop stop-color="#D0B9E7"/><stop offset="1" stop-color="#D0B9E7" stop-opacity=".47"/></radialGradient><radialGradient id="t" cx="0" cy="0" r="1" gradientUnits="userSpaceOnUse" gradientTransform="matrix(-61.38854 61.38854 -69.72525 -69.72525 63.677 81.551)"><stop stop-color="#D0B9E7"/><stop offset="1" stop-color="#D0B9E7" stop-opacity=".47"/></radialGradient><radialGradient id="u" cx="0" cy="0" r="1" gradientUnits="userSpaceOnUse" gradientTransform="matrix(-61.38854 61.38854 -69.72525 -69.72525 63.677 81.551)"><stop stop-color="#D0B9E7"/><stop offset="1" stop-color="#D0B9E7" stop-opacity=".47"/></radialGradient><radialGradient id="v" cx="0" cy="0" r="1" gradientUnits="userSpaceOnUse" gradientTransform="matrix(-61.38854 61.38854 -69.72525 -69.72525 63.677 81.551)"><stop stop-color="#D0B9E7"/><stop offset="1" stop-color="#D0B9E7" stop-opacity=".47"/></radialGradient><radialGradient id="w" cx="0" cy="0" r="1" gradientUnits="userSpaceOnUse" gradientTransform="matrix(-61.38854 61.38854 -69.72525 -69.72525 63.677 81.551)"><stop stop-color="#D0B9E7"/><stop offset="1" stop-color="#D0B9E7" stop-opacity=".47"/></radialGradient><radialGradient id="x" cx="0" cy="0" r="1" gradientUnits="userSpaceOnUse" gradientTransform="matrix(-61.38854 61.38854 -69.72525 -69.72525 63.677 81.551)"><stop stop-color="#D0B9E7"/><stop offset="1" stop-color="#D0B9E7" stop-opacity=".47"/></radialGradient><radialGradient id="y" cx="0" cy="0" r="1" gradientUnits="userSpaceOnUse" gradientTransform="matrix(-61.38854 61.38854 -69.72525 -69.72525 63.677 81.551)"><stop stop-color="#D0B9E7"/><stop offset="1" stop-color="#D0B9E7" stop-opacity=".47"/></radialGradient><radialGradient id="z" cx="0" cy="0" r="1" gradientUnits="userSpaceOnUse" gradientTransform="matrix(-61.38854 61.38854 -69.72525 -69.72525 63.677 81.551)"><stop stop-color="#D0B9E7"/><stop offset="1" stop-color="#D0B9E7" stop-opacity=".47"/></radialGradient><radialGradient id="A" cx="0" cy="0" r="1" gradientUnits="userSpaceOnUse" gradientTransform="matrix(-61.38854 61.38854 -69.72525 -69.72525 63.677 81.551)"><stop stop-color="#D0B9E7"/><stop offset="1" stop-color="#D0B9E7" stop-opacity=".47"/></radialGradient><radialGradient id="B" cx="0" cy="0" r="1" gradientUnits="userSpaceOnUse" gradientTransform="matrix(-61.38854 61.38854 -69.72525 -69.72525 63.677 81.551)"><stop stop-color="#D0B9E7"/><stop offset="1" stop-color="#D0B9E7" stop-opacity=".47"/></radialGradient><radialGradient id="C" cx="0" cy="0" r="1" gradientUnits="userSpaceOnUse" gradientTransform="matrix(-61.38854 61.38854 -69.72525 -69.72525 63.677 81.551)"><stop stop-color="#D0B9E7"/><stop offset="1" stop-color="#D0B9E7" stop-opacity=".47"/></radialGradient><radialGradient id="D" cx="0" cy="0" r="1" gradientUnits="userSpaceOnUse" gradientTransform="matrix(-61.38854 61.38854 -69.72525 -69.72525 63.677 81.551)"><stop stop-color="#D0B9E7"/><stop offset="1" stop-color="#D0B9E7" stop-opacity=".47"/></radialGradient><radialGradient id="E" cx="0" cy="0" r="1" gradientUnits="userSpaceOnUse" gradientTransform="matrix(-61.38854 61.38854 -69.72525 -69.72525 63.677 81.551)"><stop stop-color="#D0B9E7"/><stop offset="1" stop-color="#D0B9E7" stop-opacity=".47"/></radialGradient><radialGradient id="F" cx="0" cy="0" r="1" gradientUnits="userSpaceOnUse" gradientTransform="matrix(-61.38854 61.38854 -69.72525 -69.72525 63.677 81.551)"><stop stop-color="#D0B9E7"/><stop offset="1" stop-color="#D0B9E7" stop-opacity=".47"/></radialGradient><radialGradient id="G" cx="0" cy="0" r="1" gradientUnits="userSpaceOnUse" gradientTransform="matrix(-61.38854 61.38854 -69.72525 -69.72525 63.677 81.551)"><stop stop-color="#D0B9E7"/><stop offset="1" stop-color="#D0B9E7" stop-opacity=".47"/></radialGradient><radialGradient id="H" cx="0" cy="0" r="1" gradientUnits="userSpaceOnUse" gradientTransform="matrix(-61.38854 61.38854 -69.72525 -69.72525 63.677 81.551)"><stop stop-color="#D0B9E7"/><stop offset="1" stop-color="#D0B9E7" stop-opacity=".47"/></radialGradient><radialGradient id="I" cx="0" cy="0" r="1" gradientUnits="userSpaceOnUse" gradientTransform="matrix(-61.38854 61.38854 -69.72525 -69.72525 63.677 81.551)"><stop stop-color="#D0B9E7"/><stop offset="1" stop-color="#D0B9E7" stop-opacity=".47"/></radialGradient><radialGradient id="J" cx="0" cy="0" r="1" gradientUnits="userSpaceOnUse" gradientTransform="matrix(-61.38854 61.38854 -69.72525 -69.72525 63.677 81.551)"><stop stop-color="#D0B9E7"/><stop offset="1" stop-color="#D0B9E7" stop-opacity=".47"/></radialGradient><radialGradient id="K" cx="0" cy="0" r="1" gradientUnits="userSpaceOnUse" gradientTransform="matrix(-61.38854 61.38854 -69.72525 -69.72525 63.677 81.551)"><stop stop-color="#D0B9E7"/><stop offset="1" stop-color="#D0B9E7" stop-opacity=".47"/></radialGradient><radialGradient id="L" cx="0" cy="0" r="1" gradientUnits="userSpaceOnUse" gradientTransform="matrix(-61.38854 61.38854 -69.72525 -69.72525 63.677 81.551)"><stop stop-color="#D0B9E7"/><stop offset="1" stop-color="#D0B9E7" stop-opacity=".47"/></radialGradient><radialGradient id="M" cx="0" cy="0" r="1" gradientUnits="userSpaceOnUse" gradientTransform="matrix(-61.38854 61.38854 -69.72525 -69.72525 63.677 81.551)"><stop stop-color="#D0B9E7"/><stop offset="1" stop-color="#D0B9E7" stop-opacity=".47"/></radialGradient><radialGradient id="N" cx="0" cy="0" r="1" gradientUnits="userSpaceOnUse" gradientTransform="matrix(-61.38854 61.38854 -69.72525 -69.72525 63.677 81.551)"><stop stop-color="#D0B9E7"/><stop offset="1" stop-color="#D0B9E7" stop-opacity=".47"/></radialGradient><radialGradient id="O" cx="0" cy="0" r="1" gradientUnits="userSpaceOnUse" gradientTransform="matrix(-61.38854 61.38854 -69.72525 -69.72525 63.677 81.551)"><stop stop-color="#D0B9E7"/><stop offset="1" stop-color="#D0B9E7" stop-opacity=".47"/></radialGradient><radialGradient id="P" cx="0" cy="0" r="1" gradientUnits="userSpaceOnUse" gradientTransform="matrix(-61.38854 61.38854 -69.72525 -69.72525 63.677 81.551)"><stop stop-color="#D0B9E7"/><stop offset="1" stop-color="#D0B9E7" stop-opacity=".47"/></radialGradient><radialGradient id="Q" cx="0" cy="0" r="1" gradientUnits="userSpaceOnUse" gradientTransform="matrix(-61.38854 61.38854 -69.72525 -69.72525 63.677 81.551)"><stop stop-color="#D0B9E7"/><stop offset="1" stop-color="#D0B9E7" stop-opacity=".47"/></radialGradient><radialGradient id="R" cx="0" cy="0" r="1" gradientUnits="userSpaceOnUse" gradientTransform="matrix(-61.38854 61.38854 -69.72525 -69.72525 63.677 81.551)"><stop stop-color="#D0B9E7"/><stop offset="1" stop-color="#D0B9E7" stop-opacity=".47"/></radialGradient><radialGradient id="S" cx="0" cy="0" r="1" gradientUnits="userSpaceOnUse" gradientTransform="matrix(-61.38854 61.38854 -69.72525 -69.72525 63.677 81.551)"><stop stop-color="#D0B9E7"/><stop offset="1" stop-color="#D0B9E7" stop-opacity=".47"/></radialGradient></defs></svg>