<svg width="32" height="32" viewBox="0 0 32 32" fill="none" xmlns="http://www.w3.org/2000/svg"><rect width="32" height="32" rx="16" fill="#966CEE"/><path d="M14.582 9.113l-4.378 2.859a2.317 2.317 0 0 0 0 3.883l4.378 2.858c.786.517 2.08.517 2.866 0l4.356-2.858a2.317 2.317 0 0 0 0-3.876L17.448 9.12c-.785-.524-2.08-.524-2.866-.008z" stroke="#fff" stroke-width="1.455" stroke-linecap="round" stroke-linejoin="round"/><path d="M11.368 16.786l-.007 3.411c0 .924.713 1.913 1.585 2.204l2.32.77c.4.131 1.062.131 1.47 0l2.32-.77c.872-.291 1.585-1.28 1.585-2.204v-3.374M22.837 18.183v-4.364" stroke="#fff" stroke-width="1.455" stroke-linecap="round" stroke-linejoin="round"/></svg>