<svg width="24" height="24" viewBox="0 0 24 24" fill="none" xmlns="http://www.w3.org/2000/svg"><path d="M10.041 3.32c.7-1.76 3.218-1.76 3.918 0a2.118 2.118 0 0 0 2.793 1.157c1.74-.75 3.52 1.031 2.77 2.77a2.118 2.118 0 0 0 1.158 2.794c1.76.7 1.76 3.218 0 3.918a2.118 2.118 0 0 0-1.157 2.793c.75 1.74-1.031 3.52-2.77 2.77a2.118 2.118 0 0 0-2.794 1.158c-.7 1.76-3.218 1.76-3.918 0a2.118 2.118 0 0 0-2.793-1.157c-1.74.75-3.52-1.031-2.77-2.77a2.118 2.118 0 0 0-1.158-2.794c-1.76-.7-1.76-3.218 0-3.918a2.118 2.118 0 0 0 1.157-2.793c-.75-1.74 1.031-3.52 2.77-2.77a2.118 2.118 0 0 0 2.794-1.158z" stroke="#B298EE" stroke-width="2" stroke-linejoin="round"/><path d="M12 15a3 3 0 1 0 0-6 3 3 0 0 0 0 6z" stroke="#B298EE" stroke-width="2" stroke-linecap="round" stroke-linejoin="round"/></svg>