<svg width="24" height="24" viewBox="0 0 24 24" fill="none" xmlns="http://www.w3.org/2000/svg"><path d="M21 10.907l-8.983 8.472C10.917 20.417 9.424 21 7.868 21s-3.049-.583-4.15-1.62C2.619 18.34 2 16.932 2 15.465c0-1.468.618-2.876 1.719-3.913L12.7 3.08A4.035 4.035 0 0 1 15.468 2c1.037 0 2.032.389 2.766 1.08a3.586 3.586 0 0 1 1.146 2.61c0 .978-.412 1.916-1.146 2.608L9.24 16.77c-.367.346-.864.54-1.383.54a2.017 2.017 0 0 1-1.383-.54 1.793 1.793 0 0 1-.573-1.304c0-.49.206-.959.573-1.305l8.299-7.817" stroke="#D0C2DE" stroke-width="2" stroke-linecap="round" stroke-linejoin="round"/></svg>