<svg width="16" height="16" viewBox="0 0 16 16" fill="none" xmlns="http://www.w3.org/2000/svg"><path d="M9.108 10.738a.144.144 0 0 0-.202 0l-2.075 2.075c-.96.96-2.582 1.062-3.643 0-1.062-1.063-.96-2.682 0-3.643l2.075-2.075a.143.143 0 0 0 0-.202l-.71-.71a.143.143 0 0 0-.202 0L2.276 8.258a3.86 3.86 0 0 0 0 5.464 3.862 3.862 0 0 0 5.464 0l2.075-2.075a.143.143 0 0 0 0-.202l-.707-.707zm4.618-8.464a3.86 3.86 0 0 0-5.465 0L6.185 4.349a.143.143 0 0 0 0 .201l.708.71a.143.143 0 0 0 .202 0L9.17 3.183c.961-.96 2.582-1.062 3.643 0 1.063 1.063.96 2.683 0 3.643l-2.075 2.075a.143.143 0 0 0 0 .202l.71.71a.143.143 0 0 0 .203 0l2.075-2.074a3.866 3.866 0 0 0 0-5.466zm-3.974 3.23a.143.143 0 0 0-.201 0L5.506 9.547a.143.143 0 0 0 0 .202l.707.707a.143.143 0 0 0 .202 0l4.043-4.043a.143.143 0 0 0 0-.202l-.706-.707z" fill="#B298EE"/></svg>