<svg width="133" height="40" viewBox="0 0 133 40" fill="none" xmlns="http://www.w3.org/2000/svg"><path d="M13.454 38.9c2.051.712 4.254 1.1 6.546 1.1 11.046 0 20-8.996 20-20.093 0-8.466-5.213-15.71-12.59-18.668 1.431 3.423.755 7.314-1.874 10.949-3.97 5.492-10.03 9-15.693 11.142a51.284 51.284 0 0 1-8.967 2.476c1.58 5.18 4.04 8.197 9.649 7.577 3.718-.412 8.046-2.389 12.482-6.967l-2.439-1.942 11.477-4.838-2.159 12.258-2.227-1.774c-4.579 4.863-9.434 7.7-14.205 8.78z" fill="#6D32FF"/><path d="M16.758.077C7.254 1.634 0 9.92 0 19.907v.025a45.393 45.393 0 0 0 7.762-2.158c5.095-1.926 9.965-4.886 12.994-9.075 2.34-3.238 1.14-9.463-3.998-8.622z" fill="#6D32FF"/><path d="M63.832 25.736v2.904H52V11.6h11.616v2.904h-8.304v4.104h7.176v2.688h-7.176v4.44h8.52zM65.1 22.352c0-1.216.24-2.312.72-3.288.48-.992 1.144-1.776 1.992-2.352.848-.576 1.816-.864 2.904-.864.928 0 1.76.232 2.496.696.752.448 1.336 1.024 1.752 1.728V11.12h3.216v13.92c0 .336.056.576.168.72.112.144.304.232.576.264v2.616c-.56.112-1.016.168-1.368.168-.576 0-1.056-.144-1.44-.432a1.585 1.585 0 0 1-.624-1.128l-.048-.792a4.666 4.666 0 0 1-1.896 1.8 5.202 5.202 0 0 1-2.472.624 5.71 5.71 0 0 1-2.4-.504 5.997 5.997 0 0 1-1.896-1.392 6.716 6.716 0 0 1-1.248-2.064 7.525 7.525 0 0 1-.432-2.568zm9.864 1.68v-3a3.387 3.387 0 0 0-.768-1.248 4.058 4.058 0 0 0-1.176-.864 2.794 2.794 0 0 0-1.296-.336 2.87 2.87 0 0 0-1.344.312c-.4.208-.752.488-1.056.84-.288.352-.512.76-.672 1.224a4.911 4.911 0 0 0-.216 1.464c0 .512.08 1 .24 1.464a3.589 3.589 0 0 0 1.848 1.968c.432.192.896.288 1.392.288.304 0 .608-.048.912-.144.32-.112.616-.256.888-.432.288-.192.536-.416.744-.672.224-.272.392-.56.504-.864zM96.89 16.064h3.048L94.682 28.64h-2.688l-2.112-5.4-2.064 5.4h-2.712l-5.232-12.576h3.024l3.744 9.504 1.464-4.104-2.184-5.376h2.664l1.296 3.84 1.32-3.84h2.664l-2.184 5.376 1.488 4.104 3.72-9.504zM101.422 28.64V16.064h3.216V28.64h-3.216zm0-14.328V11.12h3.216v3.192h-3.216zM113.396 28.88c-1.024 0-1.944-.168-2.76-.504a6.244 6.244 0 0 1-2.088-1.44 6.976 6.976 0 0 1-1.344-2.112 6.778 6.778 0 0 1-.456-2.472c0-1.184.264-2.264.792-3.24a6.197 6.197 0 0 1 2.304-2.376c.992-.592 2.168-.888 3.528-.888 1.36 0 2.528.296 3.504.888.976.592 1.704 1.368 2.184 2.328l-3.144.96a2.738 2.738 0 0 0-1.08-1.056 2.946 2.946 0 0 0-1.488-.384c-.608 0-1.168.16-1.68.48-.496.304-.888.744-1.176 1.32-.288.56-.432 1.216-.432 1.968 0 .736.144 1.392.432 1.968.304.56.704 1.008 1.2 1.344a2.99 2.99 0 0 0 1.656.48c.384 0 .744-.064 1.08-.192.352-.128.664-.304.936-.528.272-.224.472-.48.6-.768l3.144.96a5.085 5.085 0 0 1-1.272 1.68 6.075 6.075 0 0 1-1.944 1.176c-.736.272-1.568.408-2.496.408zM120.222 24.92c0-.816.224-1.528.672-2.136.464-.624 1.104-1.104 1.92-1.44.816-.336 1.752-.504 2.808-.504.528 0 1.064.04 1.608.12a5.51 5.51 0 0 1 1.416.384v-.672c0-.8-.24-1.416-.72-1.848-.464-.432-1.16-.648-2.088-.648-.688 0-1.344.12-1.968.36-.624.24-1.28.592-1.968 1.056l-1.032-2.112c.832-.544 1.68-.952 2.544-1.224.88-.272 1.8-.408 2.76-.408 1.792 0 3.184.448 4.176 1.344 1.008.896 1.512 2.176 1.512 3.84v4.008c0 .336.056.576.168.72.128.144.328.232.6.264v2.616c-.288.048-.552.088-.792.12a4.164 4.164 0 0 1-.576.048c-.64 0-1.128-.144-1.464-.432a1.86 1.86 0 0 1-.6-1.056l-.072-.648a5.498 5.498 0 0 1-2.04 1.632 5.805 5.805 0 0 1-2.496.576c-.832 0-1.584-.168-2.256-.504a4.17 4.17 0 0 1-1.56-1.416 3.863 3.863 0 0 1-.552-2.04zm7.824.648a3.38 3.38 0 0 0 .432-.576c.112-.192.168-.368.168-.528v-1.272a5.96 5.96 0 0 0-1.248-.36 6.08 6.08 0 0 0-1.272-.144c-.832 0-1.52.184-2.064.552-.528.352-.792.824-.792 1.416 0 .32.088.624.264.912.176.288.432.52.768.696.336.176.736.264 1.2.264.48 0 .952-.088 1.416-.264.464-.192.84-.424 1.128-.696z" fill="#1B273A"/></svg>