<svg width="699" height="452" viewBox="0 0 699 452" fill="none" xmlns="http://www.w3.org/2000/svg"><ellipse opacity=".017" cx="819.27" cy="368.321" rx="116.07" ry="957.578" transform="rotate(140 819.27 368.321)" stroke="url(#a)" stroke-width="2"/><ellipse opacity=".034" cx="819.271" cy="368.321" rx="116.07" ry="943.069" transform="rotate(150 819.271 368.321)" stroke="url(#b)" stroke-width="2"/><ellipse opacity=".051" cx="819.27" cy="368.32" rx="116.07" ry="928.561" transform="rotate(160 819.27 368.32)" stroke="url(#c)" stroke-width="2"/><ellipse opacity=".068" cx="819.27" cy="368.32" rx="116.07" ry="914.052" transform="rotate(170 819.27 368.32)" stroke="url(#d)" stroke-width="2"/><ellipse opacity=".102" cx="819.27" cy="368.322" rx="116.07" ry="885.034" transform="rotate(-170 819.27 368.322)" stroke="url(#e)" stroke-width="2"/><ellipse opacity=".119" cx="819.261" cy="368.312" rx="116.07" ry="870.526" transform="rotate(-160 819.261 368.312)" stroke="url(#f)" stroke-width="2"/><ellipse opacity=".136" cx="819.262" cy="368.312" rx="116.07" ry="856.017" transform="rotate(-150 819.262 368.312)" stroke="url(#g)" stroke-width="2"/><ellipse opacity=".153" cx="819.262" cy="368.312" rx="116.07" ry="841.508" transform="rotate(-140 819.262 368.312)" stroke="url(#h)" stroke-width="2"/><ellipse opacity=".169" cx="819.261" cy="368.311" rx="116.07" ry="826.999" transform="rotate(-130 819.261 368.311)" stroke="url(#i)" stroke-width="2"/><ellipse opacity=".186" cx="819.261" cy="368.311" rx="116.07" ry="812.491" transform="rotate(-120 819.261 368.311)" stroke="url(#j)" stroke-width="2"/><ellipse opacity=".203" cx="819.263" cy="368.313" rx="116.07" ry="797.982" transform="rotate(-110 819.263 368.313)" stroke="url(#k)" stroke-width="2"/><ellipse opacity=".22" cx="819.262" cy="368.313" rx="116.07" ry="783.473" transform="rotate(-100 819.262 368.313)" stroke="url(#l)" stroke-width="2"/><ellipse opacity=".237" cx="819.261" cy="368.313" rx="116.07" ry="768.964" transform="rotate(-90 819.261 368.313)" stroke="url(#m)" stroke-width="2"/><ellipse opacity=".254" cx="819.261" cy="368.312" rx="116.07" ry="754.456" transform="rotate(-80 819.261 368.312)" stroke="url(#n)" stroke-width="2"/><ellipse opacity=".271" cx="819.261" cy="368.311" rx="116.07" ry="739.947" transform="rotate(-70 819.261 368.311)" stroke="url(#o)" stroke-width="2"/><ellipse opacity=".288" cx="819.26" cy="368.315" rx="116.07" ry="725.438" transform="rotate(-60 819.26 368.315)" stroke="url(#p)" stroke-width="2"/><ellipse opacity=".305" cx="819.261" cy="368.314" rx="116.07" ry="710.929" transform="rotate(-50 819.261 368.314)" stroke="url(#q)" stroke-width="2"/><ellipse opacity=".322" cx="819.261" cy="368.314" rx="116.07" ry="696.42" transform="rotate(-40 819.261 368.314)" stroke="url(#r)" stroke-width="2"/><ellipse opacity=".339" cx="819.262" cy="368.317" rx="116.07" ry="681.912" transform="rotate(-30 819.262 368.317)" stroke="url(#s)" stroke-width="2"/><ellipse opacity=".356" cx="819.261" cy="368.317" rx="116.07" ry="667.403" transform="rotate(-20 819.261 368.317)" stroke="url(#t)" stroke-width="2"/><ellipse opacity=".373" cx="819.263" cy="368.316" rx="116.07" ry="652.894" transform="rotate(-10 819.263 368.316)" stroke="url(#u)" stroke-width="2"/><ellipse opacity=".407" cx="819.271" cy="368.32" rx="116.07" ry="623.877" transform="rotate(10 819.271 368.32)" stroke="url(#v)" stroke-width="2"/><ellipse opacity=".424" cx="819.269" cy="368.319" rx="116.07" ry="609.368" transform="rotate(20 819.269 368.319)" stroke="url(#w)" stroke-width="2"/><ellipse opacity=".441" cx="819.27" cy="368.321" rx="116.07" ry="594.859" transform="rotate(30 819.27 368.321)" stroke="url(#x)" stroke-width="2"/><ellipse opacity=".458" cx="819.272" cy="368.321" rx="116.07" ry="580.35" transform="rotate(40 819.272 368.321)" stroke="url(#y)" stroke-width="2"/><ellipse opacity=".475" cx="819.272" cy="368.324" rx="116.07" ry="565.842" transform="rotate(50 819.272 368.324)" stroke="url(#z)" stroke-width="2"/><ellipse opacity=".492" cx="819.272" cy="368.323" rx="116.07" ry="551.333" transform="rotate(60 819.272 368.323)" stroke="url(#A)" stroke-width="2"/><ellipse opacity=".508" cx="819.271" cy="368.321" rx="116.07" ry="536.824" transform="rotate(70 819.271 368.321)" stroke="url(#B)" stroke-width="2"/><ellipse opacity=".525" cx="819.271" cy="368.322" rx="116.07" ry="522.315" transform="rotate(80 819.271 368.322)" stroke="url(#C)" stroke-width="2"/><ellipse opacity=".542" cx="819.271" cy="368.32" rx="116.07" ry="507.807" transform="rotate(90 819.271 368.32)" stroke="url(#D)" stroke-width="2"/><ellipse opacity=".559" cx="819.272" cy="368.324" rx="116.07" ry="493.298" transform="rotate(100 819.272 368.324)" stroke="url(#E)" stroke-width="2"/><ellipse opacity=".576" cx="819.27" cy="368.321" rx="116.07" ry="478.789" transform="rotate(110 819.27 368.321)" stroke="url(#F)" stroke-width="2"/><ellipse opacity=".593" cx="819.271" cy="368.321" rx="116.07" ry="464.28" transform="rotate(120 819.271 368.321)" stroke="url(#G)" stroke-width="2"/><ellipse opacity=".61" cx="819.271" cy="368.321" rx="116.07" ry="449.772" transform="rotate(130 819.271 368.321)" stroke="url(#H)" stroke-width="2"/><ellipse opacity=".627" cx="819.27" cy="368.32" rx="116.07" ry="435.263" transform="rotate(140 819.27 368.32)" stroke="url(#I)" stroke-width="2"/><ellipse opacity=".644" cx="819.27" cy="368.323" rx="116.07" ry="420.754" transform="rotate(150 819.27 368.323)" stroke="url(#J)" stroke-width="2"/><ellipse opacity=".661" cx="819.272" cy="368.32" rx="116.07" ry="406.245" transform="rotate(160 819.272 368.32)" stroke="url(#K)" stroke-width="2"/><ellipse opacity=".678" cx="819.27" cy="368.323" rx="116.07" ry="391.737" transform="rotate(170 819.27 368.323)" stroke="url(#L)" stroke-width="2"/><ellipse opacity=".712" cx="819.27" cy="368.32" rx="116.07" ry="362.719" transform="rotate(-170 819.27 368.32)" stroke="url(#M)" stroke-width="2"/><ellipse opacity=".729" cx="819.268" cy="368.32" rx="116.07" ry="348.21" transform="rotate(-160 819.268 368.32)" stroke="url(#N)" stroke-width="2"/><ellipse opacity=".746" cx="819.271" cy="368.321" rx="116.07" ry="333.701" transform="rotate(-150 819.271 368.321)" stroke="url(#O)" stroke-width="2"/><ellipse opacity=".763" cx="819.261" cy="368.313" rx="116.07" ry="319.193" transform="rotate(-140 819.261 368.313)" stroke="url(#P)" stroke-width="2"/><ellipse opacity=".78" cx="819.262" cy="368.312" rx="116.07" ry="304.684" transform="rotate(-130 819.262 368.312)" stroke="url(#Q)" stroke-width="2"/><ellipse opacity=".797" cx="819.263" cy="368.311" rx="116.07" ry="290.175" transform="rotate(-120 819.263 368.311)" stroke="url(#R)" stroke-width="2"/><ellipse opacity=".814" cx="819.263" cy="368.31" rx="116.07" ry="275.666" transform="rotate(-110 819.263 368.31)" stroke="url(#S)" stroke-width="2"/><ellipse opacity=".831" cx="819.264" cy="368.312" rx="116.07" ry="261.158" transform="rotate(-100 819.264 368.312)" stroke="url(#T)" stroke-width="2"/><ellipse opacity=".847" cx="819.263" cy="368.313" rx="116.07" ry="246.649" transform="rotate(-90 819.263 368.313)" stroke="url(#U)" stroke-width="2"/><ellipse opacity=".864" cx="819.263" cy="368.311" rx="116.07" ry="232.14" transform="rotate(-80 819.263 368.311)" stroke="url(#V)" stroke-width="2"/><ellipse opacity=".881" cx="819.263" cy="368.313" rx="116.07" ry="217.631" transform="rotate(-70 819.263 368.313)" stroke="url(#W)" stroke-width="2"/><ellipse opacity=".898" cx="819.262" cy="368.311" rx="116.07" ry="203.123" transform="rotate(-60 819.262 368.311)" stroke="url(#X)" stroke-width="2"/><ellipse opacity=".915" cx="819.263" cy="368.314" rx="116.07" ry="188.614" transform="rotate(-50 819.263 368.314)" stroke="url(#Y)" stroke-width="2"/><ellipse opacity=".932" cx="819.263" cy="368.313" rx="116.07" ry="174.105" transform="rotate(-40 819.263 368.313)" stroke="url(#Z)" stroke-width="2"/><ellipse opacity=".949" cx="819.263" cy="368.31" rx="116.07" ry="159.596" transform="rotate(-30 819.263 368.31)" stroke="url(#aa)" stroke-width="2"/><ellipse opacity=".966" cx="819.262" cy="368.313" rx="116.07" ry="145.088" transform="rotate(-20 819.262 368.313)" stroke="url(#ab)" stroke-width="2"/><ellipse opacity=".983" cx="819.262" cy="368.313" rx="116.07" ry="130.579" transform="rotate(-10 819.262 368.313)" stroke="url(#ac)" stroke-width="2"/><defs><linearGradient id="a" x1="819.27" y1="-589.257" x2="819.27" y2="1397.72" gradientUnits="userSpaceOnUse"><stop stop-color="#775CB0"/><stop offset="1" stop-color="#7158B9"/></linearGradient><linearGradient id="b" x1="819.271" y1="-574.749" x2="819.271" y2="1382.12" gradientUnits="userSpaceOnUse"><stop stop-color="#775CB0"/><stop offset="1" stop-color="#7158B9"/></linearGradient><linearGradient id="c" x1="819.27" y1="-560.24" x2="819.27" y2="1366.52" gradientUnits="userSpaceOnUse"><stop stop-color="#775CB0"/><stop offset="1" stop-color="#7158B9"/></linearGradient><linearGradient id="d" x1="819.27" y1="-545.732" x2="819.27" y2="1350.93" gradientUnits="userSpaceOnUse"><stop stop-color="#775CB0"/><stop offset="1" stop-color="#7158B9"/></linearGradient><linearGradient id="e" x1="819.27" y1="-516.712" x2="819.271" y2="1319.73" gradientUnits="userSpaceOnUse"><stop stop-color="#775CB0"/><stop offset="1" stop-color="#7158B9"/></linearGradient><linearGradient id="f" x1="819.261" y1="-502.213" x2="819.261" y2="1304.13" gradientUnits="userSpaceOnUse"><stop stop-color="#775CB0"/><stop offset="1" stop-color="#7158B9"/></linearGradient><linearGradient id="g" x1="819.262" y1="-487.705" x2="819.262" y2="1288.53" gradientUnits="userSpaceOnUse"><stop stop-color="#775CB0"/><stop offset="1" stop-color="#7158B9"/></linearGradient><linearGradient id="h" x1="819.262" y1="-473.196" x2="819.262" y2="1272.93" gradientUnits="userSpaceOnUse"><stop stop-color="#775CB0"/><stop offset="1" stop-color="#7158B9"/></linearGradient><linearGradient id="i" x1="819.261" y1="-458.689" x2="819.262" y2="1257.34" gradientUnits="userSpaceOnUse"><stop stop-color="#775CB0"/><stop offset="1" stop-color="#7158B9"/></linearGradient><linearGradient id="j" x1="819.261" y1="-444.179" x2="819.261" y2="1241.74" gradientUnits="userSpaceOnUse"><stop stop-color="#775CB0"/><stop offset="1" stop-color="#7158B9"/></linearGradient><linearGradient id="k" x1="819.263" y1="-429.669" x2="819.263" y2="1226.14" gradientUnits="userSpaceOnUse"><stop stop-color="#775CB0"/><stop offset="1" stop-color="#7158B9"/></linearGradient><linearGradient id="l" x1="819.262" y1="-415.16" x2="819.262" y2="1210.55" gradientUnits="userSpaceOnUse"><stop stop-color="#775CB0"/><stop offset="1" stop-color="#7158B9"/></linearGradient><linearGradient id="m" x1="819.261" y1="-400.652" x2="819.261" y2="1194.95" gradientUnits="userSpaceOnUse"><stop stop-color="#775CB0"/><stop offset="1" stop-color="#7158B9"/></linearGradient><linearGradient id="n" x1="819.261" y1="-386.143" x2="819.262" y2="1179.35" gradientUnits="userSpaceOnUse"><stop stop-color="#775CB0"/><stop offset="1" stop-color="#7158B9"/></linearGradient><linearGradient id="o" x1="819.261" y1="-371.636" x2="819.261" y2="1163.75" gradientUnits="userSpaceOnUse"><stop stop-color="#775CB0"/><stop offset="1" stop-color="#7158B9"/></linearGradient><linearGradient id="p" x1="819.26" y1="-357.123" x2="819.261" y2="1148.16" gradientUnits="userSpaceOnUse"><stop stop-color="#775CB0"/><stop offset="1" stop-color="#7158B9"/></linearGradient><linearGradient id="q" x1="819.261" y1="-342.616" x2="819.261" y2="1132.56" gradientUnits="userSpaceOnUse"><stop stop-color="#775CB0"/><stop offset="1" stop-color="#7158B9"/></linearGradient><linearGradient id="r" x1="819.261" y1="-328.106" x2="819.261" y2="1116.97" gradientUnits="userSpaceOnUse"><stop stop-color="#775CB0"/><stop offset="1" stop-color="#7158B9"/></linearGradient><linearGradient id="s" x1="819.262" y1="-313.595" x2="819.262" y2="1101.37" gradientUnits="userSpaceOnUse"><stop stop-color="#775CB0"/><stop offset="1" stop-color="#7158B9"/></linearGradient><linearGradient id="t" x1="819.261" y1="-299.086" x2="819.261" y2="1085.77" gradientUnits="userSpaceOnUse"><stop stop-color="#775CB0"/><stop offset="1" stop-color="#7158B9"/></linearGradient><linearGradient id="u" x1="819.263" y1="-284.578" x2="819.263" y2="1070.18" gradientUnits="userSpaceOnUse"><stop stop-color="#775CB0"/><stop offset="1" stop-color="#7158B9"/></linearGradient><linearGradient id="v" x1="819.272" y1="-255.557" x2="819.272" y2="1038.99" gradientUnits="userSpaceOnUse"><stop stop-color="#775CB0"/><stop offset="1" stop-color="#7158B9"/></linearGradient><linearGradient id="w" x1="819.269" y1="-241.049" x2="819.27" y2="1023.39" gradientUnits="userSpaceOnUse"><stop stop-color="#775CB0"/><stop offset="1" stop-color="#7158B9"/></linearGradient><linearGradient id="x" x1="819.27" y1="-226.538" x2="819.27" y2="1007.79" gradientUnits="userSpaceOnUse"><stop stop-color="#775CB0"/><stop offset="1" stop-color="#7158B9"/></linearGradient><linearGradient id="y" x1="819.272" y1="-212.029" x2="819.272" y2="992.198" gradientUnits="userSpaceOnUse"><stop stop-color="#775CB0"/><stop offset="1" stop-color="#7158B9"/></linearGradient><linearGradient id="z" x1="819.272" y1="-197.517" x2="819.272" y2="976.604" gradientUnits="userSpaceOnUse"><stop stop-color="#775CB0"/><stop offset="1" stop-color="#7158B9"/></linearGradient><linearGradient id="A" x1="819.272" y1="-183.01" x2="819.272" y2="961.006" gradientUnits="userSpaceOnUse"><stop stop-color="#775CB0"/><stop offset="1" stop-color="#7158B9"/></linearGradient><linearGradient id="B" x1="819.271" y1="-168.503" x2="819.271" y2="945.407" gradientUnits="userSpaceOnUse"><stop stop-color="#775CB0"/><stop offset="1" stop-color="#7158B9"/></linearGradient><linearGradient id="C" x1="819.271" y1="-153.993" x2="819.271" y2="929.811" gradientUnits="userSpaceOnUse"><stop stop-color="#775CB0"/><stop offset="1" stop-color="#7158B9"/></linearGradient><linearGradient id="D" x1="819.271" y1="-139.487" x2="819.272" y2="914.212" gradientUnits="userSpaceOnUse"><stop stop-color="#775CB0"/><stop offset="1" stop-color="#7158B9"/></linearGradient><linearGradient id="E" x1="819.272" y1="-124.974" x2="819.272" y2="898.619" gradientUnits="userSpaceOnUse"><stop stop-color="#775CB0"/><stop offset="1" stop-color="#7158B9"/></linearGradient><linearGradient id="F" x1="819.27" y1="-110.469" x2="819.27" y2="883.019" gradientUnits="userSpaceOnUse"><stop stop-color="#775CB0"/><stop offset="1" stop-color="#7158B9"/></linearGradient><linearGradient id="G" x1="819.271" y1="-95.959" x2="819.271" y2="867.422" gradientUnits="userSpaceOnUse"><stop stop-color="#775CB0"/><stop offset="1" stop-color="#7158B9"/></linearGradient><linearGradient id="H" x1="819.271" y1="-81.451" x2="819.271" y2="851.825" gradientUnits="userSpaceOnUse"><stop stop-color="#775CB0"/><stop offset="1" stop-color="#7158B9"/></linearGradient><linearGradient id="I" x1="819.27" y1="-66.942" x2="819.271" y2="836.228" gradientUnits="userSpaceOnUse"><stop stop-color="#775CB0"/><stop offset="1" stop-color="#7158B9"/></linearGradient><linearGradient id="J" x1="819.27" y1="-52.431" x2="819.27" y2="820.634" gradientUnits="userSpaceOnUse"><stop stop-color="#775CB0"/><stop offset="1" stop-color="#7158B9"/></linearGradient><linearGradient id="K" x1="819.272" y1="-37.925" x2="819.272" y2="805.033" gradientUnits="userSpaceOnUse"><stop stop-color="#775CB0"/><stop offset="1" stop-color="#7158B9"/></linearGradient><linearGradient id="L" x1="819.27" y1="-23.413" x2="819.27" y2="789.44" gradientUnits="userSpaceOnUse"><stop stop-color="#775CB0"/><stop offset="1" stop-color="#7158B9"/></linearGradient><linearGradient id="M" x1="819.27" y1="5.601" x2="819.27" y2="758.243" gradientUnits="userSpaceOnUse"><stop stop-color="#775CB0"/><stop offset="1" stop-color="#7158B9"/></linearGradient><linearGradient id="N" x1="819.268" y1="20.109" x2="819.268" y2="742.646" gradientUnits="userSpaceOnUse"><stop stop-color="#775CB0"/><stop offset="1" stop-color="#7158B9"/></linearGradient><linearGradient id="O" x1="819.271" y1="34.619" x2="819.271" y2="727.05" gradientUnits="userSpaceOnUse"><stop stop-color="#775CB0"/><stop offset="1" stop-color="#7158B9"/></linearGradient><linearGradient id="P" x1="819.261" y1="49.121" x2="819.261" y2="711.445" gradientUnits="userSpaceOnUse"><stop stop-color="#775CB0"/><stop offset="1" stop-color="#7158B9"/></linearGradient><linearGradient id="Q" x1="819.262" y1="63.628" x2="819.262" y2="695.848" gradientUnits="userSpaceOnUse"><stop stop-color="#775CB0"/><stop offset="1" stop-color="#7158B9"/></linearGradient><linearGradient id="R" x1="819.263" y1="78.135" x2="819.263" y2="680.249" gradientUnits="userSpaceOnUse"><stop stop-color="#775CB0"/><stop offset="1" stop-color="#7158B9"/></linearGradient><linearGradient id="S" x1="819.263" y1="92.644" x2="819.263" y2="664.652" gradientUnits="userSpaceOnUse"><stop stop-color="#775CB0"/><stop offset="1" stop-color="#7158B9"/></linearGradient><linearGradient id="T" x1="819.264" y1="107.155" x2="819.264" y2="649.057" gradientUnits="userSpaceOnUse"><stop stop-color="#775CB0"/><stop offset="1" stop-color="#7158B9"/></linearGradient><linearGradient id="U" x1="819.263" y1="121.664" x2="819.263" y2="633.46" gradientUnits="userSpaceOnUse"><stop stop-color="#775CB0"/><stop offset="1" stop-color="#7158B9"/></linearGradient><linearGradient id="V" x1="819.263" y1="136.17" x2="819.263" y2="617.861" gradientUnits="userSpaceOnUse"><stop stop-color="#775CB0"/><stop offset="1" stop-color="#7158B9"/></linearGradient><linearGradient id="W" x1="819.264" y1="150.682" x2="819.264" y2="602.267" gradientUnits="userSpaceOnUse"><stop stop-color="#775CB0"/><stop offset="1" stop-color="#7158B9"/></linearGradient><linearGradient id="X" x1="819.262" y1="165.189" x2="819.262" y2="586.668" gradientUnits="userSpaceOnUse"><stop stop-color="#775CB0"/><stop offset="1" stop-color="#7158B9"/></linearGradient><linearGradient id="Y" x1="819.263" y1="179.7" x2="819.263" y2="571.074" gradientUnits="userSpaceOnUse"><stop stop-color="#775CB0"/><stop offset="1" stop-color="#7158B9"/></linearGradient><linearGradient id="Z" x1="819.263" y1="194.208" x2="819.263" y2="555.476" gradientUnits="userSpaceOnUse"><stop stop-color="#775CB0"/><stop offset="1" stop-color="#7158B9"/></linearGradient><linearGradient id="aa" x1="819.263" y1="208.714" x2="819.263" y2="539.876" gradientUnits="userSpaceOnUse"><stop stop-color="#775CB0"/><stop offset="1" stop-color="#7158B9"/></linearGradient><linearGradient id="ab" x1="819.262" y1="223.226" x2="819.262" y2="524.282" gradientUnits="userSpaceOnUse"><stop stop-color="#775CB0"/><stop offset="1" stop-color="#7158B9"/></linearGradient><linearGradient id="ac" x1="819.262" y1="237.734" x2="819.262" y2="508.685" gradientUnits="userSpaceOnUse"><stop stop-color="#775CB0"/><stop offset="1" stop-color="#7158B9"/></linearGradient></defs></svg>