<svg width="1072" height="350" viewBox="0 0 1072 350" fill="none" xmlns="http://www.w3.org/2000/svg"><g opacity=".1" stroke-width="2"><path opacity=".014" d="M1287.27 524.198l107.71-194.044a23.957 23.957 0 0 0 2.12-18.139L1309.34-.428a24.028 24.028 0 0 0-8.02-12.17l-219.34-177.399a24.014 24.014 0 0 0-24.86-3.265l-175.404 78.097a24 24 0 0 0-14.205 20.654l-14.937 281.708a24.008 24.008 0 0 0 3.682 14.098l173.464 274.291a23.982 23.982 0 0 0 14.9 10.56l216.28 49.792c10.42 2.399 21.17-2.389 26.37-11.74z" stroke="url(#a)"/><path opacity=".029" d="M1252.61 533.696l117.16-186.563a23.99 23.99 0 0 0 3.09-18.025l-70.48-313.673a24 24 0 0 0-7.39-12.606l-208.16-186.691a24.011 24.011 0 0 0-24.63-4.539l-178.151 68.386a24 24 0 0 0-15.262 19.851l-29.774 278.025a23.997 23.997 0 0 0 2.941 14.314l157.513 280.264a23.989 23.989 0 0 0 14.363 11.327l211.89 60.252c10.26 2.917 21.22-1.288 26.89-10.322z" stroke="url(#b)"/><path opacity=".043" d="M1217.88 542.089l126.11-178.632a24.047 24.047 0 0 0 4.05-17.859l-53.3-313.957a24.023 24.023 0 0 0-6.75-13.01l-196.61-195.304a23.996 23.996 0 0 0-24.33-5.798l-180.363 58.603a24.002 24.002 0 0 0-16.276 18.992l-44.265 273.569a24 24 0 0 0 2.188 14.492l141.418 285.327a23.999 23.999 0 0 0 13.777 12.064l207.021 70.394c10.07 3.425 21.2-.19 27.33-8.881z" stroke="url(#c)"/><path opacity=".058" d="M1183.13 549.386l134.55-170.281a24.003 24.003 0 0 0 5.01-17.641L1286.4 48.153a24.06 24.06 0 0 0-6.08-13.382l-184.74-203.225a23.996 23.996 0 0 0-23.97-7.039l-182.041 48.778a24.001 24.001 0 0 0-17.24 18.081l-58.371 268.366a24.003 24.003 0 0 0 1.424 14.63l125.227 289.48a23.996 23.996 0 0 0 13.159 12.772l201.662 80.194c9.86 3.92 21.12.902 27.7-7.422z" stroke="url(#d)"/><path opacity=".072" d="M1148.43 555.593l142.47-161.54a24.026 24.026 0 0 0 5.95-17.373l-19.5-311.751a23.987 23.987 0 0 0-5.39-13.72l-172.57-210.446a24.003 24.003 0 0 0-23.55-8.257l-183.191 38.939a24.001 24.001 0 0 0-18.154 17.121l-72.054 262.442a24.002 24.002 0 0 0 .652 14.728l108.991 292.729a24.002 24.002 0 0 0 12.505 13.449l195.851 89.628a24.005 24.005 0 0 0 27.99-5.949z" stroke="url(#e)"/><path opacity=".087" d="M1113.83 560.725l149.84-152.442a24.036 24.036 0 0 0 6.88-17.054l-2.96-309.3a24.014 24.014 0 0 0-4.69-14.025L1102.74-149.05a24.009 24.009 0 0 0-23.07-9.45l-183.812 29.113a24.001 24.001 0 0 0-19.014 16.115l-85.277 255.828a23.998 23.998 0 0 0-.127 14.787l92.761 295.078a24 24 0 0 0 11.816 14.092l189.613 98.679a24.008 24.008 0 0 0 28.2-4.466z" stroke="url(#f)"/><path opacity=".101" d="M1079.39 564.798l156.65-143.02a23.995 23.995 0 0 0 7.8-16.686l13.26-305.981a23.989 23.989 0 0 0-3.97-14.292L1105.59-137.93a24.011 24.011 0 0 0-22.52-10.616l-183.917 19.331a23.998 23.998 0 0 0-19.818 15.065l-98.007 248.557a24.004 24.004 0 0 0-.91 14.805l76.586 296.538a23.995 23.995 0 0 0 11.094 14.7l182.962 107.325a24.007 24.007 0 0 0 28.33-2.977z" stroke="url(#g)"/><path opacity=".116" d="M1045.16 567.832l162.9-133.307a24.016 24.016 0 0 0 8.69-16.268l29.12-301.82a23.979 23.979 0 0 0-3.23-14.524l-134.76-227.824a24.004 24.004 0 0 0-21.92-11.748l-183.494 9.617a24 24 0 0 0-20.565 13.974L771.692 126.594a24 24 0 0 0-1.696 14.782l60.513 297.122a23.993 23.993 0 0 0 10.342 15.271l175.939 115.55c8.77 5.758 20.26 5.156 28.37-1.487z" stroke="url(#h)"/><path opacity=".13" d="M1011.21 569.847l168.56-123.337a24.023 24.023 0 0 0 9.56-15.803l44.59-296.844a24.065 24.065 0 0 0-2.49-14.718l-121.85-232.178a24.004 24.004 0 0 0-21.25-12.847H905.753a24 24 0 0 0-21.251 12.847L762.648 119.145a23.997 23.997 0 0 0-2.483 14.718l44.589 296.844a24 24 0 0 0 9.561 15.803l168.553 123.337a23.993 23.993 0 0 0 28.342 0z" stroke="url(#i)"/><path opacity=".145" d="M977.584 570.87L1151.2 457.726a24.028 24.028 0 0 0 10.41-15.292l59.61-291.084a23.949 23.949 0 0 0-1.72-14.875L1110.64-99.337a24.01 24.01 0 0 0-20.54-13.907l-181.147-9.494a23.999 23.999 0 0 0-21.875 11.685L754.162 112.088a24 24 0 0 0-3.268 14.613l28.862 295.721a24 24 0 0 0 8.753 16.296L949.346 569.39a23.999 23.999 0 0 0 28.238 1.48z" stroke="url(#j)"/><path opacity=".159" d="M944.329 570.93l178.081-102.764a24.018 24.018 0 0 0 11.23-14.735l74.16-284.573c1.29-4.97.96-10.225-.96-14.992l-95.82-238.73a24.012 24.012 0 0 0-19.77-14.928l-179.234-18.839a24.003 24.003 0 0 0-22.436 10.493l-143.367 213.59a23.992 23.992 0 0 0-4.048 14.467l13.373 293.772a24 24 0 0 0 7.92 16.747l152.82 137.544a24 24 0 0 0 28.051 2.948z" stroke="url(#k)"/><path opacity=".174" d="M911.502 570.053l181.928-92.231a24 24 0 0 0 12.02-14.134l88.19-277.344a24.047 24.047 0 0 0-.17-15.071l-82.79-240.936a23.989 23.989 0 0 0-18.94-15.906l-176.845-28.009a23.998 23.998 0 0 0-22.931 9.273L738.778 99.257a24.008 24.008 0 0 0-4.823 14.28l-1.832 291.021a24.005 24.005 0 0 0 7.064 17.157l144.527 143.937a24.001 24.001 0 0 0 27.788 4.401z" stroke="url(#l)"/><path opacity=".188" d="M879.144 568.277l185.176-81.58a24.01 24.01 0 0 0 12.78-13.49l101.66-269.435a23.975 23.975 0 0 0 .61-15.11L1109.6-53.777a23.995 23.995 0 0 0-18.07-16.837l-173.995-36.983a23.998 23.998 0 0 0-23.36 8.03l-162.35 193.1a24.003 24.003 0 0 0-5.59 14.051l-16.713 287.492a24 24 0 0 0 6.187 17.521l135.986 149.845a24 24 0 0 0 27.449 5.835z" stroke="url(#m)"/><path opacity=".203" d="M847.299 565.633l187.811-70.845a23.979 23.979 0 0 0 13.5-12.806L1163.17 221.1a23.989 23.989 0 0 0 1.4-15.11l-56.84-243.246a23.995 23.995 0 0 0-17.16-17.722l-170.681-45.735a24 24 0 0 0-23.721 6.768L725.325 88.297a24.003 24.003 0 0 0-6.346 13.784l-31.231 283.209a23.997 23.997 0 0 0 5.292 17.842l127.225 155.258a23.999 23.999 0 0 0 27.034 7.244z" stroke="url(#n)"/><path opacity=".217" d="M816.017 562.161l189.833-60.062a24.013 24.013 0 0 0 14.19-12.083l126.84-251.725a24.007 24.007 0 0 0 2.18-15.069l-44-243.372a24.003 24.003 0 0 0-16.2-18.555L921.916-92.948a24 24 0 0 0-24.013 5.489L719.257 83.57a23.996 23.996 0 0 0-7.091 13.474l-45.348 278.202a24 24 0 0 0 4.381 18.118l118.271 160.17a24 24 0 0 0 26.547 8.626z" stroke="url(#o)"/><path opacity=".232" d="M785.327 557.898l191.24-49.264a23.999 23.999 0 0 0 14.844-11.322l138.469-242.006a24.044 24.044 0 0 0 2.98-14.988L1101.55-2.509a24.012 24.012 0 0 0-15.2-19.337L923.562-84.332a24 24 0 0 0-24.236 4.197L713.578 79.373a23.997 23.997 0 0 0-7.821 13.127l-59.029 272.502a24 24 0 0 0 3.456 18.346l109.155 164.576a23.998 23.998 0 0 0 25.988 9.975z" stroke="url(#p)"/><path opacity=".246" d="M755.276 552.888l192.047-38.487a24 24 0 0 0 15.454-10.526L1112.22 272.11a24.08 24.08 0 0 0 3.76-14.867l-18.8-241.627a24 24 0 0 0-14.16-20.064L924.796-74.894a23.999 23.999 0 0 0-24.389 2.898L708.269 75.72a23.996 23.996 0 0 0-8.534 12.74l-72.239 266.138a23.997 23.997 0 0 0 2.518 18.528l99.903 168.471a23.998 23.998 0 0 0 25.359 11.291z" stroke="url(#q)"/><path opacity=".261" d="M725.893 547.173l192.253-27.763a23.999 23.999 0 0 0 16.023-9.697l159.721-221.047a23.99 23.99 0 0 0 4.54-14.705l-6.49-239.79a23.987 23.987 0 0 0-13.09-20.735l-153.28-78.1a24 24 0 0 0-24.472 1.594L703.292 72.628a24 24 0 0 0-9.23 12.315l-84.948 259.146a24 24 0 0 0 1.573 18.663l90.543 171.854a23.998 23.998 0 0 0 24.663 12.567z" stroke="url(#r)"/><path opacity=".275" d="M697.211 540.795l191.868-17.124a24.002 24.002 0 0 0 16.548-8.838l169.293-209.894a23.973 23.973 0 0 0 5.31-14.503l5.58-237.334a23.99 23.99 0 0 0-11.99-21.349l-147.972-85.43a24 24 0 0 0-24.485.287L698.614 70.108a24 24 0 0 0-9.904 11.852l-97.126 251.561a24.006 24.006 0 0 0 .62 18.749l81.104 174.725a24 24 0 0 0 23.903 13.8z" stroke="url(#s)"/><path opacity=".29" d="M669.259 533.803l190.902-6.605a24.004 24.004 0 0 0 17.026-7.949l178.143-198.351a24.038 24.038 0 0 0 6.08-14.262l17.37-234.28a24.015 24.015 0 0 0-10.87-21.902L925.593-41.969a24 24 0 0 0-24.427-1.015L694.206 68.173a24.001 24.001 0 0 0-10.557 11.354L574.903 322.943a23.999 23.999 0 0 0-.337 18.787l71.613 177.085a24 24 0 0 0 23.08 14.988z" stroke="url(#t)"/><path opacity=".304" d="M642.064 526.241l189.366 3.765a24 24 0 0 0 17.458-7.035l186.242-186.464a23.983 23.983 0 0 0 6.84-13.981l28.86-230.647a24.022 24.022 0 0 0-9.71-22.396l-136.345-99.06a24 24 0 0 0-24.3-2.312l-210.441 98.72a24.007 24.007 0 0 0-11.185 10.82L559.065 312.403a24 24 0 0 0-1.295 18.777l62.097 178.935a24 24 0 0 0 22.197 16.126z" stroke="url(#u)"/><path opacity=".319" d="M615.644 518.16l187.274 13.953a23.995 23.995 0 0 0 17.84-6.096L1014.36 351.74a23.99 23.99 0 0 0 7.58-13.662l40.01-226.46a23.98 23.98 0 0 0-8.53-22.828L923.355-16.538a24 24 0 0 0-24.103-3.598L686.06 66.091a24.002 24.002 0 0 0-11.787 10.252L544.056 301.948a24.003 24.003 0 0 0-2.254 18.718l52.585 180.281a24 24 0 0 0 21.257 17.213z" stroke="url(#v)"/><path opacity=".333" d="M590.024 509.608l184.639 23.932a24 24 0 0 0 18.173-5.137l200.197-161.838a23.997 23.997 0 0 0 8.307-13.302l50.82-221.745a23.995 23.995 0 0 0-7.33-23.197L921.31-2.893a24 24 0 0 0-23.837-4.87L682.255 65.96a24.003 24.003 0 0 0-12.361 9.65L529.869 291.628a23.997 23.997 0 0 0-3.209 18.61l43.101 181.126a24 24 0 0 0 20.263 18.245z" stroke="url(#w)"/><path opacity=".348" d="M565.224 500.632l181.478 33.672a24.002 24.002 0 0 0 18.455-4.158l206.025-149.192a23.994 23.994 0 0 0 9.018-12.906l61.24-216.525a23.983 23.983 0 0 0-6.12-23.503L918.616 11.316a24 24 0 0 0-23.503-6.124L678.588 66.437a24.003 24.003 0 0 0-12.906 9.017L516.491 281.48a23.996 23.996 0 0 0-4.159 18.454l33.673 181.479a24 24 0 0 0 19.219 19.219z" stroke="url(#x)"/><path opacity=".362" d="M541.254 491.284l177.81 43.147a24.003 24.003 0 0 0 18.684-3.165l211.084-136.383a24.003 24.003 0 0 0 9.712-12.473l71.266-210.828c2.78-8.218.9-17.297-4.9-23.744L915.247 26.048a24 24 0 0 0-23.102-7.357L675.023 67.528a24.004 24.004 0 0 0-13.42 8.355l-157.7 195.671a24.002 24.002 0 0 0-5.101 18.251l24.325 181.346a24 24 0 0 0 18.127 20.133z" stroke="url(#y)"/><path opacity=".377" d="M518.125 481.615l173.653 52.329a24 24 0 0 0 18.86-2.158l215.373-123.459a23.998 23.998 0 0 0 10.385-12.004l80.864-204.68a24 24 0 0 0-3.67-23.922L911.179 41.258a24 24 0 0 0-22.636-8.563L671.524 69.233a24 24 0 0 0-13.9 7.663l-165.54 184.998a23.996 23.996 0 0 0-6.032 17.999l15.081 180.738a24 24 0 0 0 16.992 20.984z" stroke="url(#z)"/><path opacity=".391" d="M495.846 471.675l169.027 61.194a24.004 24.004 0 0 0 18.983-1.14l218.892-110.465a24 24 0 0 0 11.038-11.499l90.014-198.111a24.006 24.006 0 0 0-2.44-24.035L906.396 56.906a24 24 0 0 0-22.106-9.742L668.059 71.55a24 24 0 0 0-14.346 6.944l-172.7 174.044a23.998 23.998 0 0 0-6.951 17.701l5.967 179.665a24.001 24.001 0 0 0 15.817 21.77z" stroke="url(#A)"/><path opacity=".406" d="M474.426 461.513l163.956 69.719a24.003 24.003 0 0 0 19.051-.116l221.648-97.445a23.995 23.995 0 0 0 11.666-10.959l98.704-191.151a23.998 23.998 0 0 0-1.197-24.082L900.886 72.943a24 24 0 0 0-21.514-10.888L664.6 74.477a23.998 23.998 0 0 0-14.756 6.2L470.671 243.528a24.003 24.003 0 0 0-7.854 17.357l-2.996 178.138a24 24 0 0 0 14.605 22.49z" stroke="url(#B)"/><path opacity=".42" d="M453.861 451.18l158.462 77.881a24 24 0 0 0 19.063.913l223.648-84.442a23.999 23.999 0 0 0 12.269-10.387l106.918-183.829a23.998 23.998 0 0 0 .038-24.066l-79.63-137.924a24 24 0 0 0-20.861-12l-212.66.68a24 24 0 0 0-15.129 5.432L461.026 234.9a24 24 0 0 0-8.741 16.967l-11.784 176.171a24.002 24.002 0 0 0 13.36 23.141z" stroke="url(#C)"/><path opacity=".435" d="M434.158 440.727l152.567 85.659a24 24 0 0 0 19.022 1.944l224.9-71.502a23.997 23.997 0 0 0 12.844-9.781l114.642-176.175a24.001 24.001 0 0 0 1.269-23.986l-71.78-140.875a23.998 23.998 0 0 0-20.15-13.073L657.558 82.133a23.997 23.997 0 0 0-15.463 4.641L452.056 226.695a24.003 24.003 0 0 0-9.608 16.531l-20.377 173.779a24.001 24.001 0 0 0 12.087 23.722z" stroke="url(#D)"/><path opacity=".449" d="M415.309 430.203l146.299 93.034a23.998 23.998 0 0 0 18.923 2.975l225.417-58.665a24 24 0 0 0 13.391-9.146L941.203 290.18a24 24 0 0 0 2.49-23.842l-63.841-143.387a24 24 0 0 0-19.383-14.103l-206.555-22a24 24 0 0 0-15.758 3.832l-194.43 128.264a23.999 23.999 0 0 0-10.452 16.053L404.52 405.97a24 24 0 0 0 10.789 24.233z" stroke="url(#E)"/><path opacity=".464" d="M397.308 419.656l139.683 99.99a23.998 23.998 0 0 0 18.769 4l225.214-45.972a24.004 24.004 0 0 0 13.908-8.482l128.573-159.997a24 24 0 0 0 3.698-23.634l-55.836-145.459a24 24 0 0 0-18.563-15.089l-202.607-32.87a24 24 0 0 0-16.011 3.004L436.008 211.68a23.998 23.998 0 0 0-11.272 15.532l-36.898 167.773a24.002 24.002 0 0 0 9.47 24.671z" stroke="url(#F)"/><path opacity=".478" d="M380.149 409.133l132.744 106.511a24 24 0 0 0 18.561 5.018l224.306-33.465a24.002 24.002 0 0 0 14.393-7.788l134.762-151.536a24.001 24.001 0 0 0 4.891-23.366l-47.793-147.089a23.998 23.998 0 0 0-17.69-16.028L646.228 98.005a24 24 0 0 0-16.222 2.159L428.868 204.935a24.004 24.004 0 0 0-12.067 14.969l-44.787 164.194a24 24 0 0 0 8.135 25.035z" stroke="url(#G)"/><path opacity=".493" d="M363.814 398.683l125.512 112.58a24.003 24.003 0 0 0 18.298 6.026l222.713-21.18a24 24 0 0 0 14.844-7.069l140.423-142.869a23.999 23.999 0 0 0 6.066-23.035l-39.732-148.282a24 24 0 0 0-16.771-16.916l-193.044-53.517a24.003 24.003 0 0 0-16.39 1.301l-203.465 93.014a23.996 23.996 0 0 0-12.833 14.367l-52.407 160.254a24 24 0 0 0 6.786 25.326z" stroke="url(#H)"/><path opacity=".507" d="M348.296 388.35L466.31 506.537a23.999 23.999 0 0 0 17.979 7.021l220.456-9.156a24.006 24.006 0 0 0 15.262-6.324L865.56 364.051a24 24 0 0 0 7.218-22.645l-31.679-149.039a24 24 0 0 0-15.805-17.751l-187.483-63.238a23.996 23.996 0 0 0-16.514.43l-205.121 81.303a24 24 0 0 0-13.569 13.727l-59.74 155.969a24 24 0 0 0 5.429 25.543z" stroke="url(#I)"/><path opacity=".522" d="M333.578 378.18L443.856 501.5a23.996 23.996 0 0 0 17.607 8l217.558 2.572a23.994 23.994 0 0 0 15.642-5.556l150.15-125.042a24.001 24.001 0 0 0 8.346-22.197l-23.657-149.363a24 24 0 0 0-14.797-18.532l-181.441-72.523a24.001 24.001 0 0 0-16.593-.451l-206.116 69.676a23.996 23.996 0 0 0-14.272 13.049L329.51 352.495a24 24 0 0 0 4.068 25.685z" stroke="url(#J)"/><path opacity=".536" d="M319.639 368.214l102.334 127.97a23.997 23.997 0 0 0 17.181 8.96l214.043 13.971a23.999 23.999 0 0 0 15.986-4.766l154.211-115.946a23.999 23.999 0 0 0 9.446-21.692l-15.688-149.262a24 24 0 0 0-13.749-19.253l-174.948-81.35a24.003 24.003 0 0 0-16.628-1.339l-206.461 58.168a24.002 24.002 0 0 0-14.943 12.336l-73.491 146.45a23.997 23.997 0 0 0 2.707 25.753z" stroke="url(#K)"/><path opacity=".551" d="M306.462 358.495l94.21 132.13a24.004 24.004 0 0 0 16.703 9.898l209.939 25.007a23.997 23.997 0 0 0 16.291-3.956l157.739-106.769a23.998 23.998 0 0 0 10.515-21.131l-7.796-148.741a23.998 23.998 0 0 0-12.665-19.916l-168.035-89.696a24.005 24.005 0 0 0-16.616-2.232l-206.175 46.815a24.003 24.003 0 0 0-15.577 11.59l-79.883 141.254a23.997 23.997 0 0 0 1.35 25.747z" stroke="url(#L)"/><path opacity=".565" d="M294.017 349.063l85.937 135.792a23.995 23.995 0 0 0 16.173 10.812L601.4 531.32a24.004 24.004 0 0 0 16.558-3.129l160.735-97.541a23.998 23.998 0 0 0 11.549-20.518V262.324a23.998 23.998 0 0 0-11.549-20.517l-160.735-97.541a23.999 23.999 0 0 0-16.558-3.129L396.127 176.79a23.997 23.997 0 0 0-16.173 10.811l-85.937 135.793a24 24 0 0 0 0 25.669z" stroke="url(#M)"/><path opacity=".58" d="M282.281 339.957l77.544 138.955a24 24 0 0 0 15.593 11.698l200.075 45.877a24 24 0 0 0 16.784-2.284l163.206-88.293a23.998 23.998 0 0 0 12.547-19.853l7.676-146.472a23.997 23.997 0 0 0-10.403-21.055L612.22 153.66a24.002 24.002 0 0 0-16.453-4.026l-203.774 24.713a24 24 0 0 0-16.731 10.003l-91.643 130.09a24 24 0 0 0-1.338 25.517z" stroke="url(#N)"/><path opacity=".594" d="M271.229 331.21l69.058 141.616a24.004 24.004 0 0 0 14.965 12.554l194.376 55.656a24.001 24.001 0 0 0 16.969-1.426l165.156-79.054a24.002 24.002 0 0 0 13.507-19.139l15.213-144.743a24.004 24.004 0 0 0-9.232-21.529L606.13 163.48a24.002 24.002 0 0 0-16.302-4.922l-201.699 14.027a23.998 23.998 0 0 0-17.249 9.168l-96.993 124.163a24 24 0 0 0-2.658 25.294z" stroke="url(#O)"/><path opacity=".609" d="M260.827 322.859l60.512 143.773a24.001 24.001 0 0 0 14.29 13.377l188.209 64.964a24 24 0 0 0 17.111-.554l166.594-69.854a24.003 24.003 0 0 0 14.424-18.379l22.59-142.63a23.998 23.998 0 0 0-8.039-21.936L599.664 173.704a24.005 24.005 0 0 0-16.102-5.814l-199.073 3.625a24 24 0 0 0-17.724 8.306L264.787 297.858a24 24 0 0 0-3.96 25.001z" stroke="url(#P)"/><path opacity=".623" d="M251.051 314.934l51.933 145.43a23.998 23.998 0 0 0 13.569 14.163l181.607 73.78a23.997 23.997 0 0 0 17.211.328l167.528-60.719a23.999 23.999 0 0 0 15.298-17.573l29.789-140.149a24 24 0 0 0-6.827-22.276L592.811 184.309a24 24 0 0 0-15.857-6.701l-195.915-6.465a24.002 24.002 0 0 0-18.156 7.42L256.288 290.297a23.998 23.998 0 0 0-5.237 24.637z" stroke="url(#Q)"/><path opacity=".638" d="M241.867 307.469l43.351 146.586a23.999 23.999 0 0 0 12.804 14.913l174.604 82.083a24.002 24.002 0 0 0 17.268 1.219l167.97-51.676a23.999 23.999 0 0 0 16.125-16.728l36.792-137.308a24 24 0 0 0-5.601-22.549L585.552 195.271a24.002 24.002 0 0 0-15.564-7.578l-192.254-16.216a24 24 0 0 0-18.545 6.513L248.353 283.261a23.999 23.999 0 0 0-6.486 24.208z" stroke="url(#R)"/><path opacity=".652" d="M233.24 300.489l34.794 147.246a23.999 23.999 0 0 0 11.997 15.623l167.238 89.857a23.997 23.997 0 0 0 17.28 2.117l167.932-42.753a24.002 24.002 0 0 0 16.904-15.842l43.58-134.126a24 24 0 0 0-4.364-22.752l-110.73-133.295a23.997 23.997 0 0 0-15.225-8.445l-188.114-25.604a24 24 0 0 0-18.889 5.587l-114.699 98.674a24 24 0 0 0-7.704 23.713z" stroke="url(#S)"/><path opacity=".667" d="M225.129 294.017l26.291 147.42a24 24 0 0 0 11.15 16.289l159.542 97.086a24 24 0 0 0 17.249 3.019l167.427-33.973a24.004 24.004 0 0 0 17.633-14.92l50.138-130.614a24.001 24.001 0 0 0-3.121-22.887L569.749 218.16a24.004 24.004 0 0 0-14.839-9.298l-183.526-34.605a23.998 23.998 0 0 0-19.186 4.643l-118.18 91.963a23.998 23.998 0 0 0-8.889 23.154z" stroke="url(#T)"/><path opacity=".681" d="M217.507 288.083l17.867 147.111a23.998 23.998 0 0 0 10.267 16.91l151.554 103.759a24.001 24.001 0 0 0 17.173 3.923l166.469-25.362a23.998 23.998 0 0 0 18.31-13.964l56.45-126.788a24.003 24.003 0 0 0-1.874-22.952L561.18 230.04a23.997 23.997 0 0 0-14.406-10.137l-178.517-43.199a24.004 24.004 0 0 0-19.437 3.685l-121.28 85.159a24.001 24.001 0 0 0-10.033 22.535z" stroke="url(#U)"/><path opacity=".696" d="M210.333 282.703l9.551 146.33a24.002 24.002 0 0 0 9.348 17.484L372.543 556.38a23.994 23.994 0 0 0 17.052 4.827l165.076-16.939a24.003 24.003 0 0 0 18.935-12.979l62.5-122.665a23.996 23.996 0 0 0-.629-22.947L552.153 242.17a24.003 24.003 0 0 0-13.929-10.957l-173.117-51.366a23.998 23.998 0 0 0-19.639 2.715L221.47 260.845a24 24 0 0 0-11.137 21.858z" stroke="url(#V)"/><path opacity=".71" d="M203.569 277.896l1.368 145.088a24.001 24.001 0 0 0 8.396 18.009l134.851 115.391a24.002 24.002 0 0 0 16.886 5.731l163.264-8.731a24 24 0 0 0 19.503-11.966l68.278-118.261a24.002 24.002 0 0 0 .612-22.873l-74.072-145.757a24 24 0 0 0-13.405-11.758L361.892 183.68a23.994 23.994 0 0 0-19.793 1.734l-126.335 71.359a23.997 23.997 0 0 0-12.195 21.123z" stroke="url(#W)"/><path opacity=".725" d="M197.18 273.679l-6.655 143.397a23.995 23.995 0 0 0 7.412 18.482l126.212 120.337a24 24 0 0 0 16.674 6.63l161.053-.754a24 24 0 0 0 20.016-10.929l73.768-113.593a24 24 0 0 0 1.843-22.73l-64.817-147.436a24.007 24.007 0 0 0-12.839-12.536l-161.268-66.355a23.999 23.999 0 0 0-19.9.746l-128.293 64.405a24 24 0 0 0-13.206 20.336z" stroke="url(#X)"/><path opacity=".739" d="M191.12 270.067l-14.496 141.269a23.999 23.999 0 0 0 6.402 18.904l117.43 124.697a23.994 23.994 0 0 0 16.417 7.523l158.46 6.971a24 24 0 0 0 20.471-9.87l78.961-108.68a23.998 23.998 0 0 0 3.061-22.519l-55.596-148.55a24.002 24.002 0 0 0-12.229-13.289l-154.882-73.149a23.998 23.998 0 0 0-19.957-.247l-129.875 57.441a23.996 23.996 0 0 0-14.167 19.499z" stroke="url(#Y)"/><path opacity=".754" d="M185.352 267.068l-22.13 138.72a23.999 23.999 0 0 0 5.367 19.27L277.132 553.53a23.998 23.998 0 0 0 16.116 8.408l155.505 14.427a24 24 0 0 0 20.868-8.794l83.845-103.539a24 24 0 0 0 4.263-22.241l-46.443-149.108a24.004 24.004 0 0 0-11.575-14.015l-148.232-79.46a24 24 0 0 0-19.965-1.244l-131.087 50.489a24 24 0 0 0-15.075 18.615z" stroke="url(#Z)"/><path opacity=".768" d="M179.839 264.692l-29.537 135.766a24.001 24.001 0 0 0 4.311 19.58l99.588 131.66a23.996 23.996 0 0 0 15.769 9.284l152.211 21.597a24 24 0 0 0 21.207-7.702l88.411-98.191a24 24 0 0 0 5.444-21.896l-37.39-149.119a23.992 23.992 0 0 0-10.881-14.712l-141.349-85.281a24 24 0 0 0-19.923-2.24l-131.935 43.566a24 24 0 0 0-15.926 17.688z" stroke="url(#aa)"/><path opacity=".783" d="M174.537 262.947l-36.693 132.422a24.001 24.001 0 0 0 3.234 19.834l90.603 134.267a23.998 23.998 0 0 0 15.378 10.146l148.597 28.468a23.998 23.998 0 0 0 21.486-6.601l92.652-92.651a24 24 0 0 0 6.6-21.486l-28.467-148.597a24.003 24.003 0 0 0-10.147-15.378l-134.267-90.603a24 24 0 0 0-19.833-3.234l-132.423 36.693a23.998 23.998 0 0 0-16.72 16.72z" stroke="url(#ab)"/><path opacity=".797" d="M169.409 261.835l-43.58 128.709a24.004 24.004 0 0 0 2.142 20.028l81.622 136.297a24.002 24.002 0 0 0 14.944 10.996l144.686 35.024a23.997 23.997 0 0 0 21.705-5.491l96.56-86.942a24 24 0 0 0 7.729-21.013l-19.709-147.554a24.004 24.004 0 0 0-9.373-16.011l-127.019-95.422a24 24 0 0 0-19.694-4.224l-132.56 29.887a24.001 24.001 0 0 0-17.453 15.716z" stroke="url(#ac)"/><path opacity=".812" d="M164.419 261.357l-50.178 124.645a24.001 24.001 0 0 0 1.037 20.162l72.683 137.759a24.002 24.002 0 0 0 14.465 11.828l140.501 41.256a23.997 23.997 0 0 0 21.865-4.376l100.128-81.082a24 24 0 0 0 8.827-20.478l-11.143-146.008a24 24 0 0 0-8.562-16.608l-119.638-99.736a23.996 23.996 0 0 0-19.505-5.206l-132.354 23.166a23.998 23.998 0 0 0-18.126 14.678z" stroke="url(#ad)"/><path opacity=".826" d="M159.519 261.513l-56.469 120.25a24.002 24.002 0 0 0-.078 20.236l63.819 138.662a24.002 24.002 0 0 0 13.943 12.643l136.064 47.151a24 24 0 0 0 21.966-3.26l103.353-75.091a24.002 24.002 0 0 0 9.889-19.882l-2.798-143.975a23.999 23.999 0 0 0-7.715-17.168L329.338 237.535a23.999 23.999 0 0 0-19.269-6.18l-131.815 16.547a24.002 24.002 0 0 0-18.735 13.611z" stroke="url(#ae)"/><path opacity=".841" d="M154.676 262.299l-62.44 115.545a24 24 0 0 0-1.198 20.248l55.064 139.019a24.007 24.007 0 0 0 13.38 13.437L290.88 603.25a24 24 0 0 0 22.006-2.147l106.232-68.988a23.998 23.998 0 0 0 10.911-19.229l5.299-141.475a23.999 23.999 0 0 0-6.833-17.688L323.891 246.875a23.996 23.996 0 0 0-18.985-7.14l-130.951 10.044a24.004 24.004 0 0 0-19.279 12.52z" stroke="url(#af)"/><path opacity=".855" d="M149.852 263.71L81.78 374.261a23.999 23.999 0 0 0-2.323 20.198l46.452 138.844a24.003 24.003 0 0 0 12.774 14.209l126.529 57.9a24 24 0 0 0 21.987-1.039l108.76-62.792a24.001 24.001 0 0 0 11.893-18.522l13.121-138.528a23.997 23.997 0 0 0-5.918-18.166l-97.016-109.651a24.003 24.003 0 0 0-18.654-8.087l-129.776 3.677a24 24 0 0 0-19.757 11.406z" stroke="url(#ag)"/><path opacity=".87" d="M145.007 265.739L71.653 371.03a24 24 0 0 0-3.448 20.086l38.014 138.151a24 24 0 0 0 12.127 14.957l121.479 62.741a23.999 23.999 0 0 0 21.909.061L372.671 550.5a24 24 0 0 0 12.829-17.76l20.645-135.157a24 24 0 0 0-4.972-18.602L311.75 267.024a23.996 23.996 0 0 0-18.276-9.017l-128.299-2.544a24 24 0 0 0-20.168 10.276z" stroke="url(#ah)"/><path opacity=".884" d="M140.104 268.374L61.83 368.162a24.001 24.001 0 0 0-4.568 19.912l29.78 136.96a23.997 23.997 0 0 0 11.44 15.678l116.271 67.219a23.996 23.996 0 0 0 21.773 1.148l112.764-50.206a23.998 23.998 0 0 0 13.717-16.949l27.847-131.384a23.998 23.998 0 0 0-3.997-18.992l-81.854-113.775a24 24 0 0 0-17.854-9.929l-126.533-8.603a24.003 24.003 0 0 0-20.512 9.133z" stroke="url(#ai)"/><path opacity=".899" d="M135.115 271.603l-82.821 94.066a24 24 0 0 0-5.682 19.674l21.779 135.29a24.001 24.001 0 0 0 10.714 16.372l110.929 71.332a24.004 24.004 0 0 0 21.582 2.219l114.239-43.852a24.002 24.002 0 0 0 14.553-16.091l34.706-127.235a24 24 0 0 0-2.993-19.336l-74.342-115.113a24 24 0 0 0-17.387-10.819l-124.49-14.487a23.998 23.998 0 0 0-20.787 7.98z" stroke="url(#aj)"/><path opacity=".913" d="M129.996 275.413L43.01 363.562a23.998 23.998 0 0 0-6.785 19.373l14.038 133.162a24 24 0 0 0 9.95 17.036l105.478 75.077a24.002 24.002 0 0 0 21.333 3.273l115.366-37.485a24 24 0 0 0 15.336-15.187l41.203-122.736a23.998 23.998 0 0 0-1.964-19.632l-66.913-115.981a24 24 0 0 0-16.876-11.686L150.99 268.591a23.998 23.998 0 0 0-20.994 6.822z" stroke="url(#ak)"/><path opacity=".928" d="M124.718 279.788l-90.76 82.061a23.999 23.999 0 0 0-7.875 19.01l6.585 130.598a24 24 0 0 0 9.15 17.669l99.937 78.455a24.001 24.001 0 0 0 21.032 4.305l116.146-31.121a24.003 24.003 0 0 0 16.061-14.244l47.321-117.913a24 24 0 0 0-.911-19.877l-59.596-116.393a24 24 0 0 0-16.324-12.527l-119.632-25.685a24 24 0 0 0-21.134 5.662z" stroke="url(#al)"/><path opacity=".942" d="M119.248 284.709l-94.14 75.825a24 24 0 0 0-8.946 18.586l-.558 127.623a24.001 24.001 0 0 0 8.313 18.269l94.334 81.467a24 24 0 0 0 20.676 5.311l116.585-24.78a24.003 24.003 0 0 0 16.728-13.262l53.042-112.794a23.997 23.997 0 0 0 .164-20.07l-52.419-116.362a23.995 23.995 0 0 0-15.731-13.341l-116.843-30.979a24 24 0 0 0-21.205 4.507z" stroke="url(#am)"/><path opacity=".957" d="M113.561 290.158l-97.12 69.467a24 24 0 0 0-9.995 18.1L-.922 501.987a24 24 0 0 0 7.442 18.834l88.688 84.117a24 24 0 0 0 20.271 6.291l116.685-18.481a24.001 24.001 0 0 0 17.334-12.247l58.354-107.406a24.001 24.001 0 0 0 1.257-20.212l-45.406-115.904a24 24 0 0 0-15.099-14.125l-113.833-36.055a24.002 24.002 0 0 0-21.21 3.359z" stroke="url(#an)"/><path opacity=".971" d="M107.624 296.111L7.928 359.123a24.001 24.001 0 0 0-11.021 17.554L-16.916 497.22a24 24 0 0 0 6.538 19.362l83.022 86.406a23.997 23.997 0 0 0 19.815 7.24l116.454-12.239a24.003 24.003 0 0 0 17.877-11.202l63.243-101.779a24.003 24.003 0 0 0 2.369-20.299l-38.583-115.035a23.997 23.997 0 0 0-14.43-14.878l-110.618-40.907a24 24 0 0 0-21.147 2.222z" stroke="url(#ao)"/><path opacity=".986" d="M101.405 302.548L-.462 359.032a24 24 0 0 0-12.019 16.947l-19.904 116.493a24 24 0 0 0 5.601 19.853l77.359 88.342a24 24 0 0 0 19.312 8.156l115.898-6.074a23.999 23.999 0 0 0 18.353-10.13l67.701-95.944a24.003 24.003 0 0 0 3.495-20.33l-31.972-113.774a23.996 23.996 0 0 0-13.724-15.598l-107.214-45.527a24 24 0 0 0-21.019 1.102z" stroke="url(#ap)"/><path d="M94.888 309.444L-8.746 359.351a24 24 0 0 0-12.985 16.283l-25.595 112.141a23.999 23.999 0 0 0 4.634 20.304l71.717 89.93a23.998 23.998 0 0 0 18.764 9.036h115.025c7.303 0 14.21-3.325 18.763-9.036l71.717-89.93a24 24 0 0 0 4.635-20.304l-25.596-112.141a23.998 23.998 0 0 0-12.985-16.283l-103.634-49.907a24 24 0 0 0-20.826 0z" stroke="url(#aq)"/></g><defs><linearGradient id="a" x1="1279.01" y1="541.133" x2="940.634" y2="-218.869" gradientUnits="userSpaceOnUse"><stop stop-color="#D245CE"/><stop offset="1" stop-color="#BAC9FF"/></linearGradient><linearGradient id="b" x1="1243.49" y1="550.108" x2="947.983" y2="-219.706" gradientUnits="userSpaceOnUse"><stop stop-color="#D245CE"/><stop offset="1" stop-color="#BAC9FF"/></linearGradient><linearGradient id="c" x1="1207.92" y1="557.933" x2="955.379" y2="-219.308" gradientUnits="userSpaceOnUse"><stop stop-color="#D245CE"/><stop offset="1" stop-color="#BAC9FF"/></linearGradient><linearGradient id="d" x1="1172.37" y1="564.619" x2="962.751" y2="-217.682" gradientUnits="userSpaceOnUse"><stop stop-color="#D245CE"/><stop offset="1" stop-color="#BAC9FF"/></linearGradient><linearGradient id="e" x1="1136.9" y1="570.175" x2="970.043" y2="-214.842" gradientUnits="userSpaceOnUse"><stop stop-color="#D245CE"/><stop offset="1" stop-color="#BAC9FF"/></linearGradient><linearGradient id="f" x1="1101.57" y1="574.616" x2="977.176" y2="-210.806" gradientUnits="userSpaceOnUse"><stop stop-color="#D245CE"/><stop offset="1" stop-color="#BAC9FF"/></linearGradient><linearGradient id="g" x1="1066.45" y1="577.961" x2="984.099" y2="-205.592" gradientUnits="userSpaceOnUse"><stop stop-color="#D245CE"/><stop offset="1" stop-color="#BAC9FF"/></linearGradient><linearGradient id="h" x1="1031.59" y1="580.234" x2="990.737" y2="-199.223" gradientUnits="userSpaceOnUse"><stop stop-color="#D245CE"/><stop offset="1" stop-color="#BAC9FF"/></linearGradient><linearGradient id="i" x1="997.04" y1="581.457" x2="997.04" y2="-191.727" gradientUnits="userSpaceOnUse"><stop stop-color="#D245CE"/><stop offset="1" stop-color="#BAC9FF"/></linearGradient><linearGradient id="j" x1="962.861" y1="581.659" x2="1002.94" y2="-183.133" gradientUnits="userSpaceOnUse"><stop stop-color="#D245CE"/><stop offset="1" stop-color="#BAC9FF"/></linearGradient><linearGradient id="k" x1="929.104" y1="580.871" x2="1008.39" y2="-173.473" gradientUnits="userSpaceOnUse"><stop stop-color="#D245CE"/><stop offset="1" stop-color="#BAC9FF"/></linearGradient><linearGradient id="l" x1="895.823" y1="579.123" x2="1013.33" y2="-162.785" gradientUnits="userSpaceOnUse"><stop stop-color="#D245CE"/><stop offset="1" stop-color="#BAC9FF"/></linearGradient><linearGradient id="m" x1="863.061" y1="576.455" x2="1017.71" y2="-151.105" gradientUnits="userSpaceOnUse"><stop stop-color="#D245CE"/><stop offset="1" stop-color="#BAC9FF"/></linearGradient><linearGradient id="n" x1="830.864" y1="572.902" x2="1021.48" y2="-138.474" gradientUnits="userSpaceOnUse"><stop stop-color="#D245CE"/><stop offset="1" stop-color="#BAC9FF"/></linearGradient><linearGradient id="o" x1="799.281" y1="568.505" x2="1024.59" y2="-124.937" gradientUnits="userSpaceOnUse"><stop stop-color="#D245CE"/><stop offset="1" stop-color="#BAC9FF"/></linearGradient><linearGradient id="p" x1="768.342" y1="563.306" x2="1027.01" y2="-110.538" gradientUnits="userSpaceOnUse"><stop stop-color="#D245CE"/><stop offset="1" stop-color="#BAC9FF"/></linearGradient><linearGradient id="q" x1="738.096" y1="557.351" x2="1028.69" y2="-95.325" gradientUnits="userSpaceOnUse"><stop stop-color="#D245CE"/><stop offset="1" stop-color="#BAC9FF"/></linearGradient><linearGradient id="r" x1="708.571" y1="550.685" x2="1029.59" y2="-79.346" gradientUnits="userSpaceOnUse"><stop stop-color="#D245CE"/><stop offset="1" stop-color="#BAC9FF"/></linearGradient><linearGradient id="s" x1="679.799" y1="543.353" x2="1029.68" y2="-62.654" gradientUnits="userSpaceOnUse"><stop stop-color="#D245CE"/><stop offset="1" stop-color="#BAC9FF"/></linearGradient><linearGradient id="t" x1="651.81" y1="535.407" x2="1028.93" y2="-45.3" gradientUnits="userSpaceOnUse"><stop stop-color="#D245CE"/><stop offset="1" stop-color="#BAC9FF"/></linearGradient><linearGradient id="u" x1="624.632" y1="526.895" x2="1027.31" y2="-27.34" gradientUnits="userSpaceOnUse"><stop stop-color="#D245CE"/><stop offset="1" stop-color="#BAC9FF"/></linearGradient><linearGradient id="v" x1="598.281" y1="517.869" x2="1024.79" y2="-8.825" gradientUnits="userSpaceOnUse"><stop stop-color="#D245CE"/><stop offset="1" stop-color="#BAC9FF"/></linearGradient><linearGradient id="w" x1="572.783" y1="508.381" x2="1021.36" y2="10.187" gradientUnits="userSpaceOnUse"><stop stop-color="#D245CE"/><stop offset="1" stop-color="#BAC9FF"/></linearGradient><linearGradient id="x" x1="548.155" y1="498.482" x2="1017" y2="29.639" gradientUnits="userSpaceOnUse"><stop stop-color="#D245CE"/><stop offset="1" stop-color="#BAC9FF"/></linearGradient><linearGradient id="y" x1="524.408" y1="488.225" x2="1011.69" y2="49.475" gradientUnits="userSpaceOnUse"><stop stop-color="#D245CE"/><stop offset="1" stop-color="#BAC9FF"/></linearGradient><linearGradient id="z" x1="501.551" y1="477.665" x2="1005.42" y2="69.639" gradientUnits="userSpaceOnUse"><stop stop-color="#D245CE"/><stop offset="1" stop-color="#BAC9FF"/></linearGradient><linearGradient id="A" x1="479.591" y1="466.854" x2="998.184" y2="90.074" gradientUnits="userSpaceOnUse"><stop stop-color="#D245CE"/><stop offset="1" stop-color="#BAC9FF"/></linearGradient><linearGradient id="B" x1="458.538" y1="455.844" x2="989.981" y2="110.721" gradientUnits="userSpaceOnUse"><stop stop-color="#D245CE"/><stop offset="1" stop-color="#BAC9FF"/></linearGradient><linearGradient id="C" x1="438.385" y1="444.688" x2="980.803" y2="131.523" gradientUnits="userSpaceOnUse"><stop stop-color="#D245CE"/><stop offset="1" stop-color="#BAC9FF"/></linearGradient><linearGradient id="D" x1="419.137" y1="433.44" x2="970.659" y2="152.426" gradientUnits="userSpaceOnUse"><stop stop-color="#D245CE"/><stop offset="1" stop-color="#BAC9FF"/></linearGradient><linearGradient id="E" x1="400.784" y1="422.151" x2="959.55" y2="173.373" gradientUnits="userSpaceOnUse"><stop stop-color="#D245CE"/><stop offset="1" stop-color="#BAC9FF"/></linearGradient><linearGradient id="F" x1="383.32" y1="410.872" x2="947.485" y2="194.31" gradientUnits="userSpaceOnUse"><stop stop-color="#D245CE"/><stop offset="1" stop-color="#BAC9FF"/></linearGradient><linearGradient id="G" x1="366.735" y1="399.653" x2="934.478" y2="215.182" gradientUnits="userSpaceOnUse"><stop stop-color="#D245CE"/><stop offset="1" stop-color="#BAC9FF"/></linearGradient><linearGradient id="H" x1="351.01" y1="388.541" x2="920.537" y2="235.937" gradientUnits="userSpaceOnUse"><stop stop-color="#D245CE"/><stop offset="1" stop-color="#BAC9FF"/></linearGradient><linearGradient id="I" x1="336.135" y1="377.587" x2="905.685" y2="256.525" gradientUnits="userSpaceOnUse"><stop stop-color="#D245CE"/><stop offset="1" stop-color="#BAC9FF"/></linearGradient><linearGradient id="J" x1="322.091" y1="366.835" x2="889.944" y2="276.896" gradientUnits="userSpaceOnUse"><stop stop-color="#D245CE"/><stop offset="1" stop-color="#BAC9FF"/></linearGradient><linearGradient id="K" x1="308.854" y1="356.329" x2="873.334" y2="297" gradientUnits="userSpaceOnUse"><stop stop-color="#D245CE"/><stop offset="1" stop-color="#BAC9FF"/></linearGradient><linearGradient id="L" x1="296.405" y1="346.113" x2="855.883" y2="316.792" gradientUnits="userSpaceOnUse"><stop stop-color="#D245CE"/><stop offset="1" stop-color="#BAC9FF"/></linearGradient><linearGradient id="M" x1="284.711" y1="336.228" x2="837.615" y2="336.228" gradientUnits="userSpaceOnUse"><stop stop-color="#D245CE"/><stop offset="1" stop-color="#BAC9FF"/></linearGradient><linearGradient id="N" x1="273.747" y1="326.716" x2="818.561" y2="355.268" gradientUnits="userSpaceOnUse"><stop stop-color="#D245CE"/><stop offset="1" stop-color="#BAC9FF"/></linearGradient><linearGradient id="O" x1="263.484" y1="317.609" x2="798.754" y2="373.869" gradientUnits="userSpaceOnUse"><stop stop-color="#D245CE"/><stop offset="1" stop-color="#BAC9FF"/></linearGradient><linearGradient id="P" x1="253.886" y1="308.946" x2="778.226" y2="391.993" gradientUnits="userSpaceOnUse"><stop stop-color="#D245CE"/><stop offset="1" stop-color="#BAC9FF"/></linearGradient><linearGradient id="Q" x1="244.926" y1="300.757" x2="757.019" y2="409.606" gradientUnits="userSpaceOnUse"><stop stop-color="#D245CE"/><stop offset="1" stop-color="#BAC9FF"/></linearGradient><linearGradient id="R" x1="236.567" y1="293.076" x2="735.169" y2="426.676" gradientUnits="userSpaceOnUse"><stop stop-color="#D245CE"/><stop offset="1" stop-color="#BAC9FF"/></linearGradient><linearGradient id="S" x1="228.772" y1="285.929" x2="712.714" y2="443.171" gradientUnits="userSpaceOnUse"><stop stop-color="#D245CE"/><stop offset="1" stop-color="#BAC9FF"/></linearGradient><linearGradient id="T" x1="221.496" y1="279.339" x2="689.691" y2="459.063" gradientUnits="userSpaceOnUse"><stop stop-color="#D245CE"/><stop offset="1" stop-color="#BAC9FF"/></linearGradient><linearGradient id="U" x1="214.708" y1="273.336" x2="666.148" y2="474.33" gradientUnits="userSpaceOnUse"><stop stop-color="#D245CE"/><stop offset="1" stop-color="#BAC9FF"/></linearGradient><linearGradient id="V" x1="208.367" y1="267.935" x2="642.127" y2="488.947" gradientUnits="userSpaceOnUse"><stop stop-color="#D245CE"/><stop offset="1" stop-color="#BAC9FF"/></linearGradient><linearGradient id="W" x1="202.43" y1="263.156" x2="617.669" y2="502.895" gradientUnits="userSpaceOnUse"><stop stop-color="#D245CE"/><stop offset="1" stop-color="#BAC9FF"/></linearGradient><linearGradient id="X" x1="196.859" y1="259.014" x2="592.824" y2="516.157" gradientUnits="userSpaceOnUse"><stop stop-color="#D245CE"/><stop offset="1" stop-color="#BAC9FF"/></linearGradient><linearGradient id="Y" x1="191.607" y1="255.525" x2="567.631" y2="528.722" gradientUnits="userSpaceOnUse"><stop stop-color="#D245CE"/><stop offset="1" stop-color="#BAC9FF"/></linearGradient><linearGradient id="Z" x1="186.633" y1="252.694" x2="542.137" y2="540.576" gradientUnits="userSpaceOnUse"><stop stop-color="#D245CE"/><stop offset="1" stop-color="#BAC9FF"/></linearGradient><linearGradient id="aa" x1="181.897" y1="250.531" x2="516.391" y2="551.711" gradientUnits="userSpaceOnUse"><stop stop-color="#D245CE"/><stop offset="1" stop-color="#BAC9FF"/></linearGradient><linearGradient id="ab" x1="177.352" y1="249.042" x2="490.433" y2="562.123" gradientUnits="userSpaceOnUse"><stop stop-color="#D245CE"/><stop offset="1" stop-color="#BAC9FF"/></linearGradient><linearGradient id="ac" x1="172.96" y1="248.229" x2="464.313" y2="571.809" gradientUnits="userSpaceOnUse"><stop stop-color="#D245CE"/><stop offset="1" stop-color="#BAC9FF"/></linearGradient><linearGradient id="ad" x1="168.682" y1="248.09" x2="438.08" y2="580.769" gradientUnits="userSpaceOnUse"><stop stop-color="#D245CE"/><stop offset="1" stop-color="#BAC9FF"/></linearGradient><linearGradient id="ae" x1="164.467" y1="248.624" x2="411.769" y2="589.007" gradientUnits="userSpaceOnUse"><stop stop-color="#D245CE"/><stop offset="1" stop-color="#BAC9FF"/></linearGradient><linearGradient id="af" x1="160.28" y1="249.825" x2="385.43" y2="596.526" gradientUnits="userSpaceOnUse"><stop stop-color="#D245CE"/><stop offset="1" stop-color="#BAC9FF"/></linearGradient><linearGradient id="ag" x1="156.082" y1="251.686" x2="359.107" y2="603.336" gradientUnits="userSpaceOnUse"><stop stop-color="#D245CE"/><stop offset="1" stop-color="#BAC9FF"/></linearGradient><linearGradient id="ah" x1="151.828" y1="254.198" x2="332.838" y2="609.449" gradientUnits="userSpaceOnUse"><stop stop-color="#D245CE"/><stop offset="1" stop-color="#BAC9FF"/></linearGradient><linearGradient id="ai" x1="147.483" y1="257.346" x2="306.666" y2="614.876" gradientUnits="userSpaceOnUse"><stop stop-color="#D245CE"/><stop offset="1" stop-color="#BAC9FF"/></linearGradient><linearGradient id="aj" x1="143.015" y1="261.117" x2="280.636" y2="619.632" gradientUnits="userSpaceOnUse"><stop stop-color="#D245CE"/><stop offset="1" stop-color="#BAC9FF"/></linearGradient><linearGradient id="ak" x1="138.378" y1="265.494" x2="254.779" y2="623.738" gradientUnits="userSpaceOnUse"><stop stop-color="#D245CE"/><stop offset="1" stop-color="#BAC9FF"/></linearGradient><linearGradient id="al" x1="133.544" y1="270.46" x2="229.136" y2="627.212" gradientUnits="userSpaceOnUse"><stop stop-color="#D245CE"/><stop offset="1" stop-color="#BAC9FF"/></linearGradient><linearGradient id="am" x1="128.477" y1="275.992" x2="203.74" y2="630.075" gradientUnits="userSpaceOnUse"><stop stop-color="#D245CE"/><stop offset="1" stop-color="#BAC9FF"/></linearGradient><linearGradient id="an" x1="123.151" y1="282.069" x2="178.631" y2="632.354" gradientUnits="userSpaceOnUse"><stop stop-color="#D245CE"/><stop offset="1" stop-color="#BAC9FF"/></linearGradient><linearGradient id="ao" x1="117.532" y1="288.666" x2="153.835" y2="634.072" gradientUnits="userSpaceOnUse"><stop stop-color="#D245CE"/><stop offset="1" stop-color="#BAC9FF"/></linearGradient><linearGradient id="ap" x1="111.588" y1="295.758" x2="129.38" y2="635.259" gradientUnits="userSpaceOnUse"><stop stop-color="#D245CE"/><stop offset="1" stop-color="#BAC9FF"/></linearGradient><linearGradient id="aq" x1="105.301" y1="303.319" x2="105.301" y2="635.943" gradientUnits="userSpaceOnUse"><stop stop-color="#D245CE"/><stop offset="1" stop-color="#BAC9FF"/></linearGradient></defs></svg>