<svg width="1202" height="648" viewBox="0 0 1202 648" fill="none" xmlns="http://www.w3.org/2000/svg"><g opacity=".14" stroke-width="2"><path d="M203.851 674.794c-48.809-96.647-103.827-229.789-118.657-355.825-14.83-126.032 10.54-244.683 122.144-312.84 55.993-34.195 104.709-55.898 145.598-66.11 40.898-10.215 73.866-8.91 98.456 2.77 24.549 11.66 40.914 33.743 48.475 65.472 7.567 31.76 6.297 73.146-4.454 123.25-21.527 100.332-70.456 284.491-126.192 419.375-13.932 33.718-28.283 64.338-42.729 89.793-14.453 25.467-28.969 45.705-43.216 58.705-14.259 13.011-28.065 18.619-41.191 15.287-13.177-3.344-26.067-15.785-38.234-39.877z" stroke="url(#a)"/><path d="M666.67 902.338c-2.299-1.321-3.851-3.922-4.663-6.942-5.453-23.163-13.056-59.603-18.143-93.65-2.544-17.029-4.456-33.441-5.158-47.286-.704-13.891-.179-25.052 2.06-31.67 1.352-3.998 5.036-8.598 10.815-13.369 5.756-4.75 13.493-9.592 22.795-14.101 18.601-9.017 43.37-16.661 70.837-19.599 54.926-5.877 120.509 7.068 169.182 65.301 24.497 29.308 43.497 43.633 58.806 47.983 7.689 2.184 14.45 1.853 20.476-.362 6.01-2.209 11.213-6.266 15.863-11.423 8.95-9.95 15.96-24.188 22.62-37.727.23-.454.45-.907.67-1.36 3.45-6.996 6.82-13.767 10.35-19.688 3.54-5.926 7.2-10.936 11.2-14.44 3.94-3.45 11.95-6.991 22.68-10.167 10.68-3.162 23.91-5.921 38.14-7.879 28.5-3.919 60.9-4.612 84.92 1.012 12.03 2.813 21.83 7.18 28.02 13.4 6.14 6.159 8.81 14.205 6.47 24.665-2.35 10.536-9.8 23.543-24.04 39.427-14.22 15.869-35.16 34.536-64.38 56.394-58.36 43.662-111.11 61.882-158.151 66.017-47.047 4.137-88.454-5.809-124.137-18.597-16.822-6.029-32.36-12.685-46.627-18.797l-2.59-1.109c-14.953-6.401-28.507-12.123-40.592-15.717-12.077-3.591-22.819-5.099-32.118-2.953-9.36 2.16-17.127 7.989-23.286 18.769-9.653 16.896-17.902 29.015-24.889 37.494-6.996 8.491-12.682 13.277-17.192 15.581-4.484 2.291-7.694 2.082-9.938.793z" stroke="url(#b)"/><path d="M380.496 556.125v.001c-13.768 33.071-27.885 62.98-42.044 87.782-14.167 24.815-28.345 44.459-42.22 57.048-13.885 12.599-27.285 17.978-39.99 14.722-12.755-3.268-25.206-15.33-36.936-38.613-47.352-94.71-101.002-226.555-114.907-348.784C90.587 205.822 121.337 89.257 232.377 28.217c55.738-30.64 103.607-51.595 143.642-62.198 40.05-10.607 72.129-10.818 96.384-.142 24.267 10.68 43.111 31.4 52.216 62.303 9.114 30.927 8.48 72.092-6.339 123.592-29.701 103.224-82.324 271.381-137.784 404.353z" stroke="url(#c)"/><path d="M391.79 561.429v.001c-13.604 32.424-27.486 61.622-41.359 85.772-13.881 24.162-27.721 43.213-41.223 55.39-13.512 12.186-26.505 17.337-38.789 14.157-12.333-3.193-24.347-14.875-35.639-37.348-45.893-92.775-98.177-223.322-111.156-341.745-12.795-118.884 23.334-233.363 133.809-287.287C312.919 23.285 359.941 3.077 399.122-7.917c39.202-11 70.392-12.728 94.313-3.055 23.985 9.699 45.31 29.052 55.96 59.135 10.653 30.095 10.659 71.035-8.226 123.942-37.873 106.102-94.192 258.26-149.379 389.324z" stroke="url(#d)"/><path d="M403.13 566.821v.002c-13.44 31.777-27.088 60.264-40.675 83.761-13.594 23.51-27.096 41.967-40.225 53.732-13.14 11.775-25.726 16.697-37.588 13.593-11.912-3.117-23.488-14.419-34.343-36.083-44.435-90.84-95.351-220.088-107.405-334.705C131.115 231.812 172.62 119.42 282.529 72.609c55.241-23.527 101.41-42.986 139.742-54.373 38.357-11.395 68.656-14.639 92.243-5.968 23.703 8.714 47.512 26.696 59.704 55.967 12.189 29.262 12.838 69.978-10.113 124.299-23.735 56.174-51.171 119.543-79.707 185.455-26.836 61.985-54.646 126.218-81.268 188.832z" stroke="url(#e)"/><path d="M414.519 572.363l-.001.002c-13.275 31.131-26.689 58.907-39.99 81.752-13.308 22.857-26.471 40.72-39.228 52.073-12.766 11.363-24.946 16.057-36.387 13.029-11.491-3.041-22.628-13.964-33.047-34.82-42.977-88.904-92.525-216.852-103.654-327.662-10.762-111.733 36.114-222.038 145.459-261.74 20.877-7.58 40.353-14.976 58.533-21.88 29.729-11.29 55.995-21.265 79.264-28.579 37.514-11.791 66.92-16.551 90.176-8.88 23.418 7.725 49.714 24.332 63.449 52.798 13.717 28.43 15.015 68.92-12.004 124.662-16.153 33.326-33.155 67.396-50.51 102.176-40.872 81.908-83.708 167.751-122.06 257.069z" stroke="url(#f)"/><path d="M425.979 578.111l-.001.002c-13.111 30.484-26.29 57.549-39.305 79.742-13.022 22.205-25.846 39.474-38.23 50.416-12.394 10.95-24.167 15.416-35.187 12.464-11.069-2.965-21.769-13.509-31.75-33.555-41.519-86.969-89.699-213.618-99.904-320.621-9.746-108.156 42.499-216.375 151.279-248.969 35.053-10.503 65.978-21.676 93.293-31.545 15.289-5.524 29.447-10.639 42.564-14.999 36.673-12.19 65.184-18.466 88.11-11.793 23.13 6.733 51.915 21.96 67.194 49.629 15.241 27.599 17.193 67.861-13.896 125.032-19.053 35.037-38.585 69.101-58.075 103.092-44.28 77.226-88.344 154.077-126.092 241.105z" stroke="url(#g)"/><path d="M437.532 584.143l-.002.003c-12.946 29.837-25.891 56.191-38.619 77.731-12.736 21.552-25.222 38.228-37.233 48.758-12.021 10.538-23.387 14.776-33.986 11.901-10.648-2.889-20.909-13.054-30.454-32.29-40.061-85.034-86.873-210.385-96.153-313.582-8.73-104.577 48.879-210.71 157.094-236.2 44.71-10.531 82.172-24.033 113.924-35.477 6.933-2.498 13.594-4.899 19.998-7.15 17.883-6.282 33.746-11.385 47.986-14.202 14.239-2.817 26.788-3.334 38.059-.503 22.837 5.736 54.116 19.582 70.941 46.458 16.757 26.77 19.37 66.805-15.792 125.409-23.36 38.932-46.768 74.613-69.608 109.43-11.647 17.754-23.147 35.284-34.418 52.905-33.362 52.159-64.679 105.067-91.737 166.809z" stroke="url(#h)"/><path d="M449.192 590.505l-.002.004c-12.782 29.191-25.492 54.833-37.934 75.72-12.45 20.9-24.597 36.982-36.235 47.1-11.648 10.127-22.607 14.137-32.785 11.338-10.227-2.813-20.051-12.598-29.158-31.025-38.603-83.099-84.048-207.15-92.402-306.54-7.716-100.999 55.254-205.048 162.906-223.436 51.663-8.824 93.005-24.204 126.968-36.839 1.692-.63 3.366-1.253 5.023-1.868 17.458-6.481 32.884-12.063 46.762-15.436 13.876-3.373 26.118-4.516 37.219-2.183 22.539 4.736 56.315 17.198 74.687 43.287 9.163 13.012 14.521 29.447 12.72 50.108-1.803 20.684-10.786 45.654-30.411 75.683-28.162 43.094-55.808 79.974-82.188 115.167-10.476 13.975-20.752 27.684-30.782 41.41-35.276 48.276-67.461 96.711-94.388 157.51z" stroke="url(#i)"/><path d="M460.969 597.211l-.002.004c-12.618 28.544-25.094 53.475-37.25 73.71-12.163 20.247-23.972 35.735-35.237 45.442-11.274 9.714-21.827 13.497-31.584 10.774-9.806-2.737-19.192-12.142-27.862-29.76-37.145-81.164-81.222-203.916-88.652-299.498-6.7-97.419 61.625-199.387 168.717-210.676 53.999-5.692 96.02-21.433 130.061-34.783a8244.5 8244.5 0 0 0 5.404-2.123c14.825-5.832 28.066-11.04 40.136-14.55 13.514-3.93 25.451-5.696 36.38-3.861 22.234 3.733 58.511 14.81 78.433 40.115 9.928 12.61 15.819 28.783 13.865 49.452-1.957 20.7-11.791 45.976-33.457 76.728-33.257 47.203-65.266 84.527-95.144 119.365-9.129 10.645-18.058 21.057-26.764 31.448-37.19 44.392-70.247 88.353-97.044 148.213z" stroke="url(#j)"/><path d="M473.22 605.609l-.002.005c-12.453 27.897-24.695 52.117-36.564 71.7-11.877 19.594-23.347 34.488-34.24 43.784-10.9 9.301-21.046 12.857-30.382 10.21-9.386-2.66-18.334-11.686-26.567-28.494-35.688-79.23-78.396-200.682-84.902-292.457-5.686-93.836 67.991-193.726 174.525-197.919 53.761-2.116 94.944-17.11 128.135-30.857 4.435-1.837 8.722-3.65 12.874-5.405 11.406-4.822 21.794-9.213 31.443-12.506 13.152-4.488 24.784-6.877 35.543-5.538 10.922 1.359 26.109 4.457 41.257 10.297 15.156 5.843 30.202 14.402 40.922 26.644 10.693 12.212 17.115 28.122 15.007 48.798-2.111 20.719-12.795 46.302-36.503 77.776-38.555 51.186-74.973 88.167-108.239 121.948-7.707 7.826-15.244 15.48-22.6 23.099-39.105 40.506-73.037 79.992-99.707 138.915z" stroke="url(#k)"/><path d="M486.184 616.57l-.003.005c-12.288 27.251-24.296 50.76-35.879 69.689-11.59 18.943-22.722 33.243-33.241 42.126-10.527 8.89-20.266 12.219-29.182 9.649-8.965-2.585-17.475-11.231-25.271-27.23-34.23-77.296-75.57-197.447-81.151-285.414-4.674-90.254 74.352-188.07 180.331-185.169 53.521 1.466 93.869-12.78 126.211-26.926 6.407-2.803 12.478-5.591 18.27-8.251 8.864-4.071 17.072-7.841 24.824-10.899 12.791-5.047 24.118-8.059 34.707-7.215 10.758.857 26.493 3.355 42.426 8.624 15.944 5.272 32.004 13.292 43.497 25.142 11.46 11.816 18.41 27.465 16.15 48.148-2.265 20.737-13.799 46.628-39.551 78.826-44.016 55.035-84.854 90.932-121.379 123.037-6.256 5.5-12.386 10.888-18.383 16.242-41.018 36.616-75.833 71.627-102.376 129.616z" stroke="url(#l)"/><path d="M499.323 628.056l-.002.006c-12.124 26.604-23.898 49.401-35.194 67.678-11.304 18.29-22.097 31.996-32.243 40.468-10.154 8.478-19.485 11.58-27.981 9.086-8.544-2.507-16.617-10.775-23.975-25.964-32.773-75.362-72.745-194.211-77.402-278.371-1.829-43.287 18.315-88.903 52.158-122.458 33.832-33.545 81.281-54.961 133.98-49.965 53.279 5.051 92.793-8.445 124.287-22.993 7.85-3.626 15.203-7.318 22.137-10.8l.048-.024c6.953-3.492 13.478-6.767 19.685-9.567 12.431-5.607 23.454-9.241 33.874-8.891 10.591.355 26.873 2.253 43.592 6.95 16.731 4.701 33.806 12.18 46.075 23.641 12.228 11.422 19.702 26.812 17.291 47.5-2.419 20.757-14.804 46.957-42.6 79.879-49.613 58.763-94.868 92.892-134.519 122.794-4.803 3.622-9.524 7.182-14.16 10.716-42.927 32.725-78.631 63.256-105.051 120.315z" stroke="url(#m)"/><path d="M512.623 640.045l-.002.006c-11.96 25.956-23.499 48.043-34.509 65.667-11.018 17.637-21.472 30.75-31.245 38.81-9.779 8.065-18.704 10.941-26.779 8.524-8.124-2.431-15.759-10.319-22.681-24.698-31.316-73.429-69.919-190.977-73.652-271.328-1.323-41.487 20.397-85.692 55.645-117.403 35.233-31.698 83.883-50.82 136.301-42.28 53.033 8.64 91.715-4.103 122.363-19.055 7.655-3.734 14.808-7.606 21.549-11.311 1.154-.634 2.295-1.263 3.424-1.886 5.477-3.018 10.677-5.884 15.673-8.437 12.07-6.168 22.789-10.423 33.042-10.567 10.421-.146 27.247 1.15 44.753 5.276 17.518 4.128 35.61 11.067 48.656 22.139 12.998 11.031 20.994 26.162 18.432 46.855-2.573 20.778-15.808 47.288-45.65 80.934-55.329 62.385-104.992 94.12-147.64 121.373-3.36 2.147-6.676 4.266-9.948 6.37-44.833 28.83-81.434 54.878-107.732 111.011z" stroke="url(#n)"/><path d="M526.096 652.499l-.003.006c-11.795 25.31-23.099 46.685-33.823 63.657-10.731 16.985-20.846 29.503-30.246 37.152-9.405 7.653-17.923 10.302-25.578 7.963-7.704-2.355-14.902-9.864-21.386-23.433-29.859-71.497-67.094-187.742-69.902-264.285-.819-39.685 22.474-82.481 59.129-112.349 36.635-29.853 86.486-46.681 138.625-34.598 52.784 12.233 90.635.244 120.438-15.113 9.773-5.036 18.72-10.458 27.013-15.484 4.304-2.608 8.432-5.11 12.408-7.395 11.709-6.731 22.126-11.607 32.212-12.243 10.249-.646 27.618.048 45.91 3.601 18.305 3.556 37.416 9.953 51.24 20.637 13.771 10.642 22.286 25.517 19.573 46.213-2.727 20.8-16.812 47.62-48.7 81.991-61.154 65.917-115.21 94.684-160.732 118.91-1.936 1.03-3.856 2.052-5.761 3.068-46.731 24.933-84.239 46.492-110.417 101.702z" stroke="url(#o)"/><path d="M539.73 665.402l-.003.007c-11.631 24.663-22.701 45.326-33.138 61.646-10.445 16.331-20.221 28.256-29.247 35.493-9.031 7.241-17.142 9.664-24.377 7.402-7.284-2.277-14.044-9.407-20.092-22.167-28.402-69.564-64.268-184.506-66.152-257.24-.316-37.883 24.547-79.271 62.612-107.299 38.038-28.008 89.091-42.544 140.953-26.918 52.529 15.827 89.551 4.598 118.511-11.169 10.367-5.643 19.725-11.884 28.358-17.641 3.385-2.258 6.658-4.44 9.836-6.483 11.348-7.295 21.464-12.792 31.385-13.919 10.074-1.145 27.985-1.053 47.064 1.927 19.091 2.982 39.221 8.837 53.825 19.133 14.547 10.255 23.578 24.877 20.714 45.575-2.881 20.823-17.816 47.953-51.751 83.049-67.076 69.372-125.51 94.644-173.789 115.524l-1.603.694c-48.621 21.033-87.045 38.095-113.106 92.386z" stroke="url(#p)"/><path d="M553.529 678.726l-.003.007c-11.466 24.016-22.302 43.968-32.452 59.635-10.158 15.678-19.595 27.009-28.248 33.835-8.656 6.828-16.36 9.026-23.175 6.842-6.865-2.201-13.188-8.952-18.799-20.901-13.461-33.787-28.824-79.102-40.942-124.601-12.125-45.523-20.981-91.158-21.461-125.594.186-36.08 26.616-76.064 66.094-102.253 39.441-26.163 91.698-38.407 143.285-19.238 52.269 19.422 88.463 8.957 116.583-7.222 10.768-6.196 20.367-13.24 29.194-19.716a803.638 803.638 0 0 1 7.771-5.656c10.985-7.859 20.801-13.978 30.558-15.596 9.899-1.641 28.348-2.153 48.216.255 19.877 2.408 41.027 7.72 56.412 17.628 7.682 4.948 13.89 11.017 17.805 18.408 3.909 7.38 5.564 16.137 4.051 26.531-3.034 20.846-18.821 48.288-54.803 84.109-71.887 71.564-133.817 93.337-184.289 110.462l-2.615.886c-49.243 16.695-87.685 29.727-113.182 82.179z" stroke="url(#q)"/><path d="M567.501 692.452l-.004.006c-11.301 23.37-21.902 42.61-31.766 57.624-9.871 15.026-18.969 25.763-27.248 32.177-8.281 6.416-15.577 8.389-21.974 6.283-6.445-2.123-12.332-8.495-17.506-19.635-12.732-32.819-27.389-77.325-38.867-121.782-11.486-44.484-19.768-88.838-19.787-121.367.688-34.276 28.681-72.86 69.576-97.209 40.844-24.319 94.306-34.273 145.621-11.56 25.966 11.492 47.808 14.841 66.596 13.217 18.787-1.623 34.447-8.213 48.055-16.491 11.013-6.699 20.716-14.529 29.623-21.716a917.018 917.018 0 0 1 6.112-4.904c10.621-8.423 20.138-15.164 29.734-17.273 9.722-2.136 28.707-3.25 49.364-1.417 20.662 1.834 42.834 6.603 59.001 16.124 8.073 4.754 14.605 10.667 18.725 17.946 4.113 7.265 5.863 15.957 4.274 26.358-3.188 20.871-19.826 48.625-57.857 85.17-75.954 72.988-140.828 91.477-193.185 104.712-2.242.566-4.462 1.124-6.66 1.675-23.456 5.889-44.4 11.146-62.532 20.483-19.893 10.243-36.399 25.388-49.295 51.579z" stroke="url(#r)"/><path d="M581.638 706.559l-.003.007c-11.137 22.722-21.503 41.251-31.08 55.612-9.585 14.373-18.343 24.516-26.248 30.519-7.906 6.003-14.795 7.752-20.772 5.724-6.027-2.045-11.477-8.039-16.214-18.368-12.003-31.852-25.954-75.549-36.793-118.963-10.847-43.445-18.554-86.518-18.113-117.139.592-16.211 8.25-33.616 21.101-49.815 12.845-16.193 30.832-31.118 51.955-42.355 42.25-22.475 96.917-30.139 147.963-3.882 25.823 13.283 47.39 17.73 65.839 16.698 18.451-1.032 33.695-7.54 46.876-16.021 11.131-7.163 20.826-15.759 29.721-23.646 1.619-1.436 3.212-2.848 4.781-4.224 10.257-8.987 19.476-16.351 28.912-18.951 9.544-2.629 29.063-4.346 50.511-3.087 21.446 1.259 44.64 5.484 61.591 14.617 8.465 4.561 15.32 10.318 19.647 17.487 4.315 7.151 6.16 15.779 4.495 26.186-3.342 20.896-20.832 48.962-60.91 86.232-80.022 74.413-147.84 89.619-202.081 98.967-3.628.625-7.199 1.225-10.712 1.814-22.724 3.815-43.004 7.22-60.561 14.558-20.355 8.508-37.066 22.298-49.905 48.03z" stroke="url(#s)"/><path d="M595.965 721.039l-.003.006c-10.973 22.076-21.104 39.893-30.394 53.601-9.298 13.721-17.717 23.269-25.247 28.86-7.53 5.591-14.012 7.117-19.571 5.167-5.608-1.967-10.622-7.582-14.922-17.101-11.275-30.885-24.519-73.773-34.719-116.145-10.208-42.407-17.341-84.197-16.439-112.909.84-15.303 9.004-31.909 22.493-47.311 13.481-15.393 32.217-29.508 54.044-39.824 43.655-20.631 99.53-26.006 150.308 3.797 25.679 15.071 46.968 20.617 65.077 20.179 18.116-.439 32.945-6.865 45.699-15.551 11.142-7.588 20.738-16.93 29.549-25.508 1.254-1.222 2.493-2.428 3.718-3.611 9.89-9.553 18.813-17.541 28.091-20.631 9.366-3.12 29.416-5.44 51.656-4.755 22.23.684 46.446 4.364 64.182 13.109 8.859 4.368 16.038 9.969 20.571 17.03 4.518 7.037 6.456 15.6 4.716 26.013-3.496 20.923-21.838 49.302-63.965 87.296-84.089 75.839-154.853 87.762-210.978 93.227-5.025.489-9.939.927-14.741 1.354-21.989 1.959-41.611 3.706-58.607 9.231-20.815 6.767-37.735 19.2-50.518 44.476z" stroke="url(#t)"/><path d="M610.48 735.864l-.003.006c-10.808 21.428-20.704 38.534-29.707 51.589-9.011 13.067-17.09 22.021-24.246 27.201-7.154 5.178-13.227 6.481-18.369 4.611-5.19-1.889-9.768-7.126-13.631-15.834-10.547-29.918-23.085-71.998-32.645-113.327-9.57-41.369-16.128-81.876-14.767-108.678 1.087-14.395 9.753-30.202 23.883-44.809 14.118-14.594 33.605-27.901 56.135-37.295 45.062-18.788 102.146-21.873 152.658 11.477 25.532 16.858 46.542 23.503 64.309 23.66 17.783.156 32.197-6.19 44.524-15.081 11.064-7.981 20.486-18.044 29.153-27.301a1482.56 1482.56 0 0 1 2.877-3.067c9.522-10.118 18.15-18.731 27.272-22.313 9.188-3.608 29.767-6.531 52.8-6.422 23.013.109 48.252 3.245 66.773 11.601 9.254 4.175 16.754 9.621 21.494 16.573 4.72 6.926 6.75 15.423 4.94 25.843-3.65 20.95-22.85 49.641-67.021 88.359-88.158 77.266-161.866 85.908-219.879 87.492-6.432.176-12.684.264-18.75.35-21.253.3-40.221.568-56.665 4.45-21.271 5.02-38.405 16.092-51.135 40.915z" stroke="url(#u)"/><path d="M625.202 751.025l-.003.005c-10.643 20.781-20.305 37.175-29.021 49.577-8.724 12.414-16.463 20.774-23.243 25.543-6.777 4.765-12.443 5.847-17.167 4.055-4.773-1.81-8.916-6.668-12.342-14.566-9.819-28.951-21.651-70.222-30.572-110.509-8.93-40.333-14.913-79.555-13.094-104.444 1.331-13.487 10.498-28.498 25.272-42.312 14.754-13.796 34.994-26.294 58.228-34.767 46.469-16.944 104.763-17.741 155.011 19.159 25.384 18.641 46.112 26.387 63.536 27.14 17.451.753 31.452-5.514 43.351-14.611 10.91-8.341 20.098-19.101 28.572-29.024.745-.871 1.483-1.737 2.218-2.593 9.153-10.682 17.486-19.921 26.453-23.996 4.476-2.034 11.989-3.945 21.416-5.403 9.405-1.456 20.643-2.45 32.528-2.683 23.797-.466 50.055 2.124 69.365 10.091 9.65 3.981 17.48 9.273 22.42 16.118 4.93 6.813 7.05 15.246 5.16 25.672-1.9 10.462-7.84 22.955-19.13 37.788-11.28 14.825-27.86 31.938-50.946 51.635-92.227 78.694-168.88 84.056-228.783 81.762-7.497-.287-14.734-.694-21.713-1.094l-1.132-.065c-6.572-.376-12.917-.74-19.022-.981-12.905-.509-24.795-.474-35.611 1.155-10.825 1.63-20.602 4.861-29.267 10.76-8.667 5.902-16.163 14.436-22.484 26.588z" stroke="url(#v)"/><path d="M640.146 766.512l-.002.005c-10.478 20.134-19.905 35.816-28.334 47.564-8.437 11.761-15.835 19.526-22.24 23.884-6.399 4.353-11.656 5.214-15.963 3.503-4.357-1.731-8.065-6.211-11.055-13.299-9.091-27.985-20.218-68.448-28.499-107.692-8.292-39.298-13.699-77.232-11.422-100.208 1.573-12.579 11.238-26.797 26.659-39.82 15.393-12.998 36.385-24.688 60.324-32.239 47.876-15.1 107.383-13.608 157.367 26.843 25.236 20.423 45.679 29.269 62.759 30.619 17.119 1.353 30.708-4.836 42.179-14.141 10.692-8.673 19.596-20.099 27.837-30.673l1.709-2.192c8.783-11.245 16.822-21.113 25.635-25.681 4.385-2.272 11.981-4.456 21.625-6.2 9.617-1.74 21.187-3.028 33.463-3.548 24.582-1.042 51.862 1.002 71.962 8.579 10.04 3.788 18.19 8.925 23.35 15.664 5.12 6.703 7.34 15.07 5.37 25.503-1.97 10.473-8.16 23.051-19.94 38.059-11.78 15-29.08 32.371-53.19 52.429-48.172 40.082-92.151 60.62-131.781 70.376-39.635 9.758-74.976 8.747-105.907 5.658-9.363-.935-18.289-2.056-26.818-3.127-5.59-.702-11.01-1.383-16.272-1.976-13.246-1.493-25.415-2.42-36.446-1.664-11.041.757-20.986 3.202-29.76 8.484-8.781 5.285-16.318 13.369-22.61 25.29z" stroke="url(#w)"/><path d="M655.336 782.305l-.003.005c-10.313 19.486-19.505 34.456-27.645 45.551-8.15 11.107-15.207 18.277-21.236 22.224-6.019 3.94-10.868 4.582-14.76 2.952-3.941-1.65-7.216-5.753-9.77-12.03-8.362-27.02-18.783-66.674-26.425-104.877-7.655-38.265-12.485-74.908-9.752-95.968 1.812-11.673 11.974-25.101 28.046-37.333 16.032-12.202 37.778-23.083 62.422-29.712 49.285-13.256 110.005-9.474 159.726 34.53 25.087 22.202 45.245 32.147 61.976 34.096 16.789 1.955 29.966-4.158 41.009-13.67 10.422-8.979 19.001-21.04 26.974-32.248.444-.625.886-1.247 1.327-1.865 4.188-5.88 8.225-11.458 12.315-16.213 4.094-4.758 8.198-8.638 12.502-11.154 4.294-2.51 11.973-4.966 21.834-6.996 9.83-2.024 21.731-3.607 34.404-4.414 25.36-1.617 53.67-.12 74.54 7.068 10.44 3.593 18.93 8.576 24.29 15.21 5.32 6.592 7.63 14.895 5.59 25.334-2.05 10.485-8.49 23.148-20.76 38.331-12.27 15.174-30.3 32.804-55.43 53.222-50.207 40.798-95.94 60.871-137.051 69.503-41.116 8.633-77.667 5.835-109.547.806-10.819-1.707-21.079-3.666-30.808-5.525-4.621-.882-9.121-1.742-13.505-2.54-13.586-2.476-26.034-4.363-37.279-4.479-11.252-.117-21.362 1.539-30.246 6.2-8.896 4.668-16.475 12.302-22.738 23.992z" stroke="url(#x)"/><path d="M670.793 798.4l-.002.004c-10.148 18.839-19.105 33.096-26.958 43.538-7.861 10.454-14.577 17.028-20.228 20.564-5.64 3.527-10.08 3.952-13.557 2.405-3.527-1.569-6.369-5.295-8.487-10.761-7.635-26.055-17.35-64.902-24.353-102.064-3.503-18.59-6.325-36.744-7.869-52.656-1.545-15.926-1.802-29.532-.215-39.068 1.02-5.357 4.175-11.204 9.208-17.168 5.029-5.959 11.889-11.982 20.225-17.685 16.673-11.406 39.174-21.478 64.523-27.185 50.695-11.412 112.629-5.34 162.088 42.219 24.938 23.98 44.809 35.023 61.189 37.572 16.459 2.56 29.226-3.478 39.839-13.2 10.107-9.258 18.327-21.92 26.005-33.744l1.048-1.615c4.004-6.159 7.874-12.035 11.825-17.082 3.954-5.049 7.948-9.211 12.176-11.973 4.204-2.746 11.966-5.473 22.044-7.79 10.046-2.308 22.276-4.185 35.336-5.28 26.14-2.193 55.48-1.243 77.14 5.555 10.83 3.399 19.65 8.228 25.21 14.757 5.53 6.483 7.93 14.721 5.82 25.166-2.13 10.497-8.82 23.246-21.58 38.604-12.76 15.348-31.52 33.237-57.67 54.016-52.25 41.513-99.733 61.122-142.324 68.63-42.598 7.508-80.362 2.923-113.191-4.046-12.295-2.61-23.882-5.55-34.783-8.316-3.662-.929-7.246-1.839-10.754-2.71-13.927-3.457-26.652-6.305-38.109-7.292-11.461-.988-21.734-.122-30.725 3.914-9.012 4.046-16.635 11.231-22.871 22.691z" stroke="url(#y)"/><path d="M686.545 814.78l-.001.003c-9.984 18.191-18.705 31.736-26.269 41.524-7.574 9.8-13.947 15.779-19.22 18.903-5.257 3.115-9.288 3.326-12.352 1.862-3.115-1.487-5.525-4.837-7.208-9.491-6.907-25.09-15.917-63.132-22.281-99.253-3.184-18.069-5.702-35.643-6.965-50.866-1.265-15.244-1.262-28.041.547-36.609 1.134-4.901 4.466-10.329 9.744-15.892 5.269-5.556 12.421-11.185 21.078-16.489 17.314-10.61 40.571-19.873 66.625-24.657 52.105-9.568 115.255-1.206 164.451 49.91 24.791 25.757 44.372 37.896 60.399 41.045 16.13 3.168 28.488-2.798 38.671-12.729 9.752-9.513 17.589-22.739 24.947-35.158l.856-1.445c3.818-6.439 7.521-12.613 11.333-17.951 3.815-5.342 7.697-9.786 11.85-12.794 4.11-2.981 11.96-5.98 22.25-8.583 10.26-2.593 22.82-4.764 36.27-6.146 26.93-2.769 57.29-2.366 79.74 4.041 11.23 3.204 20.37 7.879 26.15 14.304 5.73 6.375 8.22 14.549 6.03 24.998-2.2 10.51-9.15 23.345-22.4 38.879-13.25 15.521-32.73 33.67-59.9 54.808-54.29 42.23-103.532 61.375-147.604 67.759-44.08 6.384-83.058.012-116.837-8.896-13.789-3.637-26.698-7.692-38.745-11.476-2.716-.853-5.389-1.693-8.018-2.511-14.269-4.439-27.27-8.245-38.937-10.103-11.667-1.857-22.1-1.783-31.197 1.626-9.129 3.421-16.798 10.155-23.007 21.387z" stroke="url(#z)"/><path d="M702.562 831.46v.001c-9.819 17.543-18.304 30.375-25.58 39.509-7.285 9.146-13.315 14.529-18.208 17.243-4.872 2.702-8.493 2.701-11.146 1.323-2.705-1.404-4.685-4.378-5.932-8.218-6.181-24.127-14.486-61.365-20.212-96.447-2.863-17.549-5.079-34.543-6.061-49.077-.984-14.565-.721-26.547 1.306-34.143 1.245-4.447 4.752-9.459 10.279-14.625 5.511-5.153 12.955-10.388 21.934-15.295 17.958-9.813 41.97-18.267 68.731-22.129 53.515-7.722 117.881 2.931 166.816 57.605 24.643 27.533 43.934 40.766 59.604 44.515 15.801 3.781 27.752-2.115 37.503-12.257 9.367-9.743 16.797-23.495 23.814-36.487.25-.454.49-.907.74-1.359 3.63-6.717 7.17-13.19 10.84-18.819 3.67-5.634 7.44-10.361 11.52-13.617 4.03-3.216 11.96-6.486 22.47-9.375 10.47-2.877 23.36-5.342 37.2-7.012 27.72-3.344 59.09-3.489 82.33 2.526 11.63 3.009 21.1 7.531 27.08 13.852 5.94 6.267 8.52 14.377 6.26 24.832-2.28 10.523-9.48 23.444-23.22 39.152-13.74 15.696-33.95 34.103-62.15 55.602-56.32 42.945-107.32 61.628-152.872 66.887-45.563 5.261-85.754-2.898-120.485-13.747-15.298-4.778-29.523-10.074-42.692-14.976-1.785-.665-3.551-1.322-5.297-1.97-14.611-5.42-27.889-10.185-39.765-12.911-11.872-2.725-22.461-3.443-31.661-.664-9.246 2.792-16.962 9.075-23.146 20.081z" stroke="url(#A)"/></g><defs><linearGradient id="a" x1="236.857" y1="-29.958" x2="431.693" y2="697.181" gradientUnits="userSpaceOnUse"><stop stop-color="#DC4CD7"/><stop offset="1" stop-color="#E2A7E0"/></linearGradient><linearGradient id="b" x1="901.816" y1="629.834" x2="975.765" y2="905.815" gradientUnits="userSpaceOnUse"><stop stop-color="#DC4CD7"/><stop offset="1" stop-color="#E2A7E0"/></linearGradient><linearGradient id="c" x1="261.681" y1="-4.381" x2="449.381" y2="696.125" gradientUnits="userSpaceOnUse"><stop stop-color="#DC4CD7"/><stop offset="1" stop-color="#E2A7E0"/></linearGradient><linearGradient id="d" x1="286.663" y1="21.155" x2="467.244" y2="695.094" gradientUnits="userSpaceOnUse"><stop stop-color="#DC4CD7"/><stop offset="1" stop-color="#E2A7E0"/></linearGradient><linearGradient id="e" x1="311.774" y1="46.655" x2="485.263" y2="694.127" gradientUnits="userSpaceOnUse"><stop stop-color="#DC4CD7"/><stop offset="1" stop-color="#E2A7E0"/></linearGradient><linearGradient id="f" x1="336.97" y1="72.137" x2="503.409" y2="693.295" gradientUnits="userSpaceOnUse"><stop stop-color="#DC4CD7"/><stop offset="1" stop-color="#E2A7E0"/></linearGradient><linearGradient id="g" x1="362.233" y1="97.595" x2="521.682" y2="692.664" gradientUnits="userSpaceOnUse"><stop stop-color="#DC4CD7"/><stop offset="1" stop-color="#E2A7E0"/></linearGradient><linearGradient id="h" x1="387.548" y1="123.041" x2="540.086" y2="692.319" gradientUnits="userSpaceOnUse"><stop stop-color="#DC4CD7"/><stop offset="1" stop-color="#E2A7E0"/></linearGradient><linearGradient id="i" x1="412.904" y1="148.476" x2="558.624" y2="692.311" gradientUnits="userSpaceOnUse"><stop stop-color="#DC4CD7"/><stop offset="1" stop-color="#E2A7E0"/></linearGradient><linearGradient id="j" x1="438.299" y1="173.904" x2="577.298" y2="692.655" gradientUnits="userSpaceOnUse"><stop stop-color="#DC4CD7"/><stop offset="1" stop-color="#E2A7E0"/></linearGradient><linearGradient id="k" x1="463.721" y1="199.319" x2="596.472" y2="694.756" gradientUnits="userSpaceOnUse"><stop stop-color="#DC4CD7"/><stop offset="1" stop-color="#E2A7E0"/></linearGradient><linearGradient id="l" x1="489.17" y1="224.731" x2="616.387" y2="699.515" gradientUnits="userSpaceOnUse"><stop stop-color="#DC4CD7"/><stop offset="1" stop-color="#E2A7E0"/></linearGradient><linearGradient id="m" x1="514.649" y1="250.133" x2="636.482" y2="704.821" gradientUnits="userSpaceOnUse"><stop stop-color="#DC4CD7"/><stop offset="1" stop-color="#E2A7E0"/></linearGradient><linearGradient id="n" x1="540.146" y1="275.531" x2="656.736" y2="710.651" gradientUnits="userSpaceOnUse"><stop stop-color="#DC4CD7"/><stop offset="1" stop-color="#E2A7E0"/></linearGradient><linearGradient id="o" x1="565.678" y1="300.918" x2="677.159" y2="716.969" gradientUnits="userSpaceOnUse"><stop stop-color="#DC4CD7"/><stop offset="1" stop-color="#E2A7E0"/></linearGradient><linearGradient id="p" x1="591.234" y1="326.301" x2="697.732" y2="723.759" gradientUnits="userSpaceOnUse"><stop stop-color="#DC4CD7"/><stop offset="1" stop-color="#E2A7E0"/></linearGradient><linearGradient id="q" x1="616.82" y1="351.675" x2="718.458" y2="730.992" gradientUnits="userSpaceOnUse"><stop stop-color="#DC4CD7"/><stop offset="1" stop-color="#E2A7E0"/></linearGradient><linearGradient id="r" x1="642.443" y1="377.039" x2="739.337" y2="738.652" gradientUnits="userSpaceOnUse"><stop stop-color="#DC4CD7"/><stop offset="1" stop-color="#E2A7E0"/></linearGradient><linearGradient id="s" x1="668.095" y1="402.392" x2="760.357" y2="746.719" gradientUnits="userSpaceOnUse"><stop stop-color="#DC4CD7"/><stop offset="1" stop-color="#E2A7E0"/></linearGradient><linearGradient id="t" x1="693.798" y1="427.739" x2="781.537" y2="755.185" gradientUnits="userSpaceOnUse"><stop stop-color="#DC4CD7"/><stop offset="1" stop-color="#E2A7E0"/></linearGradient><linearGradient id="u" x1="719.545" y1="453.067" x2="802.866" y2="764.026" gradientUnits="userSpaceOnUse"><stop stop-color="#DC4CD7"/><stop offset="1" stop-color="#E2A7E0"/></linearGradient><linearGradient id="v" x1="745.35" y1="478.38" x2="824.356" y2="773.235" gradientUnits="userSpaceOnUse"><stop stop-color="#DC4CD7"/><stop offset="1" stop-color="#E2A7E0"/></linearGradient><linearGradient id="w" x1="771.22" y1="503.68" x2="846.012" y2="782.806" gradientUnits="userSpaceOnUse"><stop stop-color="#DC4CD7"/><stop offset="1" stop-color="#E2A7E0"/></linearGradient><linearGradient id="x" x1="797.168" y1="528.954" x2="867.845" y2="792.723" gradientUnits="userSpaceOnUse"><stop stop-color="#DC4CD7"/><stop offset="1" stop-color="#E2A7E0"/></linearGradient><linearGradient id="y" x1="823.206" y1="554.208" x2="892.785" y2="813.882" gradientUnits="userSpaceOnUse"><stop stop-color="#DC4CD7"/><stop offset="1" stop-color="#E2A7E0"/></linearGradient><linearGradient id="z" x1="849.349" y1="579.432" x2="920.248" y2="844.031" gradientUnits="userSpaceOnUse"><stop stop-color="#DC4CD7"/><stop offset="1" stop-color="#E2A7E0"/></linearGradient><linearGradient id="A" x1="875.577" y1="604.637" x2="947.935" y2="874.68" gradientUnits="userSpaceOnUse"><stop stop-color="#DC4CD7"/><stop offset="1" stop-color="#E2A7E0"/></linearGradient></defs></svg>