<svg width="1440" height="872" viewBox="0 0 1440 872" fill="none" xmlns="http://www.w3.org/2000/svg"><g opacity=".14" stroke-opacity=".7" stroke-width="2.026"><path opacity=".014" d="M-617.628 884.16l-54.043-325.333c-1.05-6.32.438-12.8 4.14-18.029l272.762-385.316a24.307 24.307 0 0 1 11.782-8.889L7.093 9.523a24.309 24.309 0 0 1 24.823 5.33L240.172 213.2a24.309 24.309 0 0 1 6.534 24.534L128.802 634.028a24.32 24.32 0 0 1-8.304 12.201l-371.571 291.21a24.306 24.306 0 0 1-17.805 5.013l-327.58-38.13a24.31 24.31 0 0 1-21.17-20.162z" stroke="url(#a)"/><path opacity=".029" d="M-575.048 913.522l-70.999-319.637a24.31 24.31 0 0 1 3.176-18.248l249.716-395.516a24.316 24.316 0 0 1 11.337-9.516L-2.528 15.173a24.309 24.309 0 0 1 25.038 4.038l217.052 186.061a24.308 24.308 0 0 1 7.817 24.126L151.75 627.989a24.307 24.307 0 0 1-7.671 12.659l-352.697 307.238a24.313 24.313 0 0 1-17.549 5.928L-552.9 932.508a24.309 24.309 0 0 1-22.148-18.986z" stroke="url(#b)"/><path opacity=".043" d="M-531.846 941.409l-87.505-313.064a24.31 24.31 0 0 1 2.199-18.417l226.357-404.369a24.309 24.309 0 0 1 10.86-10.12L-12.281 22.395a24.309 24.309 0 0 1 25.185 2.735l225.137 173.403a24.31 24.31 0 0 1 9.076 23.652l-73.441 399.65a24.313 24.313 0 0 1-7.012 13.084l-333.173 322.097a24.307 24.307 0 0 1-17.245 6.829l-325.031-4.674a24.308 24.308 0 0 1-23.061-17.762z" stroke="url(#c)"/><path opacity=".058" d="M-488.104 967.799l-103.519-305.647a24.307 24.307 0 0 1 1.215-18.534l202.761-411.869a24.312 24.312 0 0 1 10.35-10.702L-22.073 31.176a24.309 24.309 0 0 1 25.264 1.43l232.497 160.411a24.312 24.312 0 0 1 10.305 23.111l-51.407 399.49a24.308 24.308 0 0 1-6.331 13.475l-313.068 335.763a24.312 24.312 0 0 1-16.896 7.715l-322.489 11.723a24.309 24.309 0 0 1-23.906-16.495z" stroke="url(#d)"/><path opacity=".072" d="M-443.904 992.684L-562.9 695.264a24.31 24.31 0 0 1 .223-18.599l179.007-418.018a24.313 24.313 0 0 1 9.81-11.258L-31.813 41.512a24.309 24.309 0 0 1 25.274.123L232.58 188.764a24.31 24.31 0 0 1 11.503 22.505l-29.595 398.128a24.311 24.311 0 0 1-5.627 13.831L-83.592 971.444a24.31 24.31 0 0 1-16.501 8.583l-319.129 27.843a24.313 24.313 0 0 1-24.682-15.186z" stroke="url(#e)"/><path opacity=".087" d="M-399.338 1016.05l-133.897-288.422a24.31 24.31 0 0 1-.772-18.611l155.171-422.819a24.3 24.3 0 0 1 9.241-11.787L-41.421 53.379a24.308 24.308 0 0 1 25.217-1.18l244.992 133.595a24.308 24.308 0 0 1 12.666 21.837l-8.07 395.586a24.311 24.311 0 0 1-4.903 14.153L-42.918 976.81a24.31 24.31 0 0 1-16.063 9.43l-314.972 43.65c-10.585 1.46-20.886-4.15-25.385-13.84z" stroke="url(#f)"/><path opacity=".101" d="M-354.492 1037.88l-148.182-278.676a24.307 24.307 0 0 1-1.768-18.569l131.326-426.282a24.305 24.305 0 0 1 8.644-12.288l313.66-235.306a24.309 24.309 0 0 1 25.093-2.476l250.108 119.852a24.308 24.308 0 0 1 13.79 21.109l13.107 391.893a24.306 24.306 0 0 1-4.162 14.436L-2.853 980.997a24.313 24.313 0 0 1-15.58 10.256l-310.044 59.097a24.316 24.316 0 0 1-26.015-12.47z" stroke="url(#g)"/><path opacity=".116" d="M-309.449 1058.2l-161.818-268.245a24.31 24.31 0 0 1-2.762-18.475l107.549-428.418a24.305 24.305 0 0 1 8.02-12.759L-59.9 81.629A24.308 24.308 0 0 1-35 77.866l254.463 105.942a24.307 24.307 0 0 1 14.872 20.322l33.873 387.078a24.306 24.306 0 0 1-3.405 14.681L36.543 984.05a24.308 24.308 0 0 1-15.057 11.056l-304.367 74.154a24.323 24.323 0 0 1-26.568-11.06z" stroke="url(#h)"/><path opacity=".13" d="M-264.299 1076.98l-174.768-257.143a24.31 24.31 0 0 1-3.752-18.327l83.912-429.244a24.315 24.315 0 0 1 7.371-13.2L-68.612 97.952a24.308 24.308 0 0 1 24.642-5.036l258.053 91.908a24.31 24.31 0 0 1 15.911 19.479l54.168 381.172a24.306 24.306 0 0 1-2.633 14.887L75.211 986.01a24.309 24.309 0 0 1-14.493 11.83l-297.971 88.78a24.32 24.32 0 0 1-27.046-9.64z" stroke="url(#i)"/><path opacity=".145" d="M-219.119 1094.27l-187.003-245.443a24.313 24.313 0 0 1-4.735-18.128l60.487-428.781a24.302 24.302 0 0 1 6.698-13.607l266.81-272.608a24.31 24.31 0 0 1 24.319-6.292l260.875 77.79a24.309 24.309 0 0 1 16.902 18.583l73.938 374.213a24.309 24.309 0 0 1-1.848 15.054L113.1 986.935a24.305 24.305 0 0 1-13.889 12.574l-290.885 102.941a24.31 24.31 0 0 1-27.445-8.18z" stroke="url(#j)"/><path opacity=".159" d="M-174 1110.05l-198.495-233.165a24.31 24.31 0 0 1-5.706-17.875l37.342-427.053a24.305 24.305 0 0 1 6.003-13.982l250.274-283.138a24.31 24.31 0 0 1 23.931-7.528l262.934 63.629a24.31 24.31 0 0 1 17.841 17.636l93.128 366.24a24.309 24.309 0 0 1-1.054 15.18L150.153 986.869a24.317 24.317 0 0 1-13.248 13.291l-283.138 116.61a24.301 24.301 0 0 1-27.767-6.72z" stroke="url(#k)"/><path opacity=".174" d="M-129.019 1124.35l-209.216-220.363a24.307 24.307 0 0 1-6.666-17.57l14.546-424.09a24.308 24.308 0 0 1 5.288-14.321l233.372-292.694a24.307 24.307 0 0 1 23.48-8.739l264.229 49.467a24.309 24.309 0 0 1 18.729 16.641l111.686 357.294a24.303 24.303 0 0 1-.251 15.264l-139.853 400.63a24.31 24.31 0 0 1-12.57 13.969L-101.009 1129.6a24.315 24.315 0 0 1-28.01-5.25z" stroke="url(#l)"/><path opacity=".188" d="M-84.257 1137.2l-219.147-207.089a24.314 24.314 0 0 1-7.608-17.215l-7.837-419.921a24.306 24.306 0 0 1 4.554-14.624l216.16-301.267a24.307 24.307 0 0 1 22.967-9.923l264.77 35.345a24.309 24.309 0 0 1 19.56 15.601l129.563 347.419a24.302 24.302 0 0 1 .558 15.307L221.569 983.994a24.31 24.31 0 0 1-11.858 14.615L-56.084 1140.96a24.299 24.299 0 0 1-28.173-3.76z" stroke="url(#m)"/><path opacity=".203" d="M-39.794 1148.62l-228.264-193.388a24.309 24.309 0 0 1-8.533-16.808l-29.742-414.583a24.308 24.308 0 0 1 3.803-14.891l198.694-308.849a24.309 24.309 0 0 1 22.394-11.078l264.562 21.304a24.31 24.31 0 0 1 20.333 14.519l146.715 336.662a24.316 24.316 0 0 1 1.371 15.308l-95.697 404.482a24.305 24.305 0 0 1-11.112 15.226L-11.538 1150.89a24.308 24.308 0 0 1-28.256-2.27z" stroke="url(#n)"/><path opacity=".217" d="M4.3 1158.64l-236.552-179.304a24.31 24.31 0 0 1-9.436-16.352l-51.11-408.115a24.304 24.304 0 0 1 3.037-15.12l181.03-315.437a24.307 24.307 0 0 1 21.763-12.199l263.615 7.38a24.31 24.31 0 0 1 21.047 13.398l163.097 325.072a24.311 24.311 0 0 1 2.186 15.267l-73.865 404.615a24.31 24.31 0 0 1-10.336 15.799L32.561 1159.43a24.329 24.329 0 0 1-28.26-.79z" stroke="url(#o)"/><path opacity=".232" d="M47.951 1167.29l-243.996-164.88a24.324 24.324 0 0 1-10.316-15.85l-71.882-400.557a24.303 24.303 0 0 1 2.258-15.311l163.223-321.033a24.31 24.31 0 0 1 21.076-13.284l261.942-6.384a24.308 24.308 0 0 1 21.698 12.241l178.67 312.7a24.302 24.302 0 0 1 3.001 15.182l-52.282 403.584a24.309 24.309 0 0 1-9.532 16.331L76.137 1166.6a24.309 24.309 0 0 1-28.186.69z" stroke="url(#p)"/><path opacity=".246" d="M91.077 1174.62l-250.584-150.19a24.297 24.297 0 0 1-11.169-15.29l-92.005-391.957a24.313 24.313 0 0 1 1.467-15.462l145.33-325.639a24.305 24.305 0 0 1 20.335-14.33l259.555-19.955a24.31 24.31 0 0 1 22.287 11.053L379.69 552.449a24.304 24.304 0 0 1 3.813 15.055l-31.011 401.413a24.303 24.303 0 0 1-8.699 16.822L119.11 1172.46a24.316 24.316 0 0 1-28.033 2.16z" stroke="url(#q)"/><path opacity=".261" d="M133.626 1180.67l-256.307-135.26a24.278 24.278 0 0 1-11.993-14.7l-111.425-382.351a24.3 24.3 0 0 1 .667-15.573l127.402-329.262a24.307 24.307 0 0 1 19.541-15.334l256.474-33.293a24.308 24.308 0 0 1 22.809 9.837L388.04 550.555a24.303 24.303 0 0 1 4.621 14.887l-10.11 398.131a24.311 24.311 0 0 1-7.842 17.273l-213.28 196.214a24.318 24.318 0 0 1-27.803 3.61z" stroke="url(#r)"/><path opacity=".275" d="M175.53 1185.48l-261.16-120.14a24.314 24.314 0 0 1-12.785-14.06l-130.096-371.806a24.314 24.314 0 0 1-.14-15.644l109.496-331.912a24.307 24.307 0 0 1 18.698-16.293l252.712-46.364a24.304 24.304 0 0 1 23.264 8.595l220.188 271.425a24.312 24.312 0 0 1 5.422 14.675l10.363 393.775a24.311 24.311 0 0 1-6.963 17.678L203.026 1180.43a24.3 24.3 0 0 1-27.496 5.05z" stroke="url(#s)"/><path opacity=".29" d="M216.72 1189.1l-265.139-104.89a24.312 24.312 0 0 1-13.543-13.37l-147.97-360.369a24.312 24.312 0 0 1-.953-15.673l91.661-333.599a24.31 24.31 0 0 1 17.808-17.207l248.291-59.133a24.307 24.307 0 0 1 23.652 7.332l232.194 256.468a24.31 24.31 0 0 1 6.214 14.42l30.354 388.377a24.306 24.306 0 0 1-6.063 18.04L243.835 1182.65a24.31 24.31 0 0 1-27.115 6.45z" stroke="url(#t)"/><path opacity=".304" d="M257.143 1191.59l-268.244-89.57a24.317 24.317 0 0 1-14.266-12.64l-165.005-348.084a24.305 24.305 0 0 1-1.769-15.663l73.95-334.338a24.306 24.306 0 0 1 16.873-18.07l243.231-71.57a24.31 24.31 0 0 1 23.971 6.052l243.242 241.007a24.304 24.304 0 0 1 6.995 14.124l49.811 381.977a24.307 24.307 0 0 1-5.145 18.356L283.802 1183.75a24.323 24.323 0 0 1-26.659 7.84z" stroke="url(#u)"/><path opacity=".319" d="M296.746 1193l-270.478-74.21a24.339 24.339 0 0 1-14.95-11.88l-181.165-335.012a24.31 24.31 0 0 1-2.587-15.609l56.413-334.149a24.307 24.307 0 0 1 15.896-18.883l237.557-83.639a24.308 24.308 0 0 1 24.219 4.758l253.314 225.1a24.313 24.313 0 0 1 7.763 13.787l68.682 374.615a24.308 24.308 0 0 1-4.21 18.625L322.877 1183.8a24.306 24.306 0 0 1-26.131 9.2z" stroke="url(#v)"/><path opacity=".333" d="M335.47 1193.38l-271.845-58.86a24.32 24.32 0 0 1-15.594-11.08l-196.412-321.214a24.307 24.307 0 0 1-3.404-15.515l39.096-333.051a24.308 24.308 0 0 1 14.881-19.64l231.29-95.314a24.308 24.308 0 0 1 24.398 3.455l262.393 208.808a24.303 24.303 0 0 1 8.515 13.409l86.923 366.335a24.311 24.311 0 0 1-3.262 18.848L361.004 1182.86a24.305 24.305 0 0 1-25.534 10.52z" stroke="url(#w)"/><path opacity=".348" d="M373.279 1192.8l-272.354-43.58a24.326 24.326 0 0 1-16.195-10.24l-210.717-306.753a24.303 24.303 0 0 1-4.218-15.379l22.048-331.065a24.308 24.308 0 0 1 13.829-20.344l224.459-106.563a24.306 24.306 0 0 1 24.505 2.145l270.467 192.192a24.308 24.308 0 0 1 9.25 12.99l104.488 357.183a24.307 24.307 0 0 1-2.303 19.022L398.148 1181a24.308 24.308 0 0 1-24.869 11.8z" stroke="url(#x)"/><path opacity=".362" d="M410.123 1191.32l-272.016-28.42a24.295 24.295 0 0 1-16.752-9.37l-224.051-291.675a24.317 24.317 0 0 1-5.028-15.201l5.313-328.217a24.31 24.31 0 0 1 12.745-20.991l217.089-117.361a24.31 24.31 0 0 1 24.542.833l277.526 175.31a24.31 24.31 0 0 1 9.966 12.532l121.339 347.207a24.307 24.307 0 0 1-1.336 19.147L434.261 1178.27a24.31 24.31 0 0 1-24.138 13.05z" stroke="url(#y)"/><path opacity=".377" d="M445.969 1189l-270.844-13.4a24.327 24.327 0 0 1-17.262-8.47L-78.528 891.066a24.312 24.312 0 0 1-5.83-14.982l-11.067-324.535a24.308 24.308 0 0 1 11.63-21.578l209.209-127.683a24.308 24.308 0 0 1 24.508-.478l283.567 158.225a24.303 24.303 0 0 1 10.659 12.035l137.436 336.456a24.308 24.308 0 0 1-.361 19.224l-111.91 247.01a24.294 24.294 0 0 1-23.344 14.24z" stroke="url(#z)"/><path opacity=".391" d="M480.769 1185.91l-268.854 1.4a24.274 24.274 0 0 1-17.724-7.54L-53.526 919.809a24.307 24.307 0 0 1-6.624-14.722L-87.2 585.041a24.31 24.31 0 0 1 10.49-22.106L124.14 425.43a24.31 24.31 0 0 1 24.403-1.783l288.586 140.994a24.31 24.31 0 0 1 11.329 11.501l152.746 324.981a24.304 24.304 0 0 1 .616 19.252l-98.562 250.135a24.305 24.305 0 0 1-22.489 15.4z" stroke="url(#A)"/><path opacity=".406" d="M514.503 1182.11l-266.062 15.96a24.324 24.324 0 0 1-18.138-6.58l-258.01-243.446a24.306 24.306 0 0 1-7.407-14.421l-42.597-314.784a24.309 24.309 0 0 1 9.326-22.572l192.039-146.805a24.31 24.31 0 0 1 24.228-3.079l292.587 123.679a24.302 24.302 0 0 1 11.973 10.93l167.237 312.835a24.311 24.311 0 0 1 1.596 19.229l-85.194 252.564a24.313 24.313 0 0 1-21.578 16.49z" stroke="url(#B)"/><path opacity=".42" d="M547.14 1177.67l-262.492 30.23a24.324 24.324 0 0 1-18.5-5.6L-1.114 975.731a24.31 24.31 0 0 1-8.176-14.08L-66.962 652.87a24.308 24.308 0 0 1 8.142-22.976L123.992 474.33a24.306 24.306 0 0 1 23.982-4.361l295.575 106.338a24.302 24.302 0 0 1 12.59 10.323l180.88 300.072a24.306 24.306 0 0 1 2.574 19.158l-71.841 254.27a24.305 24.305 0 0 1-20.612 17.54z" stroke="url(#C)"/><path opacity=".435" d="M578.661 1172.67l-258.165 44.16a24.307 24.307 0 0 1-18.81-4.6l-275.46-209.4a24.298 24.298 0 0 1-8.932-13.697l-72.24-302.072a24.309 24.309 0 0 1 6.941-23.317l173.198-163.763a24.312 24.312 0 0 1 23.669-5.626l297.557 89.029a24.308 24.308 0 0 1 13.177 9.683l193.653 286.746a24.308 24.308 0 0 1 3.549 19.038l-58.543 255.289a24.325 24.325 0 0 1-19.594 18.53z" stroke="url(#D)"/><path opacity=".449" d="M609.036 1167.16l-253.106 57.73c-6.578 1.5-13.485.2-19.066-3.59l-282.603-192a24.292 24.292 0 0 1-9.669-13.28l-86.269-294.688a24.309 24.309 0 0 1 5.727-23.594l163.232-171.387a24.309 24.309 0 0 1 23.287-6.87l298.546 71.809a24.316 24.316 0 0 1 13.733 9.011l205.534 272.914a24.306 24.306 0 0 1 4.517 18.868L627.565 1147.7a24.324 24.324 0 0 1-18.529 19.46z" stroke="url(#E)"/><path opacity=".464" d="M638.263 1161.22l-247.342 70.89c-6.5 1.86-13.482.93-19.269-2.56L82.966 1055.12a24.318 24.318 0 0 1-10.388-12.82l-99.73-286.682a24.307 24.307 0 0 1 4.504-23.807l152.946-178.422a24.31 24.31 0 0 1 22.839-8.089l298.556 54.736a24.304 24.304 0 0 1 14.256 8.307l216.506 258.631a24.308 24.308 0 0 1 5.477 18.651l-32.25 255.275a24.319 24.319 0 0 1-17.419 20.32z" stroke="url(#F)"/><path opacity=".478" d="M666.321 1154.92l-240.902 83.6a24.316 24.316 0 0 1-19.416-1.52l-293.714-156.76a24.29 24.29 0 0 1-11.086-12.32L-11.39 789.843a24.309 24.309 0 0 1 3.273-23.956l142.375-184.853a24.309 24.309 0 0 1 22.326-9.281l297.607 37.864a24.301 24.301 0 0 1 14.745 7.572l226.553 243.957a24.302 24.302 0 0 1 6.426 18.383L682.59 1133.79a24.317 24.317 0 0 1-16.269 21.13z" stroke="url(#G)"/><path opacity=".493" d="M693.207 1148.32l-233.818 95.84a24.343 24.343 0 0 1-19.507-.47L142.19 1104.64a24.273 24.273 0 0 1-11.762-11.79L5.592 823.936a24.308 24.308 0 0 1 2.04-24.04l131.555-190.672a24.307 24.307 0 0 1 21.75-10.442l295.719 21.245a24.304 24.304 0 0 1 15.196 6.811l235.667 228.945a24.308 24.308 0 0 1 7.361 18.07l-6.591 252.607a24.309 24.309 0 0 1-15.082 21.86z" stroke="url(#H)"/><path opacity=".507" d="M718.923 1141.51l-226.122 107.55a24.306 24.306 0 0 1-19.541.59L172.63 1128.3a24.295 24.295 0 0 1-12.412-11.22L23.78 857.831a24.31 24.31 0 0 1 .808-24.06L145.107 637.9a24.307 24.307 0 0 1 21.112-11.566l292.917 4.932a24.3 24.3 0 0 1 15.61 6.022l243.838 213.655a24.311 24.311 0 0 1 8.282 17.709l5.918 250.328a24.31 24.31 0 0 1-13.861 22.53z" stroke="url(#I)"/><path opacity=".522" d="M743.466 1134.54l-217.849 118.73a24.324 24.324 0 0 1-19.517 1.65l-302.542-103.74a24.301 24.301 0 0 1-13.037-10.61L43.146 891.459a24.309 24.309 0 0 1-.42-24.015l109.302-200.443a24.306 24.306 0 0 1 20.415-12.653l289.226-11.026a24.301 24.301 0 0 1 15.986 5.209l251.063 198.143a24.308 24.308 0 0 1 9.183 17.301l18.175 247.435a24.315 24.315 0 0 1-12.61 23.13z" stroke="url(#J)"/><path opacity=".536" d="M766.842 1127.49L557.81 1256.83a24.324 24.324 0 0 1-19.438 2.71l-303.443-86.26a24.31 24.31 0 0 1-13.633-9.98L63.663 924.758a24.31 24.31 0 0 1-1.641-23.907l97.94-204.383a24.31 24.31 0 0 1 19.662-13.698l284.678-26.582a24.307 24.307 0 0 1 16.32 4.374l257.342 182.466a24.307 24.307 0 0 1 10.065 16.848l30.147 243.954a24.326 24.326 0 0 1-11.334 23.66z" stroke="url(#K)"/><path opacity=".551" d="M789.059 1120.41l-199.71 139.36a24.333 24.333 0 0 1-19.301 3.76l-303.353-68.98a24.28 24.28 0 0 1-14.2-9.31L85.298 957.66a24.309 24.309 0 0 1-2.85-23.735l86.468-207.69a24.31 24.31 0 0 1 18.852-14.699l279.305-41.688a24.315 24.315 0 0 1 16.613 3.517l262.677 166.68a24.306 24.306 0 0 1 10.924 16.351l41.809 239.904a24.305 24.305 0 0 1-10.037 24.11z" stroke="url(#L)"/><path opacity=".565" d="M810.136 1113.39l-189.921 148.75a24.321 24.321 0 0 1-19.105 4.82l-302.296-51.95a24.367 24.367 0 0 1-14.736-8.61L108.023 990.108a24.31 24.31 0 0 1-4.047-23.501l74.922-210.361a24.31 24.31 0 0 1 17.992-15.652l273.14-56.303a24.308 24.308 0 0 1 16.862 2.642l267.075 150.838a24.31 24.31 0 0 1 11.758 15.812l53.134 235.317a24.307 24.307 0 0 1-8.723 24.49z" stroke="url(#M)"/><path opacity=".58" d="M830.081 1106.48l-179.703 157.5a24.324 24.324 0 0 1-18.854 5.86l-300.297-35.22a24.325 24.325 0 0 1-15.238-7.88l-184.197-204.7a24.294 24.294 0 0 1-5.226-23.202L189.9 786.439a24.312 24.312 0 0 1 17.082-16.555l266.222-70.385a24.31 24.31 0 0 1 17.066 1.75l270.545 134.998a24.305 24.305 0 0 1 12.564 15.23l64.097 230.203c2.507 9-.368 18.64-7.395 24.8z" stroke="url(#N)"/><path opacity=".594" d="M848.923 1099.74l-169.098 165.59a24.308 24.308 0 0 1-18.545 6.9l-297.385-18.85a24.3 24.3 0 0 1-15.707-7.12L156.57 1053.41a24.308 24.308 0 0 1-6.383-22.85l51.741-213.807a24.305 24.305 0 0 1 16.125-17.404l258.587-83.896a24.31 24.31 0 0 1 17.227.843l273.098 119.21a24.312 24.312 0 0 1 13.342 14.609l74.675 224.585c2.932 8.82.58 18.54-6.059 25.04z" stroke="url(#O)"/><path opacity=".609" d="M866.676 1093.24l-158.145 173.01a24.299 24.299 0 0 1-18.18 7.91l-293.593-2.88a24.246 24.246 0 0 1-16.139-6.34l-198.312-180.78a24.305 24.305 0 0 1-7.517-22.44l40.174-214.59a24.31 24.31 0 0 1 15.125-18.199l250.279-96.8a24.31 24.31 0 0 1 17.34-.075l274.75 103.528a24.31 24.31 0 0 1 14.089 13.948l84.847 218.508a24.309 24.309 0 0 1-4.718 25.2z" stroke="url(#P)"/><path opacity=".623" d="M883.375 1087.03l-146.887 179.74a24.311 24.311 0 0 1-17.76 8.91l-288.955 12.64a24.297 24.297 0 0 1-16.533-5.53l-204.279-168.55a24.32 24.32 0 0 1-8.624-21.97l28.669-214.758a24.31 24.31 0 0 1 14.084-18.935l241.34-109.064a24.306 24.306 0 0 1 17.406-1.005l275.519 88.002a24.312 24.312 0 0 1 14.803 13.25l94.592 211.98a24.315 24.315 0 0 1-3.375 25.29z" stroke="url(#Q)"/><path opacity=".638" d="M899.053 1081.18l-135.364 185.77a24.327 24.327 0 0 1-17.285 9.88l-283.507 27.67a24.317 24.317 0 0 1-16.89-4.7l-209.519-156.2a24.307 24.307 0 0 1-9.701-21.44l17.257-214.314a24.308 24.308 0 0 1 13.007-19.611l231.813-120.658a24.304 24.304 0 0 1 17.425-1.942l275.426 72.68a24.308 24.308 0 0 1 15.481 12.517L901.09 1055.87a24.325 24.325 0 0 1-2.037 25.31z" stroke="url(#R)"/><path opacity=".652" d="M913.732 1075.72l-123.619 191.1a24.329 24.329 0 0 1-16.756 10.83l-277.288 42.16a24.296 24.296 0 0 1-17.208-3.85L264.826 1172.2a24.307 24.307 0 0 1-10.745-20.86l5.971-213.269a24.31 24.31 0 0 1 11.896-20.225l221.743-131.554a24.307 24.307 0 0 1 17.396-2.884l274.495 57.61a24.31 24.31 0 0 1 16.124 11.749l112.733 197.713a24.3 24.3 0 0 1-.707 25.24z" stroke="url(#S)"/><path opacity=".667" d="M927.458 1070.73l-111.696 195.7a24.32 24.32 0 0 1-16.175 11.76l-270.34 56.07a24.326 24.326 0 0 1-17.483-2.98l-217.833-131.27a24.311 24.311 0 0 1-11.755-20.23l-5.158-211.644a24.306 24.306 0 0 1 10.755-20.776l211.179-141.728a24.31 24.31 0 0 1 17.318-3.83l272.75 42.837a24.31 24.31 0 0 1 16.728 10.95l121.098 190.031a24.303 24.303 0 0 1 .612 25.11z" stroke="url(#T)"/><path opacity=".681" d="M940.265 1066.24l-99.636 199.59a24.282 24.282 0 0 1-15.542 12.65l-262.705 69.38a24.317 24.317 0 0 1-17.718-2.1l-220.922-118.78a24.322 24.322 0 0 1-12.725-19.55l-16.102-209.439a24.309 24.309 0 0 1 9.588-21.262l200.168-151.158a24.309 24.309 0 0 1 17.191-4.777l270.222 28.405a24.309 24.309 0 0 1 17.293 10.121l128.973 182.01a24.31 24.31 0 0 1 1.915 24.91z" stroke="url(#U)"/><path opacity=".696" d="M952.196 1062.31l-87.481 202.76a24.31 24.31 0 0 1-14.86 13.5l-254.429 82.03a24.308 24.308 0 0 1-17.911-1.18l-223.309-106.34a24.307 24.307 0 0 1-13.656-18.82l-26.829-206.68a24.32 24.32 0 0 1 8.398-21.68l188.76-159.823a24.306 24.306 0 0 1 17.013-5.722l266.941 14.352a24.309 24.309 0 0 1 17.816 9.264l136.349 173.699a24.31 24.31 0 0 1 3.198 24.64z" stroke="url(#V)"/><path opacity=".71" d="M963.293 1058.97l-75.274 205.21a24.313 24.313 0 0 1-14.13 14.33l-245.558 94.01a24.301 24.301 0 0 1-18.059-.27l-225.011-93.96a24.315 24.315 0 0 1-14.542-18.05l-37.313-203.37a24.301 24.301 0 0 1 7.19-22.03l177.002-167.722a24.309 24.309 0 0 1 16.786-6.663l262.939.721a24.308 24.308 0 0 1 18.297 8.381l143.215 165.123a24.294 24.294 0 0 1 4.458 24.29z" stroke="url(#W)"/><path opacity=".725" d="M973.597 1056.27l-63.055 206.94a24.296 24.296 0 0 1-13.354 15.11l-236.141 105.3a24.342 24.342 0 0 1-18.163.66l-226.038-81.71a24.302 24.302 0 0 1-15.385-17.22l-47.525-199.55a24.32 24.32 0 0 1 5.966-22.32l164.946-174.817a24.307 24.307 0 0 1 16.509-7.598l258.252-12.455a24.306 24.306 0 0 1 18.733 7.474l149.565 156.296a24.31 24.31 0 0 1 5.69 23.89z" stroke="url(#X)"/><path opacity=".739" d="M983.171 1054.25l-50.868 207.95a24.323 24.323 0 0 1-12.533 15.87l-226.226 115.84a24.33 24.33 0 0 1-18.221 1.6l-226.41-69.59a24.323 24.323 0 0 1-16.179-16.37l-57.442-195.22a24.314 24.314 0 0 1 4.732-22.53l152.641-181.121a24.308 24.308 0 0 1 16.183-8.524l252.915-25.141a24.31 24.31 0 0 1 19.126 6.546l155.391 147.27c6.334 6 8.964 14.94 6.891 23.42z" stroke="url(#Y)"/><path opacity=".754" d="M992.05 1052.93l-38.75 208.28a24.321 24.321 0 0 1-11.67 16.56l-215.863 125.65a24.313 24.313 0 0 1-18.234 2.54l-226.144-57.65a24.312 24.312 0 0 1-16.923-15.49l-67.038-190.4a24.31 24.31 0 0 1 3.491-22.67l140.138-186.618a24.31 24.31 0 0 1 15.808-9.439l246.966-37.306a24.31 24.31 0 0 1 19.472 5.598l160.69 138.055a24.319 24.319 0 0 1 8.057 22.89z" stroke="url(#Z)"/><path opacity=".768" d="M1000.29 1052.35l-26.748 207.91a24.298 24.298 0 0 1-10.767 17.21l-205.103 134.69a24.297 24.297 0 0 1-18.201 3.5l-225.259-45.94a24.325 24.325 0 0 1-17.617-14.56l-76.289-185.13a24.306 24.306 0 0 1 2.246-22.74l127.489-191.306a24.307 24.307 0 0 1 15.382-10.341l240.448-48.92a24.31 24.31 0 0 1 19.771 4.633l165.459 128.704a24.33 24.33 0 0 1 9.189 22.29z" stroke="url(#aa)"/><path opacity=".783" d="M1007.94 1052.53l-14.891 206.86a24.31 24.31 0 0 1-9.826 17.83l-193.998 142.95a24.315 24.315 0 0 1-18.122 4.45l-223.777-34.47a24.335 24.335 0 0 1-18.257-13.6l-85.177-179.42a24.305 24.305 0 0 1 1.004-22.74l114.741-195.189a24.308 24.308 0 0 1 14.908-11.225l233.399-59.959a24.304 24.304 0 0 1 20.022 3.654L997.665 1030.9a24.318 24.318 0 0 1 10.275 21.63z" stroke="url(#ab)"/><path opacity=".797" d="M1015.05 1053.51l-3.22 205.15a24.302 24.302 0 0 1-8.85 18.38l-182.599 150.42a24.327 24.327 0 0 1-17.995 5.41l-221.722-23.28a24.314 24.314 0 0 1-18.845-12.62l-93.676-173.28a24.298 24.298 0 0 1-.235-22.67l101.947-198.27a24.304 24.304 0 0 1 14.385-12.092l225.861-70.399a24.309 24.309 0 0 1 20.226 2.663l173.403 109.658a24.33 24.33 0 0 1 11.32 20.93z" stroke="url(#ac)"/><path opacity=".812" d="M1021.68 1055.3l8.23 202.79a24.3 24.3 0 0 1-7.84 18.88l-170.958 157.1a24.328 24.328 0 0 1-17.821 6.37l-219.118-12.4a24.326 24.326 0 0 1-19.376-11.61l-101.773-166.76a24.292 24.292 0 0 1-1.463-22.53l89.154-200.55c2.667-6 7.65-10.67 13.813-12.94l217.878-80.215a24.311 24.311 0 0 1 20.381 1.661l176.593 100.034a24.32 24.32 0 0 1 12.3 20.17z" stroke="url(#ad)"/><path opacity=".826" d="M1027.89 1057.91l19.42 199.81c.69 7.13-1.8 14.2-6.8 19.33l-159.134 162.97a24.313 24.313 0 0 1-17.6 7.32l-215.992-1.85a24.33 24.33 0 0 1-19.85-10.57l-109.447-159.87a24.31 24.31 0 0 1-2.679-22.33l76.41-202.04a24.276 24.276 0 0 1 13.196-13.75l209.494-89.405a24.307 24.307 0 0 1 20.485.653l179.247 90.382a24.322 24.322 0 0 1 13.25 19.35z" stroke="url(#ae)"/><path opacity=".841" d="M1033.73 1061.37l30.31 196.21c1.1 7.1-1 14.32-5.74 19.73l-147.161 168.03a24.346 24.346 0 0 1-17.332 8.28l-212.37 8.34a24.288 24.288 0 0 1-20.267-9.52L544.485 1299.8a24.316 24.316 0 0 1-3.877-22.06L604.373 1075a24.271 24.271 0 0 1 12.531-14.55l200.752-97.937a24.309 24.309 0 0 1 20.541-.361l181.393 80.718a24.33 24.33 0 0 1 14.14 18.5z" stroke="url(#af)"/><path opacity=".855" d="M1039.24 1065.68l40.88 192.03c1.5 7.05-.2 14.4-4.64 20.06l-135.113 172.3a24.313 24.313 0 0 1-17.016 9.22l-208.282 18.17a24.326 24.326 0 0 1-20.625-8.46l-123.471-145.1c-5.1-6-6.983-14.09-5.053-21.72l51.262-202.69a24.306 24.306 0 0 1 11.82-15.32L820.7 978.372a24.308 24.308 0 0 1 20.547-1.377l183.023 71.085a24.328 24.328 0 0 1 14.97 17.6z" stroke="url(#ag)"/></g><defs><linearGradient id="a" x1="-615.504" y1="903.125" x2="205.61" y2="40.985" gradientUnits="userSpaceOnUse"><stop stop-color="#D245CE"/><stop offset="1" stop-color="#BAC9FF"/></linearGradient><linearGradient id="b" x1="-571.918" y1="932.283" x2="196.11" y2="36.328" gradientUnits="userSpaceOnUse"><stop stop-color="#D245CE"/><stop offset="1" stop-color="#BAC9FF"/></linearGradient><linearGradient id="c" x1="-527.726" y1="959.912" x2="185.947" y2="33.315" gradientUnits="userSpaceOnUse"><stop stop-color="#D245CE"/><stop offset="1" stop-color="#BAC9FF"/></linearGradient><linearGradient id="d" x1="-483.012" y1="985.991" x2="175.22" y2="31.963" gradientUnits="userSpaceOnUse"><stop stop-color="#D245CE"/><stop offset="1" stop-color="#BAC9FF"/></linearGradient><linearGradient id="e" x1="-437.862" y1="1010.51" x2="164.032" y2="32.293" gradientUnits="userSpaceOnUse"><stop stop-color="#D245CE"/><stop offset="1" stop-color="#BAC9FF"/></linearGradient><linearGradient id="f" x1="-392.369" y1="1033.46" x2="152.473" y2="34.308" gradientUnits="userSpaceOnUse"><stop stop-color="#D245CE"/><stop offset="1" stop-color="#BAC9FF"/></linearGradient><linearGradient id="g" x1="-346.623" y1="1054.84" x2="140.64" y2="38.014" gradientUnits="userSpaceOnUse"><stop stop-color="#D245CE"/><stop offset="1" stop-color="#BAC9FF"/></linearGradient><linearGradient id="h" x1="-300.71" y1="1074.64" x2="128.629" y2="43.412" gradientUnits="userSpaceOnUse"><stop stop-color="#D245CE"/><stop offset="1" stop-color="#BAC9FF"/></linearGradient><linearGradient id="i" x1="-254.721" y1="1092.88" x2="116.534" y2="50.49" gradientUnits="userSpaceOnUse"><stop stop-color="#D245CE"/><stop offset="1" stop-color="#BAC9FF"/></linearGradient><linearGradient id="j" x1="-208.738" y1="1109.56" x2="104.451" y2="59.245" gradientUnits="userSpaceOnUse"><stop stop-color="#D245CE"/><stop offset="1" stop-color="#BAC9FF"/></linearGradient><linearGradient id="k" x1="-162.851" y1="1124.71" x2="92.468" y2="69.651" gradientUnits="userSpaceOnUse"><stop stop-color="#D245CE"/><stop offset="1" stop-color="#BAC9FF"/></linearGradient><linearGradient id="l" x1="-117.141" y1="1138.33" x2="80.677" y2="81.69" gradientUnits="userSpaceOnUse"><stop stop-color="#D245CE"/><stop offset="1" stop-color="#BAC9FF"/></linearGradient><linearGradient id="m" x1="-71.691" y1="1150.47" x2="69.165" y2="95.335" gradientUnits="userSpaceOnUse"><stop stop-color="#D245CE"/><stop offset="1" stop-color="#BAC9FF"/></linearGradient><linearGradient id="n" x1="-26.582" y1="1161.14" x2="58.016" y2="110.553" gradientUnits="userSpaceOnUse"><stop stop-color="#D245CE"/><stop offset="1" stop-color="#BAC9FF"/></linearGradient><linearGradient id="o" x1="18.113" y1="1170.38" x2="47.318" y2="127.308" gradientUnits="userSpaceOnUse"><stop stop-color="#D245CE"/><stop offset="1" stop-color="#BAC9FF"/></linearGradient><linearGradient id="p" x1="62.319" y1="1178.22" x2="37.15" y2="145.56" gradientUnits="userSpaceOnUse"><stop stop-color="#D245CE"/><stop offset="1" stop-color="#BAC9FF"/></linearGradient><linearGradient id="q" x1="105.952" y1="1184.71" x2="27.578" y2="165.263" gradientUnits="userSpaceOnUse"><stop stop-color="#D245CE"/><stop offset="1" stop-color="#BAC9FF"/></linearGradient><linearGradient id="r" x1="148.961" y1="1189.9" x2="18.692" y2="186.372" gradientUnits="userSpaceOnUse"><stop stop-color="#D245CE"/><stop offset="1" stop-color="#BAC9FF"/></linearGradient><linearGradient id="s" x1="191.274" y1="1193.84" x2="10.559" y2="208.834" gradientUnits="userSpaceOnUse"><stop stop-color="#D245CE"/><stop offset="1" stop-color="#BAC9FF"/></linearGradient><linearGradient id="t" x1="232.823" y1="1196.56" x2="3.24" y2="232.591" gradientUnits="userSpaceOnUse"><stop stop-color="#D245CE"/><stop offset="1" stop-color="#BAC9FF"/></linearGradient><linearGradient id="u" x1="273.553" y1="1198.14" x2="-3.2" y2="257.583" gradientUnits="userSpaceOnUse"><stop stop-color="#D245CE"/><stop offset="1" stop-color="#BAC9FF"/></linearGradient><linearGradient id="v" x1="313.411" y1="1198.62" x2="-8.698" y2="283.752" gradientUnits="userSpaceOnUse"><stop stop-color="#D245CE"/><stop offset="1" stop-color="#BAC9FF"/></linearGradient><linearGradient id="w" x1="352.337" y1="1198.07" x2="-13.207" y2="311.03" gradientUnits="userSpaceOnUse"><stop stop-color="#D245CE"/><stop offset="1" stop-color="#BAC9FF"/></linearGradient><linearGradient id="x" x1="390.296" y1="1196.55" x2="-16.665" y2="339.349" gradientUnits="userSpaceOnUse"><stop stop-color="#D245CE"/><stop offset="1" stop-color="#BAC9FF"/></linearGradient><linearGradient id="y" x1="427.236" y1="1194.13" x2="-19.032" y2="368.641" gradientUnits="userSpaceOnUse"><stop stop-color="#D245CE"/><stop offset="1" stop-color="#BAC9FF"/></linearGradient><linearGradient id="z" x1="463.126" y1="1190.87" x2="-20.26" y2="398.837" gradientUnits="userSpaceOnUse"><stop stop-color="#D245CE"/><stop offset="1" stop-color="#BAC9FF"/></linearGradient><linearGradient id="A" x1="497.916" y1="1186.83" x2="-20.322" y2="429.859" gradientUnits="userSpaceOnUse"><stop stop-color="#D245CE"/><stop offset="1" stop-color="#BAC9FF"/></linearGradient><linearGradient id="B" x1="531.589" y1="1182.1" x2="-19.174" y2="461.634" gradientUnits="userSpaceOnUse"><stop stop-color="#D245CE"/><stop offset="1" stop-color="#BAC9FF"/></linearGradient><linearGradient id="C" x1="564.113" y1="1176.74" x2="-16.791" y2="494.086" gradientUnits="userSpaceOnUse"><stop stop-color="#D245CE"/><stop offset="1" stop-color="#BAC9FF"/></linearGradient><linearGradient id="D" x1="595.469" y1="1170.82" x2="-13.146" y2="527.141" gradientUnits="userSpaceOnUse"><stop stop-color="#D245CE"/><stop offset="1" stop-color="#BAC9FF"/></linearGradient><linearGradient id="E" x1="625.63" y1="1164.41" x2="-8.229" y2="560.714" gradientUnits="userSpaceOnUse"><stop stop-color="#D245CE"/><stop offset="1" stop-color="#BAC9FF"/></linearGradient><linearGradient id="F" x1="654.594" y1="1157.59" x2="-2.014" y2="594.734" gradientUnits="userSpaceOnUse"><stop stop-color="#D245CE"/><stop offset="1" stop-color="#BAC9FF"/></linearGradient><linearGradient id="G" x1="682.342" y1="1150.43" x2="5.501" y2="629.12" gradientUnits="userSpaceOnUse"><stop stop-color="#D245CE"/><stop offset="1" stop-color="#BAC9FF"/></linearGradient><linearGradient id="H" x1="708.87" y1="1143" x2="14.324" y2="663.794" gradientUnits="userSpaceOnUse"><stop stop-color="#D245CE"/><stop offset="1" stop-color="#BAC9FF"/></linearGradient><linearGradient id="I" x1="734.184" y1="1135.37" x2="24.46" y2="698.68" gradientUnits="userSpaceOnUse"><stop stop-color="#D245CE"/><stop offset="1" stop-color="#BAC9FF"/></linearGradient><linearGradient id="J" x1="758.281" y1="1127.62" x2="35.901" y2="733.7" gradientUnits="userSpaceOnUse"><stop stop-color="#D245CE"/><stop offset="1" stop-color="#BAC9FF"/></linearGradient><linearGradient id="K" x1="781.171" y1="1119.81" x2="48.641" y2="768.781" gradientUnits="userSpaceOnUse"><stop stop-color="#D245CE"/><stop offset="1" stop-color="#BAC9FF"/></linearGradient><linearGradient id="L" x1="802.862" y1="1112.02" x2="62.666" y2="803.844" gradientUnits="userSpaceOnUse"><stop stop-color="#D245CE"/><stop offset="1" stop-color="#BAC9FF"/></linearGradient><linearGradient id="M" x1="823.376" y1="1104.3" x2="77.965" y2="838.821" gradientUnits="userSpaceOnUse"><stop stop-color="#D245CE"/><stop offset="1" stop-color="#BAC9FF"/></linearGradient><linearGradient id="N" x1="842.723" y1="1096.74" x2="94.51" y2="873.637" gradientUnits="userSpaceOnUse"><stop stop-color="#D245CE"/><stop offset="1" stop-color="#BAC9FF"/></linearGradient><linearGradient id="O" x1="860.935" y1="1089.39" x2="112.283" y2="908.224" gradientUnits="userSpaceOnUse"><stop stop-color="#D245CE"/><stop offset="1" stop-color="#BAC9FF"/></linearGradient><linearGradient id="P" x1="878.027" y1="1082.32" x2="131.249" y2="942.514" gradientUnits="userSpaceOnUse"><stop stop-color="#D245CE"/><stop offset="1" stop-color="#BAC9FF"/></linearGradient><linearGradient id="Q" x1="894.036" y1="1075.58" x2="151.38" y2="976.442" gradientUnits="userSpaceOnUse"><stop stop-color="#D245CE"/><stop offset="1" stop-color="#BAC9FF"/></linearGradient><linearGradient id="R" x1="909" y1="1069.24" x2="172.648" y2="1009.95" gradientUnits="userSpaceOnUse"><stop stop-color="#D245CE"/><stop offset="1" stop-color="#BAC9FF"/></linearGradient><linearGradient id="S" x1="922.943" y1="1063.35" x2="195.001" y2="1042.97" gradientUnits="userSpaceOnUse"><stop stop-color="#D245CE"/><stop offset="1" stop-color="#BAC9FF"/></linearGradient><linearGradient id="T" x1="935.913" y1="1057.96" x2="218.407" y2="1075.45" gradientUnits="userSpaceOnUse"><stop stop-color="#D245CE"/><stop offset="1" stop-color="#BAC9FF"/></linearGradient><linearGradient id="U" x1="947.946" y1="1053.13" x2="242.817" y2="1107.34" gradientUnits="userSpaceOnUse"><stop stop-color="#D245CE"/><stop offset="1" stop-color="#BAC9FF"/></linearGradient><linearGradient id="V" x1="959.09" y1="1048.89" x2="268.185" y2="1138.58" gradientUnits="userSpaceOnUse"><stop stop-color="#D245CE"/><stop offset="1" stop-color="#BAC9FF"/></linearGradient><linearGradient id="W" x1="969.389" y1="1045.3" x2="294.46" y2="1169.12" gradientUnits="userSpaceOnUse"><stop stop-color="#D245CE"/><stop offset="1" stop-color="#BAC9FF"/></linearGradient><linearGradient id="X" x1="978.886" y1="1042.39" x2="321.585" y2="1198.94" gradientUnits="userSpaceOnUse"><stop stop-color="#D245CE"/><stop offset="1" stop-color="#BAC9FF"/></linearGradient><linearGradient id="Y" x1="987.648" y1="1040.21" x2="349.522" y2="1227.97" gradientUnits="userSpaceOnUse"><stop stop-color="#D245CE"/><stop offset="1" stop-color="#BAC9FF"/></linearGradient><linearGradient id="Z" x1="995.713" y1="1038.78" x2="378.2" y2="1256.19" gradientUnits="userSpaceOnUse"><stop stop-color="#D245CE"/><stop offset="1" stop-color="#BAC9FF"/></linearGradient><linearGradient id="aa" x1="1003.14" y1="1038.14" x2="407.563" y2="1283.57" gradientUnits="userSpaceOnUse"><stop stop-color="#D245CE"/><stop offset="1" stop-color="#BAC9FF"/></linearGradient><linearGradient id="ab" x1="1009.97" y1="1038.31" x2="437.557" y2="1310.07" gradientUnits="userSpaceOnUse"><stop stop-color="#D245CE"/><stop offset="1" stop-color="#BAC9FF"/></linearGradient><linearGradient id="ac" x1="1016.28" y1="1039.32" x2="468.115" y2="1335.67" gradientUnits="userSpaceOnUse"><stop stop-color="#D245CE"/><stop offset="1" stop-color="#BAC9FF"/></linearGradient><linearGradient id="ad" x1="1022.12" y1="1041.19" x2="499.187" y2="1360.35" gradientUnits="userSpaceOnUse"><stop stop-color="#D245CE"/><stop offset="1" stop-color="#BAC9FF"/></linearGradient><linearGradient id="ae" x1="1027.55" y1="1043.93" x2="530.704" y2="1384.08" gradientUnits="userSpaceOnUse"><stop stop-color="#D245CE"/><stop offset="1" stop-color="#BAC9FF"/></linearGradient><linearGradient id="af" x1="1032.62" y1="1047.57" x2="562.603" y2="1406.87" gradientUnits="userSpaceOnUse"><stop stop-color="#D245CE"/><stop offset="1" stop-color="#BAC9FF"/></linearGradient><linearGradient id="ag" x1="1037.38" y1="1052.09" x2="594.819" y2="1428.69" gradientUnits="userSpaceOnUse"><stop stop-color="#D245CE"/><stop offset="1" stop-color="#BAC9FF"/></linearGradient></defs></svg>