<svg width="20" height="20" viewBox="0 0 20 20" fill="none" xmlns="http://www.w3.org/2000/svg"><path d="M1 10.083c0 3.263.468 4.777 1.533 5.62.555.44 1.367.774 2.604.992C6.374 16.913 7.959 17 10 17c2.041 0 3.627-.087 4.863-.305 1.237-.218 2.049-.553 2.604-.993C18.532 14.86 19 13.346 19 10.083c0-1.928-.161-3.266-.534-4.218-.4-1.02-1.063-1.658-2.312-2.077-1.331-.446-3.277-.621-6.154-.621s-4.823.175-6.154.621c-1.249.419-1.913 1.057-2.312 2.077C1.161 6.817 1 8.155 1 10.083z" stroke="#392B4B" stroke-width="2" stroke-linecap="round" stroke-linejoin="round"/></svg>