<svg width="20" height="20" viewBox="0 0 20 20" fill="none" xmlns="http://www.w3.org/2000/svg"><path d="M10.9 7.799H5.5M18.999 9.572v1.854c0 .495-.396.9-.9.918h-1.764c-.972 0-1.863-.71-1.944-1.683a1.807 1.807 0 0 1 .54-1.467c.333-.342.792-.54 1.296-.54h1.872c.504.018.9.423.9.918z" stroke="#392B4B" stroke-width="2" stroke-linecap="round" stroke-linejoin="round"/><path d="M14.932 9.194c-.378.37-.594.9-.54 1.467.08.972.972 1.683 1.944 1.683H18.1v1.305c0 2.7-1.8 4.5-4.5 4.5H5.5c-2.7 0-4.5-1.8-4.5-4.5v-6.3c0-2.447 1.476-4.157 3.77-4.445a4.79 4.79 0 0 1 .73-.054h8.1c.234 0 .459.009.675.045 2.322.27 3.825 1.989 3.825 4.455v1.304h-1.872c-.504 0-.963.198-1.296.54z" stroke="#392B4B" stroke-width="2" stroke-linecap="round" stroke-linejoin="round"/></svg>