<svg width="20" height="20" viewBox="0 0 20 20" fill="none" xmlns="http://www.w3.org/2000/svg"><path d="M2.497 15c0 .638.076 1.045.207 1.323.116.245.3.445.67.619.396.186.99.333 1.892.427.894.094 2.032.13 3.481.13 1.45 0 2.588-.036 3.481-.13.902-.094 1.497-.24 1.894-.427.368-.174.553-.374.669-.62.13-.277.206-.684.206-1.322 0-.639-.075-1.046-.206-1.323-.116-.245-.301-.446-.67-.62-.396-.186-.991-.333-1.893-.427-.893-.094-2.03-.13-3.48-.13-1.45 0-2.588.037-3.482.13-.901.094-1.496.241-1.893.428-.368.173-.553.374-.669.619-.131.277-.207.684-.207 1.323z" stroke="#392B4B" stroke-width="1.667" stroke-linecap="round" stroke-linejoin="round"/><circle r="2.917" transform="matrix(-1 0 0 1 8.75 6.25)" stroke="#392B4B" stroke-width="1.667"/><path d="M13.781 8.847L14.935 10l3.077-3.077" stroke="#392B4B" stroke-width="1.667" stroke-linecap="round" stroke-linejoin="round"/></svg>