<svg width="12" height="20" viewBox="0 0 12 20" fill="none" xmlns="http://www.w3.org/2000/svg"><path d="M6 .833a5.833 5.833 0 0 0-4.167 9.909v7.591a.834.834 0 0 0 1.209.742L6 17.6l2.958 1.475a.833.833 0 0 0 .817-.033.833.833 0 0 0 .392-.709v-7.591A5.833 5.833 0 0 0 6 .833zm2.5 16.15l-2.125-1.058a.833.833 0 0 0-.75 0L3.5 16.983v-5.05c.527.25 1.09.418 1.667.5v.9a.833.833 0 0 0 1.666 0v-.9a5.838 5.838 0 0 0 1.667-.5v5.05zM6 10.833a4.166 4.166 0 1 1 0-8.332 4.166 4.166 0 0 1 0 8.332z" fill="#17AA63"/></svg>