<svg width="451" height="159" viewBox="0 0 451 159" fill="none" xmlns="http://www.w3.org/2000/svg"><path fill="#FAD8C4" d="M366.525 59.712l12.237-3.294 12.163 15.28-12.237 3.295z"/><path fill="#D8D5EC" d="M249.466 76.418l9.924 4.692-17.785 12.72-9.924-4.692z"/><path fill="#F8E7A1" d="M360.546-1.474l12.789.094-.356 16.393-12.789-.094z"/><path d="M312.226 91.417l7.693-2.895-5.43-3.947 8.145-3.421-5.43-4.21 6.787-2.895-4.977-3.947 7.24-3.158-4.978-4.21" stroke="#F7E8BF" stroke-width="4" stroke-linecap="round" stroke-linejoin="round"/><path d="M305.768 31l.27-5.327-8.671.359-.218-5.842-9.043.21-.244-4.893-8.413.141-.36-5.258-8.786-.008" stroke="#C0DEF8" stroke-width="4" stroke-linecap="round" stroke-linejoin="round"/><path d="M131.225 85.162l9.052.826.479-5.047 9.993.609.781-5.243 8.377.474.817-4.871 9.016.454 1.119-5.068" stroke="#F7E8BF" stroke-width="4" stroke-linecap="round" stroke-linejoin="round"/><path d="M39.82 59.576l4.978 4.474 6.788-3.158 5.882 4.737 7.24-3.158 4.978 3.947 6.787-2.895 5.43 4.21 7.24-2.894" stroke="#FAD8C4" stroke-width="4" stroke-linecap="round" stroke-linejoin="round"/><path d="M309.491 156.63l.124-1.558c.141-1.774 2.792-2.658 5.496-1.832 2.704.826 5.355-.058 5.496-1.832.141-1.774 2.792-2.658 5.496-1.832 2.705.826 5.355-.058 5.496-1.832.141-1.775 2.792-2.658 5.496-1.833 2.705.826 5.355-.057 5.496-1.832l.124-1.558" stroke="#D8D5EC" stroke-width="4" stroke-linecap="round" stroke-linejoin="round"/><path d="M448.712 62.138l-.651-1.513c-.783-1.82-3.507-2.347-6.01-1.164-2.504 1.184-5.228.656-6.011-1.164-.783-1.82-3.507-2.348-6.01-1.164-2.503 1.183-5.227.655-6.01-1.165-.784-1.82-3.507-2.347-6.011-1.164-2.503 1.184-5.227.656-6.01-1.164l-.651-1.513M179.949 37.308l1.802-1.155c1.44-.924.373-3.186-1.676-3.553-2.048-.368-3.115-2.63-1.675-3.553 1.44-.924.374-3.186-1.675-3.553-2.048-.368-3.115-2.63-1.675-3.553 1.44-.924.374-3.186-1.675-3.553-2.048-.368-3.115-2.63-1.675-3.553l1.801-1.156M143.18 132.948l2.64-.272c2.652-.274 4.98 1.201 4.283 2.714-.697 1.513 1.631 2.989 4.283 2.715s4.98 1.202 4.283 2.715c-.697 1.513 1.63 2.988 4.283 2.714 2.652-.274 4.975 1.211 4.278 2.724-.697 1.513 1.61 3.001 4.267 2.743l.435-.042c2.669-.259 5.079 1.124 4.682 2.687l-.374 1.474" stroke="#FAD8C4" stroke-width="4" stroke-linecap="round" stroke-linejoin="round"/><path d="M2.612-10.85l2.57.446c2.06.358 3.16 2.61 1.728 3.544-1.43.935-.332 3.187 1.729 3.545 2.061.358 3.16 2.61 1.729 3.544-1.431.934-.333 3.186 1.728 3.544 2.062.358 3.149 2.618 1.718 3.552-1.433.935-.356 3.196 1.709 3.568l.41.074c2.106.38 3.312 2.621 1.996 3.71l-1.368 1.133" stroke="#C0DEF8" stroke-width="4" stroke-linecap="round" stroke-linejoin="round"/></svg>