<svg width="24" height="24" viewBox="0 0 24 24" fill="none" xmlns="http://www.w3.org/2000/svg"><path d="M4 21L21 4" stroke="#DFDBEE" stroke-width="2" stroke-linecap="round"/><mask id="a" fill="#fff"><path fill-rule="evenodd" clip-rule="evenodd" d="M18.117 7.468C16.485 6.122 14.403 5 12 5 6 5 2 12 2 12s2.19 3.832 5.76 5.826l1.484-1.484c-1.132-.535-2.171-1.348-3.08-2.256A17.322 17.322 0 0 1 4.396 12a17.32 17.32 0 0 1 1.768-2.086C7.771 8.308 9.786 7 12 7c1.717 0 3.315.787 4.696 1.89l1.421-1.422zm-6.675 9.505c.184.018.37.027.558.027 2.213 0 4.23-1.308 5.836-2.914A17.32 17.32 0 0 0 19.604 12a17.565 17.565 0 0 0-1.441-1.749l1.415-1.414C21.124 10.467 22 12 22 12s-4 7-10 7c-.788 0-1.541-.12-2.255-.33l1.697-1.698zm3.319-6.148a3 3 0 1 0-3.936 3.936l3.936-3.936zM13 12a1 1 0 1 1-2 0 1 1 0 0 1 2 0z"/></mask><path fill-rule="evenodd" clip-rule="evenodd" d="M18.117 7.468C16.485 6.122 14.403 5 12 5 6 5 2 12 2 12s2.19 3.832 5.76 5.826l1.484-1.484c-1.132-.535-2.171-1.348-3.08-2.256A17.322 17.322 0 0 1 4.396 12a17.32 17.32 0 0 1 1.768-2.086C7.771 8.308 9.786 7 12 7c1.717 0 3.315.787 4.696 1.89l1.421-1.422zm-6.675 9.505c.184.018.37.027.558.027 2.213 0 4.23-1.308 5.836-2.914A17.32 17.32 0 0 0 19.604 12a17.565 17.565 0 0 0-1.441-1.749l1.415-1.414C21.124 10.467 22 12 22 12s-4 7-10 7c-.788 0-1.541-.12-2.255-.33l1.697-1.698zm3.319-6.148a3 3 0 1 0-3.936 3.936l3.936-3.936zM13 12a1 1 0 1 1-2 0 1 1 0 0 1 2 0z" fill="#D0C2DE"/><path d="M18.117 7.468l1.415 1.415 1.556-1.557-1.698-1.4-1.273 1.542zM2 12l-1.736-.992-.568.992.568.992L2 12zm5.76 5.826l-.975 1.746 1.32.737 1.069-1.069-1.414-1.414zm1.484-1.484l1.414 1.414 2.009-2.008-2.569-1.214-.854 1.808zm-3.08-2.256L4.75 15.5l1.414-1.414zM4.396 12l-1.622-1.17L1.929 12l.845 1.17L4.396 12zm1.768-2.086L4.75 8.5l1.414 1.414zM16.696 8.89l-1.249 1.563 1.398 1.116 1.265-1.265-1.414-1.414zm-5.254 8.082l.196-1.99-.942-.093-.668.67 1.414 1.414zM19.604 12l1.622 1.17.845-1.17-.845-1.17L19.604 12zm-1.441-1.749l-1.414-1.414-1.373 1.373 1.331 1.413 1.456-1.372zm1.415-1.414l1.45-1.377-1.412-1.49-1.453 1.452 1.415 1.415zM22 12l1.736.992.567-.992-.567-.992L22 12zM9.745 18.67L8.33 17.255 5.947 19.64l3.234.95.564-1.92zm5.016-7.845l1.414 1.414.956-.956-.53-1.242-1.84.784zm-3.936 3.936l-.784 1.84 1.242.53.956-.956-1.414-1.414zm8.565-8.836C17.56 4.418 15.04 3 12 3v4c1.764 0 3.408.827 4.845 2.012l2.545-3.087zM12 3C8.214 3 5.23 5.192 3.336 7.086A21.348 21.348 0 0 0 .493 10.63a13.105 13.105 0 0 0-.207.34l-.014.024-.005.008-.002.003v.002L2 12l1.736.993v.001a955172149.269 955172149.269 0 0 1 .002-.004l.023-.04a15.2 15.2 0 0 1 .585-.882 17.348 17.348 0 0 1 1.818-2.154C7.771 8.308 9.786 7 12 7V3zM2 12a414.25 414.25 0 0 0-1.736.993v.001l.002.002.003.006.009.014a6.343 6.343 0 0 0 .12.2c.079.129.192.308.337.526.291.435.716 1.03 1.262 1.694 1.077 1.309 2.701 2.971 4.788 4.136l1.95-3.492c-1.484-.829-2.74-2.08-3.65-3.186a17.484 17.484 0 0 1-1.024-1.376 12.45 12.45 0 0 1-.315-.494l-.01-.018-.002-.002.001.001v.001l.001.001L2 12zm7.174 7.24l1.484-1.484-2.828-2.828-1.484 1.484 2.828 2.828zM4.75 15.5c1.015 1.015 2.239 1.988 3.64 2.65l1.708-3.616c-.863-.408-1.718-1.061-2.52-1.862L4.75 15.5zm-1.976-2.33A19.313 19.313 0 0 0 4.75 15.5l2.828-2.828a15.33 15.33 0 0 1-1.56-1.842l-3.244 2.34zM4.75 8.5a19.314 19.314 0 0 0-1.976 2.33l3.243 2.34a15.33 15.33 0 0 1 1.561-1.842L4.75 8.5zM12 5C9.001 5 6.501 6.749 4.75 8.5l2.828 2.828C9.04 9.867 10.572 9 12 9V5zm5.944 2.328C16.366 6.067 14.338 5 12 5v4c1.097 0 2.264.507 3.447 1.453l2.497-3.125zm.166 2.976l1.422-1.421-2.829-2.829-1.421 1.422 2.828 2.828zm-6.864 8.659c.248.024.5.037.754.037v-4c-.12 0-.242-.006-.362-.018l-.392 3.98zM12 19c2.999 0 5.499-1.749 7.25-3.5l-2.828-2.828C14.96 14.133 13.428 15 12 15v4zm7.25-3.5a19.317 19.317 0 0 0 1.976-2.33l-3.243-2.34c-.376.52-.907 1.187-1.561 1.842L19.25 15.5zm1.976-4.67c-.397-.55-.938-1.24-1.607-1.95l-2.912 2.743c.526.558.957 1.107 1.276 1.547l3.243-2.34zm-3.063-3.408L16.75 8.837l2.828 2.829 1.415-1.415-2.829-2.829zM22 12l1.736-.993v-.002l-.003-.003-.004-.007-.012-.022a18.637 18.637 0 0 0-.711-1.093 21.574 21.574 0 0 0-1.977-2.42l-2.903 2.753a17.581 17.581 0 0 1 2.02 2.586 8.5 8.5 0 0 1 .097.159l.02.033.003.005-.001-.002-.001-.001L22 12zm-10 9c3.787 0 6.77-2.192 8.664-4.086a21.346 21.346 0 0 0 2.843-3.544 13.088 13.088 0 0 0 .207-.34l.015-.024.004-.008.002-.003v-.002L22 12a333.526 333.526 0 0 1-1.736-.993v-.001l.001-.001v-.001l-.003.006a15.179 15.179 0 0 1-.608.921 17.352 17.352 0 0 1-1.818 2.155C16.229 15.692 14.214 17 12 17v4zm-2.819-.411A9.98 9.98 0 0 0 12 21v-4a5.98 5.98 0 0 1-1.692-.25L9.18 20.59zm.847-5.03L8.33 17.254l2.829 2.829 1.697-1.697-2.829-2.829zM16.6 10.04A5 5 0 0 0 12 7v4a1 1 0 0 1 .921.609l3.68-1.568zM12 7a5 5 0 0 0-5 5h4a1 1 0 0 1 1-1V7zm-5 5a5 5 0 0 0 3.04 4.6l1.569-3.679A1 1 0 0 1 11 12H7zm5.239 4.175l3.936-3.936-2.828-2.828-3.936 3.936 2.828 2.828zM12 15a3 3 0 0 0 3-3h-4a1 1 0 0 1 1-1v4zm-3-3a3 3 0 0 0 3 3v-4a1 1 0 0 1 1 1H9zm3-3a3 3 0 0 0-3 3h4a1 1 0 0 1-1 1V9zm3 3a3 3 0 0 0-3-3v4a1 1 0 0 1-1-1h4z" fill="#DFDBEE" mask="url(#a)"/></svg>