<svg width="141" height="55" viewBox="0 0 141 55" fill="none" xmlns="http://www.w3.org/2000/svg"><path fill-rule="evenodd" clip-rule="evenodd" d="M74.302 4.323C52.915-2.757 23.208-1.331.86 14.176l2.28 3.287C24.292 2.786 52.65 1.37 73.045 8.12c10.136 3.355 18.036 8.637 22.168 15.012-7.598 1.566-14.088 5.765-18.392 12.417-2.332 3.604-2.887 7.24-2.053 10.437.824 3.162 2.957 5.7 5.642 7.235 2.687 1.537 5.992 2.11 9.237 1.28 3.273-.837 6.332-3.063 8.574-6.846 4.474-7.55 5.209-14.776 3.032-21.203a33.71 33.71 0 0 1 2.839.042c9.286.524 19.883 4.843 30.011 13.592l-12.354 1.566.502 3.968 18.52-2.347-1.276-17.78-3.99.286.783 10.912c-10.542-8.972-21.779-13.615-31.97-14.19a36.931 36.931 0 0 0-4.801.036 26.177 26.177 0 0 0-.855-1.436c-4.785-7.486-13.67-13.24-24.36-16.778zM97.136 26.84c2.173 5.502 1.766 11.819-2.357 18.775-1.758 2.967-3.982 4.462-6.123 5.01-2.172.555-4.415.178-6.26-.877-1.847-1.057-3.231-2.753-3.758-4.772-.517-1.983-.257-4.476 1.541-7.255 3.86-5.966 9.81-9.704 16.957-10.88z" fill="#966CEE"/></svg>