<svg width="19" height="19" viewBox="0 0 19 19" fill="none" xmlns="http://www.w3.org/2000/svg"><path fill-rule="evenodd" clip-rule="evenodd" d="M9.608 3.098A3.75 3.75 0 0 1 12.26 2h4.5a.75.75 0 0 1 .75.75V14a.75.75 0 0 1-.75.75h-5.25a1.5 1.5 0 0 0-1.5 1.5.75.75 0 0 1-1.5 0V5.75a3.75 3.75 0 0 1 1.098-2.652zm.402 10.554a3 3 0 0 1 1.5-.402h4.5V3.5h-3.75a2.25 2.25 0 0 0-2.25 2.25v7.902z" fill="#392B4B"/><path fill-rule="evenodd" clip-rule="evenodd" d="M1.01 2.75A.75.75 0 0 1 1.76 2h4.5a3.75 3.75 0 0 1 3.75 3.75v10.5a.75.75 0 0 1-1.5 0 1.5 1.5 0 0 0-1.5-1.5H1.76a.75.75 0 0 1-.75-.75V2.75zm7.5 10.902V5.75A2.25 2.25 0 0 0 6.26 3.5H2.51v9.75h4.5a3 3 0 0 1 1.5.402z" fill="#392B4B"/></svg>