<svg width="20" height="14" viewBox="0 0 20 14" fill="none" xmlns="http://www.w3.org/2000/svg"><path d="M18.804 4.916l-.875-.481L10.054.06h-.096a.928.928 0 0 0-.166-.053h-.324c-.06.013-.119.03-.175.053h-.096L1.322 4.435a.875.875 0 0 0 0 1.522L3.5 7.165v4.147a2.625 2.625 0 0 0 2.625 2.625h7a2.625 2.625 0 0 0 2.625-2.625V7.165l1.75-.98v2.502a.875.875 0 1 0 1.75 0v-3.01a.875.875 0 0 0-.446-.76zM14 11.312a.875.875 0 0 1-.875.875h-7a.875.875 0 0 1-.875-.875V8.136l3.947 2.188.13.052h.08a.88.88 0 0 0 .218 0 .88.88 0 0 0 .219 0h.079a.412.412 0 0 0 .131-.052L14 8.136v3.176zM9.625 8.565L3.553 5.187 9.625 1.81l6.073 3.377-6.073 3.378z" fill="#fff"/></svg>