<svg width="1479" height="473" viewBox="0 0 1479 473" fill="none" xmlns="http://www.w3.org/2000/svg"><g opacity=".14" stroke-width="2"><path opacity=".014" d="M-388.078 855.828a24 24 0 0 1-26.368-11.74L-572.48 559.403a24.003 24.003 0 0 1-2.122-18.139l126.053-448.73a24.004 24.004 0 0 1 8.014-12.17l317.401-256.704a24.001 24.001 0 0 1 24.854-3.265L161.118-64.113a24 24 0 0 1 14.205 20.654l21.614 407.644a23.993 23.993 0 0 1-3.682 14.098L-55.871 772.218a24 24 0 0 1-14.9 10.561l-317.307 73.049z" stroke="url(#a)"/><path opacity=".029" d="M-338.233 867.615a24 24 0 0 1-26.889-10.322l-171.916-273.77a23.997 23.997 0 0 1-3.091-18.024l101.239-450.583a24.008 24.008 0 0 1 7.392-12.606l301.283-270.206a24 24 0 0 1 24.625-4.539L157.92-71.283a24 24 0 0 1 15.263 19.85l43.093 402.401a23.992 23.992 0 0 1-2.941 14.314l-226.263 402.59a24 24 0 0 1-14.358 11.327l-310.947 88.416z" stroke="url(#b)"/><path opacity=".043" d="M-288.369 877.8a24 24 0 0 1-27.333-8.881L-500.794 606.73a24 24 0 0 1-4.055-17.859l76.581-451.078a24 24 0 0 1 6.748-13.01l284.627-282.733a24 24 0 0 1 24.33-5.799l266.837 86.701a24 24 0 0 1 16.276 18.992l64.081 396.036a23.99 23.99 0 0 1-2.188 14.491L29.261 762.414a24 24 0 0 1-13.777 12.065L-288.369 877.8z" stroke="url(#c)"/><path opacity=".058" d="M-238.574 886.397a24.002 24.002 0 0 1-27.7-7.422l-197.528-249.986a24.003 24.003 0 0 1-5.01-17.641l52.151-450.238a23.998 23.998 0 0 1 6.081-13.382l267.491-294.266a24 24 0 0 1 23.971-7.039l269.379 72.18a23.999 23.999 0 0 1 17.24 18.081l84.521 388.587a24.001 24.001 0 0 1-1.424 14.63L70.643 755.894a24 24 0 0 1-13.16 12.773l-296.057 117.73z" stroke="url(#d)"/><path opacity=".072" d="M-188.935 893.425a24 24 0 0 1-27.987-5.948L-426.121 650.27a24.003 24.003 0 0 1-5.953-17.373l28.02-448.089a24.006 24.006 0 0 1 5.395-13.72L-148.725-133.7a24 24 0 0 1 23.548-8.258L145.96-84.326a24.001 24.001 0 0 1 18.154 17.122L268.47 312.89a23.988 23.988 0 0 1-.652 14.728L111.162 748.366a24 24 0 0 1-12.504 13.449l-287.593 131.61z" stroke="url(#e)"/><path opacity=".087" d="M-139.538 898.908a23.998 23.998 0 0 1-28.195-4.465l-220.075-223.898a23.999 23.999 0 0 1-6.883-17.054l4.259-444.658a24.006 24.006 0 0 1 4.69-14.024l232.012-314.288a24.001 24.001 0 0 1 23.063-9.451l272.117 43.1a24.001 24.001 0 0 1 19.014 16.114l123.535 370.601a23.998 23.998 0 0 1 .127 14.787L150.77 739.884a23.996 23.996 0 0 1-11.816 14.092l-278.492 144.932z" stroke="url(#f)"/><path opacity=".101" d="M-90.462 902.875a24.002 24.002 0 0 1-28.325-2.977l-230.136-210.107a24.004 24.004 0 0 1-7.796-16.686l-19.064-439.98a23.997 23.997 0 0 1 3.969-14.292l213.784-322.756a24 24 0 0 1 22.517-10.615l272.324 28.622a24 24 0 0 1 19.818 15.065L298.637 289.3a23.997 23.997 0 0 1 .91 14.805L189.422 730.507a23.998 23.998 0 0 1-11.094 14.7l-268.79 157.668z" stroke="url(#g)"/><path opacity=".116" d="M-41.79 905.356a24 24 0 0 1-28.375-1.487l-239.36-195.882a23.999 23.999 0 0 1-8.689-16.269l-41.887-434.09a24.002 24.002 0 0 1 3.232-14.524l195.311-330.187a23.999 23.999 0 0 1 21.912-11.748L132.12-84.59a24 24 0 0 1 20.565 13.975L312.411 278.18a23.999 23.999 0 0 1 1.697 14.782l-87.032 427.334a24.006 24.006 0 0 1-10.342 15.271L-41.79 905.356z" stroke="url(#h)"/><path opacity=".13" d="M6.4 906.39a23.998 23.998 0 0 1-28.345 0l-247.73-181.275a23.997 23.997 0 0 1-9.561-15.803l-64.145-427.029a23.997 23.997 0 0 1 2.483-14.718l176.647-336.578A24 24 0 0 1-143-81.86h270.455a23.999 23.999 0 0 1 21.251 12.847l176.647 336.578a23.997 23.997 0 0 1 2.483 14.718l-64.145 427.029a23.997 23.997 0 0 1-9.561 15.803L6.4 906.39z" stroke="url(#i)"/><path opacity=".145" d="M54.035 906.017a24 24 0 0 1-28.237 1.48l-255.232-166.334a23.998 23.998 0 0 1-10.408-15.291l-85.779-418.839a23.995 23.995 0 0 1 1.722-14.874l157.853-341.93a24 24 0 0 1 20.534-13.908l268.404-14.067a24 24 0 0 1 21.875 11.685l192.73 323.557a24.001 24.001 0 0 1 3.267 14.614l-41.528 425.51a24.004 24.004 0 0 1-8.753 16.296L54.035 906.017z" stroke="url(#j)"/><path opacity=".159" d="M101.042 904.282a24 24 0 0 1-28.051 2.948l-261.854-151.109a24.003 24.003 0 0 1-11.229-14.735l-106.733-409.565a24 24 0 0 1 .952-14.993l138.985-346.247a24 24 0 0 1 19.764-14.928l265.627-27.919a24 24 0 0 1 22.436 10.493l207.936 309.785a23.992 23.992 0 0 1 4.048 14.467l-19.247 422.806a24 24 0 0 1-7.92 16.747l-224.714 202.25z" stroke="url(#k)"/><path opacity=".174" d="M147.353 901.232a24.001 24.001 0 0 1-27.788 4.401L-148.022 769.98a24.002 24.002 0 0 1-12.019-14.134l-126.954-399.257a23.998 23.998 0 0 1 .174-15.071L-166.722-8.019a23.999 23.999 0 0 1 18.943-15.905l262.142-41.52a23.999 23.999 0 0 1 22.931 9.274l222.234 295.316a24 24 0 0 1 4.822 14.28l2.637 418.947a23.996 23.996 0 0 1-7.064 17.156l-212.57 211.703z" stroke="url(#l)"/><path opacity=".188" d="M192.901 896.92a24.001 24.001 0 0 1-27.449 5.834l-272.424-120.017a23.995 23.995 0 0 1-12.779-13.49l-146.391-387.966a24.003 24.003 0 0 1-.609-15.11L-165.5 14.364a23.999 23.999 0 0 1 18.074-16.838L110.54-57.306a24 24 0 0 1 23.36 8.03l235.59 280.21a23.996 23.996 0 0 1 5.589 14.052l24.066 413.966a24.002 24.002 0 0 1-6.187 17.522L192.901 896.92z" stroke="url(#m)"/><path opacity=".203" d="M237.625 891.4a24.002 24.002 0 0 1-27.035 7.244L-65.775 794.393a23.995 23.995 0 0 1-13.504-12.806l-164.996-375.744a24.002 24.002 0 0 1-1.396-15.11l82.494-353.073a24 24 0 0 1 17.159-17.722l253.121-67.824a24 24 0 0 1 23.721 6.768l247.979 264.524a24 24 0 0 1 6.346 13.783l44.982 407.903a24.003 24.003 0 0 1-5.292 17.842L237.625 891.4z" stroke="url(#n)"/><path opacity=".217" d="M281.466 884.73a24 24 0 0 1-26.547 8.626l-279.408-88.405a23.997 23.997 0 0 1-14.193-12.082l-182.727-362.65a23.998 23.998 0 0 1-2.184-15.07l63.882-353.35a24 24 0 0 1 16.201-18.555l247.628-80.46a24.001 24.001 0 0 1 24.014 5.49L387.507 216.59a23.994 23.994 0 0 1 7.091 13.475l65.331 400.794a24.001 24.001 0 0 1-4.381 18.118L281.466 884.73z" stroke="url(#o)"/><path opacity=".232" d="M324.369 876.971a23.999 23.999 0 0 1-25.988 9.976l-281.555-72.53a23.999 23.999 0 0 1-14.844-11.322l-199.544-348.74a23.999 23.999 0 0 1-2.972-14.988l45.467-352.656a24 24 0 0 1 15.202-19.337l241.513-92.708a24 24 0 0 1 24.236 4.198l269.762 231.651a24 24 0 0 1 7.82 13.127l85.063 392.685a24.003 24.003 0 0 1-3.455 18.346L324.369 876.971z" stroke="url(#p)"/><path opacity=".246" d="M366.284 868.186a24 24 0 0 1-25.36 11.291L58.111 822.8a23.998 23.998 0 0 1-15.455-10.526l-215.41-334.073a24.005 24.005 0 0 1-3.757-14.867l27.298-351.013a24 24 0 0 1 14.166-20.064L99.752-12.283a24 24 0 0 1 24.389 2.899l279.12 214.587a24 24 0 0 1 8.534 12.74l104.127 383.619a23.997 23.997 0 0 1-2.518 18.528l-147.12 248.096z" stroke="url(#q)"/><path opacity=".261" d="M407.165 858.441a24 24 0 0 1-24.664 12.567L99.31 830.113a24 24 0 0 1-16.023-9.697l-230.292-318.712a24.001 24.001 0 0 1-4.539-14.705l9.425-348.444a24 24 0 0 1 13.095-20.735L98.489 1.896a24 24 0 0 1 24.473 1.594l287.437 197.185a24.002 24.002 0 0 1 9.229 12.315l122.48 373.645a23.998 23.998 0 0 1-1.572 18.662L407.165 858.441z" stroke="url(#r)"/><path opacity=".275" d="M446.968 847.803a24 24 0 0 1-23.903 13.8l-282.698-25.231a24.002 24.002 0 0 1-16.548-8.838l-244.163-302.717a23.996 23.996 0 0 1-5.312-14.503l-8.108-344.977a23.999 23.999 0 0 1 11.993-21.348L97.914 17.154a24.001 24.001 0 0 1 24.485.288L417.103 196.95a24.005 24.005 0 0 1 9.904 11.853l140.079 362.81a23.997 23.997 0 0 1-.62 18.749l-119.498 257.44z" stroke="url(#s)"/><path opacity=".29" d="M485.656 836.341a24 24 0 0 1-23.079 14.988l-281.349-9.735a23.996 23.996 0 0 1-17.026-7.949L-92.795 547.492a24.002 24.002 0 0 1-6.079-14.262l-25.254-340.638a23.998 23.998 0 0 1 10.863-21.902L98.077 33.442a24 24 0 0 1 24.428-1.015l300.916 161.621a23.995 23.995 0 0 1 10.557 11.354l156.884 351.167a23.998 23.998 0 0 1 .336 18.787L485.656 836.341z" stroke="url(#t)"/><path opacity=".304" d="M523.194 824.126a24 24 0 0 1-22.197 16.127l-279.16 5.549a23.999 23.999 0 0 1-17.457-7.034L-64.393 569.683a24 24 0 0 1-6.834-13.981l-41.972-335.459a24.003 24.003 0 0 1 9.708-22.397L99.026 50.709a24 24 0 0 1 24.3-2.312l306.07 143.581a23.996 23.996 0 0 1 11.185 10.82l172.86 338.769a24.001 24.001 0 0 1 1.296 18.777l-91.543 263.782z" stroke="url(#u)"/><path opacity=".319" d="M559.553 811.231a23.998 23.998 0 0 1-21.256 17.213l-276.15 20.575a24 24 0 0 1-17.84-6.096L-35.165 591.346a24 24 0 0 1-7.577-13.661l-58.221-329.473a24 24 0 0 1 8.53-22.828L100.808 68.901a24 24 0 0 1 24.102-3.598l310.169 125.45a23.989 23.989 0 0 1 11.787 10.252L634.84 526.676a24.002 24.002 0 0 1 2.254 18.718l-77.541 265.837z" stroke="url(#v)"/><path opacity=".333" d="M594.707 797.727a23.999 23.999 0 0 1-20.263 18.245l-272.338 35.3a24 24 0 0 1-18.173-5.137L-5.151 612.441a23.998 23.998 0 0 1-8.306-13.303l-73.962-322.715a24 24 0 0 1 7.334-23.197L103.461 87.961a24 24 0 0 1 23.837-4.87l313.216 107.291a23.992 23.992 0 0 1 12.361 9.65L655.072 511.96a24.003 24.003 0 0 1 3.209 18.611l-63.574 267.156z" stroke="url(#w)"/><path opacity=".348" d="M628.636 783.69a24 24 0 0 1-19.219 19.219l-267.75 49.68a23.998 23.998 0 0 1-18.455-4.159L25.615 632.928a24.002 24.002 0 0 1-9.018-12.906l-89.161-315.221a24 24 0 0 1 6.123-23.503l173.466-173.466a24 24 0 0 1 23.503-6.123l315.221 89.161a24.001 24.001 0 0 1 12.906 9.018l215.502 297.597a23.998 23.998 0 0 1 4.159 18.455l-49.68 267.75z" stroke="url(#x)"/><path opacity=".362" d="M661.323 769.193a24 24 0 0 1-18.127 20.133l-262.412 63.676a24 24 0 0 1-18.684-3.165L57.093 652.77a24.001 24.001 0 0 1-9.711-12.473L-56.401 333.268a24.001 24.001 0 0 1 4.9-23.745l163.035-181.067a24 24 0 0 1 23.102-7.356l316.195 71.121a24.004 24.004 0 0 1 13.42 8.355l227.87 282.737a24.003 24.003 0 0 1 5.1 18.251l-35.898 267.629z" stroke="url(#y)"/><path opacity=".377" d="M692.755 754.312a23.999 23.999 0 0 1-16.992 20.983l-256.349 77.249a23.999 23.999 0 0 1-18.86-2.157L89.244 671.932a24.002 24.002 0 0 1-10.386-12.003L-38.94 361.751a24 24 0 0 1 3.67-23.922l152.286-188.058a24 24 0 0 1 22.636-8.563l316.154 53.228a24.006 24.006 0 0 1 13.9 7.663l239.28 267.405a23.999 23.999 0 0 1 6.032 18l-22.263 266.808z" stroke="url(#z)"/><path opacity=".391" d="M722.926 739.12a24.001 24.001 0 0 1-15.817 21.77l-249.592 90.361a24 24 0 0 1-18.983-1.14l-316.51-159.729a23.998 23.998 0 0 1-11.038-11.498L-20.19 390.174a23.999 23.999 0 0 1 2.434-24.034L123.5 171.716a24.001 24.001 0 0 1 22.106-9.742l315.115 35.54a24.002 24.002 0 0 1 14.346 6.944l249.718 251.661a24 24 0 0 1 6.951 17.701l-8.811 265.3z" stroke="url(#A)"/><path opacity=".406" d="M751.831 723.692a24 24 0 0 1-14.605 22.489L495.052 849.16a23.997 23.997 0 0 1-19.05-.115L155.389 708.091a23.995 23.995 0 0 1-11.666-10.959L-.17 418.467a24 24 0 0 1 1.196-24.083L131.01 194.229a24 24 0 0 1 21.514-10.889l313.1 18.11a23.993 23.993 0 0 1 14.756 6.2l259.173 235.563a24.003 24.003 0 0 1 7.854 17.357l4.425 263.122z" stroke="url(#B)"/><path opacity=".42" d="M779.472 708.101a24.002 24.002 0 0 1-13.36 23.141L531.986 846.31a23.997 23.997 0 0 1-19.063.914L189.296 725.032a24.002 24.002 0 0 1-12.269-10.386L21.102 446.557a23.999 23.999 0 0 1-.039-24.066l118.499-205.245a24 24 0 0 1 20.861-12l310.134.991a24 24 0 0 1 15.129 5.432l267.635 219.173a24.003 24.003 0 0 1 8.74 16.967l17.411 260.292z" stroke="url(#C)"/><path opacity=".435" d="M805.853 692.422a24 24 0 0 1-12.087 23.722L568.282 842.742a24 24 0 0 1-19.021 1.945L223.696 741.181a24.003 24.003 0 0 1-12.844-9.782L43.6 474.377a24 24 0 0 1-1.269-23.986l106.841-209.687a23.998 23.998 0 0 1 20.15-13.072l306.244-15.764c5.536-.285 11 1.355 15.464 4.641l275.1 202.549a23.996 23.996 0 0 1 9.607 16.531l30.116 256.833z" stroke="url(#D)"/><path opacity=".449" d="M830.984 676.725a24 24 0 0 1-10.789 24.232L603.91 838.498a24.002 24.002 0 0 1-18.923 2.974l-326.444-84.957a24.003 24.003 0 0 1-13.391-9.146L67.296 501.857a24 24 0 0 1-2.489-23.842l95.045-213.475a24 24 0 0 1 19.384-14.104l301.459-32.106a23.999 23.999 0 0 1 15.758 3.831l281.569 185.748a23.997 23.997 0 0 1 10.451 16.053l42.511 252.763z" stroke="url(#E)"/><path opacity=".464" d="M854.879 661.082a24.001 24.001 0 0 1-9.47 24.67L638.843 833.62a23.999 23.999 0 0 1-18.77 4L293.79 771.017a24.008 24.008 0 0 1-13.908-8.482L92.162 528.934a24.001 24.001 0 0 1-3.699-23.635l83.149-216.61a24.002 24.002 0 0 1 18.563-15.09l295.814-47.989A24.002 24.002 0 0 1 502 228.613l287.041 168.83a24 24 0 0 1 11.273 15.532l54.565 248.107z" stroke="url(#F)"/><path opacity=".478" d="M877.552 645.561a24 24 0 0 1-8.134 25.035L673.053 828.155a24.004 24.004 0 0 1-18.562 5.018L329.386 784.67a24.003 24.003 0 0 1-14.393-7.789L118.157 555.544a24 24 0 0 1-4.891-23.365l71.187-219.091a24 24 0 0 1 17.691-16.028l289.342-63.368a24 24 0 0 1 16.222 2.159l291.525 151.852a24.002 24.002 0 0 1 12.067 14.97l66.252 242.888z" stroke="url(#G)"/><path opacity=".493" d="M899.029 630.232a23.998 23.998 0 0 1-6.786 25.325L706.519 822.146a24 24 0 0 1-18.298 6.026l-322.938-30.711a24.006 24.006 0 0 1-14.845-7.069L145.249 581.629a23.999 23.999 0 0 1-6.066-23.035l59.195-220.92a24.004 24.004 0 0 1 16.771-16.916l282.081-78.199a24.003 24.003 0 0 1 16.39 1.3l295.029 134.873a23.995 23.995 0 0 1 12.832 14.367l77.548 237.133z" stroke="url(#H)"/><path opacity=".507" d="M919.331 615.158a24 24 0 0 1-5.429 25.543l-174.684 174.94a24.002 24.002 0 0 1-17.979 7.021l-319.811-13.283a23.995 23.995 0 0 1-15.261-6.324L173.392 607.129a24 24 0 0 1-7.218-22.645l47.208-222.099a24.001 24.001 0 0 1 15.805-17.751l274.07-92.444a24.002 24.002 0 0 1 16.514.43l297.564 117.945a24 24 0 0 1 13.569 13.727l88.427 230.866z" stroke="url(#I)"/><path opacity=".522" d="M938.488 600.405a24 24 0 0 1-4.068 25.685L771.134 808.686a24.003 24.003 0 0 1-17.606 8l-315.754 3.733a24.007 24.007 0 0 1-15.642-5.556L202.543 631.992a24.001 24.001 0 0 1-8.346-22.197l35.262-222.635a23.998 23.998 0 0 1 14.797-18.531l265.352-106.064a23.995 23.995 0 0 1 16.593-.45l299.146 101.123a24.002 24.002 0 0 1 14.272 13.049l98.869 224.118z" stroke="url(#J)"/><path opacity=".536" d="M956.532 586.033a24 24 0 0 1-2.707 25.753L802.254 801.328a24.008 24.008 0 0 1-17.181 8.96l-310.802 20.286a23.999 23.999 0 0 1-15.986-4.766L232.656 656.165a24.002 24.002 0 0 1-9.446-21.691l23.39-222.537a23.997 23.997 0 0 1 13.749-19.253l255.969-119.025a24.003 24.003 0 0 1 16.628-1.339l299.792 84.463a23.998 23.998 0 0 1 14.942 12.336l108.852 216.914z" stroke="url(#K)"/><path opacity=".551" d="M973.497 572.101a23.999 23.999 0 0 1-1.349 25.747L832.563 793.615a24.002 24.002 0 0 1-16.702 9.898l-304.994 36.33a24 24 0 0 1-16.292-3.956L263.68 679.6a23.998 23.998 0 0 1-10.515-21.131l11.625-221.811a23.997 23.997 0 0 1 12.665-19.916l245.968-131.296a23.998 23.998 0 0 1 16.616-2.231l299.525 68.011a24.001 24.001 0 0 1 15.576 11.59l118.357 209.285z" stroke="url(#L)"/><path opacity=".565" d="M989.422 558.666a23.999 23.999 0 0 1 0 25.668L862.053 785.595a23.997 23.997 0 0 1-16.173 10.811l-298.368 51.822a23.999 23.999 0 0 1-16.558-3.129L295.562 702.253a23.998 23.998 0 0 1-11.549-20.517V461.265a23.998 23.998 0 0 1 11.549-20.518l235.392-142.846a24.004 24.004 0 0 1 16.558-3.129l298.368 51.822a23.995 23.995 0 0 1 16.173 10.812l127.369 201.26z" stroke="url(#M)"/><path opacity=".58" d="M1004.35 545.781a23.996 23.996 0 0 1 1.33 25.517L890.719 777.315a23.999 23.999 0 0 1-15.594 11.697l-290.967 66.719a23.999 23.999 0 0 1-16.784-2.284L328.249 724.083a24 24 0 0 1-12.547-19.853l-11.453-218.529a24.001 24.001 0 0 1 10.403-21.056l224.293-153.652a23.996 23.996 0 0 1 16.453-4.025l296.348 35.939a24 24 0 0 1 16.731 10.003l135.873 192.871z" stroke="url(#N)"/><path opacity=".594" d="M1018.32 533.497a23.997 23.997 0 0 1 2.65 25.294L918.554 768.823a23.997 23.997 0 0 1-14.965 12.553l-282.836 80.985a23.999 23.999 0 0 1-16.968-1.425L361.683 745.05a24.002 24.002 0 0 1-13.506-19.139l-22.702-215.999a23.997 23.997 0 0 1 9.232-21.529l212.717-163.689a23.997 23.997 0 0 1 16.301-4.922l293.493 20.41a23.998 23.998 0 0 1 17.248 9.168l143.854 184.147z" stroke="url(#O)"/><path opacity=".609" d="M1031.38 521.862a24.028 24.028 0 0 1 3.96 25l-89.78 213.304a24.001 24.001 0 0 1-14.29 13.377l-274.018 94.582a24.008 24.008 0 0 1-17.112-.553L395.808 765.121a24 24 0 0 1-14.424-18.378l-33.719-212.896a24 24 0 0 1 8.038-21.937l200.715-172.939a24.007 24.007 0 0 1 16.103-5.814l289.834 5.277a24 24 0 0 1 17.725 8.306l151.3 175.122z" stroke="url(#P)"/><path opacity=".623" d="M1043.58 510.919a24.002 24.002 0 0 1 5.23 24.638l-77.072 215.834a23.997 23.997 0 0 1-13.569 14.164L693.606 873.036a24.002 24.002 0 0 1-17.211.329l-245.83-89.099a24 24 0 0 1-15.298-17.574l-44.475-209.239a24.002 24.002 0 0 1 6.827-22.277l188.338-181.384a24.001 24.001 0 0 1 15.857-6.7l285.406-9.418a23.997 23.997 0 0 1 18.157 7.42l158.203 165.825z" stroke="url(#Q)"/><path opacity=".638" d="M1054.97 500.71a24.009 24.009 0 0 1 6.48 24.208l-64.359 217.626a24.003 24.003 0 0 1-12.804 14.914L729.769 877.109a24.002 24.002 0 0 1-17.268 1.219L465.89 802.457a24 24 0 0 1-16.125-16.727l-54.942-205.046a24 24 0 0 1 5.601-22.549L576.06 369.124a23.998 23.998 0 0 1 15.564-7.578l280.245-23.639a24.003 24.003 0 0 1 18.545 6.514L1054.97 500.71z" stroke="url(#R)"/><path opacity=".652" d="M1065.6 491.273a24.01 24.01 0 0 1 7.7 23.713l-51.67 218.685a24.007 24.007 0 0 1-12 15.622L765.694 880.36a24 24 0 0 1-17.281 2.116l-246.69-62.803a24 24 0 0 1-16.904-15.842l-65.094-200.338a23.998 23.998 0 0 1 4.365-22.752L586.751 384.93a23.998 23.998 0 0 1 15.224-8.444l274.387-37.346a23.994 23.994 0 0 1 18.888 5.587l170.35 146.546z" stroke="url(#S)"/><path opacity=".667" d="M1075.52 482.641a23.988 23.988 0 0 1 8.89 23.154l-39.06 219.02a24.005 24.005 0 0 1-11.15 16.288L801.338 882.809a24.003 24.003 0 0 1-17.249 3.018l-246.087-49.934a24 24 0 0 1-17.633-14.92l-74.906-195.136a23.998 23.998 0 0 1 3.121-22.887L598.05 401.177a23.996 23.996 0 0 1 14.838-9.299l267.87-50.508a23.997 23.997 0 0 1 19.186 4.643l175.576 136.628z" stroke="url(#T)"/><path opacity=".681" d="M1084.8 474.845a24.008 24.008 0 0 1 10.04 22.535l-26.56 218.64a24 24 0 0 1-10.26 16.91L836.66 884.478a24 24 0 0 1-17.173 3.922l-244.824-37.298a24 24 0 0 1-18.31-13.965l-84.354-189.462a23.999 23.999 0 0 1 1.874-22.951l136.101-206.897a24.002 24.002 0 0 1 14.406-10.137l260.738-63.095a24.004 24.004 0 0 1 19.437 3.685L1084.8 474.845z" stroke="url(#U)"/><path opacity=".696" d="M1093.49 467.913a24.001 24.001 0 0 1 11.14 21.857l-14.2 217.559a24.003 24.003 0 0 1-9.35 17.484L871.616 885.39a23.998 23.998 0 0 1-17.051 4.828l-242.921-24.929a24 24 0 0 1-18.935-12.979l-93.416-183.34a23.999 23.999 0 0 1 .629-22.947l122.618-211.18a23.993 23.993 0 0 1 13.928-10.957l253.031-75.077a24 24 0 0 1 19.64 2.714l184.351 116.39z" stroke="url(#V)"/><path opacity=".71" d="M1101.65 461.867a24.001 24.001 0 0 1 12.2 21.123l-2.04 215.791a24.015 24.015 0 0 1-8.4 18.009L906.167 885.573a24.004 24.004 0 0 1-16.885 5.73l-240.405-12.856a23.998 23.998 0 0 1-19.503-11.966L527.301 689.685a24 24 0 0 1-.611-22.873l109.068-214.624a24.002 24.002 0 0 1 13.406-11.758L893.957 354a24 24 0 0 1 19.794 1.734l187.899 106.133z" stroke="url(#W)"/><path opacity=".725" d="M1109.33 456.727a23.988 23.988 0 0 1 13.21 20.336l9.9 213.355a24.01 24.01 0 0 1-7.41 18.483L940.276 885.054a24.003 24.003 0 0 1-16.674 6.629l-237.299-1.111a23.999 23.999 0 0 1-20.015-10.928L555.983 709.789a24 24 0 0 1-1.843-22.73l95.503-217.235a23.996 23.996 0 0 1 12.839-12.536l236.069-97.132a24 24 0 0 1 19.9.746l190.879 95.825z" stroke="url(#X)"/><path opacity=".739" d="M1116.6 452.509a24.005 24.005 0 0 1 14.17 19.499l21.58 210.269a23.999 23.999 0 0 1-6.41 18.903L973.907 883.863a23.994 23.994 0 0 1-16.417 7.523l-233.632 10.278a24 24 0 0 1-20.471-9.87L585.294 729.252a23.998 23.998 0 0 1-3.061-22.519l81.971-219.021a23.997 23.997 0 0 1 12.228-13.289L903.335 367.26a24.002 24.002 0 0 1 19.957-.248l193.308 85.497z" stroke="url(#Y)"/><path opacity=".754" d="M1123.51 449.226a23.999 23.999 0 0 1 15.08 18.615l32.95 206.553a23.998 23.998 0 0 1-5.37 19.27l-159.15 188.369a23.988 23.988 0 0 1-16.111 8.409l-229.432 21.285a24.002 24.002 0 0 1-20.869-8.794L615.185 748.048a24.001 24.001 0 0 1-4.263-22.24l68.522-219.993a24.006 24.006 0 0 1 11.575-14.016l217.342-116.506a23.997 23.997 0 0 1 19.965-1.244l195.184 75.177z" stroke="url(#Z)"/><path opacity=".768" d="M1130.13 446.885a24.002 24.002 0 0 1 15.93 17.688l44 202.231a24.048 24.048 0 0 1-4.31 19.58L1039.6 879.598a24.006 24.006 0 0 1-15.77 9.283l-224.729 31.887a23.999 23.999 0 0 1-21.207-7.702L645.613 766.153a24 24 0 0 1-5.444-21.896l55.203-220.164a24 24 0 0 1 10.881-14.712l207.432-125.15a23.997 23.997 0 0 1 19.923-2.24l196.522 64.894z" stroke="url(#aa)"/><path opacity=".783" d="M1136.52 445.492a23.992 23.992 0 0 1 16.71 16.72l54.68 197.328a23.97 23.97 0 0 1-3.23 19.834L1071.6 876.592a24.032 24.032 0 0 1-15.38 10.147L836.666 928.8a24.001 24.001 0 0 1-21.486-6.601L676.528 783.547a24.003 24.003 0 0 1-6.601-21.486l42.062-219.552a23.998 23.998 0 0 1 10.146-15.378l197.219-133.082a23.999 23.999 0 0 1 19.833-3.234l197.333 54.677z" stroke="url(#ab)"/><path opacity=".797" d="M1142.72 445.048a24.021 24.021 0 0 1 17.46 15.716l64.96 191.87a24.012 24.012 0 0 1-2.14 20.027l-120.01 200.392a23.988 23.988 0 0 1-14.94 10.995l-213.934 51.788a24.001 24.001 0 0 1-21.706-5.491L707.883 800.212a23.998 23.998 0 0 1-7.729-21.013l29.141-218.175a24.001 24.001 0 0 1 9.374-16.011l186.749-140.294a24 24 0 0 1 19.694-4.224l197.608 44.553z" stroke="url(#ac)"/><path opacity=".812" d="M1148.81 445.551a24.012 24.012 0 0 1 18.13 14.678l74.83 185.885a24.031 24.031 0 0 1-1.04 20.162l-106.97 202.742a23.978 23.978 0 0 1-14.46 11.828l-207.909 61.049a24.004 24.004 0 0 1-21.866-4.376L739.629 816.135a24 24 0 0 1-8.827-20.478l16.489-216.056a24 24 0 0 1 8.562-16.608L931.925 416.21a23.998 23.998 0 0 1 19.506-5.206l197.379 34.547z" stroke="url(#ad)"/><path opacity=".826" d="M1154.84 446.994a24.003 24.003 0 0 1 18.74 13.612l84.24 179.401a23.984 23.984 0 0 1 .08 20.236l-94.02 204.284a24.003 24.003 0 0 1-13.94 12.643l-201.507 69.828a24 24 0 0 1-21.966-3.26L771.715 831.304a24.004 24.004 0 0 1-9.889-19.883l4.144-213.219a23.998 23.998 0 0 1 7.715-17.168l165.231-152.546a24 24 0 0 1 19.27-6.18l196.654 24.686z" stroke="url(#ae)"/><path opacity=".841" d="M1160.87 449.368c8.14.625 15.4 5.341 19.28 12.52l93.19 172.451a24.016 24.016 0 0 1 1.2 20.248l-81.21 205.034a24.026 24.026 0 0 1-13.38 13.436l-194.76 78.114a24 24 0 0 1-22.006-2.147L804.095 845.711a24.002 24.002 0 0 1-10.912-19.23l-7.854-209.691a23.999 23.999 0 0 1 6.833-17.688l154.276-157.585a24 24 0 0 1 18.985-7.141l195.447 14.992z" stroke="url(#af)"/><path opacity=".855" d="M1166.95 452.661a24.013 24.013 0 0 1 19.76 11.407l101.64 165.065a24.018 24.018 0 0 1 2.32 20.198l-68.59 205.009a24.006 24.006 0 0 1-12.77 14.209l-187.7 85.893a24.009 24.009 0 0 1-21.99-1.039l-162.903-94.052a24.001 24.001 0 0 1-11.893-18.522l-19.465-205.5a24.002 24.002 0 0 1 5.919-18.166l143.248-161.904a23.995 23.995 0 0 1 18.654-8.087l193.77 5.489z" stroke="url(#ag)"/><path opacity=".87" d="M1173.14 456.857a24.006 24.006 0 0 1 20.17 10.276l109.57 157.276a24.028 24.028 0 0 1 3.45 20.086l-56.2 204.231a23.991 23.991 0 0 1-12.13 14.957l-180.37 93.157a24.004 24.004 0 0 1-21.91.06l-166.185-84.678a24.003 24.003 0 0 1-12.83-17.76l-30.653-200.678a24.004 24.004 0 0 1 4.973-18.602L963.22 469.674a24 24 0 0 1 18.276-9.018l191.644-3.799z" stroke="url(#ah)"/><path opacity=".884" d="M1179.49 461.935a23.992 23.992 0 0 1 20.51 9.133l116.97 149.118a24.007 24.007 0 0 1 4.57 19.912l-44.08 202.725a24.017 24.017 0 0 1-11.44 15.679l-172.8 99.898a23.993 23.993 0 0 1-21.77 1.147l-168.952-75.221a24.001 24.001 0 0 1-13.717-16.949l-41.384-195.258a23.995 23.995 0 0 1 3.996-18.992l121.16-168.408a24.001 24.001 0 0 1 17.854-9.928l189.083-12.856z" stroke="url(#ai)"/><path opacity=".899" d="M1186.05 467.875a24.004 24.004 0 0 1 20.79 7.98l123.82 140.626a24.02 24.02 0 0 1 5.68 19.674l-32.28 200.519a24.013 24.013 0 0 1-10.72 16.372l-165.01 106.112a24 24 0 0 1-21.58 2.219l-171.189-65.711a24.004 24.004 0 0 1-14.553-16.091L869.38 690.302a24 24 0 0 1 2.993-19.337l110.185-170.613a24 24 0 0 1 17.387-10.819l186.105-21.658z" stroke="url(#aj)"/><path opacity=".913" d="M1192.88 474.651a23.987 23.987 0 0 1 20.99 6.822l130.1 131.834a23.972 23.972 0 0 1 6.78 19.374l-20.83 197.64a24.014 24.014 0 0 1-9.95 17.037L1162.9 959.153a23.99 23.99 0 0 1-21.33 3.272l-172.894-56.177a23.998 23.998 0 0 1-15.336-15.187l-61.355-182.763a23.995 23.995 0 0 1 1.964-19.631l99.313-172.142a24.003 24.003 0 0 1 16.878-11.685l182.74-30.189z" stroke="url(#ak)"/><path opacity=".928" d="M1200.01 482.235c7.55-1.62 15.41.487 21.14 5.663l135.8 122.78a24.024 24.024 0 0 1 7.87 19.011l-9.79 194.12a24.012 24.012 0 0 1-9.15 17.67l-148.97 116.946a23.995 23.995 0 0 1-21.03 4.305l-174.08-46.646a23.995 23.995 0 0 1-16.064-14.243l-70.538-175.764a24.004 24.004 0 0 1 .911-19.877l88.581-173.006a24.01 24.01 0 0 1 16.33-12.527l178.99-38.432z" stroke="url(#al)"/><path opacity=".942" d="M1207.5 490.597a24.011 24.011 0 0 1 21.21 4.507l140.91 113.499a23.991 23.991 0 0 1 8.95 18.586l.83 189.993a23.997 23.997 0 0 1-8.32 18.269l-140.76 121.568a24.009 24.009 0 0 1-20.68 5.312l-174.76-37.146a24.02 24.02 0 0 1-16.73-13.263l-79.149-168.313a24 24 0 0 1-.163-20.071l78.032-173.23a24.009 24.009 0 0 1 15.74-13.341l174.89-46.37z" stroke="url(#am)"/><path opacity=".957" d="M1215.39 499.703a24.006 24.006 0 0 1 21.21 3.359l145.43 104.026a23.99 23.99 0 0 1 10 18.1l10.98 185.295a23.988 23.988 0 0 1-7.44 18.834l-132.49 125.662a23.994 23.994 0 0 1-20.27 6.291l-174.93-27.705a24.006 24.006 0 0 1-17.33-12.247l-87.176-160.455a23.997 23.997 0 0 1-1.258-20.212l67.704-172.83a24.035 24.035 0 0 1 15.1-14.126l170.47-53.992z" stroke="url(#an)"/></g><defs><linearGradient id="a" x1="-406.189" y1="861.024" x2="71.925" y2="-212.838" gradientUnits="userSpaceOnUse"><stop stop-color="#D245CE"/><stop offset="1" stop-color="#BAC9FF"/></linearGradient><linearGradient id="b" x1="-355.996" y1="873.706" x2="61.543" y2="-214.021" gradientUnits="userSpaceOnUse"><stop stop-color="#D245CE"/><stop offset="1" stop-color="#BAC9FF"/></linearGradient><linearGradient id="c" x1="-305.741" y1="884.763" x2="51.093" y2="-213.458" gradientUnits="userSpaceOnUse"><stop stop-color="#D245CE"/><stop offset="1" stop-color="#BAC9FF"/></linearGradient><linearGradient id="d" x1="-255.511" y1="894.208" x2="40.672" y2="-211.161" gradientUnits="userSpaceOnUse"><stop stop-color="#D245CE"/><stop offset="1" stop-color="#BAC9FF"/></linearGradient><linearGradient id="e" x1="-205.396" y1="902.058" x2="30.373" y2="-207.149" gradientUnits="userSpaceOnUse"><stop stop-color="#D245CE"/><stop offset="1" stop-color="#BAC9FF"/></linearGradient><linearGradient id="f" x1="-155.482" y1="908.333" x2="20.29" y2="-201.446" gradientUnits="userSpaceOnUse"><stop stop-color="#D245CE"/><stop offset="1" stop-color="#BAC9FF"/></linearGradient><linearGradient id="g" x1="-105.852" y1="913.061" x2="10.513" y2="-194.078" gradientUnits="userSpaceOnUse"><stop stop-color="#D245CE"/><stop offset="1" stop-color="#BAC9FF"/></linearGradient><linearGradient id="h" x1="-56.589" y1="916.272" x2="1.131" y2="-185.079" gradientUnits="userSpaceOnUse"><stop stop-color="#D245CE"/><stop offset="1" stop-color="#BAC9FF"/></linearGradient><linearGradient id="i" x1="-7.772" y1="918" x2="-7.772" y2="-174.487" gradientUnits="userSpaceOnUse"><stop stop-color="#D245CE"/><stop offset="1" stop-color="#BAC9FF"/></linearGradient><linearGradient id="j" x1="40.521" y1="918.285" x2="-16.113" y2="-162.344" gradientUnits="userSpaceOnUse"><stop stop-color="#D245CE"/><stop offset="1" stop-color="#BAC9FF"/></linearGradient><linearGradient id="k" x1="88.216" y1="917.171" x2="-23.811" y2="-148.696" gradientUnits="userSpaceOnUse"><stop stop-color="#D245CE"/><stop offset="1" stop-color="#BAC9FF"/></linearGradient><linearGradient id="l" x1="135.244" y1="914.703" x2="-30.79" y2="-133.593" gradientUnits="userSpaceOnUse"><stop stop-color="#D245CE"/><stop offset="1" stop-color="#BAC9FF"/></linearGradient><linearGradient id="m" x1="181.535" y1="910.932" x2="-36.978" y2="-117.089" gradientUnits="userSpaceOnUse"><stop stop-color="#D245CE"/><stop offset="1" stop-color="#BAC9FF"/></linearGradient><linearGradient id="n" x1="227.026" y1="905.912" x2="-42.305" y2="-99.243" gradientUnits="userSpaceOnUse"><stop stop-color="#D245CE"/><stop offset="1" stop-color="#BAC9FF"/></linearGradient><linearGradient id="o" x1="271.655" y1="899.7" x2="-46.706" y2="-80.114" gradientUnits="userSpaceOnUse"><stop stop-color="#D245CE"/><stop offset="1" stop-color="#BAC9FF"/></linearGradient><linearGradient id="p" x1="315.366" y1="892.355" x2="-50.12" y2="-59.769" gradientUnits="userSpaceOnUse"><stop stop-color="#D245CE"/><stop offset="1" stop-color="#BAC9FF"/></linearGradient><linearGradient id="q" x1="358.104" y1="883.94" x2="-52.491" y2="-38.273" gradientUnits="userSpaceOnUse"><stop stop-color="#D245CE"/><stop offset="1" stop-color="#BAC9FF"/></linearGradient><linearGradient id="r" x1="399.824" y1="874.52" x2="-53.764" y2="-15.696" gradientUnits="userSpaceOnUse"><stop stop-color="#D245CE"/><stop offset="1" stop-color="#BAC9FF"/></linearGradient><linearGradient id="s" x1="440.477" y1="864.161" x2="-53.892" y2="7.89" gradientUnits="userSpaceOnUse"><stop stop-color="#D245CE"/><stop offset="1" stop-color="#BAC9FF"/></linearGradient><linearGradient id="t" x1="480.025" y1="852.933" x2="-52.829" y2="32.41" gradientUnits="userSpaceOnUse"><stop stop-color="#D245CE"/><stop offset="1" stop-color="#BAC9FF"/></linearGradient><linearGradient id="u" x1="518.429" y1="840.907" x2="-50.54" y2="57.788" gradientUnits="userSpaceOnUse"><stop stop-color="#D245CE"/><stop offset="1" stop-color="#BAC9FF"/></linearGradient><linearGradient id="v" x1="555.659" y1="828.153" x2="-46.986" y2="83.948" gradientUnits="userSpaceOnUse"><stop stop-color="#D245CE"/><stop offset="1" stop-color="#BAC9FF"/></linearGradient><linearGradient id="w" x1="591.685" y1="814.746" x2="-42.14" y2="110.811" gradientUnits="userSpaceOnUse"><stop stop-color="#D245CE"/><stop offset="1" stop-color="#BAC9FF"/></linearGradient><linearGradient id="x" x1="626.486" y1="800.759" x2="-35.976" y2="138.297" gradientUnits="userSpaceOnUse"><stop stop-color="#D245CE"/><stop offset="1" stop-color="#BAC9FF"/></linearGradient><linearGradient id="y" x1="660.042" y1="786.267" x2="-28.473" y2="166.326" gradientUnits="userSpaceOnUse"><stop stop-color="#D245CE"/><stop offset="1" stop-color="#BAC9FF"/></linearGradient><linearGradient id="z" x1="692.337" y1="771.345" x2="-19.616" y2="194.817" gradientUnits="userSpaceOnUse"><stop stop-color="#D245CE"/><stop offset="1" stop-color="#BAC9FF"/></linearGradient><linearGradient id="A" x1="723.364" y1="756.068" x2="-9.393" y2="223.689" gradientUnits="userSpaceOnUse"><stop stop-color="#D245CE"/><stop offset="1" stop-color="#BAC9FF"/></linearGradient><linearGradient id="B" x1="753.114" y1="740.512" x2="2.199" y2="252.863" gradientUnits="userSpaceOnUse"><stop stop-color="#D245CE"/><stop offset="1" stop-color="#BAC9FF"/></linearGradient><linearGradient id="C" x1="781.588" y1="724.75" x2="15.166" y2="282.256" gradientUnits="userSpaceOnUse"><stop stop-color="#D245CE"/><stop offset="1" stop-color="#BAC9FF"/></linearGradient><linearGradient id="D" x1="808.787" y1="708.857" x2="29.502" y2="311.791" gradientUnits="userSpaceOnUse"><stop stop-color="#D245CE"/><stop offset="1" stop-color="#BAC9FF"/></linearGradient><linearGradient id="E" x1="834.719" y1="692.906" x2="45.199" y2="341.389" gradientUnits="userSpaceOnUse"><stop stop-color="#D245CE"/><stop offset="1" stop-color="#BAC9FF"/></linearGradient><linearGradient id="F" x1="859.396" y1="676.969" x2="62.247" y2="370.972" gradientUnits="userSpaceOnUse"><stop stop-color="#D245CE"/><stop offset="1" stop-color="#BAC9FF"/></linearGradient><linearGradient id="G" x1="882.832" y1="661.116" x2="80.627" y2="400.464" gradientUnits="userSpaceOnUse"><stop stop-color="#D245CE"/><stop offset="1" stop-color="#BAC9FF"/></linearGradient><linearGradient id="H" x1="905.047" y1="645.416" x2="100.322" y2="429.791" gradientUnits="userSpaceOnUse"><stop stop-color="#D245CE"/><stop offset="1" stop-color="#BAC9FF"/></linearGradient><linearGradient id="I" x1="926.063" y1="629.937" x2="121.304" y2="458.88" gradientUnits="userSpaceOnUse"><stop stop-color="#D245CE"/><stop offset="1" stop-color="#BAC9FF"/></linearGradient><linearGradient id="J" x1="945.907" y1="614.744" x2="143.546" y2="487.663" gradientUnits="userSpaceOnUse"><stop stop-color="#D245CE"/><stop offset="1" stop-color="#BAC9FF"/></linearGradient><linearGradient id="K" x1="964.61" y1="599.9" x2="167.016" y2="516.07" gradientUnits="userSpaceOnUse"><stop stop-color="#D245CE"/><stop offset="1" stop-color="#BAC9FF"/></linearGradient><linearGradient id="L" x1="982.205" y1="585.466" x2="191.677" y2="544.037" gradientUnits="userSpaceOnUse"><stop stop-color="#D245CE"/><stop offset="1" stop-color="#BAC9FF"/></linearGradient><linearGradient id="M" x1="998.728" y1="571.5" x2="217.49" y2="571.5" gradientUnits="userSpaceOnUse"><stop stop-color="#D245CE"/><stop offset="1" stop-color="#BAC9FF"/></linearGradient><linearGradient id="N" x1="1014.22" y1="558.057" x2="244.413" y2="598.401" gradientUnits="userSpaceOnUse"><stop stop-color="#D245CE"/><stop offset="1" stop-color="#BAC9FF"/></linearGradient><linearGradient id="O" x1="1028.72" y1="545.19" x2="272.398" y2="624.683" gradientUnits="userSpaceOnUse"><stop stop-color="#D245CE"/><stop offset="1" stop-color="#BAC9FF"/></linearGradient><linearGradient id="P" x1="1042.28" y1="532.949" x2="301.399" y2="650.293" gradientUnits="userSpaceOnUse"><stop stop-color="#D245CE"/><stop offset="1" stop-color="#BAC9FF"/></linearGradient><linearGradient id="Q" x1="1054.94" y1="521.38" x2="331.365" y2="675.18" gradientUnits="userSpaceOnUse"><stop stop-color="#D245CE"/><stop offset="1" stop-color="#BAC9FF"/></linearGradient><linearGradient id="R" x1="1066.75" y1="510.525" x2="362.241" y2="699.298" gradientUnits="userSpaceOnUse"><stop stop-color="#D245CE"/><stop offset="1" stop-color="#BAC9FF"/></linearGradient><linearGradient id="S" x1="1077.77" y1="500.426" x2="393.971" y2="722.605" gradientUnits="userSpaceOnUse"><stop stop-color="#D245CE"/><stop offset="1" stop-color="#BAC9FF"/></linearGradient><linearGradient id="T" x1="1088.04" y1="491.117" x2="426.498" y2="745.062" gradientUnits="userSpaceOnUse"><stop stop-color="#D245CE"/><stop offset="1" stop-color="#BAC9FF"/></linearGradient><linearGradient id="U" x1="1097.64" y1="482.633" x2="459.764" y2="766.632" gradientUnits="userSpaceOnUse"><stop stop-color="#D245CE"/><stop offset="1" stop-color="#BAC9FF"/></linearGradient><linearGradient id="V" x1="1106.6" y1="475.002" x2="493.707" y2="787.285" gradientUnits="userSpaceOnUse"><stop stop-color="#D245CE"/><stop offset="1" stop-color="#BAC9FF"/></linearGradient><linearGradient id="W" x1="1114.98" y1="468.25" x2="528.263" y2="806.994" gradientUnits="userSpaceOnUse"><stop stop-color="#D245CE"/><stop offset="1" stop-color="#BAC9FF"/></linearGradient><linearGradient id="X" x1="1122.86" y1="462.399" x2="563.372" y2="825.734" gradientUnits="userSpaceOnUse"><stop stop-color="#D245CE"/><stop offset="1" stop-color="#BAC9FF"/></linearGradient><linearGradient id="Y" x1="1130.28" y1="457.466" x2="598.97" y2="843.487" gradientUnits="userSpaceOnUse"><stop stop-color="#D245CE"/><stop offset="1" stop-color="#BAC9FF"/></linearGradient><linearGradient id="Z" x1="1137.31" y1="453.467" x2="634.99" y2="860.236" gradientUnits="userSpaceOnUse"><stop stop-color="#D245CE"/><stop offset="1" stop-color="#BAC9FF"/></linearGradient><linearGradient id="aa" x1="1144" y1="450.412" x2="671.371" y2="875.97" gradientUnits="userSpaceOnUse"><stop stop-color="#D245CE"/><stop offset="1" stop-color="#BAC9FF"/></linearGradient><linearGradient id="ab" x1="1150.42" y1="448.307" x2="708.045" y2="890.682" gradientUnits="userSpaceOnUse"><stop stop-color="#D245CE"/><stop offset="1" stop-color="#BAC9FF"/></linearGradient><linearGradient id="ac" x1="1156.62" y1="447.158" x2="744.95" y2="904.368" gradientUnits="userSpaceOnUse"><stop stop-color="#D245CE"/><stop offset="1" stop-color="#BAC9FF"/></linearGradient><linearGradient id="ad" x1="1162.67" y1="446.962" x2="782.022" y2="917.029" gradientUnits="userSpaceOnUse"><stop stop-color="#D245CE"/><stop offset="1" stop-color="#BAC9FF"/></linearGradient><linearGradient id="ae" x1="1168.63" y1="447.717" x2="819.197" y2="928.667" gradientUnits="userSpaceOnUse"><stop stop-color="#D245CE"/><stop offset="1" stop-color="#BAC9FF"/></linearGradient><linearGradient id="af" x1="1174.54" y1="449.414" x2="856.413" y2="939.292" gradientUnits="userSpaceOnUse"><stop stop-color="#D245CE"/><stop offset="1" stop-color="#BAC9FF"/></linearGradient><linearGradient id="ag" x1="1180.48" y1="452.044" x2="893.608" y2="948.915" gradientUnits="userSpaceOnUse"><stop stop-color="#D245CE"/><stop offset="1" stop-color="#BAC9FF"/></linearGradient><linearGradient id="ah" x1="1186.49" y1="455.592" x2="930.725" y2="957.552" gradientUnits="userSpaceOnUse"><stop stop-color="#D245CE"/><stop offset="1" stop-color="#BAC9FF"/></linearGradient><linearGradient id="ai" x1="1192.62" y1="460.04" x2="967.702" y2="965.22" gradientUnits="userSpaceOnUse"><stop stop-color="#D245CE"/><stop offset="1" stop-color="#BAC9FF"/></linearGradient><linearGradient id="aj" x1="1198.94" y1="465.369" x2="1004.49" y2="971.941" gradientUnits="userSpaceOnUse"><stop stop-color="#D245CE"/><stop offset="1" stop-color="#BAC9FF"/></linearGradient><linearGradient id="ak" x1="1205.49" y1="471.554" x2="1041.02" y2="977.742" gradientUnits="userSpaceOnUse"><stop stop-color="#D245CE"/><stop offset="1" stop-color="#BAC9FF"/></linearGradient><linearGradient id="al" x1="1212.32" y1="478.57" x2="1077.25" y2="982.65" gradientUnits="userSpaceOnUse"><stop stop-color="#D245CE"/><stop offset="1" stop-color="#BAC9FF"/></linearGradient><linearGradient id="am" x1="1219.48" y1="486.387" x2="1113.13" y2="986.697" gradientUnits="userSpaceOnUse"><stop stop-color="#D245CE"/><stop offset="1" stop-color="#BAC9FF"/></linearGradient><linearGradient id="an" x1="1227.01" y1="494.973" x2="1148.62" y2="989.916" gradientUnits="userSpaceOnUse"><stop stop-color="#D245CE"/><stop offset="1" stop-color="#BAC9FF"/></linearGradient></defs></svg>