<svg width="40" height="40" viewBox="0 0 40 40" fill="none" xmlns="http://www.w3.org/2000/svg"><rect width="40" height="40" rx="20" fill="#fff"/><path d="M19.245 13.656l.755.87.755-.87c.277-.319.601-.6.963-.836A5.118 5.118 0 0 1 24.5 12c2.546 0 4.5 1.944 4.5 4.395 0 .91-.216 1.79-.605 2.651-1.243 2.753-4.138 5.144-6.873 7.376l-.01.008c-.518.423-1.03.84-1.512 1.248-.482-.408-.994-.825-1.512-1.248l-.01-.008c-2.735-2.232-5.63-4.623-6.873-7.375-.389-.863-.605-1.742-.605-2.652C11 13.945 12.954 12 15.5 12c1.004 0 1.979.296 2.782.82.362.236.686.517.963.836z" stroke="#CAC3F8" stroke-width="2" stroke-linecap="round"/></svg>