<svg width="24" height="24" viewBox="0 0 24 24" fill="none" xmlns="http://www.w3.org/2000/svg"><path d="M4 21L21 4" stroke="#D0C2DE" stroke-width="2" stroke-linecap="round"/><path fill-rule="evenodd" clip-rule="evenodd" d="M18.117 7.468C16.485 6.122 14.403 5 12 5 6 5 2 12 2 12s2.19 3.832 5.76 5.826l1.484-1.484c-1.132-.535-2.171-1.348-3.08-2.256A17.322 17.322 0 0 1 4.396 12a17.32 17.32 0 0 1 1.768-2.086C7.771 8.308 9.786 7 12 7c1.717 0 3.315.787 4.696 1.89l1.421-1.422zm-6.675 9.505c.184.018.37.027.558.027 2.213 0 4.23-1.308 5.836-2.914A17.32 17.32 0 0 0 19.604 12a17.565 17.565 0 0 0-1.441-1.749l1.415-1.414C21.124 10.467 22 12 22 12s-4 7-10 7c-.788 0-1.541-.12-2.255-.33l1.697-1.698zm3.319-6.148a3 3 0 1 0-3.936 3.936l3.936-3.936zM13 12a1 1 0 1 1-2 0 1 1 0 0 1 2 0z" fill="#D0C2DE"/></svg>