<svg width="32" height="32" viewBox="0 0 32 32" fill="none" xmlns="http://www.w3.org/2000/svg"><path fill-rule="evenodd" clip-rule="evenodd" d="M15.97 24.414h1.634c.28-.03.541-.146.752-.332.153-.223.231-.49.224-.76 0 0-.027-2.316.988-2.662 1.015-.346 2.306 2.237 3.677 3.235.511.429 1.17.635 1.832.573l3.663-.054s1.925-.12 1.015-1.704a12.754 12.754 0 0 0-2.728-3.315c-2.306-2.236-1.99-1.877.778-5.75 1.687-2.357 2.36-3.808 2.148-4.42a1.534 1.534 0 0 0-1.437-.427l-4.137.027a.826.826 0 0 0-.527.093c-.16.12-.288.28-.369.466a24.562 24.562 0 0 1-1.529 3.38c-1.83 3.276-2.57 3.45-2.873 3.25-.698-.48-.527-1.904-.527-2.93 0-3.168.462-4.5-.883-4.845a7.272 7.272 0 0 0-1.937-.2 8.615 8.615 0 0 0-3.426.373c-.475.24-.83.772-.607.812.47.048.905.277 1.213.64.285.61.425 1.28.41 1.956 0 0 .25 3.74-.568 4.207-.554.32-1.318-.333-2.965-3.302a28.53 28.53 0 0 1-1.463-3.208 1.33 1.33 0 0 0-.343-.48 1.481 1.481 0 0 0-.633-.265l-3.928.026a1.28 1.28 0 0 0-.804.28.927.927 0 0 0-.026.732s3.084 7.548 6.563 11.356a9.16 9.16 0 0 0 6.813 3.248z" fill="#CAB1FF"/></svg>