<svg width="24" height="24" viewBox="0 0 24 24" fill="none" xmlns="http://www.w3.org/2000/svg"><mask id="a" fill="#fff"><path d="M3 6a3 3 0 0 1 3-3h10a1 1 0 0 1 1 1v5H6a3 3 0 0 1-3-3z"/></mask><path d="M3 6a3 3 0 0 1 3-3h10a1 1 0 0 1 1 1v5H6a3 3 0 0 1-3-3z" stroke="#966CEE" stroke-width="4" mask="url(#a)"/><rect x="15" y="12" width="5" height="3" rx="1" stroke="#966CEE" stroke-width="2"/><path fill-rule="evenodd" clip-rule="evenodd" d="M5 17V6.5H3V17a3 3 0 0 0 3 3h10a3 3 0 0 0 3-3v-1h-2v1a1 1 0 0 1-1 1H6a1 1 0 0 1-1-1zm12-6h2v-1a3 3 0 0 0-3-3v2a1 1 0 0 1 1 1v1z" fill="#966CEE"/></svg>