<svg width="14" height="15" viewBox="0 0 14 15" fill="none" xmlns="http://www.w3.org/2000/svg"><path fill-rule="evenodd" clip-rule="evenodd" d="M3.984 1.431a3.333 3.333 0 0 1 3.698 0l1.021.681a.667.667 0 1 1-.74 1.11l-1.02-.681a2 2 0 0 0-2.22 0l-1.02.68a.667.667 0 0 1-.74-1.109l1.021-.68zM2.667 5.333c-.737 0-1.334.597-1.334 1.334v5.221c0 .736.597 1.333 1.334 1.333h6.666c.737 0 1.334-.597 1.334-1.333v-.555a.667.667 0 1 1 1.333 0v.555a2.667 2.667 0 0 1-2.667 2.667H2.667A2.667 2.667 0 0 1 0 11.888V6.667A2.667 2.667 0 0 1 2.667 4h6.666A2.667 2.667 0 0 1 12 6.667v.666a.667.667 0 0 1-1.333 0v-.666c0-.737-.597-1.334-1.334-1.334H2.667z" fill="#615473"/><path fill-rule="evenodd" clip-rule="evenodd" d="M11.333 8.667H10A.667.667 0 0 0 10 10h1.333a.667.667 0 1 0 0-1.333zM10 7.333a2 2 0 1 0 0 4h1.333a2 2 0 1 0 0-4H10z" fill="#615473"/></svg>