<svg width="16" height="16" viewBox="0 0 16 16" fill="none" xmlns="http://www.w3.org/2000/svg"><g clip-path="url(#a)"><path d="M7.175 2.537a1 1 0 0 1 1.65 0L10.15 4.47a1 1 0 0 0 .542.393l2.249.663a1 1 0 0 1 .51 1.57l-1.43 1.857a1 1 0 0 0-.207.637l.065 2.344a1 1 0 0 1-1.335.97l-2.209-.786a1 1 0 0 0-.67 0l-2.209.786a1 1 0 0 1-1.334-.97l.064-2.344a1 1 0 0 0-.207-.637L2.55 7.096a1 1 0 0 1 .51-1.569l2.249-.663a1 1 0 0 0 .542-.393l1.325-1.934z" fill="#fff"/></g><defs><clipPath id="a"><path fill="#fff" d="M0 0h16v16H0z"/></clipPath></defs></svg>