<svg width="20" height="20" viewBox="0 0 20 20" fill="none" xmlns="http://www.w3.org/2000/svg"><path fill-rule="evenodd" clip-rule="evenodd" d="M14.167 3.333H5.833v3.334a4.167 4.167 0 0 0 8.334 0V3.333zm-10-1.666v5a5.833 5.833 0 1 0 11.666 0v-5H4.167z" fill="#F3A919"/><path fill-rule="evenodd" clip-rule="evenodd" d="M15.833 4.167v2.5h.417a1.25 1.25 0 1 0 0-2.5h-.417zm-1.666 4.166h2.083a2.917 2.917 0 1 0 0-5.833h-2.083v5.833zM4.167 4.167v2.5H3.75a1.25 1.25 0 0 1 0-2.5h.417zm1.666 4.166H3.75a2.917 2.917 0 1 1 0-5.833h2.083v5.833zM12.5 15.833h-5a.833.833 0 0 0-.833.834h6.666a.833.833 0 0 0-.833-.834zm-5-1.666a2.5 2.5 0 0 0-2.5 2.5v1.666h10v-1.666a2.5 2.5 0 0 0-2.5-2.5h-5z" fill="#F3A919"/><path fill-rule="evenodd" clip-rule="evenodd" d="M10.833 12.5H9.167v1.667h1.666V12.5zM7.5 10.833v5h5v-5h-5z" fill="#F3A919"/></svg>