<svg width="723" height="641" viewBox="0 0 723 641" fill="none" xmlns="http://www.w3.org/2000/svg"><g clip-path="url(#a)" fill-rule="evenodd" clip-rule="evenodd"><path opacity=".014" d="M1032.84 631.994L901.194 884.741c-5.009 9.617-15.61 14.647-25.668 12.179l-264.332-64.854c-5.64-1.384-10.474-4.994-13.489-10.074L387.619 467.95c-2.326-3.919-3.444-8.506-3.212-13.172l18.157-364.943c.444-8.936 5.759-16.99 13.695-20.757l214.986-102.01c7.937-3.766 17.11-2.585 23.638 3.042l266.626 229.814c3.409 2.938 5.859 6.894 7.036 11.358L1034.84 614.57c1.53 5.787.81 12.031-2 17.424zM902.916 885.663c-5.444 10.453-16.967 15.92-27.899 13.238l-264.333-64.854c-6.13-1.504-11.385-5.429-14.661-10.95L385.936 469.055c-2.528-4.26-3.743-9.246-3.491-14.318l18.157-364.943c.483-9.713 6.26-18.468 14.886-22.561l214.987-102.01c8.626-4.094 18.596-2.81 25.693 3.306l266.625 229.814c3.706 3.194 6.369 7.493 7.648 12.345l106.299 403.289c1.66 6.29.88 13.077-2.17 18.939L902.916 885.663z" fill="url(#b)" fill-opacity=".3"/><path opacity=".029" d="M1002.83 653.655L859.675 896.611c-5.498 9.332-16.373 13.781-26.318 10.767L574.43 828.913c-5.567-1.687-10.216-5.547-12.971-10.772L370.616 456.25c-2.125-4.029-3.011-8.657-2.545-13.291l36.2-360.258c.894-8.891 6.62-16.64 14.755-19.969L637.267-26.55c8.135-3.328 17.256-1.652 23.502 4.318l253.093 241.909c3.256 3.112 5.503 7.183 6.453 11.692l85.395 405.03c1.23 5.848.2 12.032-2.88 17.256zM861.352 897.622c-5.977 10.143-17.796 14.979-28.606 11.703L573.819 830.86c-6.052-1.833-11.104-6.03-14.099-11.709L368.876 457.26c-2.309-4.379-3.272-9.409-2.766-14.446l36.201-360.258c.971-9.664 7.195-18.088 16.037-21.706l218.241-89.282c8.843-3.617 18.757-1.796 25.546 4.694L915.228 218.17c3.539 3.382 5.981 7.807 7.014 12.708l85.388 405.031c1.34 6.356.22 13.078-3.12 18.756L861.352 897.622z" fill="url(#c)" fill-opacity=".3"/><path opacity=".043" d="M972.145 674.492l-154.068 232.59c-5.971 9.014-17.082 12.861-26.883 9.309L538.27 824.734c-5.481-1.986-9.934-6.088-12.426-11.446L354.44 444.726c-1.92-4.13-2.574-8.789-1.877-13.381l53.833-354.566c1.339-8.82 7.458-16.24 15.766-19.116l220.855-76.477c8.308-2.877 17.35-.708 23.298 5.588L905.42 239.902c3.096 3.279 5.137 7.457 5.861 12.001l64.604 405.545c.939 5.896-.401 12.003-3.74 17.044zM819.704 908.181c-6.49 9.797-18.567 13.979-29.221 10.118L537.56 826.642c-5.958-2.159-10.799-6.617-13.507-12.441L352.649 445.639c-2.087-4.489-2.798-9.553-2.04-14.545l53.833-354.566c1.455-9.586 8.107-17.651 17.137-20.778l220.854-76.477c9.031-3.128 18.86-.77 25.325 6.074l239.104 253.128c3.366 3.564 5.585 8.106 6.372 13.045l64.603 405.545c1.021 6.408-.436 13.047-4.065 18.526l-154.068 232.59z" fill="url(#d)" fill-opacity=".3"/><path opacity=".058" d="M940.822 694.476L776.46 916.163c-6.424 8.664-17.732 11.893-27.36 7.812L502.752 819.573c-5.383-2.281-9.631-6.615-11.855-12.094L339.065 433.424c-1.714-4.223-2.135-8.903-1.208-13.444l71.003-347.9c1.781-8.722 8.273-15.786 16.728-18.2L648.416-9.754c8.455-2.414 17.392.245 23.026 6.85L896.153 260.55c2.932 3.438 4.764 7.716 5.261 12.286l44.001 404.848c.644 5.93-1.001 11.947-4.593 16.791zm-162.79 222.871c-6.982 9.417-19.273 12.927-29.738 8.492L501.945 821.437c-5.851-2.48-10.468-7.19-12.885-13.146L337.228 434.236c-1.863-4.59-2.32-9.678-1.313-14.613l71.003-347.9c1.935-9.48 8.992-17.16 18.182-19.783l222.829-63.632c9.19-2.625 18.904.265 25.028 7.445l224.71 263.454c3.188 3.737 5.179 8.387 5.719 13.354l44.001 404.849c.7 6.445-1.088 12.985-4.992 18.25L778.032 917.347z" fill="url(#e)" fill-opacity=".3"/><path opacity=".072" d="M908.93 713.577L734.912 923.866c-6.855 8.283-18.32 10.88-27.743 6.284l-239.23-116.675c-5.271-2.571-9.305-7.128-11.257-12.716l-132.19-378.373c-1.505-4.307-1.692-9.001-.538-13.48L411.62 68.613c2.215-8.6 9.059-15.287 17.633-17.229L653.422.604c8.574-1.943 17.378 1.2 22.684 8.095l209.959 272.872c2.763 3.592 4.384 7.961 4.653 12.548l23.644 402.962c.349 5.951-1.597 11.862-5.432 16.496zM736.425 925.134c-7.45 9.003-19.912 11.826-30.155 6.831L467.041 815.289c-5.73-2.794-10.115-7.747-12.237-13.821l-132.19-378.373c-1.635-4.681-1.839-9.783-.585-14.652L409.695 68.15c2.408-9.348 9.847-16.616 19.167-18.727L653.031-1.358c9.319-2.111 18.889 1.304 24.656 8.8l209.959 272.872c3.004 3.904 4.765 8.653 5.058 13.639l23.644 402.962c.379 6.468-1.736 12.894-5.904 17.93L736.425 925.134z" fill="url(#f)" fill-opacity=".3"/><path opacity=".087" d="M876.499 731.771L693.482 930.207c-7.261 7.873-18.84 9.827-28.028 4.731L433.857 806.487c-5.147-2.855-8.959-7.625-10.636-13.31L310.683 411.656a23.212 23.212 0 0 1 .132-13.491L414.59 66.379c2.644-8.452 9.815-14.74 18.48-16.202l224.881-37.96c8.665-1.462 17.309 2.156 22.273 9.324l194.9 281.371a22.802 22.802 0 0 1 4.036 12.787l3.595 399.911c.054 5.959-2.189 11.751-6.256 16.161zM694.932 931.556c-7.892 8.558-20.478 10.682-30.466 5.143L432.87 808.249c-5.595-3.104-9.738-8.288-11.561-14.468L308.771 412.26a25.224 25.224 0 0 1 .143-14.664L412.689 65.809c2.873-9.186 10.669-16.02 20.087-17.61l224.881-37.96c9.418-1.59 18.814 2.343 24.21 10.134l194.9 281.371a24.79 24.79 0 0 1 4.387 13.899l3.595 399.911c.058 6.477-2.379 12.773-6.801 17.567L694.932 931.556z" fill="url(#g)" fill-opacity=".3"/><path opacity=".101" d="M843.594 749.037L652.255 935.208c-7.641 7.434-19.291 8.739-28.216 3.16L400.562 798.663a22.629 22.629 0 0 1-9.991-13.877l-92.938-383.512a23.147 23.147 0 0 1 .801-13.476l119.289-322.42c3.063-8.278 10.537-14.147 19.264-15.124l224.973-25.2c8.727-.978 17.183 3.106 21.794 10.525l179.582 288.943a22.87 22.87 0 0 1 3.412 13.004l-16.089 395.723a23.377 23.377 0 0 1-7.065 15.788zM653.636 936.636c-8.305 8.082-20.969 9.5-30.669 3.436L399.489 800.366a24.592 24.592 0 0 1-10.859-15.084l-92.938-383.511a25.153 25.153 0 0 1 .871-14.648l119.288-322.42c3.33-8.998 11.454-15.377 20.94-16.44l224.973-25.2c9.485-1.062 18.677 3.377 23.689 11.441l179.581 288.943a24.848 24.848 0 0 1 3.71 14.134l-16.089 395.724a25.412 25.412 0 0 1-7.68 17.161l-191.339 186.17z" fill="url(#h)" fill-opacity=".3"/><path opacity=".116" d="M810.253 765.359L611.281 938.893c-7.993 6.972-19.669 7.624-28.302 1.581L368.076 790.055a22.813 22.813 0 0 1-9.322-14.416l-73.45-384.357a23.068 23.068 0 0 1 1.471-13.436L420.941 65.61c3.472-8.082 11.223-13.513 19.983-14.002L665.377 39.07a22.815 22.815 0 0 1 21.247 11.7l164.055 295.58a22.929 22.929 0 0 1 2.781 13.198l-35.35 390.433a23.19 23.19 0 0 1-7.857 15.377zM612.589 940.398c-8.688 7.577-21.38 8.286-30.764 1.718L366.923 791.697a24.794 24.794 0 0 1-10.132-15.67L283.34 391.671a25.08 25.08 0 0 1 1.599-14.605L419.105 64.83c3.774-8.785 12.2-14.688 21.72-15.22l224.454-12.536a24.8 24.8 0 0 1 23.095 12.716l164.055 295.58a24.925 24.925 0 0 1 3.022 14.347l-35.35 390.433a25.207 25.207 0 0 1-8.54 16.713L612.589 940.398z" fill="url(#i)" fill-opacity=".3"/><path opacity=".13" d="M776.209 780.278L570.573 940.753a23.001 23.001 0 0 1-28.3 0L336.636 780.278a23.003 23.003 0 0 1-8.625-14.924L273.94 381.458a22.997 22.997 0 0 1 2.139-13.364l148.192-301.13a23 23 0 0 1 20.636-12.843h223.031c8.764 0 16.767 4.98 20.637 12.844l148.192 301.129a22.997 22.997 0 0 1 2.138 13.364l-54.071 383.895a23.003 23.003 0 0 1-8.625 14.925zM571.803 942.329a25 25 0 0 1-30.761.001L335.406 781.855a25 25 0 0 1-9.375-16.223l-54.072-383.895a25.005 25.005 0 0 1 2.325-14.526l148.192-301.13a25.001 25.001 0 0 1 22.431-13.96h223.031a25 25 0 0 1 22.431 13.96l148.192 301.13a25.005 25.005 0 0 1 2.325 14.526l-54.072 383.895a25 25 0 0 1-9.375 16.223L571.803 942.329z" fill="url(#j)" fill-opacity=".3"/><path opacity=".145" d="M742.493 795.101L530.374 942.426c-8.604 5.976-20.201 5.328-28.172-1.574L305.695 770.704a23.185 23.185 0 0 1-7.918-15.407L262.732 372.61a22.932 22.932 0 0 1 2.811-13.281L427.407 69.726a22.816 22.816 0 0 1 21.214-11.64l221.623 12.378c8.735.488 16.47 5.89 19.956 13.94l132.573 306.048a23.068 23.068 0 0 1 1.494 13.521L751.879 780.66a22.812 22.812 0 0 1-9.386 14.441zM531.521 944.072c-9.352 6.495-21.957 5.791-30.621-1.711L304.392 772.214a25.212 25.212 0 0 1-8.606-16.747l-35.045-382.688a24.92 24.92 0 0 1 3.056-14.436L425.661 68.74a24.799 24.799 0 0 1 23.058-12.652l221.623 12.378c9.495.53 17.902 6.403 21.692 15.152l132.573 306.048a25.076 25.076 0 0 1 1.623 14.698L753.842 781.05a24.791 24.791 0 0 1-10.201 15.697l-212.12 147.325z" fill="url(#k)" fill-opacity=".3"/><path opacity=".159" d="M708.17 808.504L490.555 942.34c-8.861 5.449-20.352 4.162-27.956-3.132l-186.75-179.13a23.38 23.38 0 0 1-7.183-15.857l-16.241-380.218a22.86 22.86 0 0 1 3.482-13.166l174.619-277.25c4.629-7.35 13.044-11.382 21.722-10.41l219.334 24.568c8.678.972 16.123 6.782 19.217 14.997l116.715 309.882a23.145 23.145 0 0 1 .838 13.65L718.29 794.585a22.626 22.626 0 0 1-10.12 13.919zM491.615 944.051c-9.631 5.923-22.121 4.524-30.386-3.404l-186.75-179.13a25.411 25.411 0 0 1-7.808-17.236l-16.242-380.219a24.853 24.853 0 0 1 3.785-14.31l174.619-277.25c5.032-7.988 14.179-12.372 23.611-11.316l219.335 24.569c9.432 1.056 17.524 7.371 20.887 16.3l116.715 309.883a25.152 25.152 0 0 1 .911 14.837L720.23 795.086a24.597 24.597 0 0 1-11 15.129L491.615 944.051z" fill="url(#l)" fill-opacity=".3"/><path opacity=".174" d="M673.625 820.915L451.243 941.064c-9.083 4.907-20.426 2.992-27.641-4.666L246.941 748.892c-4.157-4.412-6.464-10.252-6.428-16.274l2.224-376.697a22.8 22.8 0 0 1 4.154-13.025l186.603-264.27c4.987-7.062 13.565-10.607 22.158-9.157l216.48 36.541c8.593 1.451 15.723 7.647 18.418 16.006l100.844 312.791a23.206 23.206 0 0 1 .173 13.755L684.458 807.555c-1.712 5.738-5.6 10.533-10.833 13.36zm-221.414 121.92c-9.873 5.334-22.201 3.253-30.044-5.071L245.506 750.258c-4.518-4.796-7.026-11.144-6.987-17.689l2.224-376.697c.031-5.099 1.605-10.037 4.515-14.158l186.604-264.27c5.42-7.676 14.744-11.53 24.084-9.953l216.48 36.541c9.34 1.576 17.091 8.312 20.02 17.397L793.29 434.22c1.572 4.877 1.638 10.093.188 14.951l-107.11 358.993c-1.861 6.238-6.086 11.449-11.774 14.522L452.211 942.835z" fill="url(#m)" fill-opacity=".3"/><path opacity=".188" d="M638.906 832.335L412.487 938.641c-9.269 4.352-20.422 1.826-27.23-6.168L218.985 737.211c-3.953-4.642-5.982-10.623-5.653-16.659l20.3-372.154c.257-4.714 1.941-9.201 4.824-12.856L436.25 84.822c5.327-6.754 14.04-9.803 22.518-7.883l213.077 48.268c8.478 1.921 15.273 8.484 17.562 16.963l85.007 314.782c1.239 4.589 1.065 9.418-.5 13.836l-123.486 348.78c-2.003 5.656-6.14 10.24-11.522 12.767zM413.36 940.468c-10.075 4.731-22.198 1.985-29.598-6.705L217.49 738.501c-4.296-5.046-6.502-11.547-6.145-18.106l20.301-372.155c.279-5.124 2.109-10.001 5.243-13.974l197.794-250.72c5.791-7.34 15.261-10.656 24.476-8.568l213.077 48.268c9.215 2.088 16.601 9.221 19.09 18.437l85.006 314.783c1.347 4.988 1.158 10.237-.543 15.039l-123.486 348.78c-2.177 6.147-6.673 11.13-12.524 13.877L413.36 940.468z" fill="url(#n)" fill-opacity=".3"/><path opacity=".203" d="M604.061 842.762l-229.719 92.351c-9.421 3.787-20.346.667-26.728-7.633L191.998 725.091c-3.738-4.862-5.483-10.971-4.859-17.007l37.936-366.623c.489-4.731 2.408-9.152 5.495-12.661L438.734 92.15c5.652-6.426 14.469-8.975 22.805-6.595l209.137 59.722c8.336 2.381 14.775 9.287 16.656 17.863l69.249 315.87c1.027 4.683.614 9.535-1.181 13.892l-139.151 337.72c-2.291 5.56-6.669 9.921-12.188 12.14zM375.115 936.99c-10.24 4.117-22.115.726-29.052-8.296L190.448 726.305c-4.064-5.285-5.961-11.925-5.282-18.486l37.936-366.624c.532-5.141 2.618-9.947 5.972-13.761l208.165-236.65c6.143-6.985 15.726-9.756 24.788-7.168l209.137 59.722c9.061 2.587 16.06 10.094 18.104 19.416l69.249 315.869c1.116 5.091.668 10.365-1.284 15.101l-139.151 337.72c-2.49 6.044-7.249 10.783-13.247 13.195l-229.72 92.351z" fill="url(#o)" fill-opacity=".3"/><path opacity=".217" d="M569.154 852.199l-232.286 78.327c-9.537 3.215-20.196-.476-26.138-9.051L166.007 712.598c-3.514-5.072-4.969-11.297-4.047-17.321l55.083-360.142c.725-4.738 2.879-9.084 6.165-12.436l217.697-222.116c5.958-6.08 14.849-8.125 23.017-5.297L668.6 166.162c8.168 2.828 14.233 10.053 15.7 18.704l53.617 316.066c.809 4.771.155 9.636-1.871 13.923L581.98 840.722c-2.577 5.451-7.186 9.576-12.826 11.477zm-231.616 80.249c-10.366 3.495-21.952-.517-28.41-9.838L164.404 713.733c-3.819-5.513-5.4-12.279-4.399-18.827l55.084-360.142c.788-5.15 3.129-9.874 6.701-13.518L439.487 99.13c6.476-6.607 16.14-8.831 25.018-5.757l204.678 70.876c8.878 3.074 15.47 10.928 17.065 20.33l53.617 316.066c.88 5.186.169 10.474-2.034 15.134L583.766 841.646c-2.801 5.925-7.812 10.408-13.942 12.475l-232.286 78.327z" fill="url(#p)" fill-opacity=".3"/><path opacity=".232" d="M534.214 860.653l-234.119 64.275c-9.616 2.64-19.976-1.599-25.465-10.418L141.002 699.79c-3.28-5.27-4.437-11.597-3.218-17.596l71.699-352.75c.963-4.736 3.352-8.996 6.834-12.182L442.69 110.09c6.245-5.715 15.182-7.257 23.157-3.994l199.715 81.703c7.974 3.262 13.648 10.781 14.7 19.482l38.155 315.389c.586 4.851-.312 9.721-2.57 13.926L547.653 849.871c-2.861 5.327-7.693 9.204-13.439 10.782zm-233.555 66.236c-10.452 2.869-21.713-1.738-27.679-11.324l-133.629-214.72c-3.565-5.728-4.822-12.605-3.497-19.126l71.699-352.75c1.046-5.148 3.644-9.778 7.428-13.241l226.373-207.172c6.788-6.212 16.503-7.888 25.17-4.342l199.716 81.703c8.667 3.546 14.834 11.719 15.978 21.176l38.155 315.39c.637 5.272-.339 10.565-2.794 15.137L549.385 850.894c-3.109 5.791-8.361 10.005-14.607 11.72l-234.119 64.275z" fill="url(#q)" fill-opacity=".3"/><path opacity=".246" d="M499.314 868.131l-235.222 50.238c-9.661 2.064-19.69-2.695-24.715-11.727L117.014 686.731c-3.036-5.457-3.89-11.873-2.372-17.832l87.739-344.491c1.203-4.724 3.828-8.887 7.5-11.896l234.182-191.874c6.511-5.335 15.466-6.374 23.223-2.693l194.268 92.18c7.756 3.68 13.024 11.467 13.661 20.194l22.903 313.86c.359 4.922-.787 9.786-3.276 13.9L513.335 858.078c-3.14 5.189-8.184 8.806-14.021 10.053zm-234.768 52.232c-10.5 2.243-21.401-2.93-26.863-12.747L115.32 687.704c-3.301-5.931-4.228-12.904-2.578-19.382l87.739-344.491c1.307-5.135 4.16-9.66 8.152-12.93l234.181-191.874c7.078-5.799 16.811-6.928 25.243-2.927l194.268 92.179c8.431 4.001 14.157 12.465 14.849 21.951l22.903 313.86c.391 5.349-.856 10.637-3.561 15.108L515.009 859.197c-3.413 5.641-8.896 9.573-15.24 10.928l-235.223 50.238z" fill="url(#r)" fill-opacity=".3"/><path opacity=".261" d="M464.487 874.646l-235.602 36.26c-9.67 1.488-19.339-3.763-23.894-12.975L94.033 673.482c-2.784-5.631-3.328-12.121-1.511-18.027l103.164-335.407c1.447-4.703 4.306-8.758 8.163-11.578l241.11-176.279c6.758-4.94 15.701-5.478 23.218-1.396l188.355 102.28c7.517 4.082 12.365 12.11 12.587 20.84l7.905 311.499c.127 4.984-1.271 9.832-3.991 13.843L479.059 865.354c-3.415 5.037-8.661 8.383-14.572 9.292zm-235.259 38.279c-10.511 1.618-21.021-4.089-25.971-14.103L92.298 674.373c-3.026-6.12-3.617-13.174-1.642-19.594L193.82 319.372c1.572-5.112 4.68-9.519 8.873-12.585l241.11-176.279c7.345-5.37 17.066-5.954 25.237-1.517l188.354 102.28c8.171 4.437 13.441 13.162 13.682 22.651l7.905 311.5c.138 5.417-1.381 10.687-4.337 15.047L480.67 866.565c-3.713 5.476-9.415 9.112-15.84 10.101l-235.602 36.259z" fill="url(#s)" fill-opacity=".3"/><path opacity=".275" d="M429.784 880.211l-235.266 22.378c-9.645.917-18.93-4.795-23.007-14.156l-99.448-228.33c-2.523-5.792-2.752-12.341-.638-18.178l117.94-325.548c1.691-4.67 4.784-8.605 8.821-11.226L445.337 144.71c6.982-4.532 15.887-4.574 23.143-.109l181.996 111.982c7.256 4.465 11.675 12.705 11.483 21.415l-6.8 308.331c-.111 5.037-1.763 9.858-4.712 13.754L444.875 871.71c-3.686 4.871-9.122 7.933-15.091 8.501zm-235.036 24.417c-10.484.997-20.576-5.213-25.008-15.388L70.292 660.911c-2.743-6.296-2.992-13.414-.693-19.759l117.939-325.548c1.839-5.076 5.2-9.353 9.588-12.202l247.151-160.441c7.589-4.926 17.269-4.972 25.156-.119l181.996 111.983c7.887 4.853 12.69 13.81 12.481 23.277l-6.8 308.331c-.121 5.474-1.916 10.715-5.121 14.95L446.416 873.01c-4.006 5.294-9.915 8.622-16.403 9.239l-235.265 22.379z" fill="url(#t)" fill-opacity=".3"/><path opacity=".29" d="M395.252 884.844l-234.223 8.636c-9.588.354-18.465-5.79-22.062-15.269L51.103 646.659c-2.254-5.94-2.165-12.532.247-18.286l132.03-314.96c1.939-4.626 5.262-8.428 9.472-10.838l252.302-144.419c7.184-4.112 16.025-3.664 23.001 1.164l175.211 121.263c6.976 4.829 10.956 13.254 10.353 21.92l-21.175 304.382c-.353 5.079-2.261 9.862-5.437 13.631l-216.281 256.65c-3.951 4.688-9.565 7.456-15.574 7.678zm-234.109 10.688c-10.422.384-20.071-6.294-23.981-16.597L49.299 647.382c-2.45-6.457-2.353-13.621.268-19.876l132.029-314.959c2.108-5.028 5.721-9.162 10.297-11.781l252.302-144.419c7.808-4.469 17.418-3.983 25.001 1.265l175.211 121.263c7.583 5.249 11.908 14.407 11.253 23.827l-21.175 304.381c-.384 5.521-2.457 10.72-5.91 14.817L412.294 878.549c-4.295 5.097-10.397 8.105-16.928 8.346l-234.223 8.637z" fill="url(#u)" fill-opacity=".3"/><path opacity=".304" d="M360.937 888.561l-232.485-4.925c-9.499-.201-17.95-6.745-21.065-16.31L31.15 633.206c-1.978-6.074-1.566-12.692 1.141-18.347l145.404-303.695c2.188-4.569 5.74-8.227 10.116-10.414l256.56-128.267c7.363-3.681 16.113-2.752 22.793 2.42l168.022 130.101c6.68 5.172 10.213 13.754 9.203 22.354l-35.182 299.681c-.6 5.111-2.766 9.842-6.168 13.471L376.957 881.735c-4.21 4.492-9.989 6.954-16.02 6.826zm-232.488-2.869c-10.325-.218-19.51-7.331-22.896-17.728l-76.237-234.12c-2.15-6.602-1.703-13.796 1.24-19.942L175.96 310.207c2.378-4.967 6.24-8.942 10.995-11.32L443.516 170.62c8.003-4.001 17.514-2.991 24.774 2.631l168.023 130.101c7.26 5.621 11.101 14.95 10.003 24.297L611.134 627.33c-.653 5.555-3.007 10.698-6.705 14.643L378.347 883.198c-4.576 4.882-10.857 7.559-17.413 7.42l-232.485-4.926z" fill="url(#v)" fill-opacity=".3"/><path opacity=".319" d="M326.874 891.389L96.808 873.12c-9.379-.745-17.387-7.656-20.021-17.279l-64.6-236.033c-1.695-6.194-.958-12.821 2.042-18.361l158.036-291.803c2.438-4.5 6.216-7.999 10.748-9.953L442.942 187.65c7.518-3.241 16.154-1.839 22.521 3.656L625.917 329.78c6.366 5.495 9.449 14.206 8.037 22.717l-48.79 294.257c-.851 5.131-3.277 9.798-6.9 13.274L343.301 885.442c-4.461 4.28-10.39 6.426-16.427 5.947zM96.689 875.174c-10.195-.809-18.9-8.321-21.763-18.781l-64.6-236.033c-1.842-6.732-1.041-13.936 2.22-19.958l158.036-291.803c2.65-4.892 6.757-8.695 11.683-10.818l259.929-112.042c8.172-3.522 17.559-1.998 24.479 3.974l160.454 138.475c6.92 5.972 10.27 15.441 8.736 24.692l-48.79 294.257c-.925 5.577-3.562 10.65-7.5 14.428L344.61 886.979c-4.849 4.652-11.294 6.985-17.856 6.464L96.689 875.174z" fill="url(#w)" fill-opacity=".3"/><path opacity=".333" d="M293.117 893.351l-226.98-31.355c-9.232-1.275-16.784-8.522-18.939-18.174L-5.787 606.524c-1.406-6.298-.341-12.917 2.948-18.326l169.903-279.339c2.687-4.417 6.687-7.744 11.367-9.452l262.412-95.797c7.65-2.793 16.148-.928 22.188 4.867L615.56 354.843c6.039 5.796 8.667 14.608 6.861 23.008l-61.966 288.145c-1.105 5.138-3.791 9.726-7.632 13.035L309.91 888.31c-4.704 4.052-10.769 5.873-16.793 5.041zM65.9 864.041c-10.034-1.386-18.243-9.264-20.585-19.754L-7.671 606.988c-1.528-6.845-.37-14.04 3.205-19.919L165.437 307.73c2.92-4.801 7.268-8.417 12.355-10.274l262.413-95.797c8.315-3.035 17.552-1.009 24.117 5.291L616.85 353.315c6.565 6.3 9.422 15.878 7.458 25.009l-61.966 288.145c-1.201 5.585-4.12 10.572-8.296 14.169L311.133 889.917c-5.112 4.404-11.705 6.383-18.252 5.478l-226.98-31.354z" fill="url(#x)" fill-opacity=".3"/><path opacity=".348" d="M259.703 894.469L36.457 850.323c-9.057-1.791-16.143-9.342-17.823-18.994L-22.79 593.406c-1.112-6.386.282-12.978 3.857-18.239L162.05 308.811c2.935-4.321 7.152-7.46 11.969-8.912l264.019-79.588c7.758-2.339 16.095-.024 21.796 6.052l144.272 153.756c5.701 6.075 7.873 14.961 5.679 23.228l-74.679 281.377c-1.362 5.133-4.308 9.627-8.362 12.755l-249.927 192.88c-4.936 3.809-11.122 5.295-17.114 4.11zm-223.6-42.118c-9.844-1.947-17.546-10.155-19.372-20.646l-41.423-237.922c-1.208-6.942.307-14.108 4.192-19.826l180.982-266.356c3.191-4.696 7.775-8.109 13.01-9.687l264.02-79.588c8.432-2.542 17.494-.025 23.691 6.578l144.272 153.757c6.196 6.603 8.557 16.262 6.172 25.248l-74.678 281.376c-1.481 5.579-4.684 10.464-9.09 13.865L277.952 892.029c-5.365 4.141-12.089 5.756-18.602 4.468L36.104 852.351z" fill="url(#y)" fill-opacity=".3"/><path opacity=".362" d="M226.671 894.776L7.788 838.171c-8.857-2.291-15.468-10.116-16.68-19.742l-29.943-237.912c-.813-6.458.91-13.006 4.764-18.102l191.257-252.908c3.183-4.209 7.61-7.148 12.552-8.333l264.76-63.467c7.841-1.879 15.997.874 21.348 7.207l135.71 160.629c5.35 6.333 7.067 15.266 4.494 23.38l-86.901 273.986c-1.622 5.114-4.827 9.499-9.088 12.433l-256 176.277c-5.158 3.552-11.448 4.694-17.39 3.157zM7.319 840.175c-9.627-2.49-16.813-10.995-18.13-21.459l-29.943-237.912c-.884-7.02.99-14.137 5.178-19.676L155.681 308.22c3.46-4.575 8.272-7.77 13.643-9.057l264.761-63.467c8.523-2.043 17.388.95 23.204 7.834l135.71 160.629c5.816 6.883 7.682 16.593 4.885 25.412l-86.901 273.986c-1.763 5.559-5.247 10.325-9.878 13.514l-256 176.277c-5.607 3.861-12.444 5.102-18.903 3.432L7.319 840.175z" fill="url(#z)" fill-opacity=".3"/><path opacity=".377" d="M194.048 894.302l-213.913-68.699c-8.633-2.773-14.763-10.841-15.513-20.417L-53.956 567.91c-.51-6.515 1.542-12.998 5.668-17.912l200.714-239.052c3.428-4.082 8.057-6.805 13.112-7.712l264.649-47.487c7.9-1.417 15.855 1.761 20.846 8.331l126.869 166.968c4.991 6.569 6.255 15.522 3.311 23.463L482.606 720.52c-1.883 5.081-5.345 9.34-9.805 12.065L211.666 892.118c-5.368 3.279-11.745 4.07-17.618 2.184zm-214.495-66.726c-9.384-3.014-16.048-11.784-16.863-22.193l-18.577-237.276c-.555-7.081 1.675-14.128 6.16-19.47l200.714-239.051c3.726-4.438 8.758-7.398 14.252-8.383l264.65-47.487c8.587-1.541 17.233 1.914 22.658 9.055L579.416 429.74c5.425 7.14 6.799 16.871 3.599 25.503l-98.607 266.011c-2.047 5.522-5.81 10.152-10.657 13.114L212.616 893.9c-5.836 3.565-12.767 4.424-19.151 2.374l-213.912-68.698z" fill="url(#A)" fill-opacity=".3"/><path opacity=".391" d="M161.879 893.08l-208.356-80.392c-8.388-3.236-14.035-11.519-14.33-21.021l-7.356-236.028c-.204-6.554 2.173-12.954 6.564-17.669l209.343-224.841c3.668-3.94 8.492-6.433 13.645-7.052l263.703-31.697c7.935-.954 15.669 2.636 20.293 9.42l117.776 172.761c4.625 6.784 5.439 15.732 2.136 23.48L455.522 737.53c-2.145 5.032-5.86 9.15-10.51 11.651L179.676 891.887c-5.565 2.993-12.012 3.425-17.797 1.193zm-209.05-78.458c-9.118-3.518-15.256-12.52-15.577-22.849l-7.356-236.027c-.222-7.124 2.363-14.081 7.135-19.207l209.343-224.84c3.988-4.283 9.23-6.993 14.832-7.666l263.703-31.697c8.625-1.036 17.031 2.866 22.058 10.239l117.776 172.762c5.026 7.373 5.911 17.1 2.321 25.521L457.289 738.347c-2.332 5.469-6.37 9.946-11.424 12.664L180.529 893.717c-6.049 3.253-13.056 3.723-19.345 1.297l-208.356-80.392z" fill="url(#B)" fill-opacity=".3"/><path opacity=".406" d="M130.195 891.14l-202.24-91.652c-8.123-3.681-13.283-12.149-13.135-21.555l3.695-234.179c.104-6.577 2.805-12.874 7.45-17.375l217.136-210.33c3.905-3.782 8.911-6.03 14.148-6.353L419.19 293.55c7.945-.49 15.441 3.496 19.692 10.473l108.461 177.995c4.251 6.977 4.62 15.896.969 23.432L427.93 753.908c-2.407 4.968-6.371 8.928-11.201 11.191l-268.61 125.854c-5.748 2.693-12.244 2.761-17.924.187zm-203.044-89.763c-8.829-4.001-14.438-13.206-14.277-23.429l3.695-234.18c.113-7.148 3.049-13.993 8.099-18.885l217.135-210.33c4.244-4.111 9.686-6.555 15.379-6.906l261.941-16.146c8.635-.533 16.783 3.801 21.403 11.384L548.988 480.88c4.621 7.583 5.021 17.278 1.052 25.469L429.659 754.808c-2.616 5.399-6.925 9.703-12.175 12.163l-268.61 125.854c-6.248 2.928-13.309 3.001-19.483.204l-202.24-91.652z" fill="url(#C)" fill-opacity=".3"/><path opacity=".42" d="M99.023 888.521l-195.59-102.448c-7.84-4.106-12.514-12.734-11.931-22.023l14.545-231.746c.413-6.581 3.432-12.756 8.324-17.025l224.088-195.576c4.133-3.608 9.312-5.597 14.617-5.615l259.383-.884c7.932-.027 15.172 4.341 19.044 11.489l98.954 182.66c3.872 7.148 3.802 16.015-.186 23.321l-130.41 238.958c-2.667 4.887-6.873 8.673-11.871 10.684L117.02 889.352c-5.915 2.38-12.442 2.079-17.997-.831zm-196.5-100.612c-8.522-4.463-13.602-13.841-12.969-23.937L-95.9 532.226c.449-7.154 3.73-13.866 9.047-18.506l224.088-195.576c4.493-3.921 10.122-6.084 15.888-6.103l259.384-.884c8.621-.029 16.49 4.719 20.7 12.488l98.953 182.66c4.209 7.77 4.133 17.407-.202 25.349L401.549 770.612c-2.899 5.312-7.471 9.426-12.905 11.613L117.675 891.26c-6.43 2.588-13.524 2.26-19.562-.902l-195.59-102.449z" fill="url(#D)" fill-opacity=".3"/><path opacity=".435" d="M68.396 885.259L-120.04 772.507c-7.539-4.511-11.728-13.273-10.721-22.424l25.168-228.744c.723-6.569 4.054-12.602 9.18-16.624l230.199-180.631c4.355-3.418 9.693-5.135 15.049-4.841L404.89 333.29c7.894.433 14.863 5.167 18.353 12.467l89.282 186.745c3.49 7.3 2.987 16.091-1.324 23.151L371.359 784.681c-2.925 4.79-7.366 8.383-12.52 10.13L86.411 887.116c-6.065 2.056-12.603 1.382-18.015-1.857zm-189.448-110.974c-8.195-4.903-12.748-14.427-11.654-24.374l25.168-228.743c.786-7.141 4.407-13.699 9.978-18.07l230.199-180.631c4.734-3.715 10.536-5.582 16.358-5.262l256.055 14.047c8.58.47 16.155 5.616 19.948 13.55l89.283 186.746c3.793 7.934 3.246 17.49-1.439 25.164L373.001 785.74c-3.179 5.206-8.006 9.112-13.609 11.01L86.965 889.056c-6.593 2.234-13.7 1.501-19.582-2.019l-188.435-112.752z" fill="url(#E)" fill-opacity=".3"/><path opacity=".449" d="M38.336 881.395l-180.804-122.536c-7.224-4.896-10.93-13.768-9.51-22.764l35.537-225.189c1.032-6.541 4.669-12.413 10.015-16.172l235.472-165.55c4.568-3.211 10.05-4.643 15.438-4.031l251.983 28.601c7.832.889 14.515 5.973 17.619 13.403l79.479 190.247c3.104 7.43 2.177 16.125-2.444 22.922L342.456 799.035c-3.179 4.677-7.846 8.061-13.142 9.53l-273 75.718c-6.198 1.719-12.727.67-17.978-2.888zM-143.58 760.572c-7.851-5.321-11.88-14.964-10.337-24.743l35.537-225.189c1.122-7.11 5.075-13.493 10.886-17.578l235.472-165.55c4.965-3.491 10.924-5.047 16.781-4.382l251.983 28.601c8.513.967 15.777 6.493 19.151 14.569l79.479 190.246c3.374 8.077 2.366 17.527-2.656 24.916L344.05 800.171c-3.456 5.083-8.528 8.761-14.284 10.358l-273 75.719c-6.738 1.869-13.834.728-19.542-3.14L-143.58 760.572z" fill="url(#F)" fill-opacity=".3"/><path opacity=".464" d="M8.866 876.964L-163.863 745.19c-6.894-5.26-10.12-14.218-8.299-23.043l45.626-221.103c1.34-6.494 5.274-12.187 10.827-15.667l239.911-150.385c4.77-2.99 10.38-4.124 15.783-3.19L387.18 374.54c7.748 1.34 14.13 6.757 16.847 14.298l69.572 193.157c2.716 7.542 1.374 16.119-3.542 22.64l-156.868 208.04c-3.429 4.547-8.31 7.705-13.732 8.884L26.748 880.886c-6.312 1.373-12.81-.052-17.882-3.922zM-165.07 746.833c-7.493-5.717-11-15.455-9.021-25.047l45.627-221.103c1.456-7.059 5.732-13.246 11.768-17.03l239.911-150.385c5.184-3.25 11.283-4.482 17.155-3.467l247.195 42.739c8.421 1.455 15.359 7.344 18.312 15.541l69.572 193.157c2.953 8.197 1.494 17.521-3.85 24.608l-156.868 208.04c-3.727 4.942-9.033 8.375-14.926 9.657L27.097 882.87c-6.86 1.493-13.923-.056-19.438-4.263l-172.728-131.774z" fill="url(#G)" fill-opacity=".3"/><path opacity=".478" d="M-19.99 872.009l-164.24-140.444c-6.552-5.604-9.303-14.627-7.092-23.264l55.413-216.506c1.646-6.43 5.867-11.925 11.612-15.114l243.523-135.187c4.96-2.754 10.682-3.579 16.079-2.319l241.721 56.419c7.64 1.783 13.71 7.517 16.037 15.15l59.596 195.474c2.327 7.634.579 16.075-4.618 22.304l-164.44 197.064c-3.672 4.4-8.756 7.316-14.287 8.196l-271.575 43.18c-6.406 1.019-12.852-.782-17.73-4.953zm-165.535-138.878c-7.123-6.09-10.113-15.898-7.71-25.286l55.413-216.506c1.789-6.989 6.378-12.962 12.622-16.428l243.523-135.187c5.392-2.993 11.611-3.89 17.477-2.521l241.721 56.419c8.305 1.938 14.903 8.171 17.432 16.468l59.596 195.474c2.529 8.297.629 17.472-5.02 24.243l-164.44 197.064c-3.991 4.782-9.517 7.953-15.529 8.909L-2.015 878.96c-6.963 1.107-13.97-.85-19.271-5.384l-164.239-140.445z" fill="url(#H)" fill-opacity=".3"/><path opacity=".493" d="M-48.217 866.57l-155.371-148.524c-6.2-5.927-8.479-14.994-5.891-23.43l64.874-211.418c1.949-6.349 6.447-11.628 12.367-14.512l246.32-120.008c5.137-2.503 10.952-3.009 16.323-1.423l235.594 69.606c7.511 2.219 13.255 8.253 15.192 15.96l49.58 197.197c1.937 7.706-.206 15.993-5.67 21.917L253.727 837.756c-3.907 4.236-9.18 6.896-14.803 7.466l-269.623 27.327c-6.48.656-12.852-1.518-17.518-5.979zm-156.752-147.038c-6.738-6.442-9.216-16.297-6.403-25.467l64.875-211.418c2.117-6.902 7.007-12.64 13.441-15.775l246.321-120.008c5.583-2.72 11.904-3.27 17.742-1.545l235.594 69.605c8.164 2.412 14.407 8.971 16.513 17.347l49.58 197.197c2.106 8.377-.224 17.384-6.163 23.823L255.157 839.112c-4.247 4.605-9.979 7.496-16.09 8.116l-269.623 27.326c-7.043.714-13.97-1.649-19.041-6.498L-204.97 719.532z" fill="url(#I)" fill-opacity=".3"/><path opacity=".507" d="M-75.793 860.689l-146.159-155.995c-5.836-6.229-7.65-15.321-4.695-23.541l73.987-205.865c2.247-6.252 7.01-11.298 13.088-13.866l248.316-104.894c5.298-2.238 11.186-2.418 16.511-.504l228.846 82.264c7.36 2.646 12.767 8.963 14.315 16.724l39.555 198.327c1.548 7.761-.981 15.875-6.694 21.483L223.611 849.173c-4.134 4.057-9.581 6.445-15.276 6.697l-266.88 11.813c-6.532.289-12.81-2.256-17.248-6.994zm-147.619-154.595c-6.344-6.77-8.315-16.652-5.103-25.588l73.987-205.865c2.443-6.796 7.62-12.28 14.226-15.071l248.316-104.894c5.759-2.433 12.158-2.628 17.947-.548l228.846 82.264c8 2.876 13.877 9.742 15.56 18.178l39.555 198.327c1.683 8.436-1.066 17.256-7.277 23.351L224.98 850.599c-4.494 4.41-10.415 7.006-16.605 7.28l-266.88 11.813c-7.1.314-13.923-2.453-18.748-7.602l-146.159-155.996z" fill="url(#J)" fill-opacity=".3"/><path opacity=".522" d="M203.173 922.168L94.867 716.267c-2.532-4.814-3.087-10.768-1.554-16.677l65.579-252.721c1.913-7.372 6.872-13.91 13.396-17.659l182.799-105.052c7.457-4.286 15.891-4.324 22.106-.101l168.029 114.181c4.652 3.161 7.595 8.403 8.167 14.547l23.898 256.508c.572 6.144-1.274 12.676-5.124 18.126l-139.05 196.865c-5.143 7.282-13.172 11.676-21.043 11.518l-192.947-3.878c-6.886-.138-12.791-3.75-15.95-9.756zM93.136 717.476c-2.753-5.232-3.356-11.704-1.69-18.127l65.58-252.721c2.079-8.013 7.47-15.119 14.561-19.194l182.799-105.053c8.105-4.658 17.272-4.699 24.028-.109l168.029 114.181c5.056 3.436 8.255 9.134 8.878 15.812l23.897 256.508c.622 6.678-1.384 13.778-5.569 19.702L434.599 925.34c-5.591 7.915-14.317 12.692-22.873 12.52l-192.947-3.878c-7.485-.151-13.903-4.077-17.337-10.605L93.136 717.476z" fill="url(#K)" fill-opacity=".3"/><path opacity=".536" d="M-128.943 847.773l-126.844-169.047c-5.083-6.774-5.979-15.859-2.328-23.611l91.093-193.458a23.402 23.402 0 0 1 14.42-12.445L97.36 374.159c5.573-1.673 11.545-1.179 16.715 1.383l213.635 105.87c6.995 3.466 11.696 10.297 12.467 18.113l19.608 198.822c.771 7.816-2.495 15.539-8.661 20.48L162.812 869.72c-4.558 3.652-10.303 5.458-16.081 5.057L-112.41 856.75a22.599 22.599 0 0 1-16.533-8.977zm-128.445-167.829c-5.525-7.363-6.499-17.238-2.531-25.665l91.092-193.458a25.444 25.444 0 0 1 15.675-13.527L96.81 372.241c6.058-1.819 12.548-1.282 18.169 1.503l213.634 105.87c7.604 3.768 12.714 11.192 13.552 19.689l19.608 198.821c.838 8.496-2.712 16.891-9.415 22.261L164.046 871.278c-4.954 3.97-11.198 5.933-17.479 5.497l-259.141-18.027a24.566 24.566 0 0 1-17.971-9.758l-126.843-169.046z" fill="url(#L)" fill-opacity=".3"/><path opacity=".551" d="M-154.492 840.821L-271.306 666.22c-4.694-7.016-5.139-16.071-1.159-23.572l99.049-186.657a23.202 23.202 0 0 1 15.027-11.676l249.65-60.414a22.923 22.923 0 0 1 16.727 2.341l205.245 116.76a22.823 22.823 0 0 1 11.501 18.738l9.747 198.198a23.178 23.178 0 0 1-9.601 19.916L132.212 878.839a23.082 23.082 0 0 1-16.406 4.191l-254.208-32.271a22.8 22.8 0 0 1-16.09-9.938zm-118.477-173.48c-5.103-7.626-5.587-17.469-1.26-25.622l99.049-186.657a25.222 25.222 0 0 1 16.333-12.692l249.65-60.413a24.906 24.906 0 0 1 18.182 2.544l205.245 116.76a24.81 24.81 0 0 1 12.501 20.367l9.747 198.198c.418 8.499-3.514 16.655-10.436 21.648L133.374 880.459a25.09 25.09 0 0 1-17.832 4.556l-254.209-32.271a24.777 24.777 0 0 1-17.488-10.803l-116.814-174.6z" fill="url(#M)" fill-opacity=".3"/><path opacity=".565" d="M-178.617 833.895l-106.477-179.631a23.002 23.002 0 0 1 0-23.456l106.477-179.631a23 23 0 0 1 15.592-10.887l248.28-46.04a23.005 23.005 0 0 1 16.7 3.312l196.144 127.081a23.002 23.002 0 0 1 10.493 19.303v197.18c0 7.797-3.95 15.063-10.493 19.302L101.955 887.51a23 23 0 0 1-16.7 3.311l-248.28-46.039a23 23 0 0 1-15.592-10.887zm-108.197-178.612a25 25 0 0 1 0-25.495l106.476-179.631a24.998 24.998 0 0 1 16.948-11.833l248.28-46.04a25 25 0 0 1 18.153 3.6l196.143 127.081a24.998 24.998 0 0 1 11.406 20.981v197.18a25 25 0 0 1-11.406 20.981L103.043 889.188a25 25 0 0 1-18.152 3.6l-248.281-46.04a25.002 25.002 0 0 1-16.948-11.833l-106.476-179.632z" fill="url(#N)" fill-opacity=".3"/><path opacity=".58" d="M-203.511 826.148l-96.198-183.718c-3.897-7.441-3.457-16.387 1.148-23.354l113.691-171.995a22.795 22.795 0 0 1 16.108-10.037l246.868-31.907c5.85-.756 11.78.771 16.564 4.263l187.091 136.593c6.304 4.602 9.876 12.066 9.494 19.838l-9.602 195.258a22.824 22.824 0 0 1-11.387 18.672L70.802 894.763a22.917 22.917 0 0 1-16.891 2.395l-242.386-59.233a23.202 23.202 0 0 1-15.036-11.777zm-97.968-182.798c-4.235-8.089-3.757-17.813 1.249-25.385l113.69-171.995a24.776 24.776 0 0 1 17.509-10.91l246.868-31.907a25.087 25.087 0 0 1 18.004 4.634l187.091 136.592c6.852 5.002 10.735 13.116 10.319 21.564l-9.601 195.258a24.809 24.809 0 0 1-12.378 20.295L71.809 896.499a24.909 24.909 0 0 1-18.36 2.602l-242.386-59.233a25.219 25.219 0 0 1-16.343-12.8l-96.199-183.718z" fill="url(#O)" fill-opacity=".3"/><path opacity=".594" d="M-226.973 818.512l-85.688-187.27c-3.488-7.625-2.614-16.491 2.286-23.176l120.349-164.191a22.601 22.601 0 0 1 16.581-9.174l244.444-18.116c5.903-.438 11.775 1.431 16.39 5.216l177.409 145.494c6.037 4.951 9.216 12.589 8.455 20.313l-19.031 192.965c-.762 7.723-5.362 14.49-12.233 17.995L40.074 901.572c-5.253 2.68-11.361 3.207-17.05 1.471l-235.568-71.884a23.406 23.406 0 0 1-14.429-12.647zm-87.501-186.455c-3.792-8.287-2.842-17.925 2.484-25.191l120.35-164.191a24.561 24.561 0 0 1 18.022-9.971l244.445-18.116c6.415-.476 12.798 1.556 17.815 5.67L266.05 565.751c6.562 5.382 10.018 13.684 9.19 22.079l-19.03 192.965c-.828 8.396-5.828 15.751-13.297 19.561L40.998 903.36c-5.71 2.912-12.35 3.485-18.532 1.598l-235.568-71.884a25.439 25.439 0 0 1-15.684-13.747l-85.688-187.27z" fill="url(#P)" fill-opacity=".3"/><path opacity=".609" d="M-249.738 810.732l-75.093-190.148c-3.075-7.787-1.772-16.559 3.411-22.951l126.552-156.112c4.162-5.133 10.366-8.155 17.007-8.284l241.367-4.684c5.935-.115 11.727 2.093 16.154 6.159l167.376 153.694c5.754 5.284 8.534 13.077 7.396 20.735l-28.258 190.144c-1.138 7.658-6.042 14.154-13.046 17.284L9.379 907.619c-5.39 2.409-11.538 2.601-17.15.537l-228.195-83.944c-6.278-2.31-11.302-7.227-13.772-13.48zm-76.944-189.438c-3.343-8.464-1.926-17.998 3.707-24.947l126.553-156.111c4.523-5.58 11.267-8.865 18.485-9.005l241.367-4.683c6.452-.126 12.747 2.274 17.56 6.694l167.375 153.694c6.255 5.743 9.276 14.214 8.039 22.538l-28.258 190.143c-1.237 8.325-6.567 15.386-14.181 18.788l-203.748 91.05c-5.859 2.618-12.541 2.827-18.64.583l-228.197-83.944c-6.824-2.51-12.285-7.855-14.969-14.652l-75.093-190.148z" fill="url(#Q)" fill-opacity=".3"/><path opacity=".623" d="M-271.799 802.85l-64.452-192.353c-2.657-7.929-.93-16.588 4.523-22.68l132.292-147.785c4.401-4.917 10.744-7.608 17.383-7.374l237.665 8.359c5.948.209 11.637 2.75 15.86 7.084l157.035 161.18c5.456 5.6 7.829 13.528 6.318 21.105l-37.259 186.809c-1.511 7.577-6.704 13.791-13.825 16.541l-204.974 79.175c-5.511 2.129-11.678 1.984-17.192-.403l-220.307-95.386c-6.154-2.664-10.922-7.872-13.067-14.272zm-66.335-191.749c-2.888-8.618-1.011-18.031 4.917-24.652l132.291-147.785c4.784-5.344 11.679-8.269 18.895-8.015l237.665 8.358c6.466.228 12.649 2.99 17.239 7.701l157.036 161.18c5.929 6.086 8.509 14.704 6.866 22.939l-37.258 186.81c-1.643 8.236-7.288 14.99-15.028 17.98l-204.974 79.174c-5.99 2.314-12.693 2.157-18.686-.438l-220.308-95.386c-6.689-2.896-11.872-8.557-14.203-15.513l-64.452-192.353z" fill="url(#R)" fill-opacity=".3"/><path opacity=".638" d="M-293.163 794.91l-53.803-193.887c-2.234-8.051-.089-16.582 5.623-22.364l137.559-139.241c4.631-4.688 11.095-7.04 17.712-6.446l233.366 20.979c5.941.534 11.506 3.401 15.506 7.989l146.431 167.941c5.141 5.897 7.102 13.939 5.222 21.418l-46.006 182.982c-1.88 7.479-7.351 13.399-14.571 15.766L-51.727 917.46c-5.618 1.842-11.782 1.36-17.177-1.344L-280.847 809.93c-6.009-3.01-10.504-8.492-12.316-15.02zm-55.711-193.39c-2.429-8.751-.097-18.024 6.112-24.309l137.558-139.241c5.034-5.095 12.061-7.652 19.253-7.006l233.366 20.979c6.457.58 12.506 3.696 16.854 8.684L210.7 628.568c5.589 6.41 7.72 15.151 5.676 23.28l-46.005 182.983c-2.044 8.129-7.991 14.564-15.839 17.137L-51.071 919.38c-6.106 2.002-12.806 1.478-18.67-1.46l-211.944-106.186c-6.532-3.273-11.417-9.232-13.386-16.327l-53.803-193.887z" fill="url(#S)" fill-opacity=".3"/><path opacity=".652" d="M-313.836 786.95l-43.182-194.757c-1.808-8.151.749-16.538 6.707-22.001l142.349-130.511c4.85-4.447 11.418-6.455 17.992-5.502l228.502 33.146c5.914.857 11.334 4.042 15.097 8.869L189.23 650.161c4.814 6.176 6.357 14.312 4.112 21.676l-54.476 178.682c-2.245 7.364-7.981 12.979-15.282 14.96l-205.652 55.798c-5.707 1.548-11.848.729-17.106-2.282l-203.141-116.324c-5.845-3.346-10.051-9.086-11.522-15.721zm-45.111-194.367c-1.964-8.86.815-17.977 7.291-23.914l142.349-130.512c5.272-4.833 12.411-7.016 19.557-5.979l228.501 33.145c6.429.932 12.32 4.393 16.41 9.641l135.602 173.967c5.233 6.713 6.91 15.556 4.47 23.561l-54.476 178.681c-2.44 8.005-8.675 14.108-16.611 16.261l-205.652 55.798c-6.203 1.683-12.878.793-18.593-2.48l-203.142-116.324c-6.353-3.637-10.925-9.876-12.524-17.088l-43.182-194.757z" fill="url(#T)" fill-opacity=".3"/><path opacity=".667" d="M-333.834 779.007l-32.625-194.969c-1.377-8.231 1.585-16.456 7.777-21.591l146.658-121.625c5.058-4.194 11.712-5.854 18.224-4.545l223.101 44.832c5.869 1.179 11.125 4.67 14.635 9.721L168.53 670.083c4.473 6.435 5.595 14.644 2.99 21.876l-62.647 173.929c-2.605 7.232-8.592 12.532-15.957 14.125l-205.135 44.361c-5.78 1.25-11.878.097-16.979-3.212l-193.945-125.781c-5.662-3.671-9.564-9.65-10.69-16.374zm-34.567-194.687c-1.497-8.946 1.723-17.887 8.453-23.468l146.658-121.625c5.497-4.559 12.73-6.363 19.808-4.941L29.62 479.119c6.379 1.282 12.091 5.076 15.907 10.566L170.12 668.938c4.862 6.995 6.081 15.917 3.25 23.778l-62.647 173.929c-2.831 7.861-9.34 13.622-17.344 15.354l-205.136 44.361c-6.282 1.358-12.91.105-18.455-3.492l-193.945-125.781c-6.154-3.99-10.396-10.488-11.619-17.797l-32.625-194.97z" fill="url(#U)" fill-opacity=".3"/><path opacity=".681" d="M-353.157 771.127l-22.17-194.536c-.944-8.289 2.417-16.335 8.829-21.133l150.485-112.612c5.254-3.932 11.976-5.239 18.407-3.581l217.2 56.014c5.803 1.497 10.877 5.284 14.121 10.541l113.446 183.794c4.12 6.674 4.816 14.933 1.857 22.017L78.521 880.378c-2.96 7.084-9.185 12.059-16.595 13.262l-204.071 33.134c-5.837.948-11.872-.537-16.799-4.132l-184.394-134.541c-5.46-3.983-9.045-10.182-9.819-16.974zm-24.121-194.361c-1.026-9.009 2.627-17.755 9.597-22.97l150.485-112.612c5.711-4.274 13.017-5.695 20.008-3.892l217.199 56.014c6.308 1.627 11.823 5.743 15.35 11.457l113.446 183.794c4.477 7.254 5.234 16.232 2.018 23.932L80.328 881.236c-3.217 7.7-9.983 13.107-18.038 14.415l-204.071 33.134c-6.344 1.03-12.904-.584-18.26-4.492l-184.394-134.54c-5.934-4.33-9.832-11.068-10.673-18.45l-22.17-194.537z" fill="url(#V)" fill-opacity=".3"/><path opacity=".696" d="M-371.821 763.342l-11.849-193.47c-.51-8.324 3.242-16.173 9.861-20.626l153.83-103.503c5.439-3.659 12.21-4.612 18.542-2.61L9.391 509.8c5.721 1.809 10.595 5.879 13.562 11.325l102.203 187.591c3.755 6.892 4.024 15.179.716 22.097L47.865 893.975c-3.308 6.918-9.756 11.558-17.195 12.371l-202.476 22.144c-5.878.643-11.832-1.167-16.569-5.037l-174.529-142.59c-5.242-4.282-8.498-10.681-8.917-17.521zm-13.803-193.401c-.554-9.048 3.525-17.58 10.719-22.42l153.83-103.503c5.911-3.977 13.272-5.013 20.154-2.837L9.906 507.848c6.22 1.967 11.518 6.391 14.743 12.31l102.202 187.59c4.082 7.492 4.374 16.5.779 24.02L49.623 894.929c-3.595 7.52-10.605 12.563-18.691 13.447l-202.476 22.144c-6.389.699-12.861-1.269-18.01-5.475l-174.528-142.59c-5.698-4.655-9.238-11.61-9.693-19.044l-11.849-193.47z" fill="url(#W)" fill-opacity=".3"/><path opacity=".71" d="M-389.84 755.691l-1.698-191.786c-.074-8.336 4.062-15.97 10.873-20.069l156.694-94.326c5.611-3.378 12.415-3.975 18.63-1.637l204.02 76.77c5.623 2.116 10.281 6.455 12.96 12.072l90.906 190.644c3.38 7.088 3.218 15.38-.43 22.116l-85.16 157.196C13.308 913.406 6.65 917.701-.8 918.126l-200.371 11.419c-5.904.337-11.759-1.793-16.29-5.925l-164.393-149.917c-5.008-4.567-7.925-11.146-7.985-18.012zm-3.65-191.823c-.08-9.061 4.415-17.359 11.818-21.815l156.695-94.326c6.098-3.671 13.494-4.32 20.25-1.778l204.02 76.769c6.112 2.3 11.175 7.017 14.087 13.122l90.905 190.644c3.674 7.705 3.499 16.718-.467 24.039L18.659 907.719c-3.966 7.321-11.203 11.989-19.3 12.451l-200.372 11.419c-6.417.366-12.781-1.949-17.706-6.44l-164.393-149.917c-5.444-4.964-8.614-12.115-8.68-19.579l-1.698-191.785z" fill="url(#X)" fill-opacity=".3"/><path opacity=".725" d="M-407.223 748.209l8.253-189.501c.362-8.324 4.871-15.724 11.859-19.462l159.082-85.112c5.77-3.086 12.59-3.328 18.672-.661l196.811 86.302c5.508 2.416 9.936 7.011 12.317 12.781l79.597 192.957c2.996 7.263 2.404 15.536-1.578 22.072l-91.937 150.877c-3.982 6.535-10.834 10.476-18.278 10.513l-197.777.987c-5.914.03-11.654-2.412-15.965-6.793l-154.029-156.513c-4.759-4.836-7.326-11.575-7.027-18.447zm6.309-189.643c.394-9.048 5.295-17.092 12.891-21.155l159.082-85.112c6.271-3.355 13.684-3.617 20.294-.719l196.812 86.303c5.987 2.625 10.8 7.62 13.387 13.892L81.15 744.732c3.257 7.894 2.614 16.887-1.715 23.991L-12.503 919.6c-4.328 7.104-11.775 11.387-19.867 11.428l-197.777.987c-6.428.032-12.668-2.623-17.353-7.384l-154.029-156.513c-5.173-5.257-7.963-12.582-7.638-20.052l8.253-189.5z" fill="url(#Y)" fill-opacity=".3"/><path opacity=".739" d="M-423.996 740.932l17.97-186.633c.798-8.289 5.67-15.436 12.82-18.806l160.996-75.886c5.916-2.788 12.736-2.675 18.667.311l189.238 95.249c5.378 2.707 9.563 7.544 11.637 13.449l68.317 194.539c2.603 7.413 1.582 15.644-2.724 21.962l-98.328 144.232c-4.307 6.318-11.336 9.896-18.756 9.548l-194.717-9.129c-5.91-.277-11.519-3.024-15.597-7.639L-417.95 759.756c-4.498-5.09-6.706-11.967-6.046-18.824zm16.038-186.88c.867-9.009 6.163-16.777 13.935-20.44l160.996-75.887c6.431-3.031 13.843-2.907 20.291.338l189.237 95.25c5.846 2.942 10.395 8.199 12.649 14.617l68.317 194.54c2.83 8.058 1.72 17.004-2.961 23.871l-98.327 144.233c-4.682 6.867-12.323 10.756-20.388 10.378l-194.716-9.129c-6.425-.301-12.521-3.287-16.954-8.303l-143.477-162.373c-4.889-5.533-7.289-13.008-6.572-20.462l17.97-186.633z" fill="url(#Z)" fill-opacity=".3"/><path opacity=".754" d="M-440.176 733.889l27.424-183.205c1.232-8.227 6.456-15.102 13.751-18.097l162.445-66.679c6.049-2.483 12.852-2.015 18.619 1.28l181.334 103.595c5.235 2.99 9.164 8.053 10.923 14.074l57.108 195.398c2.203 7.541.755 15.704-3.867 21.787L-76.756 939.331c-4.621 6.082-11.813 9.29-19.192 8.56l-191.212-18.906c-5.892-.582-11.356-3.626-15.189-8.46l-132.782-167.493c-4.223-5.328-6.066-12.322-5.045-19.143zm25.51-183.554c1.339-8.943 7.017-16.416 14.946-19.67l162.446-66.68c6.575-2.698 13.968-2.19 20.237 1.391l181.334 103.595c5.69 3.25 9.961 8.753 11.874 15.298l57.107 195.398c2.395 8.197.82 17.07-4.203 23.681l-104.317 137.29c-5.023 6.611-12.84 10.097-20.86 9.304l-191.213-18.905c-6.404-.634-12.343-3.942-16.509-9.197l-132.782-167.493c-4.591-5.791-6.594-13.393-5.484-20.808l27.424-183.204z" fill="url(#aa)" fill-opacity=".3"/><path opacity=".768" d="M-455.779 727.112l36.589-179.239c1.661-8.14 7.224-14.723 14.646-17.336l163.437-57.516c6.168-2.171 12.938-1.352 18.527 2.242l173.137 111.326c5.078 3.265 8.74 8.539 10.18 14.658L6.743 796.794c1.799 7.644-.075 15.715-5 21.544l-109.896 130.076c-4.925 5.829-12.261 8.658-19.582 7.551l-187.288-28.321c-5.861-.887-11.165-4.217-14.743-9.258l-121.985-171.872c-3.937-5.548-5.409-12.637-4.028-19.402zm34.697-179.689c1.806-8.849 7.852-16.005 15.92-18.844l163.436-57.516c6.705-2.36 14.063-1.469 20.138 2.437L-48.45 584.826c5.519 3.549 9.5 9.281 11.065 15.932L8.621 796.305c1.955 8.309-.081 17.082-5.435 23.418L-106.71 949.798c-5.353 6.337-13.327 9.412-21.285 8.209l-187.288-28.322c-6.37-.963-12.136-4.584-16.025-10.063L-453.292 747.75c-4.28-6.03-5.88-13.736-4.379-21.089l36.589-179.238z" fill="url(#ab)" fill-opacity=".3"/><path opacity=".783" d="M-470.834 720.634l45.437-174.759c2.087-8.028 7.973-14.301 15.506-16.525l163.979-48.424c6.274-1.853 12.995-.684 18.392 3.197l164.685 118.433c4.91 3.531 8.296 9.001 9.41 15.199l35.053 194.999c1.388 7.722-.905 15.676-6.122 21.235l-115.055 122.619c-5.217 5.56-12.679 8.003-19.925 6.524l-182.971-37.357c-5.816-1.188-10.949-4.797-14.261-10.029l-111.128-175.511c-3.642-5.752-4.738-12.914-3-19.601zm43.572-175.31c2.269-8.726 8.666-15.544 16.854-17.962l163.979-48.423c6.82-2.014 14.125-.745 19.992 3.474l164.685 118.434c5.336 3.837 9.016 9.783 10.228 16.52l35.053 194.999c1.508 8.394-.984 17.039-6.654 23.082L-138.18 958.067c-5.671 6.043-13.783 8.699-21.659 7.091l-182.97-37.358c-6.322-1.29-11.901-5.213-15.501-10.9l-111.129-175.511c-3.958-6.252-5.149-14.038-3.26-21.306l45.437-174.759z" fill="url(#ac)" fill-opacity=".3"/><path opacity=".797" d="M-485.355 714.48l53.943-169.791c2.507-7.888 8.699-13.831 16.323-15.663l164.083-39.426c6.367-1.53 13.025-.016 18.218 4.141L-76.775 618.65c4.729 3.786 7.83 9.437 8.615 15.698l24.286 193.77c.974 7.775-1.732 15.586-7.227 20.859l-119.788 114.948c-5.494 5.273-13.066 7.324-20.22 5.479l-178.283-45.995c-5.76-1.486-10.709-5.364-13.749-10.773l-100.253-178.414c-3.337-5.939-4.054-13.154-1.961-19.742zm52.11-170.44c2.724-8.575 9.455-15.034 17.742-17.025l164.083-39.426c6.92-1.663 14.157-.018 19.802 4.501l156.012 124.909c5.141 4.115 8.512 10.258 9.365 17.063l24.286 193.77c1.059 8.452-1.882 16.941-7.855 22.673l-119.788 114.948c-5.973 5.731-14.202 7.961-21.978 5.955l-178.284-45.995c-6.261-1.615-11.64-5.83-14.944-11.709l-100.253-178.415c-3.627-6.455-4.406-14.297-2.131-21.458l53.943-169.791z" fill="url(#ad)" fill-opacity=".3"/><path opacity=".942" d="M-185.552 702.248l84.472-115.667c7.103-9.726 18.53-13.855 27.345-9.881l104.843 47.257c4.713 2.124 8.143 6.354 9.594 11.831L93.46 834.887c1.101 4.157 1.007 8.825-.27 13.445L41.75 1034.29c-2.569 9.29-9.555 17.15-17.932 20.17l-99.712 36.03c-8.378 3.03-16.64.68-21.209-6.02l-91.482-134.317c-2.273-3.337-3.476-7.537-3.464-12.095l.562-218.367c.015-6.007 2.137-12.243 5.935-17.443zm83.091-116.775c7.72-10.571 20.14-15.06 29.722-10.741l104.843 47.257c5.123 2.309 8.852 6.907 10.43 12.86l52.757 199.1c1.197 4.517 1.095 9.592-.294 14.613l-51.44 185.958c-2.792 10.09-10.385 18.64-19.491 21.93l-99.712 36.03c-9.106 3.29-18.087.74-23.053-6.55l-91.482-134.317c-2.471-3.626-3.778-8.192-3.765-13.146l.562-218.367c.017-6.53 2.323-13.308 6.451-18.96l84.472-115.667z" fill="url(#ae)" fill-opacity=".3"/><path opacity=".957" d="M-193.581 700.661l86.715-105.444c7.555-9.187 19.405-12.378 28.26-7.61l101.637 54.729c4.67 2.514 7.973 6.987 9.248 12.519l45.903 199.2c.963 4.178.72 8.758-.698 13.199L20.82 1044.56c-2.893 9.05-10.265 16.33-18.9 18.66L-97 1089.85c-8.635 2.33-16.968-.72-21.366-7.81l-86.119-138.862c-2.157-3.478-3.22-7.707-3.064-12.187l7.448-213.565c.207-5.931 2.536-11.92 6.52-16.765zm85.343-106.649c8.212-9.986 21.093-13.455 30.718-8.272l101.637 54.729c5.075 2.733 8.666 7.594 10.052 13.608l45.903 199.199c1.047 4.542.783 9.52-.76 14.348L22.65 1044.93c-3.145 9.84-11.158 17.75-20.544 20.28l-98.92 26.63c-9.386 2.53-18.443-.78-23.223-8.49l-86.119-138.86c-2.345-3.781-3.5-8.377-3.331-13.246l7.448-213.565c.225-6.448 2.757-12.958 7.087-18.223l86.715-105.444z" fill="url(#af)" fill-opacity=".3"/><path opacity=".971" d="M-201.461 699.704l88.663-95.268c7.944-8.536 20.076-10.704 28.89-5.163l98.376 61.848c4.62 2.905 7.801 7.629 8.906 13.229l39.168 198.532c.833 4.221.444 8.735-1.12 13.013L-.065 1054.12c-3.207 8.78-10.902 15.4-19.72 16.98l-98.033 17.51c-8.818 1.58-17.155-2.18-21.364-9.63L-219.9 936.163c-2.053-3.632-2.985-7.91-2.687-12.333l14.032-208.039c.396-5.867 2.929-11.612 7.094-16.087zm87.312-96.581c8.634-9.278 21.821-11.634 31.401-5.611l98.377 61.847c5.022 3.158 8.48 8.293 9.68 14.379l39.168 198.533c.906 4.588.483 9.494-1.216 14.145L1.773 1054.64c-3.486 9.54-11.85 16.74-21.434 18.45l-98.034 17.52c-9.584 1.71-18.646-2.37-23.222-10.47l-80.718-142.818c-2.231-3.949-3.244-8.599-2.92-13.406l14.032-208.038c.43-6.378 3.184-12.623 7.711-17.487l88.663-95.268z" fill="url(#ag)" fill-opacity=".3"/><path opacity=".986" d="M-209.218 699.382l90.347-85.166c8.254-7.78 20.503-8.872 29.19-2.6l95.089 68.643c4.568 3.298 7.628 8.286 8.566 13.967l32.582 197.113c.709 4.287.174 8.758-1.54 12.89L-20.885 1063c-3.507 8.45-11.452 14.36-20.367 15.15l-97.099 8.66c-8.915.79-17.18-3.68-21.186-11.46l-75.301-146.187c-1.96-3.805-2.767-8.157-2.325-12.545l20.283-201.824c.585-5.816 3.321-11.321 7.661-15.412zm89.03-86.593c8.972-8.458 22.287-9.644 31.73-2.827l95.087 68.643c4.965 3.585 8.291 9.007 9.312 15.181L48.523 890.9c.77 4.659.189 9.519-1.675 14.01l-65.9 158.77c-3.81 9.18-12.447 15.61-22.137 16.47l-97.099 8.65c-9.69.87-18.674-3.99-23.029-12.44l-75.301-146.194c-2.13-4.135-3.007-8.866-2.527-13.636l20.284-201.824c.635-6.322 3.609-12.305 8.327-16.752l90.346-85.165z" fill="url(#ah)" fill-opacity=".3"/><path d="M-114.797 670.33l38.252-57.56c9.1-13.693 29.212-13.693 38.312 0L.019 670.331a22.995 22.995 0 0 1 3.783 11.054l14.712 201.416c.181 2.474-.04 4.961-.653 7.364l-37.585 147.265c-2.6 10.19-11.774 17.32-22.286 17.32h-30.758c-10.512 0-19.686-7.13-22.286-17.32l-37.585-147.265a23.004 23.004 0 0 1-.654-7.364l14.713-201.416a22.993 22.993 0 0 1 3.783-11.055zm36.586-58.667c9.891-14.883 31.752-14.883 41.643 0l38.252 57.561a24.997 24.997 0 0 1 4.112 12.015L20.51 882.656a25 25 0 0 1-.71 8.003l-37.586 147.271c-2.825 11.07-12.797 18.82-24.223 18.82h-30.758c-11.426 0-21.398-7.75-24.224-18.82l-37.585-147.271a24.971 24.971 0 0 1-.71-8.003l14.712-201.417a25.003 25.003 0 0 1 4.112-12.015l38.252-57.561z" fill="url(#ai)"/></g><defs><linearGradient id="b" x1="893.641" y1="903.471" x2="444.202" y2="-43.719" gradientUnits="userSpaceOnUse"><stop stop-color="#D245CE"/><stop offset="1" stop-color="#BAC9FF"/></linearGradient><linearGradient id="c" x1="851.167" y1="914.908" x2="456.732" y2="-49.25" gradientUnits="userSpaceOnUse"><stop stop-color="#D245CE"/><stop offset="1" stop-color="#BAC9FF"/></linearGradient><linearGradient id="d" x1="808.642" y1="924.88" x2="470.065" y2="-52.878" gradientUnits="userSpaceOnUse"><stop stop-color="#D245CE"/><stop offset="1" stop-color="#BAC9FF"/></linearGradient><linearGradient id="e" x1="766.131" y1="933.399" x2="484.023" y2="-54.499" gradientUnits="userSpaceOnUse"><stop stop-color="#D245CE"/><stop offset="1" stop-color="#BAC9FF"/></linearGradient><linearGradient id="f" x1="723.727" y1="940.478" x2="498.442" y2="-54.029" gradientUnits="userSpaceOnUse"><stop stop-color="#D245CE"/><stop offset="1" stop-color="#BAC9FF"/></linearGradient><linearGradient id="g" x1="681.484" y1="946.138" x2="513.102" y2="-51.408" gradientUnits="userSpaceOnUse"><stop stop-color="#D245CE"/><stop offset="1" stop-color="#BAC9FF"/></linearGradient><linearGradient id="h" x1="639.49" y1="950.401" x2="527.812" y2="-46.6" gradientUnits="userSpaceOnUse"><stop stop-color="#D245CE"/><stop offset="1" stop-color="#BAC9FF"/></linearGradient><linearGradient id="i" x1="597.799" y1="953.297" x2="542.343" y2="-39.594" gradientUnits="userSpaceOnUse"><stop stop-color="#D245CE"/><stop offset="1" stop-color="#BAC9FF"/></linearGradient><linearGradient id="j" x1="556.423" y1="954.332" x2="556.423" y2="-30.476" gradientUnits="userSpaceOnUse"><stop stop-color="#D245CE"/><stop offset="1" stop-color="#BAC9FF"/></linearGradient><linearGradient id="k" x1="515.626" y1="955.112" x2="570.038" y2="-19.098" gradientUnits="userSpaceOnUse"><stop stop-color="#D245CE"/><stop offset="1" stop-color="#BAC9FF"/></linearGradient><linearGradient id="l" x1="475.262" y1="954.108" x2="582.777" y2="-5.726" gradientUnits="userSpaceOnUse"><stop stop-color="#D245CE"/><stop offset="1" stop-color="#BAC9FF"/></linearGradient><linearGradient id="m" x1="435.468" y1="951.881" x2="594.521" y2="9.601" gradientUnits="userSpaceOnUse"><stop stop-color="#D245CE"/><stop offset="1" stop-color="#BAC9FF"/></linearGradient><linearGradient id="n" x1="396.295" y1="948.481" x2="605.091" y2="26.764" gradientUnits="userSpaceOnUse"><stop stop-color="#D245CE"/><stop offset="1" stop-color="#BAC9FF"/></linearGradient><linearGradient id="o" x1="357.796" y1="943.953" x2="614.327" y2="45.62" gradientUnits="userSpaceOnUse"><stop stop-color="#D245CE"/><stop offset="1" stop-color="#BAC9FF"/></linearGradient><linearGradient id="p" x1="320.034" y1="938.35" x2="622.107" y2="66.011" gradientUnits="userSpaceOnUse"><stop stop-color="#D245CE"/><stop offset="1" stop-color="#BAC9FF"/></linearGradient><linearGradient id="q" x1="283.038" y1="931.726" x2="628.301" y2="87.767" gradientUnits="userSpaceOnUse"><stop stop-color="#D245CE"/><stop offset="1" stop-color="#BAC9FF"/></linearGradient><linearGradient id="r" x1="246.875" y1="924.137" x2="632.845" y2="110.708" gradientUnits="userSpaceOnUse"><stop stop-color="#D245CE"/><stop offset="1" stop-color="#BAC9FF"/></linearGradient><linearGradient id="s" x1="211.572" y1="915.643" x2="635.665" y2="134.655" gradientUnits="userSpaceOnUse"><stop stop-color="#D245CE"/><stop offset="1" stop-color="#BAC9FF"/></linearGradient><linearGradient id="t" x1="177.17" y1="906.3" x2="636.727" y2="159.422" gradientUnits="userSpaceOnUse"><stop stop-color="#D245CE"/><stop offset="1" stop-color="#BAC9FF"/></linearGradient><linearGradient id="u" x1="143.704" y1="896.175" x2="636.022" y2="184.835" gradientUnits="userSpaceOnUse"><stop stop-color="#D245CE"/><stop offset="1" stop-color="#BAC9FF"/></linearGradient><linearGradient id="v" x1="111.207" y1="885.327" x2="633.56" y2="210.718" gradientUnits="userSpaceOnUse"><stop stop-color="#D245CE"/><stop offset="1" stop-color="#BAC9FF"/></linearGradient><linearGradient id="w" x1="79.698" y1="873.825" x2="629.363" y2="236.914" gradientUnits="userSpaceOnUse"><stop stop-color="#D245CE"/><stop offset="1" stop-color="#BAC9FF"/></linearGradient><linearGradient id="x" x1="49.211" y1="861.735" x2="623.49" y2="263.275" gradientUnits="userSpaceOnUse"><stop stop-color="#D245CE"/><stop offset="1" stop-color="#BAC9FF"/></linearGradient><linearGradient id="y" x1="19.763" y1="849.12" x2="615.999" y2="289.661" gradientUnits="userSpaceOnUse"><stop stop-color="#D245CE"/><stop offset="1" stop-color="#BAC9FF"/></linearGradient><linearGradient id="z" x1="-8.629" y1="836.05" x2="606.964" y2="315.958" gradientUnits="userSpaceOnUse"><stop stop-color="#D245CE"/><stop offset="1" stop-color="#BAC9FF"/></linearGradient><linearGradient id="A" x1="-35.962" y1="822.593" x2="596.458" y2="342.059" gradientUnits="userSpaceOnUse"><stop stop-color="#D245CE"/><stop offset="1" stop-color="#BAC9FF"/></linearGradient><linearGradient id="B" x1="-62.217" y1="808.817" x2="584.579" y2="367.879" gradientUnits="userSpaceOnUse"><stop stop-color="#D245CE"/><stop offset="1" stop-color="#BAC9FF"/></linearGradient><linearGradient id="C" x1="-87.391" y1="794.787" x2="571.417" y2="393.342" gradientUnits="userSpaceOnUse"><stop stop-color="#D245CE"/><stop offset="1" stop-color="#BAC9FF"/></linearGradient><linearGradient id="D" x1="-111.487" y1="780.571" x2="557.062" y2="418.393" gradientUnits="userSpaceOnUse"><stop stop-color="#D245CE"/><stop offset="1" stop-color="#BAC9FF"/></linearGradient><linearGradient id="E" x1="-134.502" y1="766.237" x2="541.611" y2="442.99" gradientUnits="userSpaceOnUse"><stop stop-color="#D245CE"/><stop offset="1" stop-color="#BAC9FF"/></linearGradient><linearGradient id="F" x1="-156.445" y1="751.853" x2="525.149" y2="467.106" gradientUnits="userSpaceOnUse"><stop stop-color="#D245CE"/><stop offset="1" stop-color="#BAC9FF"/></linearGradient><linearGradient id="G" x1="-177.328" y1="737.479" x2="507.76" y2="490.72" gradientUnits="userSpaceOnUse"><stop stop-color="#D245CE"/><stop offset="1" stop-color="#BAC9FF"/></linearGradient><linearGradient id="H" x1="-197.16" y1="723.182" x2="489.526" y2="513.827" gradientUnits="userSpaceOnUse"><stop stop-color="#D245CE"/><stop offset="1" stop-color="#BAC9FF"/></linearGradient><linearGradient id="I" x1="-215.961" y1="709.023" x2="470.516" y2="536.428" gradientUnits="userSpaceOnUse"><stop stop-color="#D245CE"/><stop offset="1" stop-color="#BAC9FF"/></linearGradient><linearGradient id="J" x1="-233.747" y1="695.064" x2="450.799" y2="558.534" gradientUnits="userSpaceOnUse"><stop stop-color="#D245CE"/><stop offset="1" stop-color="#BAC9FF"/></linearGradient><linearGradient id="K" x1="88.855" y1="709.338" x2="619.561" y2="659.895" gradientUnits="userSpaceOnUse"><stop stop-color="#D245CE"/><stop offset="1" stop-color="#BAC9FF"/></linearGradient><linearGradient id="L" x1="-266.369" y1="667.976" x2="409.46" y2="601.325" gradientUnits="userSpaceOnUse"><stop stop-color="#D245CE"/><stop offset="1" stop-color="#BAC9FF"/></linearGradient><linearGradient id="M" x1="-281.255" y1="654.957" x2="387.93" y2="622.05" gradientUnits="userSpaceOnUse"><stop stop-color="#D245CE"/><stop offset="1" stop-color="#BAC9FF"/></linearGradient><linearGradient id="N" x1="-294.371" y1="642.536" x2="365.976" y2="642.536" gradientUnits="userSpaceOnUse"><stop stop-color="#D245CE"/><stop offset="1" stop-color="#BAC9FF"/></linearGradient><linearGradient id="O" x1="-308.344" y1="630.239" x2="343.3" y2="662.283" gradientUnits="userSpaceOnUse"><stop stop-color="#D245CE"/><stop offset="1" stop-color="#BAC9FF"/></linearGradient><linearGradient id="P" x1="-320.616" y1="618.635" x2="320.241" y2="681.837" gradientUnits="userSpaceOnUse"><stop stop-color="#D245CE"/><stop offset="1" stop-color="#BAC9FF"/></linearGradient><linearGradient id="Q" x1="-332.093" y1="607.595" x2="296.697" y2="701.042" gradientUnits="userSpaceOnUse"><stop stop-color="#D245CE"/><stop offset="1" stop-color="#BAC9FF"/></linearGradient><linearGradient id="R" x1="-342.806" y1="597.16" x2="272.682" y2="719.916" gradientUnits="userSpaceOnUse"><stop stop-color="#D245CE"/><stop offset="1" stop-color="#BAC9FF"/></linearGradient><linearGradient id="S" x1="-352.8" y1="587.372" x2="248.188" y2="738.473" gradientUnits="userSpaceOnUse"><stop stop-color="#D245CE"/><stop offset="1" stop-color="#BAC9FF"/></linearGradient><linearGradient id="T" x1="-362.121" y1="578.264" x2="223.209" y2="756.718" gradientUnits="userSpaceOnUse"><stop stop-color="#D245CE"/><stop offset="1" stop-color="#BAC9FF"/></linearGradient><linearGradient id="U" x1="-370.82" y1="569.868" x2="197.729" y2="774.651" gradientUnits="userSpaceOnUse"><stop stop-color="#D245CE"/><stop offset="1" stop-color="#BAC9FF"/></linearGradient><linearGradient id="V" x1="-378.936" y1="562.218" x2="171.74" y2="792.271" gradientUnits="userSpaceOnUse"><stop stop-color="#D245CE"/><stop offset="1" stop-color="#BAC9FF"/></linearGradient><linearGradient id="W" x1="-386.519" y1="555.335" x2="145.229" y2="809.561" gradientUnits="userSpaceOnUse"><stop stop-color="#D245CE"/><stop offset="1" stop-color="#BAC9FF"/></linearGradient><linearGradient id="X" x1="-393.619" y1="549.245" x2="118.178" y2="826.504" gradientUnits="userSpaceOnUse"><stop stop-color="#D245CE"/><stop offset="1" stop-color="#BAC9FF"/></linearGradient><linearGradient id="Y" x1="-400.279" y1="543.967" x2="90.584" y2="843.074" gradientUnits="userSpaceOnUse"><stop stop-color="#D245CE"/><stop offset="1" stop-color="#BAC9FF"/></linearGradient><linearGradient id="Z" x1="-406.559" y1="539.52" x2="62.424" y2="859.239" gradientUnits="userSpaceOnUse"><stop stop-color="#D245CE"/><stop offset="1" stop-color="#BAC9FF"/></linearGradient><linearGradient id="aa" x1="-412.507" y1="535.913" x2="33.697" y2="874.954" gradientUnits="userSpaceOnUse"><stop stop-color="#D245CE"/><stop offset="1" stop-color="#BAC9FF"/></linearGradient><linearGradient id="ab" x1="-418.17" y1="533.157" x2="4.404" y2="890.174" gradientUnits="userSpaceOnUse"><stop stop-color="#D245CE"/><stop offset="1" stop-color="#BAC9FF"/></linearGradient><linearGradient id="ac" x1="-423.605" y1="531.259" x2="-25.454" y2="904.851" gradientUnits="userSpaceOnUse"><stop stop-color="#D245CE"/><stop offset="1" stop-color="#BAC9FF"/></linearGradient><linearGradient id="ad" x1="-428.856" y1="530.223" x2="-55.857" y2="918.927" gradientUnits="userSpaceOnUse"><stop stop-color="#D245CE"/><stop offset="1" stop-color="#BAC9FF"/></linearGradient><linearGradient id="ae" x1="-89.199" y1="567.313" x2="95.731" y2="1079.08" gradientUnits="userSpaceOnUse"><stop stop-color="#D245CE"/><stop offset="1" stop-color="#BAC9FF"/></linearGradient><linearGradient id="af" x1="-94.096" y1="576.815" x2="46.844" y2="1100.24" gradientUnits="userSpaceOnUse"><stop stop-color="#D245CE"/><stop offset="1" stop-color="#BAC9FF"/></linearGradient><linearGradient id="ag" x1="-99.264" y1="587.128" x2="-4.725" y2="1116.21" gradientUnits="userSpaceOnUse"><stop stop-color="#D245CE"/><stop offset="1" stop-color="#BAC9FF"/></linearGradient><linearGradient id="ah" x1="-104.729" y1="598.216" x2="-57.682" y2="1126.26" gradientUnits="userSpaceOnUse"><stop stop-color="#D245CE"/><stop offset="1" stop-color="#BAC9FF"/></linearGradient><linearGradient id="ai" x1="-57.389" y1="580.332" x2="-57.389" y2="1100.36" gradientUnits="userSpaceOnUse"><stop stop-color="#D245CE"/><stop offset="1" stop-color="#BAC9FF"/></linearGradient><clipPath id="a"><rect width="723" height="641" rx="16" fill="#fff"/></clipPath></defs></svg>