<svg width="24" height="24" viewBox="0 0 24 24" fill="none" xmlns="http://www.w3.org/2000/svg"><rect x="3" y="7" width="18" height="13" rx="2" stroke="#615473" stroke-width="2"/><path d="M15 7v1h1V7h-1zM9 7H8v1h1V7zm2-3h2V2h-2v2zm3 1v2h2V5h-2zm-4 2V5H8v2h2zm5-1H9v2h6V6zm-2-2a1 1 0 0 1 1 1h2a3 3 0 0 0-3-3v2zm-2-2a3 3 0 0 0-3 3h2a1 1 0 0 1 1-1V2z" fill="#615473"/><path d="M21 10.8c-2.199 1.349-5.416 2.2-9 2.2-3.584 0-6.801-.851-9-2.2" stroke="#615473" stroke-width="2"/><path d="M8 11v3M16 11v3" stroke="#615473" stroke-width="2" stroke-linecap="round" stroke-linejoin="round"/></svg>