<svg width="148" height="148" viewBox="0 0 148 148" fill="none" xmlns="http://www.w3.org/2000/svg"><g clip-path="url(#a)"><rect width="148" height="148" rx="24" fill="#7E5EC4"/><rect x="55" y="71" width="81" height="71" rx="4" fill="#FCE057"/><path d="M118.173 149.871v-5.197l-14.032-11.225-22.866-21.827-19.228 7.795s7.178 21.581 12.992 32.741c11.16 21.418 43.134-2.287 43.134-2.287z" fill="#fff"/><path d="M100.779 71.118h6.09-6.09zM68.072 116.6c-.082 0-.164-.013-.246-.013.082 0 .164 0 .246.013zm-4.124 4.622zm-9.409-13.403c.014-.583.027-1.179.027-1.762 0 .583-.013 1.165-.027 1.762z" fill="#FEFEFE"/><path d="M71.173 144.87c-9.327-.014-18.654-.014-27.981 0-.45 0-.656-.177-.779-.57-2.348-7.115-4.711-14.216-7.06-21.331-1.502-4.513-2.977-9.039-4.48-13.566-.04-.108-.081-.216-.108-.325-.123-.379-.328-.691-.779-.542-.437.149-.368.529-.273.854.464 1.436.929 2.873 1.407 4.309 1.516 4.568 3.031 9.121 4.534 13.688 1.857 5.597 3.687 11.181 5.571 16.764.205.61.069.773-.532.691a.543.543 0 0 0-.205 0c-1.338.272-2.308-.338-3.155-1.273-.218-.244-.382-.475-.491-.786-2.404-7.332-4.82-14.664-7.224-21.996-1.434-4.377-2.895-8.741-4.33-13.118-.081-.258-.204-.502-.122-.786v-.014c.068.027.15.027.19.068.684.949 1.667.894 2.677.894 8.535-.013 17.084-.013 25.62-.013.3 0 .587-.014.887-.027 1.38.013 2.758.04 4.138.013.519-.013.765.176.928.664.11.339.055.786.478.976.014.935.342 1.775.806 2.561.341 1.6.888 3.131 1.543 4.635.069.61.232 1.179.533 1.721.068.299.11.597.3.841a5.87 5.87 0 0 0 .437 1.518c.069.162.15.325.232.474.069.203.137.406.205.623.069.204.137.407.205.624.137.42.26.826.396 1.233.26.827.533 1.653.806 2.48a3963.677 3963.677 0 0 0 6.09 18.024c.178.515.11.692-.464.692z" fill="#F66667"/><path d="M128.255 97.925c-1.051-4.554-3.591-7.874-8.002-9.676-2.677-1.098-5.49-1.613-8.344-1.911-3.332-.34-6.678-.366-10.01-.312-.341 0-.601 0-.656-.447-.491-3.944-1.01-7.874-1.515-11.818-.028-.217-.082-.447.068-.65.437-.61.669-1.315.983-1.992.328-1.6.546-3.212.342-4.839-.055-.487.095-.704.532-.908 2.472-1.165 4.589-2.75 6.05-5.109 1.065-1.72 1.529-3.591.887-5.57-.805-2.48-2.307-4.31-5.107-4.662-1.666-.203-3.195.312-4.616 1.152-.491.298-.764.298-1.16-.176-2.636-3.117-5.914-5.394-9.71-6.925-2.144-.867-4.356-1.464-6.719-1.18-1.038.123-1.912.57-2.65 1.288-.573.556-.586 1.26-.436 2.033a6.92 6.92 0 0 0-.478-.163c-1.994-.637-4.015-1.165-6.145-.962-2.158.204-3.578 1.721-3.578 3.876 0 1.762 1.024 2.982 2.267 4.066.232.203.396.339.26.718-.465 1.247-.11 2.345.71 3.334.682.813 1.583 1.369 2.553 1.762.546.217.888.474.82 1.098.491.27 1.31.149 1.652-.271.218-.272.232-.597-.014-.786-.369-.285-.287-.61-.205-.963.806-3.849 3.264-6.125 7.238-6.667 3.155-.434 6.213.027 9.204 1.016.546.176.765.488.874 1.044.724 3.645 1.489 7.29 1.762 11.017.096 1.26.11 2.535-.219 3.768-.382 1.464-1.16 2.06-2.69 2.073-1.393 0-2.758-.298-4.11-.582-1.68-.353-3.373-.542-5.08-.434-.437.027-.724-.108-1.011-.393-.956-.921-1.325-2.073-1.38-3.36-.04-1.207.192-2.386.424-3.552.068-.338.26-.433.587-.38.219.042.45.069.67.096.477.054.696.27.791.8.438 2.236 2.104 3.347 4.261 2.94 1.994-.38 3.523-2.548 3.182-4.5-.068-.338-.246-.541-.587-.528-.355.014-.533.217-.52.57.015.406-.026.813-.108 1.206-.355 1.517-1.735 2.425-3.278 2.168-.942-.163-1.638-.962-1.857-2.1-.246-1.329-.355-1.437-1.72-1.681-.998-.176-.998-.176-.683-1.166.068-.216.136-.433.177-.65.055-.298-.04-.556-.355-.65-.328-.109-.587.027-.71.352-.082.203-.15.434-.205.65-.273 1.139-1.024 2.128-.997 3.348 0 .244-.191.501-.328.732-.641 1.138-1.68 1.68-2.745 1.422-1.078-.257-1.843-1.246-1.925-2.507-.027-.393.082-.826-.273-1.138-.219-.027-.437-.04-.656.054-.04.04-.095.081-.136.136-.246 1.49.136 2.764 1.256 3.808.137.122.273.23.3.434.246 1.951.479 3.89.724 5.84.37 1.654.615 3.32 1.106 4.947.738 2.412 2.022 4.337 4.439 5.326 1.597.664 3.264.542 4.902.203.574-.121.738.028.847.57.3 1.531.642 3.049.983 4.567.11.447 0 .583-.464.596-3.838.176-7.675.407-11.485.895-2.39.311-4.752.772-7.02 1.64-3.604 1.382-5.762 4.024-6.91 7.602-.914 2.873-1.392 5.828-1.802 8.809l-.45 3.212c.013.935.341 1.775.805 2.561.56-4.133.97-8.294 1.967-12.36.573-2.344 1.365-4.594 3.059-6.41 1.775-1.897 4.11-2.778 6.582-3.333 3.114-.719 6.296-.963 9.464-1.166 1.816-.122 3.632-.19 5.448-.312.451-.027.615.068.683.556.71 5.394 1.462 10.774 2.199 16.168.123.867.26 1.735.382 2.615.055.366.055.759.52.854.49.095.587-.311.75-.637 2.172-4.621 4.343-9.242 6.514-13.85 1.024-2.168 2.035-4.337 3.059-6.505.123-.258.205-.515.615-.515 4.848-.04 9.696 0 14.448 1.125 2.636.623 5.121 1.612 7.128 3.51 2.076 1.965 3.073 4.486 3.606 7.21.833 4.214.778 8.483.682 12.752-.122 5.936-.245 11.872-.45 17.808-.137 3.849-.587 7.657-1.939 11.302-.56 1.545-1.311 2.982-2.472 4.161-1.926 1.965-4.274 2.236-6.815 1.64-2.28-.542-4.315-1.654-6.295-2.86-6.022-3.672-11.635-7.901-17.234-12.156-1.393-1.057-2.745-2.155-4.151-3.198-.465-.339-.41-.488-.014-.868 3.291-3.103 5.148-6.939 5.695-11.397.068-.529.163-.583.614-.312 4.425 2.561 8.713 5.326 13.014 8.064a214.001 214.001 0 0 1 7.525 5.027c.328.231.683.475.997.041.314-.434 0-.705-.342-.949-.71-.487-1.406-.989-2.13-1.463-.382-.244-.533-.529-.533-.989.014-6.207.014-12.414.014-18.635 0-.203.014-.406-.027-.61-.055-.311-.273-.46-.588-.433-.273.027-.477.176-.491.474-.014.176 0 .366 0 .542v18.404c-.382-.027-.615-.271-.888-.447-4.998-3.266-10.01-6.492-15.158-9.5-4.356-2.548-8.904-4.716-13.793-6.072-1.256-.352-2.526-.582-3.796-.799-1.284-.217-2.567-.285-3.92-.258.124-.433.438-.664.67-.948.887-1.085 1.789-2.169 2.676-3.253.601-.732.615-1.301.069-1.775-.547-.475-1.189-.339-1.803.393a954.3 954.3 0 0 0-4.807 5.719c-.082.095-.123.244-.355.257v-1.125c.041-2.344.068-4.702.11-7.047 0-.298.04-.596-.22-.813a.526.526 0 0 0-.573-.068c-.328.15-.355.434-.355.746l-.082 5.353c-.013.908-.04 1.802-.054 2.71-.014.827-.465 1.261-1.325 1.288-1.27.04-2.472.298-3.592.921-1.748.99-2.69 2.806-2.349 4.784.096.542-.177.895-.41 1.301.07.61.233 1.179.533 1.721 1.352-3.442 3.742-5.976 6.897-7.846 1.406-.841 2.963-1.112 4.56-1.193 3.47-.19 6.774.583 10.025 1.667 2.88.976 5.64 2.25 8.357 3.632.41.217.533.447.492.894-.451 4.31-2.117 8.037-5.272 11.086-.737.718-.75.705-1.543.068-1.57-1.26-3.113-2.561-4.711-3.795-1.338-1.03-2.84-1.626-4.575-1.125-.027 0-.04 0-.068.014-.369.136-.86.176-.833.732.04.569.505.515.928.501-.382 1.03-.833 1.179-1.693.637-.136-.081-.26-.176-.396-.271-1.065-.786-1.188-1.613-.369-2.656.697-.881 1.584-1.545 2.513-2.168.218-.149.464-.285.67-.461.245-.19.3-.461.136-.732-.164-.271-.437-.379-.71-.203-1.584 1.016-3.21 2.019-4.043 3.808-.19.42-.368.474-.75.339-.875-.326-1.189-.935-.916-1.816.287-.895.888-1.572 1.53-2.209.683-.678 1.461-1.22 2.253-1.749.314-.216.628-.447.355-.867-.287-.447-.655-.271-.997-.041-1.652 1.139-3.263 2.318-4.097 4.242-.054.122-.109.231-.286.217-1.08-.027-1.776-1.111-1.298-2.073.574-1.152 1.57-1.911 2.568-2.67.45-.339.928-.651 1.406-.949.355-.217.574-.501.328-.894-.219-.366-.587-.312-.888-.082-.71.543-1.53.786-2.376 1.058-1.598.528-2.758 1.721-3.837 2.954-.615.691-1.188 1.423-1.871 2.06-.341.325-.696.637-1.188.759a5.87 5.87 0 0 0 .437 1.518c.068.162.15.325.232.474 1.297-1.545 2.581-3.09 3.878-4.635.082-.19.205-.339.41-.474.068.23-.04.366-.164.488-.532 1.639-.15 2.575 1.407 3.293.355.162.45.339.437.718a583.566 583.566 0 0 0-.11 6.912l-.081 4.133c-.014.407-.055.881.532.908.587.027.601-.434.601-.854 0-.176.014-.366.014-.542.027-2.1.068-4.201.095-6.302.014-1.016 0-2.046 0-3.266.71.583 1.298.868 1.967.922.177.013.26.108.328.271.382.989 1.201 1.572 2.089 2.046.669.366 1.365.42 1.994-.067.628-.488 1.174-1.071.942-2.033 1.106-.054 2.007.42 2.813 1.057 2.69 2.114 5.34 4.282 8.043 6.397 6.105 4.743 12.25 9.432 18.778 13.606 2.157 1.382 4.356 2.697 6.814 3.537 1.857.637 3.756.908 5.708.488 1.871-.407 3.237-1.572 4.425-2.982a17.91 17.91 0 0 0 2.321-5c1.161-3.958 1.489-8.023 1.612-12.102.177-5.869.287-11.723.369-17.591.095-4.188.068-8.281-.861-12.292zm-28.678-45.86c1.052-.543 2.158-.963 3.373-.936 2.267.014 4.329 1.979 4.712 4.486.3 1.951-.437 3.578-1.612 5.068-1.256 1.586-2.881 2.724-4.697 3.619-.724.366-.56-.298-.615-.57-.669-3.333-1.31-6.68-1.953-10.014-.218-1.125-.218-1.139.792-1.654zm-22.9 15.855c-.097-.623-.151-1.247-.233-1.883-.027-.258-.041-.448.328-.407.997.108 1.87-.19 2.758-.894-.04 1.816.369 3.347 1.584 4.661-1.53.42-2.772 1.18-3.837 2.467a179.645 179.645 0 0 1-.6-3.944zm6.486 12.74c-2.404-.407-3.906-1.898-4.725-4.107-.328-.88-.547-1.816-.806-2.724-.082-.285-.027-.501.164-.786 1.406-2.1 3.482-2.778 5.886-2.832 2.13-.055 4.192.515 6.268.853.628.109 1.256.19 1.898.217 2.608.095 4.015-1.138 4.343-3.727.273-2.263.027-4.513-.3-6.749-.41-2.86-.984-5.692-1.599-8.51-.068-.353-.218-.57-.546-.705-4.274-1.627-8.617-2.304-13.055-.773-3.127 1.084-4.97 3.375-5.68 6.56-.055.216-.096.433-.165.704-1.038-.406-1.994-.867-2.717-1.68-.779-.868-.874-1.748-.273-2.724.259-.42.177-.691-.205-.976-.806-.596-1.543-1.26-2.062-2.141-1.202-2.074-.041-4.229 2.362-4.364 2.5-.15 4.793.678 7.06 1.545.506.19.997.434 1.502.65.355.163.697.163.888-.203.178-.339-.027-.596-.328-.786-.546-.325-1.065-.691-1.474-1.192-.506-.637-.451-1.044.204-1.532.738-.542 1.585-.759 2.5-.745 2.444.027 4.684.827 6.841 1.87 3.018 1.464 5.64 3.442 7.825 6.004.273.311.437.65.519 1.07.778 4.039 1.584 8.064 2.362 12.089.301 1.558.274 3.144.069 4.716-.246 1.965-1.407 3.361-2.84 4.621-2.868 2.494-6.146 4.35-9.628 5.828a7.488 7.488 0 0 1-4.288.528zm7.087 14.582a2.249 2.249 0 0 1-.15-.041c-.218-1.6-.437-3.198-.683-4.947.369.34.615.597.888.827.396.339.833.637 1.352.759.614.135.519.38.246.786-.56.854-1.093 1.735-1.653 2.615zm5.162 2.764l-3.646 7.766c-.014.027-.068.04-.191.122-.382-2.779-.751-5.503-1.133-8.227-.055-.352.013-.65.204-.948.806-1.247 1.584-2.521 2.445-3.876.833 1.585 1.611 3.09 2.403 4.58.11.23 0 .407-.082.583zm.779-1.667c-.765-1.463-1.462-2.778-2.185-4.174 1.884-.203 3.523-.894 5.066-1.992-.928 2.02-1.87 4.011-2.881 6.166zm3.946-9.513c-.97 2.493-4.615 4.594-7.265 4.187-1.638-.257-2.676-1.206-3.1-2.764-.423-1.586-.737-3.199-1.106-4.811-.136-.597-.246-1.193-.41-1.776-.109-.42 0-.623.424-.813 2.827-1.3 5.544-2.805 7.989-4.743.642-.502 1.242-1.044 1.98-1.68l.464 3.645c.355 2.71.71 5.407 1.093 8.118.041.217.013.42-.069.637zm-36.106 27.416c-.123-1.342 1.351-2.887 3.004-3.131-1.133.976-2.117 1.979-3.004 3.131zm4.342 1.707l.014-.054.04.027-.054.027z" fill="#281E34"/><path d="M35.395 141.739c-.942-.583-1.598-1.288-2.308-1.925-3.523-3.103-7.019-6.22-10.542-9.324a2.26 2.26 0 0 1-.683-1.057c-.874-2.615-1.762-5.217-2.636-7.833-.054-.149-.068-.312-.095-.461 1.242-.461 1.502-1.003 1.024-2.209-.068-.19-.11-.339.014-.501.478-.705.41-1.396-.055-2.074-.11-.149-.205-.311-.082-.488.697-1.03.219-1.883-.45-2.683-.164-.19-.26-.339-.069-.583.628-.799.478-1.585-.04-2.371-1.093-1.681-2.61-2.982-4.002-4.405-.369-.379-.738-.488-1.202-.23-.396-.068-.532-.353-.655-.678-.246-.705-.506-1.423-.751-2.128.478-.786.368-1.084-.465-1.165-.26-1.382-.833-2.67-1.27-3.998-.41-1.287-.86-2.561-1.297-3.849-.055-.149-.123-.298-.027-.569 5.025 4.445 10.01 8.85 15.049 13.308-.902.149-1.038.326-.792 1.03 2.362 7.156 4.725 14.311 7.1 21.467 1.34 4.052 2.691 8.091 4.043 12.143.068.149.11.298.191.583z" fill="#F66667"/><path d="M95.14 64.328c-.287-3.727-1.038-7.359-1.761-11.018-.11-.555-.328-.867-.874-1.043-3.005-.99-6.064-1.437-9.205-1.017-3.974.542-6.432 2.82-7.237 6.668-.069.352-.164.678.204.962.246.204.246.529.014.786-.341.42-1.16.542-1.652.271-.028.312.013.637-.164.922.355.325.246.745.273 1.138.082 1.26.847 2.25 1.925 2.507 1.066.244 2.103-.284 2.745-1.423.137-.23.328-.487.328-.731-.014-1.234.737-2.21.997-3.348.055-.217.123-.433.205-.65.123-.325.382-.447.71-.353.314.095.41.353.355.65-.04.218-.123.435-.177.651-.301.99-.301.99.682 1.166 1.352.244 1.462.352 1.721 1.68.219 1.139.915 1.938 1.857 2.101 1.543.257 2.923-.65 3.278-2.168.095-.393.136-.8.109-1.207-.014-.352.177-.569.519-.569.341-.013.532.19.587.529.355 1.951-1.174 4.12-3.182 4.5-2.157.406-3.824-.72-4.26-2.942-.11-.515-.315-.732-.793-.8-.218-.026-.45-.054-.669-.094-.314-.054-.519.04-.587.38-.218 1.178-.464 2.344-.423 3.55.04 1.287.423 2.44 1.379 3.361.287.285.587.42 1.01.393 1.707-.108 3.4.081 5.08.434 1.353.284 2.718.596 4.111.582 1.53-.013 2.322-.61 2.69-2.073.314-1.274.3-2.534.205-3.795zm-18.176-.664c-.464 0-.737-.257-.751-.705-.014-.474.246-.758.737-.8.492.042.765.326.751.787.014.447-.273.705-.737.718zm8.03-5.163c-.396-.014-.67-.217-.67-.61 0-.447.315-.61.738-.61h.41v.027c.177 0 .368-.013.546 0 .341.04.519.271.532.596.014.34-.204.556-.518.583-.37.054-.71.027-1.038.014zm1.707 4.174c-.465.027-.738-.258-.792-.705 0-.515.286-.8.737-.813.437-.013.724.271.751.705.041.46-.218.786-.696.813z" fill="#FDFDFD"/><path d="M20.167 118.429c.478-.705.41-1.396-.055-2.074-.109-.149-.204-.312-.082-.488.697-1.03.219-1.883-.45-2.683-.164-.19-.26-.339-.068-.583.628-.799.477-1.585-.041-2.371-1.093-1.681-2.609-2.982-4.002-4.405-.368-.379-.737-.488-1.201-.23-.123.488.122.799.45 1.125 1.23 1.165 2.486 2.317 3.496 3.686.328.433.874.948.369 1.49-.45.475-1.038.068-1.489-.189-2.499-1.41-4.452-3.28-4.82-6.302-.11-.935 0-1.843.6-2.629.479-.786.37-1.084-.464-1.166-.97.827-1.27 1.952-1.283 3.144 0 .963.068 1.898-.246 2.846-.205.624-.137 1.301.027 1.938.246.976.41 1.965.615 2.955.327 1.545 1.051 2.981 1.352 4.553.04.231.19.461.327.664 1.407 2.115 3.428 3.212 5.94 3.443 1.243-.461 1.503-1.003 1.025-2.209-.082-.19-.123-.339 0-.515zm-8.003-8.457c-.15-.501-.259-.989-.218-1.694.942 1.559 2.035 2.724 3.36 3.659a8.712 8.712 0 0 0 2.417 1.193c.764.244 1.215.854 1.474 1.572.164.461-.204.759-.778.664-.942-.136-1.775-.556-2.554-1.057-1.693-1.057-3.1-2.358-3.7-4.337zm7.047 9.853c-.096.189-.3.189-.478.162-2.021-.339-3.633-1.314-4.67-3.103 1.201.867 2.43 1.68 3.892 2.046.382.095.833.027 1.106.42.095.149.26.285.15.475zm-.355-1.898a3.522 3.522 0 0 1-.929-.162 9.676 9.676 0 0 1-4.547-3.402c-.041-.068-.068-.149-.178-.407 1.01.637 1.83 1.179 2.677 1.681.806.488 1.68.799 2.622.881.587.054.737.488.833.908.068.284-.15.515-.478.501zM57.6 105.676c-.028.515-.437.556-.86.529-.724-.054-1.448-.109-2.172-.149-1.994-.19-3.974-.407-5.968-.583-3.168-.285-6.336-.61-9.518-.786-3.236-.176-6.405.217-9.3 1.829-.341.19-.669.244-.874-.149-.205-.379 0-.637.328-.84 1.406-.84 2.936-1.287 4.534-1.613 2.936-.609 5.886-.379 8.822-.108 3.345.312 6.705.596 10.05.894.629.055 1.27.095 1.899.15.765.081 1.53.162 2.308.23.423.041.778.135.75.596zM28.17 106.381c-.04.366-.245.597-.641.543-.355-.041-.506-.299-.465-.624.314-3.374-1.611-5.488-4.137-7.25-1.325-.922-2.8-1.559-4.384-1.979-2.363-.637-4.233-1.924-5.408-4.106-.068-.136-.15-.271-.205-.42-.123-.34-.164-.692.246-.854.41-.163.642.068.792.42.56 1.315 1.543 2.25 2.718 3.036.136.095.287.122.437.176.368.244.778.393 1.201.501 2.322.637 4.48 1.586 6.35 3.13 1.694 1.41 3.005 3.064 3.456 5.273.122.718.122 1.436.04 2.154z" fill="#281E34"/><path d="M27.079 22.612c.286.284.532.637.15.989-.396.352-.71.04-.983-.23-.697-.678-1.434-1.329-2.076-2.047-.355-.393-.56-.298-.86.014a89.6 89.6 0 0 1-1.98 1.965c-.301.298-.629.732-1.08.27-.436-.446-.013-.785.274-1.083a36.761 36.761 0 0 1 2.075-2.047c.314-.284.26-.447 0-.69-.764-.746-1.515-1.505-2.267-2.25-.204-.204-.355-.42-.204-.719.027-.04.054-.095.082-.122a.68.68 0 0 1 .177-.135.642.642 0 0 1 .232-.041c.055 0 .11 0 .164.014.082.027.15.067.205.108l.041.04c.04.028.082.068.11.11.723.717 1.46 1.422 2.157 2.154.328.339.519.339.86-.027.67-.732 1.407-1.41 2.117-2.1.273-.272.614-.475.956-.15.369.366.11.705-.178.99-.71.704-1.406 1.422-2.13 2.1-.287.271-.341.434-.014.745.765.664 1.462 1.41 2.172 2.142z" fill="#fff"/><path d="M11.25 69.14c-1.843 0-3.25 1.3-3.25 3.022 0 1.694 1.366 3.103 3.045 3.076 2.035-.027 3.032-1.314 3.141-3.05.096-1.571-1.406-3.048-2.936-3.048zm-.191 4.96c-1.038-.014-1.912-.949-1.87-2.006.04-.962.969-1.816 1.938-1.789 1.01.027 1.885.895 1.885 1.857-.014 1.043-.929 1.965-1.953 1.938z" fill="#FCE057"/><path d="M125.115 61.32c-.151.285-.314.623-.533.949-.533.8-1.079 1.599-1.639 2.385-.218.312-.478.65-.942.312-.451-.34-.205-.65.014-.99.642-.948 1.27-1.91 1.898-2.873.191-.284.437-.46.806-.325.218.081.396.203.396.542zM45.214 90.416c-.396.204-.656.027-.874-.352-.52-.922-1.08-1.816-1.612-2.724-.109-.19-.232-.393-.205-.583 0-.285.028-.515.3-.583.274-.067.533-.067.71.23l1.844 3.131c.192.353.219.678-.163.881zM67.24 34.297c-.082.57-.614.854-.915 1.3-.218.34-.573.584-.833.895-.218.271-.464.258-.724.109-.259-.163-.368-.434-.19-.705.518-.786 1.146-1.504 1.816-2.182.163-.163.382-.135.56-.013.218.149.286.352.286.596zM126.972 63.353c-.328.759-.724 1.49-1.106 2.222-.137.258-.328.434-.655.299-.301-.123-.437-.353-.356-.637.26-.881.724-1.68 1.216-2.467.054-.095.232-.108.341-.163.396.109.765.285.56.746z" fill="#FD9AE1"/><path d="M68.074 116.599c-.082 0-.164-.013-.246-.013.082-.19.205-.339.41-.475.082.217-.028.353-.164.488z" fill="#F66667"/><path d="M73.81 60.9c-.041.04-.096.08-.137.135 0-.135-.232-.285-.04-.38.15-.08.136.136.177.245z" fill="#FDFDFD"/><path d="M25.179 106.895c-.04-.013-.068-.027-.109-.04.082-.108.082-.013.109.04z" fill="#F66667"/><path d="M60.904 112.032c.56-4.133.97-8.294 1.967-12.36.573-2.344 1.365-4.594 3.059-6.41 1.775-1.91 4.11-2.778 6.582-3.334 3.114-.718 6.296-.962 9.464-1.165 1.816-.122 3.632-.19 5.448-.312.451-.027.629.081.683.556.71 5.393 1.462 10.774 2.199 16.168.123.867.26 1.734.382 2.615.055.366.055.759.52.854.49.095.586-.312.75-.637 2.172-4.621 4.343-9.243 6.514-13.85 1.025-2.169 2.035-4.337 3.059-6.505.123-.258.205-.516.615-.516 4.848-.04 9.696 0 14.448 1.125 2.636.624 5.121 1.613 7.115 3.51 2.076 1.979 3.072 4.486 3.605 7.21.833 4.215.778 8.484.683 12.753-.123 5.936-.246 11.872-.451 17.807-.136 3.849-.587 7.657-1.939 11.303-.56 1.545-1.311 2.981-2.472 4.161-1.925 1.965-4.274 2.236-6.814 1.639-2.281-.542-4.316-1.653-6.296-2.859-6.008-3.673-11.635-7.901-17.22-12.157-1.393-1.057-2.745-2.154-4.152-3.198-.464-.339-.41-.488-.013-.867 3.291-3.104 5.148-6.939 5.695-11.398.068-.528.163-.582.614-.311 4.425 2.547 8.713 5.326 13.014 8.063a214.028 214.028 0 0 1 7.525 5.028c.328.231.683.474.997.041.314-.434 0-.705-.342-.935-.71-.488-1.406-.99-2.13-1.464-.382-.244-.533-.529-.533-.989.014-6.207.014-12.414.014-18.635 0-.203.014-.406-.027-.609-.055-.312-.273-.461-.588-.434-.273.027-.464.176-.491.474-.014.176 0 .366 0 .542v18.404c-.383-.027-.615-.271-.888-.447-4.998-3.266-10.01-6.492-15.158-9.5-4.356-2.548-8.904-4.716-13.793-6.071-1.256-.353-2.526-.583-3.796-.8-1.284-.217-2.567-.285-3.92-.258.123-.433.438-.664.67-.948.887-1.098 1.789-2.169 2.676-3.253.601-.732.615-1.301.069-1.775-.547-.474-1.189-.339-1.803.393-1.611 1.897-3.21 3.808-4.807 5.719-.082.095-.123.244-.355.257v-1.124c.027-2.345.068-4.689.11-7.048 0-.298.04-.596-.22-.813a.526.526 0 0 0-.573-.067c-.314.149-.355.433-.355.745l-.082 5.353c-.013.908-.027 1.803-.054 2.711-.014.826-.465 1.26-1.325 1.287-1.27.041-2.472.285-3.592.922-1.761.989-2.69 2.805-2.348 4.783.095.556-.178.895-.41 1.301-.628-1.544-1.188-3.076-1.53-4.675z" fill="#FDFDFD"/><path d="M62.98 118.388c1.352-3.442 3.742-5.976 6.897-7.847 1.406-.84 2.963-1.111 4.561-1.206 3.469-.189 6.773.583 10.024 1.681 2.895.976 5.64 2.249 8.357 3.632.41.217.533.447.492.894-.45 4.31-2.117 8.037-5.272 11.086-.737.718-.75.705-1.543.068-1.57-1.261-3.113-2.562-4.711-3.795-1.338-1.03-2.84-1.626-4.575-1.125a.12.12 0 0 0-.068.014c-.369.135-.86.176-.833.732.04.569.505.515.928.501-.382 1.03-.833 1.179-1.693.637-.136-.081-.26-.176-.396-.271-1.065-.786-1.188-1.613-.369-2.656.697-.881 1.585-1.545 2.513-2.169.219-.149.464-.284.67-.46.245-.19.3-.461.136-.732-.164-.258-.437-.38-.71-.203-1.584 1.016-3.21 2.019-4.043 3.808-.19.42-.368.474-.75.338-.875-.325-1.189-.935-.902-1.816.287-.894.888-1.572 1.53-2.209.682-.677 1.46-1.219 2.253-1.748.314-.217.628-.447.355-.867-.287-.447-.656-.271-.997-.041-1.652 1.139-3.264 2.318-4.097 4.242-.054.122-.11.23-.287.217-1.079-.027-1.775-1.111-1.297-2.074.574-1.151 1.57-1.91 2.567-2.669.451-.339.929-.651 1.407-.949.355-.217.574-.501.328-.894-.219-.366-.587-.312-.888-.082-.71.529-1.53.786-2.376 1.057-1.598.529-2.759 1.721-3.838 2.941-.614.691-1.188 1.423-1.87 2.06-.342.325-.71.637-1.188.759-.205-.257-.246-.556-.315-.854z" fill="#FDFDFD"/><path d="M99.836 64.979c-.778-4.039-1.584-8.064-2.362-12.089a2.192 2.192 0 0 0-.519-1.07c-2.171-2.562-4.793-4.54-7.825-6.004-2.158-1.043-4.397-1.843-6.842-1.87-.915-.014-1.761.19-2.499.745-.655.488-.724.908-.205 1.532.41.501.915.867 1.475 1.192.3.177.506.434.328.786-.191.366-.519.366-.888.204-.491-.23-.983-.461-1.502-.65-2.28-.882-4.56-1.695-7.06-1.546-2.403.15-3.564 2.29-2.362 4.364.505.88 1.256 1.545 2.062 2.141.382.285.464.556.204.976-.6.976-.505 1.857.274 2.724.737.813 1.68 1.274 2.717 1.68.055-.27.11-.487.164-.704.71-3.199 2.554-5.489 5.68-6.56 4.44-1.53 8.782-.853 13.056.773.328.122.478.352.546.705.615 2.819 1.188 5.65 1.598 8.51.328 2.237.574 4.473.3 6.75-.314 2.602-1.72 3.821-4.342 3.726a15.076 15.076 0 0 1-1.898-.216c-2.09-.34-4.138-.895-6.268-.854-2.404.054-4.466.731-5.886 2.832-.191.285-.246.502-.164.786.26.908.478 1.843.806 2.724.819 2.21 2.321 3.713 4.725 4.106a7.718 7.718 0 0 0 4.288-.514c3.482-1.491 6.746-3.334 9.627-5.828 1.448-1.247 2.595-2.643 2.84-4.621.206-1.586.247-3.158-.068-4.73zm-10.733 8.714c-.028.095-.041.19-.082.285a3.285 3.285 0 0 1-.369.8c-.082.121-.164.243-.26.352a3.495 3.495 0 0 1-1.98 1.233c-.41.081-.805.122-.928-.393-.123-.488.177-.678.6-.786 1.503-.42 2.158-1.559 1.735-3.063-.123-.46-.04-.772.396-.921.464-.163.656.162.778.542.082.243.137.501.164.758 0 .028 0 .055.014.082v.04c.014.109.014.204.014.312 0 .15-.014.312-.028.46-.013.096-.027.204-.054.3z" fill="#281E34"/><path d="M98.662 74.411l.465 3.646c.355 2.71.71 5.407 1.092 8.117.027.23 0 .434-.082.651-.983 2.494-4.616 4.594-7.265 4.188-1.639-.258-2.677-1.207-3.1-2.765-.423-1.586-.737-3.212-1.106-4.811-.136-.596-.246-1.193-.41-1.775-.109-.42 0-.624.424-.814 2.826-1.3 5.544-2.805 7.989-4.743.641-.515 1.242-1.057 1.993-1.694zM107.663 55.614c-.396-2.507-2.444-4.472-4.711-4.486-1.216-.027-2.322.393-3.373.935-1.01.529-1.01.529-.792 1.654.655 3.347 1.283 6.68 1.952 10.015.055.27-.095.921.615.569 1.803-.908 3.428-2.033 4.698-3.619 1.174-1.49 1.912-3.117 1.611-5.068zm-3.073-.447c-1.734.732-2.54 2.209-3.099 3.876-.055.176-.082.352-.11.528-.054.38-.273.57-.655.515-.355-.04-.478-.298-.478-.637.259-1.531.942-2.846 1.98-3.998a4.896 4.896 0 0 1 1.925-1.341c.383-.15.833-.285 1.025.257.177.488-.191.637-.588.8z" fill="#FDFDFD"/><path d="M91.562 105.906c-.383-2.778-.751-5.502-1.134-8.226-.054-.352.014-.65.219-.949.805-1.246 1.584-2.52 2.444-3.875.833 1.585 1.612 3.09 2.404 4.58.109.217 0 .393-.082.57l-3.647 7.765c-.027.04-.081.054-.204.135z" fill="#281E34"/><path d="M79.516 64.749c-.04 1.816.37 3.347 1.585 4.662-1.53.42-2.773 1.179-3.838 2.466a320.18 320.18 0 0 1-.587-3.97c-.096-.624-.15-1.247-.232-1.884-.028-.258-.041-.447.328-.393.983.122 1.87-.176 2.744-.881zM96.19 96.34c-.764-1.464-1.46-2.779-2.184-4.161 1.884-.204 3.523-.895 5.066-1.993-.928 2.006-1.87 3.998-2.881 6.153zM90.1 95.2c-.218-1.599-.436-3.198-.682-4.946.369.339.614.596.888.827.396.338.833.636 1.352.758.614.136.519.38.245.787-.573.853-1.106 1.734-1.666 2.615-.04-.013-.082-.027-.136-.04zM67.022 111.11c-1.12.976-2.103 1.979-3.005 3.131-.109-1.342 1.366-2.887 3.005-3.131z" fill="#FDFDFD"/><path d="M68.427 115.921l-.054.027.014-.053.04.026z" fill="#F66667"/><path d="M14.28 105.582c-.122.488.124.799.452 1.111 1.229 1.165 2.485 2.317 3.495 3.686.328.434.875.949.37 1.491-.451.474-1.039.068-1.49-.19-2.512-1.382-4.465-3.252-4.833-6.275-.123-.935 0-1.843.6-2.629.26.705.506 1.423.751 2.128.123.325.26.623.656.678z" fill="#FDFDFD"/><path d="M85.458 57.322c.177 0 .368-.014.532 0 .342.04.52.257.533.596.014.353-.205.556-.52.596-.327.041-.668.014-1.01 0-.396-.013-.669-.216-.669-.61 0-.447.314-.61.738-.596h.41c-.014 0-.014 0-.014.014zM85.922 61.97c0-.528.287-.799.737-.812.437-.014.724.27.751.704.028.475-.245.786-.71.813-.464.028-.737-.257-.778-.704zM76.964 62.16c.492.04.765.325.751.786-.014.434-.3.705-.751.718-.464 0-.737-.257-.751-.704 0-.488.26-.76.751-.8z" fill="#281E34"/><path d="M11.947 108.278c.942 1.559 2.035 2.724 3.36 3.659a8.355 8.355 0 0 0 2.416 1.193c.765.244 1.216.867 1.462 1.572.163.461-.192.759-.779.664-.942-.135-1.775-.556-2.553-1.057-1.68-1.071-3.087-2.372-3.688-4.35-.15-.475-.273-.976-.218-1.681zM13.19 113.957c1.01.637 1.83 1.179 2.676 1.681.806.474 1.68.799 2.622.88.587.055.738.488.833.908.068.299-.137.529-.478.515a3.48 3.48 0 0 1-.928-.162c-1.858-.678-3.374-1.803-4.548-3.402-.041-.081-.055-.162-.178-.42zM14.063 116.884c1.201.867 2.43 1.68 3.891 2.046.383.095.834.027 1.107.42.095.149.26.285.163.475-.095.189-.3.189-.477.162-2.035-.339-3.647-1.314-4.684-3.103zM11.128 70.305c1.01.027 1.885.895 1.885 1.857-.014 1.043-.929 1.965-1.953 1.951-1.038-.013-1.912-.948-1.871-2.005.04-.976.97-1.83 1.94-1.803z" fill="#FDFDFD"/><path d="M89.186 72.934c-.014 1.64-1.161 3.076-2.759 3.428-.41.095-.792.122-.928-.393-.123-.487.177-.677.6-.8 1.502-.42 2.158-1.558 1.735-3.062-.123-.46-.041-.772.396-.921.464-.163.655.162.764.542.123.406.205.8.192 1.206z" fill="#fff"/><path d="M100.261 59.45c.259-1.532.942-2.846 1.98-3.998a4.889 4.889 0 0 1 1.925-1.342c.383-.149.833-.285 1.025.258.163.487-.205.636-.601.8-1.735.731-2.54 2.208-3.1 3.875-.055.176-.082.352-.11.529-.054.38-.273.569-.655.515-.341-.055-.478-.299-.464-.637z" fill="#281E34"/><path d="M27.297 66.82c-.06 0-.14.04-.2.04-3.88-1.92-7.04-5.1-8.98-8.98 0-.06.04-.14.04-.2 2.44.72 4.96 1.26 7.46 1.68.44 2.52.96 5.02 1.68 7.46zM53.878 57.9c-1.98 3.98-5.28 7.2-9.3 9.14.76-2.54 1.4-5.1 1.82-7.68 2.52-.42 5-.96 7.44-1.68-.02.08.04.16.04.22zM54.038 40.42c-2.52-.76-5.06-1.38-7.64-1.82-.42-2.58-1.04-5.14-1.82-7.64 4.14 1.98 7.48 5.32 9.46 9.46zM27.3 31.177c-.72 2.44-1.24 4.92-1.66 7.44-2.58.4-5.14 1.04-7.68 1.8 1.94-4.02 5.16-7.32 9.14-9.3.06 0 .14.06.2.06zM42.983 38.18c-4.64-.52-9.32-.52-13.96 0 .5-2.74 1.14-5.48 2.04-8.12.04-.16.02-.28.04-.44 1.58-.38 3.2-.62 4.9-.62 1.68 0 3.32.24 4.88.62.02.16.02.28.06.44.9 2.66 1.54 5.38 2.04 8.12zM25.18 55.983c-2.76-.5-5.48-1.14-8.12-2.04-.16-.04-.28-.02-.44-.04-.38-1.58-.62-3.2-.62-4.9 0-1.68.24-3.32.62-4.88.16-.02.28-.02.44-.06 2.66-.88 5.36-1.54 8.12-2.04-.5 4.64-.5 9.32 0 13.96zM56 49.003c0 1.7-.24 3.32-.62 4.9-.16.02-.28 0-.44.04-2.66.88-5.38 1.54-8.12 2.04.52-4.64.52-9.32 0-13.96 2.74.5 5.48 1.14 8.12 2.04.16.04.28.06.44.06.38 1.58.62 3.2.62 4.88zM42.983 59.82c-.5 2.76-1.14 5.48-2.04 8.12-.04.16-.04.28-.06.44-1.56.38-3.2.62-4.88.62-1.7 0-3.32-.24-4.9-.62-.02-.16 0-.28-.04-.44-.88-2.66-1.54-5.36-2.04-8.12 2.32.26 4.64.44 6.98.44 2.34 0 4.68-.18 6.98-.44zM43.527 56.527a60.07 60.07 0 0 1-15.054 0 60.08 60.08 0 0 1 0-15.054 60.08 60.08 0 0 1 15.054 0 60.07 60.07 0 0 1 0 15.054z" fill="#FA9BE1"/></g><defs><clipPath id="a"><rect width="148" height="148" rx="24" fill="#fff"/></clipPath></defs></svg>