<svg width="148" height="148" viewBox="0 0 148 148" fill="none" xmlns="http://www.w3.org/2000/svg"><g clip-path="url(#a)"><rect width="148" height="148" rx="24" fill="#7E5EC4"/><path d="M161.138 102.463c-1.168-2.042-3.065-3.314-5.094-4.375-2.561-1.352-5.293-2.254-8.079-3.01a73.695 73.695 0 0 0-10.56-1.988c-.729-.08-.915-.385-1.034-.981-.359-1.803-.929-3.527-1.95-5.091-1.128-1.71-2.601-2.798-4.776-2.599-1.194.106-2.268.557-3.25 1.22-.464.305-.597.199-.65-.305a17.13 17.13 0 0 0-.319-2.015c-.822-3.62-1.883-7.16-3.833-10.355-1.473-2.412-3.264-4.494-5.93-5.647-2.786-1.207-5.691-1.008-8.517-.425-3.409.716-6.088 2.678-8.145 5.49-2.162 2.982-3.37 6.363-4.165 9.916 1.87.331 3.74.557 5.585 1.047 2.467.65 4.828 1.538 6.964 2.957 3.608 2.413 5.346 5.873 5.797 10.129.597 5.568.809 11.176 1.181 16.758 5.16 0 10.334.013 15.494.026.345 0 .703.066 1.048.093.796-.583 1.512-1.273 2.348-1.816 4.643-3.01 9.631-2.427 13.783.928.226.172.398.411.677.517 1.313-.146 2.64-.252 3.94-.451 2.401-.358 4.762-.875 6.964-1.975 3.224-1.591 4.311-4.919 2.521-8.048zm-16.476 2.691c-.345.332-.69.146-.982-.145-.743-.743-1.486-1.499-2.229-2.241-.106-.119-.212-.225-.358-.265-.199.04-.305.185-.424.318-.69.689-1.367 1.379-2.057 2.055-.318.318-.663.716-1.101.252-.411-.424-.053-.743.266-1.047.69-.677 1.353-1.393 2.069-2.055.385-.345.332-.584 0-.902a92.46 92.46 0 0 1-1.937-1.975c-.238-.252-.451-.53-.159-.862.305-.345.624-.226.929.026.676.544 1.22 1.207 1.804 1.83.584.61.597.61 1.194.026.61-.61 1.22-1.22 1.831-1.816.278-.278.61-.424.915-.093.305.319.186.637-.106.928-.677.663-1.34 1.353-2.017 2.002-.292.279-.305.504 0 .769.81.676 1.486 1.485 2.242 2.228.279.291.491.623.12.967z" fill="#FDE058"/><path d="M156.349 130.768c-.915-4.998-2.534-9.731-5.399-13.973-.942-1.392-2.083-2.625-3.237-3.832-.278-.093-.464-.331-.676-.517-4.153-3.354-9.14-3.951-13.783-.928-.836.544-1.552 1.22-2.348 1.816-1.526 1.631-2.906 3.355-4.007 5.303-1.074 1.923-1.989 3.925-2.666 6.033-.172.53-.318.49-.703.185-2.255-1.856-4.842-2.837-7.8-2.757-.332.013-.664.066-.982.106l.199 6.602c.159 5.728.305 11.455.464 17.182 0 .146.04.305.053.451.863.013 1.725.04 2.587.04 6.301 0 12.603 0 18.89.013.438 0 .77-.013.796-.597.027-.609.16-1.219.252-1.829.69-4.335 1.393-8.671 2.083-13.006.61-3.818 1.221-7.623 1.818-11.441.066-.398.185-.73.65-.637.451.093.464.464.398.849-.531 3.327-1.048 6.668-1.579 9.996-.849 5.356-1.698 10.712-2.56 16.082-.067.437 0 .596.477.596a3667.74 3667.74 0 0 1 16.914 0c.398 0 .57-.106.623-.543a50.69 50.69 0 0 0-.464-15.194zm-34.318 3.898c-.531.941-1.101 1.856-1.658 2.771l-.04.04-.04.04c-.013.013-.026.013-.04.026-.013.013-.026.013-.04.013-.013 0-.026.014-.039.014-.014 0-.027.013-.04.013-.04.013-.08.013-.119.013h-.067c-.04 0-.079 0-.119-.013-.013 0-.027 0-.04-.013h-.013c-.014 0-.027 0-.04-.014-.013 0-.013-.013-.027-.013-.026-.013-.066-.026-.092-.053-.014-.013-.04-.026-.054-.04-.013-.013-.026-.013-.039-.026a.21.21 0 0 1-.08-.106.105.105 0 0 1-.026-.053c-.014-.027-.014-.04-.027-.067 0-.013 0-.026-.013-.039v-.027a.35.35 0 0 1 .053-.252 58.379 58.379 0 0 1 1.645-2.784c.172-.278.477-.318.756-.146.278.186.332.491.199.716zm13.584-.795c-.292.066-.504-.053-.637-.332-.385-.835-.769-1.67-1.154-2.519-.478-1.06-.955-2.121-1.446-3.182-.159-.344-.186-.663.186-.848.398-.186.676.026.849.384.849 1.856 1.685 3.726 2.52 5.582.053.119.08.252.106.331-.013.345-.159.531-.424.584zm14.937 2.877l-3.462 5.647a220.96 220.96 0 0 0-1.42 2.307c-.132.212-.278.398-.557.411-.477 0-.663-.477-.358-.994.637-1.061 1.3-2.108 1.937-3.155.915-1.485 1.817-2.983 2.719-4.468.066-.106.146-.226.212-.332.199-.305.451-.543.823-.331.411.238.318.583.106.915z" fill="#02DAA0"/><path d="M115.425 145.975c-.159-5.728-.305-11.455-.465-17.182l-.199-6.603-.278-5.687c-.053-1.101-.08-2.201-.12-3.301-.371-5.582-.583-11.19-1.18-16.758-.451-4.27-2.189-7.716-5.797-10.13-2.136-1.431-4.497-2.306-6.965-2.956-1.844-.49-3.714-.716-5.585-1.047-2.03-.173-4.046-.371-6.088-.371-.531 0-.85-.173-1.141-.597a32.376 32.376 0 0 0-1.87-2.4c-.16-.185-.306-.305-.32-.556-.105-2.984-.225-5.966-.344-8.936-.013-.226-.026-.424.16-.61 1.697-1.604 2.44-3.699 2.997-5.873.12-.451.305-.623.77-.716 2.082-.398 4.032-1.127 5.664-2.559 2.295-2.002 2.826-4.892 1.42-7.623-1.168-2.267-3.542-3.209-6.487-2.493-.584.146-.796-.026-1.048-.49-1.473-2.745-3.21-5.33-5.532-7.451-1.035-.941-2.15-1.777-3.489-2.24-1.738-.597-3.144.437-3.144 2.253 0 .16.106.332-.066.504-.212-.16-.425-.318-.637-.477-2.826-2.016-5.863-3.62-9.233-4.508-1.724-.45-3.316.026-4.139 1.18-.875 1.22-.849 3.05.08 4.494.424.663.968 1.207 1.592 1.67.265.2.371.306.106.637-.889 1.1-.703 2.373.411 3.262.663.53 1.433.901 2.242 1.087.637.146.57.384.358.848a12.354 12.354 0 0 0-.928 3.302c-.2 1.458-.398 2.93-.584 4.401-.345 2.81-.703 5.608-.597 8.445.132 3.434 1.804 5.661 4.908 6.497.915.252 1.857.41 2.813.437.238 0 .49-.026.49.345.027 1.949.053 3.884.093 5.833 0 .146.027.358-.212.305-.464-.08-.663.252-.902.544-.517.636-1.048 1.26-1.552 1.896-.212.265-.438.37-.783.384-2.52.066-5.028.212-7.535.49-3.316.372-6.606.902-9.75 2.095-4.245 1.591-7.07 4.468-8.158 8.95-.398 1.643-.584 3.3-.743 4.971-.412 4.534-.504 9.082-.465 13.629 0 .186.067.398-.092.597-.2-.212-.186-.491-.24-.73-.848-4.308-1.684-8.617-2.52-12.926-.464-2.426-.995-4.852-1.313-7.292-.504-3.87-.239-7.756.04-11.64.12-1.644.345-3.301.053-4.958-.106-.65-.305-1.273-1.075-1.432-.835-.173-1.512.119-1.976.875-.438.702-.703 1.471-.929 2.254-.345 1.206-.65 2.426-1.035 3.632-.252.822-.73 1.498-1.512 1.936-.45.252-.73.225-.955-.318-.65-1.472-1.207-2.983-1.79-4.481-.876-2.241-1.712-4.495-2.906-6.59-.411-.729-.875-1.431-1.579-1.935-.636-.451-1.353-.411-1.95.08-.53.424-.69 1.007-.703 1.643-.026 1.008.24 1.962.531 2.917.08.252.758 2.494.758 2.494s-.811-1.87-.85-1.937c-.717-1.114-1.367-2.294-2.362-3.182-1.18-1.034-2.826-.544-3.237.968-.106.398-.265.504-.65.53-1.287.133-1.884.676-2.056 1.91-.053.397-.266.37-.53.37-1.314.027-1.964.822-1.725 2.135.172.954.544 1.856.915 2.757 1.658 4.084 3.582 8.061 5.147 12.184 1.486 3.898 2.932 7.796 3.927 11.853.889 2.678 1.459 5.436 2.122 8.18.345 1.458.677 2.917 1.022 4.375.888 3.394 1.698 6.801 2.693 10.169 1.154 3.831 2.387 7.623 4.284 11.163 1.274 2.373 2.826 4.494 5.346 5.687.61.292 1.274.504 1.91.743 1.699.345 3.41.451 5.134.159 3.396-.583 6.355-2.068 9.021-4.203.146-.119.239-.331.597-.225v5.528c0 .385.027.809.544.822.53 0 .544-.411.53-.808-.106-8.366-.198-16.732-.305-25.097 0-.146-.066-.372.093-.425.65-.212.518-.742.518-1.219 0-3.805 0-7.597.013-11.402 0-.225-.133-.504.239-.663 1.724-.689 2.135-1.299 2.135-3.129 0-6.23.014-12.462-.013-18.693 0-.597.186-.77.73-.849 3.489-.504 6.977-.755 10.493-.888.358-.013.557.12.77.384 1.843 2.427 3.7 4.84 5.558 7.266.517.676.928.623 1.286-.173.332-.716.637-1.458.969-2.174.12-.252.132-.583.45-.742.12.291.067.556.067.808V104.69c0 .371.173.61.544.597.385 0 .53-.266.53-.624v-.53-16.174c0-.2-.105-.438.12-.65.796 1.246 1.565 2.466 2.348 3.699.57.901.929.888 1.433-.013 1.38-2.466 2.785-4.919 4.139-7.398.278-.504.597-.65 1.154-.61 2.056.12 4.099.252 6.142.477.557.067.716.212.716.796-.026 6.788-.013 13.563-.013 20.35 0 1.035.318 2.002 1.26 2.374 1.048.411 1.101 1.113 1.101 1.975 0 .331.027.663.04.994.172 3.288.331 6.576.49 9.864.014.252 0 .597.266.61.73.053.57.57.597.994.013.265-.013.531 0 .796.199 3.566.424 7.146.623 10.712.239 4.415.451 8.817.677 13.231v.003c.013.357.027.74.478.833.242.044.466.636.57.5.085-.11.066-.929.119-1.07-.225-1.923-.225-3.858-.371-5.794-.053-.676-.066-1.366-.093-2.042-.265-5.025-.531-10.036-.822-15.061-.04-.663.145-.689.716-.57 3.131.623 6.288.915 9.458.318.664-.225 1.34-.424 1.99-.702.531-.226.65-.067.663.451.04 2.028.12 4.056.186 6.098l.478 16.877c0 .159-.014.305-.014.464.089.291.238.534.574.533l.05-.002c.345-.027.451-.279.531-.557-.014-.159-.04-.318-.04-.464zM44.6 101.216c.172-2.492.344-4.971 1.06-7.397 1.102-3.752 3.636-6.112 7.204-7.478.053-.026.133-.013.239-.013v18.216c0 .835.239 1.565.862 2.148.186.186.279.371.279.636-.014 4.349 0 8.697 0 13.072-1.035-.45-2.255-.702-3.49-.875a35.4 35.4 0 0 0-5.677-.357c-.49.013-.623-.12-.637-.61-.238-5.781-.252-11.561.16-17.342zm9.484 38.223c-3.01 2.625-6.407 4.375-10.44 4.706-.106.013-.225.013-.331.027h-.73c-.12 0-.239-.014-.358-.014-.093 0-.172-.013-.252-.026-.08-.013-.172-.013-.252-.027l-.239-.039c-.053 0-.093-.014-.146-.027-.08-.013-.146-.026-.225-.04-.04-.013-.08-.013-.12-.026a2.165 2.165 0 0 0-.146-.04c-.04-.013-.08-.013-.119-.026-.08-.027-.172-.04-.252-.067l-.252-.079c-.053-.014-.106-.04-.172-.053a9.427 9.427 0 0 1-.584-.133 2.173 2.173 0 0 1-.279-.093c-.066-.026-.132-.053-.199-.066-.066-.013-.132-.053-.199-.08-.04-.013-.08-.026-.12-.053h-.012c-.053-.026-.12-.053-.173-.079-.066-.04-.146-.066-.212-.106-.066-.04-.133-.066-.2-.106a1.16 1.16 0 0 1-.211-.133c-.067-.04-.133-.079-.186-.119-.053-.04-.106-.066-.16-.106l-.119-.08a3.668 3.668 0 0 1-.278-.212 10.873 10.873 0 0 1-.995-.888c-1.566-1.578-2.574-3.513-3.462-5.515-2.123-4.773-3.503-9.785-4.79-14.823-.291-1.153-.702-2.28-.782-3.473-.504-1.114-.65-2.32-.929-3.487-1.419-5.9-2.852-11.786-4.895-17.514-1.897-5.33-4.178-10.486-6.433-15.67-.478-1.087-.982-2.174-1.168-3.368-.12-.702.252-1.007.915-.848.292.066.359.305.465.517 1.499 2.784 2.985 5.555 4.47 8.339l.12.239c.186.358.45.583.849.358.371-.213.305-.544.12-.862-.226-.411-.439-.822-.65-1.233-1.248-2.32-2.482-4.627-3.729-6.934-.344-.636-.344-1.313-.291-1.989.04-.45.424-.636.849-.702.45-.067.835-.053 1.1.464 1.54 2.903 3.105 5.793 4.657 8.697.026.053.066.12.093.172.172.371.424.69.862.438.398-.226.292-.584.106-.928-.676-1.26-1.353-2.533-2.03-3.792l-2.825-5.25c-.199-.358-.318-.73-.186-1.14.239-.716.929-.928 1.5-.438.517.438.901.968 1.246 1.538 1.592 2.572 3.17 5.144 4.75 7.73.066.105.132.225.212.344.185.292.424.464.769.292.345-.186.332-.49.212-.796-.45-1.127-.915-2.253-1.366-3.367-.663-1.63-1.34-3.262-1.83-4.959-.147-.503-.266-1.034-.28-1.564v-.028c-.013-.484-.028-1.023.531-1.205.53-.172.796.305 1.048.65.836 1.127 1.38 2.4 1.95 3.672 1.26 2.837 2.176 5.834 3.516 8.644.185.385-.053.45-.266.584-1.976 1.22-3.17 2.97-3.568 5.25a8.065 8.065 0 0 0 .08 3.036c.08.384.238.702.69.623.477-.08.45-.451.384-.836-.49-2.585.146-4.812 2.176-6.562.676-.584 1.472-.995 2.281-1.326 1.579-.636 2.309-1.896 2.76-3.42.41-1.445.69-2.93 1.3-4.31.212-.477.344-1.232 1.034-1.086.663.132.438.888.451 1.365.053 2.188-.199 4.362-.318 6.55-.2 3.672-.292 7.344.398 10.964 1.671 8.71 3.276 17.434 5.134 26.104.45 2.135.968 4.256 1.525 6.364.053.186.12.385.173.57.106.358.318.61.716.477.398-.132.411-.437.318-.808-.371-1.406-.742-2.811-1.087-4.229-.173-.73-.305-1.472-.465-2.201-.08-.358.027-.504.438-.504 2.454.066 4.908.146 7.31.663.04.013.079.013.132.026 1.884.464 1.977.57 2.003 2.493.067 4.918.12 9.85.2 14.769.012.504-.133.862-.532 1.22zm24.37-53.535c-.664 1.431-1.274 2.89-1.937 4.428-1.446-1.883-2.84-3.673-4.206-5.489-.37-.477-1.048-.928-.981-1.485.066-.504.676-.941 1.048-1.405.053-.066.12-.133.159-.212.279-.464.53-.53 1.008-.146 1.526 1.206 3.091 2.347 4.656 3.5.332.225.425.411.253.809zm1.233-1.75c-.331.318-.53.305-.875.04-1.3-.995-2.6-1.99-3.927-2.944-.358-.265-.504-.53-.504-.98-.027-2.347-.08-4.68-.12-7.027-.013-.783-.119-.862-.888-.889-1.513-.04-2.998-.185-4.378-.888-1.618-.822-2.573-2.108-2.826-3.911-.318-2.32-.066-4.627.186-6.934.266-2.347.57-4.693.902-7.027.16-1.14.504-2.24 1.008-3.274 1.274-2.612 3.476-3.686 6.275-3.752h.743c2.162.146 4.417.504 6.513 1.551 1.751.875 3.105 2.095 3.476 4.136.106.544.557.623.995.226 1.645-1.551 3.595-2.188 5.824-1.989 1.14.106 2.056.637 2.706 1.591 1.538 2.214 1.207 4.985-.836 6.761-1.618 1.406-3.569 2.095-5.651 2.413-.663.107-.942.358-1.061 1.008a14.159 14.159 0 0 1-1.473 4.097c-.305.543-.61 1.113-1.114 1.471-.637.464-.756 1.034-.717 1.764.16 3.181.253 6.35.398 9.532.014.384-.093.65-.371.915-1.42 1.352-2.865 2.718-4.285 4.11zm6.301.65c-.955 1.71-1.923 3.42-2.958 5.263a585.505 585.505 0 0 0-2.812-4.402c-.173-.265-.106-.424.106-.623a779.525 779.525 0 0 0 4.789-4.587c.252-.239.398-.212.544.066.013.013.026.04.04.053.49.676 1.3 1.313 1.392 2.042.093.729-.69 1.458-1.1 2.187zm27.022 36.604c-2.308 1.034-4.722 1.233-7.203 1.047-1.539-.106-3.064-.397-4.59-.662-.384-.067-.491-.252-.504-.624v-.003c-.225-4.52-.451-9.04-.703-13.559-.026-.385.066-.637.372-.902.689-.583.888-1.379.875-2.267-.013-3.911 0-7.822 0-11.733v-7.292c0-.729 0-.729.73-.49a20.83 20.83 0 0 1 4.046 1.803c3.648 2.16 5.598 5.37 6.049 9.572.557 5.276.875 10.566 1.114 15.856.12 2.784.239 5.555.385 8.339.013.504-.146.729-.571.915z" fill="#fff"/><path d="M55.782 146.174c.014.397 0 .808-.53.808l46.178.014c-.451-.093-.465-.476-.478-.833v-.003c-.226-4.414-.438-8.816-.677-13.231-.199-3.566-.424-7.146-.623-10.712-.013-.265.013-.531 0-.796-.027-.424.133-.941-.597-.994-.265-.013-.252-.358-.265-.61-.16-3.288-.319-6.576-.491-9.864-.013-.331-.04-.663-.04-.994 0-.862-.053-1.564-1.101-1.975-.942-.372-1.26-1.339-1.26-2.374 0-6.787-.013-13.562.013-20.35 0-.584-.16-.73-.716-.796-2.043-.225-4.086-.358-6.142-.477-.557-.04-.876.106-1.154.61-1.353 2.479-2.76 4.932-4.14 7.398-.503.901-.862.914-1.432.013-.783-1.233-1.552-2.453-2.348-3.699-.225.212-.12.45-.12.65v16.704c0 .358-.145.624-.53.624-.371.013-.544-.226-.544-.597V89.178c0-.251.053-.517-.066-.808-.319.159-.332.49-.451.742-.332.716-.637 1.458-.969 2.174-.358.796-.769.849-1.286.173-1.858-2.427-3.715-4.84-5.559-7.266-.212-.265-.41-.397-.77-.384-3.514.133-7.003.384-10.492.888-.544.08-.73.252-.73.849.027 6.23.013 12.462.013 18.693 0 1.83-.41 2.44-2.135 3.129-.372.159-.24.438-.24.663-.012 3.805-.012 7.597-.012 11.402 0 .477.132 1.007-.518 1.219-.159.053-.093.279-.093.425.107 8.365.2 16.731.306 25.097zM101.748 140.632c.146 1.936.146 3.871.371 5.794-.053.141-.034.96-.119 1.07l12.884-.498c-.336.001-.485-.242-.574-.533 0-.159.014-.305.014-.464l-.478-16.877c-.066-2.042-.146-4.07-.186-6.098-.013-.518-.132-.677-.663-.451-.65.278-1.326.477-1.99.702-3.17.597-6.327.305-9.458-.318-.571-.119-.756-.093-.716.57.291 5.025.557 10.036.822 15.061.027.676.04 1.366.093 2.042zM113.01 121.408c-2.308 1.034-4.722 1.233-7.203 1.047-1.539-.106-3.064-.397-4.59-.662-.384-.067-.491-.252-.504-.624v-.003c-.225-4.52-.451-9.04-.703-13.559-.026-.385.066-.637.372-.902.689-.583.888-1.379.875-2.267-.013-3.911 0-7.822 0-11.733v-7.292c0-.729 0-.729.73-.49a20.83 20.83 0 0 1 4.046 1.803c3.648 2.16 5.598 5.37 6.049 9.572.557 5.276.875 10.566 1.114 15.856.12 2.784.239 5.555.385 8.339.013.504-.146.729-.571.915zM44.6 101.216c.172-2.492.344-4.971 1.06-7.397 1.102-3.752 3.636-6.112 7.204-7.478.053-.026.133-.013.239-.013v18.216c0 .835.239 1.565.862 2.148.186.186.279.371.279.636-.014 4.349 0 8.697 0 13.072-1.035-.45-2.255-.702-3.49-.875a35.4 35.4 0 0 0-5.677-.357c-.49.013-.623-.12-.637-.61-.238-5.781-.252-11.561.16-17.342z" fill="#fff"/><path d="M54.084 139.439c-3.01 2.625-6.407 4.375-10.44 4.706-.106.013-.225.013-.331.027h-.73c-.12 0-.239-.014-.358-.014-.093 0-.172-.013-.252-.026-.08-.013-.172-.013-.252-.027l-.239-.039c-.053 0-.093-.014-.146-.027-.08-.013-.146-.026-.225-.04-.04-.013-.08-.013-.12-.026a2.165 2.165 0 0 0-.146-.04c-.04-.013-.08-.013-.119-.026-.08-.027-.172-.04-.252-.067l-.252-.079c-.053-.014-.106-.04-.172-.053a9.427 9.427 0 0 1-.584-.133 2.173 2.173 0 0 1-.279-.093c-.066-.026-.132-.053-.199-.066-.066-.013-.132-.053-.199-.08-.04-.013-.08-.026-.12-.053h-.012c-.053-.026-.12-.053-.173-.079-.066-.04-.146-.066-.212-.106-.066-.04-.133-.066-.2-.106a1.16 1.16 0 0 1-.211-.133c-.067-.04-.133-.079-.186-.119-.053-.04-.106-.066-.16-.106l-.119-.08a3.668 3.668 0 0 1-.278-.212 10.873 10.873 0 0 1-.995-.888c-1.566-1.578-2.574-3.513-3.462-5.515-2.123-4.773-3.503-9.785-4.79-14.823-.291-1.153-.702-2.28-.782-3.473-.504-1.114-.65-2.32-.929-3.487-1.419-5.9-2.852-11.786-4.895-17.514-1.897-5.33-4.178-10.486-6.433-15.67-.478-1.087-.982-2.174-1.168-3.368-.12-.702.252-1.007.915-.848.292.066.359.305.465.517 1.499 2.784 2.985 5.555 4.47 8.339l.12.239c.186.358.45.583.849.358.371-.213.305-.544.12-.862-.226-.411-.439-.822-.65-1.233-1.248-2.32-2.482-4.627-3.729-6.934-.344-.636-.344-1.313-.291-1.989.04-.45.424-.636.849-.702.45-.067.835-.053 1.1.464 1.54 2.903 3.105 5.793 4.657 8.697.026.053.066.12.093.172.172.371.424.69.862.438.398-.226.292-.584.106-.928-.676-1.26-1.353-2.533-2.03-3.792l-2.825-5.25c-.199-.358-.318-.73-.186-1.14.239-.716.929-.928 1.5-.438.517.438.901.968 1.246 1.538 1.592 2.572 3.17 5.144 4.75 7.73.066.105.132.225.212.344.185.292.424.464.769.292.345-.186.332-.49.212-.796-.45-1.127-.915-2.253-1.366-3.367-.663-1.63-1.34-3.262-1.83-4.959-.147-.503-.266-1.034-.28-1.564v-.028c-.013-.484-.028-1.023.531-1.205.53-.172.796.305 1.048.65.836 1.127 1.38 2.4 1.95 3.672 1.26 2.837 2.176 5.834 3.516 8.644.185.385-.053.45-.266.584-1.976 1.22-3.17 2.97-3.568 5.25a8.065 8.065 0 0 0 .08 3.036c.08.384.238.702.69.623.477-.08.45-.451.384-.836-.49-2.585.146-4.812 2.176-6.562.676-.584 1.472-.995 2.281-1.326 1.579-.636 2.309-1.896 2.76-3.42.41-1.445.69-2.93 1.3-4.31.212-.477.344-1.232 1.034-1.086.663.132.438.888.451 1.365.053 2.188-.199 4.362-.318 6.55-.2 3.672-.292 7.344.398 10.964 1.671 8.71 3.276 17.434 5.134 26.104.45 2.135.968 4.256 1.525 6.364.053.186.12.385.173.57.106.358.318.61.716.477.398-.132.411-.437.318-.808-.371-1.406-.742-2.811-1.087-4.229-.173-.73-.305-1.472-.465-2.201-.08-.358.027-.504.438-.504 2.454.066 4.908.146 7.31.663.04.013.079.013.132.026 1.884.464 1.977.57 2.003 2.493.067 4.918.12 9.85.2 14.769.012.504-.133.862-.532 1.22zM78.454 85.904c-.664 1.431-1.274 2.89-1.937 4.428-1.446-1.883-2.84-3.673-4.206-5.489-.37-.477-1.048-.928-.981-1.485.066-.504.676-.941 1.048-1.405.053-.066.12-.133.159-.212.279-.464.53-.53 1.008-.146 1.526 1.206 3.091 2.347 4.656 3.5.332.225.425.411.253.809zM85.988 84.803c-.955 1.71-1.923 3.42-2.958 5.264a585.505 585.505 0 0 0-2.812-4.402c-.173-.265-.106-.424.106-.623a779.525 779.525 0 0 0 4.789-4.587c.252-.239.398-.212.544.066.013.013.026.04.04.053.49.676 1.3 1.313 1.392 2.042.093.729-.69 1.458-1.1 2.187zM79.687 84.154c-.331.318-.53.305-.875.04-1.3-.995-2.6-1.99-3.927-2.944-.358-.265-.504-.53-.504-.98-.027-2.347-.08-4.68-.12-7.027-.013-.783-.119-.862-.888-.889-1.513-.04-2.998-.185-4.378-.888-1.618-.822-2.573-2.108-2.826-3.911-.318-2.32-.066-4.627.186-6.934.266-2.347.57-4.693.902-7.027.16-1.14.504-2.24 1.008-3.274 1.274-2.612 3.476-3.686 6.275-3.752h.743c2.162.146 4.417.504 6.513 1.551 1.751.875 3.105 2.095 3.476 4.136.106.544.557.623.995.226 1.645-1.551 3.595-2.188 5.824-1.989 1.14.106 2.056.637 2.706 1.591 1.538 2.214 1.207 4.985-.836 6.761-1.618 1.406-3.569 2.095-5.651 2.413-.663.107-.942.358-1.061 1.008a14.159 14.159 0 0 1-1.473 4.097c-.305.543-.61 1.113-1.114 1.471-.637.464-.756 1.034-.717 1.764.16 3.181.253 6.35.398 9.532.014.384-.093.65-.371.915-1.42 1.352-2.865 2.718-4.285 4.11z" fill="#fff"/><path d="M115.425 145.975c-.159-5.728-.305-11.455-.465-17.182l-.199-6.603-.278-5.687c-.053-1.101-.08-2.201-.12-3.301-.371-5.582-.583-11.19-1.18-16.758-.451-4.27-2.189-7.716-5.797-10.13-2.136-1.431-4.497-2.306-6.965-2.956-1.844-.49-3.714-.716-5.585-1.047-2.03-.173-4.046-.371-6.088-.371-.531 0-.85-.173-1.141-.597a32.376 32.376 0 0 0-1.87-2.4c-.16-.185-.306-.305-.32-.556-.105-2.984-.225-5.966-.344-8.936-.013-.226-.026-.424.16-.61 1.697-1.604 2.44-3.699 2.997-5.873.12-.451.305-.623.77-.716 2.082-.398 4.032-1.127 5.664-2.559 2.295-2.002 2.826-4.892 1.42-7.623-1.168-2.267-3.542-3.209-6.487-2.493-.584.146-.796-.026-1.048-.49-1.473-2.745-3.21-5.33-5.532-7.451-1.035-.941-2.15-1.777-3.489-2.24-1.738-.597-3.144.437-3.144 2.253 0 .16.106.332-.066.504-.212-.16-.425-.318-.637-.477-2.826-2.016-5.863-3.62-9.233-4.508-1.724-.45-3.316.026-4.139 1.18-.875 1.22-.849 3.05.08 4.494.424.663.968 1.207 1.592 1.67.265.2.371.306.106.637-.889 1.1-.703 2.373.411 3.262.663.53 1.433.901 2.242 1.087.637.146.57.384.358.848a12.354 12.354 0 0 0-.928 3.302c-.2 1.458-.398 2.93-.584 4.401-.345 2.81-.703 5.608-.597 8.445.132 3.434 1.804 5.661 4.908 6.497.915.252 1.857.41 2.813.437.238 0 .49-.026.49.345.027 1.949.053 3.884.093 5.833 0 .146.027.358-.212.305-.464-.08-.663.252-.902.544-.517.636-1.048 1.26-1.552 1.896-.212.265-.438.37-.783.384-2.52.066-5.028.212-7.535.49-3.316.372-6.606.902-9.75 2.095-4.245 1.591-7.07 4.468-8.158 8.95-.398 1.643-.584 3.3-.743 4.971-.412 4.534-.504 9.082-.465 13.629 0 .186.067.398-.092.597-.2-.212-.186-.491-.24-.73-.848-4.308-1.684-8.617-2.52-12.926-.464-2.426-.995-4.852-1.313-7.292-.504-3.87-.239-7.756.04-11.64.12-1.644.345-3.301.053-4.958-.106-.65-.305-1.273-1.075-1.432-.835-.173-1.512.119-1.976.875-.438.702-.703 1.471-.929 2.254-.345 1.206-.65 2.426-1.035 3.632-.252.822-.73 1.498-1.512 1.936-.45.252-.73.225-.955-.318-.65-1.472-1.207-2.983-1.79-4.481-.876-2.241-1.712-4.495-2.906-6.59-.411-.729-.875-1.431-1.579-1.935-.636-.451-1.353-.411-1.95.08-.53.424-.69 1.007-.703 1.643-.026 1.008.24 1.962.531 2.917.08.252.758 2.494.758 2.494s-.811-1.87-.85-1.937c-.717-1.114-1.367-2.294-2.362-3.182-1.18-1.034-2.826-.544-3.237.968-.106.398-.265.504-.65.53-1.287.133-1.884.676-2.056 1.91-.053.397-.266.37-.53.37-1.314.027-1.964.822-1.725 2.135.172.954.544 1.856.915 2.757 1.658 4.084 3.582 8.061 5.147 12.184 1.486 3.898 2.932 7.796 3.927 11.853.889 2.678 1.459 5.436 2.122 8.18.345 1.458.677 2.917 1.022 4.375.888 3.394 1.698 6.801 2.693 10.169 1.154 3.831 2.387 7.623 4.284 11.163 1.274 2.373 2.826 4.494 5.346 5.687.61.292 1.274.504 1.91.743 1.699.345 3.41.451 5.134.159 3.396-.583 6.355-2.068 9.021-4.203.146-.119.239-.331.597-.225v5.528c0 .385.027.809.544.822.53 0 .544-.411.53-.808-.106-8.366-.198-16.732-.305-25.097 0-.146-.066-.372.093-.425.65-.212.518-.742.518-1.219 0-3.805 0-7.597.013-11.402 0-.225-.133-.504.239-.663 1.724-.689 2.135-1.299 2.135-3.129 0-6.23.014-12.462-.013-18.693 0-.597.186-.77.73-.849 3.489-.504 6.977-.755 10.493-.888.358-.013.557.12.77.384 1.843 2.427 3.7 4.84 5.558 7.266.517.676.928.623 1.286-.173.332-.716.637-1.458.969-2.174.12-.252.132-.583.45-.742.12.291.067.556.067.808V104.69c0 .371.173.61.544.597.385 0 .53-.266.53-.624v-.53-16.174c0-.2-.105-.438.12-.65.796 1.246 1.565 2.466 2.348 3.699.57.901.929.888 1.433-.013 1.38-2.466 2.785-4.919 4.139-7.398.278-.504.597-.65 1.154-.61 2.056.12 4.099.252 6.142.477.557.067.716.212.716.796-.026 6.788-.013 13.563-.013 20.35 0 1.035.318 2.002 1.26 2.374 1.048.411 1.101 1.113 1.101 1.975 0 .331.027.663.04.994.172 3.288.331 6.576.49 9.864.014.252 0 .597.266.61.73.053.57.57.597.994.013.265-.013.531 0 .796.199 3.566.424 7.146.623 10.712.239 4.415.451 8.817.677 13.231.013.358.026.743.478.836.437.079.57-.252.689-.57-.225-1.923-.225-3.858-.371-5.794-.053-.676-.066-1.366-.093-2.042-.265-5.025-.531-10.036-.822-15.061-.04-.663.145-.689.716-.57 3.131.623 6.288.915 9.458.318.664-.225 1.34-.424 1.99-.702.531-.226.65-.067.663.451.04 2.028.12 4.056.186 6.098l.478 16.877c0 .159-.014.305-.014.464.093.305.252.557.624.531.345-.027.451-.279.531-.557-.014-.159-.04-.318-.04-.464zM44.6 101.216c.172-2.492.344-4.971 1.06-7.397 1.102-3.752 3.636-6.112 7.204-7.478.053-.026.133-.013.239-.013v18.216c0 .835.239 1.565.862 2.148.186.186.279.371.279.636-.014 4.349 0 8.697 0 13.072-1.035-.45-2.255-.702-3.49-.875a35.4 35.4 0 0 0-5.677-.357c-.49.013-.623-.12-.637-.61-.238-5.781-.252-11.561.16-17.342zm9.484 38.223c-3.01 2.625-6.407 4.375-10.44 4.706-.106.013-.225.013-.331.027h-.73c-.12 0-.239-.014-.358-.014-.093 0-.172-.013-.252-.026-.08-.013-.172-.013-.252-.027l-.239-.039c-.053 0-.093-.014-.146-.027-.08-.013-.146-.026-.225-.04-.04-.013-.08-.013-.12-.026a2.165 2.165 0 0 0-.146-.04c-.04-.013-.08-.013-.119-.026-.08-.027-.172-.04-.252-.067l-.252-.079c-.053-.014-.106-.04-.172-.053a9.427 9.427 0 0 1-.584-.133 2.173 2.173 0 0 1-.279-.093c-.066-.026-.132-.053-.199-.066-.066-.013-.132-.053-.199-.08-.04-.013-.08-.026-.12-.053h-.012c-.053-.026-.12-.053-.173-.079-.066-.04-.146-.066-.212-.106-.066-.04-.133-.066-.2-.106a1.16 1.16 0 0 1-.211-.133c-.067-.04-.133-.079-.186-.119-.053-.04-.106-.066-.16-.106l-.119-.08a3.668 3.668 0 0 1-.278-.212 10.873 10.873 0 0 1-.995-.888c-1.566-1.578-2.574-3.513-3.462-5.515-2.123-4.773-3.503-9.785-4.79-14.823-.291-1.153-.702-2.28-.782-3.473-.504-1.114-.65-2.32-.929-3.487-1.419-5.9-2.852-11.786-4.895-17.514-1.897-5.33-4.178-10.486-6.433-15.67-.478-1.087-.982-2.174-1.168-3.368-.12-.702.252-1.007.915-.848.292.066.359.305.465.517 1.499 2.784 2.985 5.555 4.47 8.339l.12.239c.186.358.45.583.849.358.371-.213.305-.544.12-.862-.226-.411-.439-.822-.65-1.233-1.248-2.32-2.482-4.627-3.729-6.934-.344-.636-.344-1.313-.291-1.989.04-.45.424-.636.849-.702.45-.067.835-.053 1.1.464 1.54 2.903 3.105 5.793 4.657 8.697.026.053.066.12.093.172.172.371.424.69.862.438.398-.226.292-.584.106-.928-.676-1.26-1.353-2.533-2.03-3.792l-2.825-5.25c-.199-.358-.318-.73-.186-1.14.239-.716.929-.928 1.5-.438.517.438.901.968 1.246 1.538 1.592 2.572 3.17 5.144 4.75 7.73.066.105.132.225.212.344.185.292.424.464.769.292.345-.186.332-.49.212-.796-.45-1.127-.915-2.253-1.366-3.367-.663-1.63-1.34-3.262-1.83-4.959-.147-.503-.266-1.034-.28-1.564-.013-.49-.04-1.047.531-1.233.53-.172.796.305 1.048.65.836 1.127 1.38 2.4 1.95 3.672 1.26 2.837 2.176 5.834 3.516 8.644.185.385-.053.45-.266.584-1.976 1.22-3.17 2.97-3.568 5.25a8.065 8.065 0 0 0 .08 3.036c.08.384.238.702.69.623.477-.08.45-.451.384-.836-.49-2.585.146-4.812 2.176-6.562.676-.584 1.472-.995 2.281-1.326 1.579-.636 2.309-1.896 2.76-3.42.41-1.445.69-2.93 1.3-4.31.212-.477.344-1.232 1.034-1.086.663.132.438.888.451 1.365.053 2.188-.199 4.362-.318 6.55-.2 3.672-.292 7.344.398 10.964 1.671 8.71 3.276 17.434 5.134 26.104.45 2.135.968 4.256 1.525 6.364.053.186.12.385.173.57.106.358.318.61.716.477.398-.132.411-.437.318-.808-.371-1.406-.742-2.811-1.087-4.229-.173-.73-.305-1.472-.465-2.201-.08-.358.027-.504.438-.504 2.454.066 4.908.146 7.31.663.04.013.079.013.132.026 1.884.464 1.977.57 2.003 2.493.067 4.918.12 9.85.2 14.769.012.504-.133.862-.532 1.22zm24.37-53.535c-.664 1.431-1.274 2.89-1.937 4.428-1.446-1.883-2.84-3.673-4.206-5.489-.37-.477-1.048-.928-.981-1.485.066-.504.676-.941 1.048-1.405.053-.066.12-.133.159-.212.279-.464.53-.53 1.008-.146 1.526 1.206 3.091 2.347 4.656 3.5.332.225.425.411.253.809zm1.233-1.75c-.331.318-.53.305-.875.04-1.3-.995-2.6-1.99-3.927-2.944-.358-.265-.504-.53-.504-.98-.027-2.347-.08-4.68-.12-7.027-.013-.783-.119-.862-.888-.889-1.513-.04-2.998-.185-4.378-.888-1.618-.822-2.573-2.108-2.826-3.911-.318-2.32-.066-4.627.186-6.934.266-2.347.57-4.693.902-7.027.16-1.14.504-2.24 1.008-3.274 1.274-2.612 3.476-3.686 6.275-3.752h.743c2.162.146 4.417.504 6.513 1.551 1.751.875 3.105 2.095 3.476 4.136.106.544.557.623.995.226 1.645-1.551 3.595-2.188 5.824-1.989 1.14.106 2.056.637 2.706 1.591 1.538 2.214 1.207 4.985-.836 6.761-1.618 1.406-3.569 2.095-5.651 2.413-.663.107-.942.358-1.061 1.008a14.159 14.159 0 0 1-1.473 4.097c-.305.543-.61 1.113-1.114 1.471-.637.464-.756 1.034-.717 1.764.16 3.181.253 6.35.398 9.532.014.384-.093.65-.371.915-1.42 1.352-2.865 2.718-4.285 4.11zm6.301.65c-.955 1.71-1.923 3.42-2.958 5.263a585.505 585.505 0 0 0-2.812-4.402c-.173-.265-.106-.424.106-.623a779.525 779.525 0 0 0 4.789-4.587c.252-.239.398-.212.544.066.013.013.026.04.04.053.49.676 1.3 1.313 1.392 2.042.093.729-.69 1.458-1.1 2.187zm27.022 36.604c-2.308 1.034-4.722 1.233-7.203 1.047-1.539-.106-3.064-.397-4.59-.662-.384-.067-.491-.252-.504-.624-.225-4.52-.451-9.041-.703-13.562-.026-.385.066-.637.372-.902.689-.583.888-1.379.875-2.267-.013-3.911 0-7.822 0-11.733v-7.292c0-.729 0-.729.73-.49a20.83 20.83 0 0 1 4.046 1.803c3.648 2.16 5.598 5.37 6.049 9.572.557 5.276.875 10.566 1.114 15.856.12 2.784.239 5.555.385 8.339.013.504-.146.729-.571.915z" fill="#281E34"/><path d="M39.93 144.914c-.637-.252-1.287-.451-1.91-.743-2.52-1.193-4.086-3.314-5.347-5.687-1.897-3.54-3.13-7.332-4.284-11.163-1.008-3.355-1.804-6.775-2.693-10.169-2.083-.411-4.166-.411-6.222.172-2.388.676-4.417 1.949-6.208 3.633-1.632 1.524-2.879 3.328-4.033 5.21-.928 1.83-1.764 3.699-2.335 5.688-1.313 4.521-1.605 9.108-1.048 13.775.08.609.24.861.916.848 5.346-.026 10.692-.013 16.038-.013.849 0 .889 0 .796-.875-.504-4.72-1.008-9.44-1.526-14.16a79.714 79.714 0 0 1-.239-2.505c-.026-.318.093-.57.451-.623.359-.04.518.172.571.503.04.239.08.478.106.716.252 2.307.49 4.614.743 6.908.332 3.075.677 6.138.968 9.214.053.623.226.809.863.809 4.311-.027 8.622-.014 12.934-.014 1.485.027 1.485.027 1.459-1.524zm-25.51-1.26c-.318.265-.623.146-.862-.132-.743-.902-1.473-1.803-2.216-2.705-.199-.239-.291-.504-.119-.795.093-.16.239-.252.49-.252.2.013.386.159.545.358.716.888 1.446 1.776 2.162 2.651.239.292.305.597 0 .875z" fill="#02DAA0"/><path d="M25.696 117.152c-2.083-.411-4.165-.411-6.221.173-2.388.676-4.418 1.948-6.209 3.632-1.631 1.525-2.878 3.328-4.033 5.21-3.82 0-7.64.053-11.461-.026-2.454-.053-4.935-.172-7.296-1.021-1.473-.53-2.76-1.299-3.263-2.917-.597-1.922.08-3.95 1.684-5.17 1.446-1.101 3.131-1.618 4.869-1.936a25.546 25.546 0 0 1 4.139-.451c.557-.013.835.173 1.087.624a4.951 4.951 0 0 0 5.32 2.492c3.621-.703 5.333-4.799 3.237-7.849-.345-.503-.438-.822.026-1.352 1.658-1.869 3.688-3.115 6.05-3.845 2.812-.861 5.637-.888 8.476-.185.146.04.305.04.464.053.89 2.678 1.46 5.435 2.123 8.18.345 1.471.677 2.93 1.008 4.388z" fill="#FDE058"/><path d="M114.337 146.001c0 .159-.014.305-.014.464h-11.541c-.212 0-.437-.027-.65-.04-.225-1.922-.225-3.858-.371-5.793-.053-.677-.067-1.366-.093-2.042.066-.305.159-.597.212-.902.624-3.566 1.857-6.881 3.993-9.837 1.38-1.909 3.131-3.394 5.16-4.574.664-.225 1.34-.424 1.99-.703.531-.225.65-.066.664.451.039 2.029.119 4.057.185 6.099.133 5.621.305 11.242.465 16.877z" fill="#02DAA0"/><path d="M7.416 112.75a4.02 4.02 0 0 1-2.785 3.845c-1.632.53-3.503-.053-4.484-1.405-.12-.159-.279-.332-.173-.531.093-.185.319-.106.478-.106 1.18.067 2.374.133 3.555.239.53.053.73-.119.81-.663.185-1.273.689-2.453 1.3-3.58.225-.397.41-.304.61.014.424.689.69 1.392.69 2.187z" fill="#FDE058"/><path d="M109.867 37.632c-1.3-.026-2.587 1.087-2.428 2.453-.172 1.405 1.154 2.426 2.388 2.413 1.552-.013 2.388-1.14 2.401-2.44 0-1.312-1.035-2.4-2.361-2.426zm-.014 3.726c-.769.013-1.326-.504-1.339-1.233-.014-.716.61-1.392 1.3-1.406.663-.013 1.353.677 1.353 1.366-.014.73-.557 1.26-1.314 1.273z" fill="#FAA0E0"/><path d="M44.255 77.936c-.106.835-.239 1.657-.358 2.479a700.49 700.49 0 0 1-.318 2.081c-.053.345-.133.69-.597.597-.385-.08-.53-.358-.465-.742.24-1.525.478-3.037.69-4.561.053-.371.2-.597.584-.53.371.066.517.318.464.676zM13.545 89.47c0 .291-.133.437-.319.517-.252.106-.504.08-.65-.16a413.604 413.604 0 0 1-2.44-4.083c-.16-.265-.054-.517.212-.676.305-.185.57-.093.73.186a391.213 391.213 0 0 1 2.374 3.964c.053.093.066.199.093.252z" fill="#281E34"/><path d="M39.996 56.489c-.027.212-.173.344-.359.41-.238.08-.504.067-.663-.159a105.78 105.78 0 0 1-1.95-2.81c-.16-.239-.013-.477.212-.623.292-.186.57-.093.756.159.505.69.995 1.392 1.473 2.095.199.304.504.53.53.928zM44.043 57.615c-.345.252-.664.159-.902-.186-.597-.835-1.168-1.697-1.765-2.532-.133-.186-.146-.345-.04-.544.12-.225.332-.278.491-.318.358.013.518.239.663.45.544.77 1.062 1.565 1.606 2.321.199.292.265.57-.053.809z" fill="#FAA0E0"/><path d="M145.113 145.113c-.478 0-.664-.477-.359-.994.637-1.061 1.3-2.108 1.937-3.155.915-1.485 1.818-2.983 2.72-4.468.066-.12.145-.226.212-.332.199-.305.451-.543.822-.331.398.238.305.583.106.915l-3.462 5.647c-.477.769-.955 1.538-1.419 2.307-.133.212-.279.398-.557.411z" fill="#FCFCFC"/><path d="M136.041 133.3c-.014.332-.16.517-.425.57-.292.067-.504-.053-.637-.331-.384-.835-.769-1.671-1.154-2.519a319.484 319.484 0 0 0-1.446-3.182c-.159-.345-.185-.663.199-.849.398-.185.677.027.849.385.849 1.856 1.685 3.725 2.521 5.581.04.146.066.266.093.345zM119.948 137.61c-.398 0-.703-.372-.517-.716a57.916 57.916 0 0 1 1.645-2.785c.172-.278.477-.318.756-.145.278.159.318.464.199.702a73.447 73.447 0 0 1-1.658 2.771c-.08.133-.266.173-.425.173z" fill="#FDE058"/><path d="M40.181 142.527c-.013.398-.08.796-.119 1.18a8.745 8.745 0 0 1-.584-.132c-.093-.027-.185-.053-.278-.093-.067-.026-.133-.053-.2-.066-.066-.014-.132-.053-.198-.08-.04-.013-.08-.026-.12-.053h-.013c-.053-.026-.12-.053-.172-.079-.067-.04-.146-.067-.212-.106-.067-.04-.133-.067-.2-.106-.08-.04-.145-.08-.212-.133-.066-.04-.132-.08-.185-.119-.053-.04-.107-.067-.16-.106l-.12-.08a3.949 3.949 0 0 1-.278-.212 10.882 10.882 0 0 1-.995-.888c-1.565-1.578-2.573-3.514-3.462-5.516-2.122-4.772-3.502-9.784-4.789-14.822-.292-1.153-.703-2.28-.782-3.473 1.75.45 3.223 1.431 4.576 2.572 3.529 2.943 5.665 6.774 7.044 11.07 1.154 3.646 1.592 7.411 1.46 11.242z" fill="#02DAA0"/><path d="M11.714 139.771c.2.013.385.159.544.358.716.888 1.446 1.776 2.162 2.664.24.292.319.597 0 .875-.318.266-.623.146-.862-.145-.743-.902-1.486-1.803-2.215-2.705-.2-.239-.292-.504-.12-.795.08-.16.226-.266.491-.252z" fill="#FDE058"/><path d="M71.86 58.036c-.371 1.3-.318 2.532.451 3.686.212.331.305.676-.106.915-.398.225-.65-.053-.849-.372-.53-.848-.836-1.75-.796-2.651-.026-1.63.557-2.996 1.22-4.322.452-.902.995-1.777 1.5-2.652.198-.358.437-.755.915-.477.49.278.239.676.026 1.02-.928 1.539-1.857 3.09-2.36 4.853zM92.475 53.806c.027.332-.159.53-.504.57-1.897.2-2.984 1.433-3.847 2.97-.106.2-.172.411-.411.49-.424.147-.77-.198-.69-.675.305-1.618 3.051-3.858 4.909-3.858.185 0 .517.066.543.504zM80.271 63.511a3.189 3.189 0 0 1-3.157 3.103c-.371 0-.77-.053-.782-.517-.027-.478.318-.597.756-.61 1.26-.04 2.096-.862 2.109-2.068 0-.438-.04-.889.57-.889.398 0 .518.279.504.981zM82.433 50.956c-.013.345-.212.517-.557.517-.663 0-1.38-.398-1.366-.795.026-.345.239-.504.57-.517.677-.014 1.38.397 1.353.795zM71.967 50.068c-.04.663-.65.504-1.048.623-.371.014-.623-.132-.61-.517.013-.689.597-.57 1.022-.636.397-.08.663.133.636.53zM82.048 53.965c-.027.425-.239.677-.65.677-.411.013-.677-.239-.677-.637-.013-.398.226-.663.65-.663.412-.013.637.226.677.623zM71.012 53.766c-.026.438-.278.677-.676.663-.412-.013-.65-.265-.65-.676 0-.41.252-.65.676-.636.425 0 .61.265.65.65z" fill="#281E34"/><path d="M8.494 25.796L33.918 42.96l5.589-7.82-31.013-9.345z" fill="#7D59CA"/><path d="M43.854 29.059l-35.36-3.263 31.013 9.345 4.347-6.082z" fill="#7D59CA"/><path d="M8.494 25.796l35.36 3.263-4.347 6.082M8.494 25.796L33.918 42.96l5.589-7.82M8.494 25.796l31.013 9.345" stroke="#FA9BE1" stroke-width="1.5" stroke-linejoin="round"/><path d="M27.7 44.918L8.493 25.796l21.948 14.68-2.743 4.442z" fill="#FA9BE1"/></g><defs><clipPath id="a"><rect width="148" height="148" rx="24" fill="#fff"/></clipPath></defs></svg>