<svg width="148" height="148" viewBox="0 0 148 148" fill="none" xmlns="http://www.w3.org/2000/svg"><g clip-path="url(#a)"><rect width="148" height="148" rx="24" fill="#7E5EC4"/><g clip-path="url(#b)"><path fill="#FA9BE1" d="M67.828 42h65v59h-65z"/><path d="M137.797 38.103c0-.622-.153-.806-.778-.806-24.316.014-48.647.014-72.964.014-.93 0-.93 0-.93.962v57.04c0 .27.083.566-.125.82 3.694 3.168 5.305 7.537 6.707 12.034 1.362 4.369 2.93 8.654 4.625 12.91.375.028.736.07 1.111.07 10.93 0 21.845 0 32.774.029.68 0 .972-.226 1.208-.849 1.208-3.139 3-5.924 5.277-8.371a26.704 26.704 0 0 1 8.541-6.122 24.536 24.536 0 0 1 7.11-2.022c2.194-.269 4.416-.424 6.624-.029.611.114.834-.098.834-.777-.028-21.649-.028-43.269-.014-64.903zm-31.802 73.062c-.25.155-.528.127-.805.127H76.457c-.111 0-.236.014-.347 0-.417-.057-.82-.156-.806-.679.014-.537.417-.594.847-.594h29.15c.18 0 .375-.014.555.029.278.056.431.254.472.537.028.269-.125.438-.333.58zm27.4-11.03c0 1.287-.056 1.33-1.348 1.33H68.818c-1.235 0-1.277-.057-1.277-1.33v-57.45c0-1.061.125-1.189 1.139-1.189h63.576c1.041 0 1.139.114 1.139 1.188v57.451z" fill="#FCDF5A"/><path d="M137.798 105.82v13.348c0 1.979 0 1.979-1.916 1.979h-24.484c-.958 0-1.041-.098-.625-1.003 2.264-5.063 5.694-9.078 10.444-11.878 3.527-2.079 7.304-3.281 11.415-3.45 1.528-.057 3.041.028 4.555.155.611.057.611.396.611.849z" fill="#FCDF5A"/><path d="M129.423 30.114c-.014 1.23-.903 2.22-2.278 2.234-1.236.014-2.18-1.06-2.166-2.347.014-1.16 1.083-2.334 2.208-2.249 1.138.071 2.236.764 2.236 2.362z" fill="#FA9BE1"/><path d="M137.505 30.113c-.014 1.273-1.028 2.263-2.278 2.235-1.111-.029-2.194-1.174-2.18-2.32a2.269 2.269 0 0 1 2.305-2.233c1.292.028 2.167.961 2.153 2.318z" fill="#FCDF5A"/><path d="M119.077 32.348c-1.222.029-2.097-1.046-2.181-2.333-.083-1.202 1.181-2.234 2.222-2.192 1.306.043 2.153.92 2.139 2.305.125 1.033-.819 2.192-2.18 2.22z" fill="#FA9BE1"/><path d="M132.256 41.496H68.68c-1.014 0-1.139.142-1.139 1.188v57.451c0 1.273.056 1.329 1.278 1.329h63.228c1.292 0 1.347-.056 1.347-1.329V42.684c0-1.075-.111-1.188-1.138-1.188zm-.861 58.766c-20.623-.014-41.232-.014-61.854 0-.667 0-.833-.169-.833-.848.013-18.609.013-37.217 0-55.84 0-.72.166-.89.874-.89 10.319.028 20.637.014 30.955.014 10.305 0 20.595 0 30.885-.014.639 0 .792.17.792.82-.014 18.637-.014 37.273 0 55.91.014.664-.139.848-.819.848zM90.859 110.02h14.429c.18 0 .375-.014.555.028.278.057.431.255.472.537.028.269-.111.439-.319.58-.25.156-.528.127-.806.127H76.458c-.111 0-.236.015-.347 0-.417-.056-.82-.155-.806-.678.014-.538.417-.594.847-.594H90.86z" fill="#8D4BE2"/><path d="M110.049 70.159c-1.902 1.781-4.221 2.672-6.693 3.181-1.014.212-2.056.353-3.097.34-.528 0-.583.211-.57.664.084 2.8.126 5.6.181 8.4 0 .31.056.621-.278.805-.444.255-.847-.056-.86-.707-.015-1.598 0-3.195 0-4.808h-.195V73.44c0-.75.139-.92.875-.92 2.624-.013 5.166-.452 7.527-1.625 3.416-1.697 5.027-4.822 4.666-8.668-.375-3.945-2.431-6.618-5.847-8.286-2.666-1.301-5.541-1.782-8.471-1.895-.222-.014-.472-.014-.68-.085-.25-.085-.306-.34-.264-.594.07-.381.333-.48.666-.466a23.63 23.63 0 0 1 4.68.537c3.055.665 5.875 1.796 8.166 4.058 3.652 3.663 4.083 11.015.194 14.664zM100.01 86.971c-.055.438-.278.693-.722.679-.416-.014-.694-.255-.694-.693 0-.467.291-.735.75-.721.43.028.652.311.666.735z" fill="#200F09"/><path d="M86.242 121.148s3.139 8.399 3.805 12.867c.209 1.4.236 2.814-.25 4.186-.583 1.626-1.708 2.644-3.319 3.153-1.694.523-3.43.537-5.152.226-4.694-.848-9.304-2.022-13.86-3.478a4.145 4.145 0 0 1-.5-.198c-.069-.226.112-.255.209-.325 3.472-2.376 6.832-4.921 10.166-7.509.5-.381.638-.735.472-1.371a4459.582 4459.582 0 0 1-4.736-18.283c-.07-.269-.153-.524.18-.722.973-.537 3.242-2.194 3.242-2.194l5-.5 1.5 4 3.243 10.148zM66.44 63.966v.028h.027s.014 0 .028-.014c0 0 .014 0 .014-.014h-.07z" fill="#FEFEFE"/><path d="M66.44 63.966v.028H66.468s.014 0 .028-.014c0 0 .014 0 .014-.014h-.07zm24.872 71.492c-.097-2.63-.736-5.147-1.527-7.635-.723-2.263-1.5-4.497-2.25-6.745-1.694-4.242-3.264-8.541-4.625-12.91-1.402-4.482-3-8.866-6.707-12.033-.32-.014-.459-.297-.667-.467-2.75-1.965-5.874-2.814-9.151-3.21-1.667-.198-1.695-.155-2.098-1.852-.097-.41-.416-.75-.277-1.258a197.31 197.31 0 0 0 1.305-5.133c.097-.396.292-.51.667-.566a11.335 11.335 0 0 0 3.194-.905c1.93-.862 3.347-2.248 3.93-4.383.444-1.655.264-3.323.028-4.978-.417-2.842-1.111-5.613-1.778-8.399-.07-.31-.055-.495.195-.721.694-.65 1.013-1.499 1.027-2.46 0-.453.042-.976-.597-.99-.653-.014-.514.523-.541.933-.014.142-.014.283-.042.424-.222 1.4-1.514 2.15-2.805 1.612-.723-.297-1.264-.82-1.472-1.583-.209-.722-.57-.948-1.278-.764-.68.184-1.306.198-1.68-.608-.153-.325-.486-.353-.778-.17-.264.17-.334.439-.18.736.041.099.096.197.221.438-1.666-.297-2 .693-2.027 1.98 0 .042-.028.084-.042.14-.597 1.896-2.486 2.603-4.027 1.471a3.78 3.78 0 0 1-1.236-1.498c-.125-.283-.222-.566-.347-.849-.139-.34-.417-.466-.736-.325-.32.127-.445.396-.32.75.111.31.223.622.361.919.848 1.81 2.542 2.884 4.264 2.672 1.736-.212 2.874-1.442 3.305-3.577.042-.24.014-.566.403-.524.486.043 1.027-.452 1.458.156.861 1.202 1.653 2.446 2.139 3.86.416 1.174.444 2.347-.14 3.493-.194.382-.36.778.126 1.018.527.254.722-.156.916-.566 1.014-2.149.43-4.129-.597-6.066-.145-.282-.378-.538-.46-.89a1.292 1.292 0 0 1-.012-.057h-.056c-.013 0-.027-.014-.027-.014l-.014-.014c-.014-.015-.028-.029-.028-.043-.236-.34-.458-.693-.68-1.06-.126-.213.055-.213.194-.227.18.014.86 1.146.764 1.287-.014.028-.042.043-.056.057.084 0 .139 0 .167.028.903.792 1.93 1.258 3.152 1.117.327-.041.373.161.427.395l.004.015c.264 1.103.541 2.192.791 3.295.57 2.545 1.167 5.104 1.139 7.734-.014 2.065-.93 3.648-2.666 4.723-1.25.764-2.639 1.131-4.07 1.301-.694.085-1.013.368-1.194 1.089-1.263 5.373-2.652 10.718-4.916 15.78-.43.976-.791 1.98-1.222 3.04-.11-.169-.166-.24-.208-.325-2.041-4.171-4.083-8.343-6.138-12.5-.153-.31-.14-.58-.056-.876.68-2.758 1.333-5.53 2.028-8.287.125-.495.027-.82-.403-1.06-.556-.311-.986-.778-1.375-1.287-1.11-1.414-1.86-3.04-2.402-4.737-.18-.565-.459-.778-1.042-.778-1.82-.042-3.583-.395-5.221-1.244-1.611-.834-2.89-1.965-3.278-3.86-.555-2.644.68-5.133 2.986-5.783 2.277-.637 4.388-.113 6.319 1.23.25.17.43.396.791.31a4.523 4.523 0 0 0 2.416-1.554c.917-1.132 1.542-2.404 1.834-3.832.07-.368.236-.566.555-.722 1.944-.89 3.972-1.54 6.11-1.739 2.93-.283 5.333.636 6.958 3.267.18.282.375.523.07.919-.278.367.013.806.486.82.444.014.874-.029 1.319-.057.278-.014.416-.198.486-.438.083-.255-.042-.552-.25-.594-.639-.113-.722-.707-1.055-1.089-.403-.48-.264-.82.083-1.258 1.153-1.485 1.722-3.196 1.541-5.119-.236-2.588-2.083-4.072-4.596-3.662-1.417.226-2.75.778-4.111 1.244-2.264.778-4.416 1.824-6.5 2.97-1.43.777-2.777 1.81-4.04 2.912-1.056.92-2 1.938-2.875 3.097-.764-1.357-1.847-2.107-3.291-2.333-1.653-.269-3.18.099-4.597.933-2.597 1.541-3.5 4.214-4.264 6.9-.43 1.514-.569 3.125-.874 4.68a15.87 15.87 0 0 1-1.375 4.06c-.736 1.47-1.514 2.926-2.083 4.467-1.167 3.154-.236 6.151 3.027 7.198 2.93.947 6.43-.439 8-3.14 1.18-2.05 1.319-4.27 1.166-6.56-.042-.51-.39-1.202-.07-1.471.306-.269.917.24 1.417.283.416.028.625.212.764.636.374 1.117.986 2.15 1.986 2.73 1.471.847 2.666 1.95 3.805 3.18.25.283.374.467.277.835-.569 2.276-1.11 4.567-1.666 6.844-.042.198-.084.382-.278.537a53.677 53.677 0 0 0-2.541 2.192c-.459.438-.945.58-1.556.594-3.458.042-6.888.325-10.207 1.4-5.624 1.838-9.346 5.556-10.887 11.425a26.325 26.325 0 0 0-.848 6.49c-.013 3.351.292 6.688.486 10.011.348 5.614.695 11.241 1.167 16.841.25 3.097.528 6.193.792 9.29.07.071.083.141.027.226.028.255.07.509.098.764.027.07.055.141.083.226.028.071.056.156.083.226.042 0-.027.646-.013.688.861-.085 1.027-.787.944-1.663-.125-1.216-.292-2.418-.39-3.634a548.677 548.677 0 0 1-.638-8.23c-.3-4.181-.587-8.374-.874-12.557l-.056-.819-.334-5.218c-.194-3.38-.43-6.759.084-10.153C27 99.486 30.944 94.975 37.47 93.207c3-.805 6.055-1.031 9.138-1.116.597-.014.889.141 1.139.707 2.416 5.345 4.874 10.661 7.318 15.992.14.297.25.636.653.636.403.015.528-.311.667-.608.569-1.159 1.138-2.304 1.694-3.478.18-.382.32-.424.639-.113.958.919 1.944 1.81 2.916 2.729.25.226.5.452.861.297.333-.142.347-.467.389-.778l.416-3.012c.487-3.492.959-7 1.43-10.492.056-.424.195-.58.668-.523 1.5.184 2.985.396 4.43.778 2.416.65 4.666 1.654 6.457 3.52 1.583 1.4 2.583 3.211 3.458 5.105.458.99.889 2.008 1.208 3.125-1.666-.07-3.18.41-4.707.82-1 .524-2.098.877-3.042 1.513-.528.354-.694.198-.778-.367-.069-.424-.208-.905-.777-.764-.625.156-.43.651-.32 1.089.89 3.408 1.75 6.83 2.653 10.237.11.425.041.594-.375.75a574.672 574.672 0 0 0-8.25 3.125c-.319.127-.596.127-.93.028-5.443-1.753-10.887-3.507-16.442-4.864-.361-.085-.528-.311-.695-.608a3713.77 3713.77 0 0 0-6.97-12.698c-.195-.353-.376-.707-.598-1.032-.18-.269-.472-.325-.736-.142-.25.17-.361.425-.208.736.097.183.194.367.291.565l.003.005c.526.974 1.053 1.948 1.567 2.894-5.486.481-9.166 3.889-12.693 7.65-.223-.382-.431-.75-.64-1.103-.194-.325-.471-.481-.819-.283-.333.198-.36.523-.166.863.055.099.11.212.166.311 1.153 2.05 2.278 4.1 3.444 6.151l.002.001c2.443 4.298 4.887 8.596 7.359 12.866 1.888 3.266 3.805 6.519 5.93 9.629 1.027 1.513 2.388 2.56 4.207 2.857 1.75.297 3.444-.014 5.11-.58 1.987-.679 3.875-1.612 5.695-2.672 2.097-1.231 4.208-2.404 6.263-3.719.778-.495 1.444-.665 2.208-.17.444.283.944.297 1.416.424 1.82.523 3.639 1.061 5.472 1.541.458.114.583.34.611.764.111 1.456.25 2.913.389 4.355.04.418-.05 2.322.496 2.413a.243.243 0 0 0 .085 0c.597-.085.6-2.102.558-2.526-.125-1.315-.236-2.63-.375-3.945-.056-.495.028-.65.57-.523 2.04.509 4.096 1.004 6.193 1.23 1.597.17 3.18.113 4.75-.41 3.235-1.032 4.554-3.719 4.443-6.929zm-33.885-31.263a670.014 670.014 0 0 0-1.666 3.365c-.834-1.81-1.625-3.507-2.403-5.204-1.569-3.407-3.11-6.83-4.694-10.223-.194-.424-.152-.664.209-.947.444-.34.86-.707 1.25-1.117.347-.368.486-.212.68.155 2.194 4.483 4.388 8.965 6.596 13.447.07.184.14.326.028.524zm6.263-10.79L61.9 106.345c0 .042-.042.071-.125.184l-2.75-2.546c-.18-.155-.11-.325-.041-.509 1.458-3.662 2.916-7.324 4.36-10.986.028-.057.056-.128.111-.24.236.438.292.777.236 1.159zm-4.18 28.705c1.167.368 2.333.735 3.694 1.174-1.486.594-2.763 1.117-4.055 1.64-1.972.792-3.958 1.584-5.93 2.375-.264.099-.527.213-.805.184-2.597-.283-5.166.227-7.75.368-1.04.056-2.082.127-3.11-.042-.139-.029-.278-.029-.403-.085-.305-.113-.666-.227-.666-.623 0-.367.333-.48.61-.579.862-.297 1.764-.368 2.667-.424 2.166-.156 4.347-.128 6.527-.17.208 0 .417 0 .625-.028.333-.057.556-.255.528-.623-.028-.367-.25-.565-.597-.551-.695 0-1.39.042-2.084.057-2.221.042-4.443.014-6.652.325-.555.07-1.083.226-1.61.41-.18.071-.403.452-.611.014-.167-.354-.278-.721.125-1.004.375-.255.805-.353 1.236-.41 1.777-.269 3.555-.17 5.332-.17 1.014 0 2.042 0 3.055-.028.361 0 .653-.17.64-.594-.015-.452-.306-.594-.709-.58-2.389.085-4.763-.099-7.152.057-1.041.071-2.07.184-3.014.721-.152.099-.277.141-.388-.071-.167-.339-.236-.678.083-.961.417-.368.917-.537 1.444-.636 1.736-.368 3.5-.368 5.25-.312.916.029 1.847.099 2.777.17.375.028.722 0 .82-.438.097-.453-.223-.622-.57-.75-2.222-.791-4.444-1.583-6.666-2.389-.264-.099-.5-.227-.75-.34 1.139-.297 2.222-.042 3.292.198 4.999 1.089 9.915 2.574 14.817 4.115zm.736 18.396c-2.486 1.4-4.916 2.927-7.61 3.903-.889.325-1.805.58-2.75.707-2.485.339-4.43-.495-5.86-2.63-2.208-3.323-4.236-6.731-6.222-10.195-2.971-5.175-5.916-10.379-8.86-15.568-.18-.311-.347-.58-.041-.948 2.638-3.195 5.735-5.726 9.72-6.985.306-.099.626-.155.945-.198 1.556-.198 1.806-.056 2.57 1.343 1.069 1.98 2.166 3.946 3.249 5.911.194.368.389.735.653 1.216-1.18-.184-2.222-.353-3.278-.509-.555-.085-1.11-.113-1.666-.028-.542.085-.889.41-1.014.933-.125.551.139.961.611 1.23 1.014.594 2.125.919 3.208 1.301.167.057.361.057.486.283-1.166.085-2.32.099-3.458.297-.805.141-1.583.339-2.277.792-1.167.749-1.292 2.121-.264 3.082.083.085.208.127.18.269-.18 1.131.695 1.951.89 2.983.152.821.985 1.061 1.735 1.202 1.847.34 3.694.099 5.527-.056 1.889-.156 3.777-.453 5.666-.184.361.056.68-.085 1-.212 6.29-2.545 12.582-5.076 18.928-7.466.57-.212 1.14-.382 1.709-.608.305-.127.402-.014.472.268.694 2.687 1.374 5.374 2.083 8.046.083.311-.042.467-.264.651-5.124 4.058-10.36 7.96-16.068 11.17zm29.553-2.305c-.584 1.627-1.709 2.645-3.32 3.154-1.694.537-3.43.537-5.152.226a109.106 109.106 0 0 1-13.86-3.479c-.18-.056-.346-.127-.5-.183-.069-.227.112-.255.21-.326 3.47-2.375 6.832-4.92 10.165-7.508.5-.382.638-.735.472-1.372a4377.25 4377.25 0 0 1-4.736-18.283c-.07-.282-.153-.523.18-.721.973-.537 1.903-1.159 2.987-1.456 1.471-.679 3-1.061 4.624-.99.375.014.625.127.75.551 1.32 4.483 2.972 8.838 4.624 13.193.014.043.014.099.014.142 1.583 4.185 3.139 8.399 3.805 12.867.195 1.4.222 2.814-.263 4.185z" fill="#fff"/><path d="M66.468 63.994h-.002c.082.353.315.61.46.891 1.028 1.937 1.611 3.917.597 6.066-.194.41-.389.82-.916.566-.486-.24-.32-.636-.125-1.018.583-1.145.555-2.32.139-3.493-.486-1.414-1.278-2.658-2.14-3.86-.43-.608-.971-.113-1.457-.156-.39-.042-.361.283-.403.524-.43 2.135-1.57 3.365-3.305 3.577-1.722.212-3.416-.862-4.264-2.672-.138-.297-.25-.608-.36-.92-.126-.353 0-.622.319-.749.32-.141.597-.014.736.325.125.283.222.566.347.849a3.78 3.78 0 0 0 1.236 1.498c1.541 1.132 3.43.425 4.027-1.47.014-.057.042-.099.042-.142.028-1.286.361-2.276 2.027-1.98-.125-.24-.18-.338-.222-.437-.153-.297-.083-.566.18-.736.292-.183.626-.155.778.17.375.806 1 .792 1.68.608.71-.184 1.07.042 1.279.764.208.763.75 1.286 1.472 1.583 1.291.538 2.583-.212 2.805-1.612.028-.141.028-.282.041-.424.028-.41-.11-.947.542-.933l-1.583-.905c-.07.24-.208.424-.486.438-.445.029-.875.07-1.32.057-.472-.014-.763-.453-.486-.82.306-.396.112-.637-.069-.92-1.625-2.63-4.027-3.549-6.957-3.266-2.14.198-4.167.849-6.11 1.74-.32.155-.487.353-.556.72-.292 1.429-.917 2.701-1.834 3.833a4.523 4.523 0 0 1-2.416 1.555c-.36.085-.541-.142-.791-.311-1.93-1.343-4.042-1.867-6.32-1.23-2.304.65-3.54 3.139-2.985 5.783.389 1.895 1.667 3.026 3.278 3.86 1.638.849 3.402 1.202 5.221 1.245.583 0 .861.212 1.042.777.541 1.697 1.291 3.323 2.402 4.737.389.51.82.976 1.375 1.287.43.24.528.566.403 1.06-.695 2.758-1.347 5.53-2.028 8.287-.083.296-.097.565.056.876 2.055 4.157 4.096 8.329 6.138 12.5.042.085.097.156.208.325.43-1.06.792-2.064 1.222-3.04 2.264-5.062 3.653-10.407 4.916-15.78.18-.721.5-1.004 1.195-1.089 1.43-.17 2.819-.537 4.069-1.3 1.736-1.076 2.652-2.66 2.666-4.724.028-2.63-.57-5.19-1.139-7.734-.25-1.103-.527-2.192-.791-3.295l-.004-.015c-.054-.234-.1-.436-.427-.395-1.222.141-2.25-.325-3.152-1.117-.028-.028-.084-.028-.167-.028.014-.014.042-.029.056-.057.097-.141-.584-1.273-.764-1.287-.139.014-.32.014-.195.227.223.367.445.72.68 1.06 0 .014.015.028.029.043l.014.014s.014.014.027.014h.056l.005.028h.05c0 .014-.013.014-.013.014-.014.014-.028.014-.028.014z" fill="#fff"/><path d="M28.167 146.898c.083.876-.083 1.578-.944 1.663h47.865c-.545-.091-.456-1.995-.496-2.413a220.237 220.237 0 0 1-.389-4.355c-.028-.424-.153-.65-.611-.764-1.833-.48-3.652-1.018-5.472-1.541-.472-.127-.972-.141-1.416-.424-.764-.495-1.43-.325-2.208.17-2.055 1.315-4.166 2.488-6.263 3.719-1.82 1.06-3.708 1.993-5.694 2.672-1.667.566-3.36.877-5.11.58-1.82-.297-3.18-1.344-4.209-2.857-2.124-3.11-4.04-6.363-5.93-9.629-2.47-4.27-4.915-8.568-7.358-12.866l-.002-.001c-1.166-2.051-2.291-4.101-3.444-6.151-.055-.099-.11-.212-.166-.311-.195-.34-.167-.665.166-.863.348-.198.625-.042.82.283.208.353.416.721.639 1.103 3.527-3.761 7.207-7.169 12.693-7.65-.514-.946-1.04-1.92-1.567-2.894l-.003-.005a19.584 19.584 0 0 0-.291-.565c-.153-.311-.042-.566.208-.736.264-.183.555-.127.736.142.222.325.403.679.597 1.032a3713.77 3713.77 0 0 1 6.971 12.698c.167.297.334.523.695.608 5.555 1.357 10.999 3.111 16.442 4.864.334.099.611.099.93-.028a574.672 574.672 0 0 1 8.25-3.125c.416-.156.486-.325.375-.75-.903-3.407-1.764-6.829-2.653-10.237-.11-.438-.305-.933.32-1.089.57-.141.708.34.778.764.083.565.25.721.777.367.944-.636 2.042-.989 3.041-1.513 1.528-.41 3.042-.89 4.708-.82-.32-1.117-.75-2.135-1.208-3.125-.875-1.894-1.875-3.704-3.458-5.104-1.791-1.867-4.041-2.87-6.457-3.521-1.445-.382-2.93-.594-4.43-.778-.473-.056-.612.1-.667.523-.472 3.493-.944 7-1.43 10.492l-.417 3.012c-.042.311-.056.636-.389.778-.361.155-.611-.071-.861-.297-.972-.919-1.958-1.81-2.916-2.729-.32-.311-.459-.269-.64.113-.555 1.174-1.124 2.319-1.693 3.478-.14.297-.264.623-.667.608-.403 0-.514-.339-.653-.636-2.444-5.331-4.902-10.647-7.318-15.992-.25-.566-.542-.722-1.139-.707-3.083.085-6.138.31-9.138 1.117-6.527 1.767-10.47 6.278-11.512 13.079-.514 3.394-.278 6.773-.084 10.153l.334 5.218.056.819c.287 4.183.574 8.376.874 12.557.195 2.743.403 5.486.639 8.23.097 1.216.264 2.418.389 3.634z" fill="#fff"/><path d="M43.038 20.875c0-.65-.194-.777-.791-.777-11.152.028-22.303.028-33.455.014-.652 0-.805.198-.791.834.014 3.478.014 6.957.014 10.435v16.262c0 3.676 0 7.352-.014 11.029 0 .551.11.778.708.778 11.193-.015 22.4-.015 33.593 0 .598 0 .736-.199.736-.764-.013-12.599-.013-25.198 0-37.81zm-3 27.05c0 .283 0 .566-.027.849-.028.382-.236.594-.639.594H12.098c-.93 0-1.028-.1-1.028-1.047V24.156c0-1.174.028-1.202 1.153-1.202H38.956c.958 0 1.097.141 1.097 1.089-.014 7.96-.014 15.922-.014 23.882z" fill="#13D6A3"/><path d="M66.44 63.966v.028h.028s.014 0 .028-.014c0 0 .014 0 .014-.014h-.07zm24.872 71.492c-.097-2.63-.736-5.147-1.527-7.635-.723-2.263-1.5-4.497-2.25-6.745-1.694-4.242-3.264-8.541-4.625-12.91-1.402-4.482-3-8.866-6.707-12.033-.32-.014-.459-.297-.667-.467-2.75-1.965-5.874-2.814-9.151-3.21-1.667-.198-1.695-.155-2.098-1.852-.097-.41-.416-.75-.277-1.258a197.31 197.31 0 0 0 1.305-5.133c.097-.396.292-.51.667-.566a11.335 11.335 0 0 0 3.194-.905c1.93-.862 3.347-2.248 3.93-4.383.444-1.655.264-3.323.028-4.978-.417-2.842-1.111-5.613-1.778-8.399-.07-.31-.055-.495.195-.721.694-.65 1.013-1.499 1.027-2.46 0-.453.042-.976-.597-.99-.653-.014-.514.523-.541.933-.014.142-.014.283-.042.424-.222 1.4-1.514 2.15-2.805 1.612-.723-.297-1.264-.82-1.472-1.583-.209-.722-.57-.948-1.278-.764-.68.184-1.306.198-1.68-.608-.153-.325-.486-.353-.778-.17-.264.17-.333.439-.18.736.041.099.096.197.221.438-1.666-.297-2 .693-2.027 1.98 0 .042-.028.084-.042.14-.597 1.896-2.486 2.603-4.027 1.471a3.78 3.78 0 0 1-1.236-1.498c-.125-.283-.222-.566-.347-.849-.139-.34-.417-.466-.736-.325-.32.127-.445.396-.32.75.111.31.223.622.361.919.848 1.81 2.542 2.884 4.264 2.672 1.736-.212 2.874-1.442 3.305-3.577.042-.24.014-.566.403-.524.486.043 1.027-.452 1.458.156.861 1.202 1.653 2.446 2.139 3.86.416 1.174.444 2.347-.14 3.493-.194.382-.36.778.126 1.018.527.254.722-.156.916-.566 1.014-2.149.43-4.129-.597-6.066-.153-.297-.403-.565-.472-.947h-.056c-.013 0-.027-.014-.027-.014l-.014-.014c-.014-.015-.028-.029-.028-.043-.236-.34-.458-.693-.68-1.06-.126-.213.055-.213.194-.227.18.014.86 1.146.764 1.287-.014.028-.042.043-.056.057.084 0 .139 0 .167.028.903.792 1.93 1.258 3.152 1.117.334-.042.375.17.43.41.265 1.103.542 2.192.792 3.295.57 2.545 1.167 5.104 1.14 7.734-.015 2.065-.931 3.648-2.667 4.723-1.25.764-2.639 1.131-4.07 1.301-.694.085-1.013.368-1.194 1.089-1.263 5.373-2.652 10.718-4.916 15.78-.43.976-.791 1.98-1.222 3.04-.11-.169-.166-.24-.208-.325-2.041-4.171-4.083-8.343-6.138-12.5-.153-.31-.14-.58-.056-.876.68-2.758 1.333-5.53 2.028-8.287.125-.495.027-.82-.403-1.06-.556-.311-.986-.778-1.375-1.287-1.11-1.414-1.86-3.04-2.402-4.737-.18-.565-.459-.778-1.042-.778-1.82-.042-3.583-.395-5.221-1.244-1.611-.834-2.89-1.965-3.278-3.86-.555-2.644.68-5.133 2.986-5.783 2.277-.637 4.388-.113 6.319 1.23.25.17.43.396.791.31a4.523 4.523 0 0 0 2.416-1.554c.917-1.132 1.542-2.404 1.834-3.832.07-.368.236-.566.555-.722 1.944-.89 3.972-1.54 6.11-1.739 2.93-.283 5.333.636 6.958 3.267.18.282.375.523.07.919-.278.367.013.806.486.82.444.014.874-.029 1.319-.057.278-.014.416-.198.486-.438.083-.255-.042-.552-.25-.594-.639-.113-.722-.707-1.055-1.089-.403-.48-.264-.82.083-1.258 1.153-1.485 1.722-3.196 1.541-5.119-.236-2.588-2.083-4.072-4.596-3.662-1.417.226-2.75.778-4.111 1.244-2.264.778-4.416 1.824-6.5 2.97-1.43.777-2.777 1.81-4.04 2.912-1.056.92-2 1.938-2.875 3.097-.764-1.357-1.847-2.107-3.291-2.333-1.653-.269-3.18.099-4.597.933-2.597 1.541-3.5 4.214-4.264 6.9-.43 1.514-.569 3.125-.874 4.68a15.87 15.87 0 0 1-1.375 4.06c-.736 1.47-1.514 2.926-2.083 4.467-1.167 3.154-.236 6.151 3.027 7.198 2.93.947 6.43-.439 8-3.14 1.18-2.05 1.319-4.27 1.166-6.56-.042-.51-.39-1.202-.07-1.471.306-.269.917.24 1.417.283.416.028.625.212.764.636.374 1.117.986 2.15 1.986 2.73 1.471.847 2.666 1.95 3.805 3.18.25.283.374.467.277.835-.569 2.276-1.11 4.567-1.666 6.844-.042.198-.084.382-.278.537a53.677 53.677 0 0 0-2.541 2.192c-.459.438-.945.58-1.556.594-3.458.042-6.888.325-10.207 1.4-5.624 1.838-9.346 5.556-10.887 11.425a26.325 26.325 0 0 0-.848 6.49c-.013 3.351.292 6.688.486 10.011.348 5.614.695 11.241 1.167 16.841.25 3.097.528 6.193.792 9.29.07.071.083.141.027.226.028.255.07.509.098.764.027.07.055.141.083.226.028.071.056.156.083.226.042 0 .07.029.084.071.86-.085.93-.17.847-1.046-.125-1.216-.292-2.418-.39-3.634a548.677 548.677 0 0 1-.638-8.23c-.32-4.454-.625-8.922-.93-13.376l-.334-5.218c-.194-3.38-.43-6.759.084-10.153C27 99.486 30.944 94.975 37.47 93.207c3-.805 6.055-1.031 9.138-1.116.597-.014.889.141 1.139.707 2.416 5.345 4.874 10.661 7.318 15.992.14.297.25.636.653.636.403.015.528-.311.667-.608.569-1.159 1.138-2.304 1.694-3.478.18-.382.32-.424.639-.113.958.919 1.944 1.81 2.916 2.729.25.226.5.452.861.297.333-.142.347-.467.389-.778l.416-3.012c.487-3.492.959-7 1.43-10.492.056-.424.195-.58.668-.523 1.5.184 2.985.396 4.43.778 2.416.65 4.666 1.654 6.457 3.52 1.583 1.4 2.583 3.211 3.458 5.105.458.99.889 2.008 1.208 3.125-1.666-.07-3.18.41-4.707.82-1 .524-2.098.877-3.042 1.513-.528.354-.694.198-.778-.367-.069-.424-.208-.905-.777-.764-.625.156-.43.651-.32 1.089.89 3.408 1.75 6.83 2.653 10.237.11.425.041.594-.375.75a574.672 574.672 0 0 0-8.25 3.125c-.319.127-.596.127-.93.028-5.443-1.753-10.887-3.507-16.442-4.864-.361-.085-.528-.311-.695-.608a3713.77 3713.77 0 0 0-6.97-12.698c-.195-.354-.376-.707-.598-1.032-.18-.269-.472-.325-.736-.142-.25.17-.361.425-.208.736.097.183.194.367.291.565l1.57 2.899c-5.486.481-9.166 3.888-12.693 7.65-.223-.382-.431-.75-.64-1.103-.194-.325-.471-.481-.819-.283-.333.198-.36.523-.166.863.055.099.11.212.166.311 1.153 2.05 2.278 4.1 3.444 6.151 2.444 4.298 4.889 8.597 7.36 12.867 1.89 3.266 3.806 6.519 5.93 9.629 1.028 1.513 2.39 2.56 4.208 2.857 1.75.297 3.444-.014 5.11-.58 1.987-.679 3.875-1.612 5.695-2.672 2.097-1.231 4.208-2.404 6.263-3.719.778-.495 1.444-.665 2.208-.17.444.283.944.297 1.416.424 1.82.523 3.639 1.061 5.472 1.541.458.114.583.34.611.764.111 1.456.25 2.913.389 4.355.042.439.055.99.694.891.597-.085.486-.58.445-1.004-.125-1.315-.236-2.63-.375-3.945-.056-.495.028-.65.57-.523 2.04.509 4.096 1.004 6.193 1.23 1.597.17 3.18.113 4.75-.41 3.235-1.032 4.554-3.719 4.443-6.929zm-33.885-31.263a670.014 670.014 0 0 0-1.666 3.365c-.834-1.81-1.625-3.507-2.403-5.204-1.569-3.407-3.11-6.83-4.694-10.223-.194-.424-.152-.664.209-.947.444-.34.86-.707 1.25-1.117.347-.368.486-.212.68.155 2.194 4.483 4.388 8.965 6.596 13.447.07.184.14.326.028.524zm6.263-10.79L61.9 106.345c0 .042-.042.071-.125.184l-2.75-2.546c-.18-.155-.11-.325-.041-.509 1.458-3.662 2.916-7.324 4.36-10.986.028-.057.056-.128.111-.24.236.438.292.777.236 1.159zm-4.18 28.705c1.167.368 2.333.735 3.694 1.174-1.486.594-2.763 1.117-4.055 1.64-1.972.792-3.958 1.584-5.93 2.375-.264.099-.527.213-.805.184-2.597-.283-5.166.227-7.75.368-1.04.056-2.082.127-3.11-.042-.139-.029-.278-.029-.403-.085-.305-.113-.666-.227-.666-.622 0-.368.333-.481.61-.58.862-.297 1.764-.368 2.667-.424 2.166-.156 4.347-.128 6.527-.17.209 0 .417 0 .625-.028.333-.057.556-.255.528-.623-.028-.367-.25-.565-.597-.551-.695 0-1.39.042-2.084.057-2.221.042-4.443.014-6.652.325-.555.07-1.083.226-1.61.41-.18.071-.403.452-.611.014-.167-.354-.278-.721.125-1.004.375-.255.805-.353 1.236-.41 1.777-.269 3.555-.17 5.332-.17 1.014 0 2.042 0 3.055-.028.361 0 .653-.17.64-.594-.015-.452-.306-.594-.709-.58-2.389.085-4.763-.099-7.152.057-1.041.071-2.07.184-3.014.721-.152.099-.277.141-.388-.071-.167-.339-.236-.678.083-.961.417-.368.917-.537 1.444-.636 1.736-.368 3.5-.368 5.25-.312.916.029 1.847.099 2.777.17.375.028.722 0 .82-.438.097-.453-.223-.622-.57-.75-2.222-.791-4.444-1.583-6.666-2.389-.264-.099-.5-.227-.75-.34 1.139-.297 2.222-.042 3.292.198 4.999 1.089 9.915 2.574 14.817 4.115zm.736 18.396c-2.486 1.4-4.916 2.927-7.61 3.903-.889.325-1.805.58-2.75.707-2.485.339-4.43-.495-5.86-2.63-2.208-3.323-4.236-6.731-6.222-10.195-2.971-5.175-5.916-10.379-8.86-15.568-.18-.311-.347-.58-.041-.948 2.638-3.195 5.735-5.726 9.72-6.985.306-.099.626-.155.945-.198 1.556-.198 1.806-.056 2.57 1.343 1.069 1.98 2.166 3.946 3.249 5.911.194.368.389.735.653 1.216-1.18-.184-2.222-.353-3.278-.509-.555-.085-1.11-.113-1.666-.028-.542.085-.889.41-1.014.933-.125.551.139.961.611 1.23 1.014.594 2.125.919 3.208 1.301.167.057.361.057.486.283-1.166.085-2.32.099-3.458.297-.805.141-1.583.339-2.277.792-1.167.749-1.292 2.121-.264 3.082.083.085.208.127.18.269-.18 1.131.695 1.951.89 2.983.152.821.985 1.061 1.735 1.202 1.847.34 3.694.099 5.527-.056 1.889-.156 3.778-.453 5.666-.184.361.056.68-.085 1-.212 6.29-2.545 12.582-5.076 18.928-7.466.57-.212 1.14-.382 1.709-.608.305-.127.402-.014.472.268.694 2.687 1.374 5.374 2.083 8.046.083.311-.042.467-.264.651-5.124 4.058-10.36 7.96-16.068 11.17zm29.553-2.305c-.584 1.627-1.709 2.645-3.32 3.154-1.694.537-3.43.537-5.152.226a109.106 109.106 0 0 1-13.86-3.479c-.18-.056-.346-.127-.5-.183-.069-.227.112-.255.21-.326 3.47-2.375 6.832-4.92 10.165-7.508.5-.382.638-.735.472-1.372a4377.25 4377.25 0 0 1-4.736-18.283c-.07-.282-.153-.523.18-.721.973-.537 1.903-1.159 2.987-1.456 1.471-.679 3-1.061 4.624-.99.375.014.625.127.75.551 1.32 4.483 2.972 8.838 4.624 13.193.014.043.014.099.014.142 1.583 4.185 3.139 8.399 3.805 12.867.195 1.4.222 2.814-.263 4.185z" fill="#200F09"/><path d="M1.058 76.31c-1.972-.226-3.888 1.64-3.944 3.846-.055 2.277 1.834 4.143 4.139 4.073 2-.057 3.68-1.81 3.736-3.988.055-2.347-2.167-4.2-3.93-3.93zm.042 6.703c-1.597.014-2.722-1.16-2.805-2.758-.07-1.499 1.458-2.998 2.75-2.8 1.638 0 2.721 1.132 2.735 2.857.014 1.527-1.138 2.686-2.68 2.7zM18.737 85.416c-.459.976-.945 2.037-1.445 3.097-1.083 2.305-2.18 4.61-3.277 6.929-.18.367-.389.679-.847.466-.472-.212-.375-.594-.208-.961 1.541-3.252 3.082-6.519 4.638-9.757.167-.34.347-.735.82-.565.29.099.374.381.319.791z" fill="#FCDF5A"/><path d="M49.053 68.858c-.39.212-.64.028-.847-.326a6.045 6.045 0 0 0-2.903-2.516 2.823 2.823 0 0 0-1.277-.24c-.417.028-.792-.043-.806-.538-.028-.537.403-.608.82-.636h.208c2.222.282 3.833 1.498 4.985 3.393.18.311.18.65-.18.863z" fill="#200F09"/><path d="M130.016 129.307c-.041.084-.097.24-.166.381-.611 1.132-1.431 2.121-1.931 3.309-.139.34-.513.594-.791.877-.195.198-.389.085-.57-.028-.263-.17-.291-.453-.18-.679.472-.877.791-1.824 1.5-2.559.444-.453.68-1.047 1-1.584.152-.255.361-.439.68-.34.306.071.444.269.458.623zM69.579 29.026c-.32.198-.556.07-.736-.255-.57-1.046-1.167-2.078-1.722-3.125-.306-.58-.125-1.032.416-1.046.264-.056.39.156.5.368.597 1.088 1.18 2.177 1.778 3.252.236.382.055.622-.236.806zM68.05 31.443c-.013.34-.152.495-.347.594-.208.099-.416.07-.569-.1a4.932 4.932 0 0 1-.458-.607c-.472-.778-.945-1.555-1.403-2.333-.208-.34-.25-.693.14-.92.388-.24.624 0 .832.34.5.834 1.028 1.654 1.542 2.489.11.198.194.41.264.537z" fill="#FA9BE1"/><path d="M70.578 71.969c-.695.282-1.306.65-1.792 1.258-.166.226-.458.198-.694.028-.222-.14-.278-.367-.208-.608.166-.608 1.75-1.753 2.402-1.725.25.014.445.114.514.382.07.255.07.552-.222.665zM58.677 59.737c0 .382-.82.92-1.472.92-.278 0-.472-.198-.486-.552-.014-.396.791-.92 1.389-.905.347-.014.57.156.57.537zM60.176 63.344c-.055.438-.305.693-.736.678-.43-.014-.694-.297-.666-.735.027-.424.277-.707.722-.679.444.015.652.312.68.736zM69.425 62.636c-.444 0-.694-.226-.722-.664-.028-.481.278-.707.694-.736.57-.127.64.34.653.665.014.367-.139.735-.625.735z" fill="#200F09"/><path d="M26.973 146.727c-.14-.056-.167-.141-.028-.226.07.071.083.141.028.226zM27.152 147.703c-.166-.014-.236-.085-.083-.226.028.084.056.155.084.226zM27.32 148h-.07l-.027-.057c.055-.014.083.014.097.057z" fill="#FA9BE1"/><path d="M46.04 117.076c-1.181-.184-2.223-.353-3.278-.509-.556-.085-1.111-.113-1.667-.014-.541.085-.889.396-1.013.933-.125.552.138.962.61 1.23 1.014.594 2.125.92 3.209 1.301.166.057.36.057.486.283-1.167.085-2.32.099-3.458.297-.806.141-1.584.339-2.278.792-1.166.749-1.291 2.121-.264 3.068.084.085.195.128.18.269-.18 1.131.695 1.951.89 2.998.152.806.986 1.06 1.736 1.202 1.847.339 3.694.099 5.54-.057 1.89-.156 3.764-.452 5.667-.184.36.057.68-.085 1-.212 6.29-2.545 12.581-5.076 18.928-7.466.57-.212 1.139-.382 1.694-.608.306-.127.403-.014.472.269.695 2.686 1.375 5.373 2.083 8.045.084.312-.041.481-.263.651-5.153 4.03-10.388 7.933-16.096 11.142-2.486 1.4-4.916 2.913-7.61 3.903-.889.325-1.805.58-2.75.707-2.486.339-4.43-.495-5.86-2.63-2.208-3.323-4.236-6.731-6.222-10.181-2.972-5.175-5.916-10.379-8.86-15.582-.18-.311-.36-.58-.041-.948 2.638-3.195 5.735-5.726 9.72-6.985.306-.099.626-.155.945-.198 1.555-.198 1.805-.056 2.57 1.343 1.068 1.98 2.166 3.946 3.249 5.911.236.382.43.749.68 1.23z" fill="#FEFEFE"/><path d="M41.386 117.797c1.139-.297 2.222-.043 3.291.184 5.014 1.103 9.93 2.587 14.832 4.129 1.167.367 2.333.735 3.694 1.173-1.486.594-2.763 1.117-4.055 1.64-1.972.792-3.958 1.584-5.93 2.376-.264.099-.528.226-.805.184-2.597-.283-5.166.24-7.75.367-1.04.057-2.082.128-3.11-.042-.139-.028-.278-.028-.403-.085-.305-.113-.666-.226-.666-.622 0-.368.333-.481.61-.58.862-.297 1.764-.367 2.667-.424 2.166-.156 4.347-.127 6.527-.17.208 0 .417 0 .625-.028.333-.057.555-.254.528-.622-.028-.368-.25-.566-.598-.552-.694 0-1.388.043-2.083.057-2.222.042-4.444.014-6.652.325a8.979 8.979 0 0 0-1.61.41c-.181.071-.403.453-.612.014-.166-.353-.277-.721.125-1.004.375-.254.806-.353 1.236-.41 1.778-.268 3.556-.169 5.333-.169 1.014 0 2.041 0 3.055-.029.361-.014.653-.169.64-.593-.015-.453-.306-.594-.71-.58-2.374.085-4.762-.099-7.151.056-1.042.071-2.07.184-3 .722-.166.098-.278.141-.389-.071-.166-.34-.236-.679.084-.962.416-.367.916-.537 1.444-.636 1.736-.368 3.5-.368 5.25-.311.93.028 1.846.099 2.763.17.375.028.722 0 .82-.439.096-.452-.223-.622-.57-.749-2.222-.792-4.444-1.584-6.666-2.39-.264-.085-.514-.226-.764-.339zM55.76 107.56c-.833-1.81-1.625-3.507-2.402-5.204-1.57-3.408-3.111-6.83-4.694-10.223-.195-.424-.153-.665.208-.948.444-.339.861-.707 1.25-1.117.347-.367.486-.212.68.156 2.194 4.482 4.389 8.965 6.597 13.447.083.184.152.325.055.523a147.436 147.436 0 0 0-1.694 3.366zM61.773 106.528l-2.75-2.546c-.18-.155-.111-.325-.042-.509 1.459-3.662 2.903-7.324 4.361-10.986.028-.057.056-.128.111-.24.236.437.292.777.236 1.159l-1.791 12.938c0 .042-.042.07-.125.184z" fill="#FEFEFE"/><path d="M38.956 22.954H12.223c-1.125 0-1.153.028-1.153 1.202v24.165c0 .948.098 1.047 1.028 1.047h27.275c.388 0 .597-.212.638-.594.028-.283.028-.566.028-.849V24.043c0-.962-.125-1.089-1.083-1.089zm-1.111 1.23c-1.18 1.075-2.222 2.037-3.264 2.984-2.819 2.545-5.638 5.076-8.43 7.664-.5.466-.79.41-1.249-.014-2.264-2.093-4.569-4.172-6.86-6.25a590.041 590.041 0 0 0-4.389-4.002c-.097-.085-.18-.198-.347-.368h24.539v-.014zM12.223 46.582V25.81c0-.226-.111-.551.083-.664.264-.142.43.184.611.34 3.736 3.393 7.458 6.772 11.193 10.138.459.41.486.636-.013 1.074-3.625 3.252-7.222 6.533-10.833 9.8-.291.268-.541.58-.944.749-.153-.24-.097-.453-.097-.665zm25.441 1.556H13.237c1.416-1.301 2.708-2.475 4-3.649 2.582-2.347 5.18-4.694 7.748-7.055.39-.354.611-.467 1.056-.057 3.68 3.365 7.374 6.716 11.068 10.054.208.183.417.367.625.537a.476.476 0 0 1-.07.17zm1.056-.92c-.208.085-.333-.198-.486-.325-3.791-3.436-7.583-6.886-11.388-10.322-.291-.255-.43-.41-.055-.75 3.944-3.549 7.874-7.126 11.804-10.69.028-.028.083-.042.236-.14V46.596c.014.197.139.508-.111.621z" fill="#13D6A3"/><path d="M66.578 63.91c-.014.028-.042.042-.056.056 0 0-.014 0-.014.014-.013 0-.013.014-.027.014h-.084c-.014 0-.027-.014-.027-.014l-.014-.014c-.014-.014-.028-.028-.028-.043-.236-.339-.458-.692-.68-1.06-.126-.212.055-.212.194-.226.153.014.833 1.13.736 1.272z" fill="#FA9BE1"/></g></g><defs><clipPath id="a"><rect width="148" height="148" rx="24" fill="#fff"/></clipPath><clipPath id="b"><path fill="#fff" transform="translate(-4 10)" d="M0 0h155v138H0z"/></clipPath></defs></svg>